<?xml version="1.0" encoding="us-ascii" standalone="no"?><svg xmlns="http://www.w3.org/2000/svg" xmlns:xlink="http://www.w3.org/1999/xlink" contentStyleType="text/css" height="1284px" preserveAspectRatio="none" style="width:1857px;height:1284px;background:#FFFFFF;" version="1.1" viewBox="0 0 1857 1284" width="1857px" zoomAndPan="magnify"><defs/><g><rect fill="#FFFFFF" height="1115.4473" style="stroke:#181818;stroke-width:1.0;" width="10" x="43" y="79.6211"/><rect fill="#FFFFFF" height="1092.1563" style="stroke:#181818;stroke-width:1.0;" width="10" x="280" y="102.9121"/><rect fill="#FFFFFF" height="31.291" style="stroke:#181818;stroke-width:1.0;" width="10" x="462" y="134.2031"/><rect fill="#FFFFFF" height="606.791" style="stroke:#181818;stroke-width:1.0;" width="10" x="607.5" y="196.7852"/><rect fill="#FFFFFF" height="281.6191" style="stroke:#181818;stroke-width:1.0;" width="10" x="607.5" y="873.1582"/><rect fill="#FFFFFF" height="31.291" style="stroke:#181818;stroke-width:1.0;" width="10" x="876.5" y="348.2402"/><rect fill="#FFFFFF" height="42.9365" style="stroke:#181818;stroke-width:1.0;" width="10" x="876.5" y="422.4678"/><rect fill="#FFFFFF" height="31.291" style="stroke:#181818;stroke-width:1.0;" width="10" x="876.5" y="496.6953"/><rect fill="#FFFFFF" height="31.291" style="stroke:#181818;stroke-width:1.0;" width="10" x="876.5" y="575.9082"/><rect fill="#FFFFFF" height="42.9365" style="stroke:#181818;stroke-width:1.0;" width="10" x="876.5" y="650.1357"/><rect fill="#FFFFFF" height="31.291" style="stroke:#181818;stroke-width:1.0;" width="10" x="876.5" y="724.3633"/><rect fill="#FFFFFF" height="62.582" style="stroke:#181818;stroke-width:1.0;" width="10" x="1193" y="904.4492"/><rect fill="#FFFFFF" height="62.582" style="stroke:#181818;stroke-width:1.0;" width="10" x="1346.5" y="998.3223"/><rect fill="#FFFFFF" height="31.291" style="stroke:#181818;stroke-width:1.0;" width="10" x="1586" y="1092.1953"/><rect fill="#FFFFFF" height="31.291" style="stroke:#181818;stroke-width:1.0;" width="10" x="1716" y="228.0762"/><rect fill="#FFFFFF" height="31.291" style="stroke:#181818;stroke-width:1.0;" width="10" x="1817" y="935.7402"/><rect fill="#FFFFFF" height="31.291" style="stroke:#181818;stroke-width:1.0;" width="10" x="1817" y="1029.6133"/><rect fill="none" height="537.209" style="stroke:#000000;stroke-width:1.5;" width="1199.5" x="10" y="305.6582"/><line style="stroke:#181818;stroke-width:0.5;stroke-dasharray:5.0,5.0;" x1="48" x2="48" y1="69.6211" y2="1204.0684"/><line style="stroke:#181818;stroke-width:0.5;stroke-dasharray:5.0,5.0;" x1="285" x2="285" y1="69.6211" y2="1204.0684"/><line style="stroke:#181818;stroke-width:0.5;stroke-dasharray:5.0,5.0;" x1="467" x2="467" y1="69.6211" y2="1204.0684"/><line style="stroke:#181818;stroke-width:0.5;stroke-dasharray:5.0,5.0;" x1="612" x2="612" y1="69.6211" y2="1204.0684"/><line style="stroke:#181818;stroke-width:0.5;stroke-dasharray:5.0,5.0;" x1="881.5" x2="881.5" y1="69.6211" y2="1204.0684"/><line style="stroke:#181818;stroke-width:0.5;stroke-dasharray:5.0,5.0;" x1="992.5" x2="992.5" y1="69.6211" y2="1204.0684"/><line style="stroke:#181818;stroke-width:0.5;stroke-dasharray:5.0,5.0;" x1="1078.5" x2="1078.5" y1="69.6211" y2="1204.0684"/><line style="stroke:#181818;stroke-width:0.5;stroke-dasharray:5.0,5.0;" x1="1197.5" x2="1197.5" y1="69.6211" y2="1204.0684"/><line style="stroke:#181818;stroke-width:0.5;stroke-dasharray:5.0,5.0;" x1="1351.5" x2="1351.5" y1="69.6211" y2="1204.0684"/><line style="stroke:#181818;stroke-width:0.5;stroke-dasharray:5.0,5.0;" x1="1482.5" x2="1482.5" y1="69.6211" y2="1204.0684"/><line style="stroke:#181818;stroke-width:0.5;stroke-dasharray:5.0,5.0;" x1="1590.5" x2="1590.5" y1="69.6211" y2="1204.0684"/><line style="stroke:#181818;stroke-width:0.5;stroke-dasharray:5.0,5.0;" x1="1720.5" x2="1720.5" y1="69.6211" y2="1204.0684"/><line style="stroke:#181818;stroke-width:0.5;stroke-dasharray:5.0,5.0;" x1="1821.5" x2="1821.5" y1="69.6211" y2="1204.0684"/><rect fill="#E2E2F0" height="32.6211" rx="2.5" ry="2.5" style="stroke:#181818;stroke-width:0.5;" width="56" x="20" y="36"/><text fill="#000000" font-family="sans-serif" font-size="14" lengthAdjust="spacing" textLength="42" x="27" y="58.1074">:Route</text><rect fill="#E2E2F0" height="32.6211" rx="2.5" ry="2.5" style="stroke:#181818;stroke-width:0.5;" width="56" x="20" y="1203.0684"/><text fill="#000000" font-family="sans-serif" font-size="14" lengthAdjust="spacing" textLength="42" x="27" y="1225.1758">:Route</text><rect fill="#E2E2F0" height="32.6211" rx="2.5" ry="2.5" style="stroke:#181818;stroke-width:0.5;" width="164" x="203" y="36"/><text fill="#000000" font-family="sans-serif" font-size="14" lengthAdjust="spacing" textLength="150" x="210" y="58.1074">:TaskRequestController</text><rect fill="#E2E2F0" height="32.6211" rx="2.5" ry="2.5" style="stroke:#181818;stroke-width:0.5;" width="164" x="203" y="1203.0684"/><text fill="#000000" font-family="sans-serif" font-size="14" lengthAdjust="spacing" textLength="150" x="210" y="1225.1758">:TaskRequestController</text><rect fill="#E2E2F0" height="32.6211" rx="2.5" ry="2.5" style="stroke:#181818;stroke-width:0.5;" width="122" x="406" y="36"/><text fill="#000000" font-family="sans-serif" font-size="14" lengthAdjust="spacing" textLength="108" x="413" y="58.1074">:CreateTaskDTO</text><rect fill="#E2E2F0" height="32.6211" rx="2.5" ry="2.5" style="stroke:#181818;stroke-width:0.5;" width="122" x="406" y="1203.0684"/><text fill="#000000" font-family="sans-serif" font-size="14" lengthAdjust="spacing" textLength="108" x="413" y="1225.1758">:CreateTaskDTO</text><rect fill="#E2E2F0" height="32.6211" rx="2.5" ry="2.5" style="stroke:#181818;stroke-width:0.5;" width="149" x="538" y="36"/><text fill="#000000" font-family="sans-serif" font-size="14" lengthAdjust="spacing" textLength="135" x="545" y="58.1074">:TaskRequestService</text><rect fill="#E2E2F0" height="32.6211" rx="2.5" ry="2.5" style="stroke:#181818;stroke-width:0.5;" width="149" x="538" y="1203.0684"/><text fill="#000000" font-family="sans-serif" font-size="14" lengthAdjust="spacing" textLength="135" x="545" y="1225.1758">:TaskRequestService</text><rect fill="#E2E2F0" height="32.6211" rx="2.5" ry="2.5" style="stroke:#181818;stroke-width:0.5;" width="154" x="804.5" y="36"/><text fill="#000000" font-family="sans-serif" font-size="14" lengthAdjust="spacing" textLength="140" x="811.5" y="58.1074">:HTTPRequestService</text><rect fill="#E2E2F0" height="32.6211" rx="2.5" ry="2.5" style="stroke:#181818;stroke-width:0.5;" width="154" x="804.5" y="1203.0684"/><text fill="#000000" font-family="sans-serif" font-size="14" lengthAdjust="spacing" textLength="140" x="811.5" y="1225.1758">:HTTPRequestService</text><rect fill="#E2E2F0" height="32.6211" rx="2.5" ry="2.5" style="stroke:#181818;stroke-width:0.5;" width="49" x="968.5" y="36"/><text fill="#000000" font-family="sans-serif" font-size="14" lengthAdjust="spacing" textLength="35" x="975.5" y="58.1074">:Task</text><rect fill="#E2E2F0" height="32.6211" rx="2.5" ry="2.5" style="stroke:#181818;stroke-width:0.5;" width="49" x="968.5" y="1203.0684"/><text fill="#000000" font-family="sans-serif" font-size="14" lengthAdjust="spacing" textLength="35" x="975.5" y="1225.1758">:Task</text><rect fill="#E2E2F0" height="32.6211" rx="2.5" ry="2.5" style="stroke:#181818;stroke-width:0.5;" width="102" x="1027.5" y="36"/><text fill="#000000" font-family="sans-serif" font-size="14" lengthAdjust="spacing" textLength="88" x="1034.5" y="58.1074">:TaskRequest</text><rect fill="#E2E2F0" height="32.6211" rx="2.5" ry="2.5" style="stroke:#181818;stroke-width:0.5;" width="102" x="1027.5" y="1203.0684"/><text fill="#000000" font-family="sans-serif" font-size="14" lengthAdjust="spacing" textLength="88" x="1034.5" y="1225.1758">:TaskRequest</text><rect fill="#E2E2F0" height="32.6211" rx="2.5" ry="2.5" style="stroke:#181818;stroke-width:0.5;" width="117" x="1139.5" y="36"/><text fill="#000000" font-family="sans-serif" font-size="14" lengthAdjust="spacing" textLength="103" x="1146.5" y="58.1074">:TaskRepository</text><rect fill="#E2E2F0" height="32.6211" rx="2.5" ry="2.5" style="stroke:#181818;stroke-width:0.5;" width="117" x="1139.5" y="1203.0684"/><text fill="#000000" font-family="sans-serif" font-size="14" lengthAdjust="spacing" textLength="103" x="1146.5" y="1225.1758">:TaskRepository</text><rect fill="#E2E2F0" height="32.6211" rx="2.5" ry="2.5" style="stroke:#181818;stroke-width:0.5;" width="170" x="1266.5" y="36"/><text fill="#000000" font-family="sans-serif" font-size="14" lengthAdjust="spacing" textLength="156" x="1273.5" y="58.1074">:TaskRequestRepository</text><rect fill="#E2E2F0" height="32.6211" rx="2.5" ry="2.5" style="stroke:#181818;stroke-width:0.5;" width="170" x="1266.5" y="1203.0684"/><text fill="#000000" font-family="sans-serif" font-size="14" lengthAdjust="spacing" textLength="156" x="1273.5" y="1225.1758">:TaskRequestRepository</text><rect fill="#E2E2F0" height="32.6211" rx="2.5" ry="2.5" style="stroke:#181818;stroke-width:0.5;" width="72" x="1446.5" y="36"/><text fill="#000000" font-family="sans-serif" font-size="14" lengthAdjust="spacing" textLength="58" x="1453.5" y="58.1074">TaskMap</text><rect fill="#E2E2F0" height="32.6211" rx="2.5" ry="2.5" style="stroke:#181818;stroke-width:0.5;" width="72" x="1446.5" y="1203.0684"/><text fill="#000000" font-family="sans-serif" font-size="14" lengthAdjust="spacing" textLength="58" x="1453.5" y="1225.1758">TaskMap</text><rect fill="#E2E2F0" height="32.6211" rx="2.5" ry="2.5" style="stroke:#181818;stroke-width:0.5;" width="125" x="1528.5" y="36"/><text fill="#000000" font-family="sans-serif" font-size="14" lengthAdjust="spacing" textLength="111" x="1535.5" y="58.1074">TaskRequestMap</text><rect fill="#E2E2F0" height="32.6211" rx="2.5" ry="2.5" style="stroke:#181818;stroke-width:0.5;" width="125" x="1528.5" y="1203.0684"/><text fill="#000000" font-family="sans-serif" font-size="14" lengthAdjust="spacing" textLength="111" x="1535.5" y="1225.1758">TaskRequestMap</text><rect fill="#E2E2F0" height="32.6211" rx="2.5" ry="2.5" style="stroke:#181818;stroke-width:0.5;" width="115" x="1663.5" y="36"/><text fill="#000000" font-family="sans-serif" font-size="14" lengthAdjust="spacing" textLength="101" x="1670.5" y="58.1074">CreateTaskMap</text><rect fill="#E2E2F0" height="32.6211" rx="2.5" ry="2.5" style="stroke:#181818;stroke-width:0.5;" width="115" x="1663.5" y="1203.0684"/><text fill="#000000" font-family="sans-serif" font-size="14" lengthAdjust="spacing" textLength="101" x="1670.5" y="1225.1758">CreateTaskMap</text><text fill="#000000" font-family="sans-serif" font-size="14" lengthAdjust="spacing" textLength="61" x="1788.5" y="66.1074">Database</text><path d="M1804,15 C1804,5 1822,5 1822,5 C1822,5 1840,5 1840,15 L1840,41 C1840,51 1822,51 1822,51 C1822,51 1804,51 1804,41 L1804,15 " fill="#E2E2F0" style="stroke:#181818;stroke-width:1.5;"/><path d="M1804,15 C1804,25 1822,25 1822,25 C1822,25 1840,25 1840,15 " fill="none" style="stroke:#181818;stroke-width:1.5;"/><text fill="#000000" font-family="sans-serif" font-size="14" lengthAdjust="spacing" textLength="61" x="1788.5" y="1218.1758">Database</text><path d="M1804,1231.6895 C1804,1221.6895 1822,1221.6895 1822,1221.6895 C1822,1221.6895 1840,1221.6895 1840,1231.6895 L1840,1257.6895 C1840,1267.6895 1822,1267.6895 1822,1267.6895 C1822,1267.6895 1804,1267.6895 1804,1257.6895 L1804,1231.6895 " fill="#E2E2F0" style="stroke:#181818;stroke-width:1.5;"/><path d="M1804,1231.6895 C1804,1241.6895 1822,1241.6895 1822,1241.6895 C1822,1241.6895 1840,1241.6895 1840,1231.6895 " fill="none" style="stroke:#181818;stroke-width:1.5;"/><rect fill="#FFFFFF" height="1115.4473" style="stroke:#181818;stroke-width:1.0;" width="10" x="43" y="79.6211"/><rect fill="#FFFFFF" height="1092.1563" style="stroke:#181818;stroke-width:1.0;" width="10" x="280" y="102.9121"/><rect fill="#FFFFFF" height="31.291" style="stroke:#181818;stroke-width:1.0;" width="10" x="462" y="134.2031"/><rect fill="#FFFFFF" height="606.791" style="stroke:#181818;stroke-width:1.0;" width="10" x="607.5" y="196.7852"/><rect fill="#FFFFFF" height="281.6191" style="stroke:#181818;stroke-width:1.0;" width="10" x="607.5" y="873.1582"/><rect fill="#FFFFFF" height="31.291" style="stroke:#181818;stroke-width:1.0;" width="10" x="876.5" y="348.2402"/><rect fill="#FFFFFF" height="42.9365" style="stroke:#181818;stroke-width:1.0;" width="10" x="876.5" y="422.4678"/><rect fill="#FFFFFF" height="31.291" style="stroke:#181818;stroke-width:1.0;" width="10" x="876.5" y="496.6953"/><rect fill="#FFFFFF" height="31.291" style="stroke:#181818;stroke-width:1.0;" width="10" x="876.5" y="575.9082"/><rect fill="#FFFFFF" height="42.9365" style="stroke:#181818;stroke-width:1.0;" width="10" x="876.5" y="650.1357"/><rect fill="#FFFFFF" height="31.291" style="stroke:#181818;stroke-width:1.0;" width="10" x="876.5" y="724.3633"/><rect fill="#FFFFFF" height="62.582" style="stroke:#181818;stroke-width:1.0;" width="10" x="1193" y="904.4492"/><rect fill="#FFFFFF" height="62.582" style="stroke:#181818;stroke-width:1.0;" width="10" x="1346.5" y="998.3223"/><rect fill="#FFFFFF" height="31.291" style="stroke:#181818;stroke-width:1.0;" width="10" x="1586" y="1092.1953"/><rect fill="#FFFFFF" height="31.291" style="stroke:#181818;stroke-width:1.0;" width="10" x="1716" y="228.0762"/><rect fill="#FFFFFF" height="31.291" style="stroke:#181818;stroke-width:1.0;" width="10" x="1817" y="935.7402"/><rect fill="#FFFFFF" height="31.291" style="stroke:#181818;stroke-width:1.0;" width="10" x="1817" y="1029.6133"/><polygon fill="#181818" points="268,98.9121,278,102.9121,268,106.9121,272,102.9121" style="stroke:#181818;stroke-width:1.0;"/><line style="stroke:#181818;stroke-width:1.0;" x1="53" x2="274" y1="102.9121" y2="102.9121"/><text fill="#000000" font-family="sans-serif" font-size="13" font-weight="bold" lengthAdjust="spacing" textLength="7" x="60" y="97.6494">1</text><text fill="#000000" font-family="sans-serif" font-size="13" lengthAdjust="spacing" textLength="197" x="71" y="97.6494">createTaskRequest(req, res, next)</text><polygon fill="#181818" points="450,130.2031,460,134.2031,450,138.2031,454,134.2031" style="stroke:#181818;stroke-width:1.0;"/><line style="stroke:#181818;stroke-width:1.0;" x1="290" x2="456" y1="134.2031" y2="134.2031"/><text fill="#000000" font-family="sans-serif" font-size="13" font-weight="bold" lengthAdjust="spacing" textLength="7" x="297" y="128.9404">2</text><text fill="#000000" font-family="sans-serif" font-size="13" lengthAdjust="spacing" textLength="142" x="308" y="128.9404">createTaskDTO=create()</text><polygon fill="#181818" points="301,161.4941,291,165.4941,301,169.4941,297,165.4941" style="stroke:#181818;stroke-width:1.0;"/><line style="stroke:#181818;stroke-width:1.0;stroke-dasharray:2.0,2.0;" x1="295" x2="466" y1="165.4941" y2="165.4941"/><text fill="#000000" font-family="sans-serif" font-size="13" font-weight="bold" lengthAdjust="spacing" textLength="7" x="307" y="160.2314">3</text><text fill="#000000" font-family="sans-serif" font-size="13" lengthAdjust="spacing" textLength="4" x="318" y="160.2314">&#160;</text><polygon fill="#181818" points="595.5,192.7852,605.5,196.7852,595.5,200.7852,599.5,196.7852" style="stroke:#181818;stroke-width:1.0;"/><line style="stroke:#181818;stroke-width:1.0;" x1="290" x2="601.5" y1="196.7852" y2="196.7852"/><text fill="#000000" font-family="sans-serif" font-size="13" font-weight="bold" lengthAdjust="spacing" textLength="7" x="297" y="191.5225">4</text><text fill="#000000" font-family="sans-serif" font-size="13" lengthAdjust="spacing" textLength="235" x="308" y="191.5225">CreateTaskAndRequest(createTaskDTO)</text><polygon fill="#181818" points="1704,224.0762,1714,228.0762,1704,232.0762,1708,228.0762" style="stroke:#181818;stroke-width:1.0;"/><line style="stroke:#181818;stroke-width:1.0;" x1="617.5" x2="1710" y1="228.0762" y2="228.0762"/><text fill="#000000" font-family="sans-serif" font-size="13" font-weight="bold" lengthAdjust="spacing" textLength="7" x="624.5" y="222.8135">5</text><text fill="#000000" font-family="sans-serif" font-size="13" lengthAdjust="spacing" textLength="197" x="635.5" y="222.8135">taskDTO= create(createTaskDTO)</text><polygon fill="#181818" points="628.5,255.3672,618.5,259.3672,628.5,263.3672,624.5,259.3672" style="stroke:#181818;stroke-width:1.0;"/><line style="stroke:#181818;stroke-width:1.0;stroke-dasharray:2.0,2.0;" x1="622.5" x2="1720" y1="259.3672" y2="259.3672"/><text fill="#000000" font-family="sans-serif" font-size="13" font-weight="bold" lengthAdjust="spacing" textLength="7" x="634.5" y="254.1045">6</text><text fill="#000000" font-family="sans-serif" font-size="13" lengthAdjust="spacing" textLength="4" x="645.5" y="254.1045">&#160;</text><polygon fill="#181818" points="981,286.6582,991,290.6582,981,294.6582,985,290.6582" style="stroke:#181818;stroke-width:1.0;"/><line style="stroke:#181818;stroke-width:1.0;" x1="617.5" x2="987" y1="290.6582" y2="290.6582"/><text fill="#000000" font-family="sans-serif" font-size="13" font-weight="bold" lengthAdjust="spacing" textLength="7" x="624.5" y="285.3955">7</text><text fill="#000000" font-family="sans-serif" font-size="13" lengthAdjust="spacing" textLength="133" x="635.5" y="285.3955">task=Create(TaskDTO)</text><path d="M10,305.6582 L71,305.6582 L71,314.9492 L61,324.9492 L10,324.9492 L10,305.6582 " fill="#EEEEEE" style="stroke:#000000;stroke-width:1.5;"/><rect fill="none" height="537.209" style="stroke:#000000;stroke-width:1.5;" width="1199.5" x="10" y="305.6582"/><text fill="#000000" font-family="sans-serif" font-size="13" font-weight="bold" lengthAdjust="spacing" textLength="16" x="25" y="320.6865">alt</text><text fill="#000000" font-family="sans-serif" font-size="11" font-weight="bold" lengthAdjust="spacing" textLength="83" x="86" y="319.5283">[Security Task]</text><polygon fill="#181818" points="864.5,344.2402,874.5,348.2402,864.5,352.2402,868.5,348.2402" style="stroke:#181818;stroke-width:1.0;"/><line style="stroke:#181818;stroke-width:1.0;" x1="617.5" x2="870.5" y1="348.2402" y2="348.2402"/><text fill="#000000" font-family="sans-serif" font-size="13" font-weight="bold" lengthAdjust="spacing" textLength="7" x="624.5" y="342.9775">8</text><text fill="#000000" font-family="sans-serif" font-size="13" lengthAdjust="spacing" textLength="174" x="635.5" y="342.9775">request(createTaskDTO.robot)</text><polygon fill="#181818" points="628.5,375.5313,618.5,379.5313,628.5,383.5313,624.5,379.5313" style="stroke:#181818;stroke-width:1.0;"/><line style="stroke:#181818;stroke-width:1.0;stroke-dasharray:2.0,2.0;" x1="622.5" x2="880.5" y1="379.5313" y2="379.5313"/><text fill="#000000" font-family="sans-serif" font-size="13" font-weight="bold" lengthAdjust="spacing" textLength="7" x="634.5" y="374.2686">9</text><text fill="#000000" font-family="sans-serif" font-size="13" lengthAdjust="spacing" textLength="4" x="645.5" y="374.2686">&#160;</text><polygon fill="#181818" points="864.5,418.4678,874.5,422.4678,864.5,426.4678,868.5,422.4678" style="stroke:#181818;stroke-width:1.0;"/><line style="stroke:#181818;stroke-width:1.0;" x1="617.5" x2="870.5" y1="422.4678" y2="422.4678"/><text fill="#000000" font-family="sans-serif" font-size="13" font-weight="bold" lengthAdjust="spacing" textLength="14" x="624.5" y="417.2051">10</text><text fill="#000000" font-family="sans-serif" font-size="13" lengthAdjust="spacing" textLength="189" x="642.5" y="417.2051">request(createTaskDTO.building)</text><path d="M891,392.5313 L891,436.5313 L1126,436.5313 L1126,402.5313 L1116,392.5313 L891,392.5313 " fill="#FEFFDD" style="stroke:#181818;stroke-width:0.5;"/><path d="M1116,392.5313 L1116,402.5313 L1126,402.5313 L1116,392.5313 " fill="#FEFFDD" style="stroke:#181818;stroke-width:0.5;"/><text fill="#000000" font-family="sans-serif" font-size="13" lengthAdjust="spacing" textLength="206" x="897" y="411.5596">to verify  if exist buildings,floor,robot</text><text fill="#000000" font-family="sans-serif" font-size="13" lengthAdjust="spacing" textLength="183" x="901" y="428.8506">from campus/frota manager API</text><polygon fill="#181818" points="628.5,461.4043,618.5,465.4043,628.5,469.4043,624.5,465.4043" style="stroke:#181818;stroke-width:1.0;"/><line style="stroke:#181818;stroke-width:1.0;stroke-dasharray:2.0,2.0;" x1="622.5" x2="880.5" y1="465.4043" y2="465.4043"/><text fill="#000000" font-family="sans-serif" font-size="13" font-weight="bold" lengthAdjust="spacing" textLength="14" x="634.5" y="460.1416">11</text><text fill="#000000" font-family="sans-serif" font-size="13" lengthAdjust="spacing" textLength="4" x="652.5" y="460.1416">&#160;</text><polygon fill="#181818" points="864.5,492.6953,874.5,496.6953,864.5,500.6953,868.5,496.6953" style="stroke:#181818;stroke-width:1.0;"/><line style="stroke:#181818;stroke-width:1.0;" x1="617.5" x2="870.5" y1="496.6953" y2="496.6953"/><text fill="#000000" font-family="sans-serif" font-size="13" font-weight="bold" lengthAdjust="spacing" textLength="14" x="624.5" y="491.4326">12</text><text fill="#000000" font-family="sans-serif" font-size="13" lengthAdjust="spacing" textLength="169" x="642.5" y="491.4326">request(createTaskDTO.floor)</text><polygon fill="#181818" points="628.5,523.9863,618.5,527.9863,628.5,531.9863,624.5,527.9863" style="stroke:#181818;stroke-width:1.0;"/><line style="stroke:#181818;stroke-width:1.0;stroke-dasharray:2.0,2.0;" x1="622.5" x2="880.5" y1="527.9863" y2="527.9863"/><text fill="#000000" font-family="sans-serif" font-size="13" font-weight="bold" lengthAdjust="spacing" textLength="14" x="634.5" y="522.7236">13</text><text fill="#000000" font-family="sans-serif" font-size="13" lengthAdjust="spacing" textLength="4" x="652.5" y="522.7236">&#160;</text><line style="stroke:#000000;stroke-width:1.0;stroke-dasharray:2.0,2.0;" x1="10" x2="1209.5" y1="536.9863" y2="536.9863"/><text fill="#000000" font-family="sans-serif" font-size="11" font-weight="bold" lengthAdjust="spacing" textLength="112" x="15" y="548.8564">[PickUp DeliveryTak]</text><polygon fill="#181818" points="864.5,571.9082,874.5,575.9082,864.5,579.9082,868.5,575.9082" style="stroke:#181818;stroke-width:1.0;"/><line style="stroke:#181818;stroke-width:1.0;" x1="617.5" x2="870.5" y1="575.9082" y2="575.9082"/><text fill="#000000" font-family="sans-serif" font-size="13" font-weight="bold" lengthAdjust="spacing" textLength="14" x="624.5" y="570.6455">14</text><text fill="#000000" font-family="sans-serif" font-size="13" lengthAdjust="spacing" textLength="174" x="642.5" y="570.6455">request(createTaskDTO.robot)</text><polygon fill="#181818" points="628.5,603.1992,618.5,607.1992,628.5,611.1992,624.5,607.1992" style="stroke:#181818;stroke-width:1.0;"/><line style="stroke:#181818;stroke-width:1.0;stroke-dasharray:2.0,2.0;" x1="622.5" x2="880.5" y1="607.1992" y2="607.1992"/><text fill="#000000" font-family="sans-serif" font-size="13" font-weight="bold" lengthAdjust="spacing" textLength="14" x="634.5" y="601.9365">15</text><text fill="#000000" font-family="sans-serif" font-size="13" lengthAdjust="spacing" textLength="4" x="652.5" y="601.9365">&#160;</text><polygon fill="#181818" points="864.5,646.1357,874.5,650.1357,864.5,654.1357,868.5,650.1357" style="stroke:#181818;stroke-width:1.0;"/><line style="stroke:#181818;stroke-width:1.0;" x1="617.5" x2="870.5" y1="650.1357" y2="650.1357"/><text fill="#000000" font-family="sans-serif" font-size="13" font-weight="bold" lengthAdjust="spacing" textLength="14" x="624.5" y="644.873">16</text><text fill="#000000" font-family="sans-serif" font-size="13" lengthAdjust="spacing" textLength="217" x="642.5" y="644.873">request(createTaskDTO.pickupRoom)</text><path d="M891,620.1992 L891,664.1992 L1204,664.1992 L1204,630.1992 L1194,620.1992 L891,620.1992 " fill="#FEFFDD" style="stroke:#181818;stroke-width:0.5;"/><path d="M1194,620.1992 L1194,630.1992 L1204,630.1992 L1194,620.1992 " fill="#FEFFDD" style="stroke:#181818;stroke-width:0.5;"/><text fill="#000000" font-family="sans-serif" font-size="13" lengthAdjust="spacing" textLength="284" x="897" y="639.2275">to verify if exist robot ,room pickup ,room Delivery</text><text fill="#000000" font-family="sans-serif" font-size="13" lengthAdjust="spacing" textLength="183" x="901" y="656.5186">from campus/frota manager API</text><polygon fill="#181818" points="628.5,689.0723,618.5,693.0723,628.5,697.0723,624.5,693.0723" style="stroke:#181818;stroke-width:1.0;"/><line style="stroke:#181818;stroke-width:1.0;stroke-dasharray:2.0,2.0;" x1="622.5" x2="880.5" y1="693.0723" y2="693.0723"/><text fill="#000000" font-family="sans-serif" font-size="13" font-weight="bold" lengthAdjust="spacing" textLength="14" x="634.5" y="687.8096">17</text><text fill="#000000" font-family="sans-serif" font-size="13" lengthAdjust="spacing" textLength="4" x="652.5" y="687.8096">&#160;</text><polygon fill="#181818" points="864.5,720.3633,874.5,724.3633,864.5,728.3633,868.5,724.3633" style="stroke:#181818;stroke-width:1.0;"/><line style="stroke:#181818;stroke-width:1.0;" x1="617.5" x2="870.5" y1="724.3633" y2="724.3633"/><text fill="#000000" font-family="sans-serif" font-size="13" font-weight="bold" lengthAdjust="spacing" textLength="14" x="624.5" y="719.1006">18</text><text fill="#000000" font-family="sans-serif" font-size="13" lengthAdjust="spacing" textLength="222" x="642.5" y="719.1006">request(createTaskDTO.deliveryRoom)</text><polygon fill="#181818" points="628.5,751.6543,618.5,755.6543,628.5,759.6543,624.5,755.6543" style="stroke:#181818;stroke-width:1.0;"/><line style="stroke:#181818;stroke-width:1.0;stroke-dasharray:2.0,2.0;" x1="622.5" x2="880.5" y1="755.6543" y2="755.6543"/><text fill="#000000" font-family="sans-serif" font-size="13" font-weight="bold" lengthAdjust="spacing" textLength="14" x="634.5" y="750.3916">19</text><text fill="#000000" font-family="sans-serif" font-size="13" lengthAdjust="spacing" textLength="4" x="652.5" y="750.3916">&#160;</text><line style="stroke:#000000;stroke-width:1.0;stroke-dasharray:2.0,2.0;" x1="10" x2="1209.5" y1="764.6543" y2="764.6543"/><text fill="#000000" font-family="sans-serif" font-size="11" font-weight="bold" lengthAdjust="spacing" textLength="55" x="15" y="776.5244">[if a Error]</text><polygon fill="#181818" points="301,799.5762,291,803.5762,301,807.5762,297,803.5762" style="stroke:#181818;stroke-width:1.0;"/><line style="stroke:#181818;stroke-width:1.0;stroke-dasharray:2.0,2.0;" x1="295" x2="611.5" y1="803.5762" y2="803.5762"/><text fill="#000000" font-family="sans-serif" font-size="13" font-weight="bold" lengthAdjust="spacing" textLength="14" x="307" y="798.3135">20</text><text fill="#000000" font-family="sans-serif" font-size="13" lengthAdjust="spacing" textLength="138" x="325" y="798.3135">("Something not  exist")</text><polygon fill="#181818" points="64,830.8672,54,834.8672,64,838.8672,60,834.8672" style="stroke:#181818;stroke-width:1.0;"/><line style="stroke:#181818;stroke-width:1.0;stroke-dasharray:2.0,2.0;" x1="58" x2="279" y1="834.8672" y2="834.8672"/><text fill="#000000" font-family="sans-serif" font-size="13" font-weight="bold" lengthAdjust="spacing" textLength="14" x="70" y="829.6045">21</text><text fill="#000000" font-family="sans-serif" font-size="13" lengthAdjust="spacing" textLength="168" x="88" y="829.6045">error ("Something not  exist")</text><polygon fill="#181818" points="1066.5,869.1582,1076.5,873.1582,1066.5,877.1582,1070.5,873.1582" style="stroke:#181818;stroke-width:1.0;"/><line style="stroke:#181818;stroke-width:1.0;stroke-dasharray:2.0,2.0;" x1="617.5" x2="1072.5" y1="873.1582" y2="873.1582"/><text fill="#000000" font-family="sans-serif" font-size="13" font-weight="bold" lengthAdjust="spacing" textLength="14" x="624.5" y="867.8955">22</text><text fill="#000000" font-family="sans-serif" font-size="13" lengthAdjust="spacing" textLength="261" x="642.5" y="867.8955">taskRequest=create(createTaskDTO,Task.id)</text><polygon fill="#181818" points="1181,900.4492,1191,904.4492,1181,908.4492,1185,904.4492" style="stroke:#181818;stroke-width:1.0;"/><line style="stroke:#181818;stroke-width:1.0;stroke-dasharray:2.0,2.0;" x1="617.5" x2="1187" y1="904.4492" y2="904.4492"/><text fill="#000000" font-family="sans-serif" font-size="13" font-weight="bold" lengthAdjust="spacing" textLength="14" x="624.5" y="899.1865">23</text><text fill="#000000" font-family="sans-serif" font-size="13" lengthAdjust="spacing" textLength="59" x="642.5" y="899.1865">save(task)</text><polygon fill="#181818" points="1805,931.7402,1815,935.7402,1805,939.7402,1809,935.7402" style="stroke:#181818;stroke-width:1.0;"/><line style="stroke:#181818;stroke-width:1.0;" x1="1203" x2="1811" y1="935.7402" y2="935.7402"/><text fill="#000000" font-family="sans-serif" font-size="13" font-weight="bold" lengthAdjust="spacing" textLength="14" x="1210" y="930.4775">24</text><text fill="#000000" font-family="sans-serif" font-size="13" lengthAdjust="spacing" textLength="87" x="1228" y="930.4775">writeData(task)</text><polygon fill="#181818" points="1209,963.0313,1199,967.0313,1209,971.0313,1205,967.0313" style="stroke:#181818;stroke-width:1.0;"/><line style="stroke:#181818;stroke-width:1.0;stroke-dasharray:2.0,2.0;" x1="1203" x2="1821" y1="967.0313" y2="967.0313"/><text fill="#000000" font-family="sans-serif" font-size="13" font-weight="bold" lengthAdjust="spacing" textLength="14" x="1215" y="961.7686">25</text><text fill="#000000" font-family="sans-serif" font-size="13" lengthAdjust="spacing" textLength="60" x="1233" y="961.7686">taskSaved</text><polygon fill="#181818" points="1334.5,994.3223,1344.5,998.3223,1334.5,1002.3223,1338.5,998.3223" style="stroke:#181818;stroke-width:1.0;"/><line style="stroke:#181818;stroke-width:1.0;stroke-dasharray:2.0,2.0;" x1="617.5" x2="1340.5" y1="998.3223" y2="998.3223"/><text fill="#000000" font-family="sans-serif" font-size="13" font-weight="bold" lengthAdjust="spacing" textLength="14" x="624.5" y="993.0596">26</text><text fill="#000000" font-family="sans-serif" font-size="13" lengthAdjust="spacing" textLength="107" x="642.5" y="993.0596">save(taskRequest)</text><polygon fill="#181818" points="1805,1025.6133,1815,1029.6133,1805,1033.6133,1809,1029.6133" style="stroke:#181818;stroke-width:1.0;"/><line style="stroke:#181818;stroke-width:1.0;" x1="1356.5" x2="1811" y1="1029.6133" y2="1029.6133"/><text fill="#000000" font-family="sans-serif" font-size="13" font-weight="bold" lengthAdjust="spacing" textLength="14" x="1363.5" y="1024.3506">27</text><text fill="#000000" font-family="sans-serif" font-size="13" lengthAdjust="spacing" textLength="135" x="1381.5" y="1024.3506">writeData(taskRequest)</text><polygon fill="#181818" points="1362.5,1056.9043,1352.5,1060.9043,1362.5,1064.9043,1358.5,1060.9043" style="stroke:#181818;stroke-width:1.0;"/><line style="stroke:#181818;stroke-width:1.0;stroke-dasharray:2.0,2.0;" x1="1356.5" x2="1821" y1="1060.9043" y2="1060.9043"/><text fill="#000000" font-family="sans-serif" font-size="13" font-weight="bold" lengthAdjust="spacing" textLength="14" x="1368.5" y="1055.6416">28</text><text fill="#000000" font-family="sans-serif" font-size="13" lengthAdjust="spacing" textLength="108" x="1386.5" y="1055.6416">taskRequestSaved</text><polygon fill="#181818" points="1574,1088.1953,1584,1092.1953,1574,1096.1953,1578,1092.1953" style="stroke:#181818;stroke-width:1.0;"/><line style="stroke:#181818;stroke-width:1.0;stroke-dasharray:2.0,2.0;" x1="617.5" x2="1580" y1="1092.1953" y2="1092.1953"/><text fill="#000000" font-family="sans-serif" font-size="13" font-weight="bold" lengthAdjust="spacing" textLength="14" x="624.5" y="1086.9326">29</text><text fill="#000000" font-family="sans-serif" font-size="13" lengthAdjust="spacing" textLength="153" x="642.5" y="1086.9326">toDTO(taskRequestSaved)</text><polygon fill="#181818" points="628.5,1119.4863,618.5,1123.4863,628.5,1127.4863,624.5,1123.4863" style="stroke:#181818;stroke-width:1.0;"/><line style="stroke:#181818;stroke-width:1.0;stroke-dasharray:2.0,2.0;" x1="622.5" x2="1590" y1="1123.4863" y2="1123.4863"/><text fill="#000000" font-family="sans-serif" font-size="13" font-weight="bold" lengthAdjust="spacing" textLength="14" x="634.5" y="1118.2236">30</text><text fill="#000000" font-family="sans-serif" font-size="13" lengthAdjust="spacing" textLength="107" x="652.5" y="1118.2236">taskRequestDTO :</text><polygon fill="#181818" points="301,1150.7773,291,1154.7773,301,1158.7773,297,1154.7773" style="stroke:#181818;stroke-width:1.0;"/><line style="stroke:#181818;stroke-width:1.0;stroke-dasharray:2.0,2.0;" x1="295" x2="611.5" y1="1154.7773" y2="1154.7773"/><text fill="#000000" font-family="sans-serif" font-size="13" font-weight="bold" lengthAdjust="spacing" textLength="14" x="307" y="1149.5146">31</text><text fill="#000000" font-family="sans-serif" font-size="13" lengthAdjust="spacing" textLength="4" x="325" y="1149.5146">&#160;</text><polygon fill="#181818" points="64,1182.0684,54,1186.0684,64,1190.0684,60,1186.0684" style="stroke:#181818;stroke-width:1.0;"/><line style="stroke:#181818;stroke-width:1.0;stroke-dasharray:2.0,2.0;" x1="58" x2="279" y1="1186.0684" y2="1186.0684"/><text fill="#000000" font-family="sans-serif" font-size="13" font-weight="bold" lengthAdjust="spacing" textLength="14" x="70" y="1180.8057">32</text><text fill="#000000" font-family="sans-serif" font-size="13" lengthAdjust="spacing" textLength="4" x="88" y="1180.8057">&#160;</text><!--SRC=[lLPDRzf04BtlhnXn0ecaTqkfH0DggoOgnKvFbQh5NiWgnkkirpJy-yv-iZO68LKD1s3Nxysy-M06sYfHjRirawIcKl6SrxHIC4fMebLi1BI1Jm_ppxs76MrULkorPOsw5vMIeYoPDE3xRFNG0zzBHXNJb7dstO3myxp1bCazpwthTB7wsKD-oRBb059V3w2rNVCycwNVpliCaD-hnO-dHPeDGclHS2NamQBrrM9v8P0UmT-US3JbaTO-Cu-pvUbpHuvW_gQFFcOx0jjBZIK5LNHD6mPpzuNWY-QAxn5XQqtqEznyDCM41F9WqZaTI_Ow1ScQALJiJKsEV5D-GqCwEex9UBopft74qBqWcMfbHGhMkVLcT5bHnJ6mMLLu8HthaLNJ2iGmhP2G0RIad1YdxQoHJk8wDcw2h9xe8zxxrbrbNTxPX-FW2FDUAe2KvQtawc1QAl1yGwDUEHJihHHh4QS-_082qwiaiSW0kzxJkkLbmQljX02-Ae5M9Dy-gmHFIi2UIRuv0F0Di3VUAF3uPhefXP1JenJWLmKRANQGqrtTDX_mkwAmenNTCWcpvLVo7h4OHV-IDK9OYRyUMFByvQc6EIiv9k2GqPTXmhlLysf7DIflwvKGkyi53VMqzSCoOl4isHryyF-rjbV7LJWrDh9h_0qNsDGNWwUma598trnk7YOm7gLYnzGpThZE7TWiZIQnEMFA3Z3acNcQ0DFcpjErwwe0d0d3SymD4x-Yt21pa_1kQ9PDzUSjB_g3yMZFBJ586hfdOsqlmeOLHm9E3rEtDnBuWrEBwMEV6AqMEzgDqXHT576IZlQ3e6X9HfhSRUGXNgOa9bqGU6fbMAV_Tz6Ns_4P57TtiIwAm9jntr1thKJBUy0p0auMIyJej6CNEDHs6DnV]--></g></svg>