<?xml version="1.0" encoding="us-ascii" standalone="no"?><svg xmlns="http://www.w3.org/2000/svg" xmlns:xlink="http://www.w3.org/1999/xlink" contentStyleType="text/css" height="944px" preserveAspectRatio="none" style="width:1855px;height:944px;background:#FFFFFF;" version="1.1" viewBox="0 0 1855 944" width="1855px" zoomAndPan="magnify"><defs/><g><rect fill="#FFFFFF" height="759.0332" style="stroke:#181818;stroke-width:1.0;" width="10" x="159.5" y="93.6211"/><rect fill="#FFFFFF" height="75.582" style="stroke:#181818;stroke-width:1.0;" width="10" x="419.5" y="154.2031"/><rect fill="#FFFFFF" height="75.582" style="stroke:#181818;stroke-width:1.0;" width="10" x="589.5" y="229.7852"/><rect fill="#FFFFFF" height="506.9961" style="stroke:#181818;stroke-width:1.0;" width="10" x="589.5" y="336.6582"/><rect fill="#FFFFFF" height="62.582" style="stroke:#181818;stroke-width:1.0;" width="10" x="988.5" y="524.7441"/><rect fill="#FFFFFF" height="193.7461" style="stroke:#181818;stroke-width:1.0;" width="10" x="1198" y="618.6172"/><rect fill="#FFFFFF" height="62.582" style="stroke:#181818;stroke-width:1.0;" width="10" x="1442" y="718.4902"/><rect fill="#FFFFFF" height="34.291" style="stroke:#181818;stroke-width:1.0;" width="10" x="1691.5" y="649.9082"/><rect fill="none" height="98.5039" style="stroke:#000000;stroke-width:1.5;" width="455.5" x="502" y="395.9492"/><line style="stroke:#181818;stroke-width:0.5;stroke-dasharray:5.0,5.0;" x1="164" x2="164" y1="83.6211" y2="861.6543"/><line style="stroke:#181818;stroke-width:0.5;stroke-dasharray:5.0,5.0;" x1="424.5" x2="424.5" y1="83.6211" y2="861.6543"/><line style="stroke:#181818;stroke-width:0.5;stroke-dasharray:5.0,5.0;" x1="594" x2="594" y1="83.6211" y2="861.6543"/><line style="stroke:#181818;stroke-width:0.5;stroke-dasharray:5.0,5.0;" x1="889.5" x2="889.5" y1="83.6211" y2="861.6543"/><line style="stroke:#181818;stroke-width:0.5;stroke-dasharray:5.0,5.0;" x1="993.5" x2="993.5" y1="83.6211" y2="861.6543"/><line style="stroke:#181818;stroke-width:0.5;stroke-dasharray:5.0,5.0;" x1="1078.5" x2="1078.5" y1="83.6211" y2="861.6543"/><line style="stroke:#181818;stroke-width:0.5;stroke-dasharray:5.0,5.0;" x1="1202.5" x2="1202.5" y1="83.6211" y2="861.6543"/><line style="stroke:#181818;stroke-width:0.5;stroke-dasharray:5.0,5.0;" x1="1446.5" x2="1446.5" y1="83.6211" y2="861.6543"/><line style="stroke:#181818;stroke-width:0.5;stroke-dasharray:5.0,5.0;" x1="1585.5" x2="1585.5" y1="83.6211" y2="861.6543"/><line style="stroke:#181818;stroke-width:0.5;stroke-dasharray:5.0,5.0;" x1="1696.5" x2="1696.5" y1="83.6211" y2="861.6543"/><text fill="#000000" font-family="sans-serif" font-size="14" lengthAdjust="spacing" textLength="41" x="141" y="80.1074">Utente</text><ellipse cx="164.5" cy="13.5" fill="#E2E2F0" rx="8" ry="8" style="stroke:#181818;stroke-width:0.5;"/><path d="M164.5,21.5 L164.5,48.5 M151.5,29.5 L177.5,29.5 M164.5,48.5 L151.5,63.5 M164.5,48.5 L177.5,63.5 " fill="none" style="stroke:#181818;stroke-width:0.5;"/><text fill="#000000" font-family="sans-serif" font-size="14" lengthAdjust="spacing" textLength="41" x="141" y="875.7617">Utente</text><ellipse cx="164.5" cy="887.7754" fill="#E2E2F0" rx="8" ry="8" style="stroke:#181818;stroke-width:0.5;"/><path d="M164.5,895.7754 L164.5,922.7754 M151.5,903.7754 L177.5,903.7754 M164.5,922.7754 L151.5,937.7754 M164.5,922.7754 L177.5,937.7754 " fill="none" style="stroke:#181818;stroke-width:0.5;"/><rect fill="#E2E2F0" height="32.6211" rx="2.5" ry="2.5" style="stroke:#181818;stroke-width:0.5;" width="122" x="363.5" y="50"/><text fill="#000000" font-family="sans-serif" font-size="14" lengthAdjust="spacing" textLength="108" x="370.5" y="72.1074">:TaskComponent</text><rect fill="#E2E2F0" height="32.6211" rx="2.5" ry="2.5" style="stroke:#181818;stroke-width:0.5;" width="122" x="363.5" y="860.6543"/><text fill="#000000" font-family="sans-serif" font-size="14" lengthAdjust="spacing" textLength="108" x="370.5" y="882.7617">:TaskComponent</text><rect fill="#E2E2F0" height="32.6211" rx="2.5" ry="2.5" style="stroke:#181818;stroke-width:0.5;" width="165" x="512" y="50"/><text fill="#000000" font-family="sans-serif" font-size="14" lengthAdjust="spacing" textLength="151" x="519" y="72.1074">:CreateTaskComponent</text><rect fill="#E2E2F0" height="32.6211" rx="2.5" ry="2.5" style="stroke:#181818;stroke-width:0.5;" width="165" x="512" y="860.6543"/><text fill="#000000" font-family="sans-serif" font-size="14" lengthAdjust="spacing" textLength="151" x="519" y="882.7617">:CreateTaskComponent</text><rect fill="#E2E2F0" height="32.6211" rx="2.5" ry="2.5" style="stroke:#181818;stroke-width:0.5;" width="116" x="831.5" y="50"/><text fill="#000000" font-family="sans-serif" font-size="14" lengthAdjust="spacing" textLength="102" x="838.5" y="72.1074">:TaskViewModel</text><rect fill="#E2E2F0" height="32.6211" rx="2.5" ry="2.5" style="stroke:#181818;stroke-width:0.5;" width="116" x="831.5" y="860.6543"/><text fill="#000000" font-family="sans-serif" font-size="14" lengthAdjust="spacing" textLength="102" x="838.5" y="882.7617">:TaskViewModel</text><rect fill="#E2E2F0" height="32.6211" rx="2.5" ry="2.5" style="stroke:#181818;stroke-width:0.5;" width="72" x="957.5" y="50"/><text fill="#000000" font-family="sans-serif" font-size="14" lengthAdjust="spacing" textLength="58" x="964.5" y="72.1074">TaskMap</text><rect fill="#E2E2F0" height="32.6211" rx="2.5" ry="2.5" style="stroke:#181818;stroke-width:0.5;" width="72" x="957.5" y="860.6543"/><text fill="#000000" font-family="sans-serif" font-size="14" lengthAdjust="spacing" textLength="58" x="964.5" y="882.7617">TaskMap</text><rect fill="#E2E2F0" height="32.6211" rx="2.5" ry="2.5" style="stroke:#181818;stroke-width:0.5;" width="79" x="1039.5" y="50"/><text fill="#000000" font-family="sans-serif" font-size="14" lengthAdjust="spacing" textLength="65" x="1046.5" y="72.1074">:TaskDTO</text><rect fill="#E2E2F0" height="32.6211" rx="2.5" ry="2.5" style="stroke:#181818;stroke-width:0.5;" width="79" x="1039.5" y="860.6543"/><text fill="#000000" font-family="sans-serif" font-size="14" lengthAdjust="spacing" textLength="65" x="1046.5" y="882.7617">:TaskDTO</text><rect fill="#E2E2F0" height="32.6211" rx="2.5" ry="2.5" style="stroke:#181818;stroke-width:0.5;" width="149" x="1128.5" y="50"/><text fill="#000000" font-family="sans-serif" font-size="14" lengthAdjust="spacing" textLength="135" x="1135.5" y="72.1074">:TaskRequestService</text><rect fill="#E2E2F0" height="32.6211" rx="2.5" ry="2.5" style="stroke:#181818;stroke-width:0.5;" width="149" x="1128.5" y="860.6543"/><text fill="#000000" font-family="sans-serif" font-size="14" lengthAdjust="spacing" textLength="135" x="1135.5" y="882.7617">:TaskRequestService</text><rect fill="#E2E2F0" height="32.6211" rx="2.5" ry="2.5" style="stroke:#181818;stroke-width:0.5;" width="125" x="1384.5" y="50"/><text fill="#000000" font-family="sans-serif" font-size="14" lengthAdjust="spacing" textLength="111" x="1391.5" y="72.1074">TaskRequestMap</text><rect fill="#E2E2F0" height="32.6211" rx="2.5" ry="2.5" style="stroke:#181818;stroke-width:0.5;" width="125" x="1384.5" y="860.6543"/><text fill="#000000" font-family="sans-serif" font-size="14" lengthAdjust="spacing" textLength="111" x="1391.5" y="882.7617">TaskRequestMap</text><rect fill="#E2E2F0" height="32.6211" rx="2.5" ry="2.5" style="stroke:#181818;stroke-width:0.5;" width="132" x="1519.5" y="50"/><text fill="#000000" font-family="sans-serif" font-size="14" lengthAdjust="spacing" textLength="118" x="1526.5" y="72.1074">:TaskRequestDTO</text><rect fill="#E2E2F0" height="32.6211" rx="2.5" ry="2.5" style="stroke:#181818;stroke-width:0.5;" width="132" x="1519.5" y="860.6543"/><text fill="#000000" font-family="sans-serif" font-size="14" lengthAdjust="spacing" textLength="118" x="1526.5" y="882.7617">:TaskRequestDTO</text><rect fill="#E2E2F0" height="32.6211" rx="2.5" ry="2.5" style="stroke:#181818;stroke-width:0.5;" width="70" x="1661.5" y="50"/><text fill="#000000" font-family="sans-serif" font-size="14" lengthAdjust="spacing" textLength="56" x="1668.5" y="72.1074">:TaskAPI</text><rect fill="#E2E2F0" height="32.6211" rx="2.5" ry="2.5" style="stroke:#181818;stroke-width:0.5;" width="70" x="1661.5" y="860.6543"/><text fill="#000000" font-family="sans-serif" font-size="14" lengthAdjust="spacing" textLength="56" x="1668.5" y="882.7617">:TaskAPI</text><rect fill="#FFFFFF" height="759.0332" style="stroke:#181818;stroke-width:1.0;" width="10" x="159.5" y="93.6211"/><rect fill="#FFFFFF" height="75.582" style="stroke:#181818;stroke-width:1.0;" width="10" x="419.5" y="154.2031"/><rect fill="#FFFFFF" height="75.582" style="stroke:#181818;stroke-width:1.0;" width="10" x="589.5" y="229.7852"/><rect fill="#FFFFFF" height="506.9961" style="stroke:#181818;stroke-width:1.0;" width="10" x="589.5" y="336.6582"/><rect fill="#FFFFFF" height="62.582" style="stroke:#181818;stroke-width:1.0;" width="10" x="988.5" y="524.7441"/><rect fill="#FFFFFF" height="193.7461" style="stroke:#181818;stroke-width:1.0;" width="10" x="1198" y="618.6172"/><rect fill="#FFFFFF" height="62.582" style="stroke:#181818;stroke-width:1.0;" width="10" x="1442" y="718.4902"/><rect fill="#FFFFFF" height="34.291" style="stroke:#181818;stroke-width:1.0;" width="10" x="1691.5" y="649.9082"/><path d="M5,98.6211 L5,125.6211 L325,125.6211 L325,108.6211 L315,98.6211 L5,98.6211 " fill="#FEFFDD" style="stroke:#181818;stroke-width:0.5;"/><path d="M315,98.6211 L315,108.6211 L325,108.6211 L315,98.6211 " fill="#FEFFDD" style="stroke:#181818;stroke-width:0.5;"/><text fill="#000000" font-family="sans-serif" font-size="13" lengthAdjust="spacing" textLength="299" x="11" y="117.6494">ver Diagrama LogInN3(representa intera&#231;ao anterior)</text><polygon fill="#181818" points="407.5,150.2031,417.5,154.2031,407.5,158.2031,411.5,154.2031" style="stroke:#181818;stroke-width:1.0;"/><line style="stroke:#181818;stroke-width:1.0;" x1="169.5" x2="413.5" y1="154.2031" y2="154.2031"/><text fill="#000000" font-family="sans-serif" font-size="13" font-weight="bold" lengthAdjust="spacing" textLength="7" x="176.5" y="148.9404">1</text><text fill="#000000" font-family="sans-serif" font-size="13" lengthAdjust="spacing" textLength="220" x="187.5" y="148.9404">Iniciar o processo de requsisitar tarefa</text><line style="stroke:#181818;stroke-width:1.0;" x1="429.5" x2="471.5" y1="185.4941" y2="185.4941"/><line style="stroke:#181818;stroke-width:1.0;" x1="471.5" x2="471.5" y1="185.4941" y2="198.4941"/><line style="stroke:#181818;stroke-width:1.0;" x1="430.5" x2="471.5" y1="198.4941" y2="198.4941"/><polygon fill="#181818" points="440.5,194.4941,430.5,198.4941,440.5,202.4941,436.5,198.4941" style="stroke:#181818;stroke-width:1.0;"/><text fill="#000000" font-family="sans-serif" font-size="13" font-weight="bold" lengthAdjust="spacing" textLength="7" x="436.5" y="180.2314">2</text><text fill="#000000" font-family="sans-serif" font-size="13" lengthAdjust="spacing" textLength="69" x="447.5" y="180.2314">resetShow()</text><polygon fill="#181818" points="577.5,225.7852,587.5,229.7852,577.5,233.7852,581.5,229.7852" style="stroke:#181818;stroke-width:1.0;"/><line style="stroke:#181818;stroke-width:1.0;" x1="424.5" x2="583.5" y1="229.7852" y2="229.7852"/><text fill="#000000" font-family="sans-serif" font-size="13" font-weight="bold" lengthAdjust="spacing" textLength="7" x="431.5" y="224.5225">3</text><text fill="#000000" font-family="sans-serif" font-size="13" lengthAdjust="spacing" textLength="130" x="442.5" y="224.5225">showCreateTask= true</text><line style="stroke:#181818;stroke-width:1.0;" x1="599.5" x2="641.5" y1="261.0762" y2="261.0762"/><line style="stroke:#181818;stroke-width:1.0;" x1="641.5" x2="641.5" y1="261.0762" y2="274.0762"/><line style="stroke:#181818;stroke-width:1.0;" x1="600.5" x2="641.5" y1="274.0762" y2="274.0762"/><polygon fill="#181818" points="610.5,270.0762,600.5,274.0762,610.5,278.0762,606.5,274.0762" style="stroke:#181818;stroke-width:1.0;"/><text fill="#000000" font-family="sans-serif" font-size="13" font-weight="bold" lengthAdjust="spacing" textLength="7" x="606.5" y="255.8135">4</text><text fill="#000000" font-family="sans-serif" font-size="13" lengthAdjust="spacing" textLength="85" x="617.5" y="255.8135">loadBuildings()</text><polygon fill="#181818" points="180.5,301.3672,170.5,305.3672,180.5,309.3672,176.5,305.3672" style="stroke:#181818;stroke-width:1.0;"/><line style="stroke:#181818;stroke-width:1.0;stroke-dasharray:2.0,2.0;" x1="174.5" x2="593.5" y1="305.3672" y2="305.3672"/><text fill="#000000" font-family="sans-serif" font-size="13" font-weight="bold" lengthAdjust="spacing" textLength="7" x="186.5" y="300.1045">5</text><text fill="#000000" font-family="sans-serif" font-size="13" lengthAdjust="spacing" textLength="171" x="197.5" y="300.1045">Solicitar os dados necess&#225;rio</text><polygon fill="#181818" points="577.5,332.6582,587.5,336.6582,577.5,340.6582,581.5,336.6582" style="stroke:#181818;stroke-width:1.0;"/><line style="stroke:#181818;stroke-width:1.0;" x1="169.5" x2="583.5" y1="336.6582" y2="336.6582"/><text fill="#000000" font-family="sans-serif" font-size="13" font-weight="bold" lengthAdjust="spacing" textLength="7" x="176.5" y="331.3955">6</text><text fill="#000000" font-family="sans-serif" font-size="13" lengthAdjust="spacing" textLength="176" x="187.5" y="331.3955">Introduzir os dados solicitados</text><line style="stroke:#181818;stroke-width:1.0;" x1="599.5" x2="641.5" y1="367.9492" y2="367.9492"/><line style="stroke:#181818;stroke-width:1.0;" x1="641.5" x2="641.5" y1="367.9492" y2="380.9492"/><line style="stroke:#181818;stroke-width:1.0;" x1="600.5" x2="641.5" y1="380.9492" y2="380.9492"/><polygon fill="#181818" points="610.5,376.9492,600.5,380.9492,610.5,384.9492,606.5,380.9492" style="stroke:#181818;stroke-width:1.0;"/><text fill="#000000" font-family="sans-serif" font-size="13" font-weight="bold" lengthAdjust="spacing" textLength="7" x="606.5" y="362.6865">7</text><text fill="#000000" font-family="sans-serif" font-size="13" lengthAdjust="spacing" textLength="93" x="617.5" y="362.6865">onSubmitForm()</text><path d="M502,395.9492 L563,395.9492 L563,405.2402 L553,415.2402 L502,415.2402 L502,395.9492 " fill="#EEEEEE" style="stroke:#000000;stroke-width:1.5;"/><rect fill="none" height="98.5039" style="stroke:#000000;stroke-width:1.5;" width="455.5" x="502" y="395.9492"/><text fill="#000000" font-family="sans-serif" font-size="13" font-weight="bold" lengthAdjust="spacing" textLength="16" x="517" y="410.9775">alt</text><text fill="#000000" font-family="sans-serif" font-size="11" font-weight="bold" lengthAdjust="spacing" textLength="165" x="578" y="409.8193">[if Task Type == Security task]</text><polygon fill="#181818" points="877.5,434.5313,887.5,438.5313,877.5,442.5313,881.5,438.5313" style="stroke:#181818;stroke-width:1.0;"/><line style="stroke:#181818;stroke-width:1.0;" x1="599.5" x2="883.5" y1="438.5313" y2="438.5313"/><text fill="#000000" font-family="sans-serif" font-size="13" font-weight="bold" lengthAdjust="spacing" textLength="7" x="606.5" y="433.2686">8</text><text fill="#000000" font-family="sans-serif" font-size="13" lengthAdjust="spacing" textLength="218" x="617.5" y="433.2686">task=createSecurityTask(formBuilder)</text><line style="stroke:#000000;stroke-width:1.0;stroke-dasharray:2.0,2.0;" x1="502" x2="957.5" y1="447.5313" y2="447.5313"/><text fill="#000000" font-family="sans-serif" font-size="11" font-weight="bold" lengthAdjust="spacing" textLength="197" x="507" y="459.4014">[Task Type == Pick Up Delivery task]</text><polygon fill="#181818" points="877.5,482.4531,887.5,486.4531,877.5,490.4531,881.5,486.4531" style="stroke:#181818;stroke-width:1.0;"/><line style="stroke:#181818;stroke-width:1.0;" x1="599.5" x2="883.5" y1="486.4531" y2="486.4531"/><text fill="#000000" font-family="sans-serif" font-size="13" font-weight="bold" lengthAdjust="spacing" textLength="7" x="606.5" y="481.1904">9</text><text fill="#000000" font-family="sans-serif" font-size="13" lengthAdjust="spacing" textLength="255" x="617.5" y="481.1904">task=createPickupDeliveryTask(formBuilder)</text><polygon fill="#181818" points="976.5,520.7441,986.5,524.7441,976.5,528.7441,980.5,524.7441" style="stroke:#181818;stroke-width:1.0;"/><line style="stroke:#181818;stroke-width:1.0;" x1="599.5" x2="982.5" y1="524.7441" y2="524.7441"/><text fill="#000000" font-family="sans-serif" font-size="13" font-weight="bold" lengthAdjust="spacing" textLength="14" x="606.5" y="519.4814">10</text><text fill="#000000" font-family="sans-serif" font-size="13" lengthAdjust="spacing" textLength="136" x="624.5" y="519.4814">taskDTO= toDTO(Task)</text><polygon fill="#181818" points="1067,552.0352,1077,556.0352,1067,560.0352,1071,556.0352" style="stroke:#181818;stroke-width:1.0;"/><line style="stroke:#181818;stroke-width:1.0;" x1="998.5" x2="1073" y1="556.0352" y2="556.0352"/><text fill="#000000" font-family="sans-serif" font-size="13" font-weight="bold" lengthAdjust="spacing" textLength="14" x="1005.5" y="550.7725">11</text><text fill="#000000" font-family="sans-serif" font-size="13" lengthAdjust="spacing" textLength="36" x="1023.5" y="550.7725">create</text><polygon fill="#181818" points="610.5,583.3262,600.5,587.3262,610.5,591.3262,606.5,587.3262" style="stroke:#181818;stroke-width:1.0;"/><line style="stroke:#181818;stroke-width:1.0;stroke-dasharray:2.0,2.0;" x1="604.5" x2="992.5" y1="587.3262" y2="587.3262"/><text fill="#000000" font-family="sans-serif" font-size="13" font-weight="bold" lengthAdjust="spacing" textLength="14" x="616.5" y="582.0635">12</text><text fill="#000000" font-family="sans-serif" font-size="13" lengthAdjust="spacing" textLength="4" x="634.5" y="582.0635">&#160;</text><polygon fill="#181818" points="1186,614.6172,1196,618.6172,1186,622.6172,1190,618.6172" style="stroke:#181818;stroke-width:1.0;"/><line style="stroke:#181818;stroke-width:1.0;" x1="599.5" x2="1192" y1="618.6172" y2="618.6172"/><text fill="#000000" font-family="sans-serif" font-size="13" font-weight="bold" lengthAdjust="spacing" textLength="14" x="606.5" y="613.3545">13</text><text fill="#000000" font-family="sans-serif" font-size="13" lengthAdjust="spacing" textLength="123" x="624.5" y="613.3545">createTask(taskDTO)</text><polygon fill="#181818" points="1679.5,645.9082,1689.5,649.9082,1679.5,653.9082,1683.5,649.9082" style="stroke:#181818;stroke-width:1.0;"/><line style="stroke:#181818;stroke-width:1.0;" x1="1208" x2="1685.5" y1="649.9082" y2="649.9082"/><text fill="#000000" font-family="sans-serif" font-size="13" font-weight="bold" lengthAdjust="spacing" textLength="14" x="1215" y="644.6455">14</text><text fill="#000000" font-family="sans-serif" font-size="13" lengthAdjust="spacing" textLength="130" x="1233" y="644.6455">POST Task (taskDTO)</text><polygon fill="#181818" points="1219,680.1992,1209,684.1992,1219,688.1992,1215,684.1992" style="stroke:#181818;stroke-width:1.0;"/><line style="stroke:#181818;stroke-width:1.0;stroke-dasharray:2.0,2.0;" x1="1213" x2="1695.5" y1="684.1992" y2="684.1992"/><text fill="#000000" font-family="sans-serif" font-size="13" font-weight="bold" lengthAdjust="spacing" textLength="14" x="1225" y="678.9365">15</text><text fill="#000000" font-family="sans-serif" font-size="13" lengthAdjust="spacing" textLength="34" x="1243" y="678.9365">JSON</text><path d="M1706,662.9082 L1706,689.9082 L1848,689.9082 L1848,672.9082 L1838,662.9082 L1706,662.9082 " fill="#FEFFDD" style="stroke:#181818;stroke-width:0.5;"/><path d="M1838,662.9082 L1838,672.9082 L1848,672.9082 L1838,662.9082 " fill="#FEFFDD" style="stroke:#181818;stroke-width:0.5;"/><text fill="#000000" font-family="sans-serif" font-size="13" lengthAdjust="spacing" textLength="121" x="1712" y="681.9365">US 460_TaskAPI SD</text><polygon fill="#181818" points="1430,714.4902,1440,718.4902,1430,722.4902,1434,718.4902" style="stroke:#181818;stroke-width:1.0;"/><line style="stroke:#181818;stroke-width:1.0;" x1="1208" x2="1436" y1="718.4902" y2="718.4902"/><text fill="#000000" font-family="sans-serif" font-size="13" font-weight="bold" lengthAdjust="spacing" textLength="14" x="1215" y="713.2275">16</text><text fill="#000000" font-family="sans-serif" font-size="13" lengthAdjust="spacing" textLength="197" x="1233" y="713.2275">taskRequestkDTO= toDTO(JSON)</text><polygon fill="#181818" points="1573.5,745.7813,1583.5,749.7813,1573.5,753.7813,1577.5,749.7813" style="stroke:#181818;stroke-width:1.0;"/><line style="stroke:#181818;stroke-width:1.0;" x1="1452" x2="1579.5" y1="749.7813" y2="749.7813"/><text fill="#000000" font-family="sans-serif" font-size="13" font-weight="bold" lengthAdjust="spacing" textLength="14" x="1459" y="744.5186">17</text><text fill="#000000" font-family="sans-serif" font-size="13" lengthAdjust="spacing" textLength="36" x="1477" y="744.5186">create</text><polygon fill="#181818" points="1219,777.0723,1209,781.0723,1219,785.0723,1215,781.0723" style="stroke:#181818;stroke-width:1.0;"/><line style="stroke:#181818;stroke-width:1.0;stroke-dasharray:2.0,2.0;" x1="1213" x2="1446" y1="781.0723" y2="781.0723"/><text fill="#000000" font-family="sans-serif" font-size="13" font-weight="bold" lengthAdjust="spacing" textLength="14" x="1225" y="775.8096">18</text><text fill="#000000" font-family="sans-serif" font-size="13" lengthAdjust="spacing" textLength="106" x="1243" y="775.8096">taskRequestkDTO</text><polygon fill="#181818" points="610.5,808.3633,600.5,812.3633,610.5,816.3633,606.5,812.3633" style="stroke:#181818;stroke-width:1.0;"/><line style="stroke:#181818;stroke-width:1.0;stroke-dasharray:2.0,2.0;" x1="604.5" x2="1202" y1="812.3633" y2="812.3633"/><text fill="#000000" font-family="sans-serif" font-size="13" font-weight="bold" lengthAdjust="spacing" textLength="14" x="616.5" y="807.1006">19</text><text fill="#000000" font-family="sans-serif" font-size="13" lengthAdjust="spacing" textLength="106" x="634.5" y="807.1006">taskRequestkDTO</text><polygon fill="#181818" points="180.5,839.6543,170.5,843.6543,180.5,847.6543,176.5,843.6543" style="stroke:#181818;stroke-width:1.0;"/><line style="stroke:#181818;stroke-width:1.0;stroke-dasharray:2.0,2.0;" x1="174.5" x2="593.5" y1="843.6543" y2="843.6543"/><text fill="#000000" font-family="sans-serif" font-size="13" font-weight="bold" lengthAdjust="spacing" textLength="14" x="186.5" y="838.3916">20</text><text fill="#000000" font-family="sans-serif" font-size="13" lengthAdjust="spacing" textLength="181" x="204.5" y="838.3916">Informa o sucesso da opera&#231;&#227;o</text><!--SRC=[ZLJ1Zjem4BtdAqPxWiDAbLhrW4Gb5cX5jGMKXBrMtcHWhGrsQZkijdzJzT0FuSSwJkp4P4FL0y7spBmtypnZLXafgkCZgeXbHYg0cvr1OV06c8PTkbodowXaol2CbqmOk9caJ3_FvR6KWlngjtJUSvahP0RVEdRd0vWF75- -oHoB1fDEwjsbPttCoivbjXs0MgIRreFM0nun_gXGcmJLYMTDiSaoVbZDbs_vd6z86m_pEi-GFXxcdsrNjSlT_U9B55dj-OcayOeBIMjvGkKF0EncmTb1iIE3UtbOYVNxaS9IeIPv6N2wDCNEVvW4PfTSgd648WUBHHGD4Dn-ekk22Qm49SGKI2YLp51h2Jc2eW8qrzoGXNwuPrrgTCjHHB4UmHARv4c-ZCR-lBjVicioTGTJCAgYF7Ay06mtGMj40KmVj90ilwjuaNDnq9OuiC8jURio9v38WYgqXKWDESlfAz0MUlv5sbma4d9tCeN8LY-ZP5xzv06UTXIq7YxaUYaJ02cIwl78pMUfZhOILXZW-xff87qj4QPJI32h53UlT1c4TmdMJWXbPytJh3Rx46iUxGcxbWkf6I8iDC8bmPPdpx0hOO45fmvpHF_7P6EhqaSEy85jFofh46-sTMWq8DGSalv6rZ0EEiuDkFTteUG9aoQ5paIsKFgmpHnAFmitxvH5rfwFN4914lvPYBm_XTgffRZj9aaREGVYcibMQ2ebu6koMTCCGpsCeFZXoL07x1BuyF7TT_SUGBA0YxPi409Q__8uuTnh4mfeUNe2nbx1E90mxciOjoAsilGe-fB6ZQPjUhr9_KUqL_JgwAw4xID6RvEktDD4cx9-tiw_QNQl3EzV]--></g></svg>