<?xml version="1.0" encoding="UTF-8" standalone="no"?><svg xmlns="http://www.w3.org/2000/svg" xmlns:xlink="http://www.w3.org/1999/xlink" contentStyleType="text/css" height="858px" preserveAspectRatio="none" style="width:2136px;height:858px;background:#FFFFFF;" version="1.1" viewBox="0 0 2136 858" width="2136px" zoomAndPan="magnify"><defs/><g><line style="stroke:#181818;stroke-width:0.5;stroke-dasharray:5.0,5.0;" x1="165" x2="165" y1="82.6094" y2="776.3438"/><line style="stroke:#181818;stroke-width:0.5;stroke-dasharray:5.0,5.0;" x1="295" x2="295" y1="82.6094" y2="776.3438"/><line style="stroke:#181818;stroke-width:0.5;stroke-dasharray:5.0,5.0;" x1="475" x2="475" y1="82.6094" y2="776.3438"/><line style="stroke:#181818;stroke-width:0.5;stroke-dasharray:5.0,5.0;" x1="714.5" x2="714.5" y1="82.6094" y2="776.3438"/><line style="stroke:#181818;stroke-width:0.5;stroke-dasharray:5.0,5.0;" x1="992" x2="992" y1="82.6094" y2="776.3438"/><line style="stroke:#181818;stroke-width:0.5;stroke-dasharray:5.0,5.0;" x1="1242.5" x2="1242.5" y1="82.6094" y2="776.3438"/><line style="stroke:#181818;stroke-width:0.5;stroke-dasharray:5.0,5.0;" x1="1391.5" x2="1391.5" y1="82.6094" y2="776.3438"/><line style="stroke:#181818;stroke-width:0.5;stroke-dasharray:5.0,5.0;" x1="1626" x2="1626" y1="82.6094" y2="776.3438"/><line style="stroke:#181818;stroke-width:0.5;stroke-dasharray:5.0,5.0;" x1="1773" x2="1773" y1="82.6094" y2="776.3438"/><line style="stroke:#181818;stroke-width:0.5;stroke-dasharray:5.0,5.0;" x1="1910" x2="1910" y1="82.6094" y2="776.3438"/><line style="stroke:#181818;stroke-width:0.5;stroke-dasharray:5.0,5.0;" x1="2057" x2="2057" y1="82.6094" y2="776.3438"/><text fill="#000000" font-family="sans-serif" font-size="14" lengthAdjust="spacing" textLength="116" x="104" y="79.5332">Gestor de Tarefas</text><ellipse cx="165" cy="13.5" fill="#E2E2F0" rx="8" ry="8" style="stroke:#181818;stroke-width:0.5;"/><path d="M165,21.5 L165,48.5 M152,29.5 L178,29.5 M165,48.5 L152,63.5 M165,48.5 L178,63.5 " fill="none" style="stroke:#181818;stroke-width:0.5;"/><text fill="#000000" font-family="sans-serif" font-size="14" lengthAdjust="spacing" textLength="116" x="104" y="789.877">Gestor de Tarefas</text><ellipse cx="165" cy="801.4531" fill="#E2E2F0" rx="8" ry="8" style="stroke:#181818;stroke-width:0.5;"/><path d="M165,809.4531 L165,836.4531 M152,817.4531 L178,817.4531 M165,836.4531 L152,851.4531 M165,836.4531 L178,851.4531 " fill="none" style="stroke:#181818;stroke-width:0.5;"/><rect fill="#E2E2F0" height="31.6094" rx="2.5" ry="2.5" style="stroke:#181818;stroke-width:0.5;" width="118" x="236" y="50"/><text fill="#000000" font-family="sans-serif" font-size="14" lengthAdjust="spacing" textLength="104" x="243" y="71.5332">TaskComponent</text><rect fill="#E2E2F0" height="31.6094" rx="2.5" ry="2.5" style="stroke:#181818;stroke-width:0.5;" width="118" x="236" y="775.3438"/><text fill="#000000" font-family="sans-serif" font-size="14" lengthAdjust="spacing" textLength="104" x="243" y="796.877">TaskComponent</text><rect fill="#E2E2F0" height="31.6094" rx="2.5" ry="2.5" style="stroke:#181818;stroke-width:0.5;" width="222" x="364" y="50"/><text fill="#000000" font-family="sans-serif" font-size="14" lengthAdjust="spacing" textLength="208" x="371" y="71.5332">ListTaskNotApprovedComponent</text><rect fill="#E2E2F0" height="31.6094" rx="2.5" ry="2.5" style="stroke:#181818;stroke-width:0.5;" width="222" x="364" y="775.3438"/><text fill="#000000" font-family="sans-serif" font-size="14" lengthAdjust="spacing" textLength="208" x="371" y="796.877">ListTaskNotApprovedComponent</text><rect fill="#E2E2F0" height="31.6094" rx="2.5" ry="2.5" style="stroke:#181818;stroke-width:0.5;" width="177" x="626.5" y="50"/><text fill="#000000" font-family="sans-serif" font-size="14" lengthAdjust="spacing" textLength="163" x="633.5" y="71.5332">HttpRequestsTaskService</text><rect fill="#E2E2F0" height="31.6094" rx="2.5" ry="2.5" style="stroke:#181818;stroke-width:0.5;" width="177" x="626.5" y="775.3438"/><text fill="#000000" font-family="sans-serif" font-size="14" lengthAdjust="spacing" textLength="163" x="633.5" y="796.877">HttpRequestsTaskService</text><rect fill="#E2E2F0" height="31.6094" rx="2.5" ry="2.5" style="stroke:#181818;stroke-width:0.5;" width="160" x="912" y="50"/><text fill="#000000" font-family="sans-serif" font-size="14" lengthAdjust="spacing" textLength="146" x="919" y="71.5332">TaskRequestController</text><rect fill="#E2E2F0" height="31.6094" rx="2.5" ry="2.5" style="stroke:#181818;stroke-width:0.5;" width="160" x="912" y="775.3438"/><text fill="#000000" font-family="sans-serif" font-size="14" lengthAdjust="spacing" textLength="146" x="919" y="796.877">TaskRequestController</text><rect fill="#E2E2F0" height="31.6094" rx="2.5" ry="2.5" style="stroke:#181818;stroke-width:0.5;" width="145" x="1170.5" y="50"/><text fill="#000000" font-family="sans-serif" font-size="14" lengthAdjust="spacing" textLength="131" x="1177.5" y="71.5332">TaskRequestService</text><rect fill="#E2E2F0" height="31.6094" rx="2.5" ry="2.5" style="stroke:#181818;stroke-width:0.5;" width="145" x="1170.5" y="775.3438"/><text fill="#000000" font-family="sans-serif" font-size="14" lengthAdjust="spacing" textLength="131" x="1177.5" y="796.877">TaskRequestService</text><rect fill="#E2E2F0" height="31.6094" rx="2.5" ry="2.5" style="stroke:#181818;stroke-width:0.5;" width="132" x="1325.5" y="50"/><text fill="#000000" font-family="sans-serif" font-size="14" lengthAdjust="spacing" textLength="118" x="1332.5" y="71.5332">TaskRequestRepo</text><rect fill="#E2E2F0" height="31.6094" rx="2.5" ry="2.5" style="stroke:#181818;stroke-width:0.5;" width="132" x="1325.5" y="775.3438"/><text fill="#000000" font-family="sans-serif" font-size="14" lengthAdjust="spacing" textLength="118" x="1332.5" y="796.877">TaskRequestRepo</text><rect fill="#E2E2F0" height="31.6094" rx="2.5" ry="2.5" style="stroke:#181818;stroke-width:0.5;" width="149" x="1552" y="50"/><text fill="#000000" font-family="sans-serif" font-size="14" lengthAdjust="spacing" textLength="135" x="1559" y="71.5332">TaskRequestSchema</text><rect fill="#E2E2F0" height="31.6094" rx="2.5" ry="2.5" style="stroke:#181818;stroke-width:0.5;" width="149" x="1552" y="775.3438"/><text fill="#000000" font-family="sans-serif" font-size="14" lengthAdjust="spacing" textLength="135" x="1559" y="796.877">TaskRequestSchema</text><rect fill="#E2E2F0" height="31.6094" rx="2.5" ry="2.5" style="stroke:#181818;stroke-width:0.5;" width="125" x="1711" y="50"/><text fill="#000000" font-family="sans-serif" font-size="14" lengthAdjust="spacing" textLength="111" x="1718" y="71.5332">TaskRequestMap</text><rect fill="#E2E2F0" height="31.6094" rx="2.5" ry="2.5" style="stroke:#181818;stroke-width:0.5;" width="125" x="1711" y="775.3438"/><text fill="#000000" font-family="sans-serif" font-size="14" lengthAdjust="spacing" textLength="111" x="1718" y="796.877">TaskRequestMap</text><rect fill="#E2E2F0" height="31.6094" rx="2.5" ry="2.5" style="stroke:#181818;stroke-width:0.5;" width="128" x="1846" y="50"/><text fill="#000000" font-family="sans-serif" font-size="14" lengthAdjust="spacing" textLength="114" x="1853" y="71.5332">TaskRequestDTO</text><rect fill="#E2E2F0" height="31.6094" rx="2.5" ry="2.5" style="stroke:#181818;stroke-width:0.5;" width="128" x="1846" y="775.3438"/><text fill="#000000" font-family="sans-serif" font-size="14" lengthAdjust="spacing" textLength="114" x="1853" y="796.877">TaskRequestDTO</text><rect fill="#E2E2F0" height="31.6094" rx="2.5" ry="2.5" style="stroke:#181818;stroke-width:0.5;" width="146" x="1984" y="50"/><text fill="#000000" font-family="sans-serif" font-size="14" lengthAdjust="spacing" textLength="132" x="1991" y="71.5332">RequestTaskMapper</text><rect fill="#E2E2F0" height="31.6094" rx="2.5" ry="2.5" style="stroke:#181818;stroke-width:0.5;" width="146" x="1984" y="775.3438"/><text fill="#000000" font-family="sans-serif" font-size="14" lengthAdjust="spacing" textLength="132" x="1991" y="796.877">RequestTaskMapper</text><path d="M5,97.6094 L5,123.6094 L325,123.6094 L325,107.6094 L315,97.6094 L5,97.6094 " fill="#FEFFDD" style="stroke:#181818;stroke-width:0.5;"/><path d="M315,97.6094 L315,107.6094 L325,107.6094 L315,97.6094 " fill="#FEFFDD" style="stroke:#181818;stroke-width:0.5;"/><text fill="#000000" font-family="sans-serif" font-size="13" lengthAdjust="spacing" textLength="299" x="11" y="116.1045">ver Diagrama LogInN3(representa interaçao anterior)</text><polygon fill="#181818" points="283,147.3125,293,151.3125,283,155.3125,287,151.3125" style="stroke:#181818;stroke-width:1.0;"/><line style="stroke:#181818;stroke-width:1.0;" x1="165" x2="289" y1="151.3125" y2="151.3125"/><text fill="#000000" font-family="sans-serif" font-size="13" lengthAdjust="spacing" textLength="87" x="172" y="146.4561">showListTask()</text><polygon fill="#181818" points="463,177.6641,473,181.6641,463,185.6641,467,181.6641" style="stroke:#181818;stroke-width:1.0;"/><line style="stroke:#181818;stroke-width:1.0;" x1="295" x2="469" y1="181.6641" y2="181.6641"/><text fill="#000000" font-family="sans-serif" font-size="13" lengthAdjust="spacing" textLength="56" x="302" y="176.8076">ngOnInit()</text><polygon fill="#181818" points="703,208.0156,713,212.0156,703,216.0156,707,212.0156" style="stroke:#181818;stroke-width:1.0;"/><line style="stroke:#181818;stroke-width:1.0;" x1="475" x2="709" y1="212.0156" y2="212.0156"/><text fill="#000000" font-family="sans-serif" font-size="13" lengthAdjust="spacing" textLength="152" x="482" y="207.1592">getRequest('task/pending')</text><polygon fill="#181818" points="980,238.3672,990,242.3672,980,246.3672,984,242.3672" style="stroke:#181818;stroke-width:1.0;"/><line style="stroke:#181818;stroke-width:1.0;" x1="715" x2="986" y1="242.3672" y2="242.3672"/><text fill="#000000" font-family="sans-serif" font-size="13" lengthAdjust="spacing" textLength="232" x="722" y="237.5107">listPendingTaskRequests(req, res, next)</text><polygon fill="#181818" points="1231,268.7188,1241,272.7188,1231,276.7188,1235,272.7188" style="stroke:#181818;stroke-width:1.0;"/><line style="stroke:#181818;stroke-width:1.0;" x1="992" x2="1237" y1="272.7188" y2="272.7188"/><text fill="#000000" font-family="sans-serif" font-size="13" lengthAdjust="spacing" textLength="155" x="999" y="267.8623">listPendingTaskRequests()</text><polygon fill="#181818" points="1379.5,299.0703,1389.5,303.0703,1379.5,307.0703,1383.5,303.0703" style="stroke:#181818;stroke-width:1.0;"/><line style="stroke:#181818;stroke-width:1.0;" x1="1243" x2="1385.5" y1="303.0703" y2="303.0703"/><text fill="#000000" font-family="sans-serif" font-size="13" lengthAdjust="spacing" textLength="123" x="1250" y="298.2139">findPendingRequest()</text><polygon fill="#181818" points="1614.5,329.4219,1624.5,333.4219,1614.5,337.4219,1618.5,333.4219" style="stroke:#181818;stroke-width:1.0;"/><line style="stroke:#181818;stroke-width:1.0;" x1="1391.5" x2="1620.5" y1="333.4219" y2="333.4219"/><text fill="#000000" font-family="sans-serif" font-size="13" lengthAdjust="spacing" textLength="205" x="1398.5" y="328.5654">find({ status: TaskStatus.Pending })</text><polygon fill="#181818" points="1402.5,359.7734,1392.5,363.7734,1402.5,367.7734,1398.5,363.7734" style="stroke:#181818;stroke-width:1.0;"/><line style="stroke:#181818;stroke-width:1.0;" x1="1396.5" x2="1625.5" y1="363.7734" y2="363.7734"/><text fill="#000000" font-family="sans-serif" font-size="13" lengthAdjust="spacing" textLength="211" x="1408.5" y="358.917">pendingTasks[mongoose.Document]</text><polygon fill="#181818" points="1761.5,390.125,1771.5,394.125,1761.5,398.125,1765.5,394.125" style="stroke:#181818;stroke-width:1.0;"/><line style="stroke:#181818;stroke-width:1.0;" x1="1391.5" x2="1767.5" y1="394.125" y2="394.125"/><text fill="#000000" font-family="sans-serif" font-size="13" lengthAdjust="spacing" textLength="143" x="1398.5" y="389.2686">toDomain(pendingTasks)</text><polygon fill="#181818" points="1402.5,420.4766,1392.5,424.4766,1402.5,428.4766,1398.5,424.4766" style="stroke:#181818;stroke-width:1.0;"/><line style="stroke:#181818;stroke-width:1.0;" x1="1396.5" x2="1772.5" y1="424.4766" y2="424.4766"/><text fill="#000000" font-family="sans-serif" font-size="13" lengthAdjust="spacing" textLength="84" x="1408.5" y="419.6201">TaskRequest[]</text><polygon fill="#181818" points="1254,450.8281,1244,454.8281,1254,458.8281,1250,454.8281" style="stroke:#181818;stroke-width:1.0;"/><line style="stroke:#181818;stroke-width:1.0;" x1="1248" x2="1390.5" y1="454.8281" y2="454.8281"/><text fill="#000000" font-family="sans-serif" font-size="13" lengthAdjust="spacing" textLength="121" x="1260" y="449.9717">return TaskRequest[]</text><polygon fill="#181818" points="1761.5,481.1797,1771.5,485.1797,1761.5,489.1797,1765.5,485.1797" style="stroke:#181818;stroke-width:1.0;"/><line style="stroke:#181818;stroke-width:1.0;" x1="1243" x2="1767.5" y1="485.1797" y2="485.1797"/><text fill="#000000" font-family="sans-serif" font-size="13" lengthAdjust="spacing" textLength="121" x="1250" y="480.3232">toDTO(TaskRequest)</text><polygon fill="#181818" points="1898,511.5313,1908,515.5313,1898,519.5313,1902,515.5313" style="stroke:#181818;stroke-width:1.0;"/><line style="stroke:#181818;stroke-width:1.0;" x1="1773.5" x2="1904" y1="515.5313" y2="515.5313"/><text fill="#000000" font-family="sans-serif" font-size="13" lengthAdjust="spacing" textLength="56" x="1780.5" y="510.6748">createDto</text><polygon fill="#181818" points="1784.5,541.8828,1774.5,545.8828,1784.5,549.8828,1780.5,545.8828" style="stroke:#181818;stroke-width:1.0;"/><line style="stroke:#181818;stroke-width:1.0;" x1="1778.5" x2="1909" y1="545.8828" y2="545.8828"/><text fill="#000000" font-family="sans-serif" font-size="13" lengthAdjust="spacing" textLength="55" x="1790.5" y="541.0264">return dto</text><polygon fill="#181818" points="1254,572.2344,1244,576.2344,1254,580.2344,1250,576.2344" style="stroke:#181818;stroke-width:1.0;"/><line style="stroke:#181818;stroke-width:1.0;" x1="1248" x2="1772.5" y1="576.2344" y2="576.2344"/><text fill="#000000" font-family="sans-serif" font-size="13" lengthAdjust="spacing" textLength="110" x="1260" y="571.3779">TaskRequestDTO[]</text><polygon fill="#181818" points="1003,602.5859,993,606.5859,1003,610.5859,999,606.5859" style="stroke:#181818;stroke-width:1.0;"/><line style="stroke:#181818;stroke-width:1.0;" x1="997" x2="1242" y1="606.5859" y2="606.5859"/><text fill="#000000" font-family="sans-serif" font-size="13" lengthAdjust="spacing" textLength="227" x="1009" y="601.7295">return taskRequests[TaskRequestDTO]</text><polygon fill="#181818" points="726,632.9375,716,636.9375,726,640.9375,722,636.9375" style="stroke:#181818;stroke-width:1.0;"/><line style="stroke:#181818;stroke-width:1.0;" x1="720" x2="991" y1="636.9375" y2="636.9375"/><text fill="#000000" font-family="sans-serif" font-size="13" lengthAdjust="spacing" textLength="253" x="732" y="632.0811">return taskRequestDTOs[TaskRequestDTO]</text><polygon fill="#181818" points="486,663.2891,476,667.2891,486,671.2891,482,667.2891" style="stroke:#181818;stroke-width:1.0;"/><line style="stroke:#181818;stroke-width:1.0;" x1="480" x2="714" y1="667.2891" y2="667.2891"/><text fill="#000000" font-family="sans-serif" font-size="13" lengthAdjust="spacing" textLength="216" x="492" y="662.4326">taskRequestDTOs[TaskRequestDTO]</text><polygon fill="#181818" points="2045,693.6406,2055,697.6406,2045,701.6406,2049,697.6406" style="stroke:#181818;stroke-width:1.0;"/><line style="stroke:#181818;stroke-width:1.0;" x1="475" x2="2051" y1="697.6406" y2="697.6406"/><text fill="#000000" font-family="sans-serif" font-size="13" lengthAdjust="spacing" textLength="181" x="482" y="692.7842">toTaskModel(taskRequestDTO)</text><polygon fill="#181818" points="486,723.9922,476,727.9922,486,731.9922,482,727.9922" style="stroke:#181818;stroke-width:1.0;"/><line style="stroke:#181818;stroke-width:1.0;" x1="480" x2="2056" y1="727.9922" y2="727.9922"/><text fill="#000000" font-family="sans-serif" font-size="13" lengthAdjust="spacing" textLength="114" x="492" y="723.1357">requestTaskModel[]</text><polygon fill="#181818" points="176,754.3438,166,758.3438,176,762.3438,172,758.3438" style="stroke:#181818;stroke-width:1.0;"/><line style="stroke:#181818;stroke-width:1.0;" x1="170" x2="474" y1="758.3438" y2="758.3438"/><text fill="#000000" font-family="sans-serif" font-size="13" lengthAdjust="spacing" textLength="151" x="182" y="753.4873">Mostrar tarefas pendentes</text><!--MD5=[7368cb81a3c2b8ab32fa566297e9df5a]
@startuml

actor Gestor as "Gestor de Tarefas"
' Referência ao diagrama anterior
note over "Gestor"
  ver Diagrama LogInN3(representa interaçao anterior)
end note

Gestor -> TaskComponent : showListTask()
TaskComponent -> ListTaskNotApprovedComponent : ngOnInit()
ListTaskNotApprovedComponent -> HttpRequestsTaskService : getRequest('task/pending')
HttpRequestsTaskService -> TaskRequestController : listPendingTaskRequests(req, res, next)
TaskRequestController -> TaskRequestService : listPendingTaskRequests()
TaskRequestService -> TaskRequestRepo : findPendingRequest()
TaskRequestRepo -> TaskRequestSchema : find({ status: TaskStatus.Pending })
TaskRequestSchema -> TaskRequestRepo : pendingTasks[mongoose.Document]
TaskRequestRepo -> TaskRequestMap : toDomain(pendingTasks)
TaskRequestMap -> TaskRequestRepo : TaskRequest[]
TaskRequestRepo -> TaskRequestService : return TaskRequest[]
TaskRequestService -> TaskRequestMap : toDTO(TaskRequest)
TaskRequestMap -> TaskRequestDTO : createDto
TaskRequestDTO -> TaskRequestMap : return dto
TaskRequestMap -> TaskRequestService : TaskRequestDTO[]
TaskRequestService -> TaskRequestController : return taskRequests[TaskRequestDTO]
TaskRequestController -> HttpRequestsTaskService : return taskRequestDTOs[TaskRequestDTO]
HttpRequestsTaskService -> ListTaskNotApprovedComponent : taskRequestDTOs[TaskRequestDTO]
ListTaskNotApprovedComponent -> RequestTaskMapper : toTaskModel(taskRequestDTO)
RequestTaskMapper -> ListTaskNotApprovedComponent : requestTaskModel[]
ListTaskNotApprovedComponent -> Gestor : Mostrar tarefas pendentes

@enduml

@startuml

actor Gestor as "Gestor de Tarefas"
note over "Gestor"
  ver Diagrama LogInN3(representa interaçao anterior)
end note

Gestor -> TaskComponent : showListTask()
TaskComponent -> ListTaskNotApprovedComponent : ngOnInit()
ListTaskNotApprovedComponent -> HttpRequestsTaskService : getRequest('task/pending')
HttpRequestsTaskService -> TaskRequestController : listPendingTaskRequests(req, res, next)
TaskRequestController -> TaskRequestService : listPendingTaskRequests()
TaskRequestService -> TaskRequestRepo : findPendingRequest()
TaskRequestRepo -> TaskRequestSchema : find({ status: TaskStatus.Pending })
TaskRequestSchema -> TaskRequestRepo : pendingTasks[mongoose.Document]
TaskRequestRepo -> TaskRequestMap : toDomain(pendingTasks)
TaskRequestMap -> TaskRequestRepo : TaskRequest[]
TaskRequestRepo -> TaskRequestService : return TaskRequest[]
TaskRequestService -> TaskRequestMap : toDTO(TaskRequest)
TaskRequestMap -> TaskRequestDTO : createDto
TaskRequestDTO -> TaskRequestMap : return dto
TaskRequestMap -> TaskRequestService : TaskRequestDTO[]
TaskRequestService -> TaskRequestController : return taskRequests[TaskRequestDTO]
TaskRequestController -> HttpRequestsTaskService : return taskRequestDTOs[TaskRequestDTO]
HttpRequestsTaskService -> ListTaskNotApprovedComponent : taskRequestDTOs[TaskRequestDTO]
ListTaskNotApprovedComponent -> RequestTaskMapper : toTaskModel(taskRequestDTO)
RequestTaskMapper -> ListTaskNotApprovedComponent : requestTaskModel[]
ListTaskNotApprovedComponent -> Gestor : Mostrar tarefas pendentes

@enduml

PlantUML version 1.2022.7(Mon Aug 22 18:01:30 WEST 2022)
(GPL source distribution)
Java Runtime: Java(TM) SE Runtime Environment
JVM: Java HotSpot(TM) 64-Bit Server VM
Default Encoding: UTF-8
Language: pt
Country: PT
--></g></svg>