<?xml version="1.0" encoding="us-ascii" standalone="no"?><svg xmlns="http://www.w3.org/2000/svg" xmlns:xlink="http://www.w3.org/1999/xlink" contentStyleType="text/css" height="1089px" preserveAspectRatio="none" style="width:1647px;height:1089px;background:#FFFFFF;" version="1.1" viewBox="0 0 1647 1089" width="1647px" zoomAndPan="magnify"><defs/><g><rect fill="#FFFFFF" height="67.582" style="stroke:#181818;stroke-width:1.0;" width="10" x="70.5" y="79.6211"/><rect fill="#FFFFFF" height="843.5664" style="stroke:#181818;stroke-width:1.0;" width="10" x="258.5" y="147.2031"/><rect fill="#FFFFFF" height="370.4922" style="stroke:#181818;stroke-width:1.0;" width="10" x="536.5" y="267.0762"/><rect fill="#FFFFFF" height="701.4023" style="stroke:#181818;stroke-width:1.0;" width="10" x="743.5" y="298.3672"/><rect fill="#FFFFFF" height="31.291" style="stroke:#181818;stroke-width:1.0;" width="10" x="905.5" y="329.6582"/><rect fill="#FFFFFF" height="182.7461" style="stroke:#181818;stroke-width:1.0;" width="10" x="1022" y="392.2402"/><rect fill="#FFFFFF" height="257.3281" style="stroke:#181818;stroke-width:1.0;" width="10" x="1022" y="670.8594"/><rect fill="#FFFFFF" height="93.873" style="stroke:#181818;stroke-width:1.0;" width="10" x="1379.5" y="449.8223"/><rect fill="#FFFFFF" height="33.291" style="stroke:#181818;stroke-width:1.0;" width="10" x="1379.5" y="637.5684"/><rect fill="#FFFFFF" height="93.873" style="stroke:#181818;stroke-width:1.0;" width="10" x="1379.5" y="740.4414"/><rect fill="#FFFFFF" height="31.291" style="stroke:#181818;stroke-width:1.0;" width="10" x="1503" y="865.6055"/><rect fill="#FFFFFF" height="31.291" style="stroke:#181818;stroke-width:1.0;" width="10" x="1592" y="481.1133"/><rect fill="#FFFFFF" height="31.291" style="stroke:#181818;stroke-width:1.0;" width="10" x="1592" y="771.7324"/><rect fill="none" height="271.6191" style="stroke:#000000;stroke-width:1.5;" width="1479" x="161.5" y="407.2402"/><line style="stroke:#181818;stroke-width:0.5;stroke-dasharray:5.0,5.0;" x1="75" x2="75" y1="69.6211" y2="1008.7695"/><line style="stroke:#181818;stroke-width:0.5;stroke-dasharray:5.0,5.0;" x1="263.5" x2="263.5" y1="69.6211" y2="1008.7695"/><line style="stroke:#181818;stroke-width:0.5;stroke-dasharray:5.0,5.0;" x1="541.5" x2="541.5" y1="69.6211" y2="1008.7695"/><line style="stroke:#181818;stroke-width:0.5;stroke-dasharray:5.0,5.0;" x1="748.5" x2="748.5" y1="69.6211" y2="1008.7695"/><line style="stroke:#181818;stroke-width:0.5;stroke-dasharray:5.0,5.0;" x1="910.5" x2="910.5" y1="69.6211" y2="1008.7695"/><line style="stroke:#181818;stroke-width:0.5;stroke-dasharray:5.0,5.0;" x1="1026.5" x2="1026.5" y1="69.6211" y2="1008.7695"/><line style="stroke:#181818;stroke-width:0.5;stroke-dasharray:5.0,5.0;" x1="1243.5" x2="1243.5" y1="69.6211" y2="1008.7695"/><line style="stroke:#181818;stroke-width:0.5;stroke-dasharray:5.0,5.0;" x1="1384.5" x2="1384.5" y1="69.6211" y2="1008.7695"/><line style="stroke:#181818;stroke-width:0.5;stroke-dasharray:5.0,5.0;" x1="1507.5" x2="1507.5" y1="69.6211" y2="1008.7695"/><line style="stroke:#181818;stroke-width:0.5;stroke-dasharray:5.0,5.0;" x1="1596.5" x2="1596.5" y1="69.6211" y2="1008.7695"/><rect fill="#E2E2F0" height="32.6211" rx="2.5" ry="2.5" style="stroke:#181818;stroke-width:0.5;" width="141" x="5" y="36"/><text fill="#000000" font-family="sans-serif" font-size="14" lengthAdjust="spacing" textLength="127" x="12" y="58.1074">:BuildingComponent</text><rect fill="#E2E2F0" height="32.6211" rx="2.5" ry="2.5" style="stroke:#181818;stroke-width:0.5;" width="141" x="5" y="1007.7695"/><text fill="#000000" font-family="sans-serif" font-size="14" lengthAdjust="spacing" textLength="127" x="12" y="1029.877">:BuildingComponent</text><rect fill="#E2E2F0" height="32.6211" rx="2.5" ry="2.5" style="stroke:#181818;stroke-width:0.5;" width="184" x="171.5" y="36"/><text fill="#000000" font-family="sans-serif" font-size="14" lengthAdjust="spacing" textLength="170" x="178.5" y="58.1074">:CreateBuildingComponent</text><rect fill="#E2E2F0" height="32.6211" rx="2.5" ry="2.5" style="stroke:#181818;stroke-width:0.5;" width="184" x="171.5" y="1007.7695"/><text fill="#000000" font-family="sans-serif" font-size="14" lengthAdjust="spacing" textLength="170" x="178.5" y="1029.877">:CreateBuildingComponent</text><rect fill="#E2E2F0" height="32.6211" rx="2.5" ry="2.5" style="stroke:#181818;stroke-width:0.5;" width="56" x="513.5" y="36"/><text fill="#000000" font-family="sans-serif" font-size="14" lengthAdjust="spacing" textLength="42" x="520.5" y="58.1074">:Route</text><rect fill="#E2E2F0" height="32.6211" rx="2.5" ry="2.5" style="stroke:#181818;stroke-width:0.5;" width="56" x="513.5" y="1007.7695"/><text fill="#000000" font-family="sans-serif" font-size="14" lengthAdjust="spacing" textLength="42" x="520.5" y="1029.877">:Route</text><rect fill="#E2E2F0" height="32.6211" rx="2.5" ry="2.5" style="stroke:#181818;stroke-width:0.5;" width="130" x="683.5" y="36"/><text fill="#000000" font-family="sans-serif" font-size="14" lengthAdjust="spacing" textLength="116" x="690.5" y="58.1074">:BuildingController</text><rect fill="#E2E2F0" height="32.6211" rx="2.5" ry="2.5" style="stroke:#181818;stroke-width:0.5;" width="130" x="683.5" y="1007.7695"/><text fill="#000000" font-family="sans-serif" font-size="14" lengthAdjust="spacing" textLength="116" x="690.5" y="1029.877">:BuildingController</text><rect fill="#E2E2F0" height="32.6211" rx="2.5" ry="2.5" style="stroke:#181818;stroke-width:0.5;" width="98" x="861.5" y="36"/><text fill="#000000" font-family="sans-serif" font-size="14" lengthAdjust="spacing" textLength="84" x="868.5" y="58.1074">:BuildingDTO</text><rect fill="#E2E2F0" height="32.6211" rx="2.5" ry="2.5" style="stroke:#181818;stroke-width:0.5;" width="98" x="861.5" y="1007.7695"/><text fill="#000000" font-family="sans-serif" font-size="14" lengthAdjust="spacing" textLength="84" x="868.5" y="1029.877">:BuildingDTO</text><rect fill="#E2E2F0" height="32.6211" rx="2.5" ry="2.5" style="stroke:#181818;stroke-width:0.5;" width="115" x="969.5" y="36"/><text fill="#000000" font-family="sans-serif" font-size="14" lengthAdjust="spacing" textLength="101" x="976.5" y="58.1074">:BuildingService</text><rect fill="#E2E2F0" height="32.6211" rx="2.5" ry="2.5" style="stroke:#181818;stroke-width:0.5;" width="115" x="969.5" y="1007.7695"/><text fill="#000000" font-family="sans-serif" font-size="14" lengthAdjust="spacing" textLength="101" x="976.5" y="1029.877">:BuildingService</text><rect fill="#E2E2F0" height="32.6211" rx="2.5" ry="2.5" style="stroke:#181818;stroke-width:0.5;" width="125" x="1181.5" y="36"/><text fill="#000000" font-family="sans-serif" font-size="14" lengthAdjust="spacing" textLength="111" x="1188.5" y="58.1074">:building: Building</text><rect fill="#E2E2F0" height="32.6211" rx="2.5" ry="2.5" style="stroke:#181818;stroke-width:0.5;" width="125" x="1181.5" y="1007.7695"/><text fill="#000000" font-family="sans-serif" font-size="14" lengthAdjust="spacing" textLength="111" x="1188.5" y="1029.877">:building: Building</text><rect fill="#E2E2F0" height="32.6211" rx="2.5" ry="2.5" style="stroke:#181818;stroke-width:0.5;" width="136" x="1316.5" y="36"/><text fill="#000000" font-family="sans-serif" font-size="14" lengthAdjust="spacing" textLength="122" x="1323.5" y="58.1074">:BuildingRepository</text><rect fill="#E2E2F0" height="32.6211" rx="2.5" ry="2.5" style="stroke:#181818;stroke-width:0.5;" width="136" x="1316.5" y="1007.7695"/><text fill="#000000" font-family="sans-serif" font-size="14" lengthAdjust="spacing" textLength="122" x="1323.5" y="1029.877">:BuildingRepository</text><rect fill="#E2E2F0" height="32.6211" rx="2.5" ry="2.5" style="stroke:#181818;stroke-width:0.5;" width="91" x="1462.5" y="36"/><text fill="#000000" font-family="sans-serif" font-size="14" lengthAdjust="spacing" textLength="77" x="1469.5" y="58.1074">BuildingMap</text><rect fill="#E2E2F0" height="32.6211" rx="2.5" ry="2.5" style="stroke:#181818;stroke-width:0.5;" width="91" x="1462.5" y="1007.7695"/><text fill="#000000" font-family="sans-serif" font-size="14" lengthAdjust="spacing" textLength="77" x="1469.5" y="1029.877">BuildingMap</text><text fill="#000000" font-family="sans-serif" font-size="14" lengthAdjust="spacing" textLength="61" x="1563.5" y="66.1074">Database</text><path d="M1579,15 C1579,5 1597,5 1597,5 C1597,5 1615,5 1615,15 L1615,41 C1615,51 1597,51 1597,51 C1597,51 1579,51 1579,41 L1579,15 " fill="#E2E2F0" style="stroke:#181818;stroke-width:1.5;"/><path d="M1579,15 C1579,25 1597,25 1597,25 C1597,25 1615,25 1615,15 " fill="none" style="stroke:#181818;stroke-width:1.5;"/><text fill="#000000" font-family="sans-serif" font-size="14" lengthAdjust="spacing" textLength="61" x="1563.5" y="1022.877">Database</text><path d="M1579,1036.3906 C1579,1026.3906 1597,1026.3906 1597,1026.3906 C1597,1026.3906 1615,1026.3906 1615,1036.3906 L1615,1062.3906 C1615,1072.3906 1597,1072.3906 1597,1072.3906 C1597,1072.3906 1579,1072.3906 1579,1062.3906 L1579,1036.3906 " fill="#E2E2F0" style="stroke:#181818;stroke-width:1.5;"/><path d="M1579,1036.3906 C1579,1046.3906 1597,1046.3906 1597,1046.3906 C1597,1046.3906 1615,1046.3906 1615,1036.3906 " fill="none" style="stroke:#181818;stroke-width:1.5;"/><rect fill="#FFFFFF" height="67.582" style="stroke:#181818;stroke-width:1.0;" width="10" x="70.5" y="79.6211"/><rect fill="#FFFFFF" height="843.5664" style="stroke:#181818;stroke-width:1.0;" width="10" x="258.5" y="147.2031"/><rect fill="#FFFFFF" height="370.4922" style="stroke:#181818;stroke-width:1.0;" width="10" x="536.5" y="267.0762"/><rect fill="#FFFFFF" height="701.4023" style="stroke:#181818;stroke-width:1.0;" width="10" x="743.5" y="298.3672"/><rect fill="#FFFFFF" height="31.291" style="stroke:#181818;stroke-width:1.0;" width="10" x="905.5" y="329.6582"/><rect fill="#FFFFFF" height="182.7461" style="stroke:#181818;stroke-width:1.0;" width="10" x="1022" y="392.2402"/><rect fill="#FFFFFF" height="257.3281" style="stroke:#181818;stroke-width:1.0;" width="10" x="1022" y="670.8594"/><rect fill="#FFFFFF" height="93.873" style="stroke:#181818;stroke-width:1.0;" width="10" x="1379.5" y="449.8223"/><rect fill="#FFFFFF" height="33.291" style="stroke:#181818;stroke-width:1.0;" width="10" x="1379.5" y="637.5684"/><rect fill="#FFFFFF" height="93.873" style="stroke:#181818;stroke-width:1.0;" width="10" x="1379.5" y="740.4414"/><rect fill="#FFFFFF" height="31.291" style="stroke:#181818;stroke-width:1.0;" width="10" x="1503" y="865.6055"/><rect fill="#FFFFFF" height="31.291" style="stroke:#181818;stroke-width:1.0;" width="10" x="1592" y="481.1133"/><rect fill="#FFFFFF" height="31.291" style="stroke:#181818;stroke-width:1.0;" width="10" x="1592" y="771.7324"/><line style="stroke:#181818;stroke-width:1.0;" x1="80.5" x2="122.5" y1="102.9121" y2="102.9121"/><line style="stroke:#181818;stroke-width:1.0;" x1="122.5" x2="122.5" y1="102.9121" y2="115.9121"/><line style="stroke:#181818;stroke-width:1.0;" x1="81.5" x2="122.5" y1="115.9121" y2="115.9121"/><polygon fill="#181818" points="91.5,111.9121,81.5,115.9121,91.5,119.9121,87.5,115.9121" style="stroke:#181818;stroke-width:1.0;"/><text fill="#000000" font-family="sans-serif" font-size="13" font-weight="bold" lengthAdjust="spacing" textLength="7" x="87.5" y="97.6494">1</text><text fill="#000000" font-family="sans-serif" font-size="13" lengthAdjust="spacing" textLength="69" x="98.5" y="97.6494">resetShow()</text><polygon fill="#181818" points="246.5,143.2031,256.5,147.2031,246.5,151.2031,250.5,147.2031" style="stroke:#181818;stroke-width:1.0;"/><line style="stroke:#181818;stroke-width:1.0;" x1="75.5" x2="252.5" y1="147.2031" y2="147.2031"/><text fill="#000000" font-family="sans-serif" font-size="13" font-weight="bold" lengthAdjust="spacing" textLength="7" x="82.5" y="141.9404">2</text><text fill="#000000" font-family="sans-serif" font-size="13" lengthAdjust="spacing" textLength="148" x="93.5" y="141.9404">showCreateBuilding= true</text><line style="stroke:#181818;stroke-width:1.0;" x1="268.5" x2="310.5" y1="178.4941" y2="178.4941"/><line style="stroke:#181818;stroke-width:1.0;" x1="310.5" x2="310.5" y1="178.4941" y2="191.4941"/><line style="stroke:#181818;stroke-width:1.0;" x1="269.5" x2="310.5" y1="191.4941" y2="191.4941"/><polygon fill="#181818" points="279.5,187.4941,269.5,191.4941,279.5,195.4941,275.5,191.4941" style="stroke:#181818;stroke-width:1.0;"/><text fill="#000000" font-family="sans-serif" font-size="13" font-weight="bold" lengthAdjust="spacing" textLength="7" x="275.5" y="173.2314">3</text><text fill="#000000" font-family="sans-serif" font-size="13" lengthAdjust="spacing" textLength="93" x="286.5" y="173.2314">onSubmitForm()</text><line style="stroke:#181818;stroke-width:1.0;" x1="268.5" x2="310.5" y1="222.7852" y2="222.7852"/><line style="stroke:#181818;stroke-width:1.0;" x1="310.5" x2="310.5" y1="222.7852" y2="235.7852"/><line style="stroke:#181818;stroke-width:1.0;" x1="269.5" x2="310.5" y1="235.7852" y2="235.7852"/><polygon fill="#181818" points="279.5,231.7852,269.5,235.7852,279.5,239.7852,275.5,235.7852" style="stroke:#181818;stroke-width:1.0;"/><text fill="#000000" font-family="sans-serif" font-size="13" font-weight="bold" lengthAdjust="spacing" textLength="7" x="275.5" y="217.5225">4</text><text fill="#000000" font-family="sans-serif" font-size="13" lengthAdjust="spacing" textLength="78" x="286.5" y="217.5225">prepareData()</text><polygon fill="#181818" points="524.5,263.0762,534.5,267.0762,524.5,271.0762,528.5,267.0762" style="stroke:#181818;stroke-width:1.0;"/><line style="stroke:#181818;stroke-width:1.0;" x1="268.5" x2="530.5" y1="267.0762" y2="267.0762"/><text fill="#000000" font-family="sans-serif" font-size="13" font-weight="bold" lengthAdjust="spacing" textLength="7" x="275.5" y="261.8135">5</text><text fill="#000000" font-family="sans-serif" font-size="13" lengthAdjust="spacing" textLength="238" x="286.5" y="261.8135">POST Building (id,name description,size)</text><polygon fill="#181818" points="731.5,294.3672,741.5,298.3672,731.5,302.3672,735.5,298.3672" style="stroke:#181818;stroke-width:1.0;"/><line style="stroke:#181818;stroke-width:1.0;" x1="546.5" x2="737.5" y1="298.3672" y2="298.3672"/><text fill="#000000" font-family="sans-serif" font-size="13" font-weight="bold" lengthAdjust="spacing" textLength="7" x="553.5" y="293.1045">6</text><text fill="#000000" font-family="sans-serif" font-size="13" lengthAdjust="spacing" textLength="167" x="564.5" y="293.1045">createBuilding(req, res, next)</text><polygon fill="#181818" points="893.5,325.6582,903.5,329.6582,893.5,333.6582,897.5,329.6582" style="stroke:#181818;stroke-width:1.0;"/><line style="stroke:#181818;stroke-width:1.0;" x1="753.5" x2="899.5" y1="329.6582" y2="329.6582"/><text fill="#000000" font-family="sans-serif" font-size="13" font-weight="bold" lengthAdjust="spacing" textLength="7" x="760.5" y="324.3955">7</text><text fill="#000000" font-family="sans-serif" font-size="13" lengthAdjust="spacing" textLength="122" x="771.5" y="324.3955">buildingDTO=create()</text><polygon fill="#181818" points="764.5,356.9492,754.5,360.9492,764.5,364.9492,760.5,360.9492" style="stroke:#181818;stroke-width:1.0;"/><line style="stroke:#181818;stroke-width:1.0;stroke-dasharray:2.0,2.0;" x1="758.5" x2="909.5" y1="360.9492" y2="360.9492"/><text fill="#000000" font-family="sans-serif" font-size="13" font-weight="bold" lengthAdjust="spacing" textLength="7" x="770.5" y="355.6865">8</text><text fill="#000000" font-family="sans-serif" font-size="13" lengthAdjust="spacing" textLength="4" x="781.5" y="355.6865">&#160;</text><polygon fill="#181818" points="1010,388.2402,1020,392.2402,1010,396.2402,1014,392.2402" style="stroke:#181818;stroke-width:1.0;"/><line style="stroke:#181818;stroke-width:1.0;" x1="753.5" x2="1016" y1="392.2402" y2="392.2402"/><text fill="#000000" font-family="sans-serif" font-size="13" font-weight="bold" lengthAdjust="spacing" textLength="7" x="760.5" y="386.9775">9</text><text fill="#000000" font-family="sans-serif" font-size="13" lengthAdjust="spacing" textLength="162" x="771.5" y="386.9775">CreateBuilding(buildingDTO)</text><path d="M161.5,407.2402 L222.5,407.2402 L222.5,416.5313 L212.5,426.5313 L161.5,426.5313 L161.5,407.2402 " fill="#EEEEEE" style="stroke:#000000;stroke-width:1.5;"/><rect fill="none" height="271.6191" style="stroke:#000000;stroke-width:1.5;" width="1479" x="161.5" y="407.2402"/><text fill="#000000" font-family="sans-serif" font-size="13" font-weight="bold" lengthAdjust="spacing" textLength="16" x="176.5" y="422.2686">alt</text><polygon fill="#181818" points="1367.5,445.8223,1377.5,449.8223,1367.5,453.8223,1371.5,449.8223" style="stroke:#181818;stroke-width:1.0;"/><line style="stroke:#181818;stroke-width:1.0;" x1="1032" x2="1373.5" y1="449.8223" y2="449.8223"/><text fill="#000000" font-family="sans-serif" font-size="13" font-weight="bold" lengthAdjust="spacing" textLength="14" x="1039" y="444.5596">10</text><text fill="#000000" font-family="sans-serif" font-size="13" lengthAdjust="spacing" textLength="138" x="1057" y="444.5596">findById(buildingDTO.id)</text><polygon fill="#181818" points="1580,477.1133,1590,481.1133,1580,485.1133,1584,481.1133" style="stroke:#181818;stroke-width:1.0;"/><line style="stroke:#181818;stroke-width:1.0;" x1="1389.5" x2="1586" y1="481.1133" y2="481.1133"/><text fill="#000000" font-family="sans-serif" font-size="13" font-weight="bold" lengthAdjust="spacing" textLength="14" x="1396.5" y="475.8506">11</text><text fill="#000000" font-family="sans-serif" font-size="13" lengthAdjust="spacing" textLength="77" x="1414.5" y="475.8506">read(building)</text><polygon fill="#181818" points="1400.5,508.4043,1390.5,512.4043,1400.5,516.4043,1396.5,512.4043" style="stroke:#181818;stroke-width:1.0;"/><line style="stroke:#181818;stroke-width:1.0;stroke-dasharray:2.0,2.0;" x1="1394.5" x2="1596" y1="512.4043" y2="512.4043"/><text fill="#000000" font-family="sans-serif" font-size="13" font-weight="bold" lengthAdjust="spacing" textLength="14" x="1406.5" y="507.1416">12</text><text fill="#000000" font-family="sans-serif" font-size="13" lengthAdjust="spacing" textLength="4" x="1424.5" y="507.1416">&#160;</text><polygon fill="#181818" points="1043,539.6953,1033,543.6953,1043,547.6953,1039,543.6953" style="stroke:#181818;stroke-width:1.0;"/><line style="stroke:#181818;stroke-width:1.0;stroke-dasharray:2.0,2.0;" x1="1037" x2="1383.5" y1="543.6953" y2="543.6953"/><text fill="#000000" font-family="sans-serif" font-size="13" font-weight="bold" lengthAdjust="spacing" textLength="14" x="1049" y="538.4326">13</text><text fill="#000000" font-family="sans-serif" font-size="13" lengthAdjust="spacing" textLength="52" x="1067" y="538.4326">(building)</text><polygon fill="#181818" points="764.5,570.9863,754.5,574.9863,764.5,578.9863,760.5,574.9863" style="stroke:#181818;stroke-width:1.0;"/><line style="stroke:#181818;stroke-width:1.0;stroke-dasharray:2.0,2.0;" x1="758.5" x2="1026" y1="574.9863" y2="574.9863"/><text fill="#000000" font-family="sans-serif" font-size="13" font-weight="bold" lengthAdjust="spacing" textLength="14" x="770.5" y="569.7236">14</text><text fill="#000000" font-family="sans-serif" font-size="13" lengthAdjust="spacing" textLength="126" x="788.5" y="569.7236">error ("Building exist")</text><polygon fill="#181818" points="557.5,602.2773,547.5,606.2773,557.5,610.2773,553.5,606.2773" style="stroke:#181818;stroke-width:1.0;"/><line style="stroke:#181818;stroke-width:1.0;stroke-dasharray:2.0,2.0;" x1="551.5" x2="742.5" y1="606.2773" y2="606.2773"/><text fill="#000000" font-family="sans-serif" font-size="13" font-weight="bold" lengthAdjust="spacing" textLength="14" x="563.5" y="601.0146">15</text><text fill="#000000" font-family="sans-serif" font-size="13" lengthAdjust="spacing" textLength="126" x="581.5" y="601.0146">error ("Building exist")</text><polygon fill="#181818" points="279.5,633.5684,269.5,637.5684,279.5,641.5684,275.5,637.5684" style="stroke:#181818;stroke-width:1.0;"/><line style="stroke:#181818;stroke-width:1.0;stroke-dasharray:2.0,2.0;" x1="273.5" x2="540.5" y1="637.5684" y2="637.5684"/><text fill="#000000" font-family="sans-serif" font-size="13" font-weight="bold" lengthAdjust="spacing" textLength="14" x="285.5" y="632.3057">16</text><text fill="#000000" font-family="sans-serif" font-size="13" lengthAdjust="spacing" textLength="126" x="303.5" y="632.3057">error ("Building exist")</text><line style="stroke:#000000;stroke-width:1.0;stroke-dasharray:2.0,2.0;" x1="161.5" x2="1640.5" y1="646.5684" y2="646.5684"/><polygon fill="#181818" points="1043,666.8594,1033,670.8594,1043,674.8594,1039,670.8594" style="stroke:#181818;stroke-width:1.0;"/><line style="stroke:#181818;stroke-width:1.0;" x1="1037" x2="1383.5" y1="670.8594" y2="670.8594"/><text fill="#000000" font-family="sans-serif" font-size="13" font-weight="bold" lengthAdjust="spacing" textLength="14" x="1049" y="665.5967">17</text><text fill="#000000" font-family="sans-serif" font-size="13" lengthAdjust="spacing" textLength="61" x="1067" y="665.5967">return(null)</text><polygon fill="#181818" points="1232,705.1504,1242,709.1504,1232,713.1504,1236,709.1504" style="stroke:#181818;stroke-width:1.0;"/><line style="stroke:#181818;stroke-width:1.0;stroke-dasharray:2.0,2.0;" x1="1032" x2="1238" y1="709.1504" y2="709.1504"/><text fill="#000000" font-family="sans-serif" font-size="13" font-weight="bold" lengthAdjust="spacing" textLength="14" x="1039" y="703.8877">18</text><text fill="#000000" font-family="sans-serif" font-size="13" lengthAdjust="spacing" textLength="170" x="1057" y="703.8877">building= create(buildingDTO)</text><polygon fill="#181818" points="1367.5,736.4414,1377.5,740.4414,1367.5,744.4414,1371.5,740.4414" style="stroke:#181818;stroke-width:1.0;"/><line style="stroke:#181818;stroke-width:1.0;stroke-dasharray:2.0,2.0;" x1="1032" x2="1373.5" y1="740.4414" y2="740.4414"/><text fill="#000000" font-family="sans-serif" font-size="13" font-weight="bold" lengthAdjust="spacing" textLength="14" x="1039" y="735.1787">19</text><text fill="#000000" font-family="sans-serif" font-size="13" lengthAdjust="spacing" textLength="78" x="1057" y="735.1787">save(building)</text><polygon fill="#181818" points="1580,767.7324,1590,771.7324,1580,775.7324,1584,771.7324" style="stroke:#181818;stroke-width:1.0;"/><line style="stroke:#181818;stroke-width:1.0;" x1="1389.5" x2="1586" y1="771.7324" y2="771.7324"/><text fill="#000000" font-family="sans-serif" font-size="13" font-weight="bold" lengthAdjust="spacing" textLength="14" x="1396.5" y="766.4697">20</text><text fill="#000000" font-family="sans-serif" font-size="13" lengthAdjust="spacing" textLength="106" x="1414.5" y="766.4697">writeData(building)</text><polygon fill="#181818" points="1400.5,799.0234,1390.5,803.0234,1400.5,807.0234,1396.5,803.0234" style="stroke:#181818;stroke-width:1.0;"/><line style="stroke:#181818;stroke-width:1.0;stroke-dasharray:2.0,2.0;" x1="1394.5" x2="1596" y1="803.0234" y2="803.0234"/><text fill="#000000" font-family="sans-serif" font-size="13" font-weight="bold" lengthAdjust="spacing" textLength="14" x="1406.5" y="797.7607">21</text><text fill="#000000" font-family="sans-serif" font-size="13" lengthAdjust="spacing" textLength="79" x="1424.5" y="797.7607">buildingSaved</text><polygon fill="#181818" points="1043,830.3145,1033,834.3145,1043,838.3145,1039,834.3145" style="stroke:#181818;stroke-width:1.0;"/><line style="stroke:#181818;stroke-width:1.0;stroke-dasharray:2.0,2.0;" x1="1037" x2="1383.5" y1="834.3145" y2="834.3145"/><text fill="#000000" font-family="sans-serif" font-size="13" font-weight="bold" lengthAdjust="spacing" textLength="14" x="1049" y="829.0518">22</text><text fill="#000000" font-family="sans-serif" font-size="13" lengthAdjust="spacing" textLength="79" x="1067" y="829.0518">buildingSaved</text><polygon fill="#181818" points="1491,861.6055,1501,865.6055,1491,869.6055,1495,865.6055" style="stroke:#181818;stroke-width:1.0;"/><line style="stroke:#181818;stroke-width:1.0;stroke-dasharray:2.0,2.0;" x1="1032" x2="1497" y1="865.6055" y2="865.6055"/><text fill="#000000" font-family="sans-serif" font-size="13" font-weight="bold" lengthAdjust="spacing" textLength="14" x="1039" y="860.3428">23</text><text fill="#000000" font-family="sans-serif" font-size="13" lengthAdjust="spacing" textLength="124" x="1057" y="860.3428">toDTO(buildingSaved)</text><polygon fill="#181818" points="1043,892.8965,1033,896.8965,1043,900.8965,1039,896.8965" style="stroke:#181818;stroke-width:1.0;"/><line style="stroke:#181818;stroke-width:1.0;stroke-dasharray:2.0,2.0;" x1="1037" x2="1507" y1="896.8965" y2="896.8965"/><text fill="#000000" font-family="sans-serif" font-size="13" font-weight="bold" lengthAdjust="spacing" textLength="14" x="1049" y="891.6338">24</text><text fill="#000000" font-family="sans-serif" font-size="13" lengthAdjust="spacing" textLength="113" x="1067" y="891.6338">buildingSavedDTO :</text><polygon fill="#181818" points="764.5,924.1875,754.5,928.1875,764.5,932.1875,760.5,928.1875" style="stroke:#181818;stroke-width:1.0;"/><line style="stroke:#181818;stroke-width:1.0;stroke-dasharray:2.0,2.0;" x1="758.5" x2="1026" y1="928.1875" y2="928.1875"/><text fill="#000000" font-family="sans-serif" font-size="13" font-weight="bold" lengthAdjust="spacing" textLength="14" x="770.5" y="922.9248">25</text><text fill="#000000" font-family="sans-serif" font-size="13" lengthAdjust="spacing" textLength="4" x="788.5" y="922.9248">&#160;</text><polygon fill="#181818" points="552.5,955.4785,542.5,959.4785,552.5,963.4785,548.5,959.4785" style="stroke:#181818;stroke-width:1.0;"/><line style="stroke:#181818;stroke-width:1.0;stroke-dasharray:2.0,2.0;" x1="546.5" x2="742.5" y1="959.4785" y2="959.4785"/><text fill="#000000" font-family="sans-serif" font-size="13" font-weight="bold" lengthAdjust="spacing" textLength="14" x="558.5" y="954.2158">26</text><text fill="#000000" font-family="sans-serif" font-size="13" lengthAdjust="spacing" textLength="4" x="576.5" y="954.2158">&#160;</text><polygon fill="#181818" points="274.5,986.7695,264.5,990.7695,274.5,994.7695,270.5,990.7695" style="stroke:#181818;stroke-width:1.0;"/><line style="stroke:#181818;stroke-width:1.0;stroke-dasharray:2.0,2.0;" x1="268.5" x2="540.5" y1="990.7695" y2="990.7695"/><text fill="#000000" font-family="sans-serif" font-size="13" font-weight="bold" lengthAdjust="spacing" textLength="14" x="280.5" y="985.5068">27</text><text fill="#000000" font-family="sans-serif" font-size="13" lengthAdjust="spacing" textLength="51" x="298.5" y="985.5068">Success</text><!--SRC=[ZLJHZfim47ptLwpoHAJSVG1IAZN9jOgKwqMGzjt0zce9R6gRt5s_lhOnmURWsYSiCpExEpj0EorurnGeIKkbPYLhATUmIdSTgol6d_UYQGL7hbT05Ups4zXU8jKu3uxVJOYPw3JscgV3ryNYN4jHroXxmKjsMa0UBayEOfuBY1pbbPLzoVmX-p615HwMma3ec_j-F1sEtvOQpB0LYcaXtnmwUpXFoW_0HzeE_Jr-FXDIKKqBgX0E_a08BJMx6iEioRizt7qo1qX1eaAT_n8loPhu-zXOWr7cTNov1Iqx91M6gcE9oMecWkzAf022vrtHCFr5oCPqyX-CLgAn0ks0jlNt3Bjuq_pvAR_SJ8U4LHjE6uGALIbPgvdW6yN-u3emo2Q6EBejR59XPCf8Fv7uUsEzsm37LnsGNOWSnt3DEb8enWnjUvKamDj4ITITvA6RzdOGiMao3SG39e5geEQIHsjD7CcGRMGC-IVZrUxjM8MqUrO5J9SjXxPz-zJOUD2H5BOzv6eum9sl5epX1uD0W0ntW58A2Sajme2lJEdLsiyzBd0H-4ybhAFWHoDwLtkDX7TrlGuNuB2nhSWhiDOIRwxjq7- -C6vvwvCIB-Z6wFUXw1NdN7LLPxRm8fdka_xHAWP31ankgbJpbzD9nmRzByHCf8Kv9X4lpgtxqyp9ctUGJk9imRSY_JSL8fp3aytxJt3kZvHtPObAXGgJVyvV]--></g></svg>