<?xml version="1.0" encoding="us-ascii" standalone="no"?><svg xmlns="http://www.w3.org/2000/svg" xmlns:xlink="http://www.w3.org/1999/xlink" contentStyleType="text/css" height="1210px" preserveAspectRatio="none" style="width:1756px;height:1210px;background:#FFFFFF;" version="1.1" viewBox="0 0 1756 1210" width="1756px" zoomAndPan="magnify"><defs/><g><rect fill="#FFFFFF" height="67.582" style="stroke:#181818;stroke-width:1.0;" width="10" x="70.5" y="79.6211"/><rect fill="#FFFFFF" height="964.8574" style="stroke:#181818;stroke-width:1.0;" width="10" x="243.5" y="147.2031"/><rect fill="#FFFFFF" height="339.2012" style="stroke:#181818;stroke-width:1.0;" width="10" x="551.5" y="267.0762"/><rect fill="#FFFFFF" height="822.6934" style="stroke:#181818;stroke-width:1.0;" width="10" x="761.5" y="298.3672"/><rect fill="#FFFFFF" height="31.291" style="stroke:#181818;stroke-width:1.0;" width="10" x="923.5" y="329.6582"/><rect fill="#FFFFFF" height="151.4551" style="stroke:#181818;stroke-width:1.0;" width="10" x="1040" y="392.2402"/><rect fill="#FFFFFF" height="378.6191" style="stroke:#181818;stroke-width:1.0;" width="10" x="1040" y="670.8594"/><rect fill="#FFFFFF" height="30" style="stroke:#181818;stroke-width:1.0;" width="10" x="1315" y="709.1504"/><rect fill="#FFFFFF" height="30" style="stroke:#181818;stroke-width:1.0;" width="10" x="1315" y="770.4414"/><rect fill="#FFFFFF" height="30" style="stroke:#181818;stroke-width:1.0;" width="10" x="1315" y="831.7324"/><rect fill="#FFFFFF" height="62.582" style="stroke:#181818;stroke-width:1.0;" width="10" x="1488.5" y="449.8223"/><rect fill="#FFFFFF" height="64.582" style="stroke:#181818;stroke-width:1.0;" width="10" x="1488.5" y="606.2773"/><rect fill="#FFFFFF" height="62.582" style="stroke:#181818;stroke-width:1.0;" width="10" x="1488.5" y="893.0234"/><rect fill="#FFFFFF" height="31.291" style="stroke:#181818;stroke-width:1.0;" width="10" x="1612" y="986.8965"/><rect fill="none" height="271.6191" style="stroke:#000000;stroke-width:1.5;" width="1593.5" x="156" y="407.2402"/><line style="stroke:#181818;stroke-width:0.5;stroke-dasharray:5.0,5.0;" x1="75" x2="75" y1="69.6211" y2="1130.0605"/><line style="stroke:#181818;stroke-width:0.5;stroke-dasharray:5.0,5.0;" x1="248" x2="248" y1="69.6211" y2="1130.0605"/><line style="stroke:#181818;stroke-width:0.5;stroke-dasharray:5.0,5.0;" x1="556.5" x2="556.5" y1="69.6211" y2="1130.0605"/><line style="stroke:#181818;stroke-width:0.5;stroke-dasharray:5.0,5.0;" x1="766.5" x2="766.5" y1="69.6211" y2="1130.0605"/><line style="stroke:#181818;stroke-width:0.5;stroke-dasharray:5.0,5.0;" x1="928.5" x2="928.5" y1="69.6211" y2="1130.0605"/><line style="stroke:#181818;stroke-width:0.5;stroke-dasharray:5.0,5.0;" x1="1044.5" x2="1044.5" y1="69.6211" y2="1130.0605"/><line style="stroke:#181818;stroke-width:0.5;stroke-dasharray:5.0,5.0;" x1="1319.5" x2="1319.5" y1="69.6211" y2="1130.0605"/><line style="stroke:#181818;stroke-width:0.5;stroke-dasharray:5.0,5.0;" x1="1493.5" x2="1493.5" y1="69.6211" y2="1130.0605"/><line style="stroke:#181818;stroke-width:0.5;stroke-dasharray:5.0,5.0;" x1="1616.5" x2="1616.5" y1="69.6211" y2="1130.0605"/><line style="stroke:#181818;stroke-width:0.5;stroke-dasharray:5.0,5.0;" x1="1705.5" x2="1705.5" y1="69.6211" y2="1130.0605"/><rect fill="#E2E2F0" height="32.6211" rx="2.5" ry="2.5" style="stroke:#181818;stroke-width:0.5;" width="141" x="5" y="36"/><text fill="#000000" font-family="sans-serif" font-size="14" lengthAdjust="spacing" textLength="127" x="12" y="58.1074">:BuildingComponent</text><rect fill="#E2E2F0" height="32.6211" rx="2.5" ry="2.5" style="stroke:#181818;stroke-width:0.5;" width="141" x="5" y="1129.0605"/><text fill="#000000" font-family="sans-serif" font-size="14" lengthAdjust="spacing" textLength="127" x="12" y="1151.168">:BuildingComponent</text><rect fill="#E2E2F0" height="32.6211" rx="2.5" ry="2.5" style="stroke:#181818;stroke-width:0.5;" width="165" x="166" y="36"/><text fill="#000000" font-family="sans-serif" font-size="14" lengthAdjust="spacing" textLength="151" x="173" y="58.1074">:EditBuildingComponent</text><rect fill="#E2E2F0" height="32.6211" rx="2.5" ry="2.5" style="stroke:#181818;stroke-width:0.5;" width="165" x="166" y="1129.0605"/><text fill="#000000" font-family="sans-serif" font-size="14" lengthAdjust="spacing" textLength="151" x="173" y="1151.168">:EditBuildingComponent</text><rect fill="#E2E2F0" height="32.6211" rx="2.5" ry="2.5" style="stroke:#181818;stroke-width:0.5;" width="56" x="528.5" y="36"/><text fill="#000000" font-family="sans-serif" font-size="14" lengthAdjust="spacing" textLength="42" x="535.5" y="58.1074">:Route</text><rect fill="#E2E2F0" height="32.6211" rx="2.5" ry="2.5" style="stroke:#181818;stroke-width:0.5;" width="56" x="528.5" y="1129.0605"/><text fill="#000000" font-family="sans-serif" font-size="14" lengthAdjust="spacing" textLength="42" x="535.5" y="1151.168">:Route</text><rect fill="#E2E2F0" height="32.6211" rx="2.5" ry="2.5" style="stroke:#181818;stroke-width:0.5;" width="130" x="701.5" y="36"/><text fill="#000000" font-family="sans-serif" font-size="14" lengthAdjust="spacing" textLength="116" x="708.5" y="58.1074">:BuildingController</text><rect fill="#E2E2F0" height="32.6211" rx="2.5" ry="2.5" style="stroke:#181818;stroke-width:0.5;" width="130" x="701.5" y="1129.0605"/><text fill="#000000" font-family="sans-serif" font-size="14" lengthAdjust="spacing" textLength="116" x="708.5" y="1151.168">:BuildingController</text><rect fill="#E2E2F0" height="32.6211" rx="2.5" ry="2.5" style="stroke:#181818;stroke-width:0.5;" width="98" x="879.5" y="36"/><text fill="#000000" font-family="sans-serif" font-size="14" lengthAdjust="spacing" textLength="84" x="886.5" y="58.1074">:BuildingDTO</text><rect fill="#E2E2F0" height="32.6211" rx="2.5" ry="2.5" style="stroke:#181818;stroke-width:0.5;" width="98" x="879.5" y="1129.0605"/><text fill="#000000" font-family="sans-serif" font-size="14" lengthAdjust="spacing" textLength="84" x="886.5" y="1151.168">:BuildingDTO</text><rect fill="#E2E2F0" height="32.6211" rx="2.5" ry="2.5" style="stroke:#181818;stroke-width:0.5;" width="115" x="987.5" y="36"/><text fill="#000000" font-family="sans-serif" font-size="14" lengthAdjust="spacing" textLength="101" x="994.5" y="58.1074">:BuildingService</text><rect fill="#E2E2F0" height="32.6211" rx="2.5" ry="2.5" style="stroke:#181818;stroke-width:0.5;" width="115" x="987.5" y="1129.0605"/><text fill="#000000" font-family="sans-serif" font-size="14" lengthAdjust="spacing" textLength="101" x="994.5" y="1151.168">:BuildingService</text><rect fill="#E2E2F0" height="32.6211" rx="2.5" ry="2.5" style="stroke:#181818;stroke-width:0.5;" width="191" x="1224.5" y="36"/><text fill="#000000" font-family="sans-serif" font-size="14" lengthAdjust="spacing" textLength="173" x="1231.5" y="58.1074">:buildingToUpdate: Building</text><rect fill="#E2E2F0" height="32.6211" rx="2.5" ry="2.5" style="stroke:#181818;stroke-width:0.5;" width="191" x="1224.5" y="1129.0605"/><text fill="#000000" font-family="sans-serif" font-size="14" lengthAdjust="spacing" textLength="173" x="1231.5" y="1151.168">:buildingToUpdate: Building</text><rect fill="#E2E2F0" height="32.6211" rx="2.5" ry="2.5" style="stroke:#181818;stroke-width:0.5;" width="136" x="1425.5" y="36"/><text fill="#000000" font-family="sans-serif" font-size="14" lengthAdjust="spacing" textLength="122" x="1432.5" y="58.1074">:BuildingRepository</text><rect fill="#E2E2F0" height="32.6211" rx="2.5" ry="2.5" style="stroke:#181818;stroke-width:0.5;" width="136" x="1425.5" y="1129.0605"/><text fill="#000000" font-family="sans-serif" font-size="14" lengthAdjust="spacing" textLength="122" x="1432.5" y="1151.168">:BuildingRepository</text><rect fill="#E2E2F0" height="32.6211" rx="2.5" ry="2.5" style="stroke:#181818;stroke-width:0.5;" width="91" x="1571.5" y="36"/><text fill="#000000" font-family="sans-serif" font-size="14" lengthAdjust="spacing" textLength="77" x="1578.5" y="58.1074">BuildingMap</text><rect fill="#E2E2F0" height="32.6211" rx="2.5" ry="2.5" style="stroke:#181818;stroke-width:0.5;" width="91" x="1571.5" y="1129.0605"/><text fill="#000000" font-family="sans-serif" font-size="14" lengthAdjust="spacing" textLength="77" x="1578.5" y="1151.168">BuildingMap</text><text fill="#000000" font-family="sans-serif" font-size="14" lengthAdjust="spacing" textLength="61" x="1672.5" y="66.1074">Database</text><path d="M1688,15 C1688,5 1706,5 1706,5 C1706,5 1724,5 1724,15 L1724,41 C1724,51 1706,51 1706,51 C1706,51 1688,51 1688,41 L1688,15 " fill="#E2E2F0" style="stroke:#181818;stroke-width:1.5;"/><path d="M1688,15 C1688,25 1706,25 1706,25 C1706,25 1724,25 1724,15 " fill="none" style="stroke:#181818;stroke-width:1.5;"/><text fill="#000000" font-family="sans-serif" font-size="14" lengthAdjust="spacing" textLength="61" x="1672.5" y="1144.168">Database</text><path d="M1688,1157.6816 C1688,1147.6816 1706,1147.6816 1706,1147.6816 C1706,1147.6816 1724,1147.6816 1724,1157.6816 L1724,1183.6816 C1724,1193.6816 1706,1193.6816 1706,1193.6816 C1706,1193.6816 1688,1193.6816 1688,1183.6816 L1688,1157.6816 " fill="#E2E2F0" style="stroke:#181818;stroke-width:1.5;"/><path d="M1688,1157.6816 C1688,1167.6816 1706,1167.6816 1706,1167.6816 C1706,1167.6816 1724,1167.6816 1724,1157.6816 " fill="none" style="stroke:#181818;stroke-width:1.5;"/><rect fill="#FFFFFF" height="67.582" style="stroke:#181818;stroke-width:1.0;" width="10" x="70.5" y="79.6211"/><rect fill="#FFFFFF" height="964.8574" style="stroke:#181818;stroke-width:1.0;" width="10" x="243.5" y="147.2031"/><rect fill="#FFFFFF" height="339.2012" style="stroke:#181818;stroke-width:1.0;" width="10" x="551.5" y="267.0762"/><rect fill="#FFFFFF" height="822.6934" style="stroke:#181818;stroke-width:1.0;" width="10" x="761.5" y="298.3672"/><rect fill="#FFFFFF" height="31.291" style="stroke:#181818;stroke-width:1.0;" width="10" x="923.5" y="329.6582"/><rect fill="#FFFFFF" height="151.4551" style="stroke:#181818;stroke-width:1.0;" width="10" x="1040" y="392.2402"/><rect fill="#FFFFFF" height="378.6191" style="stroke:#181818;stroke-width:1.0;" width="10" x="1040" y="670.8594"/><rect fill="#FFFFFF" height="30" style="stroke:#181818;stroke-width:1.0;" width="10" x="1315" y="709.1504"/><rect fill="#FFFFFF" height="30" style="stroke:#181818;stroke-width:1.0;" width="10" x="1315" y="770.4414"/><rect fill="#FFFFFF" height="30" style="stroke:#181818;stroke-width:1.0;" width="10" x="1315" y="831.7324"/><rect fill="#FFFFFF" height="62.582" style="stroke:#181818;stroke-width:1.0;" width="10" x="1488.5" y="449.8223"/><rect fill="#FFFFFF" height="64.582" style="stroke:#181818;stroke-width:1.0;" width="10" x="1488.5" y="606.2773"/><rect fill="#FFFFFF" height="62.582" style="stroke:#181818;stroke-width:1.0;" width="10" x="1488.5" y="893.0234"/><rect fill="#FFFFFF" height="31.291" style="stroke:#181818;stroke-width:1.0;" width="10" x="1612" y="986.8965"/><line style="stroke:#181818;stroke-width:1.0;" x1="80.5" x2="122.5" y1="102.9121" y2="102.9121"/><line style="stroke:#181818;stroke-width:1.0;" x1="122.5" x2="122.5" y1="102.9121" y2="115.9121"/><line style="stroke:#181818;stroke-width:1.0;" x1="81.5" x2="122.5" y1="115.9121" y2="115.9121"/><polygon fill="#181818" points="91.5,111.9121,81.5,115.9121,91.5,119.9121,87.5,115.9121" style="stroke:#181818;stroke-width:1.0;"/><text fill="#000000" font-family="sans-serif" font-size="13" font-weight="bold" lengthAdjust="spacing" textLength="7" x="87.5" y="97.6494">1</text><text fill="#000000" font-family="sans-serif" font-size="13" lengthAdjust="spacing" textLength="69" x="98.5" y="97.6494">resetShow()</text><polygon fill="#181818" points="231.5,143.2031,241.5,147.2031,231.5,151.2031,235.5,147.2031" style="stroke:#181818;stroke-width:1.0;"/><line style="stroke:#181818;stroke-width:1.0;" x1="75.5" x2="237.5" y1="147.2031" y2="147.2031"/><text fill="#000000" font-family="sans-serif" font-size="13" font-weight="bold" lengthAdjust="spacing" textLength="7" x="82.5" y="141.9404">2</text><text fill="#000000" font-family="sans-serif" font-size="13" lengthAdjust="spacing" textLength="133" x="93.5" y="141.9404">showEditBuilding= true</text><line style="stroke:#181818;stroke-width:1.0;" x1="253.5" x2="295.5" y1="178.4941" y2="178.4941"/><line style="stroke:#181818;stroke-width:1.0;" x1="295.5" x2="295.5" y1="178.4941" y2="191.4941"/><line style="stroke:#181818;stroke-width:1.0;" x1="254.5" x2="295.5" y1="191.4941" y2="191.4941"/><polygon fill="#181818" points="264.5,187.4941,254.5,191.4941,264.5,195.4941,260.5,191.4941" style="stroke:#181818;stroke-width:1.0;"/><text fill="#000000" font-family="sans-serif" font-size="13" font-weight="bold" lengthAdjust="spacing" textLength="7" x="260.5" y="173.2314">3</text><text fill="#000000" font-family="sans-serif" font-size="13" lengthAdjust="spacing" textLength="93" x="271.5" y="173.2314">onSubmitForm()</text><line style="stroke:#181818;stroke-width:1.0;" x1="253.5" x2="295.5" y1="222.7852" y2="222.7852"/><line style="stroke:#181818;stroke-width:1.0;" x1="295.5" x2="295.5" y1="222.7852" y2="235.7852"/><line style="stroke:#181818;stroke-width:1.0;" x1="254.5" x2="295.5" y1="235.7852" y2="235.7852"/><polygon fill="#181818" points="264.5,231.7852,254.5,235.7852,264.5,239.7852,260.5,235.7852" style="stroke:#181818;stroke-width:1.0;"/><text fill="#000000" font-family="sans-serif" font-size="13" font-weight="bold" lengthAdjust="spacing" textLength="7" x="260.5" y="217.5225">4</text><text fill="#000000" font-family="sans-serif" font-size="13" lengthAdjust="spacing" textLength="78" x="271.5" y="217.5225">prepareData()</text><polygon fill="#181818" points="539.5,263.0762,549.5,267.0762,539.5,271.0762,543.5,267.0762" style="stroke:#181818;stroke-width:1.0;"/><line style="stroke:#181818;stroke-width:1.0;" x1="253.5" x2="545.5" y1="267.0762" y2="267.0762"/><text fill="#000000" font-family="sans-serif" font-size="13" font-weight="bold" lengthAdjust="spacing" textLength="7" x="260.5" y="261.8135">5</text><text fill="#000000" font-family="sans-serif" font-size="13" lengthAdjust="spacing" textLength="268" x="271.5" y="261.8135">PUT/PACH Building (id,name description,size)</text><polygon fill="#181818" points="749.5,294.3672,759.5,298.3672,749.5,302.3672,753.5,298.3672" style="stroke:#181818;stroke-width:1.0;"/><line style="stroke:#181818;stroke-width:1.0;" x1="561.5" x2="755.5" y1="298.3672" y2="298.3672"/><text fill="#000000" font-family="sans-serif" font-size="13" font-weight="bold" lengthAdjust="spacing" textLength="7" x="568.5" y="293.1045">6</text><text fill="#000000" font-family="sans-serif" font-size="13" lengthAdjust="spacing" textLength="170" x="579.5" y="293.1045">updateBuilding(req, res, next)</text><polygon fill="#181818" points="911.5,325.6582,921.5,329.6582,911.5,333.6582,915.5,329.6582" style="stroke:#181818;stroke-width:1.0;"/><line style="stroke:#181818;stroke-width:1.0;" x1="771.5" x2="917.5" y1="329.6582" y2="329.6582"/><text fill="#000000" font-family="sans-serif" font-size="13" font-weight="bold" lengthAdjust="spacing" textLength="7" x="778.5" y="324.3955">7</text><text fill="#000000" font-family="sans-serif" font-size="13" lengthAdjust="spacing" textLength="122" x="789.5" y="324.3955">buildingDTO=create()</text><polygon fill="#181818" points="782.5,356.9492,772.5,360.9492,782.5,364.9492,778.5,360.9492" style="stroke:#181818;stroke-width:1.0;"/><line style="stroke:#181818;stroke-width:1.0;stroke-dasharray:2.0,2.0;" x1="776.5" x2="927.5" y1="360.9492" y2="360.9492"/><text fill="#000000" font-family="sans-serif" font-size="13" font-weight="bold" lengthAdjust="spacing" textLength="7" x="788.5" y="355.6865">8</text><text fill="#000000" font-family="sans-serif" font-size="13" lengthAdjust="spacing" textLength="4" x="799.5" y="355.6865">&#160;</text><polygon fill="#181818" points="1028,388.2402,1038,392.2402,1028,396.2402,1032,392.2402" style="stroke:#181818;stroke-width:1.0;"/><line style="stroke:#181818;stroke-width:1.0;" x1="771.5" x2="1034" y1="392.2402" y2="392.2402"/><text fill="#000000" font-family="sans-serif" font-size="13" font-weight="bold" lengthAdjust="spacing" textLength="7" x="778.5" y="386.9775">9</text><text fill="#000000" font-family="sans-serif" font-size="13" lengthAdjust="spacing" textLength="163" x="789.5" y="386.9775">updateBuilding(buildingDTO)</text><path d="M156,407.2402 L217,407.2402 L217,416.5313 L207,426.5313 L156,426.5313 L156,407.2402 " fill="#EEEEEE" style="stroke:#000000;stroke-width:1.5;"/><rect fill="none" height="271.6191" style="stroke:#000000;stroke-width:1.5;" width="1593.5" x="156" y="407.2402"/><text fill="#000000" font-family="sans-serif" font-size="13" font-weight="bold" lengthAdjust="spacing" textLength="16" x="171" y="422.2686">alt</text><polygon fill="#181818" points="1476.5,445.8223,1486.5,449.8223,1476.5,453.8223,1480.5,449.8223" style="stroke:#181818;stroke-width:1.0;"/><line style="stroke:#181818;stroke-width:1.0;" x1="1050" x2="1482.5" y1="449.8223" y2="449.8223"/><text fill="#000000" font-family="sans-serif" font-size="13" font-weight="bold" lengthAdjust="spacing" textLength="14" x="1057" y="444.5596">10</text><text fill="#000000" font-family="sans-serif" font-size="13" lengthAdjust="spacing" textLength="138" x="1075" y="444.5596">findById(buildingDTO.id)</text><polygon fill="#181818" points="1694,477.1133,1704,481.1133,1694,485.1133,1698,481.1133" style="stroke:#181818;stroke-width:1.0;"/><line style="stroke:#181818;stroke-width:1.0;" x1="1498.5" x2="1700" y1="481.1133" y2="481.1133"/><text fill="#000000" font-family="sans-serif" font-size="13" font-weight="bold" lengthAdjust="spacing" textLength="14" x="1505.5" y="475.8506">11</text><text fill="#000000" font-family="sans-serif" font-size="13" lengthAdjust="spacing" textLength="77" x="1523.5" y="475.8506">read(building)</text><polygon fill="#181818" points="1061,508.4043,1051,512.4043,1061,516.4043,1057,512.4043" style="stroke:#181818;stroke-width:1.0;"/><line style="stroke:#181818;stroke-width:1.0;stroke-dasharray:2.0,2.0;" x1="1055" x2="1492.5" y1="512.4043" y2="512.4043"/><text fill="#000000" font-family="sans-serif" font-size="13" font-weight="bold" lengthAdjust="spacing" textLength="14" x="1067" y="507.1416">12</text><text fill="#000000" font-family="sans-serif" font-size="13" lengthAdjust="spacing" textLength="61" x="1085" y="507.1416">return(null)</text><polygon fill="#181818" points="782.5,539.6953,772.5,543.6953,782.5,547.6953,778.5,543.6953" style="stroke:#181818;stroke-width:1.0;"/><line style="stroke:#181818;stroke-width:1.0;stroke-dasharray:2.0,2.0;" x1="776.5" x2="1044" y1="543.6953" y2="543.6953"/><text fill="#000000" font-family="sans-serif" font-size="13" font-weight="bold" lengthAdjust="spacing" textLength="14" x="788.5" y="538.4326">13</text><text fill="#000000" font-family="sans-serif" font-size="13" lengthAdjust="spacing" textLength="149" x="806.5" y="538.4326">error ("building not found")</text><polygon fill="#181818" points="572.5,570.9863,562.5,574.9863,572.5,578.9863,568.5,574.9863" style="stroke:#181818;stroke-width:1.0;"/><line style="stroke:#181818;stroke-width:1.0;stroke-dasharray:2.0,2.0;" x1="566.5" x2="760.5" y1="574.9863" y2="574.9863"/><text fill="#000000" font-family="sans-serif" font-size="13" font-weight="bold" lengthAdjust="spacing" textLength="14" x="578.5" y="569.7236">14</text><text fill="#000000" font-family="sans-serif" font-size="13" lengthAdjust="spacing" textLength="149" x="596.5" y="569.7236">error ("building not found")</text><polygon fill="#181818" points="264.5,602.2773,254.5,606.2773,264.5,610.2773,260.5,606.2773" style="stroke:#181818;stroke-width:1.0;"/><line style="stroke:#181818;stroke-width:1.0;stroke-dasharray:2.0,2.0;" x1="258.5" x2="555.5" y1="606.2773" y2="606.2773"/><text fill="#000000" font-family="sans-serif" font-size="13" font-weight="bold" lengthAdjust="spacing" textLength="14" x="270.5" y="601.0146">15</text><text fill="#000000" font-family="sans-serif" font-size="13" lengthAdjust="spacing" textLength="149" x="288.5" y="601.0146">error ("building not found")</text><line style="stroke:#000000;stroke-width:1.0;stroke-dasharray:2.0,2.0;" x1="156" x2="1749.5" y1="615.2773" y2="615.2773"/><polygon fill="#181818" points="1694,635.5684,1704,639.5684,1694,643.5684,1698,639.5684" style="stroke:#181818;stroke-width:1.0;"/><line style="stroke:#181818;stroke-width:1.0;" x1="1498.5" x2="1700" y1="639.5684" y2="639.5684"/><text fill="#000000" font-family="sans-serif" font-size="13" font-weight="bold" lengthAdjust="spacing" textLength="14" x="1505.5" y="634.3057">16</text><text fill="#000000" font-family="sans-serif" font-size="13" lengthAdjust="spacing" textLength="77" x="1523.5" y="634.3057">read(building)</text><polygon fill="#181818" points="1061,666.8594,1051,670.8594,1061,674.8594,1057,670.8594" style="stroke:#181818;stroke-width:1.0;"/><line style="stroke:#181818;stroke-width:1.0;" x1="1055" x2="1492.5" y1="670.8594" y2="670.8594"/><text fill="#000000" font-family="sans-serif" font-size="13" font-weight="bold" lengthAdjust="spacing" textLength="14" x="1067" y="665.5967">17</text><text fill="#000000" font-family="sans-serif" font-size="13" lengthAdjust="spacing" textLength="159" x="1085" y="665.5967">buildingToUpdate = building</text><polygon fill="#181818" points="1303,705.1504,1313,709.1504,1303,713.1504,1307,709.1504" style="stroke:#181818;stroke-width:1.0;"/><line style="stroke:#181818;stroke-width:1.0;stroke-dasharray:2.0,2.0;" x1="1050" x2="1309" y1="709.1504" y2="709.1504"/><text fill="#000000" font-family="sans-serif" font-size="13" font-weight="bold" lengthAdjust="spacing" textLength="14" x="1057" y="703.8877">18</text><text fill="#000000" font-family="sans-serif" font-size="13" lengthAdjust="spacing" textLength="166" x="1075" y="703.8877">setName(buildingDTO.name)</text><polygon fill="#181818" points="1303,766.4414,1313,770.4414,1303,774.4414,1307,770.4414" style="stroke:#181818;stroke-width:1.0;"/><line style="stroke:#181818;stroke-width:1.0;stroke-dasharray:2.0,2.0;" x1="1050" x2="1309" y1="770.4414" y2="770.4414"/><text fill="#000000" font-family="sans-serif" font-size="13" font-weight="bold" lengthAdjust="spacing" textLength="14" x="1057" y="765.1787">19</text><text fill="#000000" font-family="sans-serif" font-size="13" lengthAdjust="spacing" textLength="228" x="1075" y="765.1787">setDescription(buildingDTO.description)</text><polygon fill="#181818" points="1303,827.7324,1313,831.7324,1303,835.7324,1307,831.7324" style="stroke:#181818;stroke-width:1.0;"/><line style="stroke:#181818;stroke-width:1.0;stroke-dasharray:2.0,2.0;" x1="1050" x2="1309" y1="831.7324" y2="831.7324"/><text fill="#000000" font-family="sans-serif" font-size="13" font-weight="bold" lengthAdjust="spacing" textLength="14" x="1057" y="826.4697">20</text><text fill="#000000" font-family="sans-serif" font-size="13" lengthAdjust="spacing" textLength="150" x="1075" y="826.4697">setSize(buildingDTO.size)</text><polygon fill="#181818" points="1476.5,889.0234,1486.5,893.0234,1476.5,897.0234,1480.5,893.0234" style="stroke:#181818;stroke-width:1.0;"/><line style="stroke:#181818;stroke-width:1.0;stroke-dasharray:2.0,2.0;" x1="1050" x2="1482.5" y1="893.0234" y2="893.0234"/><text fill="#000000" font-family="sans-serif" font-size="13" font-weight="bold" lengthAdjust="spacing" textLength="14" x="1057" y="887.7607">21</text><text fill="#000000" font-family="sans-serif" font-size="13" lengthAdjust="spacing" textLength="133" x="1075" y="887.7607">save(buildingToUpdate)</text><polygon fill="#181818" points="1694,920.3145,1704,924.3145,1694,928.3145,1698,924.3145" style="stroke:#181818;stroke-width:1.0;"/><line style="stroke:#181818;stroke-width:1.0;" x1="1498.5" x2="1700" y1="924.3145" y2="924.3145"/><text fill="#000000" font-family="sans-serif" font-size="13" font-weight="bold" lengthAdjust="spacing" textLength="14" x="1505.5" y="919.0518">22</text><text fill="#000000" font-family="sans-serif" font-size="13" lengthAdjust="spacing" textLength="106" x="1523.5" y="919.0518">writeData(building)</text><polygon fill="#181818" points="1061,951.6055,1051,955.6055,1061,959.6055,1057,955.6055" style="stroke:#181818;stroke-width:1.0;"/><line style="stroke:#181818;stroke-width:1.0;stroke-dasharray:2.0,2.0;" x1="1055" x2="1492.5" y1="955.6055" y2="955.6055"/><text fill="#000000" font-family="sans-serif" font-size="13" font-weight="bold" lengthAdjust="spacing" textLength="14" x="1067" y="950.3428">23</text><text fill="#000000" font-family="sans-serif" font-size="13" lengthAdjust="spacing" textLength="79" x="1085" y="950.3428">buildingSaved</text><polygon fill="#181818" points="1600,982.8965,1610,986.8965,1600,990.8965,1604,986.8965" style="stroke:#181818;stroke-width:1.0;"/><line style="stroke:#181818;stroke-width:1.0;stroke-dasharray:2.0,2.0;" x1="1050" x2="1606" y1="986.8965" y2="986.8965"/><text fill="#000000" font-family="sans-serif" font-size="13" font-weight="bold" lengthAdjust="spacing" textLength="14" x="1057" y="981.6338">24</text><text fill="#000000" font-family="sans-serif" font-size="13" lengthAdjust="spacing" textLength="124" x="1075" y="981.6338">toDTO(buildingSaved)</text><polygon fill="#181818" points="1061,1014.1875,1051,1018.1875,1061,1022.1875,1057,1018.1875" style="stroke:#181818;stroke-width:1.0;"/><line style="stroke:#181818;stroke-width:1.0;stroke-dasharray:2.0,2.0;" x1="1055" x2="1616" y1="1018.1875" y2="1018.1875"/><text fill="#000000" font-family="sans-serif" font-size="13" font-weight="bold" lengthAdjust="spacing" textLength="14" x="1067" y="1012.9248">25</text><text fill="#000000" font-family="sans-serif" font-size="13" lengthAdjust="spacing" textLength="113" x="1085" y="1012.9248">buildingSavedDTO :</text><polygon fill="#181818" points="782.5,1045.4785,772.5,1049.4785,782.5,1053.4785,778.5,1049.4785" style="stroke:#181818;stroke-width:1.0;"/><line style="stroke:#181818;stroke-width:1.0;stroke-dasharray:2.0,2.0;" x1="776.5" x2="1044" y1="1049.4785" y2="1049.4785"/><text fill="#000000" font-family="sans-serif" font-size="13" font-weight="bold" lengthAdjust="spacing" textLength="14" x="788.5" y="1044.2158">26</text><text fill="#000000" font-family="sans-serif" font-size="13" lengthAdjust="spacing" textLength="4" x="806.5" y="1044.2158">&#160;</text><polygon fill="#181818" points="567.5,1076.7695,557.5,1080.7695,567.5,1084.7695,563.5,1080.7695" style="stroke:#181818;stroke-width:1.0;"/><line style="stroke:#181818;stroke-width:1.0;stroke-dasharray:2.0,2.0;" x1="561.5" x2="760.5" y1="1080.7695" y2="1080.7695"/><text fill="#000000" font-family="sans-serif" font-size="13" font-weight="bold" lengthAdjust="spacing" textLength="14" x="573.5" y="1075.5068">27</text><text fill="#000000" font-family="sans-serif" font-size="13" lengthAdjust="spacing" textLength="4" x="591.5" y="1075.5068">&#160;</text><polygon fill="#181818" points="259.5,1108.0605,249.5,1112.0605,259.5,1116.0605,255.5,1112.0605" style="stroke:#181818;stroke-width:1.0;"/><line style="stroke:#181818;stroke-width:1.0;stroke-dasharray:2.0,2.0;" x1="253.5" x2="555.5" y1="1112.0605" y2="1112.0605"/><text fill="#000000" font-family="sans-serif" font-size="13" font-weight="bold" lengthAdjust="spacing" textLength="14" x="265.5" y="1106.7979">28</text><text fill="#000000" font-family="sans-serif" font-size="13" lengthAdjust="spacing" textLength="51" x="283.5" y="1106.7979">Success</text><!--SRC=[fLHDZzem4BtxLumu1OdTtYDHQVdO5edT8WAzctXsQodOgUEmtVxwZfsOE66XbNg0MFPxRyOpRynhgrLzFA1X9JTMvhBaoi8edTMo45AzplMnr0gL7G6lO3OVm9P2se-Xoza0kjMrnKPblVXoDPooHXS56e-SxxRhAyZ5xfk7qFSA8aDpadaJCbjklmzWXnQsq_jIS8if128qMUvNwyNg-LgcMonr9QqsxnwzNMu6UGJW4oz3eayF6qQX-85N28jsmHZFhJnH1gwyz8Exp-u_1OCLsko7Val6B1miPtHGqLvS-IbOKoC3WR7KUKsj89edfm1QPVNXAEsZDaSIZavAWtG3T8cvYCs9QnQ5tEntdpOFywzTaH8f9eeVaQ9MkP6bbLfDAlaRnz65NAUPbo0frqsIgdsvWqvYyEV4NNK22d_PYEoRxpd4fUgbSEXwFyqD4YY9yCu91crj58iAuNQ3Y7F1PGAHQgJc7SCBopo9oAx3H7wHIipULoActKiHCRqLFDhbtNRPTPDtf76RAJIVHDL5STv3OxI1P1J0eBI55rqhCHgpfeftNMTkebl5so0iUYxyj_m3eAqf3CS9fkSj5lV3g_UhZ4g0gpHhQ-tkrWwVCplQPx9PhzxETx7DmgZ60n3shcWkEjVsf2Ct_sU4Z6QX9pqSZbkQdMZZkugVEh5Gu_7Vk_Pcf6qc-i9wOICZQN7HeYw1zkMYIrbDowJ7wy-VU-0-bASpI0TZwS3d8CtR42EyDGPcRv-Iy0vcTPvZLSKiUkl-0000]--></g></svg>