<?xml version="1.0" encoding="us-ascii" standalone="no"?><svg xmlns="http://www.w3.org/2000/svg" xmlns:xlink="http://www.w3.org/1999/xlink" contentStyleType="text/css" height="760px" preserveAspectRatio="none" style="width:1627px;height:760px;background:#FFFFFF;" version="1.1" viewBox="0 0 1627 760" width="1627px" zoomAndPan="magnify"><defs/><g><rect fill="#FFFFFF" height="590.9473" style="stroke:#181818;stroke-width:1.0;" width="10" x="70.5" y="79.6211"/><rect fill="#FFFFFF" height="514.3652" style="stroke:#181818;stroke-width:1.0;" width="10" x="241.5" y="147.2031"/><rect fill="#FFFFFF" height="447.7832" style="stroke:#181818;stroke-width:1.0;" width="10" x="398.5" y="222.7852"/><rect fill="#FFFFFF" height="416.4922" style="stroke:#181818;stroke-width:1.0;" width="10" x="578.5" y="254.0762"/><rect fill="#FFFFFF" height="313.6191" style="stroke:#181818;stroke-width:1.0;" width="10" x="735.5" y="285.3672"/><rect fill="#FFFFFF" height="123.873" style="stroke:#181818;stroke-width:1.0;" width="10" x="1006" y="316.6582"/><rect fill="#FFFFFF" height="30" style="stroke:#181818;stroke-width:1.0;" width="10" x="1144.5" y="379.2402"/><rect fill="#FFFFFF" height="62.582" style="stroke:#181818;stroke-width:1.0;" width="10" x="1321.5" y="498.1133"/><rect fill="none" height="113.1641" style="stroke:#000000;stroke-width:1.5;" width="885.5" x="673" y="455.5313"/><line style="stroke:#181818;stroke-width:0.5;stroke-dasharray:5.0,5.0;" x1="75" x2="75" y1="69.6211" y2="679.5684"/><line style="stroke:#181818;stroke-width:0.5;stroke-dasharray:5.0,5.0;" x1="246" x2="246" y1="69.6211" y2="679.5684"/><line style="stroke:#181818;stroke-width:0.5;stroke-dasharray:5.0,5.0;" x1="403.5" x2="403.5" y1="69.6211" y2="679.5684"/><line style="stroke:#181818;stroke-width:0.5;stroke-dasharray:5.0,5.0;" x1="583.5" x2="583.5" y1="69.6211" y2="679.5684"/><line style="stroke:#181818;stroke-width:0.5;stroke-dasharray:5.0,5.0;" x1="740" x2="740" y1="69.6211" y2="679.5684"/><line style="stroke:#181818;stroke-width:0.5;stroke-dasharray:5.0,5.0;" x1="870" x2="870" y1="69.6211" y2="679.5684"/><line style="stroke:#181818;stroke-width:0.5;stroke-dasharray:5.0,5.0;" x1="1011" x2="1011" y1="69.6211" y2="679.5684"/><line style="stroke:#181818;stroke-width:0.5;stroke-dasharray:5.0,5.0;" x1="1149" x2="1149" y1="69.6211" y2="679.5684"/><line style="stroke:#181818;stroke-width:0.5;stroke-dasharray:5.0,5.0;" x1="1326" x2="1326" y1="69.6211" y2="679.5684"/><line style="stroke:#181818;stroke-width:0.5;stroke-dasharray:5.0,5.0;" x1="1499.5" x2="1499.5" y1="69.6211" y2="679.5684"/><line style="stroke:#181818;stroke-width:0.5;stroke-dasharray:5.0,5.0;" x1="1591.5" x2="1591.5" y1="69.6211" y2="679.5684"/><rect fill="#E2E2F0" height="32.6211" rx="2.5" ry="2.5" style="stroke:#181818;stroke-width:0.5;" width="141" x="5" y="36"/><text fill="#000000" font-family="sans-serif" font-size="14" lengthAdjust="spacing" textLength="127" x="12" y="58.1074">:BuildingComponent</text><rect fill="#E2E2F0" height="32.6211" rx="2.5" ry="2.5" style="stroke:#181818;stroke-width:0.5;" width="141" x="5" y="678.5684"/><text fill="#000000" font-family="sans-serif" font-size="14" lengthAdjust="spacing" textLength="127" x="12" y="700.6758">:BuildingComponent</text><rect fill="#E2E2F0" height="32.6211" rx="2.5" ry="2.5" style="stroke:#181818;stroke-width:0.5;" width="163" x="165" y="36"/><text fill="#000000" font-family="sans-serif" font-size="14" lengthAdjust="spacing" textLength="149" x="172" y="58.1074">:ListBuildingComponent</text><rect fill="#E2E2F0" height="32.6211" rx="2.5" ry="2.5" style="stroke:#181818;stroke-width:0.5;" width="163" x="165" y="678.5684"/><text fill="#000000" font-family="sans-serif" font-size="14" lengthAdjust="spacing" textLength="149" x="172" y="700.6758">:ListBuildingComponent</text><rect fill="#E2E2F0" height="32.6211" rx="2.5" ry="2.5" style="stroke:#181818;stroke-width:0.5;" width="68" x="369.5" y="36"/><text fill="#000000" font-family="sans-serif" font-size="14" lengthAdjust="spacing" textLength="54" x="376.5" y="58.1074">:Building</text><rect fill="#E2E2F0" height="32.6211" rx="2.5" ry="2.5" style="stroke:#181818;stroke-width:0.5;" width="68" x="369.5" y="678.5684"/><text fill="#000000" font-family="sans-serif" font-size="14" lengthAdjust="spacing" textLength="54" x="376.5" y="700.6758">:Building</text><rect fill="#E2E2F0" height="32.6211" rx="2.5" ry="2.5" style="stroke:#181818;stroke-width:0.5;" width="130" x="518.5" y="36"/><text fill="#000000" font-family="sans-serif" font-size="14" lengthAdjust="spacing" textLength="116" x="525.5" y="58.1074">:BuildingController</text><rect fill="#E2E2F0" height="32.6211" rx="2.5" ry="2.5" style="stroke:#181818;stroke-width:0.5;" width="130" x="518.5" y="678.5684"/><text fill="#000000" font-family="sans-serif" font-size="14" lengthAdjust="spacing" textLength="116" x="525.5" y="700.6758">:BuildingController</text><rect fill="#E2E2F0" height="32.6211" rx="2.5" ry="2.5" style="stroke:#181818;stroke-width:0.5;" width="115" x="683" y="36"/><text fill="#000000" font-family="sans-serif" font-size="14" lengthAdjust="spacing" textLength="101" x="690" y="58.1074">:BuildingService</text><rect fill="#E2E2F0" height="32.6211" rx="2.5" ry="2.5" style="stroke:#181818;stroke-width:0.5;" width="115" x="683" y="678.5684"/><text fill="#000000" font-family="sans-serif" font-size="14" lengthAdjust="spacing" textLength="101" x="690" y="700.6758">:BuildingService</text><rect fill="#E2E2F0" height="32.6211" rx="2.5" ry="2.5" style="stroke:#181818;stroke-width:0.5;" width="125" x="808" y="36"/><text fill="#000000" font-family="sans-serif" font-size="14" lengthAdjust="spacing" textLength="111" x="815" y="58.1074">:building: Building</text><rect fill="#E2E2F0" height="32.6211" rx="2.5" ry="2.5" style="stroke:#181818;stroke-width:0.5;" width="125" x="808" y="678.5684"/><text fill="#000000" font-family="sans-serif" font-size="14" lengthAdjust="spacing" textLength="111" x="815" y="700.6758">:building: Building</text><rect fill="#E2E2F0" height="32.6211" rx="2.5" ry="2.5" style="stroke:#181818;stroke-width:0.5;" width="136" x="943" y="36"/><text fill="#000000" font-family="sans-serif" font-size="14" lengthAdjust="spacing" textLength="122" x="950" y="58.1074">:BuildingRepository</text><rect fill="#E2E2F0" height="32.6211" rx="2.5" ry="2.5" style="stroke:#181818;stroke-width:0.5;" width="136" x="943" y="678.5684"/><text fill="#000000" font-family="sans-serif" font-size="14" lengthAdjust="spacing" textLength="122" x="950" y="700.6758">:BuildingRepository</text><rect fill="#E2E2F0" height="32.6211" rx="2.5" ry="2.5" style="stroke:#181818;stroke-width:0.5;" width="121" x="1089" y="36"/><text fill="#000000" font-family="sans-serif" font-size="14" lengthAdjust="spacing" textLength="107" x="1096" y="58.1074">list: List&lt;TEntity&gt;</text><rect fill="#E2E2F0" height="32.6211" rx="2.5" ry="2.5" style="stroke:#181818;stroke-width:0.5;" width="121" x="1089" y="678.5684"/><text fill="#000000" font-family="sans-serif" font-size="14" lengthAdjust="spacing" textLength="107" x="1096" y="700.6758">list: List&lt;TEntity&gt;</text><rect fill="#E2E2F0" height="32.6211" rx="2.5" ry="2.5" style="stroke:#181818;stroke-width:0.5;" width="213" x="1220" y="36"/><text fill="#000000" font-family="sans-serif" font-size="14" lengthAdjust="spacing" textLength="199" x="1227" y="58.1074">BuildingMap : List&lt;BuildingDto&gt;</text><rect fill="#E2E2F0" height="32.6211" rx="2.5" ry="2.5" style="stroke:#181818;stroke-width:0.5;" width="213" x="1220" y="678.5684"/><text fill="#000000" font-family="sans-serif" font-size="14" lengthAdjust="spacing" textLength="199" x="1227" y="700.6758">BuildingMap : List&lt;BuildingDto&gt;</text><rect fill="#E2E2F0" height="32.6211" rx="2.5" ry="2.5" style="stroke:#181818;stroke-width:0.5;" width="98" x="1450.5" y="36"/><text fill="#000000" font-family="sans-serif" font-size="14" lengthAdjust="spacing" textLength="84" x="1457.5" y="58.1074">:BuildingDTO</text><rect fill="#E2E2F0" height="32.6211" rx="2.5" ry="2.5" style="stroke:#181818;stroke-width:0.5;" width="98" x="1450.5" y="678.5684"/><text fill="#000000" font-family="sans-serif" font-size="14" lengthAdjust="spacing" textLength="84" x="1457.5" y="700.6758">:BuildingDTO</text><text fill="#000000" font-family="sans-serif" font-size="14" lengthAdjust="spacing" textLength="61" x="1558.5" y="66.1074">Database</text><path d="M1574,15 C1574,5 1592,5 1592,5 C1592,5 1610,5 1610,15 L1610,41 C1610,51 1592,51 1592,51 C1592,51 1574,51 1574,41 L1574,15 " fill="#E2E2F0" style="stroke:#181818;stroke-width:1.5;"/><path d="M1574,15 C1574,25 1592,25 1592,25 C1592,25 1610,25 1610,15 " fill="none" style="stroke:#181818;stroke-width:1.5;"/><text fill="#000000" font-family="sans-serif" font-size="14" lengthAdjust="spacing" textLength="61" x="1558.5" y="693.6758">Database</text><path d="M1574,707.1895 C1574,697.1895 1592,697.1895 1592,697.1895 C1592,697.1895 1610,697.1895 1610,707.1895 L1610,733.1895 C1610,743.1895 1592,743.1895 1592,743.1895 C1592,743.1895 1574,743.1895 1574,733.1895 L1574,707.1895 " fill="#E2E2F0" style="stroke:#181818;stroke-width:1.5;"/><path d="M1574,707.1895 C1574,717.1895 1592,717.1895 1592,717.1895 C1592,717.1895 1610,717.1895 1610,707.1895 " fill="none" style="stroke:#181818;stroke-width:1.5;"/><rect fill="#FFFFFF" height="590.9473" style="stroke:#181818;stroke-width:1.0;" width="10" x="70.5" y="79.6211"/><rect fill="#FFFFFF" height="514.3652" style="stroke:#181818;stroke-width:1.0;" width="10" x="241.5" y="147.2031"/><rect fill="#FFFFFF" height="447.7832" style="stroke:#181818;stroke-width:1.0;" width="10" x="398.5" y="222.7852"/><rect fill="#FFFFFF" height="416.4922" style="stroke:#181818;stroke-width:1.0;" width="10" x="578.5" y="254.0762"/><rect fill="#FFFFFF" height="313.6191" style="stroke:#181818;stroke-width:1.0;" width="10" x="735.5" y="285.3672"/><rect fill="#FFFFFF" height="123.873" style="stroke:#181818;stroke-width:1.0;" width="10" x="1006" y="316.6582"/><rect fill="#FFFFFF" height="30" style="stroke:#181818;stroke-width:1.0;" width="10" x="1144.5" y="379.2402"/><rect fill="#FFFFFF" height="62.582" style="stroke:#181818;stroke-width:1.0;" width="10" x="1321.5" y="498.1133"/><line style="stroke:#181818;stroke-width:1.0;" x1="80.5" x2="122.5" y1="102.9121" y2="102.9121"/><line style="stroke:#181818;stroke-width:1.0;" x1="122.5" x2="122.5" y1="102.9121" y2="115.9121"/><line style="stroke:#181818;stroke-width:1.0;" x1="81.5" x2="122.5" y1="115.9121" y2="115.9121"/><polygon fill="#181818" points="91.5,111.9121,81.5,115.9121,91.5,119.9121,87.5,115.9121" style="stroke:#181818;stroke-width:1.0;"/><text fill="#000000" font-family="sans-serif" font-size="13" font-weight="bold" lengthAdjust="spacing" textLength="7" x="87.5" y="97.6494">1</text><text fill="#000000" font-family="sans-serif" font-size="13" lengthAdjust="spacing" textLength="69" x="98.5" y="97.6494">resetShow()</text><polygon fill="#181818" points="229.5,143.2031,239.5,147.2031,229.5,151.2031,233.5,147.2031" style="stroke:#181818;stroke-width:1.0;"/><line style="stroke:#181818;stroke-width:1.0;" x1="80.5" x2="235.5" y1="147.2031" y2="147.2031"/><text fill="#000000" font-family="sans-serif" font-size="13" font-weight="bold" lengthAdjust="spacing" textLength="7" x="87.5" y="141.9404">2</text><text fill="#000000" font-family="sans-serif" font-size="13" lengthAdjust="spacing" textLength="131" x="98.5" y="141.9404">showListBuilding= true</text><line style="stroke:#181818;stroke-width:1.0;" x1="251.5" x2="293.5" y1="178.4941" y2="178.4941"/><line style="stroke:#181818;stroke-width:1.0;" x1="293.5" x2="293.5" y1="178.4941" y2="191.4941"/><line style="stroke:#181818;stroke-width:1.0;" x1="252.5" x2="293.5" y1="191.4941" y2="191.4941"/><polygon fill="#181818" points="262.5,187.4941,252.5,191.4941,262.5,195.4941,258.5,191.4941" style="stroke:#181818;stroke-width:1.0;"/><text fill="#000000" font-family="sans-serif" font-size="13" font-weight="bold" lengthAdjust="spacing" textLength="7" x="258.5" y="173.2314">3</text><text fill="#000000" font-family="sans-serif" font-size="13" lengthAdjust="spacing" textLength="103" x="269.5" y="173.2314">fetchBuildingList()</text><polygon fill="#181818" points="386.5,218.7852,396.5,222.7852,386.5,226.7852,390.5,222.7852" style="stroke:#181818;stroke-width:1.0;"/><line style="stroke:#181818;stroke-width:1.0;" x1="251.5" x2="392.5" y1="222.7852" y2="222.7852"/><text fill="#000000" font-family="sans-serif" font-size="13" font-weight="bold" lengthAdjust="spacing" textLength="7" x="258.5" y="217.5225">4</text><text fill="#000000" font-family="sans-serif" font-size="13" lengthAdjust="spacing" textLength="77" x="269.5" y="217.5225">GET edificios</text><polygon fill="#181818" points="566.5,250.0762,576.5,254.0762,566.5,258.0762,570.5,254.0762" style="stroke:#181818;stroke-width:1.0;"/><line style="stroke:#181818;stroke-width:1.0;" x1="408.5" x2="572.5" y1="254.0762" y2="254.0762"/><text fill="#000000" font-family="sans-serif" font-size="13" font-weight="bold" lengthAdjust="spacing" textLength="7" x="415.5" y="248.8135">5</text><text fill="#000000" font-family="sans-serif" font-size="13" lengthAdjust="spacing" textLength="140" x="426.5" y="248.8135">listBuilding(req,res,next)</text><polygon fill="#181818" points="723.5,281.3672,733.5,285.3672,723.5,289.3672,727.5,285.3672" style="stroke:#181818;stroke-width:1.0;"/><line style="stroke:#181818;stroke-width:1.0;" x1="588.5" x2="729.5" y1="285.3672" y2="285.3672"/><text fill="#000000" font-family="sans-serif" font-size="13" font-weight="bold" lengthAdjust="spacing" textLength="7" x="595.5" y="280.1045">6</text><text fill="#000000" font-family="sans-serif" font-size="13" lengthAdjust="spacing" textLength="75" x="606.5" y="280.1045">ListBuilding()</text><polygon fill="#181818" points="994,312.6582,1004,316.6582,994,320.6582,998,316.6582" style="stroke:#181818;stroke-width:1.0;"/><line style="stroke:#181818;stroke-width:1.0;" x1="745.5" x2="1000" y1="316.6582" y2="316.6582"/><text fill="#000000" font-family="sans-serif" font-size="13" font-weight="bold" lengthAdjust="spacing" textLength="7" x="752.5" y="311.3955">7</text><text fill="#000000" font-family="sans-serif" font-size="13" lengthAdjust="spacing" textLength="197" x="763.5" y="311.3955">findBuildingsByBuilding(buildingId)</text><polygon fill="#181818" points="1580,343.9492,1590,347.9492,1580,351.9492,1584,347.9492" style="stroke:#181818;stroke-width:1.0;"/><line style="stroke:#181818;stroke-width:1.0;" x1="1016" x2="1586" y1="347.9492" y2="347.9492"/><text fill="#000000" font-family="sans-serif" font-size="13" font-weight="bold" lengthAdjust="spacing" textLength="7" x="1023" y="342.6865">8</text><text fill="#000000" font-family="sans-serif" font-size="13" lengthAdjust="spacing" textLength="82" x="1034" y="342.6865">Read(building)</text><polygon fill="#181818" points="1132.5,375.2402,1142.5,379.2402,1132.5,383.2402,1136.5,379.2402" style="stroke:#181818;stroke-width:1.0;"/><line style="stroke:#181818;stroke-width:1.0;stroke-dasharray:2.0,2.0;" x1="1016" x2="1138.5" y1="379.2402" y2="379.2402"/><text fill="#000000" font-family="sans-serif" font-size="13" font-weight="bold" lengthAdjust="spacing" textLength="7" x="1023" y="373.9775">9</text><text fill="#000000" font-family="sans-serif" font-size="13" lengthAdjust="spacing" textLength="44" x="1034" y="373.9775">create()</text><polygon fill="#181818" points="756.5,436.5313,746.5,440.5313,756.5,444.5313,752.5,440.5313" style="stroke:#181818;stroke-width:1.0;"/><line style="stroke:#181818;stroke-width:1.0;stroke-dasharray:2.0,2.0;" x1="750.5" x2="1010" y1="440.5313" y2="440.5313"/><text fill="#000000" font-family="sans-serif" font-size="13" font-weight="bold" lengthAdjust="spacing" textLength="14" x="762.5" y="435.2686">10</text><text fill="#000000" font-family="sans-serif" font-size="13" lengthAdjust="spacing" textLength="17" x="780.5" y="435.2686">list</text><path d="M673,455.5313 L746,455.5313 L746,464.8223 L736,474.8223 L673,474.8223 L673,455.5313 " fill="#EEEEEE" style="stroke:#000000;stroke-width:1.5;"/><rect fill="none" height="113.1641" style="stroke:#000000;stroke-width:1.5;" width="885.5" x="673" y="455.5313"/><text fill="#000000" font-family="sans-serif" font-size="13" font-weight="bold" lengthAdjust="spacing" textLength="28" x="688" y="470.5596">loop</text><polygon fill="#181818" points="1309.5,494.1133,1319.5,498.1133,1309.5,502.1133,1313.5,498.1133" style="stroke:#181818;stroke-width:1.0;"/><line style="stroke:#181818;stroke-width:1.0;stroke-dasharray:2.0,2.0;" x1="745.5" x2="1315.5" y1="498.1133" y2="498.1133"/><text fill="#000000" font-family="sans-serif" font-size="13" font-weight="bold" lengthAdjust="spacing" textLength="14" x="752.5" y="492.8506">11</text><text fill="#000000" font-family="sans-serif" font-size="13" lengthAdjust="spacing" textLength="89" x="770.5" y="492.8506">toDTO(building)</text><polygon fill="#181818" points="1487.5,525.4043,1497.5,529.4043,1487.5,533.4043,1491.5,529.4043" style="stroke:#181818;stroke-width:1.0;"/><line style="stroke:#181818;stroke-width:1.0;stroke-dasharray:2.0,2.0;" x1="1331.5" x2="1493.5" y1="529.4043" y2="529.4043"/><text fill="#000000" font-family="sans-serif" font-size="13" font-weight="bold" lengthAdjust="spacing" textLength="14" x="1338.5" y="524.1416">12</text><text fill="#000000" font-family="sans-serif" font-size="13" lengthAdjust="spacing" textLength="126" x="1356.5" y="524.1416">BuildingDTO=Create()</text><polygon fill="#181818" points="756.5,556.6953,746.5,560.6953,756.5,564.6953,752.5,560.6953" style="stroke:#181818;stroke-width:1.0;"/><line style="stroke:#181818;stroke-width:1.0;stroke-dasharray:2.0,2.0;" x1="750.5" x2="1325.5" y1="560.6953" y2="560.6953"/><text fill="#000000" font-family="sans-serif" font-size="13" font-weight="bold" lengthAdjust="spacing" textLength="14" x="762.5" y="555.4326">13</text><text fill="#000000" font-family="sans-serif" font-size="13" lengthAdjust="spacing" textLength="70" x="780.5" y="555.4326">buildingDTO</text><polygon fill="#181818" points="599.5,594.9863,589.5,598.9863,599.5,602.9863,595.5,598.9863" style="stroke:#181818;stroke-width:1.0;"/><line style="stroke:#181818;stroke-width:1.0;stroke-dasharray:2.0,2.0;" x1="593.5" x2="739.5" y1="598.9863" y2="598.9863"/><text fill="#000000" font-family="sans-serif" font-size="13" font-weight="bold" lengthAdjust="spacing" textLength="14" x="605.5" y="593.7236">14</text><text fill="#000000" font-family="sans-serif" font-size="13" lengthAdjust="spacing" textLength="105" x="623.5" y="593.7236">list&lt;BuildingDTO&gt;</text><polygon fill="#181818" points="419.5,626.2773,409.5,630.2773,419.5,634.2773,415.5,630.2773" style="stroke:#181818;stroke-width:1.0;"/><line style="stroke:#181818;stroke-width:1.0;stroke-dasharray:2.0,2.0;" x1="413.5" x2="577.5" y1="630.2773" y2="630.2773"/><text fill="#000000" font-family="sans-serif" font-size="13" font-weight="bold" lengthAdjust="spacing" textLength="14" x="425.5" y="625.0146">15</text><text fill="#000000" font-family="sans-serif" font-size="13" lengthAdjust="spacing" textLength="105" x="443.5" y="625.0146">list&lt;BuildingDTO&gt;</text><polygon fill="#181818" points="257.5,657.5684,247.5,661.5684,257.5,665.5684,253.5,661.5684" style="stroke:#181818;stroke-width:1.0;"/><line style="stroke:#181818;stroke-width:1.0;stroke-dasharray:2.0,2.0;" x1="251.5" x2="397.5" y1="661.5684" y2="661.5684"/><text fill="#000000" font-family="sans-serif" font-size="13" font-weight="bold" lengthAdjust="spacing" textLength="14" x="263.5" y="656.3057">16</text><text fill="#000000" font-family="sans-serif" font-size="13" lengthAdjust="spacing" textLength="105" x="281.5" y="656.3057">list&lt;BuildingDTO&gt;</text><!--SRC=[VPBTRgCm48NlUGghLudKlW1g8oqGLP7eZmZjlGEJhILgisRIRjw-uy4Efbts2cE-CtE6C_A4Hf_U3s2Jf9SMLQDwgL5SfTb9TQtIltFptXiD6g-474IMVyDADU2_qJ9Rg3WMAelxnOuQhUawi4pcTLKka7km7we1nlRRwlKRTl1OAkQjNtPbiNjSQbz1RmQ5nfwPhhRFJtEoev5JuGQ_hRSQ5Putuy2xVJqdGya7sGkl25S5cb5Lr4yFlvuNlD3702MjH7cG0uZ27v94DgW-98AB9Sl5pOOErCZ20BX_Cv-hTUBloupk1xgAyxeJQ4ymLQ74Y6Cw5U88sBm5rCceslZPPKVbxhUrW5OToROP8YykMKO8TU4HsaLTLnR-N9F5Qmr_SJtfE6VcIUVI5BFbMaKePyq8eIuWQd5KkWtia9qlih04kpOgmA6oa0g4_vcA2cHx4QmzuFu79PkAnW9fOn-SU0lpzujgd85dZo7ktHdJ-mcS0zu1Oj7GCN9m4Vaj6HyaeOEOrfhUxlBWpXUB71mcB3RYQu9k1Tj99aDHRBTHaqqivn36lAQT-AaODo6iu7yhqlvz0G00]--></g></svg>