<?xml version="1.0" encoding="UTF-8" standalone="no"?><svg xmlns="http://www.w3.org/2000/svg" xmlns:xlink="http://www.w3.org/1999/xlink" contentStyleType="text/css" height="779px" preserveAspectRatio="none" style="width:2268px;height:779px;background:#FFFFFF;" version="1.1" viewBox="0 0 2268 779" width="2268px" zoomAndPan="magnify"><defs/><g><rect fill="#FFFFFF" height="641.6797" style="stroke:#181818;stroke-width:1.0;" width="10" x="32" y="65.2188"/><rect fill="#FFFFFF" height="619.3281" style="stroke:#181818;stroke-width:1.0;" width="10" x="311" y="87.5703"/><rect fill="#FFFFFF" height="558.625" style="stroke:#181818;stroke-width:1.0;" width="10" x="560" y="117.9219"/><rect fill="#FFFFFF" height="497.9219" style="stroke:#181818;stroke-width:1.0;" width="10" x="839" y="148.2734"/><rect fill="#FFFFFF" height="437.2188" style="stroke:#181818;stroke-width:1.0;" width="10" x="1088" y="178.625"/><rect fill="#FFFFFF" height="376.5156" style="stroke:#181818;stroke-width:1.0;" width="10" x="1409" y="208.9766"/><rect fill="#FFFFFF" height="30.3516" style="stroke:#181818;stroke-width:1.0;" width="10" x="1617" y="524.7891"/><rect fill="#FFFFFF" height="211.7578" style="stroke:#181818;stroke-width:1.0;" width="10" x="1866.5" y="282.6797"/><rect fill="#FFFFFF" height="30" style="stroke:#181818;stroke-width:1.0;" width="10" x="1987" y="313.0313"/><rect fill="#FFFFFF" height="30.3516" style="stroke:#181818;stroke-width:1.0;" width="10" x="2087" y="373.3828"/><rect fill="#FFFFFF" height="30" style="stroke:#181818;stroke-width:1.0;" width="10" x="2196.5" y="434.0859"/><line style="stroke:#181818;stroke-width:0.5;stroke-dasharray:5.0,5.0;" x1="37" x2="37" y1="55.2188" y2="724.8984"/><line style="stroke:#181818;stroke-width:0.5;stroke-dasharray:5.0,5.0;" x1="315.5" x2="315.5" y1="55.2188" y2="724.8984"/><line style="stroke:#181818;stroke-width:0.5;stroke-dasharray:5.0,5.0;" x1="564.5" x2="564.5" y1="55.2188" y2="724.8984"/><line style="stroke:#181818;stroke-width:0.5;stroke-dasharray:5.0,5.0;" x1="843.5" x2="843.5" y1="55.2188" y2="724.8984"/><line style="stroke:#181818;stroke-width:0.5;stroke-dasharray:5.0,5.0;" x1="1092.5" x2="1092.5" y1="55.2188" y2="724.8984"/><line style="stroke:#181818;stroke-width:0.5;stroke-dasharray:5.0,5.0;" x1="1414" x2="1414" y1="55.2188" y2="724.8984"/><line style="stroke:#181818;stroke-width:0.5;stroke-dasharray:5.0,5.0;" x1="1622" x2="1622" y1="55.2188" y2="724.8984"/><line style="stroke:#181818;stroke-width:0.5;stroke-dasharray:5.0,5.0;" x1="1758" x2="1758" y1="55.2188" y2="724.8984"/><line style="stroke:#181818;stroke-width:0.5;stroke-dasharray:5.0,5.0;" x1="1871" x2="1871" y1="55.2188" y2="724.8984"/><line style="stroke:#181818;stroke-width:0.5;stroke-dasharray:5.0,5.0;" x1="1992" x2="1992" y1="55.2188" y2="724.8984"/><line style="stroke:#181818;stroke-width:0.5;stroke-dasharray:5.0,5.0;" x1="2092" x2="2092" y1="55.2188" y2="724.8984"/><line style="stroke:#181818;stroke-width:0.5;stroke-dasharray:5.0,5.0;" x1="2201" x2="2201" y1="55.2188" y2="724.8984"/><rect fill="#E2E2F0" height="31.6094" rx="2.5" ry="2.5" style="stroke:#181818;stroke-width:0.5;" width="64" x="5" y="22.6094"/><text fill="#000000" font-family="sans-serif" font-size="14" lengthAdjust="spacing" textLength="50" x="12" y="44.1426">:System</text><rect fill="#E2E2F0" height="31.6094" rx="2.5" ry="2.5" style="stroke:#181818;stroke-width:0.5;" width="64" x="5" y="723.8984"/><text fill="#000000" font-family="sans-serif" font-size="14" lengthAdjust="spacing" textLength="50" x="12" y="745.4316">:System</text><rect fill="#E2E2F0" height="49.2188" rx="2.5" ry="2.5" style="stroke:#181818;stroke-width:0.5;" width="243" x="194.5" y="5"/><text fill="#000000" font-family="sans-serif" font-size="14" lengthAdjust="spacing" textLength="229" x="201.5" y="26.5332">:ListBuildingMinMaxFloorComponent</text><text fill="#000000" font-family="sans-serif" font-size="14" lengthAdjust="spacing" textLength="59" x="286.5" y="44.1426">(Angular)</text><rect fill="#E2E2F0" height="49.2188" rx="2.5" ry="2.5" style="stroke:#181818;stroke-width:0.5;" width="243" x="194.5" y="723.8984"/><text fill="#000000" font-family="sans-serif" font-size="14" lengthAdjust="spacing" textLength="229" x="201.5" y="745.4316">:ListBuildingMinMaxFloorComponent</text><text fill="#000000" font-family="sans-serif" font-size="14" lengthAdjust="spacing" textLength="59" x="286.5" y="763.041">(Angular)</text><rect fill="#E2E2F0" height="31.6094" rx="2.5" ry="2.5" style="stroke:#181818;stroke-width:0.5;" width="161" x="484.5" y="22.6094"/><text fill="#000000" font-family="sans-serif" font-size="14" lengthAdjust="spacing" textLength="147" x="491.5" y="44.1426">:FloorService (Angular)</text><rect fill="#E2E2F0" height="31.6094" rx="2.5" ry="2.5" style="stroke:#181818;stroke-width:0.5;" width="161" x="484.5" y="723.8984"/><text fill="#000000" font-family="sans-serif" font-size="14" lengthAdjust="spacing" textLength="147" x="491.5" y="745.4316">:FloorService (Angular)</text><rect fill="#E2E2F0" height="31.6094" rx="2.5" ry="2.5" style="stroke:#181818;stroke-width:0.5;" width="89" x="799.5" y="22.6094"/><text fill="#000000" font-family="sans-serif" font-size="14" lengthAdjust="spacing" textLength="75" x="806.5" y="44.1426">:FloorRoute</text><rect fill="#E2E2F0" height="31.6094" rx="2.5" ry="2.5" style="stroke:#181818;stroke-width:0.5;" width="89" x="799.5" y="723.8984"/><text fill="#000000" font-family="sans-serif" font-size="14" lengthAdjust="spacing" textLength="75" x="806.5" y="745.4316">:FloorRoute</text><rect fill="#E2E2F0" height="31.6094" rx="2.5" ry="2.5" style="stroke:#181818;stroke-width:0.5;" width="113" x="1036.5" y="22.6094"/><text fill="#000000" font-family="sans-serif" font-size="14" lengthAdjust="spacing" textLength="99" x="1043.5" y="44.1426">:FloorController</text><rect fill="#E2E2F0" height="31.6094" rx="2.5" ry="2.5" style="stroke:#181818;stroke-width:0.5;" width="113" x="1036.5" y="723.8984"/><text fill="#000000" font-family="sans-serif" font-size="14" lengthAdjust="spacing" textLength="99" x="1043.5" y="745.4316">:FloorController</text><rect fill="#E2E2F0" height="31.6094" rx="2.5" ry="2.5" style="stroke:#181818;stroke-width:0.5;" width="98" x="1365" y="22.6094"/><text fill="#000000" font-family="sans-serif" font-size="14" lengthAdjust="spacing" textLength="84" x="1372" y="44.1426">:FloorService</text><rect fill="#E2E2F0" height="31.6094" rx="2.5" ry="2.5" style="stroke:#181818;stroke-width:0.5;" width="98" x="1365" y="723.8984"/><text fill="#000000" font-family="sans-serif" font-size="14" lengthAdjust="spacing" textLength="84" x="1372" y="745.4316">:FloorService</text><rect fill="#E2E2F0" height="31.6094" rx="2.5" ry="2.5" style="stroke:#181818;stroke-width:0.5;" width="166" x="1539" y="22.6094"/><text fill="#000000" font-family="sans-serif" font-size="14" lengthAdjust="spacing" textLength="152" x="1546" y="44.1426">listDTO : List&lt;FloorDto&gt;</text><rect fill="#E2E2F0" height="31.6094" rx="2.5" ry="2.5" style="stroke:#181818;stroke-width:0.5;" width="166" x="1539" y="723.8984"/><text fill="#000000" font-family="sans-serif" font-size="14" lengthAdjust="spacing" textLength="152" x="1546" y="745.4316">listDTO : List&lt;FloorDto&gt;</text><rect fill="#E2E2F0" height="31.6094" rx="2.5" ry="2.5" style="stroke:#181818;stroke-width:0.5;" width="87" x="1715" y="22.6094"/><text fill="#000000" font-family="sans-serif" font-size="14" lengthAdjust="spacing" textLength="73" x="1722" y="44.1426">:floor: Floor</text><rect fill="#E2E2F0" height="31.6094" rx="2.5" ry="2.5" style="stroke:#181818;stroke-width:0.5;" width="87" x="1715" y="723.8984"/><text fill="#000000" font-family="sans-serif" font-size="14" lengthAdjust="spacing" textLength="73" x="1722" y="745.4316">:floor: Floor</text><rect fill="#E2E2F0" height="31.6094" rx="2.5" ry="2.5" style="stroke:#181818;stroke-width:0.5;" width="119" x="1812" y="22.6094"/><text fill="#000000" font-family="sans-serif" font-size="14" lengthAdjust="spacing" textLength="105" x="1819" y="44.1426">:FloorRepository</text><rect fill="#E2E2F0" height="31.6094" rx="2.5" ry="2.5" style="stroke:#181818;stroke-width:0.5;" width="119" x="1812" y="723.8984"/><text fill="#000000" font-family="sans-serif" font-size="14" lengthAdjust="spacing" textLength="105" x="1819" y="745.4316">:FloorRepository</text><rect fill="#E2E2F0" height="31.6094" rx="2.5" ry="2.5" style="stroke:#181818;stroke-width:0.5;" width="102" x="1941" y="22.6094"/><text fill="#000000" font-family="sans-serif" font-size="14" lengthAdjust="spacing" textLength="88" x="1948" y="44.1426">:FloorSchema</text><rect fill="#E2E2F0" height="31.6094" rx="2.5" ry="2.5" style="stroke:#181818;stroke-width:0.5;" width="102" x="1941" y="723.8984"/><text fill="#000000" font-family="sans-serif" font-size="14" lengthAdjust="spacing" textLength="88" x="1948" y="745.4316">:FloorSchema</text><rect fill="#E2E2F0" height="31.6094" rx="2.5" ry="2.5" style="stroke:#181818;stroke-width:0.5;" width="78" x="2053" y="22.6094"/><text fill="#000000" font-family="sans-serif" font-size="14" lengthAdjust="spacing" textLength="64" x="2060" y="44.1426">:FloorMap</text><rect fill="#E2E2F0" height="31.6094" rx="2.5" ry="2.5" style="stroke:#181818;stroke-width:0.5;" width="78" x="2053" y="723.8984"/><text fill="#000000" font-family="sans-serif" font-size="14" lengthAdjust="spacing" textLength="64" x="2060" y="745.4316">:FloorMap</text><rect fill="#E2E2F0" height="31.6094" rx="2.5" ry="2.5" style="stroke:#181818;stroke-width:0.5;" width="121" x="2141" y="22.6094"/><text fill="#000000" font-family="sans-serif" font-size="14" lengthAdjust="spacing" textLength="107" x="2148" y="44.1426">list: List&lt;TEntity&gt;</text><rect fill="#E2E2F0" height="31.6094" rx="2.5" ry="2.5" style="stroke:#181818;stroke-width:0.5;" width="121" x="2141" y="723.8984"/><text fill="#000000" font-family="sans-serif" font-size="14" lengthAdjust="spacing" textLength="107" x="2148" y="745.4316">list: List&lt;TEntity&gt;</text><rect fill="#FFFFFF" height="641.6797" style="stroke:#181818;stroke-width:1.0;" width="10" x="32" y="65.2188"/><rect fill="#FFFFFF" height="619.3281" style="stroke:#181818;stroke-width:1.0;" width="10" x="311" y="87.5703"/><rect fill="#FFFFFF" height="558.625" style="stroke:#181818;stroke-width:1.0;" width="10" x="560" y="117.9219"/><rect fill="#FFFFFF" height="497.9219" style="stroke:#181818;stroke-width:1.0;" width="10" x="839" y="148.2734"/><rect fill="#FFFFFF" height="437.2188" style="stroke:#181818;stroke-width:1.0;" width="10" x="1088" y="178.625"/><rect fill="#FFFFFF" height="376.5156" style="stroke:#181818;stroke-width:1.0;" width="10" x="1409" y="208.9766"/><rect fill="#FFFFFF" height="30.3516" style="stroke:#181818;stroke-width:1.0;" width="10" x="1617" y="524.7891"/><rect fill="#FFFFFF" height="211.7578" style="stroke:#181818;stroke-width:1.0;" width="10" x="1866.5" y="282.6797"/><rect fill="#FFFFFF" height="30" style="stroke:#181818;stroke-width:1.0;" width="10" x="1987" y="313.0313"/><rect fill="#FFFFFF" height="30.3516" style="stroke:#181818;stroke-width:1.0;" width="10" x="2087" y="373.3828"/><rect fill="#FFFFFF" height="30" style="stroke:#181818;stroke-width:1.0;" width="10" x="2196.5" y="434.0859"/><polygon fill="#181818" points="299,83.5703,309,87.5703,299,91.5703,303,87.5703" style="stroke:#181818;stroke-width:1.0;"/><line style="stroke:#181818;stroke-width:1.0;" x1="42" x2="305" y1="87.5703" y2="87.5703"/><text fill="#000000" font-family="sans-serif" font-size="13" font-weight="bold" lengthAdjust="spacing" textLength="7" x="49" y="82.7139">1</text><text fill="#000000" font-family="sans-serif" font-size="13" lengthAdjust="spacing" textLength="239" x="60" y="82.7139">GET getBuildingsInFloorRange(min, max)</text><polygon fill="#181818" points="548,113.9219,558,117.9219,548,121.9219,552,117.9219" style="stroke:#181818;stroke-width:1.0;"/><line style="stroke:#181818;stroke-width:1.0;" x1="321" x2="554" y1="117.9219" y2="117.9219"/><text fill="#000000" font-family="sans-serif" font-size="13" font-weight="bold" lengthAdjust="spacing" textLength="7" x="328" y="113.0654">2</text><text fill="#000000" font-family="sans-serif" font-size="13" lengthAdjust="spacing" textLength="209" x="339" y="113.0654">getBuildingsInFloorRange(min, max)</text><polygon fill="#181818" points="827,144.2734,837,148.2734,827,152.2734,831,148.2734" style="stroke:#181818;stroke-width:1.0;"/><line style="stroke:#181818;stroke-width:1.0;" x1="570" x2="833" y1="148.2734" y2="148.2734"/><text fill="#000000" font-family="sans-serif" font-size="13" font-weight="bold" lengthAdjust="spacing" textLength="7" x="577" y="143.417">3</text><text fill="#000000" font-family="sans-serif" font-size="13" lengthAdjust="spacing" textLength="239" x="588" y="143.417">GET getBuildingsInFloorRange(min, max)</text><polygon fill="#181818" points="1076,174.625,1086,178.625,1076,182.625,1080,178.625" style="stroke:#181818;stroke-width:1.0;"/><line style="stroke:#181818;stroke-width:1.0;" x1="849" x2="1082" y1="178.625" y2="178.625"/><text fill="#000000" font-family="sans-serif" font-size="13" font-weight="bold" lengthAdjust="spacing" textLength="7" x="856" y="173.7686">4</text><text fill="#000000" font-family="sans-serif" font-size="13" lengthAdjust="spacing" textLength="209" x="867" y="173.7686">getBuildingsInFloorRange(min, max)</text><polygon fill="#181818" points="1397,204.9766,1407,208.9766,1397,212.9766,1401,208.9766" style="stroke:#181818;stroke-width:1.0;"/><line style="stroke:#181818;stroke-width:1.0;" x1="1098" x2="1403" y1="208.9766" y2="208.9766"/><text fill="#000000" font-family="sans-serif" font-size="13" font-weight="bold" lengthAdjust="spacing" textLength="7" x="1105" y="204.1201">5</text><text fill="#000000" font-family="sans-serif" font-size="13" lengthAdjust="spacing" textLength="281" x="1116" y="204.1201">getBuildingsInFloorRange(minFloors, maxFloors)</text><line style="stroke:#181818;stroke-width:1.0;" x1="1419" x2="1461" y1="239.3281" y2="239.3281"/><line style="stroke:#181818;stroke-width:1.0;" x1="1461" x2="1461" y1="239.3281" y2="252.3281"/><line style="stroke:#181818;stroke-width:1.0;" x1="1420" x2="1461" y1="252.3281" y2="252.3281"/><polygon fill="#181818" points="1430,248.3281,1420,252.3281,1430,256.3281,1426,252.3281" style="stroke:#181818;stroke-width:1.0;"/><text fill="#000000" font-family="sans-serif" font-size="13" font-weight="bold" lengthAdjust="spacing" textLength="7" x="1426" y="234.4717">6</text><text fill="#000000" font-family="sans-serif" font-size="13" lengthAdjust="spacing" textLength="173" x="1437" y="234.4717">countTotalFloorsByBuildings()</text><polygon fill="#181818" points="1854.5,278.6797,1864.5,282.6797,1854.5,286.6797,1858.5,282.6797" style="stroke:#181818;stroke-width:1.0;"/><line style="stroke:#181818;stroke-width:1.0;" x1="1419" x2="1860.5" y1="282.6797" y2="282.6797"/><text fill="#000000" font-family="sans-serif" font-size="13" font-weight="bold" lengthAdjust="spacing" textLength="7" x="1426" y="277.8232">7</text><text fill="#000000" font-family="sans-serif" font-size="13" lengthAdjust="spacing" textLength="180" x="1437" y="277.8232">findFloorsByBuilding(buildingId)</text><polygon fill="#181818" points="1975,309.0313,1985,313.0313,1975,317.0313,1979,313.0313" style="stroke:#181818;stroke-width:1.0;"/><line style="stroke:#181818;stroke-width:1.0;" x1="1876.5" x2="1981" y1="313.0313" y2="313.0313"/><text fill="#000000" font-family="sans-serif" font-size="13" font-weight="bold" lengthAdjust="spacing" textLength="7" x="1883.5" y="308.1748">8</text><text fill="#000000" font-family="sans-serif" font-size="13" lengthAdjust="spacing" textLength="28" x="1894.5" y="308.1748">find()</text><polygon fill="#181818" points="2075,369.3828,2085,373.3828,2075,377.3828,2079,373.3828" style="stroke:#181818;stroke-width:1.0;"/><line style="stroke:#181818;stroke-width:1.0;" x1="1876.5" x2="2081" y1="373.3828" y2="373.3828"/><text fill="#000000" font-family="sans-serif" font-size="13" font-weight="bold" lengthAdjust="spacing" textLength="7" x="1883.5" y="368.5264">9</text><text fill="#000000" font-family="sans-serif" font-size="13" lengthAdjust="spacing" textLength="63" x="1894.5" y="368.5264">toDomain()</text><polygon fill="#181818" points="1887.5,399.7344,1877.5,403.7344,1887.5,407.7344,1883.5,403.7344" style="stroke:#181818;stroke-width:1.0;"/><line style="stroke:#181818;stroke-width:1.0;stroke-dasharray:2.0,2.0;" x1="1881.5" x2="2091" y1="403.7344" y2="403.7344"/><text fill="#000000" font-family="sans-serif" font-size="13" font-weight="bold" lengthAdjust="spacing" textLength="14" x="1893.5" y="398.8779">10</text><text fill="#000000" font-family="sans-serif" font-size="13" lengthAdjust="spacing" textLength="39" x="1911.5" y="398.8779">floors[]</text><polygon fill="#181818" points="2184.5,430.0859,2194.5,434.0859,2184.5,438.0859,2188.5,434.0859" style="stroke:#181818;stroke-width:1.0;"/><line style="stroke:#181818;stroke-width:1.0;stroke-dasharray:2.0,2.0;" x1="1876.5" x2="2190.5" y1="434.0859" y2="434.0859"/><text fill="#000000" font-family="sans-serif" font-size="13" font-weight="bold" lengthAdjust="spacing" textLength="14" x="1883.5" y="429.2295">11</text><text fill="#000000" font-family="sans-serif" font-size="13" lengthAdjust="spacing" textLength="44" x="1901.5" y="429.2295">create()</text><polygon fill="#181818" points="1430,490.4375,1420,494.4375,1430,498.4375,1426,494.4375" style="stroke:#181818;stroke-width:1.0;"/><line style="stroke:#181818;stroke-width:1.0;stroke-dasharray:2.0,2.0;" x1="1424" x2="1870.5" y1="494.4375" y2="494.4375"/><text fill="#000000" font-family="sans-serif" font-size="13" font-weight="bold" lengthAdjust="spacing" textLength="14" x="1436" y="489.5811">12</text><text fill="#000000" font-family="sans-serif" font-size="13" lengthAdjust="spacing" textLength="17" x="1454" y="489.5811">list</text><polygon fill="#181818" points="1605,520.7891,1615,524.7891,1605,528.7891,1609,524.7891" style="stroke:#181818;stroke-width:1.0;"/><line style="stroke:#181818;stroke-width:1.0;stroke-dasharray:2.0,2.0;" x1="1419" x2="1611" y1="524.7891" y2="524.7891"/><text fill="#000000" font-family="sans-serif" font-size="13" font-weight="bold" lengthAdjust="spacing" textLength="14" x="1426" y="519.9326">13</text><text fill="#000000" font-family="sans-serif" font-size="13" lengthAdjust="spacing" textLength="69" x="1444" y="519.9326">toDTO(floor)</text><polygon fill="#181818" points="1430,551.1406,1420,555.1406,1430,559.1406,1426,555.1406" style="stroke:#181818;stroke-width:1.0;"/><line style="stroke:#181818;stroke-width:1.0;stroke-dasharray:2.0,2.0;" x1="1424" x2="1621" y1="555.1406" y2="555.1406"/><text fill="#000000" font-family="sans-serif" font-size="13" font-weight="bold" lengthAdjust="spacing" textLength="14" x="1436" y="550.2842">14</text><text fill="#000000" font-family="sans-serif" font-size="13" lengthAdjust="spacing" textLength="39" x="1454" y="550.2842">floors[]</text><polygon fill="#181818" points="1109,581.4922,1099,585.4922,1109,589.4922,1105,585.4922" style="stroke:#181818;stroke-width:1.0;"/><line style="stroke:#181818;stroke-width:1.0;stroke-dasharray:2.0,2.0;" x1="1103" x2="1413" y1="585.4922" y2="585.4922"/><text fill="#000000" font-family="sans-serif" font-size="13" font-weight="bold" lengthAdjust="spacing" textLength="14" x="1115" y="580.6357">15</text><text fill="#000000" font-family="sans-serif" font-size="13" lengthAdjust="spacing" textLength="39" x="1133" y="580.6357">floors[]</text><polygon fill="#181818" points="860,611.8438,850,615.8438,860,619.8438,856,615.8438" style="stroke:#181818;stroke-width:1.0;"/><line style="stroke:#181818;stroke-width:1.0;stroke-dasharray:2.0,2.0;" x1="854" x2="1092" y1="615.8438" y2="615.8438"/><text fill="#000000" font-family="sans-serif" font-size="13" font-weight="bold" lengthAdjust="spacing" textLength="14" x="866" y="610.9873">16</text><text fill="#000000" font-family="sans-serif" font-size="13" lengthAdjust="spacing" textLength="39" x="884" y="610.9873">floors[]</text><polygon fill="#181818" points="581,642.1953,571,646.1953,581,650.1953,577,646.1953" style="stroke:#181818;stroke-width:1.0;"/><line style="stroke:#181818;stroke-width:1.0;stroke-dasharray:2.0,2.0;" x1="575" x2="843" y1="646.1953" y2="646.1953"/><text fill="#000000" font-family="sans-serif" font-size="13" font-weight="bold" lengthAdjust="spacing" textLength="14" x="587" y="641.3389">17</text><text fill="#000000" font-family="sans-serif" font-size="13" lengthAdjust="spacing" textLength="39" x="605" y="641.3389">floors[]</text><polygon fill="#181818" points="332,672.5469,322,676.5469,332,680.5469,328,676.5469" style="stroke:#181818;stroke-width:1.0;"/><line style="stroke:#181818;stroke-width:1.0;stroke-dasharray:2.0,2.0;" x1="326" x2="564" y1="676.5469" y2="676.5469"/><text fill="#000000" font-family="sans-serif" font-size="13" font-weight="bold" lengthAdjust="spacing" textLength="14" x="338" y="671.6904">18</text><text fill="#000000" font-family="sans-serif" font-size="13" lengthAdjust="spacing" textLength="39" x="356" y="671.6904">floors[]</text><polygon fill="#181818" points="48,702.8984,38,706.8984,48,710.8984,44,706.8984" style="stroke:#181818;stroke-width:1.0;"/><line style="stroke:#181818;stroke-width:1.0;stroke-dasharray:2.0,2.0;" x1="42" x2="315" y1="706.8984" y2="706.8984"/><text fill="#000000" font-family="sans-serif" font-size="13" font-weight="bold" lengthAdjust="spacing" textLength="14" x="54" y="702.042">19</text><text fill="#000000" font-family="sans-serif" font-size="13" lengthAdjust="spacing" textLength="39" x="72" y="702.042">floors[]</text><!--MD5=[899e276b6a0fbfb18a791336514b1870]
@startuml
autonumber

participant ":System" as SY
participant ":ListBuildingMinMaxFloorComponent\n(Angular)" as LC
participant ":FloorService (Angular)" as FS

participant ":FloorRoute" as FL
participant ":FloorController" as CTRL
participant ":FloorService" as SERV
participant "listDTO : List<FloorDto>" as DTO
participant ":floor: Floor" as FLOOR
participant ":FloorRepository" as REPO
participant ":FloorSchema" as SCHEMA
participant ":FloorMap" as MAP
participant "list: List<TEntity>" as LIST

activate SY
SY -> LC :  GET getBuildingsInFloorRange(min, max)
activate LC
LC -> FS : getBuildingsInFloorRange(min, max)
activate FS
FS -> FL : GET getBuildingsInFloorRange(min, max)
activate FL
FL -> CTRL : getBuildingsInFloorRange(min, max)
activate CTRL
CTRL -> SERV : getBuildingsInFloorRange(minFloors, maxFloors)
activate SERV
SERV -> SERV : countTotalFloorsByBuildings()
SERV -> REPO : findFloorsByBuilding(buildingId)
activate REPO
REPO -> SCHEMA : find()
activate SCHEMA
deactivate SCHEMA
REPO -> MAP : toDomain()
activate MAP
MAP - -> REPO : floors[]
deactivate MAP
REPO - -> LIST: create()
activate LIST
deactivate LIST
REPO - -> SERV : list
deactivate REPO
SERV - -> DTO : toDTO(floor)
activate DTO 
DTO - -> SERV : floors[]
deactivate DTO
SERV - -> CTRL : floors[]
deactivate SERV
CTRL - -> FL : floors[]
deactivate CTRL
FL - -> FS : floors[]
deactivate FL
FS - -> LC : floors[]
deactivate FS
LC - -> SY : floors[]
deactivate LC
deactivate SY

@enduml

PlantUML version 1.2022.7(Mon Aug 22 18:01:30 BST 2022)
(GPL source distribution)
Java Runtime: OpenJDK Runtime Environment
JVM: OpenJDK 64-Bit Server VM
Default Encoding: Cp1252
Language: pt
Country: PT
--></g></svg>