<?xml version="1.0" encoding="UTF-8" standalone="no"?><svg xmlns="http://www.w3.org/2000/svg" xmlns:xlink="http://www.w3.org/1999/xlink" contentStyleType="text/css" height="1595px" preserveAspectRatio="none" style="width:3338px;height:1595px;background:#FFFFFF;" version="1.1" viewBox="0 0 3338 1595" width="3338px" zoomAndPan="magnify"><defs/><g><rect fill="#FFFFFF" height="520.625" style="stroke:#181818;stroke-width:1.0;" width="10" x="47" y="47.6094"/><rect fill="#FFFFFF" height="942.1953" style="stroke:#181818;stroke-width:1.0;" width="10" x="47" y="598.5859"/><rect fill="#FFFFFF" height="498.2734" style="stroke:#181818;stroke-width:1.0;" width="10" x="512" y="69.9609"/><rect fill="#FFFFFF" height="942.1953" style="stroke:#181818;stroke-width:1.0;" width="10" x="512" y="598.5859"/><rect fill="#FFFFFF" height="394.2188" style="stroke:#181818;stroke-width:1.0;" width="10" x="943" y="143.6641"/><rect fill="#FFFFFF" height="881.4922" style="stroke:#181818;stroke-width:1.0;" width="10" x="943" y="628.9375"/><rect fill="#FFFFFF" height="820.7891" style="stroke:#181818;stroke-width:1.0;" width="10" x="1413" y="659.2891"/><rect fill="#FFFFFF" height="760.0859" style="stroke:#181818;stroke-width:1.0;" width="10" x="1844" y="689.6406"/><rect fill="#FFFFFF" height="699.3828" style="stroke:#181818;stroke-width:1.0;" width="10" x="1982" y="719.9922"/><rect fill="#FFFFFF" height="151.4063" style="stroke:#181818;stroke-width:1.0;" width="10" x="2127" y="750.3438"/><rect fill="#FFFFFF" height="181.7578" style="stroke:#181818;stroke-width:1.0;" width="10" x="2127" y="1146.5625"/><rect fill="#FFFFFF" height="184.1094" style="stroke:#181818;stroke-width:1.0;" width="10" x="2240" y="932.1016"/><rect fill="#FFFFFF" height="30.3516" style="stroke:#181818;stroke-width:1.0;" width="10" x="2330" y="1358.6719"/><rect fill="#FFFFFF" height="30" style="stroke:#181818;stroke-width:1.0;" width="10" x="2427.5" y="780.6953"/><rect fill="#FFFFFF" height="30" style="stroke:#181818;stroke-width:1.0;" width="10" x="2427.5" y="1237.6172"/><rect fill="#FFFFFF" height="30.3516" style="stroke:#181818;stroke-width:1.0;" width="10" x="2527.5" y="841.0469"/><rect fill="#FFFFFF" height="30.3516" style="stroke:#181818;stroke-width:1.0;" width="10" x="2527.5" y="1176.9141"/><rect fill="#FFFFFF" height="30.3516" style="stroke:#181818;stroke-width:1.0;" width="10" x="2527.5" y="1297.9688"/><rect fill="#FFFFFF" height="333.5156" style="stroke:#181818;stroke-width:1.0;" width="10" x="2629.5" y="174.0156"/><rect fill="#FFFFFF" height="272.8125" style="stroke:#181818;stroke-width:1.0;" width="10" x="2757.5" y="204.3672"/><rect fill="#FFFFFF" height="212.1094" style="stroke:#181818;stroke-width:1.0;" width="10" x="2890" y="234.7188"/><rect fill="#FFFFFF" height="151.4063" style="stroke:#181818;stroke-width:1.0;" width="10" x="3025.5" y="265.0703"/><rect fill="#FFFFFF" height="30" style="stroke:#181818;stroke-width:1.0;" width="10" x="3163" y="295.4219"/><rect fill="#FFFFFF" height="30.3516" style="stroke:#181818;stroke-width:1.0;" width="10" x="3280" y="355.7734"/><rect fill="none" height="139.7578" style="stroke:#000000;stroke-width:1.5;" width="2288.5" x="10" y="947.1016"/><line style="stroke:#181818;stroke-width:0.5;stroke-dasharray:5.0,5.0;" x1="52" x2="52" y1="37.6094" y2="1558.7813"/><line style="stroke:#181818;stroke-width:0.5;stroke-dasharray:5.0,5.0;" x1="516.5" x2="516.5" y1="37.6094" y2="1558.7813"/><line style="stroke:#181818;stroke-width:0.5;stroke-dasharray:5.0,5.0;" x1="947.5" x2="947.5" y1="37.6094" y2="1558.7813"/><line style="stroke:#181818;stroke-width:0.5;stroke-dasharray:5.0,5.0;" x1="1417.5" x2="1417.5" y1="37.6094" y2="1558.7813"/><line style="stroke:#181818;stroke-width:0.5;stroke-dasharray:5.0,5.0;" x1="1848.5" x2="1848.5" y1="37.6094" y2="1558.7813"/><line style="stroke:#181818;stroke-width:0.5;stroke-dasharray:5.0,5.0;" x1="1987" x2="1987" y1="37.6094" y2="1558.7813"/><line style="stroke:#181818;stroke-width:0.5;stroke-dasharray:5.0,5.0;" x1="2131.5" x2="2131.5" y1="37.6094" y2="1558.7813"/><line style="stroke:#181818;stroke-width:0.5;stroke-dasharray:5.0,5.0;" x1="2244.5" x2="2244.5" y1="37.6094" y2="1558.7813"/><line style="stroke:#181818;stroke-width:0.5;stroke-dasharray:5.0,5.0;" x1="2334.5" x2="2334.5" y1="37.6094" y2="1558.7813"/><line style="stroke:#181818;stroke-width:0.5;stroke-dasharray:5.0,5.0;" x1="2432.5" x2="2432.5" y1="37.6094" y2="1558.7813"/><line style="stroke:#181818;stroke-width:0.5;stroke-dasharray:5.0,5.0;" x1="2532.5" x2="2532.5" y1="37.6094" y2="1558.7813"/><line style="stroke:#181818;stroke-width:0.5;stroke-dasharray:5.0,5.0;" x1="2634.5" x2="2634.5" y1="37.6094" y2="1558.7813"/><line style="stroke:#181818;stroke-width:0.5;stroke-dasharray:5.0,5.0;" x1="2762.5" x2="2762.5" y1="37.6094" y2="1558.7813"/><line style="stroke:#181818;stroke-width:0.5;stroke-dasharray:5.0,5.0;" x1="2894.5" x2="2894.5" y1="37.6094" y2="1558.7813"/><line style="stroke:#181818;stroke-width:0.5;stroke-dasharray:5.0,5.0;" x1="3030.5" x2="3030.5" y1="37.6094" y2="1558.7813"/><line style="stroke:#181818;stroke-width:0.5;stroke-dasharray:5.0,5.0;" x1="3167.5" x2="3167.5" y1="37.6094" y2="1558.7813"/><line style="stroke:#181818;stroke-width:0.5;stroke-dasharray:5.0,5.0;" x1="3284.5" x2="3284.5" y1="37.6094" y2="1558.7813"/><rect fill="#E2E2F0" height="31.6094" rx="2.5" ry="2.5" style="stroke:#181818;stroke-width:0.5;" width="64" x="20" y="5"/><text fill="#000000" font-family="sans-serif" font-size="14" lengthAdjust="spacing" textLength="50" x="27" y="26.5332">:System</text><rect fill="#E2E2F0" height="31.6094" rx="2.5" ry="2.5" style="stroke:#181818;stroke-width:0.5;" width="64" x="20" y="1557.7813"/><text fill="#000000" font-family="sans-serif" font-size="14" lengthAdjust="spacing" textLength="50" x="27" y="1579.3145">:System</text><rect fill="#E2E2F0" height="31.6094" rx="2.5" ry="2.5" style="stroke:#181818;stroke-width:0.5;" width="187" x="423.5" y="5"/><text fill="#000000" font-family="sans-serif" font-size="14" lengthAdjust="spacing" textLength="173" x="430.5" y="26.5332">:FloorComponent (Angular)</text><rect fill="#E2E2F0" height="31.6094" rx="2.5" ry="2.5" style="stroke:#181818;stroke-width:0.5;" width="187" x="423.5" y="1557.7813"/><text fill="#000000" font-family="sans-serif" font-size="14" lengthAdjust="spacing" textLength="173" x="430.5" y="1579.3145">:FloorComponent (Angular)</text><rect fill="#E2E2F0" height="31.6094" rx="2.5" ry="2.5" style="stroke:#181818;stroke-width:0.5;" width="161" x="867.5" y="5"/><text fill="#000000" font-family="sans-serif" font-size="14" lengthAdjust="spacing" textLength="147" x="874.5" y="26.5332">:FloorService (Angular)</text><rect fill="#E2E2F0" height="31.6094" rx="2.5" ry="2.5" style="stroke:#181818;stroke-width:0.5;" width="161" x="867.5" y="1557.7813"/><text fill="#000000" font-family="sans-serif" font-size="14" lengthAdjust="spacing" textLength="147" x="874.5" y="1579.3145">:FloorService (Angular)</text><rect fill="#E2E2F0" height="31.6094" rx="2.5" ry="2.5" style="stroke:#181818;stroke-width:0.5;" width="89" x="1373.5" y="5"/><text fill="#000000" font-family="sans-serif" font-size="14" lengthAdjust="spacing" textLength="75" x="1380.5" y="26.5332">:FloorRoute</text><rect fill="#E2E2F0" height="31.6094" rx="2.5" ry="2.5" style="stroke:#181818;stroke-width:0.5;" width="89" x="1373.5" y="1557.7813"/><text fill="#000000" font-family="sans-serif" font-size="14" lengthAdjust="spacing" textLength="75" x="1380.5" y="1579.3145">:FloorRoute</text><rect fill="#E2E2F0" height="31.6094" rx="2.5" ry="2.5" style="stroke:#181818;stroke-width:0.5;" width="113" x="1792.5" y="5"/><text fill="#000000" font-family="sans-serif" font-size="14" lengthAdjust="spacing" textLength="99" x="1799.5" y="26.5332">:FloorController</text><rect fill="#E2E2F0" height="31.6094" rx="2.5" ry="2.5" style="stroke:#181818;stroke-width:0.5;" width="113" x="1792.5" y="1557.7813"/><text fill="#000000" font-family="sans-serif" font-size="14" lengthAdjust="spacing" textLength="99" x="1799.5" y="1579.3145">:FloorController</text><rect fill="#E2E2F0" height="31.6094" rx="2.5" ry="2.5" style="stroke:#181818;stroke-width:0.5;" width="98" x="1938" y="5"/><text fill="#000000" font-family="sans-serif" font-size="14" lengthAdjust="spacing" textLength="84" x="1945" y="26.5332">:FloorService</text><rect fill="#E2E2F0" height="31.6094" rx="2.5" ry="2.5" style="stroke:#181818;stroke-width:0.5;" width="98" x="1938" y="1557.7813"/><text fill="#000000" font-family="sans-serif" font-size="14" lengthAdjust="spacing" textLength="84" x="1945" y="1579.3145">:FloorService</text><rect fill="#E2E2F0" height="31.6094" rx="2.5" ry="2.5" style="stroke:#181818;stroke-width:0.5;" width="119" x="2072.5" y="5"/><text fill="#000000" font-family="sans-serif" font-size="14" lengthAdjust="spacing" textLength="105" x="2079.5" y="26.5332">:FloorRepository</text><rect fill="#E2E2F0" height="31.6094" rx="2.5" ry="2.5" style="stroke:#181818;stroke-width:0.5;" width="119" x="2072.5" y="1557.7813"/><text fill="#000000" font-family="sans-serif" font-size="14" lengthAdjust="spacing" textLength="105" x="2079.5" y="1579.3145">:FloorRepository</text><rect fill="#E2E2F0" height="31.6094" rx="2.5" ry="2.5" style="stroke:#181818;stroke-width:0.5;" width="87" x="2201.5" y="5"/><text fill="#000000" font-family="sans-serif" font-size="14" lengthAdjust="spacing" textLength="73" x="2208.5" y="26.5332">:floor: Floor</text><rect fill="#E2E2F0" height="31.6094" rx="2.5" ry="2.5" style="stroke:#181818;stroke-width:0.5;" width="87" x="2201.5" y="1557.7813"/><text fill="#000000" font-family="sans-serif" font-size="14" lengthAdjust="spacing" textLength="73" x="2208.5" y="1579.3145">:floor: Floor</text><rect fill="#E2E2F0" height="31.6094" rx="2.5" ry="2.5" style="stroke:#181818;stroke-width:0.5;" width="73" x="2298.5" y="5"/><text fill="#000000" font-family="sans-serif" font-size="14" lengthAdjust="spacing" textLength="59" x="2305.5" y="26.5332">:FloorDto</text><rect fill="#E2E2F0" height="31.6094" rx="2.5" ry="2.5" style="stroke:#181818;stroke-width:0.5;" width="73" x="2298.5" y="1557.7813"/><text fill="#000000" font-family="sans-serif" font-size="14" lengthAdjust="spacing" textLength="59" x="2305.5" y="1579.3145">:FloorDto</text><rect fill="#E2E2F0" height="31.6094" rx="2.5" ry="2.5" style="stroke:#181818;stroke-width:0.5;" width="102" x="2381.5" y="5"/><text fill="#000000" font-family="sans-serif" font-size="14" lengthAdjust="spacing" textLength="88" x="2388.5" y="26.5332">:FloorSchema</text><rect fill="#E2E2F0" height="31.6094" rx="2.5" ry="2.5" style="stroke:#181818;stroke-width:0.5;" width="102" x="2381.5" y="1557.7813"/><text fill="#000000" font-family="sans-serif" font-size="14" lengthAdjust="spacing" textLength="88" x="2388.5" y="1579.3145">:FloorSchema</text><rect fill="#E2E2F0" height="31.6094" rx="2.5" ry="2.5" style="stroke:#181818;stroke-width:0.5;" width="78" x="2493.5" y="5"/><text fill="#000000" font-family="sans-serif" font-size="14" lengthAdjust="spacing" textLength="64" x="2500.5" y="26.5332">:FloorMap</text><rect fill="#E2E2F0" height="31.6094" rx="2.5" ry="2.5" style="stroke:#181818;stroke-width:0.5;" width="78" x="2493.5" y="1557.7813"/><text fill="#000000" font-family="sans-serif" font-size="14" lengthAdjust="spacing" textLength="64" x="2500.5" y="1579.3145">:FloorMap</text><rect fill="#E2E2F0" height="31.6094" rx="2.5" ry="2.5" style="stroke:#181818;stroke-width:0.5;" width="106" x="2581.5" y="5"/><text fill="#000000" font-family="sans-serif" font-size="14" lengthAdjust="spacing" textLength="92" x="2588.5" y="26.5332">:BuildingRoute</text><rect fill="#E2E2F0" height="31.6094" rx="2.5" ry="2.5" style="stroke:#181818;stroke-width:0.5;" width="106" x="2581.5" y="1557.7813"/><text fill="#000000" font-family="sans-serif" font-size="14" lengthAdjust="spacing" textLength="92" x="2588.5" y="1579.3145">:BuildingRoute</text><rect fill="#E2E2F0" height="31.6094" rx="2.5" ry="2.5" style="stroke:#181818;stroke-width:0.5;" width="130" x="2697.5" y="5"/><text fill="#000000" font-family="sans-serif" font-size="14" lengthAdjust="spacing" textLength="116" x="2704.5" y="26.5332">:BuildingController</text><rect fill="#E2E2F0" height="31.6094" rx="2.5" ry="2.5" style="stroke:#181818;stroke-width:0.5;" width="130" x="2697.5" y="1557.7813"/><text fill="#000000" font-family="sans-serif" font-size="14" lengthAdjust="spacing" textLength="116" x="2704.5" y="1579.3145">:BuildingController</text><rect fill="#E2E2F0" height="31.6094" rx="2.5" ry="2.5" style="stroke:#181818;stroke-width:0.5;" width="115" x="2837.5" y="5"/><text fill="#000000" font-family="sans-serif" font-size="14" lengthAdjust="spacing" textLength="101" x="2844.5" y="26.5332">:BuildingService</text><rect fill="#E2E2F0" height="31.6094" rx="2.5" ry="2.5" style="stroke:#181818;stroke-width:0.5;" width="115" x="2837.5" y="1557.7813"/><text fill="#000000" font-family="sans-serif" font-size="14" lengthAdjust="spacing" textLength="101" x="2844.5" y="1579.3145">:BuildingService</text><rect fill="#E2E2F0" height="31.6094" rx="2.5" ry="2.5" style="stroke:#181818;stroke-width:0.5;" width="136" x="2962.5" y="5"/><text fill="#000000" font-family="sans-serif" font-size="14" lengthAdjust="spacing" textLength="122" x="2969.5" y="26.5332">:BuildingRepository</text><rect fill="#E2E2F0" height="31.6094" rx="2.5" ry="2.5" style="stroke:#181818;stroke-width:0.5;" width="136" x="2962.5" y="1557.7813"/><text fill="#000000" font-family="sans-serif" font-size="14" lengthAdjust="spacing" textLength="122" x="2969.5" y="1579.3145">:BuildingRepository</text><rect fill="#E2E2F0" height="31.6094" rx="2.5" ry="2.5" style="stroke:#181818;stroke-width:0.5;" width="119" x="3108.5" y="5"/><text fill="#000000" font-family="sans-serif" font-size="14" lengthAdjust="spacing" textLength="105" x="3115.5" y="26.5332">:BuildingSchema</text><rect fill="#E2E2F0" height="31.6094" rx="2.5" ry="2.5" style="stroke:#181818;stroke-width:0.5;" width="119" x="3108.5" y="1557.7813"/><text fill="#000000" font-family="sans-serif" font-size="14" lengthAdjust="spacing" textLength="105" x="3115.5" y="1579.3145">:BuildingSchema</text><rect fill="#E2E2F0" height="31.6094" rx="2.5" ry="2.5" style="stroke:#181818;stroke-width:0.5;" width="95" x="3237.5" y="5"/><text fill="#000000" font-family="sans-serif" font-size="14" lengthAdjust="spacing" textLength="81" x="3244.5" y="26.5332">:BuildingMap</text><rect fill="#E2E2F0" height="31.6094" rx="2.5" ry="2.5" style="stroke:#181818;stroke-width:0.5;" width="95" x="3237.5" y="1557.7813"/><text fill="#000000" font-family="sans-serif" font-size="14" lengthAdjust="spacing" textLength="81" x="3244.5" y="1579.3145">:BuildingMap</text><rect fill="#FFFFFF" height="520.625" style="stroke:#181818;stroke-width:1.0;" width="10" x="47" y="47.6094"/><rect fill="#FFFFFF" height="942.1953" style="stroke:#181818;stroke-width:1.0;" width="10" x="47" y="598.5859"/><rect fill="#FFFFFF" height="498.2734" style="stroke:#181818;stroke-width:1.0;" width="10" x="512" y="69.9609"/><rect fill="#FFFFFF" height="942.1953" style="stroke:#181818;stroke-width:1.0;" width="10" x="512" y="598.5859"/><rect fill="#FFFFFF" height="394.2188" style="stroke:#181818;stroke-width:1.0;" width="10" x="943" y="143.6641"/><rect fill="#FFFFFF" height="881.4922" style="stroke:#181818;stroke-width:1.0;" width="10" x="943" y="628.9375"/><rect fill="#FFFFFF" height="820.7891" style="stroke:#181818;stroke-width:1.0;" width="10" x="1413" y="659.2891"/><rect fill="#FFFFFF" height="760.0859" style="stroke:#181818;stroke-width:1.0;" width="10" x="1844" y="689.6406"/><rect fill="#FFFFFF" height="699.3828" style="stroke:#181818;stroke-width:1.0;" width="10" x="1982" y="719.9922"/><rect fill="#FFFFFF" height="151.4063" style="stroke:#181818;stroke-width:1.0;" width="10" x="2127" y="750.3438"/><rect fill="#FFFFFF" height="181.7578" style="stroke:#181818;stroke-width:1.0;" width="10" x="2127" y="1146.5625"/><rect fill="#FFFFFF" height="184.1094" style="stroke:#181818;stroke-width:1.0;" width="10" x="2240" y="932.1016"/><rect fill="#FFFFFF" height="30.3516" style="stroke:#181818;stroke-width:1.0;" width="10" x="2330" y="1358.6719"/><rect fill="#FFFFFF" height="30" style="stroke:#181818;stroke-width:1.0;" width="10" x="2427.5" y="780.6953"/><rect fill="#FFFFFF" height="30" style="stroke:#181818;stroke-width:1.0;" width="10" x="2427.5" y="1237.6172"/><rect fill="#FFFFFF" height="30.3516" style="stroke:#181818;stroke-width:1.0;" width="10" x="2527.5" y="841.0469"/><rect fill="#FFFFFF" height="30.3516" style="stroke:#181818;stroke-width:1.0;" width="10" x="2527.5" y="1176.9141"/><rect fill="#FFFFFF" height="30.3516" style="stroke:#181818;stroke-width:1.0;" width="10" x="2527.5" y="1297.9688"/><rect fill="#FFFFFF" height="333.5156" style="stroke:#181818;stroke-width:1.0;" width="10" x="2629.5" y="174.0156"/><rect fill="#FFFFFF" height="272.8125" style="stroke:#181818;stroke-width:1.0;" width="10" x="2757.5" y="204.3672"/><rect fill="#FFFFFF" height="212.1094" style="stroke:#181818;stroke-width:1.0;" width="10" x="2890" y="234.7188"/><rect fill="#FFFFFF" height="151.4063" style="stroke:#181818;stroke-width:1.0;" width="10" x="3025.5" y="265.0703"/><rect fill="#FFFFFF" height="30" style="stroke:#181818;stroke-width:1.0;" width="10" x="3163" y="295.4219"/><rect fill="#FFFFFF" height="30.3516" style="stroke:#181818;stroke-width:1.0;" width="10" x="3280" y="355.7734"/><polygon fill="#181818" points="500,65.9609,510,69.9609,500,73.9609,504,69.9609" style="stroke:#181818;stroke-width:1.0;"/><line style="stroke:#181818;stroke-width:1.0;" x1="57" x2="506" y1="69.9609" y2="69.9609"/><text fill="#000000" font-family="sans-serif" font-size="13" font-weight="bold" lengthAdjust="spacing" textLength="7" x="64" y="65.1045">1</text><text fill="#000000" font-family="sans-serif" font-size="13" lengthAdjust="spacing" textLength="115" x="75" y="65.1045">GET loadBuildings()</text><line style="stroke:#181818;stroke-width:1.0;" x1="522" x2="564" y1="100.3125" y2="100.3125"/><line style="stroke:#181818;stroke-width:1.0;" x1="564" x2="564" y1="100.3125" y2="113.3125"/><line style="stroke:#181818;stroke-width:1.0;" x1="523" x2="564" y1="113.3125" y2="113.3125"/><polygon fill="#181818" points="533,109.3125,523,113.3125,533,117.3125,529,113.3125" style="stroke:#181818;stroke-width:1.0;"/><text fill="#000000" font-family="sans-serif" font-size="13" font-weight="bold" lengthAdjust="spacing" textLength="7" x="529" y="95.4561">2</text><text fill="#000000" font-family="sans-serif" font-size="13" lengthAdjust="spacing" textLength="56" x="540" y="95.4561">ngOnInit()</text><polygon fill="#181818" points="931,139.6641,941,143.6641,931,147.6641,935,143.6641" style="stroke:#181818;stroke-width:1.0;"/><line style="stroke:#181818;stroke-width:1.0;" x1="522" x2="937" y1="143.6641" y2="143.6641"/><text fill="#000000" font-family="sans-serif" font-size="13" font-weight="bold" lengthAdjust="spacing" textLength="7" x="529" y="138.8076">3</text><text fill="#000000" font-family="sans-serif" font-size="13" lengthAdjust="spacing" textLength="79" x="540" y="138.8076">getBuildings()</text><polygon fill="#181818" points="2617.5,170.0156,2627.5,174.0156,2617.5,178.0156,2621.5,174.0156" style="stroke:#181818;stroke-width:1.0;"/><line style="stroke:#181818;stroke-width:1.0;" x1="953" x2="2623.5" y1="174.0156" y2="174.0156"/><text fill="#000000" font-family="sans-serif" font-size="13" font-weight="bold" lengthAdjust="spacing" textLength="7" x="960" y="169.1592">4</text><text fill="#000000" font-family="sans-serif" font-size="13" lengthAdjust="spacing" textLength="109" x="971" y="169.1592">GET getBuildings()</text><polygon fill="#181818" points="2745.5,200.3672,2755.5,204.3672,2745.5,208.3672,2749.5,204.3672" style="stroke:#181818;stroke-width:1.0;"/><line style="stroke:#181818;stroke-width:1.0;" x1="2639.5" x2="2751.5" y1="204.3672" y2="204.3672"/><text fill="#000000" font-family="sans-serif" font-size="13" font-weight="bold" lengthAdjust="spacing" textLength="7" x="2646.5" y="199.5107">5</text><text fill="#000000" font-family="sans-serif" font-size="13" lengthAdjust="spacing" textLength="71" x="2657.5" y="199.5107">listBuilding()</text><polygon fill="#181818" points="2878,230.7188,2888,234.7188,2878,238.7188,2882,234.7188" style="stroke:#181818;stroke-width:1.0;"/><line style="stroke:#181818;stroke-width:1.0;" x1="2767.5" x2="2884" y1="234.7188" y2="234.7188"/><text fill="#000000" font-family="sans-serif" font-size="13" font-weight="bold" lengthAdjust="spacing" textLength="7" x="2774.5" y="229.8623">6</text><text fill="#000000" font-family="sans-serif" font-size="13" lengthAdjust="spacing" textLength="75" x="2785.5" y="229.8623">ListBuilding()</text><polygon fill="#181818" points="3013.5,261.0703,3023.5,265.0703,3013.5,269.0703,3017.5,265.0703" style="stroke:#181818;stroke-width:1.0;"/><line style="stroke:#181818;stroke-width:1.0;" x1="2900" x2="3019.5" y1="265.0703" y2="265.0703"/><text fill="#000000" font-family="sans-serif" font-size="13" font-weight="bold" lengthAdjust="spacing" textLength="7" x="2907" y="260.2139">7</text><text fill="#000000" font-family="sans-serif" font-size="13" lengthAdjust="spacing" textLength="40" x="2918" y="260.2139">listAll()</text><polygon fill="#181818" points="3151,291.4219,3161,295.4219,3151,299.4219,3155,295.4219" style="stroke:#181818;stroke-width:1.0;"/><line style="stroke:#181818;stroke-width:1.0;" x1="3035.5" x2="3157" y1="295.4219" y2="295.4219"/><text fill="#000000" font-family="sans-serif" font-size="13" font-weight="bold" lengthAdjust="spacing" textLength="7" x="3042.5" y="290.5654">8</text><text fill="#000000" font-family="sans-serif" font-size="13" lengthAdjust="spacing" textLength="28" x="3053.5" y="290.5654">find()</text><polygon fill="#181818" points="3268,351.7734,3278,355.7734,3268,359.7734,3272,355.7734" style="stroke:#181818;stroke-width:1.0;"/><line style="stroke:#181818;stroke-width:1.0;" x1="3035.5" x2="3274" y1="355.7734" y2="355.7734"/><text fill="#000000" font-family="sans-serif" font-size="13" font-weight="bold" lengthAdjust="spacing" textLength="7" x="3042.5" y="350.917">9</text><text fill="#000000" font-family="sans-serif" font-size="13" lengthAdjust="spacing" textLength="63" x="3053.5" y="350.917">toDomain()</text><polygon fill="#181818" points="3046.5,382.125,3036.5,386.125,3046.5,390.125,3042.5,386.125" style="stroke:#181818;stroke-width:1.0;"/><line style="stroke:#181818;stroke-width:1.0;stroke-dasharray:2.0,2.0;" x1="3040.5" x2="3284" y1="386.125" y2="386.125"/><text fill="#000000" font-family="sans-serif" font-size="13" font-weight="bold" lengthAdjust="spacing" textLength="14" x="3052.5" y="381.2686">10</text><text fill="#000000" font-family="sans-serif" font-size="13" lengthAdjust="spacing" textLength="59" x="3070.5" y="381.2686">buildings[]</text><polygon fill="#181818" points="2911,412.4766,2901,416.4766,2911,420.4766,2907,416.4766" style="stroke:#181818;stroke-width:1.0;"/><line style="stroke:#181818;stroke-width:1.0;stroke-dasharray:2.0,2.0;" x1="2905" x2="3029.5" y1="416.4766" y2="416.4766"/><text fill="#000000" font-family="sans-serif" font-size="13" font-weight="bold" lengthAdjust="spacing" textLength="14" x="2917" y="411.6201">11</text><text fill="#000000" font-family="sans-serif" font-size="13" lengthAdjust="spacing" textLength="59" x="2935" y="411.6201">buildings[]</text><polygon fill="#181818" points="2778.5,442.8281,2768.5,446.8281,2778.5,450.8281,2774.5,446.8281" style="stroke:#181818;stroke-width:1.0;"/><line style="stroke:#181818;stroke-width:1.0;stroke-dasharray:2.0,2.0;" x1="2772.5" x2="2894" y1="446.8281" y2="446.8281"/><text fill="#000000" font-family="sans-serif" font-size="13" font-weight="bold" lengthAdjust="spacing" textLength="14" x="2784.5" y="441.9717">12</text><text fill="#000000" font-family="sans-serif" font-size="13" lengthAdjust="spacing" textLength="59" x="2802.5" y="441.9717">buildings[]</text><polygon fill="#181818" points="2650.5,473.1797,2640.5,477.1797,2650.5,481.1797,2646.5,477.1797" style="stroke:#181818;stroke-width:1.0;"/><line style="stroke:#181818;stroke-width:1.0;stroke-dasharray:2.0,2.0;" x1="2644.5" x2="2761.5" y1="477.1797" y2="477.1797"/><text fill="#000000" font-family="sans-serif" font-size="13" font-weight="bold" lengthAdjust="spacing" textLength="14" x="2656.5" y="472.3232">13</text><text fill="#000000" font-family="sans-serif" font-size="13" lengthAdjust="spacing" textLength="59" x="2674.5" y="472.3232">buildings[]</text><polygon fill="#181818" points="964,503.5313,954,507.5313,964,511.5313,960,507.5313" style="stroke:#181818;stroke-width:1.0;"/><line style="stroke:#181818;stroke-width:1.0;stroke-dasharray:2.0,2.0;" x1="958" x2="2633.5" y1="507.5313" y2="507.5313"/><text fill="#000000" font-family="sans-serif" font-size="13" font-weight="bold" lengthAdjust="spacing" textLength="14" x="970" y="502.6748">14</text><text fill="#000000" font-family="sans-serif" font-size="13" lengthAdjust="spacing" textLength="59" x="988" y="502.6748">buildings[]</text><polygon fill="#181818" points="533,533.8828,523,537.8828,533,541.8828,529,537.8828" style="stroke:#181818;stroke-width:1.0;"/><line style="stroke:#181818;stroke-width:1.0;stroke-dasharray:2.0,2.0;" x1="527" x2="947" y1="537.8828" y2="537.8828"/><text fill="#000000" font-family="sans-serif" font-size="13" font-weight="bold" lengthAdjust="spacing" textLength="14" x="539" y="533.0264">15</text><text fill="#000000" font-family="sans-serif" font-size="13" lengthAdjust="spacing" textLength="59" x="557" y="533.0264">buildings[]</text><polygon fill="#181818" points="63,564.2344,53,568.2344,63,572.2344,59,568.2344" style="stroke:#181818;stroke-width:1.0;"/><line style="stroke:#181818;stroke-width:1.0;stroke-dasharray:2.0,2.0;" x1="57" x2="516" y1="568.2344" y2="568.2344"/><text fill="#000000" font-family="sans-serif" font-size="13" font-weight="bold" lengthAdjust="spacing" textLength="14" x="69" y="563.3779">16</text><text fill="#000000" font-family="sans-serif" font-size="13" lengthAdjust="spacing" textLength="59" x="87" y="563.3779">buildings[]</text><polygon fill="#181818" points="500,594.5859,510,598.5859,500,602.5859,504,598.5859" style="stroke:#181818;stroke-width:1.0;"/><line style="stroke:#181818;stroke-width:1.0;" x1="57" x2="506" y1="598.5859" y2="598.5859"/><text fill="#000000" font-family="sans-serif" font-size="13" font-weight="bold" lengthAdjust="spacing" textLength="14" x="64" y="593.7295">17</text><text fill="#000000" font-family="sans-serif" font-size="13" lengthAdjust="spacing" textLength="423" x="82" y="593.7295">POST createFloor(floorId, floorDescription, { widthStr, depthStr }, building)</text><polygon fill="#181818" points="931,624.9375,941,628.9375,931,632.9375,935,628.9375" style="stroke:#181818;stroke-width:1.0;"/><line style="stroke:#181818;stroke-width:1.0;" x1="522" x2="937" y1="628.9375" y2="628.9375"/><text fill="#000000" font-family="sans-serif" font-size="13" font-weight="bold" lengthAdjust="spacing" textLength="14" x="529" y="624.0811">18</text><text fill="#000000" font-family="sans-serif" font-size="13" lengthAdjust="spacing" textLength="384" x="547" y="624.0811">createFloor(floorId, floorDescription, { widthStr, depthStr }, building)</text><polygon fill="#181818" points="1401,655.2891,1411,659.2891,1401,663.2891,1405,659.2891" style="stroke:#181818;stroke-width:1.0;"/><line style="stroke:#181818;stroke-width:1.0;" x1="953" x2="1407" y1="659.2891" y2="659.2891"/><text fill="#000000" font-family="sans-serif" font-size="13" font-weight="bold" lengthAdjust="spacing" textLength="14" x="960" y="654.4326">19</text><text fill="#000000" font-family="sans-serif" font-size="13" lengthAdjust="spacing" textLength="423" x="978" y="654.4326">POST createFloor(floorId, floorDescription, { widthStr, depthStr }, building)</text><polygon fill="#181818" points="1832,685.6406,1842,689.6406,1832,693.6406,1836,689.6406" style="stroke:#181818;stroke-width:1.0;"/><line style="stroke:#181818;stroke-width:1.0;" x1="1423" x2="1838" y1="689.6406" y2="689.6406"/><text fill="#000000" font-family="sans-serif" font-size="13" font-weight="bold" lengthAdjust="spacing" textLength="14" x="1430" y="684.7842">20</text><text fill="#000000" font-family="sans-serif" font-size="13" lengthAdjust="spacing" textLength="384" x="1448" y="684.7842">createFloor(floorId, floorDescription, { widthStr, depthStr }, building)</text><polygon fill="#181818" points="1970,715.9922,1980,719.9922,1970,723.9922,1974,719.9922" style="stroke:#181818;stroke-width:1.0;"/><line style="stroke:#181818;stroke-width:1.0;" x1="1854" x2="1976" y1="719.9922" y2="719.9922"/><text fill="#000000" font-family="sans-serif" font-size="13" font-weight="bold" lengthAdjust="spacing" textLength="14" x="1861" y="715.1357">21</text><text fill="#000000" font-family="sans-serif" font-size="13" lengthAdjust="spacing" textLength="91" x="1879" y="715.1357">createFloor(dto)</text><polygon fill="#181818" points="2115,746.3438,2125,750.3438,2115,754.3438,2119,750.3438" style="stroke:#181818;stroke-width:1.0;"/><line style="stroke:#181818;stroke-width:1.0;" x1="1992" x2="2121" y1="750.3438" y2="750.3438"/><text fill="#000000" font-family="sans-serif" font-size="13" font-weight="bold" lengthAdjust="spacing" textLength="14" x="1999" y="745.4873">22</text><text fill="#000000" font-family="sans-serif" font-size="13" lengthAdjust="spacing" textLength="98" x="2017" y="745.4873">findByDomainId()</text><polygon fill="#181818" points="2415.5,776.6953,2425.5,780.6953,2415.5,784.6953,2419.5,780.6953" style="stroke:#181818;stroke-width:1.0;"/><line style="stroke:#181818;stroke-width:1.0;" x1="2137" x2="2421.5" y1="780.6953" y2="780.6953"/><text fill="#000000" font-family="sans-serif" font-size="13" font-weight="bold" lengthAdjust="spacing" textLength="14" x="2144" y="775.8389">23</text><text fill="#000000" font-family="sans-serif" font-size="13" lengthAdjust="spacing" textLength="52" x="2162" y="775.8389">findOne()</text><polygon fill="#181818" points="2515.5,837.0469,2525.5,841.0469,2515.5,845.0469,2519.5,841.0469" style="stroke:#181818;stroke-width:1.0;"/><line style="stroke:#181818;stroke-width:1.0;" x1="2137" x2="2521.5" y1="841.0469" y2="841.0469"/><text fill="#000000" font-family="sans-serif" font-size="13" font-weight="bold" lengthAdjust="spacing" textLength="14" x="2144" y="836.1904">24</text><text fill="#000000" font-family="sans-serif" font-size="13" lengthAdjust="spacing" textLength="63" x="2162" y="836.1904">toDomain()</text><polygon fill="#181818" points="2148,867.3984,2138,871.3984,2148,875.3984,2144,871.3984" style="stroke:#181818;stroke-width:1.0;"/><line style="stroke:#181818;stroke-width:1.0;stroke-dasharray:2.0,2.0;" x1="2142" x2="2531.5" y1="871.3984" y2="871.3984"/><text fill="#000000" font-family="sans-serif" font-size="13" font-weight="bold" lengthAdjust="spacing" textLength="14" x="2154" y="866.542">25</text><text fill="#000000" font-family="sans-serif" font-size="13" lengthAdjust="spacing" textLength="32" x="2172" y="866.542">floor[]</text><polygon fill="#181818" points="2003,897.75,1993,901.75,2003,905.75,1999,901.75" style="stroke:#181818;stroke-width:1.0;"/><line style="stroke:#181818;stroke-width:1.0;stroke-dasharray:2.0,2.0;" x1="1997" x2="2131" y1="901.75" y2="901.75"/><text fill="#000000" font-family="sans-serif" font-size="13" font-weight="bold" lengthAdjust="spacing" textLength="14" x="2009" y="896.8936">26</text><text fill="#000000" font-family="sans-serif" font-size="13" lengthAdjust="spacing" textLength="32" x="2027" y="896.8936">floor[]</text><polygon fill="#181818" points="2228,928.1016,2238,932.1016,2228,936.1016,2232,932.1016" style="stroke:#181818;stroke-width:1.0;"/><line style="stroke:#181818;stroke-width:1.0;" x1="1992" x2="2234" y1="932.1016" y2="932.1016"/><text fill="#000000" font-family="sans-serif" font-size="13" font-weight="bold" lengthAdjust="spacing" textLength="14" x="1999" y="927.2451">27</text><text fill="#000000" font-family="sans-serif" font-size="13" lengthAdjust="spacing" textLength="62" x="2017" y="927.2451">create(dto)</text><path d="M10,947.1016 L71,947.1016 L71,955.4531 L61,965.4531 L10,965.4531 L10,947.1016 " fill="#EEEEEE" style="stroke:#000000;stroke-width:1.5;"/><rect fill="none" height="139.7578" style="stroke:#000000;stroke-width:1.5;" width="2288.5" x="10" y="947.1016"/><text fill="#000000" font-family="sans-serif" font-size="13" font-weight="bold" lengthAdjust="spacing" textLength="16" x="25" y="961.5967">alt</text><text fill="#000000" font-family="sans-serif" font-size="11" font-weight="bold" lengthAdjust="spacing" textLength="143" x="86" y="960.5205">["Erro na criação do piso"]</text><polygon fill="#181818" points="2003,983.8047,1993,987.8047,2003,991.8047,1999,987.8047" style="stroke:#181818;stroke-width:1.0;"/><line style="stroke:#181818;stroke-width:1.0;stroke-dasharray:2.0,2.0;" x1="1997" x2="2239" y1="987.8047" y2="987.8047"/><text fill="#000000" font-family="sans-serif" font-size="13" font-weight="bold" lengthAdjust="spacing" textLength="14" x="2009" y="982.9482">28</text><text fill="#000000" font-family="sans-serif" font-size="13" lengthAdjust="spacing" textLength="26" x="2027" y="982.9482">error</text><polygon fill="#181818" points="1865,1014.1563,1855,1018.1563,1865,1022.1563,1861,1018.1563" style="stroke:#181818;stroke-width:1.0;"/><line style="stroke:#181818;stroke-width:1.0;stroke-dasharray:2.0,2.0;" x1="1859" x2="1981" y1="1018.1563" y2="1018.1563"/><text fill="#000000" font-family="sans-serif" font-size="13" font-weight="bold" lengthAdjust="spacing" textLength="14" x="1871" y="1013.2998">29</text><text fill="#000000" font-family="sans-serif" font-size="13" lengthAdjust="spacing" textLength="26" x="1889" y="1013.2998">error</text><polygon fill="#181818" points="1434,1044.5078,1424,1048.5078,1434,1052.5078,1430,1048.5078" style="stroke:#181818;stroke-width:1.0;"/><line style="stroke:#181818;stroke-width:1.0;stroke-dasharray:2.0,2.0;" x1="1428" x2="1843" y1="1048.5078" y2="1048.5078"/><text fill="#000000" font-family="sans-serif" font-size="13" font-weight="bold" lengthAdjust="spacing" textLength="14" x="1440" y="1043.6514">30</text><text fill="#000000" font-family="sans-serif" font-size="13" lengthAdjust="spacing" textLength="26" x="1458" y="1043.6514">error</text><polygon fill="#181818" points="68,1074.8594,58,1078.8594,68,1082.8594,64,1078.8594" style="stroke:#181818;stroke-width:1.0;"/><line style="stroke:#181818;stroke-width:1.0;stroke-dasharray:2.0,2.0;" x1="62" x2="1412" y1="1078.8594" y2="1078.8594"/><text fill="#000000" font-family="sans-serif" font-size="13" font-weight="bold" lengthAdjust="spacing" textLength="14" x="74" y="1074.0029">31</text><text fill="#000000" font-family="sans-serif" font-size="13" lengthAdjust="spacing" textLength="26" x="92" y="1074.0029">error</text><polygon fill="#181818" points="2003,1112.2109,1993,1116.2109,2003,1120.2109,1999,1116.2109" style="stroke:#181818;stroke-width:1.0;"/><line style="stroke:#181818;stroke-width:1.0;stroke-dasharray:2.0,2.0;" x1="1997" x2="2244" y1="1116.2109" y2="1116.2109"/><text fill="#000000" font-family="sans-serif" font-size="13" font-weight="bold" lengthAdjust="spacing" textLength="14" x="2009" y="1111.3545">32</text><text fill="#000000" font-family="sans-serif" font-size="13" lengthAdjust="spacing" textLength="32" x="2027" y="1111.3545">floor[]</text><polygon fill="#181818" points="2115,1142.5625,2125,1146.5625,2115,1150.5625,2119,1146.5625" style="stroke:#181818;stroke-width:1.0;"/><line style="stroke:#181818;stroke-width:1.0;" x1="1992" x2="2121" y1="1146.5625" y2="1146.5625"/><text fill="#000000" font-family="sans-serif" font-size="13" font-weight="bold" lengthAdjust="spacing" textLength="14" x="1999" y="1141.7061">33</text><text fill="#000000" font-family="sans-serif" font-size="13" lengthAdjust="spacing" textLength="58" x="2017" y="1141.7061">save(floor)</text><polygon fill="#181818" points="2515.5,1172.9141,2525.5,1176.9141,2515.5,1180.9141,2519.5,1176.9141" style="stroke:#181818;stroke-width:1.0;"/><line style="stroke:#181818;stroke-width:1.0;" x1="2137" x2="2521.5" y1="1176.9141" y2="1176.9141"/><text fill="#000000" font-family="sans-serif" font-size="13" font-weight="bold" lengthAdjust="spacing" textLength="14" x="2144" y="1172.0576">34</text><text fill="#000000" font-family="sans-serif" font-size="13" lengthAdjust="spacing" textLength="112" x="2162" y="1172.0576">toPersistence(floor)</text><polygon fill="#181818" points="2148,1203.2656,2138,1207.2656,2148,1211.2656,2144,1207.2656" style="stroke:#181818;stroke-width:1.0;"/><line style="stroke:#181818;stroke-width:1.0;stroke-dasharray:2.0,2.0;" x1="2142" x2="2531.5" y1="1207.2656" y2="1207.2656"/><text fill="#000000" font-family="sans-serif" font-size="13" font-weight="bold" lengthAdjust="spacing" textLength="14" x="2154" y="1202.4092">35</text><text fill="#000000" font-family="sans-serif" font-size="13" lengthAdjust="spacing" textLength="32" x="2172" y="1202.4092">floor[]</text><polygon fill="#181818" points="2415.5,1233.6172,2425.5,1237.6172,2415.5,1241.6172,2419.5,1237.6172" style="stroke:#181818;stroke-width:1.0;"/><line style="stroke:#181818;stroke-width:1.0;" x1="2137" x2="2421.5" y1="1237.6172" y2="1237.6172"/><text fill="#000000" font-family="sans-serif" font-size="13" font-weight="bold" lengthAdjust="spacing" textLength="14" x="2144" y="1232.7607">36</text><text fill="#000000" font-family="sans-serif" font-size="13" lengthAdjust="spacing" textLength="93" x="2162" y="1232.7607">create(rawFloor)</text><polygon fill="#181818" points="2515.5,1293.9688,2525.5,1297.9688,2515.5,1301.9688,2519.5,1297.9688" style="stroke:#181818;stroke-width:1.0;"/><line style="stroke:#181818;stroke-width:1.0;" x1="2137" x2="2521.5" y1="1297.9688" y2="1297.9688"/><text fill="#000000" font-family="sans-serif" font-size="13" font-weight="bold" lengthAdjust="spacing" textLength="14" x="2144" y="1293.1123">37</text><text fill="#000000" font-family="sans-serif" font-size="13" lengthAdjust="spacing" textLength="63" x="2162" y="1293.1123">toDomain()</text><polygon fill="#181818" points="2143,1324.3203,2133,1328.3203,2143,1332.3203,2139,1328.3203" style="stroke:#181818;stroke-width:1.0;"/><line style="stroke:#181818;stroke-width:1.0;stroke-dasharray:2.0,2.0;" x1="2137" x2="2531.5" y1="1328.3203" y2="1328.3203"/><text fill="#000000" font-family="sans-serif" font-size="13" font-weight="bold" lengthAdjust="spacing" textLength="14" x="2149" y="1323.4639">38</text><text fill="#000000" font-family="sans-serif" font-size="13" lengthAdjust="spacing" textLength="32" x="2167" y="1323.4639">floor[]</text><polygon fill="#181818" points="2318,1354.6719,2328,1358.6719,2318,1362.6719,2322,1358.6719" style="stroke:#181818;stroke-width:1.0;"/><line style="stroke:#181818;stroke-width:1.0;" x1="1992" x2="2324" y1="1358.6719" y2="1358.6719"/><text fill="#000000" font-family="sans-serif" font-size="13" font-weight="bold" lengthAdjust="spacing" textLength="14" x="1999" y="1353.8154">39</text><text fill="#000000" font-family="sans-serif" font-size="13" lengthAdjust="spacing" textLength="69" x="2017" y="1353.8154">toDTO(floor)</text><polygon fill="#181818" points="2003,1385.0234,1993,1389.0234,2003,1393.0234,1999,1389.0234" style="stroke:#181818;stroke-width:1.0;"/><line style="stroke:#181818;stroke-width:1.0;stroke-dasharray:2.0,2.0;" x1="1997" x2="2334" y1="1389.0234" y2="1389.0234"/><text fill="#000000" font-family="sans-serif" font-size="13" font-weight="bold" lengthAdjust="spacing" textLength="14" x="2009" y="1384.167">40</text><text fill="#000000" font-family="sans-serif" font-size="13" lengthAdjust="spacing" textLength="18" x="2027" y="1384.167">dto</text><polygon fill="#181818" points="1865,1415.375,1855,1419.375,1865,1423.375,1861,1419.375" style="stroke:#181818;stroke-width:1.0;"/><line style="stroke:#181818;stroke-width:1.0;stroke-dasharray:2.0,2.0;" x1="1859" x2="1986" y1="1419.375" y2="1419.375"/><text fill="#000000" font-family="sans-serif" font-size="13" font-weight="bold" lengthAdjust="spacing" textLength="14" x="1871" y="1414.5186">41</text><text fill="#000000" font-family="sans-serif" font-size="13" lengthAdjust="spacing" textLength="51" x="1889" y="1414.5186">Success</text><polygon fill="#181818" points="1434,1445.7266,1424,1449.7266,1434,1453.7266,1430,1449.7266" style="stroke:#181818;stroke-width:1.0;"/><line style="stroke:#181818;stroke-width:1.0;stroke-dasharray:2.0,2.0;" x1="1428" x2="1848" y1="1449.7266" y2="1449.7266"/><text fill="#000000" font-family="sans-serif" font-size="13" font-weight="bold" lengthAdjust="spacing" textLength="14" x="1440" y="1444.8701">42</text><text fill="#000000" font-family="sans-serif" font-size="13" lengthAdjust="spacing" textLength="51" x="1458" y="1444.8701">Success</text><polygon fill="#181818" points="964,1476.0781,954,1480.0781,964,1484.0781,960,1480.0781" style="stroke:#181818;stroke-width:1.0;"/><line style="stroke:#181818;stroke-width:1.0;stroke-dasharray:2.0,2.0;" x1="958" x2="1417" y1="1480.0781" y2="1480.0781"/><text fill="#000000" font-family="sans-serif" font-size="13" font-weight="bold" lengthAdjust="spacing" textLength="14" x="970" y="1475.2217">43</text><text fill="#000000" font-family="sans-serif" font-size="13" lengthAdjust="spacing" textLength="51" x="988" y="1475.2217">Success</text><polygon fill="#181818" points="533,1506.4297,523,1510.4297,533,1514.4297,529,1510.4297" style="stroke:#181818;stroke-width:1.0;"/><line style="stroke:#181818;stroke-width:1.0;stroke-dasharray:2.0,2.0;" x1="527" x2="947" y1="1510.4297" y2="1510.4297"/><text fill="#000000" font-family="sans-serif" font-size="13" font-weight="bold" lengthAdjust="spacing" textLength="14" x="539" y="1505.5732">44</text><text fill="#000000" font-family="sans-serif" font-size="13" lengthAdjust="spacing" textLength="51" x="557" y="1505.5732">Success</text><polygon fill="#181818" points="63,1536.7813,53,1540.7813,63,1544.7813,59,1540.7813" style="stroke:#181818;stroke-width:1.0;"/><line style="stroke:#181818;stroke-width:1.0;stroke-dasharray:2.0,2.0;" x1="57" x2="516" y1="1540.7813" y2="1540.7813"/><text fill="#000000" font-family="sans-serif" font-size="13" font-weight="bold" lengthAdjust="spacing" textLength="14" x="69" y="1535.9248">45</text><text fill="#000000" font-family="sans-serif" font-size="13" lengthAdjust="spacing" textLength="51" x="87" y="1535.9248">Success</text><!--MD5=[5354ff57b7f2da9b2fe9c9293b6ca031]
@startuml
autonumber

participant ":System" as SY
participant ":FloorComponent (Angular)" as FC
participant ":FloorService (Angular)" as FS

participant ":FloorRoute" as FL
participant ":FloorController" as CTRL
participant ":FloorService" as SERV
participant ":FloorRepository" as REPO
participant ":floor: Floor" as FLOOR
participant ":FloorDto" as DTO
participant ":FloorSchema" as SCHEMA
participant ":FloorMap" as MAP

participant ":BuildingRoute" as BR
participant ":BuildingController" as BCTRL
participant ":BuildingService" as BSERV
participant ":BuildingRepository" as BREPO
participant ":BuildingSchema" as BSCHEMA
participant ":BuildingMap" as BMAP

activate SY
SY -> FC : GET loadBuildings()
activate FC
FC -> FC : ngOnInit() 
FC -> FS : getBuildings()
activate FS
FS -> BR : GET getBuildings()
activate BR
BR -> BCTRL : listBuilding()
activate BCTRL
BCTRL ->  BSERV : ListBuilding()
activate BSERV
BSERV -> BREPO : listAll()
activate BREPO 
BREPO -> BSCHEMA : find()
activate BSCHEMA
deactivate BSCHEMA
BREPO -> BMAP : toDomain()
activate BMAP
BMAP - -> BREPO : buildings[]
deactivate BMAP
BREPO - -> BSERV : buildings[]
deactivate BREPO
BSERV - -> BCTRL : buildings[]
deactivate BSERV
BCTRL - -> BR : buildings[]
deactivate BCTRL
BR - -> FS : buildings[]
deactivate BR
FS - -> FC : buildings[]
deactivate FS
FC - -> SY : buildings[]
deactivate FC
deactivate SY

SY -> FC : POST createFloor(floorId, floorDescription, { widthStr, depthStr }, building)
activate SY
activate FC
FC -> FS : createFloor(floorId, floorDescription, { widthStr, depthStr }, building)
activate FS
FS -> FL : POST createFloor(floorId, floorDescription, { widthStr, depthStr }, building)
activate FL
FL -> CTRL : createFloor(floorId, floorDescription, { widthStr, depthStr }, building)
activate CTRL
CTRL -> SERV : createFloor(dto)
activate SERV
SERV -> REPO : findByDomainId()
activate REPO
REPO -> SCHEMA : findOne()
activate SCHEMA
deactivate SCHEMA
REPO -> MAP : toDomain()
activate MAP
MAP - -> REPO : floor[]
deactivate MAP
REPO - -> SERV : floor[]
deactivate REPO
SERV -> FLOOR : create(dto)
activate FLOOR
alt "Erro na criação do piso"
FLOOR - -> SERV : error
SERV - -> CTRL : error
CTRL - -> FL : error
FL - -> SY : error
end
FLOOR - -> SERV : floor[]
deactivate FLOOR
SERV -> REPO : save(floor)
activate REPO
REPO -> MAP : toPersistence(floor)
activate MAP
MAP - -> REPO : floor[]
deactivate MAP
REPO -> SCHEMA : create(rawFloor)
activate SCHEMA
deactivate SCHEMA
REPO -> MAP : toDomain()
activate MAP
MAP - -> REPO : floor[]
deactivate MAP
deactivate REPO
SERV -> DTO : toDTO(floor)
activate DTO
DTO - -> SERV : dto
deactivate DTO
SERV - -> CTRL : Success
deactivate SERV
CTRL - -> FL :Success
deactivate CTRL
FL - -> FS : Success 
deactivate FL
FS - -> FC : Success
deactivate FS
FC - -> SY : Success
deactivate FC
deactivate SY

@enduml

PlantUML version 1.2022.7(Mon Aug 22 18:01:30 BST 2022)
(GPL source distribution)
Java Runtime: OpenJDK Runtime Environment
JVM: OpenJDK 64-Bit Server VM
Default Encoding: Cp1252
Language: pt
Country: PT
--></g></svg>