<?xml version="1.0" encoding="us-ascii" standalone="no"?><svg xmlns="http://www.w3.org/2000/svg" xmlns:xlink="http://www.w3.org/1999/xlink" contentStyleType="text/css" height="798px" preserveAspectRatio="none" style="width:1467px;height:798px;background:#FFFFFF;" version="1.1" viewBox="0 0 1467 798" width="1467px" zoomAndPan="magnify"><defs/><g><rect fill="#FFFFFF" height="23.291" style="stroke:#181818;stroke-width:1.0;" width="10" x="62" y="79.6211"/><rect fill="#FFFFFF" height="597.2383" style="stroke:#181818;stroke-width:1.0;" width="10" x="254" y="102.9121"/><rect fill="#FFFFFF" height="51.582" style="stroke:#181818;stroke-width:1.0;" width="10" x="375" y="198.7852"/><rect fill="#FFFFFF" height="383.2012" style="stroke:#181818;stroke-width:1.0;" width="10" x="375" y="325.9492"/><rect fill="#FFFFFF" height="351.9102" style="stroke:#181818;stroke-width:1.0;" width="10" x="586" y="357.2402"/><rect fill="#FFFFFF" height="249.0371" style="stroke:#181818;stroke-width:1.0;" width="10" x="797" y="388.5313"/><rect fill="#FFFFFF" height="289.3281" style="stroke:#181818;stroke-width:1.0;" width="10" x="1017" y="419.8223"/><rect fill="#FFFFFF" height="30" style="stroke:#181818;stroke-width:1.0;" width="10" x="1147" y="482.4043"/><rect fill="#FFFFFF" height="31.291" style="stroke:#181818;stroke-width:1.0;" width="10" x="1300.5" y="574.9863"/><line style="stroke:#181818;stroke-width:0.5;stroke-dasharray:5.0,5.0;" x1="67" x2="67" y1="69.6211" y2="718.1504"/><line style="stroke:#181818;stroke-width:0.5;stroke-dasharray:5.0,5.0;" x1="259" x2="259" y1="69.6211" y2="718.1504"/><line style="stroke:#181818;stroke-width:0.5;stroke-dasharray:5.0,5.0;" x1="379.5" x2="379.5" y1="69.6211" y2="718.1504"/><line style="stroke:#181818;stroke-width:0.5;stroke-dasharray:5.0,5.0;" x1="590.5" x2="590.5" y1="69.6211" y2="718.1504"/><line style="stroke:#181818;stroke-width:0.5;stroke-dasharray:5.0,5.0;" x1="802" x2="802" y1="69.6211" y2="718.1504"/><line style="stroke:#181818;stroke-width:0.5;stroke-dasharray:5.0,5.0;" x1="904" x2="904" y1="69.6211" y2="718.1504"/><line style="stroke:#181818;stroke-width:0.5;stroke-dasharray:5.0,5.0;" x1="1021.5" x2="1021.5" y1="69.6211" y2="718.1504"/><line style="stroke:#181818;stroke-width:0.5;stroke-dasharray:5.0,5.0;" x1="1151.5" x2="1151.5" y1="69.6211" y2="718.1504"/><line style="stroke:#181818;stroke-width:0.5;stroke-dasharray:5.0,5.0;" x1="1305.5" x2="1305.5" y1="69.6211" y2="718.1504"/><line style="stroke:#181818;stroke-width:0.5;stroke-dasharray:5.0,5.0;" x1="1431.5" x2="1431.5" y1="69.6211" y2="718.1504"/><rect fill="#E2E2F0" height="32.6211" rx="2.5" ry="2.5" style="stroke:#181818;stroke-width:0.5;" width="124" x="5" y="36"/><text fill="#000000" font-family="sans-serif" font-size="14" lengthAdjust="spacing" textLength="110" x="12" y="58.1074">:FloorComponent</text><rect fill="#E2E2F0" height="32.6211" rx="2.5" ry="2.5" style="stroke:#181818;stroke-width:0.5;" width="124" x="5" y="717.1504"/><text fill="#000000" font-family="sans-serif" font-size="14" lengthAdjust="spacing" textLength="110" x="12" y="739.2578">:FloorComponent</text><rect fill="#E2E2F0" height="32.6211" rx="2.5" ry="2.5" style="stroke:#181818;stroke-width:0.5;" width="146" x="186" y="36"/><text fill="#000000" font-family="sans-serif" font-size="14" lengthAdjust="spacing" textLength="132" x="193" y="58.1074">:ListFloorComponent</text><rect fill="#E2E2F0" height="32.6211" rx="2.5" ry="2.5" style="stroke:#181818;stroke-width:0.5;" width="146" x="186" y="717.1504"/><text fill="#000000" font-family="sans-serif" font-size="14" lengthAdjust="spacing" textLength="132" x="193" y="739.2578">:ListFloorComponent</text><rect fill="#E2E2F0" height="32.6211" rx="2.5" ry="2.5" style="stroke:#181818;stroke-width:0.5;" width="61" x="349.5" y="36"/><text fill="#000000" font-family="sans-serif" font-size="14" lengthAdjust="spacing" textLength="47" x="356.5" y="58.1074">:Router</text><rect fill="#E2E2F0" height="32.6211" rx="2.5" ry="2.5" style="stroke:#181818;stroke-width:0.5;" width="61" x="349.5" y="717.1504"/><text fill="#000000" font-family="sans-serif" font-size="14" lengthAdjust="spacing" textLength="47" x="356.5" y="739.2578">:Router</text><rect fill="#E2E2F0" height="32.6211" rx="2.5" ry="2.5" style="stroke:#181818;stroke-width:0.5;" width="113" x="534.5" y="36"/><text fill="#000000" font-family="sans-serif" font-size="14" lengthAdjust="spacing" textLength="99" x="541.5" y="58.1074">:FloorController</text><rect fill="#E2E2F0" height="32.6211" rx="2.5" ry="2.5" style="stroke:#181818;stroke-width:0.5;" width="113" x="534.5" y="717.1504"/><text fill="#000000" font-family="sans-serif" font-size="14" lengthAdjust="spacing" textLength="99" x="541.5" y="739.2578">:FloorController</text><rect fill="#E2E2F0" height="32.6211" rx="2.5" ry="2.5" style="stroke:#181818;stroke-width:0.5;" width="98" x="753" y="36"/><text fill="#000000" font-family="sans-serif" font-size="14" lengthAdjust="spacing" textLength="84" x="760" y="58.1074">:FloorService</text><rect fill="#E2E2F0" height="32.6211" rx="2.5" ry="2.5" style="stroke:#181818;stroke-width:0.5;" width="98" x="753" y="717.1504"/><text fill="#000000" font-family="sans-serif" font-size="14" lengthAdjust="spacing" textLength="84" x="760" y="739.2578">:FloorService</text><rect fill="#E2E2F0" height="32.6211" rx="2.5" ry="2.5" style="stroke:#181818;stroke-width:0.5;" width="87" x="861" y="36"/><text fill="#000000" font-family="sans-serif" font-size="14" lengthAdjust="spacing" textLength="73" x="868" y="58.1074">:floor: Floor</text><rect fill="#E2E2F0" height="32.6211" rx="2.5" ry="2.5" style="stroke:#181818;stroke-width:0.5;" width="87" x="861" y="717.1504"/><text fill="#000000" font-family="sans-serif" font-size="14" lengthAdjust="spacing" textLength="73" x="868" y="739.2578">:floor: Floor</text><rect fill="#E2E2F0" height="32.6211" rx="2.5" ry="2.5" style="stroke:#181818;stroke-width:0.5;" width="119" x="962.5" y="36"/><text fill="#000000" font-family="sans-serif" font-size="14" lengthAdjust="spacing" textLength="105" x="969.5" y="58.1074">:FloorRepository</text><rect fill="#E2E2F0" height="32.6211" rx="2.5" ry="2.5" style="stroke:#181818;stroke-width:0.5;" width="119" x="962.5" y="717.1504"/><text fill="#000000" font-family="sans-serif" font-size="14" lengthAdjust="spacing" textLength="105" x="969.5" y="739.2578">:FloorRepository</text><rect fill="#E2E2F0" height="32.6211" rx="2.5" ry="2.5" style="stroke:#181818;stroke-width:0.5;" width="121" x="1091.5" y="36"/><text fill="#000000" font-family="sans-serif" font-size="14" lengthAdjust="spacing" textLength="107" x="1098.5" y="58.1074">list: List&lt;TEntity&gt;</text><rect fill="#E2E2F0" height="32.6211" rx="2.5" ry="2.5" style="stroke:#181818;stroke-width:0.5;" width="121" x="1091.5" y="717.1504"/><text fill="#000000" font-family="sans-serif" font-size="14" lengthAdjust="spacing" textLength="107" x="1098.5" y="739.2578">list: List&lt;TEntity&gt;</text><rect fill="#E2E2F0" height="32.6211" rx="2.5" ry="2.5" style="stroke:#181818;stroke-width:0.5;" width="166" x="1222.5" y="36"/><text fill="#000000" font-family="sans-serif" font-size="14" lengthAdjust="spacing" textLength="152" x="1229.5" y="58.1074">listDTO : List&lt;FloorDto&gt;</text><rect fill="#E2E2F0" height="32.6211" rx="2.5" ry="2.5" style="stroke:#181818;stroke-width:0.5;" width="166" x="1222.5" y="717.1504"/><text fill="#000000" font-family="sans-serif" font-size="14" lengthAdjust="spacing" textLength="152" x="1229.5" y="739.2578">listDTO : List&lt;FloorDto&gt;</text><text fill="#000000" font-family="sans-serif" font-size="14" lengthAdjust="spacing" textLength="61" x="1398.5" y="66.1074">Database</text><path d="M1414,15 C1414,5 1432,5 1432,5 C1432,5 1450,5 1450,15 L1450,41 C1450,51 1432,51 1432,51 C1432,51 1414,51 1414,41 L1414,15 " fill="#E2E2F0" style="stroke:#181818;stroke-width:1.5;"/><path d="M1414,15 C1414,25 1432,25 1432,25 C1432,25 1450,25 1450,15 " fill="none" style="stroke:#181818;stroke-width:1.5;"/><text fill="#000000" font-family="sans-serif" font-size="14" lengthAdjust="spacing" textLength="61" x="1398.5" y="732.2578">Database</text><path d="M1414,745.7715 C1414,735.7715 1432,735.7715 1432,735.7715 C1432,735.7715 1450,735.7715 1450,745.7715 L1450,771.7715 C1450,781.7715 1432,781.7715 1432,781.7715 C1432,781.7715 1414,781.7715 1414,771.7715 L1414,745.7715 " fill="#E2E2F0" style="stroke:#181818;stroke-width:1.5;"/><path d="M1414,745.7715 C1414,755.7715 1432,755.7715 1432,755.7715 C1432,755.7715 1450,755.7715 1450,745.7715 " fill="none" style="stroke:#181818;stroke-width:1.5;"/><rect fill="#FFFFFF" height="23.291" style="stroke:#181818;stroke-width:1.0;" width="10" x="62" y="79.6211"/><rect fill="#FFFFFF" height="597.2383" style="stroke:#181818;stroke-width:1.0;" width="10" x="254" y="102.9121"/><rect fill="#FFFFFF" height="51.582" style="stroke:#181818;stroke-width:1.0;" width="10" x="375" y="198.7852"/><rect fill="#FFFFFF" height="383.2012" style="stroke:#181818;stroke-width:1.0;" width="10" x="375" y="325.9492"/><rect fill="#FFFFFF" height="351.9102" style="stroke:#181818;stroke-width:1.0;" width="10" x="586" y="357.2402"/><rect fill="#FFFFFF" height="249.0371" style="stroke:#181818;stroke-width:1.0;" width="10" x="797" y="388.5313"/><rect fill="#FFFFFF" height="289.3281" style="stroke:#181818;stroke-width:1.0;" width="10" x="1017" y="419.8223"/><rect fill="#FFFFFF" height="30" style="stroke:#181818;stroke-width:1.0;" width="10" x="1147" y="482.4043"/><rect fill="#FFFFFF" height="31.291" style="stroke:#181818;stroke-width:1.0;" width="10" x="1300.5" y="574.9863"/><polygon fill="#181818" points="242,98.9121,252,102.9121,242,106.9121,246,102.9121" style="stroke:#181818;stroke-width:1.0;"/><line style="stroke:#181818;stroke-width:1.0;" x1="67" x2="248" y1="102.9121" y2="102.9121"/><text fill="#000000" font-family="sans-serif" font-size="13" font-weight="bold" lengthAdjust="spacing" textLength="7" x="74" y="97.6494">1</text><text fill="#000000" font-family="sans-serif" font-size="13" lengthAdjust="spacing" textLength="152" x="85" y="97.6494">showListFloorForm  = true</text><line style="stroke:#181818;stroke-width:1.0;" x1="264" x2="306" y1="134.2031" y2="134.2031"/><line style="stroke:#181818;stroke-width:1.0;" x1="306" x2="306" y1="134.2031" y2="147.2031"/><line style="stroke:#181818;stroke-width:1.0;" x1="265" x2="306" y1="147.2031" y2="147.2031"/><polygon fill="#181818" points="275,143.2031,265,147.2031,275,151.2031,271,147.2031" style="stroke:#181818;stroke-width:1.0;"/><text fill="#000000" font-family="sans-serif" font-size="13" font-weight="bold" lengthAdjust="spacing" textLength="7" x="271" y="128.9404">2</text><text fill="#000000" font-family="sans-serif" font-size="13" lengthAdjust="spacing" textLength="85" x="282" y="128.9404">loadBuildings()</text><polygon fill="#181818" points="363,194.7852,373,198.7852,363,202.7852,367,198.7852" style="stroke:#181818;stroke-width:1.0;"/><line style="stroke:#181818;stroke-width:1.0;stroke-dasharray:2.0,2.0;" x1="264" x2="369" y1="198.7852" y2="198.7852"/><text fill="#000000" font-family="sans-serif" font-size="13" font-weight="bold" lengthAdjust="spacing" textLength="7" x="271" y="193.5225">3</text><text fill="#000000" font-family="sans-serif" font-size="13" lengthAdjust="spacing" textLength="74" x="282" y="193.5225">GET building</text><path d="M390,160.2031 L390,221.2031 L524,221.2031 L524,170.2031 L514,160.2031 L390,160.2031 " fill="#FEFFDD" style="stroke:#181818;stroke-width:0.5;"/><path d="M514,160.2031 L514,170.2031 L524,170.2031 L514,160.2031 " fill="#FEFFDD" style="stroke:#181818;stroke-width:0.5;"/><text fill="#000000" font-family="sans-serif" font-size="13" lengthAdjust="spacing" textLength="65" x="396" y="179.2314">US-170 SD</text><text fill="#000000" font-family="sans-serif" font-size="13" lengthAdjust="spacing" textLength="105" x="400" y="196.5225">to obtain buildings</text><text fill="#000000" font-family="sans-serif" font-size="13" lengthAdjust="spacing" textLength="84" x="400" y="213.8135">from the router</text><polygon fill="#181818" points="275,246.3672,265,250.3672,275,254.3672,271,250.3672" style="stroke:#181818;stroke-width:1.0;"/><line style="stroke:#181818;stroke-width:1.0;stroke-dasharray:2.0,2.0;" x1="269" x2="379" y1="250.3672" y2="250.3672"/><text fill="#000000" font-family="sans-serif" font-size="13" font-weight="bold" lengthAdjust="spacing" textLength="7" x="281" y="245.1045">4</text><text fill="#000000" font-family="sans-serif" font-size="13" lengthAdjust="spacing" textLength="72" x="292" y="245.1045">buildingsList</text><line style="stroke:#181818;stroke-width:1.0;" x1="264" x2="306" y1="281.6582" y2="281.6582"/><line style="stroke:#181818;stroke-width:1.0;" x1="306" x2="306" y1="281.6582" y2="294.6582"/><line style="stroke:#181818;stroke-width:1.0;" x1="265" x2="306" y1="294.6582" y2="294.6582"/><polygon fill="#181818" points="275,290.6582,265,294.6582,275,298.6582,271,294.6582" style="stroke:#181818;stroke-width:1.0;"/><text fill="#000000" font-family="sans-serif" font-size="13" font-weight="bold" lengthAdjust="spacing" textLength="7" x="271" y="276.3955">5</text><text fill="#000000" font-family="sans-serif" font-size="13" lengthAdjust="spacing" textLength="86" x="282" y="276.3955">fetchFloorList()</text><polygon fill="#181818" points="363,321.9492,373,325.9492,363,329.9492,367,325.9492" style="stroke:#181818;stroke-width:1.0;"/><line style="stroke:#181818;stroke-width:1.0;stroke-dasharray:2.0,2.0;" x1="264" x2="369" y1="325.9492" y2="325.9492"/><text fill="#000000" font-family="sans-serif" font-size="13" font-weight="bold" lengthAdjust="spacing" textLength="7" x="271" y="320.6865">6</text><text fill="#000000" font-family="sans-serif" font-size="13" lengthAdjust="spacing" textLength="61" x="282" y="320.6865">GET pisos</text><polygon fill="#181818" points="574,353.2402,584,357.2402,574,361.2402,578,357.2402" style="stroke:#181818;stroke-width:1.0;"/><line style="stroke:#181818;stroke-width:1.0;" x1="385" x2="580" y1="357.2402" y2="357.2402"/><text fill="#000000" font-family="sans-serif" font-size="13" font-weight="bold" lengthAdjust="spacing" textLength="7" x="392" y="351.9775">7</text><text fill="#000000" font-family="sans-serif" font-size="13" lengthAdjust="spacing" textLength="171" x="403" y="351.9775">getFloorByBuilding(buildingId)</text><polygon fill="#181818" points="785,384.5313,795,388.5313,785,392.5313,789,388.5313" style="stroke:#181818;stroke-width:1.0;"/><line style="stroke:#181818;stroke-width:1.0;" x1="596" x2="791" y1="388.5313" y2="388.5313"/><text fill="#000000" font-family="sans-serif" font-size="13" font-weight="bold" lengthAdjust="spacing" textLength="7" x="603" y="383.2686">8</text><text fill="#000000" font-family="sans-serif" font-size="13" lengthAdjust="spacing" textLength="171" x="614" y="383.2686">getFloorByBuilding(buildingId)</text><polygon fill="#181818" points="1005,415.8223,1015,419.8223,1005,423.8223,1009,419.8223" style="stroke:#181818;stroke-width:1.0;"/><line style="stroke:#181818;stroke-width:1.0;" x1="807" x2="1011" y1="419.8223" y2="419.8223"/><text fill="#000000" font-family="sans-serif" font-size="13" font-weight="bold" lengthAdjust="spacing" textLength="7" x="814" y="414.5596">9</text><text fill="#000000" font-family="sans-serif" font-size="13" lengthAdjust="spacing" textLength="180" x="825" y="414.5596">findFloorsByBuilding(buildingId)</text><polygon fill="#181818" points="1420,447.1133,1430,451.1133,1420,455.1133,1424,451.1133" style="stroke:#181818;stroke-width:1.0;"/><line style="stroke:#181818;stroke-width:1.0;" x1="1027" x2="1426" y1="451.1133" y2="451.1133"/><text fill="#000000" font-family="sans-serif" font-size="13" font-weight="bold" lengthAdjust="spacing" textLength="14" x="1034" y="445.8506">10</text><text fill="#000000" font-family="sans-serif" font-size="13" lengthAdjust="spacing" textLength="57" x="1052" y="445.8506">read(floor)</text><polygon fill="#181818" points="1135,478.4043,1145,482.4043,1135,486.4043,1139,482.4043" style="stroke:#181818;stroke-width:1.0;"/><line style="stroke:#181818;stroke-width:1.0;stroke-dasharray:2.0,2.0;" x1="1027" x2="1141" y1="482.4043" y2="482.4043"/><text fill="#000000" font-family="sans-serif" font-size="13" font-weight="bold" lengthAdjust="spacing" textLength="14" x="1034" y="477.1416">11</text><text fill="#000000" font-family="sans-serif" font-size="13" lengthAdjust="spacing" textLength="44" x="1052" y="477.1416">create()</text><polygon fill="#181818" points="818,539.6953,808,543.6953,818,547.6953,814,543.6953" style="stroke:#181818;stroke-width:1.0;"/><line style="stroke:#181818;stroke-width:1.0;stroke-dasharray:2.0,2.0;" x1="812" x2="1016" y1="543.6953" y2="543.6953"/><text fill="#000000" font-family="sans-serif" font-size="13" font-weight="bold" lengthAdjust="spacing" textLength="14" x="824" y="538.4326">12</text><text fill="#000000" font-family="sans-serif" font-size="13" lengthAdjust="spacing" textLength="17" x="842" y="538.4326">list</text><polygon fill="#181818" points="1288.5,570.9863,1298.5,574.9863,1288.5,578.9863,1292.5,574.9863" style="stroke:#181818;stroke-width:1.0;"/><line style="stroke:#181818;stroke-width:1.0;stroke-dasharray:2.0,2.0;" x1="807" x2="1294.5" y1="574.9863" y2="574.9863"/><text fill="#000000" font-family="sans-serif" font-size="13" font-weight="bold" lengthAdjust="spacing" textLength="14" x="814" y="569.7236">13</text><text fill="#000000" font-family="sans-serif" font-size="13" lengthAdjust="spacing" textLength="69" x="832" y="569.7236">toDTO(floor)</text><polygon fill="#181818" points="818,602.2773,808,606.2773,818,610.2773,814,606.2773" style="stroke:#181818;stroke-width:1.0;"/><line style="stroke:#181818;stroke-width:1.0;stroke-dasharray:2.0,2.0;" x1="812" x2="1304.5" y1="606.2773" y2="606.2773"/><text fill="#000000" font-family="sans-serif" font-size="13" font-weight="bold" lengthAdjust="spacing" textLength="14" x="824" y="601.0146">14</text><text fill="#000000" font-family="sans-serif" font-size="13" lengthAdjust="spacing" textLength="4" x="842" y="601.0146">&#160;</text><polygon fill="#181818" points="607,633.5684,597,637.5684,607,641.5684,603,637.5684" style="stroke:#181818;stroke-width:1.0;"/><line style="stroke:#181818;stroke-width:1.0;stroke-dasharray:2.0,2.0;" x1="601" x2="801" y1="637.5684" y2="637.5684"/><text fill="#000000" font-family="sans-serif" font-size="13" font-weight="bold" lengthAdjust="spacing" textLength="14" x="613" y="632.3057">15</text><text fill="#000000" font-family="sans-serif" font-size="13" lengthAdjust="spacing" textLength="4" x="631" y="632.3057">&#160;</text><polygon fill="#181818" points="396,664.8594,386,668.8594,396,672.8594,392,668.8594" style="stroke:#181818;stroke-width:1.0;"/><line style="stroke:#181818;stroke-width:1.0;stroke-dasharray:2.0,2.0;" x1="390" x2="585" y1="668.8594" y2="668.8594"/><text fill="#000000" font-family="sans-serif" font-size="13" font-weight="bold" lengthAdjust="spacing" textLength="14" x="402" y="663.5967">16</text><text fill="#000000" font-family="sans-serif" font-size="13" lengthAdjust="spacing" textLength="4" x="420" y="663.5967">&#160;</text><polygon fill="#181818" points="270,696.1504,260,700.1504,270,704.1504,266,700.1504" style="stroke:#181818;stroke-width:1.0;"/><line style="stroke:#181818;stroke-width:1.0;stroke-dasharray:2.0,2.0;" x1="264" x2="374" y1="700.1504" y2="700.1504"/><text fill="#000000" font-family="sans-serif" font-size="13" font-weight="bold" lengthAdjust="spacing" textLength="14" x="276" y="694.8877">17</text><text fill="#000000" font-family="sans-serif" font-size="13" lengthAdjust="spacing" textLength="51" x="294" y="694.8877">Success</text><!--SRC=[bLB1Zjem4BtxAqPxWWDIUrefQZaia6gbIAoIjATUJ6B0Kl14zcGh_hxsn0c1ZRJQ74ZmlFVcpVZ9Zj1qbuEoefMMTALRQGYUahH1j1kyj6YKeIUG3jBD0oRJZcPmVFm0pR4ZPNkPRBwL8OjD4q6RCf-55Sg-wqenfjZbVnumnu19WA6nsNwVpmdbgaMd2UsLSVdkRNyFQ_mK2S_oezmPqdHTzzEz5kL7vBRSGqIp_9QmX_l25z6YbYGFqYdOnWyXP4NwNP8ATv1kOBNkbmo9E-E_yHfIj1U0dq2sKw9MKz9DeR-TddxJWGPb_TBffjRcv1PBCI0y9Cry_TUkX4EiJ-na0lnZq7zRVJhxZVqkLj-Vlq6nXRy6204F9BKPkIuS7orUWCwUmx4GliDgucN4XeExGRAFne-AgZEF7qwyyndZhNRexbo7ZcjEcOUSLB-_b-kmWSLWuRLUtdWSIkPuRaZV5xWSLkPuRaXRiAvDpMJt6PlZoIpF7cBX5QoIzO93lupbi1cVq0GgNoErc8XmSYVRvFyZAyuJuXbzXbOSL4B_7jgCz50JuUV6dgg7A8ywST7JEY-aNsQygiSO55rLAUVkB7Du_mC0]--></g></svg>