<?xml version="1.0" encoding="UTF-8" standalone="no"?><svg xmlns="http://www.w3.org/2000/svg" xmlns:xlink="http://www.w3.org/1999/xlink" contentStyleType="text/css" height="1321px" preserveAspectRatio="none" style="width:2416px;height:1321px;background:#FFFFFF;" version="1.1" viewBox="0 0 2416 1321" width="2416px" zoomAndPan="magnify"><defs/><g><line style="stroke:#181818;stroke-width:0.5;stroke-dasharray:5.0,5.0;" x1="69" x2="69" y1="37.6094" y2="1284.6719"/><line style="stroke:#181818;stroke-width:0.5;stroke-dasharray:5.0,5.0;" x1="303" x2="303" y1="37.6094" y2="1284.6719"/><line style="stroke:#181818;stroke-width:0.5;stroke-dasharray:5.0,5.0;" x1="514" x2="514" y1="37.6094" y2="1284.6719"/><line style="stroke:#181818;stroke-width:0.5;stroke-dasharray:5.0,5.0;" x1="665.5" x2="665.5" y1="37.6094" y2="1284.6719"/><line style="stroke:#181818;stroke-width:0.5;stroke-dasharray:5.0,5.0;" x1="768" x2="768" y1="37.6094" y2="1284.6719"/><line style="stroke:#181818;stroke-width:0.5;stroke-dasharray:5.0,5.0;" x1="896" x2="896" y1="37.6094" y2="1284.6719"/><line style="stroke:#181818;stroke-width:0.5;stroke-dasharray:5.0,5.0;" x1="1011" x2="1011" y1="37.6094" y2="1284.6719"/><line style="stroke:#181818;stroke-width:0.5;stroke-dasharray:5.0,5.0;" x1="1127" x2="1127" y1="37.6094" y2="1284.6719"/><line style="stroke:#181818;stroke-width:0.5;stroke-dasharray:5.0,5.0;" x1="1249" x2="1249" y1="37.6094" y2="1284.6719"/><line style="stroke:#181818;stroke-width:0.5;stroke-dasharray:5.0,5.0;" x1="1361" x2="1361" y1="37.6094" y2="1284.6719"/><line style="stroke:#181818;stroke-width:0.5;stroke-dasharray:5.0,5.0;" x1="1458" x2="1458" y1="37.6094" y2="1284.6719"/><line style="stroke:#181818;stroke-width:0.5;stroke-dasharray:5.0,5.0;" x1="1558" x2="1558" y1="37.6094" y2="1284.6719"/><line style="stroke:#181818;stroke-width:0.5;stroke-dasharray:5.0,5.0;" x1="1675" x2="1675" y1="37.6094" y2="1284.6719"/><line style="stroke:#181818;stroke-width:0.5;stroke-dasharray:5.0,5.0;" x1="1955.5" x2="1955.5" y1="37.6094" y2="1284.6719"/><line style="stroke:#181818;stroke-width:0.5;stroke-dasharray:5.0,5.0;" x1="2173" x2="2173" y1="37.6094" y2="1284.6719"/><line style="stroke:#181818;stroke-width:0.5;stroke-dasharray:5.0,5.0;" x1="2319" x2="2319" y1="37.6094" y2="1284.6719"/><rect fill="#E2E2F0" height="31.6094" rx="2.5" ry="2.5" style="stroke:#181818;stroke-width:0.5;" width="128" x="5" y="5"/><text fill="#000000" font-family="sans-serif" font-size="14" lengthAdjust="spacing" textLength="114" x="12" y="26.5332">BridgeComponent</text><rect fill="#E2E2F0" height="31.6094" rx="2.5" ry="2.5" style="stroke:#181818;stroke-width:0.5;" width="128" x="5" y="1283.6719"/><text fill="#000000" font-family="sans-serif" font-size="14" lengthAdjust="spacing" textLength="114" x="12" y="1305.2051">BridgeComponent</text><rect fill="#E2E2F0" height="31.6094" rx="2.5" ry="2.5" style="stroke:#181818;stroke-width:0.5;" width="190" x="208" y="5"/><text fill="#000000" font-family="sans-serif" font-size="14" lengthAdjust="spacing" textLength="176" x="215" y="26.5332">ListFloorsBridgeComponent</text><rect fill="#E2E2F0" height="31.6094" rx="2.5" ry="2.5" style="stroke:#181818;stroke-width:0.5;" width="190" x="208" y="1283.6719"/><text fill="#000000" font-family="sans-serif" font-size="14" lengthAdjust="spacing" textLength="176" x="215" y="1305.2051">ListFloorsBridgeComponent</text><rect fill="#E2E2F0" height="31.6094" rx="2.5" ry="2.5" style="stroke:#181818;stroke-width:0.5;" width="146" x="441" y="5"/><text fill="#000000" font-family="sans-serif" font-size="14" lengthAdjust="spacing" textLength="132" x="448" y="26.5332">HttpRequestsService</text><rect fill="#E2E2F0" height="31.6094" rx="2.5" ry="2.5" style="stroke:#181818;stroke-width:0.5;" width="146" x="441" y="1283.6719"/><text fill="#000000" font-family="sans-serif" font-size="14" lengthAdjust="spacing" textLength="132" x="448" y="1305.2051">HttpRequestsService</text><rect fill="#E2E2F0" height="31.6094" rx="2.5" ry="2.5" style="stroke:#181818;stroke-width:0.5;" width="57" x="637.5" y="5"/><text fill="#000000" font-family="sans-serif" font-size="14" lengthAdjust="spacing" textLength="43" x="644.5" y="26.5332">Router</text><rect fill="#E2E2F0" height="31.6094" rx="2.5" ry="2.5" style="stroke:#181818;stroke-width:0.5;" width="57" x="637.5" y="1283.6719"/><text fill="#000000" font-family="sans-serif" font-size="14" lengthAdjust="spacing" textLength="43" x="644.5" y="1305.2051">Router</text><rect fill="#E2E2F0" height="31.6094" rx="2.5" ry="2.5" style="stroke:#181818;stroke-width:0.5;" width="126" x="705" y="5"/><text fill="#000000" font-family="sans-serif" font-size="14" lengthAdjust="spacing" textLength="112" x="712" y="26.5332">BuildingController</text><rect fill="#E2E2F0" height="31.6094" rx="2.5" ry="2.5" style="stroke:#181818;stroke-width:0.5;" width="126" x="705" y="1283.6719"/><text fill="#000000" font-family="sans-serif" font-size="14" lengthAdjust="spacing" textLength="112" x="712" y="1305.2051">BuildingController</text><rect fill="#E2E2F0" height="31.6094" rx="2.5" ry="2.5" style="stroke:#181818;stroke-width:0.5;" width="111" x="841" y="5"/><text fill="#000000" font-family="sans-serif" font-size="14" lengthAdjust="spacing" textLength="97" x="848" y="26.5332">BuildingService</text><rect fill="#E2E2F0" height="31.6094" rx="2.5" ry="2.5" style="stroke:#181818;stroke-width:0.5;" width="111" x="841" y="1283.6719"/><text fill="#000000" font-family="sans-serif" font-size="14" lengthAdjust="spacing" textLength="97" x="848" y="1305.2051">BuildingService</text><rect fill="#E2E2F0" height="31.6094" rx="2.5" ry="2.5" style="stroke:#181818;stroke-width:0.5;" width="98" x="962" y="5"/><text fill="#000000" font-family="sans-serif" font-size="14" lengthAdjust="spacing" textLength="84" x="969" y="26.5332">BuildingRepo</text><rect fill="#E2E2F0" height="31.6094" rx="2.5" ry="2.5" style="stroke:#181818;stroke-width:0.5;" width="98" x="962" y="1283.6719"/><text fill="#000000" font-family="sans-serif" font-size="14" lengthAdjust="spacing" textLength="84" x="969" y="1305.2051">BuildingRepo</text><rect fill="#E2E2F0" height="31.6094" rx="2.5" ry="2.5" style="stroke:#181818;stroke-width:0.5;" width="115" x="1070" y="5"/><text fill="#000000" font-family="sans-serif" font-size="14" lengthAdjust="spacing" textLength="101" x="1077" y="26.5332">BuildingSchema</text><rect fill="#E2E2F0" height="31.6094" rx="2.5" ry="2.5" style="stroke:#181818;stroke-width:0.5;" width="115" x="1070" y="1283.6719"/><text fill="#000000" font-family="sans-serif" font-size="14" lengthAdjust="spacing" textLength="101" x="1077" y="1305.2051">BuildingSchema</text><rect fill="#E2E2F0" height="31.6094" rx="2.5" ry="2.5" style="stroke:#181818;stroke-width:0.5;" width="109" x="1195" y="5"/><text fill="#000000" font-family="sans-serif" font-size="14" lengthAdjust="spacing" textLength="95" x="1202" y="26.5332">FloorController</text><rect fill="#E2E2F0" height="31.6094" rx="2.5" ry="2.5" style="stroke:#181818;stroke-width:0.5;" width="109" x="1195" y="1283.6719"/><text fill="#000000" font-family="sans-serif" font-size="14" lengthAdjust="spacing" textLength="95" x="1202" y="1305.2051">FloorController</text><rect fill="#E2E2F0" height="31.6094" rx="2.5" ry="2.5" style="stroke:#181818;stroke-width:0.5;" width="94" x="1314" y="5"/><text fill="#000000" font-family="sans-serif" font-size="14" lengthAdjust="spacing" textLength="80" x="1321" y="26.5332">FloorService</text><rect fill="#E2E2F0" height="31.6094" rx="2.5" ry="2.5" style="stroke:#181818;stroke-width:0.5;" width="94" x="1314" y="1283.6719"/><text fill="#000000" font-family="sans-serif" font-size="14" lengthAdjust="spacing" textLength="80" x="1321" y="1305.2051">FloorService</text><rect fill="#E2E2F0" height="31.6094" rx="2.5" ry="2.5" style="stroke:#181818;stroke-width:0.5;" width="81" x="1418" y="5"/><text fill="#000000" font-family="sans-serif" font-size="14" lengthAdjust="spacing" textLength="67" x="1425" y="26.5332">FloorRepo</text><rect fill="#E2E2F0" height="31.6094" rx="2.5" ry="2.5" style="stroke:#181818;stroke-width:0.5;" width="81" x="1418" y="1283.6719"/><text fill="#000000" font-family="sans-serif" font-size="14" lengthAdjust="spacing" textLength="67" x="1425" y="1305.2051">FloorRepo</text><rect fill="#E2E2F0" height="31.6094" rx="2.5" ry="2.5" style="stroke:#181818;stroke-width:0.5;" width="98" x="1509" y="5"/><text fill="#000000" font-family="sans-serif" font-size="14" lengthAdjust="spacing" textLength="84" x="1516" y="26.5332">FloorSchema</text><rect fill="#E2E2F0" height="31.6094" rx="2.5" ry="2.5" style="stroke:#181818;stroke-width:0.5;" width="98" x="1509" y="1283.6719"/><text fill="#000000" font-family="sans-serif" font-size="14" lengthAdjust="spacing" textLength="84" x="1516" y="1305.2051">FloorSchema</text><rect fill="#E2E2F0" height="31.6094" rx="2.5" ry="2.5" style="stroke:#181818;stroke-width:0.5;" width="117" x="1617" y="5"/><text fill="#000000" font-family="sans-serif" font-size="14" lengthAdjust="spacing" textLength="103" x="1624" y="26.5332">BridgeController</text><rect fill="#E2E2F0" height="31.6094" rx="2.5" ry="2.5" style="stroke:#181818;stroke-width:0.5;" width="117" x="1617" y="1283.6719"/><text fill="#000000" font-family="sans-serif" font-size="14" lengthAdjust="spacing" textLength="103" x="1624" y="1305.2051">BridgeController</text><rect fill="#E2E2F0" height="31.6094" rx="2.5" ry="2.5" style="stroke:#181818;stroke-width:0.5;" width="102" x="1904.5" y="5"/><text fill="#000000" font-family="sans-serif" font-size="14" lengthAdjust="spacing" textLength="88" x="1911.5" y="26.5332">BridgeService</text><rect fill="#E2E2F0" height="31.6094" rx="2.5" ry="2.5" style="stroke:#181818;stroke-width:0.5;" width="102" x="1904.5" y="1283.6719"/><text fill="#000000" font-family="sans-serif" font-size="14" lengthAdjust="spacing" textLength="88" x="1911.5" y="1305.2051">BridgeService</text><rect fill="#E2E2F0" height="31.6094" rx="2.5" ry="2.5" style="stroke:#181818;stroke-width:0.5;" width="89" x="2129" y="5"/><text fill="#000000" font-family="sans-serif" font-size="14" lengthAdjust="spacing" textLength="75" x="2136" y="26.5332">BridgeRepo</text><rect fill="#E2E2F0" height="31.6094" rx="2.5" ry="2.5" style="stroke:#181818;stroke-width:0.5;" width="89" x="2129" y="1283.6719"/><text fill="#000000" font-family="sans-serif" font-size="14" lengthAdjust="spacing" textLength="75" x="2136" y="1305.2051">BridgeRepo</text><rect fill="#E2E2F0" height="31.6094" rx="2.5" ry="2.5" style="stroke:#181818;stroke-width:0.5;" width="182" x="2228" y="5"/><text fill="#000000" font-family="sans-serif" font-size="14" lengthAdjust="spacing" textLength="168" x="2235" y="26.5332">BridgeMapInformationDTO</text><rect fill="#E2E2F0" height="31.6094" rx="2.5" ry="2.5" style="stroke:#181818;stroke-width:0.5;" width="182" x="2228" y="1283.6719"/><text fill="#000000" font-family="sans-serif" font-size="14" lengthAdjust="spacing" textLength="168" x="2235" y="1305.2051">BridgeMapInformationDTO</text><polygon fill="#181818" points="291,65.9609,301,69.9609,291,73.9609,295,69.9609" style="stroke:#181818;stroke-width:1.0;"/><line style="stroke:#181818;stroke-width:1.0;" x1="69" x2="297" y1="69.9609" y2="69.9609"/><text fill="#000000" font-family="sans-serif" font-size="13" lengthAdjust="spacing" textLength="210" x="76" y="65.1045">Activate/ListFloorsBridgeComponent</text><line style="stroke:#181818;stroke-width:1.0;" x1="303" x2="345" y1="100.3125" y2="100.3125"/><line style="stroke:#181818;stroke-width:1.0;" x1="345" x2="345" y1="100.3125" y2="113.3125"/><line style="stroke:#181818;stroke-width:1.0;" x1="304" x2="345" y1="113.3125" y2="113.3125"/><polygon fill="#181818" points="314,109.3125,304,113.3125,314,117.3125,310,113.3125" style="stroke:#181818;stroke-width:1.0;"/><text fill="#000000" font-family="sans-serif" font-size="13" lengthAdjust="spacing" textLength="56" x="310" y="95.4561">ngOnInit()</text><polygon fill="#181818" points="502,139.6641,512,143.6641,502,147.6641,506,143.6641" style="stroke:#181818;stroke-width:1.0;"/><line style="stroke:#181818;stroke-width:1.0;" x1="303" x2="508" y1="143.6641" y2="143.6641"/><text fill="#000000" font-family="sans-serif" font-size="13" lengthAdjust="spacing" textLength="79" x="310" y="138.8076">getBuildings()</text><polygon fill="#181818" points="654,170.0156,664,174.0156,654,178.0156,658,174.0156" style="stroke:#181818;stroke-width:1.0;"/><line style="stroke:#181818;stroke-width:1.0;" x1="514" x2="660" y1="174.0156" y2="174.0156"/><text fill="#000000" font-family="sans-serif" font-size="13" lengthAdjust="spacing" textLength="99" x="521" y="169.1592">GET /building/list</text><polygon fill="#181818" points="756,200.3672,766,204.3672,756,208.3672,760,204.3672" style="stroke:#181818;stroke-width:1.0;"/><line style="stroke:#181818;stroke-width:1.0;" x1="666" x2="762" y1="204.3672" y2="204.3672"/><text fill="#000000" font-family="sans-serif" font-size="13" lengthAdjust="spacing" textLength="78" x="673" y="199.5107">listBuildings()</text><polygon fill="#181818" points="884.5,230.7188,894.5,234.7188,884.5,238.7188,888.5,234.7188" style="stroke:#181818;stroke-width:1.0;"/><line style="stroke:#181818;stroke-width:1.0;" x1="768" x2="890.5" y1="234.7188" y2="234.7188"/><text fill="#000000" font-family="sans-serif" font-size="13" lengthAdjust="spacing" textLength="94" x="775" y="229.8623">getAllBuildings()</text><polygon fill="#181818" points="999,261.0703,1009,265.0703,999,269.0703,1003,265.0703" style="stroke:#181818;stroke-width:1.0;"/><line style="stroke:#181818;stroke-width:1.0;" x1="896.5" x2="1005" y1="265.0703" y2="265.0703"/><text fill="#000000" font-family="sans-serif" font-size="13" lengthAdjust="spacing" textLength="40" x="903.5" y="260.2139">listAll()</text><polygon fill="#181818" points="1115.5,291.4219,1125.5,295.4219,1115.5,299.4219,1119.5,295.4219" style="stroke:#181818;stroke-width:1.0;"/><line style="stroke:#181818;stroke-width:1.0;" x1="1011" x2="1121.5" y1="295.4219" y2="295.4219"/><text fill="#000000" font-family="sans-serif" font-size="13" lengthAdjust="spacing" textLength="28" x="1018" y="290.5654">find()</text><polygon fill="#181818" points="1022,321.7734,1012,325.7734,1022,329.7734,1018,325.7734" style="stroke:#181818;stroke-width:1.0;"/><line style="stroke:#181818;stroke-width:1.0;stroke-dasharray:2.0,2.0;" x1="1016" x2="1126.5" y1="325.7734" y2="325.7734"/><text fill="#000000" font-family="sans-serif" font-size="13" lengthAdjust="spacing" textLength="82" x="1028" y="320.917">buildingDocs[]</text><polygon fill="#181818" points="907.5,352.125,897.5,356.125,907.5,360.125,903.5,356.125" style="stroke:#181818;stroke-width:1.0;"/><line style="stroke:#181818;stroke-width:1.0;stroke-dasharray:2.0,2.0;" x1="901.5" x2="1010" y1="356.125" y2="356.125"/><text fill="#000000" font-family="sans-serif" font-size="13" lengthAdjust="spacing" textLength="59" x="913.5" y="351.2686">buildings[]</text><polygon fill="#181818" points="779,382.4766,769,386.4766,779,390.4766,775,386.4766" style="stroke:#181818;stroke-width:1.0;"/><line style="stroke:#181818;stroke-width:1.0;stroke-dasharray:2.0,2.0;" x1="773" x2="895.5" y1="386.4766" y2="386.4766"/><text fill="#000000" font-family="sans-serif" font-size="13" lengthAdjust="spacing" textLength="59" x="785" y="381.6201">buildings[]</text><polygon fill="#181818" points="677,412.8281,667,416.8281,677,420.8281,673,416.8281" style="stroke:#181818;stroke-width:1.0;"/><line style="stroke:#181818;stroke-width:1.0;stroke-dasharray:2.0,2.0;" x1="671" x2="767" y1="416.8281" y2="416.8281"/><text fill="#000000" font-family="sans-serif" font-size="13" lengthAdjust="spacing" textLength="59" x="683" y="411.9717">buildings[]</text><polygon fill="#181818" points="525,443.1797,515,447.1797,525,451.1797,521,447.1797" style="stroke:#181818;stroke-width:1.0;"/><line style="stroke:#181818;stroke-width:1.0;stroke-dasharray:2.0,2.0;" x1="519" x2="665" y1="447.1797" y2="447.1797"/><text fill="#000000" font-family="sans-serif" font-size="13" lengthAdjust="spacing" textLength="59" x="531" y="442.3232">buildings[]</text><polygon fill="#181818" points="314,473.5313,304,477.5313,314,481.5313,310,477.5313" style="stroke:#181818;stroke-width:1.0;"/><line style="stroke:#181818;stroke-width:1.0;stroke-dasharray:2.0,2.0;" x1="308" x2="513" y1="477.5313" y2="477.5313"/><text fill="#000000" font-family="sans-serif" font-size="13" lengthAdjust="spacing" textLength="59" x="320" y="472.6748">buildings[]</text><polygon fill="#181818" points="502,503.8828,512,507.8828,502,511.8828,506,507.8828" style="stroke:#181818;stroke-width:1.0;"/><line style="stroke:#181818;stroke-width:1.0;" x1="303" x2="508" y1="507.8828" y2="507.8828"/><text fill="#000000" font-family="sans-serif" font-size="13" lengthAdjust="spacing" textLength="124" x="310" y="503.0264">getRequest('floor/get')</text><polygon fill="#181818" points="1237.5,534.2344,1247.5,538.2344,1237.5,542.2344,1241.5,538.2344" style="stroke:#181818;stroke-width:1.0;"/><line style="stroke:#181818;stroke-width:1.0;" x1="514" x2="1243.5" y1="538.2344" y2="538.2344"/><text fill="#000000" font-family="sans-serif" font-size="13" lengthAdjust="spacing" textLength="80" x="521" y="533.3779">GET /floor/get</text><polygon fill="#181818" points="1349,564.5859,1359,568.5859,1349,572.5859,1353,568.5859" style="stroke:#181818;stroke-width:1.0;"/><line style="stroke:#181818;stroke-width:1.0;" x1="1249.5" x2="1355" y1="568.5859" y2="568.5859"/><text fill="#000000" font-family="sans-serif" font-size="13" lengthAdjust="spacing" textLength="77" x="1256.5" y="563.7295">getAllFloors()</text><polygon fill="#181818" points="1446.5,594.9375,1456.5,598.9375,1446.5,602.9375,1450.5,598.9375" style="stroke:#181818;stroke-width:1.0;"/><line style="stroke:#181818;stroke-width:1.0;" x1="1361" x2="1452.5" y1="598.9375" y2="598.9375"/><text fill="#000000" font-family="sans-serif" font-size="13" lengthAdjust="spacing" textLength="40" x="1368" y="594.0811">listAll()</text><polygon fill="#181818" points="1546,625.2891,1556,629.2891,1546,633.2891,1550,629.2891" style="stroke:#181818;stroke-width:1.0;"/><line style="stroke:#181818;stroke-width:1.0;" x1="1458.5" x2="1552" y1="629.2891" y2="629.2891"/><text fill="#000000" font-family="sans-serif" font-size="13" lengthAdjust="spacing" textLength="28" x="1465.5" y="624.4326">find()</text><polygon fill="#181818" points="1469.5,655.6406,1459.5,659.6406,1469.5,663.6406,1465.5,659.6406" style="stroke:#181818;stroke-width:1.0;"/><line style="stroke:#181818;stroke-width:1.0;stroke-dasharray:2.0,2.0;" x1="1463.5" x2="1557" y1="659.6406" y2="659.6406"/><text fill="#000000" font-family="sans-serif" font-size="13" lengthAdjust="spacing" textLength="62" x="1475.5" y="654.7842">floorDocs[]</text><polygon fill="#181818" points="1372,685.9922,1362,689.9922,1372,693.9922,1368,689.9922" style="stroke:#181818;stroke-width:1.0;"/><line style="stroke:#181818;stroke-width:1.0;stroke-dasharray:2.0,2.0;" x1="1366" x2="1457.5" y1="689.9922" y2="689.9922"/><text fill="#000000" font-family="sans-serif" font-size="13" lengthAdjust="spacing" textLength="39" x="1378" y="685.1357">floors[]</text><polygon fill="#181818" points="1260.5,716.3438,1250.5,720.3438,1260.5,724.3438,1256.5,720.3438" style="stroke:#181818;stroke-width:1.0;"/><line style="stroke:#181818;stroke-width:1.0;stroke-dasharray:2.0,2.0;" x1="1254.5" x2="1360" y1="720.3438" y2="720.3438"/><text fill="#000000" font-family="sans-serif" font-size="13" lengthAdjust="spacing" textLength="39" x="1266.5" y="715.4873">floors[]</text><polygon fill="#181818" points="525,746.6953,515,750.6953,525,754.6953,521,750.6953" style="stroke:#181818;stroke-width:1.0;"/><line style="stroke:#181818;stroke-width:1.0;stroke-dasharray:2.0,2.0;" x1="519" x2="1248.5" y1="750.6953" y2="750.6953"/><text fill="#000000" font-family="sans-serif" font-size="13" lengthAdjust="spacing" textLength="39" x="531" y="745.8389">floors[]</text><polygon fill="#181818" points="314,777.0469,304,781.0469,314,785.0469,310,781.0469" style="stroke:#181818;stroke-width:1.0;"/><line style="stroke:#181818;stroke-width:1.0;stroke-dasharray:2.0,2.0;" x1="308" x2="513" y1="781.0469" y2="781.0469"/><text fill="#000000" font-family="sans-serif" font-size="13" lengthAdjust="spacing" textLength="39" x="320" y="776.1904">floors[]</text><polygon fill="#181818" points="502,807.3984,512,811.3984,502,815.3984,506,811.3984" style="stroke:#181818;stroke-width:1.0;"/><line style="stroke:#181818;stroke-width:1.0;" x1="303" x2="508" y1="811.3984" y2="811.3984"/><text fill="#000000" font-family="sans-serif" font-size="13" lengthAdjust="spacing" textLength="187" x="310" y="806.542">getRequest('bridge/' + buildingId)</text><polygon fill="#181818" points="654,837.75,664,841.75,654,845.75,658,841.75" style="stroke:#181818;stroke-width:1.0;"/><line style="stroke:#181818;stroke-width:1.0;" x1="514" x2="660" y1="841.75" y2="841.75"/><text fill="#000000" font-family="sans-serif" font-size="13" lengthAdjust="spacing" textLength="128" x="521" y="836.8936">GET /bridge/:buildingX</text><polygon fill="#181818" points="1663.5,868.1016,1673.5,872.1016,1663.5,876.1016,1667.5,872.1016" style="stroke:#181818;stroke-width:1.0;"/><line style="stroke:#181818;stroke-width:1.0;" x1="666" x2="1669.5" y1="872.1016" y2="872.1016"/><text fill="#000000" font-family="sans-serif" font-size="13" lengthAdjust="spacing" textLength="202" x="673" y="867.2451">listFloorsWithBridge(req, res, next)</text><polygon fill="#181818" points="1943.5,898.4531,1953.5,902.4531,1943.5,906.4531,1947.5,902.4531" style="stroke:#181818;stroke-width:1.0;"/><line style="stroke:#181818;stroke-width:1.0;" x1="1675.5" x2="1949.5" y1="902.4531" y2="902.4531"/><text fill="#000000" font-family="sans-serif" font-size="13" lengthAdjust="spacing" textLength="256" x="1682.5" y="897.5967">getAllFloorsWithBridges(buildingToGetFloor)</text><polygon fill="#181818" points="1022,928.8047,1012,932.8047,1022,936.8047,1018,932.8047" style="stroke:#181818;stroke-width:1.0;"/><line style="stroke:#181818;stroke-width:1.0;" x1="1016" x2="1954.5" y1="932.8047" y2="932.8047"/><text fill="#000000" font-family="sans-serif" font-size="13" lengthAdjust="spacing" textLength="108" x="1028" y="927.9482">findById(buildingId)</text><polygon fill="#181818" points="1943.5,959.1563,1953.5,963.1563,1943.5,967.1563,1947.5,963.1563" style="stroke:#181818;stroke-width:1.0;"/><line style="stroke:#181818;stroke-width:1.0;stroke-dasharray:2.0,2.0;" x1="1011" x2="1949.5" y1="963.1563" y2="963.1563"/><text fill="#000000" font-family="sans-serif" font-size="13" lengthAdjust="spacing" textLength="71" x="1018" y="958.2998">buildingData</text><polygon fill="#181818" points="2161.5,989.5078,2171.5,993.5078,2161.5,997.5078,2165.5,993.5078" style="stroke:#181818;stroke-width:1.0;"/><line style="stroke:#181818;stroke-width:1.0;" x1="1955.5" x2="2167.5" y1="993.5078" y2="993.5078"/><text fill="#000000" font-family="sans-serif" font-size="13" lengthAdjust="spacing" textLength="194" x="1962.5" y="988.6514">listAllWithBuilding(checkBuilding)</text><polygon fill="#181818" points="1966.5,1019.8594,1956.5,1023.8594,1966.5,1027.8594,1962.5,1023.8594" style="stroke:#181818;stroke-width:1.0;"/><line style="stroke:#181818;stroke-width:1.0;stroke-dasharray:2.0,2.0;" x1="1960.5" x2="2172.5" y1="1023.8594" y2="1023.8594"/><text fill="#000000" font-family="sans-serif" font-size="13" lengthAdjust="spacing" textLength="50" x="1972.5" y="1019.0029">bridges[]</text><polygon fill="#181818" points="1469.5,1050.2109,1459.5,1054.2109,1469.5,1058.2109,1465.5,1054.2109" style="stroke:#181818;stroke-width:1.0;"/><line style="stroke:#181818;stroke-width:1.0;" x1="1463.5" x2="1954.5" y1="1054.2109" y2="1054.2109"/><text fill="#000000" font-family="sans-serif" font-size="13" lengthAdjust="spacing" textLength="132" x="1475.5" y="1049.3545">findByDomainId(floorId)</text><polygon fill="#181818" points="1943.5,1080.5625,1953.5,1084.5625,1943.5,1088.5625,1947.5,1084.5625" style="stroke:#181818;stroke-width:1.0;"/><line style="stroke:#181818;stroke-width:1.0;stroke-dasharray:2.0,2.0;" x1="1458.5" x2="1949.5" y1="1084.5625" y2="1084.5625"/><text fill="#000000" font-family="sans-serif" font-size="13" lengthAdjust="spacing" textLength="51" x="1465.5" y="1079.7061">floorData</text><polygon fill="#181818" points="2307,1110.9141,2317,1114.9141,2307,1118.9141,2311,1114.9141" style="stroke:#181818;stroke-width:1.0;"/><line style="stroke:#181818;stroke-width:1.0;" x1="1955.5" x2="2313" y1="1114.9141" y2="1114.9141"/><text fill="#000000" font-family="sans-serif" font-size="13" lengthAdjust="spacing" textLength="184" x="1962.5" y="1110.0576">toDTO(getBridge, floorX, floorY))</text><polygon fill="#181818" points="1966.5,1141.2656,1956.5,1145.2656,1966.5,1149.2656,1962.5,1145.2656" style="stroke:#181818;stroke-width:1.0;"/><line style="stroke:#181818;stroke-width:1.0;stroke-dasharray:2.0,2.0;" x1="1960.5" x2="2318" y1="1145.2656" y2="1145.2656"/><text fill="#000000" font-family="sans-serif" font-size="13" lengthAdjust="spacing" textLength="124" x="1972.5" y="1140.4092">bridgeInformationDTO</text><polygon fill="#181818" points="1686.5,1171.6172,1676.5,1175.6172,1686.5,1179.6172,1682.5,1175.6172" style="stroke:#181818;stroke-width:1.0;"/><line style="stroke:#181818;stroke-width:1.0;stroke-dasharray:2.0,2.0;" x1="1680.5" x2="1954.5" y1="1175.6172" y2="1175.6172"/><text fill="#000000" font-family="sans-serif" font-size="13" lengthAdjust="spacing" textLength="132" x="1692.5" y="1170.7607">bridgeInformationDTO[]</text><polygon fill="#181818" points="677,1201.9688,667,1205.9688,677,1209.9688,673,1205.9688" style="stroke:#181818;stroke-width:1.0;"/><line style="stroke:#181818;stroke-width:1.0;" x1="671" x2="1674.5" y1="1205.9688" y2="1205.9688"/><text fill="#000000" font-family="sans-serif" font-size="13" lengthAdjust="spacing" textLength="132" x="683" y="1201.1123">bridgeInformationDTO[]</text><polygon fill="#181818" points="525,1232.3203,515,1236.3203,525,1240.3203,521,1236.3203" style="stroke:#181818;stroke-width:1.0;"/><line style="stroke:#181818;stroke-width:1.0;" x1="519" x2="665" y1="1236.3203" y2="1236.3203"/><text fill="#000000" font-family="sans-serif" font-size="13" lengthAdjust="spacing" textLength="53" x="531" y="1231.4639">response</text><polygon fill="#181818" points="314,1262.6719,304,1266.6719,314,1270.6719,310,1266.6719" style="stroke:#181818;stroke-width:1.0;"/><line style="stroke:#181818;stroke-width:1.0;" x1="308" x2="513" y1="1266.6719" y2="1266.6719"/><text fill="#000000" font-family="sans-serif" font-size="13" lengthAdjust="spacing" textLength="82" x="320" y="1261.8154">response data</text><!--MD5=[458cd5f616b9edf03ad050b54a36cb45]
@startuml

BridgeComponent -> ListFloorsBridgeComponent : Activate/ListFloorsBridgeComponent
ListFloorsBridgeComponent -> ListFloorsBridgeComponent : ngOnInit()

ListFloorsBridgeComponent -> HttpRequestsService : getBuildings()
HttpRequestsService -> Router : GET /building/list
Router -> BuildingController : listBuildings()
BuildingController -> BuildingService : getAllBuildings()
BuildingService -> BuildingRepo : listAll()
BuildingRepo -> BuildingSchema : find()
BuildingSchema - -> BuildingRepo : buildingDocs[]
BuildingRepo - -> BuildingService : buildings[]
BuildingService - -> BuildingController : buildings[]
BuildingController - -> Router : buildings[]
Router - -> HttpRequestsService : buildings[]
HttpRequestsService - -> ListFloorsBridgeComponent : buildings[]


ListFloorsBridgeComponent -> HttpRequestsService : getRequest('floor/get')
HttpRequestsService -> FloorController : GET /floor/get
FloorController -> FloorService : getAllFloors()
FloorService -> FloorRepo : listAll()
FloorRepo -> FloorSchema : find()
FloorSchema - -> FloorRepo : floorDocs[]
FloorRepo - -> FloorService : floors[]
FloorService - -> FloorController : floors[]
FloorController - -> HttpRequestsService : floors[]
HttpRequestsService - -> ListFloorsBridgeComponent : floors[]

ListFloorsBridgeComponent -> HttpRequestsService : getRequest('bridge/' + buildingId)
HttpRequestsService -> Router : GET /bridge/:buildingX
Router -> BridgeController : listFloorsWithBridge(req, res, next)

BridgeController -> BridgeService : getAllFloorsWithBridges(buildingToGetFloor)

BridgeService -> BuildingRepo : findById(buildingId)
BuildingRepo - -> BridgeService : buildingData

BridgeService -> BridgeRepo : listAllWithBuilding(checkBuilding)
BridgeRepo - -> BridgeService : bridges[]

BridgeService -> FloorRepo : findByDomainId(floorId)
FloorRepo - -> BridgeService : floorData

BridgeService -> BridgeMapInformationDTO : toDTO(getBridge, floorX, floorY))
BridgeMapInformationDTO - -> BridgeService : bridgeInformationDTO

BridgeService - -> BridgeController : bridgeInformationDTO[]

BridgeController -> Router : bridgeInformationDTO[]
Router -> HttpRequestsService : response
HttpRequestsService -> ListFloorsBridgeComponent : response data

@enduml

PlantUML version 1.2022.7(Mon Aug 22 18:01:30 WEST 2022)
(GPL source distribution)
Java Runtime: Java(TM) SE Runtime Environment
JVM: Java HotSpot(TM) 64-Bit Server VM
Default Encoding: UTF-8
Language: pt
Country: PT
--></g></svg>