<?xml version="1.0" encoding="us-ascii" standalone="no"?><svg xmlns="http://www.w3.org/2000/svg" xmlns:xlink="http://www.w3.org/1999/xlink" contentStyleType="text/css" height="1003.1px" preserveAspectRatio="none" style="width:1221px;height:1003px;background:#FFFFFF;" version="1.1" viewBox="0 0 1221 1003" width="1221.5px" zoomAndPan="magnify"><defs/><g><rect fill="#FFFFFF" height="16.3037" style="stroke:#181818;stroke-width:0.6999999999999998;" width="7" x="43.4" y="55.7348"/><rect fill="#FFFFFF" height="862.6447" style="stroke:#181818;stroke-width:0.6999999999999998;" width="7" x="189" y="72.0385"/><rect fill="#FFFFFF" height="36.1074" style="stroke:#181818;stroke-width:0.6999999999999998;" width="7" x="315.7" y="139.1496"/><rect fill="#FFFFFF" height="36.1074" style="stroke:#181818;stroke-width:0.6999999999999998;" width="7" x="315.7" y="242.3682"/><rect fill="#FFFFFF" height="578.5965" style="stroke:#181818;stroke-width:0.6999999999999998;" width="7" x="315.7" y="362.3867"/><rect fill="#FFFFFF" height="215.5371" style="stroke:#181818;stroke-width:0.6999999999999998;" width="7" x="455" y="384.2904"/><rect fill="#FFFFFF" height="171.7297" style="stroke:#181818;stroke-width:0.6999999999999998;" width="7" x="631.4" y="450.0016"/><rect fill="#FFFFFF" height="245.8408" style="stroke:#181818;stroke-width:0.6999999999999998;" width="7" x="631.4" y="645.035"/><rect fill="#FFFFFF" height="21.9037" style="stroke:#181818;stroke-width:0.6999999999999998;" width="7" x="731.5" y="671.8387"/><rect fill="#FFFFFF" height="65.7111" style="stroke:#181818;stroke-width:0.6999999999999998;" width="7" x="832.65" y="490.309"/><rect fill="#FFFFFF" height="23.3037" style="stroke:#181818;stroke-width:0.6999999999999998;" width="7" x="832.65" y="621.7312"/><rect fill="#FFFFFF" height="65.7111" style="stroke:#181818;stroke-width:0.6999999999999998;" width="7" x="832.65" y="715.6461"/><rect fill="#FFFFFF" height="65.7111" style="stroke:#181818;stroke-width:0.6999999999999998;" width="7" x="930.65" y="803.2609"/><rect fill="#FFFFFF" height="21.9037" style="stroke:#181818;stroke-width:0.6999999999999998;" width="7" x="1034.95" y="825.1646"/><rect fill="#FFFFFF" height="21.9037" style="stroke:#181818;stroke-width:0.6999999999999998;" width="7" x="1182.65" y="512.2127"/><rect fill="#FFFFFF" height="21.9037" style="stroke:#181818;stroke-width:0.6999999999999998;" width="7" x="1182.65" y="737.5498"/><rect fill="none" height="190.1334" style="stroke:#000000;stroke-width:1.0499999999999998;" width="1101.45" x="115.15" y="460.5016"/><line style="stroke:#181818;stroke-width:0.3499999999999999;stroke-dasharray:5.0,5.0;" x1="46.9" x2="46.9" y1="48.7348" y2="947.2832"/><line style="stroke:#181818;stroke-width:0.3499999999999999;stroke-dasharray:5.0,5.0;" x1="192.15" x2="192.15" y1="48.7348" y2="947.2832"/><line style="stroke:#181818;stroke-width:0.3499999999999999;stroke-dasharray:5.0,5.0;" x1="319.2" x2="319.2" y1="48.7348" y2="947.2832"/><line style="stroke:#181818;stroke-width:0.3499999999999999;stroke-dasharray:5.0,5.0;" x1="458.15" x2="458.15" y1="48.7348" y2="947.2832"/><line style="stroke:#181818;stroke-width:0.3499999999999999;stroke-dasharray:5.0,5.0;" x1="634.9" x2="634.9" y1="48.7348" y2="947.2832"/><line style="stroke:#181818;stroke-width:0.3499999999999999;stroke-dasharray:5.0,5.0;" x1="735" x2="735" y1="48.7348" y2="947.2832"/><line style="stroke:#181818;stroke-width:0.3499999999999999;stroke-dasharray:5.0,5.0;" x1="835.8" x2="835.8" y1="48.7348" y2="947.2832"/><line style="stroke:#181818;stroke-width:0.3499999999999999;stroke-dasharray:5.0,5.0;" x1="933.8" x2="933.8" y1="48.7348" y2="947.2832"/><line style="stroke:#181818;stroke-width:0.3499999999999999;stroke-dasharray:5.0,5.0;" x1="1038.1" x2="1038.1" y1="48.7348" y2="947.2832"/><line style="stroke:#181818;stroke-width:0.3499999999999999;stroke-dasharray:5.0,5.0;" x1="1114.4" x2="1114.4" y1="48.7348" y2="947.2832"/><line style="stroke:#181818;stroke-width:0.3499999999999999;stroke-dasharray:5.0,5.0;" x1="1185.8" x2="1185.8" y1="48.7348" y2="947.2832"/><rect fill="#E2E2F0" height="22.8348" rx="1.75" ry="1.75" style="stroke:#181818;stroke-width:0.3499999999999999;" width="86.8" x="3.5" y="25.2"/><text fill="#000000" font-family="sans-serif" font-size="9.8" lengthAdjust="spacing" textLength="77" x="8.4" y="40.6752">:FloorComponent</text><rect fill="#E2E2F0" height="22.8348" rx="1.75" ry="1.75" style="stroke:#181818;stroke-width:0.3499999999999999;" width="86.8" x="3.5" y="946.5832"/><text fill="#000000" font-family="sans-serif" font-size="9.8" lengthAdjust="spacing" textLength="77" x="8.4" y="962.0584">:FloorComponent</text><rect fill="#E2E2F0" height="22.8348" rx="1.75" ry="1.75" style="stroke:#181818;stroke-width:0.3499999999999999;" width="140.7" x="122.15" y="25.2"/><text fill="#000000" font-family="sans-serif" font-size="9.8" lengthAdjust="spacing" textLength="130.9" x="127.05" y="40.6752">:UpdateFLoorMapComponent</text><rect fill="#E2E2F0" height="22.8348" rx="1.75" ry="1.75" style="stroke:#181818;stroke-width:0.3499999999999999;" width="140.7" x="122.15" y="946.5832"/><text fill="#000000" font-family="sans-serif" font-size="9.8" lengthAdjust="spacing" textLength="130.9" x="127.05" y="962.0584">:UpdateFLoorMapComponent</text><rect fill="#E2E2F0" height="22.8348" rx="1.75" ry="1.75" style="stroke:#181818;stroke-width:0.3499999999999999;" width="39.2" x="299.6" y="25.2"/><text fill="#000000" font-family="sans-serif" font-size="9.8" lengthAdjust="spacing" textLength="29.4" x="304.5" y="40.6752">:Route</text><rect fill="#E2E2F0" height="22.8348" rx="1.75" ry="1.75" style="stroke:#181818;stroke-width:0.3499999999999999;" width="39.2" x="299.6" y="946.5832"/><text fill="#000000" font-family="sans-serif" font-size="9.8" lengthAdjust="spacing" textLength="29.4" x="304.5" y="962.0584">:Route</text><rect fill="#E2E2F0" height="22.8348" rx="1.75" ry="1.75" style="stroke:#181818;stroke-width:0.3499999999999999;" width="79.1" x="418.95" y="25.2"/><text fill="#000000" font-family="sans-serif" font-size="9.8" lengthAdjust="spacing" textLength="69.3" x="423.85" y="40.6752">:FloorController</text><rect fill="#E2E2F0" height="22.8348" rx="1.75" ry="1.75" style="stroke:#181818;stroke-width:0.3499999999999999;" width="79.1" x="418.95" y="946.5832"/><text fill="#000000" font-family="sans-serif" font-size="9.8" lengthAdjust="spacing" textLength="69.3" x="423.85" y="962.0584">:FloorController</text><rect fill="#E2E2F0" height="22.8348" rx="1.75" ry="1.75" style="stroke:#181818;stroke-width:0.3499999999999999;" width="68.6" x="600.6" y="25.2"/><text fill="#000000" font-family="sans-serif" font-size="9.8" lengthAdjust="spacing" textLength="58.8" x="605.5" y="40.6752">:FloorService</text><rect fill="#E2E2F0" height="22.8348" rx="1.75" ry="1.75" style="stroke:#181818;stroke-width:0.3499999999999999;" width="68.6" x="600.6" y="946.5832"/><text fill="#000000" font-family="sans-serif" font-size="9.8" lengthAdjust="spacing" textLength="58.8" x="605.5" y="962.0584">:FloorService</text><rect fill="#E2E2F0" height="22.8348" rx="1.75" ry="1.75" style="stroke:#181818;stroke-width:0.3499999999999999;" width="105" x="682.5" y="25.2"/><text fill="#000000" font-family="sans-serif" font-size="9.8" lengthAdjust="spacing" textLength="95.2" x="687.4" y="40.6752">FloorToUpdate: Floor</text><rect fill="#E2E2F0" height="22.8348" rx="1.75" ry="1.75" style="stroke:#181818;stroke-width:0.3499999999999999;" width="105" x="682.5" y="946.5832"/><text fill="#000000" font-family="sans-serif" font-size="9.8" lengthAdjust="spacing" textLength="95.2" x="687.4" y="962.0584">FloorToUpdate: Floor</text><rect fill="#E2E2F0" height="22.8348" rx="1.75" ry="1.75" style="stroke:#181818;stroke-width:0.3499999999999999;" width="83.3" x="794.5" y="25.2"/><text fill="#000000" font-family="sans-serif" font-size="9.8" lengthAdjust="spacing" textLength="73.5" x="799.4" y="40.6752">:FloorRepository</text><rect fill="#E2E2F0" height="22.8348" rx="1.75" ry="1.75" style="stroke:#181818;stroke-width:0.3499999999999999;" width="83.3" x="794.5" y="946.5832"/><text fill="#000000" font-family="sans-serif" font-size="9.8" lengthAdjust="spacing" textLength="73.5" x="799.4" y="962.0584">:FloorRepository</text><rect fill="#E2E2F0" height="22.8348" rx="1.75" ry="1.75" style="stroke:#181818;stroke-width:0.3499999999999999;" width="98.7" x="884.8" y="25.2"/><text fill="#000000" font-family="sans-serif" font-size="9.8" lengthAdjust="spacing" textLength="88.9" x="889.7" y="40.6752">FloorMap : FloorDto</text><rect fill="#E2E2F0" height="22.8348" rx="1.75" ry="1.75" style="stroke:#181818;stroke-width:0.3499999999999999;" width="98.7" x="884.8" y="946.5832"/><text fill="#000000" font-family="sans-serif" font-size="9.8" lengthAdjust="spacing" textLength="88.9" x="889.7" y="962.0584">FloorMap : FloorDto</text><rect fill="#E2E2F0" height="22.8348" rx="1.75" ry="1.75" style="stroke:#181818;stroke-width:0.3499999999999999;" width="56.7" x="1010.1" y="25.2"/><text fill="#000000" font-family="sans-serif" font-size="9.8" lengthAdjust="spacing" textLength="46.9" x="1015" y="40.6752">:FloorDTO</text><rect fill="#E2E2F0" height="22.8348" rx="1.75" ry="1.75" style="stroke:#181818;stroke-width:0.3499999999999999;" width="56.7" x="1010.1" y="946.5832"/><text fill="#000000" font-family="sans-serif" font-size="9.8" lengthAdjust="spacing" textLength="46.9" x="1015" y="962.0584">:FloorDTO</text><rect fill="#E2E2F0" height="22.8348" rx="1.75" ry="1.75" style="stroke:#181818;stroke-width:0.3499999999999999;" width="81.9" x="1073.8" y="25.2"/><text fill="#000000" font-family="sans-serif" font-size="9.8" lengthAdjust="spacing" textLength="72.1" x="1078.7" y="40.6752">:FloorMApaDTO</text><rect fill="#E2E2F0" height="22.8348" rx="1.75" ry="1.75" style="stroke:#181818;stroke-width:0.3499999999999999;" width="81.9" x="1073.8" y="946.5832"/><text fill="#000000" font-family="sans-serif" font-size="9.8" lengthAdjust="spacing" textLength="72.1" x="1078.7" y="962.0584">:FloorMApaDTO</text><text fill="#000000" font-family="sans-serif" font-size="9.8" lengthAdjust="spacing" textLength="42.7" x="1162.7" y="46.2752">Database</text><path d="M1173.55,10.5 C1173.55,3.5 1186.15,3.5 1186.15,3.5 C1186.15,3.5 1198.75,3.5 1198.75,10.5 L1198.75,28.7 C1198.75,35.7 1186.15,35.7 1186.15,35.7 C1186.15,35.7 1173.55,35.7 1173.55,28.7 L1173.55,10.5 " fill="#E2E2F0" style="stroke:#181818;stroke-width:1.0499999999999998;"/><path d="M1173.55,10.5 C1173.55,17.5 1186.15,17.5 1186.15,17.5 C1186.15,17.5 1198.75,17.5 1198.75,10.5 " fill="none" style="stroke:#181818;stroke-width:1.0499999999999998;"/><text fill="#000000" font-family="sans-serif" font-size="9.8" lengthAdjust="spacing" textLength="42.7" x="1162.7" y="957.1584">Database</text><path d="M1173.55,966.618 C1173.55,959.618 1186.15,959.618 1186.15,959.618 C1186.15,959.618 1198.75,959.618 1198.75,966.618 L1198.75,984.818 C1198.75,991.818 1186.15,991.818 1186.15,991.818 C1186.15,991.818 1173.55,991.818 1173.55,984.818 L1173.55,966.618 " fill="#E2E2F0" style="stroke:#181818;stroke-width:1.0499999999999998;"/><path d="M1173.55,966.618 C1173.55,973.618 1186.15,973.618 1186.15,973.618 C1186.15,973.618 1198.75,973.618 1198.75,966.618 " fill="none" style="stroke:#181818;stroke-width:1.0499999999999998;"/><rect fill="#FFFFFF" height="16.3037" style="stroke:#181818;stroke-width:0.6999999999999998;" width="7" x="43.4" y="55.7348"/><rect fill="#FFFFFF" height="862.6447" style="stroke:#181818;stroke-width:0.6999999999999998;" width="7" x="189" y="72.0385"/><rect fill="#FFFFFF" height="36.1074" style="stroke:#181818;stroke-width:0.6999999999999998;" width="7" x="315.7" y="139.1496"/><rect fill="#FFFFFF" height="36.1074" style="stroke:#181818;stroke-width:0.6999999999999998;" width="7" x="315.7" y="242.3682"/><rect fill="#FFFFFF" height="578.5965" style="stroke:#181818;stroke-width:0.6999999999999998;" width="7" x="315.7" y="362.3867"/><rect fill="#FFFFFF" height="215.5371" style="stroke:#181818;stroke-width:0.6999999999999998;" width="7" x="455" y="384.2904"/><rect fill="#FFFFFF" height="171.7297" style="stroke:#181818;stroke-width:0.6999999999999998;" width="7" x="631.4" y="450.0016"/><rect fill="#FFFFFF" height="245.8408" style="stroke:#181818;stroke-width:0.6999999999999998;" width="7" x="631.4" y="645.035"/><rect fill="#FFFFFF" height="21.9037" style="stroke:#181818;stroke-width:0.6999999999999998;" width="7" x="731.5" y="671.8387"/><rect fill="#FFFFFF" height="65.7111" style="stroke:#181818;stroke-width:0.6999999999999998;" width="7" x="832.65" y="490.309"/><rect fill="#FFFFFF" height="23.3037" style="stroke:#181818;stroke-width:0.6999999999999998;" width="7" x="832.65" y="621.7312"/><rect fill="#FFFFFF" height="65.7111" style="stroke:#181818;stroke-width:0.6999999999999998;" width="7" x="832.65" y="715.6461"/><rect fill="#FFFFFF" height="65.7111" style="stroke:#181818;stroke-width:0.6999999999999998;" width="7" x="930.65" y="803.2609"/><rect fill="#FFFFFF" height="21.9037" style="stroke:#181818;stroke-width:0.6999999999999998;" width="7" x="1034.95" y="825.1646"/><rect fill="#FFFFFF" height="21.9037" style="stroke:#181818;stroke-width:0.6999999999999998;" width="7" x="1182.65" y="512.2127"/><rect fill="#FFFFFF" height="21.9037" style="stroke:#181818;stroke-width:0.6999999999999998;" width="7" x="1182.65" y="737.5498"/><polygon fill="#181818" points="180.6,69.2385,187.6,72.0385,180.6,74.8385,183.4,72.0385" style="stroke:#181818;stroke-width:0.6999999999999998;"/><line style="stroke:#181818;stroke-width:0.6999999999999998;" x1="46.9" x2="184.8" y1="72.0385" y2="72.0385"/><text fill="#000000" font-family="sans-serif" font-size="9.1" font-weight="bold" lengthAdjust="spacing" textLength="4.9" x="51.8" y="68.3546">1</text><text fill="#000000" font-family="sans-serif" font-size="9.1" lengthAdjust="spacing" textLength="117.6" x="59.5" y="68.3546">showUpdateMapForm  = true</text><line style="stroke:#181818;stroke-width:0.6999999999999998;" x1="196" x2="225.4" y1="93.9422" y2="93.9422"/><line style="stroke:#181818;stroke-width:0.6999999999999998;" x1="225.4" x2="225.4" y1="93.9422" y2="103.0422"/><line style="stroke:#181818;stroke-width:0.6999999999999998;" x1="196.7" x2="225.4" y1="103.0422" y2="103.0422"/><polygon fill="#181818" points="203.7,100.2422,196.7,103.0422,203.7,105.8422,200.9,103.0422" style="stroke:#181818;stroke-width:0.6999999999999998;"/><text fill="#000000" font-family="sans-serif" font-size="9.1" font-weight="bold" lengthAdjust="spacing" textLength="4.9" x="200.9" y="90.2583">2</text><text fill="#000000" font-family="sans-serif" font-size="9.1" lengthAdjust="spacing" textLength="59.5" x="208.6" y="90.2583">loadBuildings()</text><polygon fill="#181818" points="307.3,136.3496,314.3,139.1496,307.3,141.9496,310.1,139.1496" style="stroke:#181818;stroke-width:0.6999999999999998;"/><line style="stroke:#181818;stroke-width:0.6999999999999998;stroke-dasharray:2.0,2.0;" x1="196" x2="311.5" y1="139.1496" y2="139.1496"/><text fill="#000000" font-family="sans-serif" font-size="9.1" font-weight="bold" lengthAdjust="spacing" textLength="4.9" x="200.9" y="135.4657">3</text><text fill="#000000" font-family="sans-serif" font-size="9.1" lengthAdjust="spacing" textLength="51.8" x="208.6" y="135.4657">GET building</text><path d="M326.2,112.1422 L326.2,154.8422 L420,154.8422 L420,119.1422 L413,112.1422 L326.2,112.1422 " fill="#FEFFDD" style="stroke:#181818;stroke-width:0.3499999999999999;"/><path d="M413,112.1422 L413,119.1422 L420,119.1422 L413,112.1422 " fill="#FEFFDD" style="stroke:#181818;stroke-width:0.3499999999999999;"/><text fill="#000000" font-family="sans-serif" font-size="9.1" lengthAdjust="spacing" textLength="45.5" x="330.4" y="125.462">US-170 SD</text><text fill="#000000" font-family="sans-serif" font-size="9.1" lengthAdjust="spacing" textLength="73.5" x="333.2" y="137.5657">to obtain buildings</text><text fill="#000000" font-family="sans-serif" font-size="9.1" lengthAdjust="spacing" textLength="58.8" x="333.2" y="149.6694">from the router</text><polygon fill="#181818" points="203.7,172.457,196.7,175.257,203.7,178.057,200.9,175.257" style="stroke:#181818;stroke-width:0.6999999999999998;"/><line style="stroke:#181818;stroke-width:0.6999999999999998;stroke-dasharray:2.0,2.0;" x1="199.5" x2="318.5" y1="175.257" y2="175.257"/><text fill="#000000" font-family="sans-serif" font-size="9.1" font-weight="bold" lengthAdjust="spacing" textLength="4.9" x="207.9" y="171.5731">4</text><text fill="#000000" font-family="sans-serif" font-size="9.1" lengthAdjust="spacing" textLength="50.4" x="215.6" y="171.5731">buildingsList</text><line style="stroke:#181818;stroke-width:0.6999999999999998;" x1="196" x2="225.4" y1="197.1607" y2="197.1607"/><line style="stroke:#181818;stroke-width:0.6999999999999998;" x1="225.4" x2="225.4" y1="197.1607" y2="206.2607"/><line style="stroke:#181818;stroke-width:0.6999999999999998;" x1="196.7" x2="225.4" y1="206.2607" y2="206.2607"/><polygon fill="#181818" points="203.7,203.4607,196.7,206.2607,203.7,209.0607,200.9,206.2607" style="stroke:#181818;stroke-width:0.6999999999999998;"/><text fill="#000000" font-family="sans-serif" font-size="9.1" font-weight="bold" lengthAdjust="spacing" textLength="4.9" x="200.9" y="193.4769">5</text><text fill="#000000" font-family="sans-serif" font-size="9.1" lengthAdjust="spacing" textLength="47.6" x="208.6" y="193.4769">loadFloors()</text><polygon fill="#181818" points="307.3,239.5682,314.3,242.3682,307.3,245.1682,310.1,242.3682" style="stroke:#181818;stroke-width:0.6999999999999998;"/><line style="stroke:#181818;stroke-width:0.6999999999999998;stroke-dasharray:2.0,2.0;" x1="196" x2="311.5" y1="242.3682" y2="242.3682"/><text fill="#000000" font-family="sans-serif" font-size="9.1" font-weight="bold" lengthAdjust="spacing" textLength="4.9" x="200.9" y="238.6843">6</text><text fill="#000000" font-family="sans-serif" font-size="9.1" lengthAdjust="spacing" textLength="42.7" x="208.6" y="238.6843">GET floors</text><path d="M326.2,215.3607 L326.2,258.0607 L406,258.0607 L406,222.3607 L399,215.3607 L326.2,215.3607 " fill="#FEFFDD" style="stroke:#181818;stroke-width:0.3499999999999999;"/><path d="M399,215.3607 L399,222.3607 L406,222.3607 L399,215.3607 " fill="#FEFFDD" style="stroke:#181818;stroke-width:0.3499999999999999;"/><text fill="#000000" font-family="sans-serif" font-size="9.1" lengthAdjust="spacing" textLength="42.7" x="330.4" y="228.6806">US-210SD</text><text fill="#000000" font-family="sans-serif" font-size="9.1" lengthAdjust="spacing" textLength="59.5" x="333.2" y="240.7843">to obtain floors</text><text fill="#000000" font-family="sans-serif" font-size="9.1" lengthAdjust="spacing" textLength="58.8" x="333.2" y="252.888">from the router</text><polygon fill="#181818" points="203.7,275.6756,196.7,278.4756,203.7,281.2756,200.9,278.4756" style="stroke:#181818;stroke-width:0.6999999999999998;"/><line style="stroke:#181818;stroke-width:0.6999999999999998;stroke-dasharray:2.0,2.0;" x1="199.5" x2="318.5" y1="278.4756" y2="278.4756"/><text fill="#000000" font-family="sans-serif" font-size="9.1" font-weight="bold" lengthAdjust="spacing" textLength="4.9" x="207.9" y="274.7917">7</text><text fill="#000000" font-family="sans-serif" font-size="9.1" lengthAdjust="spacing" textLength="50.4" x="215.6" y="274.7917">buildingsList</text><line style="stroke:#181818;stroke-width:0.6999999999999998;" x1="196" x2="225.4" y1="300.3793" y2="300.3793"/><line style="stroke:#181818;stroke-width:0.6999999999999998;" x1="225.4" x2="225.4" y1="300.3793" y2="309.4793"/><line style="stroke:#181818;stroke-width:0.6999999999999998;" x1="196.7" x2="225.4" y1="309.4793" y2="309.4793"/><polygon fill="#181818" points="203.7,306.6793,196.7,309.4793,203.7,312.2793,200.9,309.4793" style="stroke:#181818;stroke-width:0.6999999999999998;"/><text fill="#000000" font-family="sans-serif" font-size="9.1" font-weight="bold" lengthAdjust="spacing" textLength="4.9" x="200.9" y="296.6954">8</text><text fill="#000000" font-family="sans-serif" font-size="9.1" lengthAdjust="spacing" textLength="65.8" x="208.6" y="296.6954">onFileSelected()</text><line style="stroke:#181818;stroke-width:0.6999999999999998;" x1="196" x2="225.4" y1="331.383" y2="331.383"/><line style="stroke:#181818;stroke-width:0.6999999999999998;" x1="225.4" x2="225.4" y1="331.383" y2="340.483"/><line style="stroke:#181818;stroke-width:0.6999999999999998;" x1="196.7" x2="225.4" y1="340.483" y2="340.483"/><polygon fill="#181818" points="203.7,337.683,196.7,340.483,203.7,343.283,200.9,340.483" style="stroke:#181818;stroke-width:0.6999999999999998;"/><text fill="#000000" font-family="sans-serif" font-size="9.1" font-weight="bold" lengthAdjust="spacing" textLength="4.9" x="200.9" y="327.6991">9</text><text fill="#000000" font-family="sans-serif" font-size="9.1" lengthAdjust="spacing" textLength="65.1" x="208.6" y="327.6991">onSubmitForm()</text><polygon fill="#181818" points="307.3,359.5867,314.3,362.3867,307.3,365.1867,310.1,362.3867" style="stroke:#181818;stroke-width:0.6999999999999998;"/><line style="stroke:#181818;stroke-width:0.6999999999999998;" x1="196" x2="311.5" y1="362.3867" y2="362.3867"/><text fill="#000000" font-family="sans-serif" font-size="9.1" font-weight="bold" lengthAdjust="spacing" textLength="9.8" x="200.9" y="358.7028">10</text><text fill="#000000" font-family="sans-serif" font-size="9.1" lengthAdjust="spacing" textLength="55.3" x="213.5" y="358.7028">PATCH Mapa</text><polygon fill="#181818" points="446.6,381.4904,453.6,384.2904,446.6,387.0904,449.4,384.2904" style="stroke:#181818;stroke-width:0.6999999999999998;"/><line style="stroke:#181818;stroke-width:0.6999999999999998;" x1="322.7" x2="450.8" y1="384.2904" y2="384.2904"/><text fill="#000000" font-family="sans-serif" font-size="9.1" font-weight="bold" lengthAdjust="spacing" textLength="9.8" x="327.6" y="380.6065">11</text><text fill="#000000" font-family="sans-serif" font-size="9.1" lengthAdjust="spacing" textLength="106.4" x="340.2" y="380.6065">uploadMap(req , res, next)</text><polygon fill="#181818" points="1030.05,403.3941,1037.05,406.1941,1030.05,408.9941,1032.85,406.1941" style="stroke:#181818;stroke-width:0.6999999999999998;"/><line style="stroke:#181818;stroke-width:0.6999999999999998;" x1="462" x2="1034.25" y1="406.1941" y2="406.1941"/><text fill="#000000" font-family="sans-serif" font-size="9.1" font-weight="bold" lengthAdjust="spacing" textLength="9.8" x="466.9" y="402.5103">12</text><text fill="#000000" font-family="sans-serif" font-size="9.1" lengthAdjust="spacing" textLength="71.4" x="479.5" y="402.5103">floorDTO=create()</text><polygon fill="#181818" points="925.75,425.2979,932.75,428.0979,925.75,430.8979,928.55,428.0979" style="stroke:#181818;stroke-width:0.6999999999999998;"/><line style="stroke:#181818;stroke-width:0.6999999999999998;" x1="462" x2="929.95" y1="428.0979" y2="428.0979"/><text fill="#000000" font-family="sans-serif" font-size="9.1" font-weight="bold" lengthAdjust="spacing" textLength="9.8" x="466.9" y="424.414">13</text><text fill="#000000" font-family="sans-serif" font-size="9.1" lengthAdjust="spacing" textLength="96.6" x="479.5" y="424.414">:floorMapaDTO=create()</text><polygon fill="#181818" points="623,447.2016,630,450.0016,623,452.8016,625.8,450.0016" style="stroke:#181818;stroke-width:0.6999999999999998;"/><line style="stroke:#181818;stroke-width:0.6999999999999998;" x1="462" x2="627.2" y1="450.0016" y2="450.0016"/><text fill="#000000" font-family="sans-serif" font-size="9.1" font-weight="bold" lengthAdjust="spacing" textLength="9.8" x="466.9" y="446.3177">14</text><text fill="#000000" font-family="sans-serif" font-size="9.1" lengthAdjust="spacing" textLength="143.5" x="479.5" y="446.3177">uploadMap(FloorDTO,floorMapDTO)</text><path d="M115.15,460.5016 L157.85,460.5016 L157.85,467.0053 L150.85,474.0053 L115.15,474.0053 L115.15,460.5016 " fill="#EEEEEE" style="stroke:#000000;stroke-width:1.0499999999999998;"/><rect fill="none" height="190.1334" style="stroke:#000000;stroke-width:1.0499999999999998;" width="1101.45" x="115.15" y="460.5016"/><text fill="#000000" font-family="sans-serif" font-size="9.1" font-weight="bold" lengthAdjust="spacing" textLength="11.2" x="125.65" y="471.0214">alt</text><polygon fill="#181818" points="824.25,487.509,831.25,490.309,824.25,493.109,827.05,490.309" style="stroke:#181818;stroke-width:0.6999999999999998;"/><line style="stroke:#181818;stroke-width:0.6999999999999998;" x1="638.4" x2="828.45" y1="490.309" y2="490.309"/><text fill="#000000" font-family="sans-serif" font-size="9.1" font-weight="bold" lengthAdjust="spacing" textLength="9.8" x="643.3" y="486.6251">15</text><text fill="#000000" font-family="sans-serif" font-size="9.1" lengthAdjust="spacing" textLength="113.4" x="655.9" y="486.6251">findByDomainId(floorDTO.id)</text><polygon fill="#181818" points="1174.25,509.4127,1181.25,512.2127,1174.25,515.0127,1177.05,512.2127" style="stroke:#181818;stroke-width:0.6999999999999998;"/><line style="stroke:#181818;stroke-width:0.6999999999999998;" x1="839.65" x2="1178.45" y1="512.2127" y2="512.2127"/><text fill="#000000" font-family="sans-serif" font-size="9.1" font-weight="bold" lengthAdjust="spacing" textLength="9.8" x="844.55" y="508.5288">16</text><text fill="#000000" font-family="sans-serif" font-size="9.1" lengthAdjust="spacing" textLength="39.9" x="857.15" y="508.5288">read(floor)</text><polygon fill="#181818" points="847.35,531.3164,840.35,534.1164,847.35,536.9164,844.55,534.1164" style="stroke:#181818;stroke-width:0.6999999999999998;"/><line style="stroke:#181818;stroke-width:0.6999999999999998;stroke-dasharray:2.0,2.0;" x1="843.15" x2="1185.45" y1="534.1164" y2="534.1164"/><text fill="#000000" font-family="sans-serif" font-size="9.1" font-weight="bold" lengthAdjust="spacing" textLength="9.8" x="851.55" y="530.4325">17</text><text fill="#000000" font-family="sans-serif" font-size="9.1" lengthAdjust="spacing" textLength="2.8" x="864.15" y="530.4325">&#160;</text><polygon fill="#181818" points="646.1,553.2201,639.1,556.0201,646.1,558.8201,643.3,556.0201" style="stroke:#181818;stroke-width:0.6999999999999998;"/><line style="stroke:#181818;stroke-width:0.6999999999999998;stroke-dasharray:2.0,2.0;" x1="641.9" x2="835.45" y1="556.0201" y2="556.0201"/><text fill="#000000" font-family="sans-serif" font-size="9.1" font-weight="bold" lengthAdjust="spacing" textLength="9.8" x="650.3" y="552.3362">18</text><text fill="#000000" font-family="sans-serif" font-size="9.1" lengthAdjust="spacing" textLength="19.6" x="662.9" y="552.3362">(null)</text><polygon fill="#181818" points="469.7,575.1238,462.7,577.9238,469.7,580.7238,466.9,577.9238" style="stroke:#181818;stroke-width:0.6999999999999998;"/><line style="stroke:#181818;stroke-width:0.6999999999999998;stroke-dasharray:2.0,2.0;" x1="465.5" x2="630.7" y1="577.9238" y2="577.9238"/><text fill="#000000" font-family="sans-serif" font-size="9.1" font-weight="bold" lengthAdjust="spacing" textLength="9.8" x="473.9" y="574.2399">19</text><text fill="#000000" font-family="sans-serif" font-size="9.1" lengthAdjust="spacing" textLength="90.3" x="486.5" y="574.2399">error ("floor not found")</text><polygon fill="#181818" points="330.4,597.0275,323.4,599.8275,330.4,602.6275,327.6,599.8275" style="stroke:#181818;stroke-width:0.6999999999999998;"/><line style="stroke:#181818;stroke-width:0.6999999999999998;stroke-dasharray:2.0,2.0;" x1="326.2" x2="457.8" y1="599.8275" y2="599.8275"/><text fill="#000000" font-family="sans-serif" font-size="9.1" font-weight="bold" lengthAdjust="spacing" textLength="9.8" x="334.6" y="596.1437">20</text><text fill="#000000" font-family="sans-serif" font-size="9.1" lengthAdjust="spacing" textLength="90.3" x="347.2" y="596.1437">error ("floor not found")</text><polygon fill="#181818" points="203.7,618.9312,196.7,621.7312,203.7,624.5312,200.9,621.7312" style="stroke:#181818;stroke-width:0.6999999999999998;"/><line style="stroke:#181818;stroke-width:0.6999999999999998;stroke-dasharray:2.0,2.0;" x1="199.5" x2="315" y1="621.7312" y2="621.7312"/><text fill="#000000" font-family="sans-serif" font-size="9.1" font-weight="bold" lengthAdjust="spacing" textLength="9.8" x="207.9" y="618.0474">21</text><text fill="#000000" font-family="sans-serif" font-size="9.1" lengthAdjust="spacing" textLength="90.3" x="220.5" y="618.0474">error ("floor not found")</text><line style="stroke:#000000;stroke-width:0.6999999999999998;stroke-dasharray:2.0,2.0;" x1="115.15" x2="1216.6" y1="628.0312" y2="628.0312"/><polygon fill="#181818" points="646.1,642.235,639.1,645.035,646.1,647.835,643.3,645.035" style="stroke:#181818;stroke-width:0.6999999999999998;"/><line style="stroke:#181818;stroke-width:0.6999999999999998;" x1="641.9" x2="835.45" y1="645.035" y2="645.035"/><text fill="#000000" font-family="sans-serif" font-size="9.1" font-weight="bold" lengthAdjust="spacing" textLength="9.8" x="650.3" y="641.3511">22</text><text fill="#000000" font-family="sans-serif" font-size="9.1" lengthAdjust="spacing" textLength="81.9" x="662.9" y="641.3511">floorToupdate = floor</text><polygon fill="#181818" points="723.1,669.0387,730.1,671.8387,723.1,674.6387,725.9,671.8387" style="stroke:#181818;stroke-width:0.6999999999999998;"/><line style="stroke:#181818;stroke-width:0.6999999999999998;" x1="638.4" x2="727.3" y1="671.8387" y2="671.8387"/><text fill="#000000" font-family="sans-serif" font-size="9.1" font-weight="bold" lengthAdjust="spacing" textLength="9.8" x="643.3" y="668.1548">23</text><text fill="#000000" font-family="sans-serif" font-size="9.1" lengthAdjust="spacing" textLength="67.2" x="655.9" y="668.1548">uploadMap(map)</text><polygon fill="#181818" points="646.1,690.9424,639.1,693.7424,646.1,696.5424,643.3,693.7424" style="stroke:#181818;stroke-width:0.6999999999999998;"/><line style="stroke:#181818;stroke-width:0.6999999999999998;stroke-dasharray:2.0,2.0;" x1="641.9" x2="734.3" y1="693.7424" y2="693.7424"/><text fill="#000000" font-family="sans-serif" font-size="9.1" font-weight="bold" lengthAdjust="spacing" textLength="9.8" x="650.3" y="690.0585">24</text><text fill="#000000" font-family="sans-serif" font-size="9.1" lengthAdjust="spacing" textLength="32.9" x="662.9" y="690.0585">floorUpd</text><polygon fill="#181818" points="824.25,712.8461,831.25,715.6461,824.25,718.4461,827.05,715.6461" style="stroke:#181818;stroke-width:0.6999999999999998;"/><line style="stroke:#181818;stroke-width:0.6999999999999998;" x1="638.4" x2="828.45" y1="715.6461" y2="715.6461"/><text fill="#000000" font-family="sans-serif" font-size="9.1" font-weight="bold" lengthAdjust="spacing" textLength="9.8" x="643.3" y="711.9622">25</text><text fill="#000000" font-family="sans-serif" font-size="9.1" lengthAdjust="spacing" textLength="58.1" x="655.9" y="711.9622">Save(floorUpd)</text><polygon fill="#181818" points="1174.25,734.7498,1181.25,737.5498,1174.25,740.3498,1177.05,737.5498" style="stroke:#181818;stroke-width:0.6999999999999998;"/><line style="stroke:#181818;stroke-width:0.6999999999999998;" x1="839.65" x2="1178.45" y1="737.5498" y2="737.5498"/><text fill="#000000" font-family="sans-serif" font-size="9.1" font-weight="bold" lengthAdjust="spacing" textLength="9.8" x="844.55" y="733.8659">26</text><text fill="#000000" font-family="sans-serif" font-size="9.1" lengthAdjust="spacing" textLength="57.4" x="857.15" y="733.8659">write(floorUpd)</text><polygon fill="#181818" points="847.35,756.6535,840.35,759.4535,847.35,762.2535,844.55,759.4535" style="stroke:#181818;stroke-width:0.6999999999999998;"/><line style="stroke:#181818;stroke-width:0.6999999999999998;stroke-dasharray:2.0,2.0;" x1="843.15" x2="1185.45" y1="759.4535" y2="759.4535"/><text fill="#000000" font-family="sans-serif" font-size="9.1" font-weight="bold" lengthAdjust="spacing" textLength="9.8" x="851.55" y="755.7696">27</text><text fill="#000000" font-family="sans-serif" font-size="9.1" lengthAdjust="spacing" textLength="41.3" x="864.15" y="755.7696">floorSaved</text><polygon fill="#181818" points="646.1,778.5572,639.1,781.3572,646.1,784.1572,643.3,781.3572" style="stroke:#181818;stroke-width:0.6999999999999998;"/><line style="stroke:#181818;stroke-width:0.6999999999999998;stroke-dasharray:2.0,2.0;" x1="641.9" x2="835.45" y1="781.3572" y2="781.3572"/><text fill="#000000" font-family="sans-serif" font-size="9.1" font-weight="bold" lengthAdjust="spacing" textLength="9.8" x="650.3" y="777.6733">28</text><text fill="#000000" font-family="sans-serif" font-size="9.1" lengthAdjust="spacing" textLength="41.3" x="662.9" y="777.6733">floorSaved</text><polygon fill="#181818" points="922.25,800.4609,929.25,803.2609,922.25,806.0609,925.05,803.2609" style="stroke:#181818;stroke-width:0.6999999999999998;"/><line style="stroke:#181818;stroke-width:0.6999999999999998;stroke-dasharray:2.0,2.0;" x1="638.4" x2="926.45" y1="803.2609" y2="803.2609"/><text fill="#000000" font-family="sans-serif" font-size="9.1" font-weight="bold" lengthAdjust="spacing" textLength="9.8" x="643.3" y="799.5771">29</text><text fill="#000000" font-family="sans-serif" font-size="9.1" lengthAdjust="spacing" textLength="72.8" x="655.9" y="799.5771">toDTO(floorSaved)</text><polygon fill="#181818" points="1026.55,822.3646,1033.55,825.1646,1026.55,827.9646,1029.35,825.1646" style="stroke:#181818;stroke-width:0.6999999999999998;"/><line style="stroke:#181818;stroke-width:0.6999999999999998;" x1="937.65" x2="1030.75" y1="825.1646" y2="825.1646"/><text fill="#000000" font-family="sans-serif" font-size="9.1" font-weight="bold" lengthAdjust="spacing" textLength="9.8" x="942.55" y="821.4808">30</text><text fill="#000000" font-family="sans-serif" font-size="9.1" lengthAdjust="spacing" textLength="71.4" x="955.15" y="821.4808">floorDTO=create()</text><polygon fill="#181818" points="945.35,844.2684,938.35,847.0684,945.35,849.8684,942.55,847.0684" style="stroke:#181818;stroke-width:0.6999999999999998;"/><line style="stroke:#181818;stroke-width:0.6999999999999998;stroke-dasharray:2.0,2.0;" x1="941.15" x2="1037.75" y1="847.0684" y2="847.0684"/><text fill="#000000" font-family="sans-serif" font-size="9.1" font-weight="bold" lengthAdjust="spacing" textLength="9.8" x="949.55" y="843.3845">31</text><text fill="#000000" font-family="sans-serif" font-size="9.1" lengthAdjust="spacing" textLength="2.8" x="962.15" y="843.3845">&#160;</text><polygon fill="#181818" points="646.1,866.1721,639.1,868.9721,646.1,871.7721,643.3,868.9721" style="stroke:#181818;stroke-width:0.6999999999999998;"/><line style="stroke:#181818;stroke-width:0.6999999999999998;stroke-dasharray:2.0,2.0;" x1="641.9" x2="933.45" y1="868.9721" y2="868.9721"/><text fill="#000000" font-family="sans-serif" font-size="9.1" font-weight="bold" lengthAdjust="spacing" textLength="9.8" x="650.3" y="865.2882">32</text><text fill="#000000" font-family="sans-serif" font-size="9.1" lengthAdjust="spacing" textLength="35" x="662.9" y="865.2882">floorDTO</text><polygon fill="#181818" points="466.2,888.0758,459.2,890.8758,466.2,893.6758,463.4,890.8758" style="stroke:#181818;stroke-width:0.6999999999999998;"/><line style="stroke:#181818;stroke-width:0.6999999999999998;stroke-dasharray:2.0,2.0;" x1="462" x2="634.2" y1="890.8758" y2="890.8758"/><text fill="#000000" font-family="sans-serif" font-size="9.1" font-weight="bold" lengthAdjust="spacing" textLength="9.8" x="470.4" y="887.1919">33</text><text fill="#000000" font-family="sans-serif" font-size="9.1" lengthAdjust="spacing" textLength="35" x="483" y="887.1919">floorDTO</text><polygon fill="#181818" points="330.4,909.9795,323.4,912.7795,330.4,915.5795,327.6,912.7795" style="stroke:#181818;stroke-width:0.6999999999999998;"/><line style="stroke:#181818;stroke-width:0.6999999999999998;stroke-dasharray:2.0,2.0;" x1="326.2" x2="457.8" y1="912.7795" y2="912.7795"/><text fill="#000000" font-family="sans-serif" font-size="9.1" font-weight="bold" lengthAdjust="spacing" textLength="9.8" x="334.6" y="909.0956">34</text><text fill="#000000" font-family="sans-serif" font-size="9.1" lengthAdjust="spacing" textLength="35" x="347.2" y="909.0956">floorDTO</text><polygon fill="#181818" points="200.2,931.8832,193.2,934.6832,200.2,937.4832,197.4,934.6832" style="stroke:#181818;stroke-width:0.6999999999999998;"/><line style="stroke:#181818;stroke-width:0.6999999999999998;stroke-dasharray:2.0,2.0;" x1="196" x2="315" y1="934.6832" y2="934.6832"/><text fill="#000000" font-family="sans-serif" font-size="9.1" font-weight="bold" lengthAdjust="spacing" textLength="9.8" x="204.4" y="930.9993">35</text><text fill="#000000" font-family="sans-serif" font-size="9.1" lengthAdjust="spacing" textLength="35" x="217" y="930.9993">floorDTO</text><!--SRC=[fLLTQzim57tthxZaoO5sj7iP65f8ateR9AJ4wPxseiHAAx0bJvRRzT_lwifs95TqW-KbZkyvHqVtAwmpIdRrWUiaIHgcZJYAXaa3ioolbD9BLJTAScbcm5h8bnFCOrCom_Cr8ZUi2S6F-MQ2tgdES2UqZXycZLPLnJM1bljT55Pm_IAEJgYut_q8CGJPA-Si0_hPdxdTxc9wEzweLXYbtmYtkt_OHYJnVj3BhOmYv6g_tImUOf8O6H2ny6RHC0-28WjCFnfc1zPoMFKFISAEHhpWFMpcyoLStjgiGjO-grTtGNILArq3t83H7KzAxbFEV5iCInqKe5AilEj4LGhvrARpn4KndAyn-lL-3uS-wfbO9u0VgV1PYwTday5ZSNdzvGgA5VoKO1IeWs52ZjpMlZvfLODvHewjlqxmXClHnuXSYzO4zjVl3LFoucvF5FgRry_NLrEhZlXVFaEZIkQYuWMl-D7mSZHx3XVTeHR6biqBqaKU5llbDy2Qik0YriWjZGDYkiPc0Z6fvh_W0ZHlBq3otsP-vj3a41vvs618E_LjUNFK725uiXV71aH8Tkhxd4LnTjI2yuTElnXu-EoPeD5abKc8Y09siAmJ8SkxjvMgCVlVotGmzacKSwzXQGg9OIqEav7XTLdFyOuQ1qPpqsdPVwMogwgvNoiITNPGbTAK0TTQQKXd96eR1awga-KCtJYT3n2UzkZ1Qnl8_erBzV9VKExiXrV16WYoqXV4bNQlEbe8k0ZezxjhXzfSbc1haupLeVNebxTcZLyGjpxxZD0Hk872GR20IR4BziBJ0JsVN2HMtrSjJ9GngR6pOENBQ1MSz3bBSNZO4ECa68MFwPdYst0xluT-C5u-O-XBtoY-7KGcBcqeHDeJHvVz7eX1gRHkNeULCiA2RHOZsx-8Fm00]--></g></svg>