<?xml version="1.0" encoding="UTF-8" standalone="no"?><svg xmlns="http://www.w3.org/2000/svg" xmlns:xlink="http://www.w3.org/1999/xlink" contentStyleType="text/css" height="1941px" preserveAspectRatio="none" style="width:2280px;height:1941px;background:#FFFFFF;" version="1.1" viewBox="0 0 2280 1941" width="2280px" zoomAndPan="magnify"><defs/><g><line style="stroke:#181818;stroke-width:0.5;stroke-dasharray:5.0,5.0;" x1="69" x2="69" y1="37.6094" y2="1904.7031"/><line style="stroke:#181818;stroke-width:0.5;stroke-dasharray:5.0,5.0;" x1="269" x2="269" y1="37.6094" y2="1904.7031"/><line style="stroke:#181818;stroke-width:0.5;stroke-dasharray:5.0,5.0;" x1="428" x2="428" y1="37.6094" y2="1904.7031"/><line style="stroke:#181818;stroke-width:0.5;stroke-dasharray:5.0,5.0;" x1="573.5" x2="573.5" y1="37.6094" y2="1904.7031"/><line style="stroke:#181818;stroke-width:0.5;stroke-dasharray:5.0,5.0;" x1="676" x2="676" y1="37.6094" y2="1904.7031"/><line style="stroke:#181818;stroke-width:0.5;stroke-dasharray:5.0,5.0;" x1="804" x2="804" y1="37.6094" y2="1904.7031"/><line style="stroke:#181818;stroke-width:0.5;stroke-dasharray:5.0,5.0;" x1="919" x2="919" y1="37.6094" y2="1904.7031"/><line style="stroke:#181818;stroke-width:0.5;stroke-dasharray:5.0,5.0;" x1="1035" x2="1035" y1="37.6094" y2="1904.7031"/><line style="stroke:#181818;stroke-width:0.5;stroke-dasharray:5.0,5.0;" x1="1161" x2="1161" y1="37.6094" y2="1904.7031"/><line style="stroke:#181818;stroke-width:0.5;stroke-dasharray:5.0,5.0;" x1="1330.5" x2="1330.5" y1="37.6094" y2="1904.7031"/><line style="stroke:#181818;stroke-width:0.5;stroke-dasharray:5.0,5.0;" x1="1705" x2="1705" y1="37.6094" y2="1904.7031"/><line style="stroke:#181818;stroke-width:0.5;stroke-dasharray:5.0,5.0;" x1="1992.5" x2="1992.5" y1="37.6094" y2="1904.7031"/><line style="stroke:#181818;stroke-width:0.5;stroke-dasharray:5.0,5.0;" x1="2096.5" x2="2096.5" y1="37.6094" y2="1904.7031"/><line style="stroke:#181818;stroke-width:0.5;stroke-dasharray:5.0,5.0;" x1="2165.5" x2="2165.5" y1="37.6094" y2="1904.7031"/><line style="stroke:#181818;stroke-width:0.5;stroke-dasharray:5.0,5.0;" x1="2233.5" x2="2233.5" y1="37.6094" y2="1904.7031"/><rect fill="#E2E2F0" height="31.6094" rx="2.5" ry="2.5" style="stroke:#181818;stroke-width:0.5;" width="128" x="5" y="5"/><text fill="#000000" font-family="sans-serif" font-size="14" lengthAdjust="spacing" textLength="114" x="12" y="26.5332">BridgeComponent</text><rect fill="#E2E2F0" height="31.6094" rx="2.5" ry="2.5" style="stroke:#181818;stroke-width:0.5;" width="128" x="5" y="1903.7031"/><text fill="#000000" font-family="sans-serif" font-size="14" lengthAdjust="spacing" textLength="114" x="12" y="1925.2363">BridgeComponent</text><rect fill="#E2E2F0" height="31.6094" rx="2.5" ry="2.5" style="stroke:#181818;stroke-width:0.5;" width="152" x="193" y="5"/><text fill="#000000" font-family="sans-serif" font-size="14" lengthAdjust="spacing" textLength="138" x="200" y="26.5332">EditBridgeComponent</text><rect fill="#E2E2F0" height="31.6094" rx="2.5" ry="2.5" style="stroke:#181818;stroke-width:0.5;" width="152" x="193" y="1903.7031"/><text fill="#000000" font-family="sans-serif" font-size="14" lengthAdjust="spacing" textLength="138" x="200" y="1925.2363">EditBridgeComponent</text><rect fill="#E2E2F0" height="31.6094" rx="2.5" ry="2.5" style="stroke:#181818;stroke-width:0.5;" width="146" x="355" y="5"/><text fill="#000000" font-family="sans-serif" font-size="14" lengthAdjust="spacing" textLength="132" x="362" y="26.5332">HttpRequestsService</text><rect fill="#E2E2F0" height="31.6094" rx="2.5" ry="2.5" style="stroke:#181818;stroke-width:0.5;" width="146" x="355" y="1903.7031"/><text fill="#000000" font-family="sans-serif" font-size="14" lengthAdjust="spacing" textLength="132" x="362" y="1925.2363">HttpRequestsService</text><rect fill="#E2E2F0" height="31.6094" rx="2.5" ry="2.5" style="stroke:#181818;stroke-width:0.5;" width="57" x="545.5" y="5"/><text fill="#000000" font-family="sans-serif" font-size="14" lengthAdjust="spacing" textLength="43" x="552.5" y="26.5332">Router</text><rect fill="#E2E2F0" height="31.6094" rx="2.5" ry="2.5" style="stroke:#181818;stroke-width:0.5;" width="57" x="545.5" y="1903.7031"/><text fill="#000000" font-family="sans-serif" font-size="14" lengthAdjust="spacing" textLength="43" x="552.5" y="1925.2363">Router</text><rect fill="#E2E2F0" height="31.6094" rx="2.5" ry="2.5" style="stroke:#181818;stroke-width:0.5;" width="126" x="613" y="5"/><text fill="#000000" font-family="sans-serif" font-size="14" lengthAdjust="spacing" textLength="112" x="620" y="26.5332">BuildingController</text><rect fill="#E2E2F0" height="31.6094" rx="2.5" ry="2.5" style="stroke:#181818;stroke-width:0.5;" width="126" x="613" y="1903.7031"/><text fill="#000000" font-family="sans-serif" font-size="14" lengthAdjust="spacing" textLength="112" x="620" y="1925.2363">BuildingController</text><rect fill="#E2E2F0" height="31.6094" rx="2.5" ry="2.5" style="stroke:#181818;stroke-width:0.5;" width="111" x="749" y="5"/><text fill="#000000" font-family="sans-serif" font-size="14" lengthAdjust="spacing" textLength="97" x="756" y="26.5332">BuildingService</text><rect fill="#E2E2F0" height="31.6094" rx="2.5" ry="2.5" style="stroke:#181818;stroke-width:0.5;" width="111" x="749" y="1903.7031"/><text fill="#000000" font-family="sans-serif" font-size="14" lengthAdjust="spacing" textLength="97" x="756" y="1925.2363">BuildingService</text><rect fill="#E2E2F0" height="31.6094" rx="2.5" ry="2.5" style="stroke:#181818;stroke-width:0.5;" width="98" x="870" y="5"/><text fill="#000000" font-family="sans-serif" font-size="14" lengthAdjust="spacing" textLength="84" x="877" y="26.5332">BuildingRepo</text><rect fill="#E2E2F0" height="31.6094" rx="2.5" ry="2.5" style="stroke:#181818;stroke-width:0.5;" width="98" x="870" y="1903.7031"/><text fill="#000000" font-family="sans-serif" font-size="14" lengthAdjust="spacing" textLength="84" x="877" y="1925.2363">BuildingRepo</text><rect fill="#E2E2F0" height="31.6094" rx="2.5" ry="2.5" style="stroke:#181818;stroke-width:0.5;" width="115" x="978" y="5"/><text fill="#000000" font-family="sans-serif" font-size="14" lengthAdjust="spacing" textLength="101" x="985" y="26.5332">BuildingSchema</text><rect fill="#E2E2F0" height="31.6094" rx="2.5" ry="2.5" style="stroke:#181818;stroke-width:0.5;" width="115" x="978" y="1903.7031"/><text fill="#000000" font-family="sans-serif" font-size="14" lengthAdjust="spacing" textLength="101" x="985" y="1925.2363">BuildingSchema</text><rect fill="#E2E2F0" height="31.6094" rx="2.5" ry="2.5" style="stroke:#181818;stroke-width:0.5;" width="117" x="1103" y="5"/><text fill="#000000" font-family="sans-serif" font-size="14" lengthAdjust="spacing" textLength="103" x="1110" y="26.5332">BridgeController</text><rect fill="#E2E2F0" height="31.6094" rx="2.5" ry="2.5" style="stroke:#181818;stroke-width:0.5;" width="117" x="1103" y="1903.7031"/><text fill="#000000" font-family="sans-serif" font-size="14" lengthAdjust="spacing" textLength="103" x="1110" y="1925.2363">BridgeController</text><rect fill="#E2E2F0" height="31.6094" rx="2.5" ry="2.5" style="stroke:#181818;stroke-width:0.5;" width="102" x="1279.5" y="5"/><text fill="#000000" font-family="sans-serif" font-size="14" lengthAdjust="spacing" textLength="88" x="1286.5" y="26.5332">BridgeService</text><rect fill="#E2E2F0" height="31.6094" rx="2.5" ry="2.5" style="stroke:#181818;stroke-width:0.5;" width="102" x="1279.5" y="1903.7031"/><text fill="#000000" font-family="sans-serif" font-size="14" lengthAdjust="spacing" textLength="88" x="1286.5" y="1925.2363">BridgeService</text><rect fill="#E2E2F0" height="31.6094" rx="2.5" ry="2.5" style="stroke:#181818;stroke-width:0.5;" width="89" x="1661" y="5"/><text fill="#000000" font-family="sans-serif" font-size="14" lengthAdjust="spacing" textLength="75" x="1668" y="26.5332">BridgeRepo</text><rect fill="#E2E2F0" height="31.6094" rx="2.5" ry="2.5" style="stroke:#181818;stroke-width:0.5;" width="89" x="1661" y="1903.7031"/><text fill="#000000" font-family="sans-serif" font-size="14" lengthAdjust="spacing" textLength="75" x="1668" y="1925.2363">BridgeRepo</text><rect fill="#E2E2F0" height="31.6094" rx="2.5" ry="2.5" style="stroke:#181818;stroke-width:0.5;" width="106" x="1939.5" y="5"/><text fill="#000000" font-family="sans-serif" font-size="14" lengthAdjust="spacing" textLength="92" x="1946.5" y="26.5332">BridgeSchema</text><rect fill="#E2E2F0" height="31.6094" rx="2.5" ry="2.5" style="stroke:#181818;stroke-width:0.5;" width="106" x="1939.5" y="1903.7031"/><text fill="#000000" font-family="sans-serif" font-size="14" lengthAdjust="spacing" textLength="92" x="1946.5" y="1925.2363">BridgeSchema</text><rect fill="#E2E2F0" height="31.6094" rx="2.5" ry="2.5" style="stroke:#181818;stroke-width:0.5;" width="82" x="2055.5" y="5"/><text fill="#000000" font-family="sans-serif" font-size="14" lengthAdjust="spacing" textLength="68" x="2062.5" y="26.5332">BridgeMap</text><rect fill="#E2E2F0" height="31.6094" rx="2.5" ry="2.5" style="stroke:#181818;stroke-width:0.5;" width="82" x="2055.5" y="1903.7031"/><text fill="#000000" font-family="sans-serif" font-size="14" lengthAdjust="spacing" textLength="68" x="2062.5" y="1925.2363">BridgeMap</text><rect fill="#E2E2F0" height="31.6094" rx="2.5" ry="2.5" style="stroke:#181818;stroke-width:0.5;" width="36" x="2147.5" y="5"/><text fill="#000000" font-family="sans-serif" font-size="14" lengthAdjust="spacing" textLength="22" x="2154.5" y="26.5332">Dto</text><rect fill="#E2E2F0" height="31.6094" rx="2.5" ry="2.5" style="stroke:#181818;stroke-width:0.5;" width="36" x="2147.5" y="1903.7031"/><text fill="#000000" font-family="sans-serif" font-size="14" lengthAdjust="spacing" textLength="22" x="2154.5" y="1925.2363">Dto</text><rect fill="#E2E2F0" height="31.6094" rx="2.5" ry="2.5" style="stroke:#181818;stroke-width:0.5;" width="81" x="2193.5" y="5"/><text fill="#000000" font-family="sans-serif" font-size="14" lengthAdjust="spacing" textLength="67" x="2200.5" y="26.5332">FloorRepo</text><rect fill="#E2E2F0" height="31.6094" rx="2.5" ry="2.5" style="stroke:#181818;stroke-width:0.5;" width="81" x="2193.5" y="1903.7031"/><text fill="#000000" font-family="sans-serif" font-size="14" lengthAdjust="spacing" textLength="67" x="2200.5" y="1925.2363">FloorRepo</text><polygon fill="#181818" points="257,65.9609,267,69.9609,257,73.9609,261,69.9609" style="stroke:#181818;stroke-width:1.0;"/><line style="stroke:#181818;stroke-width:1.0;" x1="69" x2="263" y1="69.9609" y2="69.9609"/><text fill="#000000" font-family="sans-serif" font-size="13" lengthAdjust="spacing" textLength="176" x="76" y="65.1045">Activate/EditBridgeComponent</text><line style="stroke:#181818;stroke-width:1.0;" x1="269" x2="311" y1="100.3125" y2="100.3125"/><line style="stroke:#181818;stroke-width:1.0;" x1="311" x2="311" y1="100.3125" y2="113.3125"/><line style="stroke:#181818;stroke-width:1.0;" x1="270" x2="311" y1="113.3125" y2="113.3125"/><polygon fill="#181818" points="280,109.3125,270,113.3125,280,117.3125,276,113.3125" style="stroke:#181818;stroke-width:1.0;"/><text fill="#000000" font-family="sans-serif" font-size="13" lengthAdjust="spacing" textLength="56" x="276" y="95.4561">ngOnInit()</text><polygon fill="#181818" points="416,139.6641,426,143.6641,416,147.6641,420,143.6641" style="stroke:#181818;stroke-width:1.0;"/><line style="stroke:#181818;stroke-width:1.0;" x1="269" x2="422" y1="143.6641" y2="143.6641"/><text fill="#000000" font-family="sans-serif" font-size="13" lengthAdjust="spacing" textLength="79" x="276" y="138.8076">getBuildings()</text><polygon fill="#181818" points="562,170.0156,572,174.0156,562,178.0156,566,174.0156" style="stroke:#181818;stroke-width:1.0;"/><line style="stroke:#181818;stroke-width:1.0;" x1="428" x2="568" y1="174.0156" y2="174.0156"/><text fill="#000000" font-family="sans-serif" font-size="13" lengthAdjust="spacing" textLength="99" x="435" y="169.1592">GET /building/list</text><polygon fill="#181818" points="664,200.3672,674,204.3672,664,208.3672,668,204.3672" style="stroke:#181818;stroke-width:1.0;"/><line style="stroke:#181818;stroke-width:1.0;" x1="574" x2="670" y1="204.3672" y2="204.3672"/><text fill="#000000" font-family="sans-serif" font-size="13" lengthAdjust="spacing" textLength="78" x="581" y="199.5107">listBuildings()</text><polygon fill="#181818" points="792.5,230.7188,802.5,234.7188,792.5,238.7188,796.5,234.7188" style="stroke:#181818;stroke-width:1.0;"/><line style="stroke:#181818;stroke-width:1.0;" x1="676" x2="798.5" y1="234.7188" y2="234.7188"/><text fill="#000000" font-family="sans-serif" font-size="13" lengthAdjust="spacing" textLength="94" x="683" y="229.8623">getAllBuildings()</text><polygon fill="#181818" points="907,261.0703,917,265.0703,907,269.0703,911,265.0703" style="stroke:#181818;stroke-width:1.0;"/><line style="stroke:#181818;stroke-width:1.0;" x1="804.5" x2="913" y1="265.0703" y2="265.0703"/><text fill="#000000" font-family="sans-serif" font-size="13" lengthAdjust="spacing" textLength="40" x="811.5" y="260.2139">listAll()</text><polygon fill="#181818" points="1023.5,291.4219,1033.5,295.4219,1023.5,299.4219,1027.5,295.4219" style="stroke:#181818;stroke-width:1.0;"/><line style="stroke:#181818;stroke-width:1.0;" x1="919" x2="1029.5" y1="295.4219" y2="295.4219"/><text fill="#000000" font-family="sans-serif" font-size="13" lengthAdjust="spacing" textLength="28" x="926" y="290.5654">find()</text><polygon fill="#181818" points="930,321.7734,920,325.7734,930,329.7734,926,325.7734" style="stroke:#181818;stroke-width:1.0;"/><line style="stroke:#181818;stroke-width:1.0;stroke-dasharray:2.0,2.0;" x1="924" x2="1034.5" y1="325.7734" y2="325.7734"/><text fill="#000000" font-family="sans-serif" font-size="13" lengthAdjust="spacing" textLength="82" x="936" y="320.917">buildingDocs[]</text><polygon fill="#181818" points="815.5,352.125,805.5,356.125,815.5,360.125,811.5,356.125" style="stroke:#181818;stroke-width:1.0;"/><line style="stroke:#181818;stroke-width:1.0;stroke-dasharray:2.0,2.0;" x1="809.5" x2="918" y1="356.125" y2="356.125"/><text fill="#000000" font-family="sans-serif" font-size="13" lengthAdjust="spacing" textLength="59" x="821.5" y="351.2686">buildings[]</text><polygon fill="#181818" points="687,382.4766,677,386.4766,687,390.4766,683,386.4766" style="stroke:#181818;stroke-width:1.0;"/><line style="stroke:#181818;stroke-width:1.0;stroke-dasharray:2.0,2.0;" x1="681" x2="803.5" y1="386.4766" y2="386.4766"/><text fill="#000000" font-family="sans-serif" font-size="13" lengthAdjust="spacing" textLength="59" x="693" y="381.6201">buildings[]</text><polygon fill="#181818" points="585,412.8281,575,416.8281,585,420.8281,581,416.8281" style="stroke:#181818;stroke-width:1.0;"/><line style="stroke:#181818;stroke-width:1.0;stroke-dasharray:2.0,2.0;" x1="579" x2="675" y1="416.8281" y2="416.8281"/><text fill="#000000" font-family="sans-serif" font-size="13" lengthAdjust="spacing" textLength="59" x="591" y="411.9717">buildings[]</text><polygon fill="#181818" points="439,443.1797,429,447.1797,439,451.1797,435,447.1797" style="stroke:#181818;stroke-width:1.0;"/><line style="stroke:#181818;stroke-width:1.0;stroke-dasharray:2.0,2.0;" x1="433" x2="573" y1="447.1797" y2="447.1797"/><text fill="#000000" font-family="sans-serif" font-size="13" lengthAdjust="spacing" textLength="59" x="445" y="442.3232">buildings[]</text><polygon fill="#181818" points="280,473.5313,270,477.5313,280,481.5313,276,477.5313" style="stroke:#181818;stroke-width:1.0;"/><line style="stroke:#181818;stroke-width:1.0;stroke-dasharray:2.0,2.0;" x1="274" x2="427" y1="477.5313" y2="477.5313"/><text fill="#000000" font-family="sans-serif" font-size="13" lengthAdjust="spacing" textLength="59" x="286" y="472.6748">buildings[]</text><polygon fill="#181818" points="416,503.8828,426,507.8828,416,511.8828,420,507.8828" style="stroke:#181818;stroke-width:1.0;"/><line style="stroke:#181818;stroke-width:1.0;" x1="269" x2="422" y1="507.8828" y2="507.8828"/><text fill="#000000" font-family="sans-serif" font-size="13" lengthAdjust="spacing" textLength="108" x="276" y="503.0264">getBridge(bridgeId)</text><polygon fill="#181818" points="562,534.2344,572,538.2344,562,542.2344,566,538.2344" style="stroke:#181818;stroke-width:1.0;"/><line style="stroke:#181818;stroke-width:1.0;" x1="428" x2="568" y1="538.2344" y2="538.2344"/><text fill="#000000" font-family="sans-serif" font-size="13" lengthAdjust="spacing" textLength="122" x="435" y="533.3779">GET /bridge/:bridgeId</text><polygon fill="#181818" points="1149.5,564.5859,1159.5,568.5859,1149.5,572.5859,1153.5,568.5859" style="stroke:#181818;stroke-width:1.0;"/><line style="stroke:#181818;stroke-width:1.0;" x1="574" x2="1155.5" y1="568.5859" y2="568.5859"/><text fill="#000000" font-family="sans-serif" font-size="13" lengthAdjust="spacing" textLength="107" x="581" y="563.7295">getBridge(req, res)</text><polygon fill="#181818" points="1318.5,594.9375,1328.5,598.9375,1318.5,602.9375,1322.5,598.9375" style="stroke:#181818;stroke-width:1.0;"/><line style="stroke:#181818;stroke-width:1.0;" x1="1161.5" x2="1324.5" y1="598.9375" y2="598.9375"/><text fill="#000000" font-family="sans-serif" font-size="13" lengthAdjust="spacing" textLength="108" x="1168.5" y="594.0811">getBridge(bridgeId)</text><polygon fill="#181818" points="1693.5,625.2891,1703.5,629.2891,1693.5,633.2891,1697.5,629.2891" style="stroke:#181818;stroke-width:1.0;"/><line style="stroke:#181818;stroke-width:1.0;" x1="1330.5" x2="1699.5" y1="629.2891" y2="629.2891"/><text fill="#000000" font-family="sans-serif" font-size="13" lengthAdjust="spacing" textLength="99" x="1337.5" y="624.4326">findById(bridgeId)</text><polygon fill="#181818" points="1980.5,655.6406,1990.5,659.6406,1980.5,663.6406,1984.5,659.6406" style="stroke:#181818;stroke-width:1.0;"/><line style="stroke:#181818;stroke-width:1.0;" x1="1705.5" x2="1986.5" y1="659.6406" y2="659.6406"/><text fill="#000000" font-family="sans-serif" font-size="13" lengthAdjust="spacing" textLength="97" x="1712.5" y="654.7842">findOne(bridgeId)</text><polygon fill="#181818" points="1716.5,685.9922,1706.5,689.9922,1716.5,693.9922,1712.5,689.9922" style="stroke:#181818;stroke-width:1.0;"/><line style="stroke:#181818;stroke-width:1.0;stroke-dasharray:2.0,2.0;" x1="1710.5" x2="1991.5" y1="689.9922" y2="689.9922"/><text fill="#000000" font-family="sans-serif" font-size="13" lengthAdjust="spacing" textLength="58" x="1722.5" y="685.1357">bridgeDoc</text><polygon fill="#181818" points="2084.5,716.3438,2094.5,720.3438,2084.5,724.3438,2088.5,720.3438" style="stroke:#181818;stroke-width:1.0;"/><line style="stroke:#181818;stroke-width:1.0;" x1="1705.5" x2="2090.5" y1="720.3438" y2="720.3438"/><text fill="#000000" font-family="sans-serif" font-size="13" lengthAdjust="spacing" textLength="121" x="1712.5" y="715.4873">toDomain(bridgeDoc)</text><polygon fill="#181818" points="1716.5,746.6953,1706.5,750.6953,1716.5,754.6953,1712.5,750.6953" style="stroke:#181818;stroke-width:1.0;"/><line style="stroke:#181818;stroke-width:1.0;stroke-dasharray:2.0,2.0;" x1="1710.5" x2="2095.5" y1="750.6953" y2="750.6953"/><text fill="#000000" font-family="sans-serif" font-size="13" lengthAdjust="spacing" textLength="35" x="1722.5" y="745.8389">bridge</text><polygon fill="#181818" points="1341.5,777.0469,1331.5,781.0469,1341.5,785.0469,1337.5,781.0469" style="stroke:#181818;stroke-width:1.0;"/><line style="stroke:#181818;stroke-width:1.0;stroke-dasharray:2.0,2.0;" x1="1335.5" x2="1704.5" y1="781.0469" y2="781.0469"/><text fill="#000000" font-family="sans-serif" font-size="13" lengthAdjust="spacing" textLength="35" x="1347.5" y="776.1904">bridge</text><polygon fill="#181818" points="1172.5,807.3984,1162.5,811.3984,1172.5,815.3984,1168.5,811.3984" style="stroke:#181818;stroke-width:1.0;"/><line style="stroke:#181818;stroke-width:1.0;stroke-dasharray:2.0,2.0;" x1="1166.5" x2="1329.5" y1="811.3984" y2="811.3984"/><text fill="#000000" font-family="sans-serif" font-size="13" lengthAdjust="spacing" textLength="61" x="1178.5" y="806.542">bridgeDTO</text><polygon fill="#181818" points="585,837.75,575,841.75,585,845.75,581,841.75" style="stroke:#181818;stroke-width:1.0;"/><line style="stroke:#181818;stroke-width:1.0;stroke-dasharray:2.0,2.0;" x1="579" x2="1160.5" y1="841.75" y2="841.75"/><text fill="#000000" font-family="sans-serif" font-size="13" lengthAdjust="spacing" textLength="61" x="591" y="836.8936">bridgeDTO</text><polygon fill="#181818" points="439,868.1016,429,872.1016,439,876.1016,435,872.1016" style="stroke:#181818;stroke-width:1.0;"/><line style="stroke:#181818;stroke-width:1.0;stroke-dasharray:2.0,2.0;" x1="433" x2="573" y1="872.1016" y2="872.1016"/><text fill="#000000" font-family="sans-serif" font-size="13" lengthAdjust="spacing" textLength="61" x="445" y="867.2451">bridgeDTO</text><polygon fill="#181818" points="280,898.4531,270,902.4531,280,906.4531,276,902.4531" style="stroke:#181818;stroke-width:1.0;"/><line style="stroke:#181818;stroke-width:1.0;stroke-dasharray:2.0,2.0;" x1="274" x2="427" y1="902.4531" y2="902.4531"/><text fill="#000000" font-family="sans-serif" font-size="13" lengthAdjust="spacing" textLength="61" x="286" y="897.5967">bridgeDTO</text><line style="stroke:#181818;stroke-width:1.0;" x1="269" x2="311" y1="932.8047" y2="932.8047"/><line style="stroke:#181818;stroke-width:1.0;" x1="311" x2="311" y1="932.8047" y2="945.8047"/><line style="stroke:#181818;stroke-width:1.0;" x1="270" x2="311" y1="945.8047" y2="945.8047"/><polygon fill="#181818" points="280,941.8047,270,945.8047,280,949.8047,276,945.8047" style="stroke:#181818;stroke-width:1.0;"/><text fill="#000000" font-family="sans-serif" font-size="13" lengthAdjust="spacing" textLength="78" x="276" y="927.9482">prepareData()</text><polygon fill="#181818" points="2153.5,972.1563,2163.5,976.1563,2153.5,980.1563,2157.5,976.1563" style="stroke:#181818;stroke-width:1.0;"/><line style="stroke:#181818;stroke-width:1.0;" x1="269" x2="2159.5" y1="976.1563" y2="976.1563"/><text fill="#000000" font-family="sans-serif" font-size="13" lengthAdjust="spacing" textLength="190" x="276" y="971.2998">Converts form data to BridgeDTO</text><polygon fill="#181818" points="280,1002.5078,270,1006.5078,280,1010.5078,276,1006.5078" style="stroke:#181818;stroke-width:1.0;"/><line style="stroke:#181818;stroke-width:1.0;stroke-dasharray:2.0,2.0;" x1="274" x2="2164.5" y1="1006.5078" y2="1006.5078"/><text fill="#000000" font-family="sans-serif" font-size="13" lengthAdjust="spacing" textLength="61" x="286" y="1001.6514">bridgeDTO</text><polygon fill="#181818" points="416,1032.8594,426,1036.8594,416,1040.8594,420,1036.8594" style="stroke:#181818;stroke-width:1.0;"/><line style="stroke:#181818;stroke-width:1.0;" x1="269" x2="422" y1="1036.8594" y2="1036.8594"/><text fill="#000000" font-family="sans-serif" font-size="13" lengthAdjust="spacing" textLength="121" x="276" y="1032.0029">PUT /bridge/:bridgeId</text><polygon fill="#181818" points="562,1063.2109,572,1067.2109,562,1071.2109,566,1067.2109" style="stroke:#181818;stroke-width:1.0;"/><line style="stroke:#181818;stroke-width:1.0;" x1="428" x2="568" y1="1067.2109" y2="1067.2109"/><text fill="#000000" font-family="sans-serif" font-size="13" lengthAdjust="spacing" textLength="121" x="435" y="1062.3545">PUT /bridge/:bridgeId</text><polygon fill="#181818" points="1149.5,1093.5625,1159.5,1097.5625,1149.5,1101.5625,1153.5,1097.5625" style="stroke:#181818;stroke-width:1.0;"/><line style="stroke:#181818;stroke-width:1.0;" x1="574" x2="1155.5" y1="1097.5625" y2="1097.5625"/><text fill="#000000" font-family="sans-serif" font-size="13" lengthAdjust="spacing" textLength="161" x="581" y="1092.7061">updateBridge(req, res, next)</text><polygon fill="#181818" points="1318.5,1123.9141,1328.5,1127.9141,1318.5,1131.9141,1322.5,1127.9141" style="stroke:#181818;stroke-width:1.0;"/><line style="stroke:#181818;stroke-width:1.0;" x1="1161.5" x2="1324.5" y1="1127.9141" y2="1127.9141"/><text fill="#000000" font-family="sans-serif" font-size="13" lengthAdjust="spacing" textLength="145" x="1168.5" y="1123.0576">updateBridge(bridgeDTO)</text><polygon fill="#181818" points="1693.5,1154.2656,1703.5,1158.2656,1693.5,1162.2656,1697.5,1158.2656" style="stroke:#181818;stroke-width:1.0;"/><line style="stroke:#181818;stroke-width:1.0;" x1="1330.5" x2="1699.5" y1="1158.2656" y2="1158.2656"/><text fill="#000000" font-family="sans-serif" font-size="13" lengthAdjust="spacing" textLength="223" x="1337.5" y="1153.4092">findAndGiveBridge(bridgeDTO.bridgeId)</text><polygon fill="#181818" points="1980.5,1184.6172,1990.5,1188.6172,1980.5,1192.6172,1984.5,1188.6172" style="stroke:#181818;stroke-width:1.0;"/><line style="stroke:#181818;stroke-width:1.0;stroke-dasharray:2.0,2.0;" x1="1705.5" x2="1986.5" y1="1188.6172" y2="1188.6172"/><text fill="#000000" font-family="sans-serif" font-size="13" lengthAdjust="spacing" textLength="162" x="1712.5" y="1183.7607">findOne(bridgeDTO.bridgeId)</text><polygon fill="#181818" points="1716.5,1214.9688,1706.5,1218.9688,1716.5,1222.9688,1712.5,1218.9688" style="stroke:#181818;stroke-width:1.0;"/><line style="stroke:#181818;stroke-width:1.0;stroke-dasharray:2.0,2.0;" x1="1710.5" x2="1991.5" y1="1218.9688" y2="1218.9688"/><text fill="#000000" font-family="sans-serif" font-size="13" lengthAdjust="spacing" textLength="58" x="1722.5" y="1214.1123">bridgeDoc</text><polygon fill="#181818" points="2084.5,1245.3203,2094.5,1249.3203,2084.5,1253.3203,2088.5,1249.3203" style="stroke:#181818;stroke-width:1.0;"/><line style="stroke:#181818;stroke-width:1.0;" x1="1705.5" x2="2090.5" y1="1249.3203" y2="1249.3203"/><text fill="#000000" font-family="sans-serif" font-size="13" lengthAdjust="spacing" textLength="121" x="1712.5" y="1244.4639">toDomain(bridgeDoc)</text><polygon fill="#181818" points="1716.5,1275.6719,1706.5,1279.6719,1716.5,1283.6719,1712.5,1279.6719" style="stroke:#181818;stroke-width:1.0;"/><line style="stroke:#181818;stroke-width:1.0;stroke-dasharray:2.0,2.0;" x1="1710.5" x2="2095.5" y1="1279.6719" y2="1279.6719"/><text fill="#000000" font-family="sans-serif" font-size="13" lengthAdjust="spacing" textLength="35" x="1722.5" y="1274.8154">bridge</text><polygon fill="#181818" points="2222,1306.0234,2232,1310.0234,2222,1314.0234,2226,1310.0234" style="stroke:#181818;stroke-width:1.0;"/><line style="stroke:#181818;stroke-width:1.0;" x1="1330.5" x2="2228" y1="1310.0234" y2="1310.0234"/><text fill="#000000" font-family="sans-serif" font-size="13" lengthAdjust="spacing" textLength="308" x="1337.5" y="1305.167">sameBuilding(bridgeDTO.floorIdX, bridgeDTO.floorIdY)</text><polygon fill="#181818" points="1341.5,1336.375,1331.5,1340.375,1341.5,1344.375,1337.5,1340.375" style="stroke:#181818;stroke-width:1.0;"/><line style="stroke:#181818;stroke-width:1.0;stroke-dasharray:2.0,2.0;" x1="1335.5" x2="2233" y1="1340.375" y2="1340.375"/><text fill="#000000" font-family="sans-serif" font-size="13" lengthAdjust="spacing" textLength="45" x="1347.5" y="1335.5186">boolean</text><polygon fill="#181818" points="1693.5,1366.7266,1703.5,1370.7266,1693.5,1374.7266,1697.5,1370.7266" style="stroke:#181818;stroke-width:1.0;"/><line style="stroke:#181818;stroke-width:1.0;" x1="1330.5" x2="1699.5" y1="1370.7266" y2="1370.7266"/><text fill="#000000" font-family="sans-serif" font-size="13" lengthAdjust="spacing" textLength="351" x="1337.5" y="1365.8701">bridgeBetweenFloors(bridgeDTO.floorIdX, bridgeDTO.floorIdY)</text><polygon fill="#181818" points="1341.5,1397.0781,1331.5,1401.0781,1341.5,1405.0781,1337.5,1401.0781" style="stroke:#181818;stroke-width:1.0;"/><line style="stroke:#181818;stroke-width:1.0;stroke-dasharray:2.0,2.0;" x1="1335.5" x2="1704.5" y1="1401.0781" y2="1401.0781"/><text fill="#000000" font-family="sans-serif" font-size="13" lengthAdjust="spacing" textLength="45" x="1347.5" y="1396.2217">boolean</text><polygon fill="#181818" points="2222,1427.4297,2232,1431.4297,2222,1435.4297,2226,1431.4297" style="stroke:#181818;stroke-width:1.0;"/><line style="stroke:#181818;stroke-width:1.0;" x1="1330.5" x2="2228" y1="1431.4297" y2="1431.4297"/><text fill="#000000" font-family="sans-serif" font-size="13" lengthAdjust="spacing" textLength="287" x="1337.5" y="1426.5732">getFloorId(bridgeDTO.floorIdX, bridgeDTO.floorIdY)</text><polygon fill="#181818" points="1341.5,1457.7813,1331.5,1461.7813,1341.5,1465.7813,1337.5,1461.7813" style="stroke:#181818;stroke-width:1.0;"/><line style="stroke:#181818;stroke-width:1.0;stroke-dasharray:2.0,2.0;" x1="1335.5" x2="2233" y1="1461.7813" y2="1461.7813"/><text fill="#000000" font-family="sans-serif" font-size="13" lengthAdjust="spacing" textLength="45" x="1347.5" y="1456.9248">boolean</text><polygon fill="#181818" points="930,1488.1328,920,1492.1328,930,1496.1328,926,1492.1328" style="stroke:#181818;stroke-width:1.0;"/><line style="stroke:#181818;stroke-width:1.0;" x1="924" x2="1329.5" y1="1492.1328" y2="1492.1328"/><text fill="#000000" font-family="sans-serif" font-size="13" lengthAdjust="spacing" textLength="339" x="936" y="1487.2764">getBuildingByFloor(bridgeDTO.floorIdX, bridgeDTO.floorIdY)</text><polygon fill="#181818" points="1318.5,1518.4844,1328.5,1522.4844,1318.5,1526.4844,1322.5,1522.4844" style="stroke:#181818;stroke-width:1.0;"/><line style="stroke:#181818;stroke-width:1.0;stroke-dasharray:2.0,2.0;" x1="919" x2="1324.5" y1="1522.4844" y2="1522.4844"/><text fill="#000000" font-family="sans-serif" font-size="13" lengthAdjust="spacing" textLength="59" x="926" y="1517.6279">buildings[]</text><polygon fill="#181818" points="1693.5,1548.8359,1703.5,1552.8359,1693.5,1556.8359,1697.5,1552.8359" style="stroke:#181818;stroke-width:1.0;"/><line style="stroke:#181818;stroke-width:1.0;" x1="1330.5" x2="1699.5" y1="1552.8359" y2="1552.8359"/><text fill="#000000" font-family="sans-serif" font-size="13" lengthAdjust="spacing" textLength="132" x="1337.5" y="1547.9795">updateOne(bridgeDTO)</text><polygon fill="#181818" points="2084.5,1579.1875,2094.5,1583.1875,2084.5,1587.1875,2088.5,1583.1875" style="stroke:#181818;stroke-width:1.0;"/><line style="stroke:#181818;stroke-width:1.0;" x1="1705.5" x2="2090.5" y1="1583.1875" y2="1583.1875"/><text fill="#000000" font-family="sans-serif" font-size="13" lengthAdjust="spacing" textLength="149" x="1712.5" y="1578.3311">toPersistence(bridgeDTO)</text><polygon fill="#181818" points="1716.5,1609.5391,1706.5,1613.5391,1716.5,1617.5391,1712.5,1613.5391" style="stroke:#181818;stroke-width:1.0;"/><line style="stroke:#181818;stroke-width:1.0;stroke-dasharray:2.0,2.0;" x1="1710.5" x2="2095.5" y1="1613.5391" y2="1613.5391"/><text fill="#000000" font-family="sans-serif" font-size="13" lengthAdjust="spacing" textLength="139" x="1722.5" y="1608.6826">bridgePersistenceModel</text><polygon fill="#181818" points="1980.5,1639.8906,1990.5,1643.8906,1980.5,1647.8906,1984.5,1643.8906" style="stroke:#181818;stroke-width:1.0;"/><line style="stroke:#181818;stroke-width:1.0;" x1="1705.5" x2="1986.5" y1="1643.8906" y2="1643.8906"/><text fill="#000000" font-family="sans-serif" font-size="13" lengthAdjust="spacing" textLength="263" x="1712.5" y="1639.0342">updateOne(bridgeId, bridgePersistenceModel)</text><polygon fill="#181818" points="1716.5,1670.2422,1706.5,1674.2422,1716.5,1678.2422,1712.5,1674.2422" style="stroke:#181818;stroke-width:1.0;"/><line style="stroke:#181818;stroke-width:1.0;stroke-dasharray:2.0,2.0;" x1="1710.5" x2="1991.5" y1="1674.2422" y2="1674.2422"/><text fill="#000000" font-family="sans-serif" font-size="13" lengthAdjust="spacing" textLength="106" x="1722.5" y="1669.3857">updatedBridgeDoc</text><polygon fill="#181818" points="2084.5,1700.5938,2094.5,1704.5938,2084.5,1708.5938,2088.5,1704.5938" style="stroke:#181818;stroke-width:1.0;"/><line style="stroke:#181818;stroke-width:1.0;" x1="1705.5" x2="2090.5" y1="1704.5938" y2="1704.5938"/><text fill="#000000" font-family="sans-serif" font-size="13" lengthAdjust="spacing" textLength="169" x="1712.5" y="1699.7373">toDomain(updatedBridgeDoc)</text><polygon fill="#181818" points="1716.5,1730.9453,1706.5,1734.9453,1716.5,1738.9453,1712.5,1734.9453" style="stroke:#181818;stroke-width:1.0;"/><line style="stroke:#181818;stroke-width:1.0;stroke-dasharray:2.0,2.0;" x1="1710.5" x2="2095.5" y1="1734.9453" y2="1734.9453"/><text fill="#000000" font-family="sans-serif" font-size="13" lengthAdjust="spacing" textLength="83" x="1722.5" y="1730.0889">updatedBridge</text><polygon fill="#181818" points="1341.5,1761.2969,1331.5,1765.2969,1341.5,1769.2969,1337.5,1765.2969" style="stroke:#181818;stroke-width:1.0;"/><line style="stroke:#181818;stroke-width:1.0;stroke-dasharray:2.0,2.0;" x1="1335.5" x2="1704.5" y1="1765.2969" y2="1765.2969"/><text fill="#000000" font-family="sans-serif" font-size="13" lengthAdjust="spacing" textLength="83" x="1347.5" y="1760.4404">updatedBridge</text><polygon fill="#181818" points="1172.5,1791.6484,1162.5,1795.6484,1172.5,1799.6484,1168.5,1795.6484" style="stroke:#181818;stroke-width:1.0;"/><line style="stroke:#181818;stroke-width:1.0;stroke-dasharray:2.0,2.0;" x1="1166.5" x2="1329.5" y1="1795.6484" y2="1795.6484"/><text fill="#000000" font-family="sans-serif" font-size="13" lengthAdjust="spacing" textLength="109" x="1178.5" y="1790.792">updatedBridgeDTO</text><polygon fill="#181818" points="585,1822,575,1826,585,1830,581,1826" style="stroke:#181818;stroke-width:1.0;"/><line style="stroke:#181818;stroke-width:1.0;stroke-dasharray:2.0,2.0;" x1="579" x2="1160.5" y1="1826" y2="1826"/><text fill="#000000" font-family="sans-serif" font-size="13" lengthAdjust="spacing" textLength="109" x="591" y="1821.1436">updatedBridgeDTO</text><polygon fill="#181818" points="439,1852.3516,429,1856.3516,439,1860.3516,435,1856.3516" style="stroke:#181818;stroke-width:1.0;"/><line style="stroke:#181818;stroke-width:1.0;stroke-dasharray:2.0,2.0;" x1="433" x2="573" y1="1856.3516" y2="1856.3516"/><text fill="#000000" font-family="sans-serif" font-size="13" lengthAdjust="spacing" textLength="53" x="445" y="1851.4951">response</text><polygon fill="#181818" points="280,1882.7031,270,1886.7031,280,1890.7031,276,1886.7031" style="stroke:#181818;stroke-width:1.0;"/><line style="stroke:#181818;stroke-width:1.0;stroke-dasharray:2.0,2.0;" x1="274" x2="427" y1="1886.7031" y2="1886.7031"/><text fill="#000000" font-family="sans-serif" font-size="13" lengthAdjust="spacing" textLength="105" x="286" y="1881.8467">Display Response</text><!--MD5=[413c9dc9f325ada2317e8a03d1c66dcd]
@startuml

BridgeComponent -> EditBridgeComponent : Activate/EditBridgeComponent
EditBridgeComponent -> EditBridgeComponent : ngOnInit()

' Vai buscar os buildings
EditBridgeComponent -> HttpRequestsService : getBuildings()
HttpRequestsService -> Router : GET /building/list
Router -> BuildingController : listBuildings()
BuildingController -> BuildingService : getAllBuildings()
BuildingService -> BuildingRepo : listAll()
BuildingRepo -> BuildingSchema : find()
BuildingSchema - -> BuildingRepo : buildingDocs[]
BuildingRepo - -> BuildingService : buildings[]
BuildingService - -> BuildingController : buildings[]
BuildingController - -> Router : buildings[]
Router - -> HttpRequestsService : buildings[]
HttpRequestsService - -> EditBridgeComponent : buildings[]

' Vai buscar as pontes
EditBridgeComponent -> HttpRequestsService : getBridge(bridgeId)
HttpRequestsService -> Router : GET /bridge/:bridgeId
Router -> BridgeController : getBridge(req, res)
BridgeController -> BridgeService : getBridge(bridgeId)
BridgeService -> BridgeRepo : findById(bridgeId)
BridgeRepo -> BridgeSchema : findOne(bridgeId)
BridgeSchema - -> BridgeRepo : bridgeDoc
BridgeRepo -> BridgeMap : toDomain(bridgeDoc)
BridgeMap - -> BridgeRepo : bridge
BridgeRepo - -> BridgeService : bridge
BridgeService - -> BridgeController : bridgeDTO
BridgeController - -> Router : bridgeDTO
Router - -> HttpRequestsService : bridgeDTO
HttpRequestsService - -> EditBridgeComponent : bridgeDTO

'faz pedido de edição
EditBridgeComponent -> EditBridgeComponent : prepareData()
EditBridgeComponent -> Dto : Converts form data to BridgeDTO
Dto - -> EditBridgeComponent : bridgeDTO
EditBridgeComponent -> HttpRequestsService : PUT /bridge/:bridgeId
HttpRequestsService -> Router : PUT /bridge/:bridgeId
Router -> BridgeController : updateBridge(req, res, next)

' atualiza a ponte backend
BridgeController -> BridgeService : updateBridge(bridgeDTO)
BridgeService -> BridgeRepo : findAndGiveBridge(bridgeDTO.bridgeId)
BridgeRepo - -> BridgeSchema : findOne(bridgeDTO.bridgeId)
BridgeSchema - -> BridgeRepo : bridgeDoc
BridgeRepo -> BridgeMap : toDomain(bridgeDoc)
BridgeMap - -> BridgeRepo : bridge

BridgeService -> FloorRepo : sameBuilding(bridgeDTO.floorIdX, bridgeDTO.floorIdY)
FloorRepo - -> BridgeService : boolean

BridgeService -> BridgeRepo : bridgeBetweenFloors(bridgeDTO.floorIdX, bridgeDTO.floorIdY)
BridgeRepo - -> BridgeService : boolean

BridgeService -> FloorRepo : getFloorId(bridgeDTO.floorIdX, bridgeDTO.floorIdY)
FloorRepo - -> BridgeService : boolean

BridgeService -> BuildingRepo : getBuildingByFloor(bridgeDTO.floorIdX, bridgeDTO.floorIdY)
BuildingRepo - -> BridgeService : buildings[]

BridgeService -> BridgeRepo : updateOne(bridgeDTO)
BridgeRepo -> BridgeMap : toPersistence(bridgeDTO)
BridgeMap - -> BridgeRepo : bridgePersistenceModel
BridgeRepo -> BridgeSchema : updateOne(bridgeId, bridgePersistenceModel)
BridgeSchema - -> BridgeRepo : updatedBridgeDoc
BridgeRepo -> BridgeMap : toDomain(updatedBridgeDoc)
BridgeMap - -> BridgeRepo : updatedBridge
BridgeRepo - -> BridgeService : updatedBridge
BridgeService - -> BridgeController : updatedBridgeDTO
BridgeController - -> Router : updatedBridgeDTO
Router - -> HttpRequestsService : response
HttpRequestsService - -> EditBridgeComponent : Display Response


@enduml

@startuml

BridgeComponent -> EditBridgeComponent : Activate/EditBridgeComponent
EditBridgeComponent -> EditBridgeComponent : ngOnInit()

EditBridgeComponent -> HttpRequestsService : getBuildings()
HttpRequestsService -> Router : GET /building/list
Router -> BuildingController : listBuildings()
BuildingController -> BuildingService : getAllBuildings()
BuildingService -> BuildingRepo : listAll()
BuildingRepo -> BuildingSchema : find()
BuildingSchema - -> BuildingRepo : buildingDocs[]
BuildingRepo - -> BuildingService : buildings[]
BuildingService - -> BuildingController : buildings[]
BuildingController - -> Router : buildings[]
Router - -> HttpRequestsService : buildings[]
HttpRequestsService - -> EditBridgeComponent : buildings[]

EditBridgeComponent -> HttpRequestsService : getBridge(bridgeId)
HttpRequestsService -> Router : GET /bridge/:bridgeId
Router -> BridgeController : getBridge(req, res)
BridgeController -> BridgeService : getBridge(bridgeId)
BridgeService -> BridgeRepo : findById(bridgeId)
BridgeRepo -> BridgeSchema : findOne(bridgeId)
BridgeSchema - -> BridgeRepo : bridgeDoc
BridgeRepo -> BridgeMap : toDomain(bridgeDoc)
BridgeMap - -> BridgeRepo : bridge
BridgeRepo - -> BridgeService : bridge
BridgeService - -> BridgeController : bridgeDTO
BridgeController - -> Router : bridgeDTO
Router - -> HttpRequestsService : bridgeDTO
HttpRequestsService - -> EditBridgeComponent : bridgeDTO

EditBridgeComponent -> EditBridgeComponent : prepareData()
EditBridgeComponent -> Dto : Converts form data to BridgeDTO
Dto - -> EditBridgeComponent : bridgeDTO
EditBridgeComponent -> HttpRequestsService : PUT /bridge/:bridgeId
HttpRequestsService -> Router : PUT /bridge/:bridgeId
Router -> BridgeController : updateBridge(req, res, next)

BridgeController -> BridgeService : updateBridge(bridgeDTO)
BridgeService -> BridgeRepo : findAndGiveBridge(bridgeDTO.bridgeId)
BridgeRepo - -> BridgeSchema : findOne(bridgeDTO.bridgeId)
BridgeSchema - -> BridgeRepo : bridgeDoc
BridgeRepo -> BridgeMap : toDomain(bridgeDoc)
BridgeMap - -> BridgeRepo : bridge

BridgeService -> FloorRepo : sameBuilding(bridgeDTO.floorIdX, bridgeDTO.floorIdY)
FloorRepo - -> BridgeService : boolean

BridgeService -> BridgeRepo : bridgeBetweenFloors(bridgeDTO.floorIdX, bridgeDTO.floorIdY)
BridgeRepo - -> BridgeService : boolean

BridgeService -> FloorRepo : getFloorId(bridgeDTO.floorIdX, bridgeDTO.floorIdY)
FloorRepo - -> BridgeService : boolean

BridgeService -> BuildingRepo : getBuildingByFloor(bridgeDTO.floorIdX, bridgeDTO.floorIdY)
BuildingRepo - -> BridgeService : buildings[]

BridgeService -> BridgeRepo : updateOne(bridgeDTO)
BridgeRepo -> BridgeMap : toPersistence(bridgeDTO)
BridgeMap - -> BridgeRepo : bridgePersistenceModel
BridgeRepo -> BridgeSchema : updateOne(bridgeId, bridgePersistenceModel)
BridgeSchema - -> BridgeRepo : updatedBridgeDoc
BridgeRepo -> BridgeMap : toDomain(updatedBridgeDoc)
BridgeMap - -> BridgeRepo : updatedBridge
BridgeRepo - -> BridgeService : updatedBridge
BridgeService - -> BridgeController : updatedBridgeDTO
BridgeController - -> Router : updatedBridgeDTO
Router - -> HttpRequestsService : response
HttpRequestsService - -> EditBridgeComponent : Display Response


@enduml

PlantUML version 1.2022.7(Mon Aug 22 18:01:30 WEST 2022)
(GPL source distribution)
Java Runtime: Java(TM) SE Runtime Environment
JVM: Java HotSpot(TM) 64-Bit Server VM
Default Encoding: UTF-8
Language: pt
Country: PT
--></g></svg>