<?xml version="1.0" encoding="UTF-8" standalone="no"?><svg xmlns="http://www.w3.org/2000/svg" xmlns:xlink="http://www.w3.org/1999/xlink" contentStyleType="text/css" height="1369px" preserveAspectRatio="none" style="width:2220px;height:1369px;background:#FFFFFF;" version="1.1" viewBox="0 0 2220 1369" width="2220px" zoomAndPan="magnify"><defs/><g><rect fill="none" height="762.625" style="stroke:#000000;stroke-width:1.5;" width="2031" x="182" y="492.5313"/><line style="stroke:#181818;stroke-width:0.5;stroke-dasharray:5.0,5.0;" x1="69" x2="69" y1="37.6094" y2="1332.8594"/><line style="stroke:#181818;stroke-width:0.5;stroke-dasharray:5.0,5.0;" x1="267" x2="267" y1="37.6094" y2="1332.8594"/><line style="stroke:#181818;stroke-width:0.5;stroke-dasharray:5.0,5.0;" x1="568" x2="568" y1="37.6094" y2="1332.8594"/><line style="stroke:#181818;stroke-width:0.5;stroke-dasharray:5.0,5.0;" x1="774.5" x2="774.5" y1="37.6094" y2="1332.8594"/><line style="stroke:#181818;stroke-width:0.5;stroke-dasharray:5.0,5.0;" x1="877" x2="877" y1="37.6094" y2="1332.8594"/><line style="stroke:#181818;stroke-width:0.5;stroke-dasharray:5.0,5.0;" x1="1005" x2="1005" y1="37.6094" y2="1332.8594"/><line style="stroke:#181818;stroke-width:0.5;stroke-dasharray:5.0,5.0;" x1="1120" x2="1120" y1="37.6094" y2="1332.8594"/><line style="stroke:#181818;stroke-width:0.5;stroke-dasharray:5.0,5.0;" x1="1236" x2="1236" y1="37.6094" y2="1332.8594"/><line style="stroke:#181818;stroke-width:0.5;stroke-dasharray:5.0,5.0;" x1="1362" x2="1362" y1="37.6094" y2="1332.8594"/><line style="stroke:#181818;stroke-width:0.5;stroke-dasharray:5.0,5.0;" x1="1633.5" x2="1633.5" y1="37.6094" y2="1332.8594"/><line style="stroke:#181818;stroke-width:0.5;stroke-dasharray:5.0,5.0;" x1="1945" x2="1945" y1="37.6094" y2="1332.8594"/><line style="stroke:#181818;stroke-width:0.5;stroke-dasharray:5.0,5.0;" x1="2056" x2="2056" y1="37.6094" y2="1332.8594"/><line style="stroke:#181818;stroke-width:0.5;stroke-dasharray:5.0,5.0;" x1="2160" x2="2160" y1="37.6094" y2="1332.8594"/><rect fill="#E2E2F0" height="31.6094" rx="2.5" ry="2.5" style="stroke:#181818;stroke-width:0.5;" width="128" x="5" y="5"/><text fill="#000000" font-family="sans-serif" font-size="14" lengthAdjust="spacing" textLength="114" x="12" y="26.5332">BridgeComponent</text><rect fill="#E2E2F0" height="31.6094" rx="2.5" ry="2.5" style="stroke:#181818;stroke-width:0.5;" width="128" x="5" y="1331.8594"/><text fill="#000000" font-family="sans-serif" font-size="14" lengthAdjust="spacing" textLength="114" x="12" y="1353.3926">BridgeComponent</text><rect fill="#E2E2F0" height="31.6094" rx="2.5" ry="2.5" style="stroke:#181818;stroke-width:0.5;" width="150" x="192" y="5"/><text fill="#000000" font-family="sans-serif" font-size="14" lengthAdjust="spacing" textLength="136" x="199" y="26.5332">ListBridgeComponent</text><rect fill="#E2E2F0" height="31.6094" rx="2.5" ry="2.5" style="stroke:#181818;stroke-width:0.5;" width="150" x="192" y="1331.8594"/><text fill="#000000" font-family="sans-serif" font-size="14" lengthAdjust="spacing" textLength="136" x="199" y="1353.3926">ListBridgeComponent</text><rect fill="#E2E2F0" height="31.6094" rx="2.5" ry="2.5" style="stroke:#181818;stroke-width:0.5;" width="146" x="495" y="5"/><text fill="#000000" font-family="sans-serif" font-size="14" lengthAdjust="spacing" textLength="132" x="502" y="26.5332">HttpRequestsService</text><rect fill="#E2E2F0" height="31.6094" rx="2.5" ry="2.5" style="stroke:#181818;stroke-width:0.5;" width="146" x="495" y="1331.8594"/><text fill="#000000" font-family="sans-serif" font-size="14" lengthAdjust="spacing" textLength="132" x="502" y="1353.3926">HttpRequestsService</text><rect fill="#E2E2F0" height="31.6094" rx="2.5" ry="2.5" style="stroke:#181818;stroke-width:0.5;" width="57" x="746.5" y="5"/><text fill="#000000" font-family="sans-serif" font-size="14" lengthAdjust="spacing" textLength="43" x="753.5" y="26.5332">Router</text><rect fill="#E2E2F0" height="31.6094" rx="2.5" ry="2.5" style="stroke:#181818;stroke-width:0.5;" width="57" x="746.5" y="1331.8594"/><text fill="#000000" font-family="sans-serif" font-size="14" lengthAdjust="spacing" textLength="43" x="753.5" y="1353.3926">Router</text><rect fill="#E2E2F0" height="31.6094" rx="2.5" ry="2.5" style="stroke:#181818;stroke-width:0.5;" width="126" x="814" y="5"/><text fill="#000000" font-family="sans-serif" font-size="14" lengthAdjust="spacing" textLength="112" x="821" y="26.5332">BuildingController</text><rect fill="#E2E2F0" height="31.6094" rx="2.5" ry="2.5" style="stroke:#181818;stroke-width:0.5;" width="126" x="814" y="1331.8594"/><text fill="#000000" font-family="sans-serif" font-size="14" lengthAdjust="spacing" textLength="112" x="821" y="1353.3926">BuildingController</text><rect fill="#E2E2F0" height="31.6094" rx="2.5" ry="2.5" style="stroke:#181818;stroke-width:0.5;" width="111" x="950" y="5"/><text fill="#000000" font-family="sans-serif" font-size="14" lengthAdjust="spacing" textLength="97" x="957" y="26.5332">BuildingService</text><rect fill="#E2E2F0" height="31.6094" rx="2.5" ry="2.5" style="stroke:#181818;stroke-width:0.5;" width="111" x="950" y="1331.8594"/><text fill="#000000" font-family="sans-serif" font-size="14" lengthAdjust="spacing" textLength="97" x="957" y="1353.3926">BuildingService</text><rect fill="#E2E2F0" height="31.6094" rx="2.5" ry="2.5" style="stroke:#181818;stroke-width:0.5;" width="98" x="1071" y="5"/><text fill="#000000" font-family="sans-serif" font-size="14" lengthAdjust="spacing" textLength="84" x="1078" y="26.5332">BuildingRepo</text><rect fill="#E2E2F0" height="31.6094" rx="2.5" ry="2.5" style="stroke:#181818;stroke-width:0.5;" width="98" x="1071" y="1331.8594"/><text fill="#000000" font-family="sans-serif" font-size="14" lengthAdjust="spacing" textLength="84" x="1078" y="1353.3926">BuildingRepo</text><rect fill="#E2E2F0" height="31.6094" rx="2.5" ry="2.5" style="stroke:#181818;stroke-width:0.5;" width="115" x="1179" y="5"/><text fill="#000000" font-family="sans-serif" font-size="14" lengthAdjust="spacing" textLength="101" x="1186" y="26.5332">BuildingSchema</text><rect fill="#E2E2F0" height="31.6094" rx="2.5" ry="2.5" style="stroke:#181818;stroke-width:0.5;" width="115" x="1179" y="1331.8594"/><text fill="#000000" font-family="sans-serif" font-size="14" lengthAdjust="spacing" textLength="101" x="1186" y="1353.3926">BuildingSchema</text><rect fill="#E2E2F0" height="31.6094" rx="2.5" ry="2.5" style="stroke:#181818;stroke-width:0.5;" width="117" x="1304" y="5"/><text fill="#000000" font-family="sans-serif" font-size="14" lengthAdjust="spacing" textLength="103" x="1311" y="26.5332">BridgeController</text><rect fill="#E2E2F0" height="31.6094" rx="2.5" ry="2.5" style="stroke:#181818;stroke-width:0.5;" width="117" x="1304" y="1331.8594"/><text fill="#000000" font-family="sans-serif" font-size="14" lengthAdjust="spacing" textLength="103" x="1311" y="1353.3926">BridgeController</text><rect fill="#E2E2F0" height="31.6094" rx="2.5" ry="2.5" style="stroke:#181818;stroke-width:0.5;" width="102" x="1582.5" y="5"/><text fill="#000000" font-family="sans-serif" font-size="14" lengthAdjust="spacing" textLength="88" x="1589.5" y="26.5332">BridgeService</text><rect fill="#E2E2F0" height="31.6094" rx="2.5" ry="2.5" style="stroke:#181818;stroke-width:0.5;" width="102" x="1582.5" y="1331.8594"/><text fill="#000000" font-family="sans-serif" font-size="14" lengthAdjust="spacing" textLength="88" x="1589.5" y="1353.3926">BridgeService</text><rect fill="#E2E2F0" height="31.6094" rx="2.5" ry="2.5" style="stroke:#181818;stroke-width:0.5;" width="89" x="1901" y="5"/><text fill="#000000" font-family="sans-serif" font-size="14" lengthAdjust="spacing" textLength="75" x="1908" y="26.5332">BridgeRepo</text><rect fill="#E2E2F0" height="31.6094" rx="2.5" ry="2.5" style="stroke:#181818;stroke-width:0.5;" width="89" x="1901" y="1331.8594"/><text fill="#000000" font-family="sans-serif" font-size="14" lengthAdjust="spacing" textLength="75" x="1908" y="1353.3926">BridgeRepo</text><rect fill="#E2E2F0" height="31.6094" rx="2.5" ry="2.5" style="stroke:#181818;stroke-width:0.5;" width="103" x="2005" y="5"/><text fill="#000000" font-family="sans-serif" font-size="14" lengthAdjust="spacing" textLength="89" x="2012" y="26.5332">BridgeMapper</text><rect fill="#E2E2F0" height="31.6094" rx="2.5" ry="2.5" style="stroke:#181818;stroke-width:0.5;" width="103" x="2005" y="1331.8594"/><text fill="#000000" font-family="sans-serif" font-size="14" lengthAdjust="spacing" textLength="89" x="2012" y="1353.3926">BridgeMapper</text><rect fill="#E2E2F0" height="31.6094" rx="2.5" ry="2.5" style="stroke:#181818;stroke-width:0.5;" width="85" x="2118" y="5"/><text fill="#000000" font-family="sans-serif" font-size="14" lengthAdjust="spacing" textLength="71" x="2125" y="26.5332">BridgeDTO</text><rect fill="#E2E2F0" height="31.6094" rx="2.5" ry="2.5" style="stroke:#181818;stroke-width:0.5;" width="85" x="2118" y="1331.8594"/><text fill="#000000" font-family="sans-serif" font-size="14" lengthAdjust="spacing" textLength="71" x="2125" y="1353.3926">BridgeDTO</text><polygon fill="#181818" points="255,65.9609,265,69.9609,255,73.9609,259,69.9609" style="stroke:#181818;stroke-width:1.0;"/><line style="stroke:#181818;stroke-width:1.0;" x1="69" x2="261" y1="69.9609" y2="69.9609"/><text fill="#000000" font-family="sans-serif" font-size="13" lengthAdjust="spacing" textLength="174" x="76" y="65.1045">Activate/ListBridgeComponent</text><line style="stroke:#181818;stroke-width:1.0;" x1="267" x2="309" y1="100.3125" y2="100.3125"/><line style="stroke:#181818;stroke-width:1.0;" x1="309" x2="309" y1="100.3125" y2="113.3125"/><line style="stroke:#181818;stroke-width:1.0;" x1="268" x2="309" y1="113.3125" y2="113.3125"/><polygon fill="#181818" points="278,109.3125,268,113.3125,278,117.3125,274,113.3125" style="stroke:#181818;stroke-width:1.0;"/><text fill="#000000" font-family="sans-serif" font-size="13" lengthAdjust="spacing" textLength="56" x="274" y="95.4561">ngOnInit()</text><polygon fill="#181818" points="556,139.6641,566,143.6641,556,147.6641,560,143.6641" style="stroke:#181818;stroke-width:1.0;"/><line style="stroke:#181818;stroke-width:1.0;" x1="267" x2="562" y1="143.6641" y2="143.6641"/><text fill="#000000" font-family="sans-serif" font-size="13" lengthAdjust="spacing" textLength="79" x="274" y="138.8076">getBuildings()</text><polygon fill="#181818" points="763,170.0156,773,174.0156,763,178.0156,767,174.0156" style="stroke:#181818;stroke-width:1.0;"/><line style="stroke:#181818;stroke-width:1.0;" x1="568" x2="769" y1="174.0156" y2="174.0156"/><text fill="#000000" font-family="sans-serif" font-size="13" lengthAdjust="spacing" textLength="99" x="575" y="169.1592">GET /building/list</text><polygon fill="#181818" points="865,200.3672,875,204.3672,865,208.3672,869,204.3672" style="stroke:#181818;stroke-width:1.0;"/><line style="stroke:#181818;stroke-width:1.0;" x1="775" x2="871" y1="204.3672" y2="204.3672"/><text fill="#000000" font-family="sans-serif" font-size="13" lengthAdjust="spacing" textLength="78" x="782" y="199.5107">listBuildings()</text><polygon fill="#181818" points="993.5,230.7188,1003.5,234.7188,993.5,238.7188,997.5,234.7188" style="stroke:#181818;stroke-width:1.0;"/><line style="stroke:#181818;stroke-width:1.0;" x1="877" x2="999.5" y1="234.7188" y2="234.7188"/><text fill="#000000" font-family="sans-serif" font-size="13" lengthAdjust="spacing" textLength="94" x="884" y="229.8623">getAllBuildings()</text><polygon fill="#181818" points="1108,261.0703,1118,265.0703,1108,269.0703,1112,265.0703" style="stroke:#181818;stroke-width:1.0;"/><line style="stroke:#181818;stroke-width:1.0;" x1="1005.5" x2="1114" y1="265.0703" y2="265.0703"/><text fill="#000000" font-family="sans-serif" font-size="13" lengthAdjust="spacing" textLength="40" x="1012.5" y="260.2139">listAll()</text><polygon fill="#181818" points="1224.5,291.4219,1234.5,295.4219,1224.5,299.4219,1228.5,295.4219" style="stroke:#181818;stroke-width:1.0;"/><line style="stroke:#181818;stroke-width:1.0;" x1="1120" x2="1230.5" y1="295.4219" y2="295.4219"/><text fill="#000000" font-family="sans-serif" font-size="13" lengthAdjust="spacing" textLength="28" x="1127" y="290.5654">find()</text><polygon fill="#181818" points="1131,321.7734,1121,325.7734,1131,329.7734,1127,325.7734" style="stroke:#181818;stroke-width:1.0;"/><line style="stroke:#181818;stroke-width:1.0;stroke-dasharray:2.0,2.0;" x1="1125" x2="1235.5" y1="325.7734" y2="325.7734"/><text fill="#000000" font-family="sans-serif" font-size="13" lengthAdjust="spacing" textLength="82" x="1137" y="320.917">buildingDocs[]</text><polygon fill="#181818" points="1016.5,352.125,1006.5,356.125,1016.5,360.125,1012.5,356.125" style="stroke:#181818;stroke-width:1.0;"/><line style="stroke:#181818;stroke-width:1.0;stroke-dasharray:2.0,2.0;" x1="1010.5" x2="1119" y1="356.125" y2="356.125"/><text fill="#000000" font-family="sans-serif" font-size="13" lengthAdjust="spacing" textLength="59" x="1022.5" y="351.2686">buildings[]</text><polygon fill="#181818" points="888,382.4766,878,386.4766,888,390.4766,884,386.4766" style="stroke:#181818;stroke-width:1.0;"/><line style="stroke:#181818;stroke-width:1.0;stroke-dasharray:2.0,2.0;" x1="882" x2="1004.5" y1="386.4766" y2="386.4766"/><text fill="#000000" font-family="sans-serif" font-size="13" lengthAdjust="spacing" textLength="59" x="894" y="381.6201">buildings[]</text><polygon fill="#181818" points="786,412.8281,776,416.8281,786,420.8281,782,416.8281" style="stroke:#181818;stroke-width:1.0;"/><line style="stroke:#181818;stroke-width:1.0;stroke-dasharray:2.0,2.0;" x1="780" x2="876" y1="416.8281" y2="416.8281"/><text fill="#000000" font-family="sans-serif" font-size="13" lengthAdjust="spacing" textLength="59" x="792" y="411.9717">buildings[]</text><polygon fill="#181818" points="579,443.1797,569,447.1797,579,451.1797,575,447.1797" style="stroke:#181818;stroke-width:1.0;"/><line style="stroke:#181818;stroke-width:1.0;stroke-dasharray:2.0,2.0;" x1="573" x2="774" y1="447.1797" y2="447.1797"/><text fill="#000000" font-family="sans-serif" font-size="13" lengthAdjust="spacing" textLength="59" x="585" y="442.3232">buildings[]</text><polygon fill="#181818" points="278,473.5313,268,477.5313,278,481.5313,274,477.5313" style="stroke:#181818;stroke-width:1.0;"/><line style="stroke:#181818;stroke-width:1.0;stroke-dasharray:2.0,2.0;" x1="272" x2="567" y1="477.5313" y2="477.5313"/><text fill="#000000" font-family="sans-serif" font-size="13" lengthAdjust="spacing" textLength="59" x="284" y="472.6748">buildings[]</text><path d="M182,492.5313 L243,492.5313 L243,500.8828 L233,510.8828 L182,510.8828 L182,492.5313 " fill="#EEEEEE" style="stroke:#000000;stroke-width:1.5;"/><rect fill="none" height="762.625" style="stroke:#000000;stroke-width:1.5;" width="2031" x="182" y="492.5313"/><text fill="#000000" font-family="sans-serif" font-size="13" font-weight="bold" lengthAdjust="spacing" textLength="16" x="197" y="507.0264">alt</text><text fill="#000000" font-family="sans-serif" font-size="11" font-weight="bold" lengthAdjust="spacing" textLength="134" x="258" y="505.9502">[If Building IDs Provided]</text><polygon fill="#181818" points="556,529.2344,566,533.2344,556,537.2344,560,533.2344" style="stroke:#181818;stroke-width:1.0;"/><line style="stroke:#181818;stroke-width:1.0;" x1="267" x2="562" y1="533.2344" y2="533.2344"/><text fill="#000000" font-family="sans-serif" font-size="13" lengthAdjust="spacing" textLength="277" x="274" y="528.3779">getRequest('bridge/' + buildingX + '/' + buildingY)</text><polygon fill="#181818" points="763,559.5859,773,563.5859,763,567.5859,767,563.5859" style="stroke:#181818;stroke-width:1.0;"/><line style="stroke:#181818;stroke-width:1.0;" x1="568" x2="769" y1="563.5859" y2="563.5859"/><text fill="#000000" font-family="sans-serif" font-size="13" lengthAdjust="spacing" textLength="183" x="575" y="558.7295">route.get('/:buildingX/:buildingY')</text><polygon fill="#181818" points="1350.5,589.9375,1360.5,593.9375,1350.5,597.9375,1354.5,593.9375" style="stroke:#181818;stroke-width:1.0;"/><line style="stroke:#181818;stroke-width:1.0;" x1="775" x2="1356.5" y1="593.9375" y2="593.9375"/><text fill="#000000" font-family="sans-serif" font-size="13" lengthAdjust="spacing" textLength="242" x="782" y="589.0811">listBridgesBetweenBuilding(req, res, next)</text><polygon fill="#181818" points="1621.5,620.2891,1631.5,624.2891,1621.5,628.2891,1625.5,624.2891" style="stroke:#181818;stroke-width:1.0;"/><line style="stroke:#181818;stroke-width:1.0;" x1="1362.5" x2="1627.5" y1="624.2891" y2="624.2891"/><text fill="#000000" font-family="sans-serif" font-size="13" lengthAdjust="spacing" textLength="247" x="1369.5" y="619.4326">listBridgesOfBuildings(buildingX, buildingY)</text><polygon fill="#181818" points="1131,650.6406,1121,654.6406,1131,658.6406,1127,654.6406" style="stroke:#181818;stroke-width:1.0;"/><line style="stroke:#181818;stroke-width:1.0;" x1="1125" x2="1632.5" y1="654.6406" y2="654.6406"/><text fill="#000000" font-family="sans-serif" font-size="13" lengthAdjust="spacing" textLength="105" x="1137" y="649.7842">findById(buildingX)</text><polygon fill="#181818" points="1621.5,680.9922,1631.5,684.9922,1621.5,688.9922,1625.5,684.9922" style="stroke:#181818;stroke-width:1.0;"/><line style="stroke:#181818;stroke-width:1.0;stroke-dasharray:2.0,2.0;" x1="1120" x2="1627.5" y1="684.9922" y2="684.9922"/><text fill="#000000" font-family="sans-serif" font-size="13" lengthAdjust="spacing" textLength="44" x="1127" y="680.1357">building</text><polygon fill="#181818" points="1131,711.3438,1121,715.3438,1131,719.3438,1127,715.3438" style="stroke:#181818;stroke-width:1.0;"/><line style="stroke:#181818;stroke-width:1.0;" x1="1125" x2="1632.5" y1="715.3438" y2="715.3438"/><text fill="#000000" font-family="sans-serif" font-size="13" lengthAdjust="spacing" textLength="107" x="1137" y="710.4873">findById(buildingY)</text><polygon fill="#181818" points="1621.5,741.6953,1631.5,745.6953,1621.5,749.6953,1625.5,745.6953" style="stroke:#181818;stroke-width:1.0;"/><line style="stroke:#181818;stroke-width:1.0;stroke-dasharray:2.0,2.0;" x1="1120" x2="1627.5" y1="745.6953" y2="745.6953"/><text fill="#000000" font-family="sans-serif" font-size="13" lengthAdjust="spacing" textLength="44" x="1127" y="740.8389">building</text><polygon fill="#181818" points="1933.5,772.0469,1943.5,776.0469,1933.5,780.0469,1937.5,776.0469" style="stroke:#181818;stroke-width:1.0;"/><line style="stroke:#181818;stroke-width:1.0;" x1="1633.5" x2="1939.5" y1="776.0469" y2="776.0469"/><text fill="#000000" font-family="sans-serif" font-size="13" lengthAdjust="spacing" textLength="288" x="1640.5" y="771.1904">getBridgeBetweenBuildingsId(buildingX, buildingY)</text><polygon fill="#181818" points="2044.5,802.3984,2054.5,806.3984,2044.5,810.3984,2048.5,806.3984" style="stroke:#181818;stroke-width:1.0;"/><line style="stroke:#181818;stroke-width:1.0;" x1="1945.5" x2="2050.5" y1="806.3984" y2="806.3984"/><text fill="#000000" font-family="sans-serif" font-size="13" lengthAdjust="spacing" textLength="87" x="1952.5" y="801.542">toDTO(bridges)</text><polygon fill="#181818" points="2148.5,832.75,2158.5,836.75,2148.5,840.75,2152.5,836.75" style="stroke:#181818;stroke-width:1.0;"/><line style="stroke:#181818;stroke-width:1.0;" x1="2056.5" x2="2154.5" y1="836.75" y2="836.75"/><text fill="#000000" font-family="sans-serif" font-size="13" lengthAdjust="spacing" textLength="68" x="2063.5" y="831.8936">bridgesDTO</text><polygon fill="#181818" points="1644.5,863.1016,1634.5,867.1016,1644.5,871.1016,1640.5,867.1016" style="stroke:#181818;stroke-width:1.0;"/><line style="stroke:#181818;stroke-width:1.0;stroke-dasharray:2.0,2.0;" x1="1638.5" x2="2159.5" y1="867.1016" y2="867.1016"/><text fill="#000000" font-family="sans-serif" font-size="13" lengthAdjust="spacing" textLength="68" x="1650.5" y="862.2451">bridgesDTO</text><polygon fill="#181818" points="1373.5,893.4531,1363.5,897.4531,1373.5,901.4531,1369.5,897.4531" style="stroke:#181818;stroke-width:1.0;"/><line style="stroke:#181818;stroke-width:1.0;stroke-dasharray:2.0,2.0;" x1="1367.5" x2="1632.5" y1="897.4531" y2="897.4531"/><text fill="#000000" font-family="sans-serif" font-size="13" lengthAdjust="spacing" textLength="61" x="1379.5" y="892.5967">bridgeDTO</text><polygon fill="#181818" points="786,923.8047,776,927.8047,786,931.8047,782,927.8047" style="stroke:#181818;stroke-width:1.0;"/><line style="stroke:#181818;stroke-width:1.0;stroke-dasharray:2.0,2.0;" x1="780" x2="1361.5" y1="927.8047" y2="927.8047"/><text fill="#000000" font-family="sans-serif" font-size="13" lengthAdjust="spacing" textLength="87" x="792" y="922.9482">Send response</text><line style="stroke:#000000;stroke-width:1.0;stroke-dasharray:2.0,2.0;" x1="182" x2="2213" y1="936.8047" y2="936.8047"/><text fill="#000000" font-family="sans-serif" font-size="11" font-weight="bold" lengthAdjust="spacing" textLength="151" x="187" y="948.2236">[If No Building IDs Provided]</text><polygon fill="#181818" points="556,969.9922,566,973.9922,556,977.9922,560,973.9922" style="stroke:#181818;stroke-width:1.0;"/><line style="stroke:#181818;stroke-width:1.0;" x1="267" x2="562" y1="973.9922" y2="973.9922"/><text fill="#000000" font-family="sans-serif" font-size="13" lengthAdjust="spacing" textLength="113" x="274" y="969.1357">getRequest('bridge')</text><polygon fill="#181818" points="763,1000.3438,773,1004.3438,763,1008.3438,767,1004.3438" style="stroke:#181818;stroke-width:1.0;"/><line style="stroke:#181818;stroke-width:1.0;" x1="568" x2="769" y1="1004.3438" y2="1004.3438"/><text fill="#000000" font-family="sans-serif" font-size="13" lengthAdjust="spacing" textLength="63" x="575" y="999.4873">route.get('')</text><polygon fill="#181818" points="1350.5,1030.6953,1360.5,1034.6953,1350.5,1038.6953,1354.5,1034.6953" style="stroke:#181818;stroke-width:1.0;"/><line style="stroke:#181818;stroke-width:1.0;" x1="775" x2="1356.5" y1="1034.6953" y2="1034.6953"/><text fill="#000000" font-family="sans-serif" font-size="13" lengthAdjust="spacing" textLength="146" x="782" y="1029.8389">listBridges(req, res, next)</text><polygon fill="#181818" points="1621.5,1061.0469,1631.5,1065.0469,1621.5,1069.0469,1625.5,1065.0469" style="stroke:#181818;stroke-width:1.0;"/><line style="stroke:#181818;stroke-width:1.0;" x1="1362.5" x2="1627.5" y1="1065.0469" y2="1065.0469"/><text fill="#000000" font-family="sans-serif" font-size="13" lengthAdjust="spacing" textLength="41" x="1369.5" y="1060.1904">getAll()</text><polygon fill="#181818" points="1933.5,1091.3984,1943.5,1095.3984,1933.5,1099.3984,1937.5,1095.3984" style="stroke:#181818;stroke-width:1.0;"/><line style="stroke:#181818;stroke-width:1.0;" x1="1633.5" x2="1939.5" y1="1095.3984" y2="1095.3984"/><text fill="#000000" font-family="sans-serif" font-size="13" lengthAdjust="spacing" textLength="40" x="1640.5" y="1090.542">listAll()</text><polygon fill="#181818" points="2044.5,1121.75,2054.5,1125.75,2044.5,1129.75,2048.5,1125.75" style="stroke:#181818;stroke-width:1.0;"/><line style="stroke:#181818;stroke-width:1.0;" x1="1945.5" x2="2050.5" y1="1125.75" y2="1125.75"/><text fill="#000000" font-family="sans-serif" font-size="13" lengthAdjust="spacing" textLength="87" x="1952.5" y="1120.8936">toDTO(bridges)</text><polygon fill="#181818" points="2148.5,1152.1016,2158.5,1156.1016,2148.5,1160.1016,2152.5,1156.1016" style="stroke:#181818;stroke-width:1.0;"/><line style="stroke:#181818;stroke-width:1.0;" x1="2056.5" x2="2154.5" y1="1156.1016" y2="1156.1016"/><text fill="#000000" font-family="sans-serif" font-size="13" lengthAdjust="spacing" textLength="68" x="2063.5" y="1151.2451">bridgesDTO</text><polygon fill="#181818" points="1644.5,1182.4531,1634.5,1186.4531,1644.5,1190.4531,1640.5,1186.4531" style="stroke:#181818;stroke-width:1.0;"/><line style="stroke:#181818;stroke-width:1.0;stroke-dasharray:2.0,2.0;" x1="1638.5" x2="2159.5" y1="1186.4531" y2="1186.4531"/><text fill="#000000" font-family="sans-serif" font-size="13" lengthAdjust="spacing" textLength="68" x="1650.5" y="1181.5967">bridgesDTO</text><polygon fill="#181818" points="1373.5,1212.8047,1363.5,1216.8047,1373.5,1220.8047,1369.5,1216.8047" style="stroke:#181818;stroke-width:1.0;"/><line style="stroke:#181818;stroke-width:1.0;stroke-dasharray:2.0,2.0;" x1="1367.5" x2="1632.5" y1="1216.8047" y2="1216.8047"/><text fill="#000000" font-family="sans-serif" font-size="13" lengthAdjust="spacing" textLength="61" x="1379.5" y="1211.9482">bridgeDTO</text><polygon fill="#181818" points="786,1243.1563,776,1247.1563,786,1251.1563,782,1247.1563" style="stroke:#181818;stroke-width:1.0;"/><line style="stroke:#181818;stroke-width:1.0;stroke-dasharray:2.0,2.0;" x1="780" x2="1361.5" y1="1247.1563" y2="1247.1563"/><text fill="#000000" font-family="sans-serif" font-size="13" lengthAdjust="spacing" textLength="87" x="792" y="1242.2998">Send response</text><polygon fill="#181818" points="579,1280.5078,569,1284.5078,579,1288.5078,575,1284.5078" style="stroke:#181818;stroke-width:1.0;"/><line style="stroke:#181818;stroke-width:1.0;" x1="573" x2="774" y1="1284.5078" y2="1284.5078"/><text fill="#000000" font-family="sans-serif" font-size="13" lengthAdjust="spacing" textLength="87" x="585" y="1279.6514">Send response</text><polygon fill="#181818" points="278,1310.8594,268,1314.8594,278,1318.8594,274,1314.8594" style="stroke:#181818;stroke-width:1.0;"/><line style="stroke:#181818;stroke-width:1.0;" x1="272" x2="567" y1="1314.8594" y2="1314.8594"/><text fill="#000000" font-family="sans-serif" font-size="13" lengthAdjust="spacing" textLength="89" x="284" y="1310.0029">Display bridges</text><!--MD5=[7f4e57edec7756285a2e7b7f52b397f5]
@startuml

BridgeComponent -> ListBridgeComponent : Activate/ListBridgeComponent
ListBridgeComponent -> ListBridgeComponent : ngOnInit()

'vai buscar os buildings
ListBridgeComponent -> HttpRequestsService : getBuildings()
HttpRequestsService -> Router : GET /building/list
Router -> BuildingController : listBuildings()
BuildingController -> BuildingService : getAllBuildings()
BuildingService -> BuildingRepo : listAll()
BuildingRepo -> BuildingSchema : find()
BuildingSchema - -> BuildingRepo : buildingDocs[]
BuildingRepo - -> BuildingService : buildings[]
BuildingService - -> BuildingController : buildings[]
BuildingController - -> Router : buildings[]
Router - -> HttpRequestsService : buildings[]
HttpRequestsService - -> ListBridgeComponent : buildings[]


alt If Building IDs Provided
    ListBridgeComponent -> HttpRequestsService: getRequest('bridge/' + buildingX + '/' + buildingY)
    HttpRequestsService -> Router: route.get('/:buildingX/:buildingY')
    Router -> BridgeController: listBridgesBetweenBuilding(req, res, next)
    BridgeController -> BridgeService: listBridgesOfBuildings(buildingX, buildingY)
    BridgeService -> BuildingRepo: findById(buildingX)
    BuildingRepo - -> BridgeService: building
    BridgeService -> BuildingRepo: findById(buildingY)
BuildingRepo - -> BridgeService: building
    BridgeService -> BridgeRepo: getBridgeBetweenBuildingsId(buildingX, buildingY)
    BridgeRepo -> BridgeMapper: toDTO(bridges)
    BridgeMapper -> BridgeDTO: bridgesDTO
    BridgeDTO - -> BridgeService: bridgesDTO
    BridgeService - -> BridgeController: bridgeDTO
    BridgeController - -> Router: Send response
else If No Building IDs Provided
    ListBridgeComponent -> HttpRequestsService: getRequest('bridge')
    HttpRequestsService -> Router: route.get('')
    Router -> BridgeController: listBridges(req, res, next)
    BridgeController -> BridgeService: getAll()
    BridgeService -> BridgeRepo: listAll()
    BridgeRepo -> BridgeMapper: toDTO(bridges)
     BridgeMapper -> BridgeDTO: bridgesDTO
    BridgeDTO - -> BridgeService: bridgesDTO
    BridgeService - -> BridgeController: bridgeDTO
    BridgeController - -> Router: Send response
end
Router -> HttpRequestsService: Send response
HttpRequestsService -> ListBridgeComponent: Display bridges


@enduml

@startuml

BridgeComponent -> ListBridgeComponent : Activate/ListBridgeComponent
ListBridgeComponent -> ListBridgeComponent : ngOnInit()

ListBridgeComponent -> HttpRequestsService : getBuildings()
HttpRequestsService -> Router : GET /building/list
Router -> BuildingController : listBuildings()
BuildingController -> BuildingService : getAllBuildings()
BuildingService -> BuildingRepo : listAll()
BuildingRepo -> BuildingSchema : find()
BuildingSchema - -> BuildingRepo : buildingDocs[]
BuildingRepo - -> BuildingService : buildings[]
BuildingService - -> BuildingController : buildings[]
BuildingController - -> Router : buildings[]
Router - -> HttpRequestsService : buildings[]
HttpRequestsService - -> ListBridgeComponent : buildings[]


alt If Building IDs Provided
    ListBridgeComponent -> HttpRequestsService: getRequest('bridge/' + buildingX + '/' + buildingY)
    HttpRequestsService -> Router: route.get('/:buildingX/:buildingY')
    Router -> BridgeController: listBridgesBetweenBuilding(req, res, next)
    BridgeController -> BridgeService: listBridgesOfBuildings(buildingX, buildingY)
    BridgeService -> BuildingRepo: findById(buildingX)
    BuildingRepo - -> BridgeService: building
    BridgeService -> BuildingRepo: findById(buildingY)
BuildingRepo - -> BridgeService: building
    BridgeService -> BridgeRepo: getBridgeBetweenBuildingsId(buildingX, buildingY)
    BridgeRepo -> BridgeMapper: toDTO(bridges)
    BridgeMapper -> BridgeDTO: bridgesDTO
    BridgeDTO - -> BridgeService: bridgesDTO
    BridgeService - -> BridgeController: bridgeDTO
    BridgeController - -> Router: Send response
else If No Building IDs Provided
    ListBridgeComponent -> HttpRequestsService: getRequest('bridge')
    HttpRequestsService -> Router: route.get('')
    Router -> BridgeController: listBridges(req, res, next)
    BridgeController -> BridgeService: getAll()
    BridgeService -> BridgeRepo: listAll()
    BridgeRepo -> BridgeMapper: toDTO(bridges)
     BridgeMapper -> BridgeDTO: bridgesDTO
    BridgeDTO - -> BridgeService: bridgesDTO
    BridgeService - -> BridgeController: bridgeDTO
    BridgeController - -> Router: Send response
end
Router -> HttpRequestsService: Send response
HttpRequestsService -> ListBridgeComponent: Display bridges


@enduml

PlantUML version 1.2022.7(Mon Aug 22 18:01:30 WEST 2022)
(GPL source distribution)
Java Runtime: Java(TM) SE Runtime Environment
JVM: Java HotSpot(TM) 64-Bit Server VM
Default Encoding: UTF-8
Language: pt
Country: PT
--></g></svg>