<?xml version="1.0" encoding="UTF-8" standalone="no"?><svg xmlns="http://www.w3.org/2000/svg" xmlns:xlink="http://www.w3.org/1999/xlink" contentStyleType="text/css" height="1880px" preserveAspectRatio="none" style="width:2934px;height:1880px;background:#FFFFFF;" version="1.1" viewBox="0 0 2934 1880" width="2934px" zoomAndPan="magnify"><defs/><g><line style="stroke:#181818;stroke-width:0.5;stroke-dasharray:5.0,5.0;" x1="74" x2="74" y1="37.6094" y2="1844"/><line style="stroke:#181818;stroke-width:0.5;stroke-dasharray:5.0,5.0;" x1="298.5" x2="298.5" y1="37.6094" y2="1844"/><line style="stroke:#181818;stroke-width:0.5;stroke-dasharray:5.0,5.0;" x1="529.5" x2="529.5" y1="37.6094" y2="1844"/><line style="stroke:#181818;stroke-width:0.5;stroke-dasharray:5.0,5.0;" x1="695" x2="695" y1="37.6094" y2="1844"/><line style="stroke:#181818;stroke-width:0.5;stroke-dasharray:5.0,5.0;" x1="797.5" x2="797.5" y1="37.6094" y2="1844"/><line style="stroke:#181818;stroke-width:0.5;stroke-dasharray:5.0,5.0;" x1="925.5" x2="925.5" y1="37.6094" y2="1844"/><line style="stroke:#181818;stroke-width:0.5;stroke-dasharray:5.0,5.0;" x1="1040.5" x2="1040.5" y1="37.6094" y2="1844"/><line style="stroke:#181818;stroke-width:0.5;stroke-dasharray:5.0,5.0;" x1="1156.5" x2="1156.5" y1="37.6094" y2="1844"/><line style="stroke:#181818;stroke-width:0.5;stroke-dasharray:5.0,5.0;" x1="1278.5" x2="1278.5" y1="37.6094" y2="1844"/><line style="stroke:#181818;stroke-width:0.5;stroke-dasharray:5.0,5.0;" x1="1491" x2="1491" y1="37.6094" y2="1844"/><line style="stroke:#181818;stroke-width:0.5;stroke-dasharray:5.0,5.0;" x1="1668.5" x2="1668.5" y1="37.6094" y2="1844"/><line style="stroke:#181818;stroke-width:0.5;stroke-dasharray:5.0,5.0;" x1="1768.5" x2="1768.5" y1="37.6094" y2="1844"/><line style="stroke:#181818;stroke-width:0.5;stroke-dasharray:5.0,5.0;" x1="1845.5" x2="1845.5" y1="37.6094" y2="1844"/><line style="stroke:#181818;stroke-width:0.5;stroke-dasharray:5.0,5.0;" x1="1937.5" x2="1937.5" y1="37.6094" y2="1844"/><line style="stroke:#181818;stroke-width:0.5;stroke-dasharray:5.0,5.0;" x1="2121" x2="2121" y1="37.6094" y2="1844"/><line style="stroke:#181818;stroke-width:0.5;stroke-dasharray:5.0,5.0;" x1="2428.5" x2="2428.5" y1="37.6094" y2="1844"/><line style="stroke:#181818;stroke-width:0.5;stroke-dasharray:5.0,5.0;" x1="2504.5" x2="2504.5" y1="37.6094" y2="1844"/><line style="stroke:#181818;stroke-width:0.5;stroke-dasharray:5.0,5.0;" x1="2564.5" x2="2564.5" y1="37.6094" y2="1844"/><line style="stroke:#181818;stroke-width:0.5;stroke-dasharray:5.0,5.0;" x1="2653.5" x2="2653.5" y1="37.6094" y2="1844"/><line style="stroke:#181818;stroke-width:0.5;stroke-dasharray:5.0,5.0;" x1="2869.5" x2="2869.5" y1="37.6094" y2="1844"/><rect fill="#E2E2F0" height="31.6094" rx="2.5" ry="2.5" style="stroke:#181818;stroke-width:0.5;" width="139" x="5" y="5"/><text fill="#000000" font-family="sans-serif" font-size="14" lengthAdjust="spacing" textLength="125" x="12" y="26.5332">ElevatorComponent</text><rect fill="#E2E2F0" height="31.6094" rx="2.5" ry="2.5" style="stroke:#181818;stroke-width:0.5;" width="139" x="5" y="1843"/><text fill="#000000" font-family="sans-serif" font-size="14" lengthAdjust="spacing" textLength="125" x="12" y="1864.5332">ElevatorComponent</text><rect fill="#E2E2F0" height="31.6094" rx="2.5" ry="2.5" style="stroke:#181818;stroke-width:0.5;" width="182" x="207.5" y="5"/><text fill="#000000" font-family="sans-serif" font-size="14" lengthAdjust="spacing" textLength="168" x="214.5" y="26.5332">CreateElevatorComponent</text><rect fill="#E2E2F0" height="31.6094" rx="2.5" ry="2.5" style="stroke:#181818;stroke-width:0.5;" width="182" x="207.5" y="1843"/><text fill="#000000" font-family="sans-serif" font-size="14" lengthAdjust="spacing" textLength="168" x="214.5" y="1864.5332">CreateElevatorComponent</text><rect fill="#E2E2F0" height="31.6094" rx="2.5" ry="2.5" style="stroke:#181818;stroke-width:0.5;" width="146" x="456.5" y="5"/><text fill="#000000" font-family="sans-serif" font-size="14" lengthAdjust="spacing" textLength="132" x="463.5" y="26.5332">HttpRequestsService</text><rect fill="#E2E2F0" height="31.6094" rx="2.5" ry="2.5" style="stroke:#181818;stroke-width:0.5;" width="146" x="456.5" y="1843"/><text fill="#000000" font-family="sans-serif" font-size="14" lengthAdjust="spacing" textLength="132" x="463.5" y="1864.5332">HttpRequestsService</text><rect fill="#E2E2F0" height="31.6094" rx="2.5" ry="2.5" style="stroke:#181818;stroke-width:0.5;" width="57" x="667" y="5"/><text fill="#000000" font-family="sans-serif" font-size="14" lengthAdjust="spacing" textLength="43" x="674" y="26.5332">Router</text><rect fill="#E2E2F0" height="31.6094" rx="2.5" ry="2.5" style="stroke:#181818;stroke-width:0.5;" width="57" x="667" y="1843"/><text fill="#000000" font-family="sans-serif" font-size="14" lengthAdjust="spacing" textLength="43" x="674" y="1864.5332">Router</text><rect fill="#E2E2F0" height="31.6094" rx="2.5" ry="2.5" style="stroke:#181818;stroke-width:0.5;" width="126" x="734.5" y="5"/><text fill="#000000" font-family="sans-serif" font-size="14" lengthAdjust="spacing" textLength="112" x="741.5" y="26.5332">BuildingController</text><rect fill="#E2E2F0" height="31.6094" rx="2.5" ry="2.5" style="stroke:#181818;stroke-width:0.5;" width="126" x="734.5" y="1843"/><text fill="#000000" font-family="sans-serif" font-size="14" lengthAdjust="spacing" textLength="112" x="741.5" y="1864.5332">BuildingController</text><rect fill="#E2E2F0" height="31.6094" rx="2.5" ry="2.5" style="stroke:#181818;stroke-width:0.5;" width="111" x="870.5" y="5"/><text fill="#000000" font-family="sans-serif" font-size="14" lengthAdjust="spacing" textLength="97" x="877.5" y="26.5332">BuildingService</text><rect fill="#E2E2F0" height="31.6094" rx="2.5" ry="2.5" style="stroke:#181818;stroke-width:0.5;" width="111" x="870.5" y="1843"/><text fill="#000000" font-family="sans-serif" font-size="14" lengthAdjust="spacing" textLength="97" x="877.5" y="1864.5332">BuildingService</text><rect fill="#E2E2F0" height="31.6094" rx="2.5" ry="2.5" style="stroke:#181818;stroke-width:0.5;" width="98" x="991.5" y="5"/><text fill="#000000" font-family="sans-serif" font-size="14" lengthAdjust="spacing" textLength="84" x="998.5" y="26.5332">BuildingRepo</text><rect fill="#E2E2F0" height="31.6094" rx="2.5" ry="2.5" style="stroke:#181818;stroke-width:0.5;" width="98" x="991.5" y="1843"/><text fill="#000000" font-family="sans-serif" font-size="14" lengthAdjust="spacing" textLength="84" x="998.5" y="1864.5332">BuildingRepo</text><rect fill="#E2E2F0" height="31.6094" rx="2.5" ry="2.5" style="stroke:#181818;stroke-width:0.5;" width="115" x="1099.5" y="5"/><text fill="#000000" font-family="sans-serif" font-size="14" lengthAdjust="spacing" textLength="101" x="1106.5" y="26.5332">BuildingSchema</text><rect fill="#E2E2F0" height="31.6094" rx="2.5" ry="2.5" style="stroke:#181818;stroke-width:0.5;" width="115" x="1099.5" y="1843"/><text fill="#000000" font-family="sans-serif" font-size="14" lengthAdjust="spacing" textLength="101" x="1106.5" y="1864.5332">BuildingSchema</text><rect fill="#E2E2F0" height="31.6094" rx="2.5" ry="2.5" style="stroke:#181818;stroke-width:0.5;" width="109" x="1224.5" y="5"/><text fill="#000000" font-family="sans-serif" font-size="14" lengthAdjust="spacing" textLength="95" x="1231.5" y="26.5332">FloorController</text><rect fill="#E2E2F0" height="31.6094" rx="2.5" ry="2.5" style="stroke:#181818;stroke-width:0.5;" width="109" x="1224.5" y="1843"/><text fill="#000000" font-family="sans-serif" font-size="14" lengthAdjust="spacing" textLength="95" x="1231.5" y="1864.5332">FloorController</text><rect fill="#E2E2F0" height="31.6094" rx="2.5" ry="2.5" style="stroke:#181818;stroke-width:0.5;" width="94" x="1444" y="5"/><text fill="#000000" font-family="sans-serif" font-size="14" lengthAdjust="spacing" textLength="80" x="1451" y="26.5332">FloorService</text><rect fill="#E2E2F0" height="31.6094" rx="2.5" ry="2.5" style="stroke:#181818;stroke-width:0.5;" width="94" x="1444" y="1843"/><text fill="#000000" font-family="sans-serif" font-size="14" lengthAdjust="spacing" textLength="80" x="1451" y="1864.5332">FloorService</text><rect fill="#E2E2F0" height="31.6094" rx="2.5" ry="2.5" style="stroke:#181818;stroke-width:0.5;" width="81" x="1628.5" y="5"/><text fill="#000000" font-family="sans-serif" font-size="14" lengthAdjust="spacing" textLength="67" x="1635.5" y="26.5332">FloorRepo</text><rect fill="#E2E2F0" height="31.6094" rx="2.5" ry="2.5" style="stroke:#181818;stroke-width:0.5;" width="81" x="1628.5" y="1843"/><text fill="#000000" font-family="sans-serif" font-size="14" lengthAdjust="spacing" textLength="67" x="1635.5" y="1864.5332">FloorRepo</text><rect fill="#E2E2F0" height="31.6094" rx="2.5" ry="2.5" style="stroke:#181818;stroke-width:0.5;" width="98" x="1719.5" y="5"/><text fill="#000000" font-family="sans-serif" font-size="14" lengthAdjust="spacing" textLength="84" x="1726.5" y="26.5332">FloorSchema</text><rect fill="#E2E2F0" height="31.6094" rx="2.5" ry="2.5" style="stroke:#181818;stroke-width:0.5;" width="98" x="1719.5" y="1843"/><text fill="#000000" font-family="sans-serif" font-size="14" lengthAdjust="spacing" textLength="84" x="1726.5" y="1864.5332">FloorSchema</text><rect fill="#E2E2F0" height="31.6094" rx="2.5" ry="2.5" style="stroke:#181818;stroke-width:0.5;" width="36" x="1827.5" y="5"/><text fill="#000000" font-family="sans-serif" font-size="14" lengthAdjust="spacing" textLength="22" x="1834.5" y="26.5332">Dto</text><rect fill="#E2E2F0" height="31.6094" rx="2.5" ry="2.5" style="stroke:#181818;stroke-width:0.5;" width="36" x="1827.5" y="1843"/><text fill="#000000" font-family="sans-serif" font-size="14" lengthAdjust="spacing" textLength="22" x="1834.5" y="1864.5332">Dto</text><rect fill="#E2E2F0" height="31.6094" rx="2.5" ry="2.5" style="stroke:#181818;stroke-width:0.5;" width="128" x="1873.5" y="5"/><text fill="#000000" font-family="sans-serif" font-size="14" lengthAdjust="spacing" textLength="114" x="1880.5" y="26.5332">ElevatorController</text><rect fill="#E2E2F0" height="31.6094" rx="2.5" ry="2.5" style="stroke:#181818;stroke-width:0.5;" width="128" x="1873.5" y="1843"/><text fill="#000000" font-family="sans-serif" font-size="14" lengthAdjust="spacing" textLength="114" x="1880.5" y="1864.5332">ElevatorController</text><rect fill="#E2E2F0" height="31.6094" rx="2.5" ry="2.5" style="stroke:#181818;stroke-width:0.5;" width="113" x="2065" y="5"/><text fill="#000000" font-family="sans-serif" font-size="14" lengthAdjust="spacing" textLength="99" x="2072" y="26.5332">ElevatorService</text><rect fill="#E2E2F0" height="31.6094" rx="2.5" ry="2.5" style="stroke:#181818;stroke-width:0.5;" width="113" x="2065" y="1843"/><text fill="#000000" font-family="sans-serif" font-size="14" lengthAdjust="spacing" textLength="99" x="2072" y="1864.5332">ElevatorService</text><rect fill="#E2E2F0" height="31.6094" rx="2.5" ry="2.5" style="stroke:#181818;stroke-width:0.5;" width="100" x="2378.5" y="5"/><text fill="#000000" font-family="sans-serif" font-size="14" lengthAdjust="spacing" textLength="86" x="2385.5" y="26.5332">ElevatorRepo</text><rect fill="#E2E2F0" height="31.6094" rx="2.5" ry="2.5" style="stroke:#181818;stroke-width:0.5;" width="100" x="2378.5" y="1843"/><text fill="#000000" font-family="sans-serif" font-size="14" lengthAdjust="spacing" textLength="86" x="2385.5" y="1864.5332">ElevatorRepo</text><rect fill="#E2E2F0" height="31.6094" rx="2.5" ry="2.5" style="stroke:#181818;stroke-width:0.5;" width="33" x="2488.5" y="5"/><text fill="#000000" font-family="sans-serif" font-size="14" lengthAdjust="spacing" textLength="19" x="2495.5" y="26.5332">ER</text><rect fill="#E2E2F0" height="31.6094" rx="2.5" ry="2.5" style="stroke:#181818;stroke-width:0.5;" width="33" x="2488.5" y="1843"/><text fill="#000000" font-family="sans-serif" font-size="14" lengthAdjust="spacing" textLength="19" x="2495.5" y="1864.5332">ER</text><rect fill="#E2E2F0" height="31.6094" rx="2.5" ry="2.5" style="stroke:#181818;stroke-width:0.5;" width="66" x="2531.5" y="5"/><text fill="#000000" font-family="sans-serif" font-size="14" lengthAdjust="spacing" textLength="52" x="2538.5" y="26.5332">Elevator</text><rect fill="#E2E2F0" height="31.6094" rx="2.5" ry="2.5" style="stroke:#181818;stroke-width:0.5;" width="66" x="2531.5" y="1843"/><text fill="#000000" font-family="sans-serif" font-size="14" lengthAdjust="spacing" textLength="52" x="2538.5" y="1864.5332">Elevator</text><rect fill="#E2E2F0" height="31.6094" rx="2.5" ry="2.5" style="stroke:#181818;stroke-width:0.5;" width="93" x="2607.5" y="5"/><text fill="#000000" font-family="sans-serif" font-size="14" lengthAdjust="spacing" textLength="79" x="2614.5" y="26.5332">ElevatorMap</text><rect fill="#E2E2F0" height="31.6094" rx="2.5" ry="2.5" style="stroke:#181818;stroke-width:0.5;" width="93" x="2607.5" y="1843"/><text fill="#000000" font-family="sans-serif" font-size="14" lengthAdjust="spacing" textLength="79" x="2614.5" y="1864.5332">ElevatorMap</text><rect fill="#E2E2F0" height="31.6094" rx="2.5" ry="2.5" style="stroke:#181818;stroke-width:0.5;" width="117" x="2811.5" y="5"/><text fill="#000000" font-family="sans-serif" font-size="14" lengthAdjust="spacing" textLength="103" x="2818.5" y="26.5332">ElevatorSchema</text><rect fill="#E2E2F0" height="31.6094" rx="2.5" ry="2.5" style="stroke:#181818;stroke-width:0.5;" width="117" x="2811.5" y="1843"/><text fill="#000000" font-family="sans-serif" font-size="14" lengthAdjust="spacing" textLength="103" x="2818.5" y="1864.5332">ElevatorSchema</text><polygon fill="#181818" points="286.5,65.9609,296.5,69.9609,286.5,73.9609,290.5,69.9609" style="stroke:#181818;stroke-width:1.0;"/><line style="stroke:#181818;stroke-width:1.0;" x1="74.5" x2="292.5" y1="69.9609" y2="69.9609"/><text fill="#000000" font-family="sans-serif" font-size="13" lengthAdjust="spacing" textLength="200" x="81.5" y="65.1045">Activate/CreateElevatorComponent</text><line style="stroke:#181818;stroke-width:1.0;" x1="298.5" x2="340.5" y1="100.3125" y2="100.3125"/><line style="stroke:#181818;stroke-width:1.0;" x1="340.5" x2="340.5" y1="100.3125" y2="113.3125"/><line style="stroke:#181818;stroke-width:1.0;" x1="299.5" x2="340.5" y1="113.3125" y2="113.3125"/><polygon fill="#181818" points="309.5,109.3125,299.5,113.3125,309.5,117.3125,305.5,113.3125" style="stroke:#181818;stroke-width:1.0;"/><text fill="#000000" font-family="sans-serif" font-size="13" lengthAdjust="spacing" textLength="56" x="305.5" y="95.4561">ngOnInit()</text><polygon fill="#181818" points="517.5,139.6641,527.5,143.6641,517.5,147.6641,521.5,143.6641" style="stroke:#181818;stroke-width:1.0;"/><line style="stroke:#181818;stroke-width:1.0;" x1="298.5" x2="523.5" y1="143.6641" y2="143.6641"/><text fill="#000000" font-family="sans-serif" font-size="13" lengthAdjust="spacing" textLength="79" x="305.5" y="138.8076">getBuildings()</text><polygon fill="#181818" points="683.5,170.0156,693.5,174.0156,683.5,178.0156,687.5,174.0156" style="stroke:#181818;stroke-width:1.0;"/><line style="stroke:#181818;stroke-width:1.0;" x1="529.5" x2="689.5" y1="174.0156" y2="174.0156"/><text fill="#000000" font-family="sans-serif" font-size="13" lengthAdjust="spacing" textLength="99" x="536.5" y="169.1592">GET /building/list</text><polygon fill="#181818" points="785.5,200.3672,795.5,204.3672,785.5,208.3672,789.5,204.3672" style="stroke:#181818;stroke-width:1.0;"/><line style="stroke:#181818;stroke-width:1.0;" x1="695.5" x2="791.5" y1="204.3672" y2="204.3672"/><text fill="#000000" font-family="sans-serif" font-size="13" lengthAdjust="spacing" textLength="78" x="702.5" y="199.5107">listBuildings()</text><polygon fill="#181818" points="914,230.7188,924,234.7188,914,238.7188,918,234.7188" style="stroke:#181818;stroke-width:1.0;"/><line style="stroke:#181818;stroke-width:1.0;" x1="797.5" x2="920" y1="234.7188" y2="234.7188"/><text fill="#000000" font-family="sans-serif" font-size="13" lengthAdjust="spacing" textLength="94" x="804.5" y="229.8623">getAllBuildings()</text><polygon fill="#181818" points="1028.5,261.0703,1038.5,265.0703,1028.5,269.0703,1032.5,265.0703" style="stroke:#181818;stroke-width:1.0;"/><line style="stroke:#181818;stroke-width:1.0;" x1="926" x2="1034.5" y1="265.0703" y2="265.0703"/><text fill="#000000" font-family="sans-serif" font-size="13" lengthAdjust="spacing" textLength="40" x="933" y="260.2139">listAll()</text><polygon fill="#181818" points="1145,291.4219,1155,295.4219,1145,299.4219,1149,295.4219" style="stroke:#181818;stroke-width:1.0;"/><line style="stroke:#181818;stroke-width:1.0;" x1="1040.5" x2="1151" y1="295.4219" y2="295.4219"/><text fill="#000000" font-family="sans-serif" font-size="13" lengthAdjust="spacing" textLength="28" x="1047.5" y="290.5654">find()</text><polygon fill="#181818" points="1051.5,321.7734,1041.5,325.7734,1051.5,329.7734,1047.5,325.7734" style="stroke:#181818;stroke-width:1.0;"/><line style="stroke:#181818;stroke-width:1.0;stroke-dasharray:2.0,2.0;" x1="1045.5" x2="1156" y1="325.7734" y2="325.7734"/><text fill="#000000" font-family="sans-serif" font-size="13" lengthAdjust="spacing" textLength="82" x="1057.5" y="320.917">buildingDocs[]</text><polygon fill="#181818" points="937,352.125,927,356.125,937,360.125,933,356.125" style="stroke:#181818;stroke-width:1.0;"/><line style="stroke:#181818;stroke-width:1.0;stroke-dasharray:2.0,2.0;" x1="931" x2="1039.5" y1="356.125" y2="356.125"/><text fill="#000000" font-family="sans-serif" font-size="13" lengthAdjust="spacing" textLength="59" x="943" y="351.2686">buildings[]</text><polygon fill="#181818" points="808.5,382.4766,798.5,386.4766,808.5,390.4766,804.5,386.4766" style="stroke:#181818;stroke-width:1.0;"/><line style="stroke:#181818;stroke-width:1.0;stroke-dasharray:2.0,2.0;" x1="802.5" x2="925" y1="386.4766" y2="386.4766"/><text fill="#000000" font-family="sans-serif" font-size="13" lengthAdjust="spacing" textLength="59" x="814.5" y="381.6201">buildings[]</text><polygon fill="#181818" points="706.5,412.8281,696.5,416.8281,706.5,420.8281,702.5,416.8281" style="stroke:#181818;stroke-width:1.0;"/><line style="stroke:#181818;stroke-width:1.0;stroke-dasharray:2.0,2.0;" x1="700.5" x2="796.5" y1="416.8281" y2="416.8281"/><text fill="#000000" font-family="sans-serif" font-size="13" lengthAdjust="spacing" textLength="59" x="712.5" y="411.9717">buildings[]</text><polygon fill="#181818" points="540.5,443.1797,530.5,447.1797,540.5,451.1797,536.5,447.1797" style="stroke:#181818;stroke-width:1.0;"/><line style="stroke:#181818;stroke-width:1.0;stroke-dasharray:2.0,2.0;" x1="534.5" x2="694.5" y1="447.1797" y2="447.1797"/><text fill="#000000" font-family="sans-serif" font-size="13" lengthAdjust="spacing" textLength="59" x="546.5" y="442.3232">buildings[]</text><polygon fill="#181818" points="309.5,473.5313,299.5,477.5313,309.5,481.5313,305.5,477.5313" style="stroke:#181818;stroke-width:1.0;"/><line style="stroke:#181818;stroke-width:1.0;stroke-dasharray:2.0,2.0;" x1="303.5" x2="528.5" y1="477.5313" y2="477.5313"/><text fill="#000000" font-family="sans-serif" font-size="13" lengthAdjust="spacing" textLength="59" x="315.5" y="472.6748">buildings[]</text><polygon fill="#181818" points="517.5,503.8828,527.5,507.8828,517.5,511.8828,521.5,507.8828" style="stroke:#181818;stroke-width:1.0;"/><line style="stroke:#181818;stroke-width:1.0;" x1="298.5" x2="523.5" y1="507.8828" y2="507.8828"/><text fill="#000000" font-family="sans-serif" font-size="13" lengthAdjust="spacing" textLength="198" x="305.5" y="503.0264">getRequest('floor/get/' + buildingId)</text><polygon fill="#181818" points="683.5,534.2344,693.5,538.2344,683.5,542.2344,687.5,538.2344" style="stroke:#181818;stroke-width:1.0;"/><line style="stroke:#181818;stroke-width:1.0;" x1="529.5" x2="689.5" y1="538.2344" y2="538.2344"/><text fill="#000000" font-family="sans-serif" font-size="13" lengthAdjust="spacing" textLength="142" x="536.5" y="533.3779">GET /floor/get/:buildingId</text><polygon fill="#181818" points="1267,564.5859,1277,568.5859,1267,572.5859,1271,568.5859" style="stroke:#181818;stroke-width:1.0;"/><line style="stroke:#181818;stroke-width:1.0;" x1="695.5" x2="1273" y1="568.5859" y2="568.5859"/><text fill="#000000" font-family="sans-serif" font-size="13" lengthAdjust="spacing" textLength="138" x="702.5" y="563.7295">listFloors(req, res, next)</text><polygon fill="#181818" points="1479,594.9375,1489,598.9375,1479,602.9375,1483,598.9375" style="stroke:#181818;stroke-width:1.0;"/><line style="stroke:#181818;stroke-width:1.0;" x1="1279" x2="1485" y1="598.9375" y2="598.9375"/><text fill="#000000" font-family="sans-serif" font-size="13" lengthAdjust="spacing" textLength="188" x="1286" y="594.0811">getFloorsByBuildingId(buildingId)</text><polygon fill="#181818" points="1657,625.2891,1667,629.2891,1657,633.2891,1661,629.2891" style="stroke:#181818;stroke-width:1.0;"/><line style="stroke:#181818;stroke-width:1.0;" x1="1491" x2="1663" y1="629.2891" y2="629.2891"/><text fill="#000000" font-family="sans-serif" font-size="13" lengthAdjust="spacing" textLength="154" x="1498" y="624.4326">findByBuildingId(buildingId)</text><polygon fill="#181818" points="1756.5,655.6406,1766.5,659.6406,1756.5,663.6406,1760.5,659.6406" style="stroke:#181818;stroke-width:1.0;"/><line style="stroke:#181818;stroke-width:1.0;" x1="1669" x2="1762.5" y1="659.6406" y2="659.6406"/><text fill="#000000" font-family="sans-serif" font-size="13" lengthAdjust="spacing" textLength="72" x="1676" y="654.7842">find(building)</text><polygon fill="#181818" points="1680,685.9922,1670,689.9922,1680,693.9922,1676,689.9922" style="stroke:#181818;stroke-width:1.0;"/><line style="stroke:#181818;stroke-width:1.0;stroke-dasharray:2.0,2.0;" x1="1674" x2="1767.5" y1="689.9922" y2="689.9922"/><text fill="#000000" font-family="sans-serif" font-size="13" lengthAdjust="spacing" textLength="62" x="1686" y="685.1357">floorDocs[]</text><polygon fill="#181818" points="1502,716.3438,1492,720.3438,1502,724.3438,1498,720.3438" style="stroke:#181818;stroke-width:1.0;"/><line style="stroke:#181818;stroke-width:1.0;stroke-dasharray:2.0,2.0;" x1="1496" x2="1668" y1="720.3438" y2="720.3438"/><text fill="#000000" font-family="sans-serif" font-size="13" lengthAdjust="spacing" textLength="39" x="1508" y="715.4873">floors[]</text><polygon fill="#181818" points="1290,746.6953,1280,750.6953,1290,754.6953,1286,750.6953" style="stroke:#181818;stroke-width:1.0;"/><line style="stroke:#181818;stroke-width:1.0;stroke-dasharray:2.0,2.0;" x1="1284" x2="1490" y1="750.6953" y2="750.6953"/><text fill="#000000" font-family="sans-serif" font-size="13" lengthAdjust="spacing" textLength="39" x="1296" y="745.8389">floors[]</text><polygon fill="#181818" points="706.5,777.0469,696.5,781.0469,706.5,785.0469,702.5,781.0469" style="stroke:#181818;stroke-width:1.0;"/><line style="stroke:#181818;stroke-width:1.0;stroke-dasharray:2.0,2.0;" x1="700.5" x2="1278" y1="781.0469" y2="781.0469"/><text fill="#000000" font-family="sans-serif" font-size="13" lengthAdjust="spacing" textLength="39" x="712.5" y="776.1904">floors[]</text><polygon fill="#181818" points="540.5,807.3984,530.5,811.3984,540.5,815.3984,536.5,811.3984" style="stroke:#181818;stroke-width:1.0;"/><line style="stroke:#181818;stroke-width:1.0;stroke-dasharray:2.0,2.0;" x1="534.5" x2="694.5" y1="811.3984" y2="811.3984"/><text fill="#000000" font-family="sans-serif" font-size="13" lengthAdjust="spacing" textLength="39" x="546.5" y="806.542">floors[]</text><polygon fill="#181818" points="309.5,837.75,299.5,841.75,309.5,845.75,305.5,841.75" style="stroke:#181818;stroke-width:1.0;"/><line style="stroke:#181818;stroke-width:1.0;stroke-dasharray:2.0,2.0;" x1="303.5" x2="528.5" y1="841.75" y2="841.75"/><text fill="#000000" font-family="sans-serif" font-size="13" lengthAdjust="spacing" textLength="104" x="315.5" y="836.8936">Update floorsX/Y[]</text><line style="stroke:#181818;stroke-width:1.0;" x1="298.5" x2="340.5" y1="872.1016" y2="872.1016"/><line style="stroke:#181818;stroke-width:1.0;" x1="340.5" x2="340.5" y1="872.1016" y2="885.1016"/><line style="stroke:#181818;stroke-width:1.0;" x1="299.5" x2="340.5" y1="885.1016" y2="885.1016"/><polygon fill="#181818" points="309.5,881.1016,299.5,885.1016,309.5,889.1016,305.5,885.1016" style="stroke:#181818;stroke-width:1.0;"/><text fill="#000000" font-family="sans-serif" font-size="13" lengthAdjust="spacing" textLength="78" x="305.5" y="867.2451">prepareData()</text><polygon fill="#181818" points="1833.5,911.4531,1843.5,915.4531,1833.5,919.4531,1837.5,915.4531" style="stroke:#181818;stroke-width:1.0;"/><line style="stroke:#181818;stroke-width:1.0;" x1="298.5" x2="1839.5" y1="915.4531" y2="915.4531"/><text fill="#000000" font-family="sans-serif" font-size="13" lengthAdjust="spacing" textLength="199" x="305.5" y="910.5967">Converts form data to ElevatorDTO</text><polygon fill="#181818" points="309.5,941.8047,299.5,945.8047,309.5,949.8047,305.5,945.8047" style="stroke:#181818;stroke-width:1.0;"/><line style="stroke:#181818;stroke-width:1.0;stroke-dasharray:2.0,2.0;" x1="303.5" x2="1844.5" y1="945.8047" y2="945.8047"/><text fill="#000000" font-family="sans-serif" font-size="13" lengthAdjust="spacing" textLength="70" x="315.5" y="940.9482">elevatorDTO</text><polygon fill="#181818" points="517.5,972.1563,527.5,976.1563,517.5,980.1563,521.5,976.1563" style="stroke:#181818;stroke-width:1.0;"/><line style="stroke:#181818;stroke-width:1.0;" x1="298.5" x2="523.5" y1="976.1563" y2="976.1563"/><text fill="#000000" font-family="sans-serif" font-size="13" lengthAdjust="spacing" textLength="207" x="305.5" y="971.2998">postRequest('elevator', elevatorDTO)</text><polygon fill="#181818" points="683.5,1002.5078,693.5,1006.5078,683.5,1010.5078,687.5,1006.5078" style="stroke:#181818;stroke-width:1.0;"/><line style="stroke:#181818;stroke-width:1.0;" x1="529.5" x2="689.5" y1="1006.5078" y2="1006.5078"/><text fill="#000000" font-family="sans-serif" font-size="13" lengthAdjust="spacing" textLength="87" x="536.5" y="1001.6514">POST /elevator</text><polygon fill="#181818" points="1925.5,1032.8594,1935.5,1036.8594,1925.5,1040.8594,1929.5,1036.8594" style="stroke:#181818;stroke-width:1.0;"/><line style="stroke:#181818;stroke-width:1.0;" x1="695.5" x2="1931.5" y1="1036.8594" y2="1036.8594"/><text fill="#000000" font-family="sans-serif" font-size="13" lengthAdjust="spacing" textLength="167" x="702.5" y="1032.0029">createElevator(req, res, next)</text><polygon fill="#181818" points="2109.5,1063.2109,2119.5,1067.2109,2109.5,1071.2109,2113.5,1067.2109" style="stroke:#181818;stroke-width:1.0;"/><line style="stroke:#181818;stroke-width:1.0;" x1="1937.5" x2="2115.5" y1="1067.2109" y2="1067.2109"/><text fill="#000000" font-family="sans-serif" font-size="13" lengthAdjust="spacing" textLength="160" x="1944.5" y="1062.3545">createElevator(elevatorDTO)</text><polygon fill="#181818" points="2416.5,1093.5625,2426.5,1097.5625,2416.5,1101.5625,2420.5,1097.5625" style="stroke:#181818;stroke-width:1.0;"/><line style="stroke:#181818;stroke-width:1.0;" x1="2121.5" x2="2422.5" y1="1097.5625" y2="1097.5625"/><text fill="#000000" font-family="sans-serif" font-size="13" lengthAdjust="spacing" textLength="283" x="2128.5" y="1092.7061">countElevatorsByBuilding(elevatorDTO.buildingId)</text><polygon fill="#181818" points="2132.5,1123.9141,2122.5,1127.9141,2132.5,1131.9141,2128.5,1127.9141" style="stroke:#181818;stroke-width:1.0;"/><line style="stroke:#181818;stroke-width:1.0;" x1="2126.5" x2="2427.5" y1="1127.9141" y2="1127.9141"/><text fill="#000000" font-family="sans-serif" font-size="13" lengthAdjust="spacing" textLength="109" x="2138.5" y="1123.0576">numberOfElevators</text><polygon fill="#181818" points="2416.5,1154.2656,2426.5,1158.2656,2416.5,1162.2656,2420.5,1158.2656" style="stroke:#181818;stroke-width:1.0;"/><line style="stroke:#181818;stroke-width:1.0;" x1="2121.5" x2="2422.5" y1="1158.2656" y2="1158.2656"/><text fill="#000000" font-family="sans-serif" font-size="13" lengthAdjust="spacing" textLength="166" x="2128.5" y="1153.4092">findId(elevatorDTO.elevatorId)</text><polygon fill="#181818" points="2132.5,1184.6172,2122.5,1188.6172,2132.5,1192.6172,2128.5,1188.6172" style="stroke:#181818;stroke-width:1.0;"/><line style="stroke:#181818;stroke-width:1.0;stroke-dasharray:2.0,2.0;" x1="2126.5" x2="2427.5" y1="1188.6172" y2="1188.6172"/><text fill="#000000" font-family="sans-serif" font-size="13" lengthAdjust="spacing" textLength="45" x="2138.5" y="1183.7607">boolean</text><polygon fill="#181818" points="1051.5,1214.9688,1041.5,1218.9688,1051.5,1222.9688,1047.5,1218.9688" style="stroke:#181818;stroke-width:1.0;"/><line style="stroke:#181818;stroke-width:1.0;" x1="1045.5" x2="2120.5" y1="1218.9688" y2="1218.9688"/><text fill="#000000" font-family="sans-serif" font-size="13" lengthAdjust="spacing" textLength="126" x="1057.5" y="1214.1123">getBuilding(buildingId)</text><polygon fill="#181818" points="2109.5,1245.3203,2119.5,1249.3203,2109.5,1253.3203,2113.5,1249.3203" style="stroke:#181818;stroke-width:1.0;"/><line style="stroke:#181818;stroke-width:1.0;stroke-dasharray:2.0,2.0;" x1="1040.5" x2="2115.5" y1="1249.3203" y2="1249.3203"/><text fill="#000000" font-family="sans-serif" font-size="13" lengthAdjust="spacing" textLength="71" x="1047.5" y="1244.4639">buildingData</text><polygon fill="#181818" points="1680,1275.6719,1670,1279.6719,1680,1283.6719,1676,1279.6719" style="stroke:#181818;stroke-width:1.0;"/><line style="stroke:#181818;stroke-width:1.0;" x1="1674" x2="2120.5" y1="1279.6719" y2="1279.6719"/><text fill="#000000" font-family="sans-serif" font-size="13" lengthAdjust="spacing" textLength="106" x="1686" y="1274.8154">getFloorId(floorIds)</text><polygon fill="#181818" points="2109.5,1306.0234,2119.5,1310.0234,2109.5,1314.0234,2113.5,1310.0234" style="stroke:#181818;stroke-width:1.0;"/><line style="stroke:#181818;stroke-width:1.0;stroke-dasharray:2.0,2.0;" x1="1669" x2="2115.5" y1="1310.0234" y2="1310.0234"/><text fill="#000000" font-family="sans-serif" font-size="13" lengthAdjust="spacing" textLength="51" x="1676" y="1305.167">floorData</text><polygon fill="#181818" points="2416.5,1336.375,2426.5,1340.375,2416.5,1344.375,2420.5,1340.375" style="stroke:#181818;stroke-width:1.0;"/><line style="stroke:#181818;stroke-width:1.0;" x1="2121.5" x2="2422.5" y1="1340.375" y2="1340.375"/><text fill="#000000" font-family="sans-serif" font-size="13" lengthAdjust="spacing" textLength="272" x="2128.5" y="1335.5186">findBySerialNumber(elevatorDTO.serialNumber)</text><polygon fill="#181818" points="2132.5,1366.7266,2122.5,1370.7266,2132.5,1374.7266,2128.5,1370.7266" style="stroke:#181818;stroke-width:1.0;"/><line style="stroke:#181818;stroke-width:1.0;stroke-dasharray:2.0,2.0;" x1="2126.5" x2="2504" y1="1370.7266" y2="1370.7266"/><text fill="#000000" font-family="sans-serif" font-size="13" lengthAdjust="spacing" textLength="45" x="2138.5" y="1365.8701">boolean</text><polygon fill="#181818" points="1680,1397.0781,1670,1401.0781,1680,1405.0781,1676,1401.0781" style="stroke:#181818;stroke-width:1.0;"/><line style="stroke:#181818;stroke-width:1.0;" x1="1674" x2="2120.5" y1="1401.0781" y2="1401.0781"/><text fill="#000000" font-family="sans-serif" font-size="13" lengthAdjust="spacing" textLength="392" x="1686" y="1396.2217">checkFloorAndBuilding(elevatorDTO.floorIds, elevatorDTO.buildingId)</text><polygon fill="#181818" points="2109.5,1427.4297,2119.5,1431.4297,2109.5,1435.4297,2113.5,1431.4297" style="stroke:#181818;stroke-width:1.0;"/><line style="stroke:#181818;stroke-width:1.0;stroke-dasharray:2.0,2.0;" x1="1669" x2="2115.5" y1="1431.4297" y2="1431.4297"/><text fill="#000000" font-family="sans-serif" font-size="13" lengthAdjust="spacing" textLength="45" x="1676" y="1426.5732">boolean</text><polygon fill="#181818" points="2552.5,1457.7813,2562.5,1461.7813,2552.5,1465.7813,2556.5,1461.7813" style="stroke:#181818;stroke-width:1.0;"/><line style="stroke:#181818;stroke-width:1.0;" x1="2121.5" x2="2558.5" y1="1461.7813" y2="1461.7813"/><text fill="#000000" font-family="sans-serif" font-size="13" lengthAdjust="spacing" textLength="148" x="2128.5" y="1456.9248">create(elevatorDTO: DTO)</text><polygon fill="#181818" points="2132.5,1488.1328,2122.5,1492.1328,2132.5,1496.1328,2128.5,1492.1328" style="stroke:#181818;stroke-width:1.0;"/><line style="stroke:#181818;stroke-width:1.0;stroke-dasharray:2.0,2.0;" x1="2126.5" x2="2563.5" y1="1492.1328" y2="1492.1328"/><text fill="#000000" font-family="sans-serif" font-size="13" lengthAdjust="spacing" textLength="44" x="2138.5" y="1487.2764">elevator</text><polygon fill="#181818" points="2416.5,1518.4844,2426.5,1522.4844,2416.5,1526.4844,2420.5,1522.4844" style="stroke:#181818;stroke-width:1.0;"/><line style="stroke:#181818;stroke-width:1.0;" x1="2121.5" x2="2422.5" y1="1522.4844" y2="1522.4844"/><text fill="#000000" font-family="sans-serif" font-size="13" lengthAdjust="spacing" textLength="78" x="2128.5" y="1517.6279">save(elevator)</text><polygon fill="#181818" points="2642,1548.8359,2652,1552.8359,2642,1556.8359,2646,1552.8359" style="stroke:#181818;stroke-width:1.0;"/><line style="stroke:#181818;stroke-width:1.0;" x1="2428.5" x2="2648" y1="1552.8359" y2="1552.8359"/><text fill="#000000" font-family="sans-serif" font-size="13" lengthAdjust="spacing" textLength="132" x="2435.5" y="1547.9795">toPersistence(elevator)</text><polygon fill="#181818" points="2858,1579.1875,2868,1583.1875,2858,1587.1875,2862,1583.1875" style="stroke:#181818;stroke-width:1.0;"/><line style="stroke:#181818;stroke-width:1.0;" x1="2654" x2="2864" y1="1583.1875" y2="1583.1875"/><text fill="#000000" font-family="sans-serif" font-size="13" lengthAdjust="spacing" textLength="192" x="2661" y="1578.3311">create(elevatorPersistenceModel)</text><polygon fill="#181818" points="2439.5,1609.5391,2429.5,1613.5391,2439.5,1617.5391,2435.5,1613.5391" style="stroke:#181818;stroke-width:1.0;"/><line style="stroke:#181818;stroke-width:1.0;stroke-dasharray:2.0,2.0;" x1="2433.5" x2="2869" y1="1613.5391" y2="1613.5391"/><text fill="#000000" font-family="sans-serif" font-size="13" lengthAdjust="spacing" textLength="102" x="2445.5" y="1608.6826">savedElevatorDoc</text><polygon fill="#181818" points="2642,1639.8906,2652,1643.8906,2642,1647.8906,2646,1643.8906" style="stroke:#181818;stroke-width:1.0;"/><line style="stroke:#181818;stroke-width:1.0;" x1="2428.5" x2="2648" y1="1643.8906" y2="1643.8906"/><text fill="#000000" font-family="sans-serif" font-size="13" lengthAdjust="spacing" textLength="165" x="2435.5" y="1639.0342">toDomain(savedElevatorDoc)</text><polygon fill="#181818" points="2439.5,1670.2422,2429.5,1674.2422,2439.5,1678.2422,2435.5,1674.2422" style="stroke:#181818;stroke-width:1.0;"/><line style="stroke:#181818;stroke-width:1.0;stroke-dasharray:2.0,2.0;" x1="2433.5" x2="2653" y1="1674.2422" y2="1674.2422"/><text fill="#000000" font-family="sans-serif" font-size="13" lengthAdjust="spacing" textLength="44" x="2445.5" y="1669.3857">elevator</text><polygon fill="#181818" points="2132.5,1700.5938,2122.5,1704.5938,2132.5,1708.5938,2128.5,1704.5938" style="stroke:#181818;stroke-width:1.0;"/><line style="stroke:#181818;stroke-width:1.0;stroke-dasharray:2.0,2.0;" x1="2126.5" x2="2427.5" y1="1704.5938" y2="1704.5938"/><text fill="#000000" font-family="sans-serif" font-size="13" lengthAdjust="spacing" textLength="70" x="2138.5" y="1699.7373">elevatorDTO</text><polygon fill="#181818" points="1948.5,1730.9453,1938.5,1734.9453,1948.5,1738.9453,1944.5,1734.9453" style="stroke:#181818;stroke-width:1.0;"/><line style="stroke:#181818;stroke-width:1.0;stroke-dasharray:2.0,2.0;" x1="1942.5" x2="2120.5" y1="1734.9453" y2="1734.9453"/><text fill="#000000" font-family="sans-serif" font-size="13" lengthAdjust="spacing" textLength="70" x="1954.5" y="1730.0889">elevatorDTO</text><polygon fill="#181818" points="706.5,1761.2969,696.5,1765.2969,706.5,1769.2969,702.5,1765.2969" style="stroke:#181818;stroke-width:1.0;"/><line style="stroke:#181818;stroke-width:1.0;stroke-dasharray:2.0,2.0;" x1="700.5" x2="1936.5" y1="1765.2969" y2="1765.2969"/><text fill="#000000" font-family="sans-serif" font-size="13" lengthAdjust="spacing" textLength="70" x="712.5" y="1760.4404">elevatorDTO</text><polygon fill="#181818" points="540.5,1791.6484,530.5,1795.6484,540.5,1799.6484,536.5,1795.6484" style="stroke:#181818;stroke-width:1.0;"/><line style="stroke:#181818;stroke-width:1.0;stroke-dasharray:2.0,2.0;" x1="534.5" x2="694.5" y1="1795.6484" y2="1795.6484"/><text fill="#000000" font-family="sans-serif" font-size="13" lengthAdjust="spacing" textLength="53" x="546.5" y="1790.792">response</text><polygon fill="#181818" points="85.5,1822,75.5,1826,85.5,1830,81.5,1826" style="stroke:#181818;stroke-width:1.0;"/><line style="stroke:#181818;stroke-width:1.0;stroke-dasharray:2.0,2.0;" x1="79.5" x2="528.5" y1="1826" y2="1826"/><text fill="#000000" font-family="sans-serif" font-size="13" lengthAdjust="spacing" textLength="53" x="91.5" y="1821.1436">response</text><!--MD5=[d3cceb335b17b49fa8cb4688433876b6]
@startuml

ElevatorComponent -> CreateElevatorComponent : Activate/CreateElevatorComponent
CreateElevatorComponent -> CreateElevatorComponent : ngOnInit()

CreateElevatorComponent -> HttpRequestsService : getBuildings()
HttpRequestsService -> Router : GET /building/list
Router -> BuildingController : listBuildings()
BuildingController -> BuildingService : getAllBuildings()
BuildingService -> BuildingRepo : listAll()
BuildingRepo -> BuildingSchema : find()
BuildingSchema - -> BuildingRepo : buildingDocs[]
BuildingRepo - -> BuildingService : buildings[]
BuildingService - -> BuildingController : buildings[]
BuildingController - -> Router : buildings[]
Router - -> HttpRequestsService : buildings[]
HttpRequestsService - -> CreateElevatorComponent : buildings[]

CreateElevatorComponent -> HttpRequestsService : getRequest('floor/get/' + buildingId)
HttpRequestsService -> Router : GET /floor/get/:buildingId
Router -> FloorController : listFloors(req, res, next)
FloorController -> FloorService : getFloorsByBuildingId(buildingId)
FloorService -> FloorRepo : findByBuildingId(buildingId)
FloorRepo -> FloorSchema : find(building)
FloorSchema - -> FloorRepo : floorDocs[]
FloorRepo - -> FloorService : floors[]
FloorService - -> FloorController : floors[]
FloorController - -> Router : floors[]
Router - -> HttpRequestsService : floors[]
HttpRequestsService - -> CreateElevatorComponent : Update floorsX/Y[] 

CreateElevatorComponent -> CreateElevatorComponent : prepareData()
CreateElevatorComponent -> Dto : Converts form data to ElevatorDTO
Dto - -> CreateElevatorComponent : elevatorDTO

CreateElevatorComponent -> HttpRequestsService : postRequest('elevator', elevatorDTO)
HttpRequestsService -> Router : POST /elevator
Router -> ElevatorController : createElevator(req, res, next)

ElevatorController -> ElevatorService : createElevator(elevatorDTO)
ElevatorService -> ElevatorRepo: countElevatorsByBuilding(elevatorDTO.buildingId)
ElevatorRepo -> ElevatorService: numberOfElevators
ElevatorService -> ElevatorRepo : findId(elevatorDTO.elevatorId)
ElevatorRepo - -> ElevatorService : boolean
ElevatorService -> BuildingRepo : getBuilding(buildingId)
BuildingRepo - -> ElevatorService : buildingData
ElevatorService -> FloorRepo : getFloorId(floorIds)
FloorRepo - -> ElevatorService : floorData
ElevatorService -> ElevatorRepo : findBySerialNumber(elevatorDTO.serialNumber)
ER - -> ElevatorService : boolean
ElevatorService -> FloorRepo : checkFloorAndBuilding(elevatorDTO.floorIds, elevatorDTO.buildingId)
FloorRepo - -> ElevatorService : boolean
ElevatorService -> Elevator : create(elevatorDTO: DTO)
Elevator - -> ElevatorService : elevator
ElevatorService -> ElevatorRepo: save(elevator)
ElevatorRepo -> ElevatorMap : toPersistence(elevator)
ElevatorMap -> ElevatorSchema : create(elevatorPersistenceModel)
ElevatorSchema - -> ElevatorRepo : savedElevatorDoc
ElevatorRepo -> ElevatorMap : toDomain(savedElevatorDoc)
ElevatorMap - -> ElevatorRepo : elevator
ElevatorRepo - -> ElevatorService : elevatorDTO
ElevatorService - -> ElevatorController : elevatorDTO
ElevatorController - -> Router : elevatorDTO
Router - -> HttpRequestsService : response
HttpRequestsService - -> ElevatorComponent : response


@enduml

PlantUML version 1.2022.7(Mon Aug 22 18:01:30 WEST 2022)
(GPL source distribution)
Java Runtime: Java(TM) SE Runtime Environment
JVM: Java HotSpot(TM) 64-Bit Server VM
Default Encoding: UTF-8
Language: pt
Country: PT
--></g></svg>