<?xml version="1.0" encoding="UTF-8" standalone="no"?><svg xmlns="http://www.w3.org/2000/svg" xmlns:xlink="http://www.w3.org/1999/xlink" contentStyleType="text/css" height="887px" preserveAspectRatio="none" style="width:1692px;height:887px;background:#FFFFFF;" version="1.1" viewBox="0 0 1692 887" width="1692px" zoomAndPan="magnify"><defs/><g><rect fill="#FFFFFF" height="684.7344" style="stroke:#181818;stroke-width:1.0;" width="10" x="266.5" y="105.1797"/><rect fill="#FFFFFF" height="624.0313" style="stroke:#181818;stroke-width:1.0;" width="10" x="452.5" y="135.5313"/><rect fill="#FFFFFF" height="563.3281" style="stroke:#181818;stroke-width:1.0;" width="10" x="557.5" y="165.8828"/><rect fill="#FFFFFF" height="502.625" style="stroke:#181818;stroke-width:1.0;" width="10" x="792.5" y="196.2344"/><rect fill="#FFFFFF" height="441.9219" style="stroke:#181818;stroke-width:1.0;" width="10" x="1027.5" y="226.5859"/><rect fill="#FFFFFF" height="244.8125" style="stroke:#181818;stroke-width:1.0;" width="10" x="1221.5" y="300.2891"/><rect fill="#FFFFFF" height="30.3516" style="stroke:#181818;stroke-width:1.0;" width="10" x="1366.5" y="477.3984"/><rect fill="#FFFFFF" height="30.3516" style="stroke:#181818;stroke-width:1.0;" width="10" x="1366.5" y="600.8047"/><rect fill="#FFFFFF" height="91.0547" style="stroke:#181818;stroke-width:1.0;" width="10" x="1500" y="330.6406"/><rect fill="#FFFFFF" height="30.3516" style="stroke:#181818;stroke-width:1.0;" width="10" x="1652" y="360.9922"/><rect fill="none" height="79.0547" style="stroke:#000000;stroke-width:1.5;" width="295" x="1147.5" y="436.6953"/><rect fill="none" height="79.0547" style="stroke:#000000;stroke-width:1.5;" width="478.5" x="964" y="560.1016"/><line style="stroke:#181818;stroke-width:0.5;stroke-dasharray:5.0,5.0;" x1="85" x2="85" y1="72.8281" y2="807.9141"/><line style="stroke:#181818;stroke-width:0.5;stroke-dasharray:5.0,5.0;" x1="271" x2="271" y1="72.8281" y2="807.9141"/><line style="stroke:#181818;stroke-width:0.5;stroke-dasharray:5.0,5.0;" x1="457.5" x2="457.5" y1="72.8281" y2="807.9141"/><line style="stroke:#181818;stroke-width:0.5;stroke-dasharray:5.0,5.0;" x1="562" x2="562" y1="72.8281" y2="807.9141"/><line style="stroke:#181818;stroke-width:0.5;stroke-dasharray:5.0,5.0;" x1="797.5" x2="797.5" y1="72.8281" y2="807.9141"/><line style="stroke:#181818;stroke-width:0.5;stroke-dasharray:5.0,5.0;" x1="1032" x2="1032" y1="72.8281" y2="807.9141"/><line style="stroke:#181818;stroke-width:0.5;stroke-dasharray:5.0,5.0;" x1="1226.5" x2="1226.5" y1="72.8281" y2="807.9141"/><line style="stroke:#181818;stroke-width:0.5;stroke-dasharray:5.0,5.0;" x1="1371.5" x2="1371.5" y1="72.8281" y2="807.9141"/><line style="stroke:#181818;stroke-width:0.5;stroke-dasharray:5.0,5.0;" x1="1504.5" x2="1504.5" y1="72.8281" y2="807.9141"/><line style="stroke:#181818;stroke-width:0.5;stroke-dasharray:5.0,5.0;" x1="1657" x2="1657" y1="72.8281" y2="807.9141"/><rect fill="#E2E2F0" height="66.8281" rx="2.5" ry="2.5" style="stroke:#181818;stroke-width:0.5;" width="161" x="5" y="5"/><text fill="#000000" font-family="sans-serif" font-size="14" lengthAdjust="spacing" textLength="49" x="61" y="26.5332">Angular</text><text fill="#000000" font-family="sans-serif" font-size="14" lengthAdjust="spacing" textLength="147" x="12" y="44.1426">ListElevatorComponent</text><text fill="#000000" font-family="sans-serif" font-size="14" lengthAdjust="spacing" textLength="46" x="62.5" y="61.752">(Script)</text><rect fill="#E2E2F0" height="66.8281" rx="2.5" ry="2.5" style="stroke:#181818;stroke-width:0.5;" width="161" x="5" y="806.9141"/><text fill="#000000" font-family="sans-serif" font-size="14" lengthAdjust="spacing" textLength="49" x="61" y="828.4473">Angular</text><text fill="#000000" font-family="sans-serif" font-size="14" lengthAdjust="spacing" textLength="147" x="12" y="846.0566">ListElevatorComponent</text><text fill="#000000" font-family="sans-serif" font-size="14" lengthAdjust="spacing" textLength="46" x="62.5" y="863.666">(Script)</text><rect fill="#E2E2F0" height="49.2188" rx="2.5" ry="2.5" style="stroke:#181818;stroke-width:0.5;" width="113" x="215" y="22.6094"/><text fill="#000000" font-family="sans-serif" font-size="14" lengthAdjust="spacing" textLength="49" x="247" y="44.1426">Angular</text><text fill="#000000" font-family="sans-serif" font-size="14" lengthAdjust="spacing" textLength="99" x="222" y="61.752">ElevatorService</text><rect fill="#E2E2F0" height="49.2188" rx="2.5" ry="2.5" style="stroke:#181818;stroke-width:0.5;" width="113" x="215" y="806.9141"/><text fill="#000000" font-family="sans-serif" font-size="14" lengthAdjust="spacing" textLength="49" x="247" y="828.4473">Angular</text><text fill="#000000" font-family="sans-serif" font-size="14" lengthAdjust="spacing" textLength="99" x="222" y="846.0566">ElevatorService</text><rect fill="#E2E2F0" height="31.6094" rx="2.5" ry="2.5" style="stroke:#181818;stroke-width:0.5;" width="146" x="384.5" y="40.2188"/><text fill="#000000" font-family="sans-serif" font-size="14" lengthAdjust="spacing" textLength="132" x="391.5" y="61.752">HttpRequestsService</text><rect fill="#E2E2F0" height="31.6094" rx="2.5" ry="2.5" style="stroke:#181818;stroke-width:0.5;" width="146" x="384.5" y="806.9141"/><text fill="#000000" font-family="sans-serif" font-size="14" lengthAdjust="spacing" textLength="132" x="391.5" y="828.4473">HttpRequestsService</text><rect fill="#E2E2F0" height="31.6094" rx="2.5" ry="2.5" style="stroke:#181818;stroke-width:0.5;" width="39" x="543" y="40.2188"/><text fill="#000000" font-family="sans-serif" font-size="14" lengthAdjust="spacing" textLength="25" x="550" y="61.752">:API</text><rect fill="#E2E2F0" height="31.6094" rx="2.5" ry="2.5" style="stroke:#181818;stroke-width:0.5;" width="39" x="543" y="806.9141"/><text fill="#000000" font-family="sans-serif" font-size="14" lengthAdjust="spacing" textLength="25" x="550" y="828.4473">:API</text><rect fill="#E2E2F0" height="31.6094" rx="2.5" ry="2.5" style="stroke:#181818;stroke-width:0.5;" width="132" x="731.5" y="40.2188"/><text fill="#000000" font-family="sans-serif" font-size="14" lengthAdjust="spacing" textLength="118" x="738.5" y="61.752">:ElevatorController</text><rect fill="#E2E2F0" height="31.6094" rx="2.5" ry="2.5" style="stroke:#181818;stroke-width:0.5;" width="132" x="731.5" y="806.9141"/><text fill="#000000" font-family="sans-serif" font-size="14" lengthAdjust="spacing" textLength="118" x="738.5" y="828.4473">:ElevatorController</text><rect fill="#E2E2F0" height="31.6094" rx="2.5" ry="2.5" style="stroke:#181818;stroke-width:0.5;" width="117" x="974" y="40.2188"/><text fill="#000000" font-family="sans-serif" font-size="14" lengthAdjust="spacing" textLength="103" x="981" y="61.752">:ElevatorService</text><rect fill="#E2E2F0" height="31.6094" rx="2.5" ry="2.5" style="stroke:#181818;stroke-width:0.5;" width="117" x="974" y="806.9141"/><text fill="#000000" font-family="sans-serif" font-size="14" lengthAdjust="spacing" textLength="103" x="981" y="828.4473">:ElevatorService</text><rect fill="#E2E2F0" height="31.6094" rx="2.5" ry="2.5" style="stroke:#181818;stroke-width:0.5;" width="138" x="1157.5" y="40.2188"/><text fill="#000000" font-family="sans-serif" font-size="14" lengthAdjust="spacing" textLength="124" x="1164.5" y="61.752">:ElevatorRepository</text><rect fill="#E2E2F0" height="31.6094" rx="2.5" ry="2.5" style="stroke:#181818;stroke-width:0.5;" width="138" x="1157.5" y="806.9141"/><text fill="#000000" font-family="sans-serif" font-size="14" lengthAdjust="spacing" textLength="124" x="1164.5" y="828.4473">:ElevatorRepository</text><rect fill="#E2E2F0" height="31.6094" rx="2.5" ry="2.5" style="stroke:#181818;stroke-width:0.5;" width="122" x="1310.5" y="40.2188"/><text fill="#000000" font-family="sans-serif" font-size="14" lengthAdjust="spacing" textLength="108" x="1317.5" y="61.752">:Elevator Mapper</text><rect fill="#E2E2F0" height="31.6094" rx="2.5" ry="2.5" style="stroke:#181818;stroke-width:0.5;" width="122" x="1310.5" y="806.9141"/><text fill="#000000" font-family="sans-serif" font-size="14" lengthAdjust="spacing" textLength="108" x="1317.5" y="828.4473">:Elevator Mapper</text><rect fill="#E2E2F0" height="31.6094" rx="2.5" ry="2.5" style="stroke:#181818;stroke-width:0.5;" width="125" x="1442.5" y="40.2188"/><text fill="#000000" font-family="sans-serif" font-size="14" lengthAdjust="spacing" textLength="111" x="1449.5" y="61.752">:Elevator Schema</text><rect fill="#E2E2F0" height="31.6094" rx="2.5" ry="2.5" style="stroke:#181818;stroke-width:0.5;" width="125" x="1442.5" y="806.9141"/><text fill="#000000" font-family="sans-serif" font-size="14" lengthAdjust="spacing" textLength="111" x="1449.5" y="828.4473">:Elevator Schema</text><text fill="#000000" font-family="sans-serif" font-size="14" lengthAdjust="spacing" textLength="62" x="1623" y="69.752">MongoDB</text><path d="M1639,19.2188 C1639,9.2188 1657,9.2188 1657,9.2188 C1657,9.2188 1675,9.2188 1675,19.2188 L1675,45.2188 C1675,55.2188 1657,55.2188 1657,55.2188 C1657,55.2188 1639,55.2188 1639,45.2188 L1639,19.2188 " fill="#E2E2F0" style="stroke:#181818;stroke-width:1.5;"/><path d="M1639,19.2188 C1639,29.2188 1657,29.2188 1657,29.2188 C1657,29.2188 1675,29.2188 1675,19.2188 " fill="none" style="stroke:#181818;stroke-width:1.5;"/><text fill="#000000" font-family="sans-serif" font-size="14" lengthAdjust="spacing" textLength="62" x="1623" y="821.4473">MongoDB</text><path d="M1639,834.5234 C1639,824.5234 1657,824.5234 1657,824.5234 C1657,824.5234 1675,824.5234 1675,834.5234 L1675,860.5234 C1675,870.5234 1657,870.5234 1657,870.5234 C1657,870.5234 1639,870.5234 1639,860.5234 L1639,834.5234 " fill="#E2E2F0" style="stroke:#181818;stroke-width:1.5;"/><path d="M1639,834.5234 C1639,844.5234 1657,844.5234 1657,844.5234 C1657,844.5234 1675,844.5234 1675,834.5234 " fill="none" style="stroke:#181818;stroke-width:1.5;"/><rect fill="#FFFFFF" height="684.7344" style="stroke:#181818;stroke-width:1.0;" width="10" x="266.5" y="105.1797"/><rect fill="#FFFFFF" height="624.0313" style="stroke:#181818;stroke-width:1.0;" width="10" x="452.5" y="135.5313"/><rect fill="#FFFFFF" height="563.3281" style="stroke:#181818;stroke-width:1.0;" width="10" x="557.5" y="165.8828"/><rect fill="#FFFFFF" height="502.625" style="stroke:#181818;stroke-width:1.0;" width="10" x="792.5" y="196.2344"/><rect fill="#FFFFFF" height="441.9219" style="stroke:#181818;stroke-width:1.0;" width="10" x="1027.5" y="226.5859"/><rect fill="#FFFFFF" height="244.8125" style="stroke:#181818;stroke-width:1.0;" width="10" x="1221.5" y="300.2891"/><rect fill="#FFFFFF" height="30.3516" style="stroke:#181818;stroke-width:1.0;" width="10" x="1366.5" y="477.3984"/><rect fill="#FFFFFF" height="30.3516" style="stroke:#181818;stroke-width:1.0;" width="10" x="1366.5" y="600.8047"/><rect fill="#FFFFFF" height="91.0547" style="stroke:#181818;stroke-width:1.0;" width="10" x="1500" y="330.6406"/><rect fill="#FFFFFF" height="30.3516" style="stroke:#181818;stroke-width:1.0;" width="10" x="1652" y="360.9922"/><polygon fill="#181818" points="254.5,101.1797,264.5,105.1797,254.5,109.1797,258.5,105.1797" style="stroke:#181818;stroke-width:1.0;"/><line style="stroke:#181818;stroke-width:1.0;" x1="85.5" x2="260.5" y1="105.1797" y2="105.1797"/><text fill="#000000" font-family="sans-serif" font-size="13" font-weight="bold" lengthAdjust="spacing" textLength="7" x="92.5" y="100.3232">1</text><text fill="#000000" font-family="sans-serif" font-size="13" lengthAdjust="spacing" textLength="151" x="103.5" y="100.3232">getElevatorsByBuildingId()</text><polygon fill="#181818" points="440.5,131.5313,450.5,135.5313,440.5,139.5313,444.5,135.5313" style="stroke:#181818;stroke-width:1.0;"/><line style="stroke:#181818;stroke-width:1.0;" x1="276.5" x2="446.5" y1="135.5313" y2="135.5313"/><text fill="#000000" font-family="sans-serif" font-size="13" font-weight="bold" lengthAdjust="spacing" textLength="7" x="283.5" y="130.6748">2</text><text fill="#000000" font-family="sans-serif" font-size="13" lengthAdjust="spacing" textLength="88" x="294.5" y="130.6748">get&lt;buildingId&gt;</text><polygon fill="#181818" points="545.5,161.8828,555.5,165.8828,545.5,169.8828,549.5,165.8828" style="stroke:#181818;stroke-width:1.0;"/><line style="stroke:#181818;stroke-width:1.0;" x1="462.5" x2="551.5" y1="165.8828" y2="165.8828"/><text fill="#000000" font-family="sans-serif" font-size="13" font-weight="bold" lengthAdjust="spacing" textLength="7" x="469.5" y="161.0264">3</text><text fill="#000000" font-family="sans-serif" font-size="13" lengthAdjust="spacing" textLength="26" x="480.5" y="161.0264">GET</text><polygon fill="#181818" points="780.5,192.2344,790.5,196.2344,780.5,200.2344,784.5,196.2344" style="stroke:#181818;stroke-width:1.0;"/><line style="stroke:#181818;stroke-width:1.0;" x1="567.5" x2="786.5" y1="196.2344" y2="196.2344"/><text fill="#000000" font-family="sans-serif" font-size="13" font-weight="bold" lengthAdjust="spacing" textLength="7" x="574.5" y="191.3779">4</text><text fill="#000000" font-family="sans-serif" font-size="13" lengthAdjust="spacing" textLength="195" x="585.5" y="191.3779">getElevatorsByBuilding(buildingId)</text><polygon fill="#181818" points="1015.5,222.5859,1025.5,226.5859,1015.5,230.5859,1019.5,226.5859" style="stroke:#181818;stroke-width:1.0;"/><line style="stroke:#181818;stroke-width:1.0;" x1="802.5" x2="1021.5" y1="226.5859" y2="226.5859"/><text fill="#000000" font-family="sans-serif" font-size="13" font-weight="bold" lengthAdjust="spacing" textLength="7" x="809.5" y="221.7295">5</text><text fill="#000000" font-family="sans-serif" font-size="13" lengthAdjust="spacing" textLength="195" x="820.5" y="221.7295">getElevatorsByBuilding(buildingId)</text><line style="stroke:#181818;stroke-width:1.0;" x1="1037.5" x2="1079.5" y1="256.9375" y2="256.9375"/><line style="stroke:#181818;stroke-width:1.0;" x1="1079.5" x2="1079.5" y1="256.9375" y2="269.9375"/><line style="stroke:#181818;stroke-width:1.0;" x1="1038.5" x2="1079.5" y1="269.9375" y2="269.9375"/><polygon fill="#181818" points="1048.5,265.9375,1038.5,269.9375,1048.5,273.9375,1044.5,269.9375" style="stroke:#181818;stroke-width:1.0;"/><text fill="#000000" font-family="sans-serif" font-size="13" font-weight="bold" lengthAdjust="spacing" textLength="7" x="1044.5" y="252.0811">6</text><text fill="#000000" font-family="sans-serif" font-size="13" lengthAdjust="spacing" textLength="126" x="1055.5" y="252.0811">getBuilding(buildingId)</text><polygon fill="#181818" points="1209.5,296.2891,1219.5,300.2891,1209.5,304.2891,1213.5,300.2891" style="stroke:#181818;stroke-width:1.0;"/><line style="stroke:#181818;stroke-width:1.0;" x1="1037.5" x2="1215.5" y1="300.2891" y2="300.2891"/><text fill="#000000" font-family="sans-serif" font-size="13" font-weight="bold" lengthAdjust="spacing" textLength="7" x="1044.5" y="295.4326">7</text><text fill="#000000" font-family="sans-serif" font-size="13" lengthAdjust="spacing" textLength="154" x="1055.5" y="295.4326">findByBuildingId(buildingId)</text><polygon fill="#181818" points="1488,326.6406,1498,330.6406,1488,334.6406,1492,330.6406" style="stroke:#181818;stroke-width:1.0;"/><line style="stroke:#181818;stroke-width:1.0;" x1="1231.5" x2="1494" y1="330.6406" y2="330.6406"/><text fill="#000000" font-family="sans-serif" font-size="13" font-weight="bold" lengthAdjust="spacing" textLength="7" x="1238.5" y="325.7842">8</text><text fill="#000000" font-family="sans-serif" font-size="13" lengthAdjust="spacing" textLength="28" x="1249.5" y="325.7842">find()</text><polygon fill="#181818" points="1640,356.9922,1650,360.9922,1640,364.9922,1644,360.9922" style="stroke:#181818;stroke-width:1.0;"/><line style="stroke:#181818;stroke-width:1.0;" x1="1510" x2="1646" y1="360.9922" y2="360.9922"/><text fill="#000000" font-family="sans-serif" font-size="13" font-weight="bold" lengthAdjust="spacing" textLength="7" x="1517" y="356.1357">9</text><text fill="#000000" font-family="sans-serif" font-size="13" lengthAdjust="spacing" textLength="4" x="1528" y="356.1357"> </text><polygon fill="#181818" points="1521,387.3438,1511,391.3438,1521,395.3438,1517,391.3438" style="stroke:#181818;stroke-width:1.0;"/><line style="stroke:#181818;stroke-width:1.0;" x1="1515" x2="1656" y1="391.3438" y2="391.3438"/><text fill="#000000" font-family="sans-serif" font-size="13" font-weight="bold" lengthAdjust="spacing" textLength="14" x="1527" y="386.4873">10</text><text fill="#000000" font-family="sans-serif" font-size="13" lengthAdjust="spacing" textLength="100" x="1545" y="386.4873">elevatorSchema[]</text><polygon fill="#181818" points="1242.5,417.6953,1232.5,421.6953,1242.5,425.6953,1238.5,421.6953" style="stroke:#181818;stroke-width:1.0;"/><line style="stroke:#181818;stroke-width:1.0;" x1="1236.5" x2="1504" y1="421.6953" y2="421.6953"/><text fill="#000000" font-family="sans-serif" font-size="13" font-weight="bold" lengthAdjust="spacing" textLength="14" x="1248.5" y="416.8389">11</text><text fill="#000000" font-family="sans-serif" font-size="13" lengthAdjust="spacing" textLength="110" x="1266.5" y="416.8389">elevatorsDocument</text><path d="M1147.5,436.6953 L1220.5,436.6953 L1220.5,445.0469 L1210.5,455.0469 L1147.5,455.0469 L1147.5,436.6953 " fill="#EEEEEE" style="stroke:#000000;stroke-width:1.5;"/><rect fill="none" height="79.0547" style="stroke:#000000;stroke-width:1.5;" width="295" x="1147.5" y="436.6953"/><text fill="#000000" font-family="sans-serif" font-size="13" font-weight="bold" lengthAdjust="spacing" textLength="28" x="1162.5" y="451.1904">loop</text><polygon fill="#181818" points="1354.5,473.3984,1364.5,477.3984,1354.5,481.3984,1358.5,477.3984" style="stroke:#181818;stroke-width:1.0;"/><line style="stroke:#181818;stroke-width:1.0;" x1="1231.5" x2="1360.5" y1="477.3984" y2="477.3984"/><text fill="#000000" font-family="sans-serif" font-size="13" font-weight="bold" lengthAdjust="spacing" textLength="14" x="1238.5" y="472.542">12</text><text fill="#000000" font-family="sans-serif" font-size="13" lengthAdjust="spacing" textLength="63" x="1256.5" y="472.542">toDomain()</text><polygon fill="#181818" points="1242.5,503.75,1232.5,507.75,1242.5,511.75,1238.5,507.75" style="stroke:#181818;stroke-width:1.0;"/><line style="stroke:#181818;stroke-width:1.0;" x1="1236.5" x2="1370.5" y1="507.75" y2="507.75"/><text fill="#000000" font-family="sans-serif" font-size="13" font-weight="bold" lengthAdjust="spacing" textLength="14" x="1248.5" y="502.8936">13</text><text fill="#000000" font-family="sans-serif" font-size="13" lengthAdjust="spacing" textLength="93" x="1266.5" y="502.8936">elevatorInstance</text><polygon fill="#181818" points="1048.5,541.1016,1038.5,545.1016,1048.5,549.1016,1044.5,545.1016" style="stroke:#181818;stroke-width:1.0;"/><line style="stroke:#181818;stroke-width:1.0;" x1="1042.5" x2="1225.5" y1="545.1016" y2="545.1016"/><text fill="#000000" font-family="sans-serif" font-size="13" font-weight="bold" lengthAdjust="spacing" textLength="14" x="1054.5" y="540.2451">14</text><text fill="#000000" font-family="sans-serif" font-size="13" lengthAdjust="spacing" textLength="126" x="1072.5" y="540.2451">Result&lt;elevatorList[]&gt;</text><path d="M964,560.1016 L1037,560.1016 L1037,568.4531 L1027,578.4531 L964,578.4531 L964,560.1016 " fill="#EEEEEE" style="stroke:#000000;stroke-width:1.5;"/><rect fill="none" height="79.0547" style="stroke:#000000;stroke-width:1.5;" width="478.5" x="964" y="560.1016"/><text fill="#000000" font-family="sans-serif" font-size="13" font-weight="bold" lengthAdjust="spacing" textLength="28" x="979" y="574.5967">loop</text><polygon fill="#181818" points="1354.5,596.8047,1364.5,600.8047,1354.5,604.8047,1358.5,600.8047" style="stroke:#181818;stroke-width:1.0;"/><line style="stroke:#181818;stroke-width:1.0;" x1="1037.5" x2="1360.5" y1="600.8047" y2="600.8047"/><text fill="#000000" font-family="sans-serif" font-size="13" font-weight="bold" lengthAdjust="spacing" textLength="14" x="1044.5" y="595.9482">15</text><text fill="#000000" font-family="sans-serif" font-size="13" lengthAdjust="spacing" textLength="91" x="1062.5" y="595.9482">toDTO(Elevator)</text><polygon fill="#181818" points="1048.5,627.1563,1038.5,631.1563,1048.5,635.1563,1044.5,631.1563" style="stroke:#181818;stroke-width:1.0;"/><line style="stroke:#181818;stroke-width:1.0;" x1="1042.5" x2="1370.5" y1="631.1563" y2="631.1563"/><text fill="#000000" font-family="sans-serif" font-size="13" font-weight="bold" lengthAdjust="spacing" textLength="14" x="1054.5" y="626.2998">16</text><text fill="#000000" font-family="sans-serif" font-size="13" lengthAdjust="spacing" textLength="70" x="1072.5" y="626.2998">elevatorDTO</text><polygon fill="#181818" points="813.5,664.5078,803.5,668.5078,813.5,672.5078,809.5,668.5078" style="stroke:#181818;stroke-width:1.0;"/><line style="stroke:#181818;stroke-width:1.0;" x1="807.5" x2="1031.5" y1="668.5078" y2="668.5078"/><text fill="#000000" font-family="sans-serif" font-size="13" font-weight="bold" lengthAdjust="spacing" textLength="14" x="819.5" y="663.6514">17</text><text fill="#000000" font-family="sans-serif" font-size="13" lengthAdjust="spacing" textLength="131" x="837.5" y="663.6514">Result&lt;elevatorDTO[]&gt;</text><polygon fill="#181818" points="578.5,694.8594,568.5,698.8594,578.5,702.8594,574.5,698.8594" style="stroke:#181818;stroke-width:1.0;"/><line style="stroke:#181818;stroke-width:1.0;stroke-dasharray:2.0,2.0;" x1="572.5" x2="796.5" y1="698.8594" y2="698.8594"/><text fill="#000000" font-family="sans-serif" font-size="13" font-weight="bold" lengthAdjust="spacing" textLength="14" x="584.5" y="694.0029">18</text><text fill="#000000" font-family="sans-serif" font-size="13" lengthAdjust="spacing" textLength="106" x="602.5" y="694.0029">success response</text><polygon fill="#181818" points="473.5,725.2109,463.5,729.2109,473.5,733.2109,469.5,729.2109" style="stroke:#181818;stroke-width:1.0;"/><line style="stroke:#181818;stroke-width:1.0;" x1="467.5" x2="561.5" y1="729.2109" y2="729.2109"/><text fill="#000000" font-family="sans-serif" font-size="13" font-weight="bold" lengthAdjust="spacing" textLength="14" x="479.5" y="724.3545">19</text><text fill="#000000" font-family="sans-serif" font-size="13" lengthAdjust="spacing" textLength="53" x="497.5" y="724.3545">response</text><polygon fill="#181818" points="287.5,755.5625,277.5,759.5625,287.5,763.5625,283.5,759.5625" style="stroke:#181818;stroke-width:1.0;"/><line style="stroke:#181818;stroke-width:1.0;" x1="281.5" x2="456.5" y1="759.5625" y2="759.5625"/><text fill="#000000" font-family="sans-serif" font-size="13" font-weight="bold" lengthAdjust="spacing" textLength="14" x="293.5" y="754.7061">20</text><text fill="#000000" font-family="sans-serif" font-size="13" lengthAdjust="spacing" textLength="134" x="311.5" y="754.7061">Observable&lt;Elevator[]&gt;</text><polygon fill="#181818" points="96.5,785.9141,86.5,789.9141,96.5,793.9141,92.5,789.9141" style="stroke:#181818;stroke-width:1.0;"/><line style="stroke:#181818;stroke-width:1.0;" x1="90.5" x2="270.5" y1="789.9141" y2="789.9141"/><text fill="#000000" font-family="sans-serif" font-size="13" font-weight="bold" lengthAdjust="spacing" textLength="14" x="102.5" y="785.0576">21</text><text fill="#000000" font-family="sans-serif" font-size="13" lengthAdjust="spacing" textLength="134" x="120.5" y="785.0576">Observable&lt;Elevator[]&gt;</text><!--MD5=[b0e357fa1e7df67082b18e1bfa1aed37]
@startuml
autonumber

participant "Angular\nListElevatorComponent\n(Script)" as SCRIPT
participant "Angular\nElevatorService" as FE_SERV
participant "HttpRequestsService" as HTTP

participant ":API" as API
participant ":ElevatorController" as CTRL
participant ":ElevatorService" as SERV
participant ":ElevatorRepository" as REPO
participant ":Elevator Mapper" as MAPPER
participant ":Elevator Schema" as SCHEMA

database "MongoDB" as DB


SCRIPT -> FE_SERV : getElevatorsByBuildingId()
activate FE_SERV
    FE_SERV -> HTTP : get<buildingId>
    activate HTTP
        HTTP -> API : GET
                activate API
                    API -> CTRL : getElevatorsByBuilding(buildingId)
                    activate CTRL
                        CTRL -> SERV : getElevatorsByBuilding(buildingId)
                            activate SERV
                                SERV -> SERV : getBuilding(buildingId)
                                SERV -> REPO : findByBuildingId(buildingId)
                                activate REPO
                                    REPO -> SCHEMA : find()
                                    activate SCHEMA
                                        SCHEMA -> DB
                                        activate DB
                                            DB -> SCHEMA : elevatorSchema[]
                                        deactivate DB
                                    SCHEMA -> REPO : elevatorsDocument
                                    deactivate SCHEMA
                                    loop
                                        REPO -> MAPPER : toDomain()
                                        activate MAPPER
                                        MAPPER -> REPO : elevatorInstance
                                        deactivate MAPPER
                                    end
                                    REPO -> SERV : Result<elevatorList[]>
                                    deactivate REPO
                                loop
                                    SERV -> MAPPER : toDTO(Elevator)
                                    activate MAPPER
                                    MAPPER -> SERV : elevatorDTO
                                    deactivate MAPPER
                                end
                                SERV -> CTRL : Result<elevatorDTO[]>
                            deactivate SERV
                            CTRL - -> API : success response
                    deactivate CTRL
                        
                            API -> HTTP : response
                deactivate API
                HTTP -> FE_SERV : Observable<Elevator[]>
    deactivate HTTP
    FE_SERV -> SCRIPT : Observable<Elevator[]>
deactivate FE_SERV




@enduml

PlantUML version 1.2022.7(Mon Aug 22 18:01:30 BST 2022)
(GPL source distribution)
Java Runtime: Java(TM) SE Runtime Environment
JVM: Java HotSpot(TM) 64-Bit Server VM
Default Encoding: Cp1252
Language: pt
Country: PT
--></g></svg>