<?xml version="1.0" encoding="UTF-8" standalone="no"?><svg xmlns="http://www.w3.org/2000/svg" xmlns:xlink="http://www.w3.org/1999/xlink" contentStyleType="text/css" height="1329px" preserveAspectRatio="none" style="width:2365px;height:1329px;background:#FFFFFF;" version="1.1" viewBox="0 0 2365 1329" width="2365px" zoomAndPan="magnify"><defs/><g><rect fill="#FFFFFF" height="520.625" style="stroke:#181818;stroke-width:1.0;" width="10" x="47" y="65.2188"/><rect fill="#FFFFFF" height="641.3828" style="stroke:#181818;stroke-width:1.0;" width="10" x="47" y="616.1953"/><rect fill="#FFFFFF" height="498.2734" style="stroke:#181818;stroke-width:1.0;" width="10" x="202" y="87.5703"/><rect fill="#FFFFFF" height="641.3828" style="stroke:#181818;stroke-width:1.0;" width="10" x="202" y="616.1953"/><rect fill="#FFFFFF" height="394.2188" style="stroke:#181818;stroke-width:1.0;" width="10" x="457" y="161.2734"/><rect fill="#FFFFFF" height="580.6797" style="stroke:#181818;stroke-width:1.0;" width="10" x="457" y="646.5469"/><rect fill="#FFFFFF" height="519.9766" style="stroke:#181818;stroke-width:1.0;" width="10" x="580.5" y="676.8984"/><rect fill="#FFFFFF" height="459.2734" style="stroke:#181818;stroke-width:1.0;" width="10" x="805.5" y="707.25"/><rect fill="#FFFFFF" height="398.5703" style="stroke:#181818;stroke-width:1.0;" width="10" x="1007.5" y="737.6016"/><rect fill="#FFFFFF" height="184.1094" style="stroke:#181818;stroke-width:1.0;" width="10" x="1284" y="767.9531"/><rect fill="#FFFFFF" height="30.3516" style="stroke:#181818;stroke-width:1.0;" width="10" x="1411.5" y="1068.4688"/><rect fill="#FFFFFF" height="30.3516" style="stroke:#181818;stroke-width:1.0;" width="10" x="1531.5" y="1007.7656"/><rect fill="#FFFFFF" height="333.5156" style="stroke:#181818;stroke-width:1.0;" width="10" x="1656" y="191.625"/><rect fill="#FFFFFF" height="272.8125" style="stroke:#181818;stroke-width:1.0;" width="10" x="1784" y="221.9766"/><rect fill="#FFFFFF" height="212.1094" style="stroke:#181818;stroke-width:1.0;" width="10" x="1916.5" y="252.3281"/><rect fill="#FFFFFF" height="151.4063" style="stroke:#181818;stroke-width:1.0;" width="10" x="2052" y="282.6797"/><rect fill="#FFFFFF" height="30" style="stroke:#181818;stroke-width:1.0;" width="10" x="2189.5" y="313.0313"/><rect fill="#FFFFFF" height="30.3516" style="stroke:#181818;stroke-width:1.0;" width="10" x="2306.5" y="373.3828"/><rect fill="none" height="139.7578" style="stroke:#000000;stroke-width:1.5;" width="1358" x="10" y="782.9531"/><rect fill="none" height="139.7578" style="stroke:#000000;stroke-width:1.5;" width="664" x="944" y="967.0625"/><line style="stroke:#181818;stroke-width:0.5;stroke-dasharray:5.0,5.0;" x1="52" x2="52" y1="55.2188" y2="1275.5781"/><line style="stroke:#181818;stroke-width:0.5;stroke-dasharray:5.0,5.0;" x1="207" x2="207" y1="55.2188" y2="1275.5781"/><line style="stroke:#181818;stroke-width:0.5;stroke-dasharray:5.0,5.0;" x1="461.5" x2="461.5" y1="55.2188" y2="1275.5781"/><line style="stroke:#181818;stroke-width:0.5;stroke-dasharray:5.0,5.0;" x1="585.5" x2="585.5" y1="55.2188" y2="1275.5781"/><line style="stroke:#181818;stroke-width:0.5;stroke-dasharray:5.0,5.0;" x1="810.5" x2="810.5" y1="55.2188" y2="1275.5781"/><line style="stroke:#181818;stroke-width:0.5;stroke-dasharray:5.0,5.0;" x1="1012" x2="1012" y1="55.2188" y2="1275.5781"/><line style="stroke:#181818;stroke-width:0.5;stroke-dasharray:5.0,5.0;" x1="1145" x2="1145" y1="55.2188" y2="1275.5781"/><line style="stroke:#181818;stroke-width:0.5;stroke-dasharray:5.0,5.0;" x1="1289" x2="1289" y1="55.2188" y2="1275.5781"/><line style="stroke:#181818;stroke-width:0.5;stroke-dasharray:5.0,5.0;" x1="1416" x2="1416" y1="55.2188" y2="1275.5781"/><line style="stroke:#181818;stroke-width:0.5;stroke-dasharray:5.0,5.0;" x1="1536" x2="1536" y1="55.2188" y2="1275.5781"/><line style="stroke:#181818;stroke-width:0.5;stroke-dasharray:5.0,5.0;" x1="1661" x2="1661" y1="55.2188" y2="1275.5781"/><line style="stroke:#181818;stroke-width:0.5;stroke-dasharray:5.0,5.0;" x1="1789" x2="1789" y1="55.2188" y2="1275.5781"/><line style="stroke:#181818;stroke-width:0.5;stroke-dasharray:5.0,5.0;" x1="1921" x2="1921" y1="55.2188" y2="1275.5781"/><line style="stroke:#181818;stroke-width:0.5;stroke-dasharray:5.0,5.0;" x1="2057" x2="2057" y1="55.2188" y2="1275.5781"/><line style="stroke:#181818;stroke-width:0.5;stroke-dasharray:5.0,5.0;" x1="2194" x2="2194" y1="55.2188" y2="1275.5781"/><line style="stroke:#181818;stroke-width:0.5;stroke-dasharray:5.0,5.0;" x1="2311" x2="2311" y1="55.2188" y2="1275.5781"/><rect fill="#E2E2F0" height="31.6094" rx="2.5" ry="2.5" style="stroke:#181818;stroke-width:0.5;" width="64" x="20" y="22.6094"/><text fill="#000000" font-family="sans-serif" font-size="14" lengthAdjust="spacing" textLength="50" x="27" y="44.1426">:System</text><rect fill="#E2E2F0" height="31.6094" rx="2.5" ry="2.5" style="stroke:#181818;stroke-width:0.5;" width="64" x="20" y="1274.5781"/><text fill="#000000" font-family="sans-serif" font-size="14" lengthAdjust="spacing" textLength="50" x="27" y="1296.1113">:System</text><rect fill="#E2E2F0" height="49.2188" rx="2.5" ry="2.5" style="stroke:#181818;stroke-width:0.5;" width="208" x="103" y="5"/><text fill="#000000" font-family="sans-serif" font-size="14" lengthAdjust="spacing" textLength="194" x="110" y="26.5332">:List-floors-building.component</text><text fill="#000000" font-family="sans-serif" font-size="14" lengthAdjust="spacing" textLength="59" x="177.5" y="44.1426">(Angular)</text><rect fill="#E2E2F0" height="49.2188" rx="2.5" ry="2.5" style="stroke:#181818;stroke-width:0.5;" width="208" x="103" y="1274.5781"/><text fill="#000000" font-family="sans-serif" font-size="14" lengthAdjust="spacing" textLength="194" x="110" y="1296.1113">:List-floors-building.component</text><text fill="#000000" font-family="sans-serif" font-size="14" lengthAdjust="spacing" textLength="59" x="177.5" y="1313.7207">(Angular)</text><rect fill="#E2E2F0" height="31.6094" rx="2.5" ry="2.5" style="stroke:#181818;stroke-width:0.5;" width="119" x="402.5" y="22.6094"/><text fill="#000000" font-family="sans-serif" font-size="14" lengthAdjust="spacing" textLength="105" x="409.5" y="44.1426">:Elevator.service</text><rect fill="#E2E2F0" height="31.6094" rx="2.5" ry="2.5" style="stroke:#181818;stroke-width:0.5;" width="119" x="402.5" y="1274.5781"/><text fill="#000000" font-family="sans-serif" font-size="14" lengthAdjust="spacing" textLength="105" x="409.5" y="1296.1113">:Elevator.service</text><rect fill="#E2E2F0" height="31.6094" rx="2.5" ry="2.5" style="stroke:#181818;stroke-width:0.5;" width="108" x="531.5" y="22.6094"/><text fill="#000000" font-family="sans-serif" font-size="14" lengthAdjust="spacing" textLength="94" x="538.5" y="44.1426">:ElevatorRoute</text><rect fill="#E2E2F0" height="31.6094" rx="2.5" ry="2.5" style="stroke:#181818;stroke-width:0.5;" width="108" x="531.5" y="1274.5781"/><text fill="#000000" font-family="sans-serif" font-size="14" lengthAdjust="spacing" textLength="94" x="538.5" y="1296.1113">:ElevatorRoute</text><rect fill="#E2E2F0" height="31.6094" rx="2.5" ry="2.5" style="stroke:#181818;stroke-width:0.5;" width="132" x="744.5" y="22.6094"/><text fill="#000000" font-family="sans-serif" font-size="14" lengthAdjust="spacing" textLength="118" x="751.5" y="44.1426">:ElevatorController</text><rect fill="#E2E2F0" height="31.6094" rx="2.5" ry="2.5" style="stroke:#181818;stroke-width:0.5;" width="132" x="744.5" y="1274.5781"/><text fill="#000000" font-family="sans-serif" font-size="14" lengthAdjust="spacing" textLength="118" x="751.5" y="1296.1113">:ElevatorController</text><rect fill="#E2E2F0" height="31.6094" rx="2.5" ry="2.5" style="stroke:#181818;stroke-width:0.5;" width="117" x="954" y="22.6094"/><text fill="#000000" font-family="sans-serif" font-size="14" lengthAdjust="spacing" textLength="103" x="961" y="44.1426">:ElevatorService</text><rect fill="#E2E2F0" height="31.6094" rx="2.5" ry="2.5" style="stroke:#181818;stroke-width:0.5;" width="117" x="954" y="1274.5781"/><text fill="#000000" font-family="sans-serif" font-size="14" lengthAdjust="spacing" textLength="103" x="961" y="1296.1113">:ElevatorService</text><rect fill="#E2E2F0" height="31.6094" rx="2.5" ry="2.5" style="stroke:#181818;stroke-width:0.5;" width="129" x="1081" y="22.6094"/><text fill="#000000" font-family="sans-serif" font-size="14" lengthAdjust="spacing" textLength="115" x="1088" y="44.1426">:elevator: Elevator</text><rect fill="#E2E2F0" height="31.6094" rx="2.5" ry="2.5" style="stroke:#181818;stroke-width:0.5;" width="129" x="1081" y="1274.5781"/><text fill="#000000" font-family="sans-serif" font-size="14" lengthAdjust="spacing" textLength="115" x="1088" y="1296.1113">:elevator: Elevator</text><rect fill="#E2E2F0" height="31.6094" rx="2.5" ry="2.5" style="stroke:#181818;stroke-width:0.5;" width="138" x="1220" y="22.6094"/><text fill="#000000" font-family="sans-serif" font-size="14" lengthAdjust="spacing" textLength="124" x="1227" y="44.1426">:ElevatorRepository</text><rect fill="#E2E2F0" height="31.6094" rx="2.5" ry="2.5" style="stroke:#181818;stroke-width:0.5;" width="138" x="1220" y="1274.5781"/><text fill="#000000" font-family="sans-serif" font-size="14" lengthAdjust="spacing" textLength="124" x="1227" y="1296.1113">:ElevatorRepository</text><rect fill="#E2E2F0" height="31.6094" rx="2.5" ry="2.5" style="stroke:#181818;stroke-width:0.5;" width="97" x="1368" y="22.6094"/><text fill="#000000" font-family="sans-serif" font-size="14" lengthAdjust="spacing" textLength="83" x="1375" y="44.1426">:ElevatorMap</text><rect fill="#E2E2F0" height="31.6094" rx="2.5" ry="2.5" style="stroke:#181818;stroke-width:0.5;" width="97" x="1368" y="1274.5781"/><text fill="#000000" font-family="sans-serif" font-size="14" lengthAdjust="spacing" textLength="83" x="1375" y="1296.1113">:ElevatorMap</text><rect fill="#E2E2F0" height="31.6094" rx="2.5" ry="2.5" style="stroke:#181818;stroke-width:0.5;" width="123" x="1475" y="22.6094"/><text fill="#000000" font-family="sans-serif" font-size="14" lengthAdjust="spacing" textLength="109" x="1482" y="44.1426">FloorRepositopry</text><rect fill="#E2E2F0" height="31.6094" rx="2.5" ry="2.5" style="stroke:#181818;stroke-width:0.5;" width="123" x="1475" y="1274.5781"/><text fill="#000000" font-family="sans-serif" font-size="14" lengthAdjust="spacing" textLength="109" x="1482" y="1296.1113">FloorRepositopry</text><rect fill="#E2E2F0" height="31.6094" rx="2.5" ry="2.5" style="stroke:#181818;stroke-width:0.5;" width="106" x="1608" y="22.6094"/><text fill="#000000" font-family="sans-serif" font-size="14" lengthAdjust="spacing" textLength="92" x="1615" y="44.1426">:BuildingRoute</text><rect fill="#E2E2F0" height="31.6094" rx="2.5" ry="2.5" style="stroke:#181818;stroke-width:0.5;" width="106" x="1608" y="1274.5781"/><text fill="#000000" font-family="sans-serif" font-size="14" lengthAdjust="spacing" textLength="92" x="1615" y="1296.1113">:BuildingRoute</text><rect fill="#E2E2F0" height="31.6094" rx="2.5" ry="2.5" style="stroke:#181818;stroke-width:0.5;" width="130" x="1724" y="22.6094"/><text fill="#000000" font-family="sans-serif" font-size="14" lengthAdjust="spacing" textLength="116" x="1731" y="44.1426">:BuildingController</text><rect fill="#E2E2F0" height="31.6094" rx="2.5" ry="2.5" style="stroke:#181818;stroke-width:0.5;" width="130" x="1724" y="1274.5781"/><text fill="#000000" font-family="sans-serif" font-size="14" lengthAdjust="spacing" textLength="116" x="1731" y="1296.1113">:BuildingController</text><rect fill="#E2E2F0" height="31.6094" rx="2.5" ry="2.5" style="stroke:#181818;stroke-width:0.5;" width="115" x="1864" y="22.6094"/><text fill="#000000" font-family="sans-serif" font-size="14" lengthAdjust="spacing" textLength="101" x="1871" y="44.1426">:BuildingService</text><rect fill="#E2E2F0" height="31.6094" rx="2.5" ry="2.5" style="stroke:#181818;stroke-width:0.5;" width="115" x="1864" y="1274.5781"/><text fill="#000000" font-family="sans-serif" font-size="14" lengthAdjust="spacing" textLength="101" x="1871" y="1296.1113">:BuildingService</text><rect fill="#E2E2F0" height="31.6094" rx="2.5" ry="2.5" style="stroke:#181818;stroke-width:0.5;" width="136" x="1989" y="22.6094"/><text fill="#000000" font-family="sans-serif" font-size="14" lengthAdjust="spacing" textLength="122" x="1996" y="44.1426">:BuildingRepository</text><rect fill="#E2E2F0" height="31.6094" rx="2.5" ry="2.5" style="stroke:#181818;stroke-width:0.5;" width="136" x="1989" y="1274.5781"/><text fill="#000000" font-family="sans-serif" font-size="14" lengthAdjust="spacing" textLength="122" x="1996" y="1296.1113">:BuildingRepository</text><rect fill="#E2E2F0" height="31.6094" rx="2.5" ry="2.5" style="stroke:#181818;stroke-width:0.5;" width="119" x="2135" y="22.6094"/><text fill="#000000" font-family="sans-serif" font-size="14" lengthAdjust="spacing" textLength="105" x="2142" y="44.1426">:BuildingSchema</text><rect fill="#E2E2F0" height="31.6094" rx="2.5" ry="2.5" style="stroke:#181818;stroke-width:0.5;" width="119" x="2135" y="1274.5781"/><text fill="#000000" font-family="sans-serif" font-size="14" lengthAdjust="spacing" textLength="105" x="2142" y="1296.1113">:BuildingSchema</text><rect fill="#E2E2F0" height="31.6094" rx="2.5" ry="2.5" style="stroke:#181818;stroke-width:0.5;" width="95" x="2264" y="22.6094"/><text fill="#000000" font-family="sans-serif" font-size="14" lengthAdjust="spacing" textLength="81" x="2271" y="44.1426">:BuildingMap</text><rect fill="#E2E2F0" height="31.6094" rx="2.5" ry="2.5" style="stroke:#181818;stroke-width:0.5;" width="95" x="2264" y="1274.5781"/><text fill="#000000" font-family="sans-serif" font-size="14" lengthAdjust="spacing" textLength="81" x="2271" y="1296.1113">:BuildingMap</text><rect fill="#FFFFFF" height="520.625" style="stroke:#181818;stroke-width:1.0;" width="10" x="47" y="65.2188"/><rect fill="#FFFFFF" height="641.3828" style="stroke:#181818;stroke-width:1.0;" width="10" x="47" y="616.1953"/><rect fill="#FFFFFF" height="498.2734" style="stroke:#181818;stroke-width:1.0;" width="10" x="202" y="87.5703"/><rect fill="#FFFFFF" height="641.3828" style="stroke:#181818;stroke-width:1.0;" width="10" x="202" y="616.1953"/><rect fill="#FFFFFF" height="394.2188" style="stroke:#181818;stroke-width:1.0;" width="10" x="457" y="161.2734"/><rect fill="#FFFFFF" height="580.6797" style="stroke:#181818;stroke-width:1.0;" width="10" x="457" y="646.5469"/><rect fill="#FFFFFF" height="519.9766" style="stroke:#181818;stroke-width:1.0;" width="10" x="580.5" y="676.8984"/><rect fill="#FFFFFF" height="459.2734" style="stroke:#181818;stroke-width:1.0;" width="10" x="805.5" y="707.25"/><rect fill="#FFFFFF" height="398.5703" style="stroke:#181818;stroke-width:1.0;" width="10" x="1007.5" y="737.6016"/><rect fill="#FFFFFF" height="184.1094" style="stroke:#181818;stroke-width:1.0;" width="10" x="1284" y="767.9531"/><rect fill="#FFFFFF" height="30.3516" style="stroke:#181818;stroke-width:1.0;" width="10" x="1411.5" y="1068.4688"/><rect fill="#FFFFFF" height="30.3516" style="stroke:#181818;stroke-width:1.0;" width="10" x="1531.5" y="1007.7656"/><rect fill="#FFFFFF" height="333.5156" style="stroke:#181818;stroke-width:1.0;" width="10" x="1656" y="191.625"/><rect fill="#FFFFFF" height="272.8125" style="stroke:#181818;stroke-width:1.0;" width="10" x="1784" y="221.9766"/><rect fill="#FFFFFF" height="212.1094" style="stroke:#181818;stroke-width:1.0;" width="10" x="1916.5" y="252.3281"/><rect fill="#FFFFFF" height="151.4063" style="stroke:#181818;stroke-width:1.0;" width="10" x="2052" y="282.6797"/><rect fill="#FFFFFF" height="30" style="stroke:#181818;stroke-width:1.0;" width="10" x="2189.5" y="313.0313"/><rect fill="#FFFFFF" height="30.3516" style="stroke:#181818;stroke-width:1.0;" width="10" x="2306.5" y="373.3828"/><polygon fill="#181818" points="190,83.5703,200,87.5703,190,91.5703,194,87.5703" style="stroke:#181818;stroke-width:1.0;"/><line style="stroke:#181818;stroke-width:1.0;" x1="57" x2="196" y1="87.5703" y2="87.5703"/><text fill="#000000" font-family="sans-serif" font-size="13" font-weight="bold" lengthAdjust="spacing" textLength="7" x="64" y="82.7139">1</text><text fill="#000000" font-family="sans-serif" font-size="13" lengthAdjust="spacing" textLength="115" x="75" y="82.7139">GET loadBuildings()</text><line style="stroke:#181818;stroke-width:1.0;" x1="212" x2="254" y1="117.9219" y2="117.9219"/><line style="stroke:#181818;stroke-width:1.0;" x1="254" x2="254" y1="117.9219" y2="130.9219"/><line style="stroke:#181818;stroke-width:1.0;" x1="213" x2="254" y1="130.9219" y2="130.9219"/><polygon fill="#181818" points="223,126.9219,213,130.9219,223,134.9219,219,130.9219" style="stroke:#181818;stroke-width:1.0;"/><text fill="#000000" font-family="sans-serif" font-size="13" font-weight="bold" lengthAdjust="spacing" textLength="7" x="219" y="113.0654">2</text><text fill="#000000" font-family="sans-serif" font-size="13" lengthAdjust="spacing" textLength="56" x="230" y="113.0654">ngOnInit()</text><polygon fill="#181818" points="445,157.2734,455,161.2734,445,165.2734,449,161.2734" style="stroke:#181818;stroke-width:1.0;"/><line style="stroke:#181818;stroke-width:1.0;" x1="212" x2="451" y1="161.2734" y2="161.2734"/><text fill="#000000" font-family="sans-serif" font-size="13" font-weight="bold" lengthAdjust="spacing" textLength="7" x="219" y="156.417">3</text><text fill="#000000" font-family="sans-serif" font-size="13" lengthAdjust="spacing" textLength="79" x="230" y="156.417">getBuildings()</text><polygon fill="#181818" points="1644,187.625,1654,191.625,1644,195.625,1648,191.625" style="stroke:#181818;stroke-width:1.0;"/><line style="stroke:#181818;stroke-width:1.0;" x1="467" x2="1650" y1="191.625" y2="191.625"/><text fill="#000000" font-family="sans-serif" font-size="13" font-weight="bold" lengthAdjust="spacing" textLength="7" x="474" y="186.7686">4</text><text fill="#000000" font-family="sans-serif" font-size="13" lengthAdjust="spacing" textLength="109" x="485" y="186.7686">GET getBuildings()</text><polygon fill="#181818" points="1772,217.9766,1782,221.9766,1772,225.9766,1776,221.9766" style="stroke:#181818;stroke-width:1.0;"/><line style="stroke:#181818;stroke-width:1.0;" x1="1666" x2="1778" y1="221.9766" y2="221.9766"/><text fill="#000000" font-family="sans-serif" font-size="13" font-weight="bold" lengthAdjust="spacing" textLength="7" x="1673" y="217.1201">5</text><text fill="#000000" font-family="sans-serif" font-size="13" lengthAdjust="spacing" textLength="71" x="1684" y="217.1201">listBuilding()</text><polygon fill="#181818" points="1904.5,248.3281,1914.5,252.3281,1904.5,256.3281,1908.5,252.3281" style="stroke:#181818;stroke-width:1.0;"/><line style="stroke:#181818;stroke-width:1.0;" x1="1794" x2="1910.5" y1="252.3281" y2="252.3281"/><text fill="#000000" font-family="sans-serif" font-size="13" font-weight="bold" lengthAdjust="spacing" textLength="7" x="1801" y="247.4717">6</text><text fill="#000000" font-family="sans-serif" font-size="13" lengthAdjust="spacing" textLength="75" x="1812" y="247.4717">ListBuilding()</text><polygon fill="#181818" points="2040,278.6797,2050,282.6797,2040,286.6797,2044,282.6797" style="stroke:#181818;stroke-width:1.0;"/><line style="stroke:#181818;stroke-width:1.0;" x1="1926.5" x2="2046" y1="282.6797" y2="282.6797"/><text fill="#000000" font-family="sans-serif" font-size="13" font-weight="bold" lengthAdjust="spacing" textLength="7" x="1933.5" y="277.8232">7</text><text fill="#000000" font-family="sans-serif" font-size="13" lengthAdjust="spacing" textLength="40" x="1944.5" y="277.8232">listAll()</text><polygon fill="#181818" points="2177.5,309.0313,2187.5,313.0313,2177.5,317.0313,2181.5,313.0313" style="stroke:#181818;stroke-width:1.0;"/><line style="stroke:#181818;stroke-width:1.0;" x1="2062" x2="2183.5" y1="313.0313" y2="313.0313"/><text fill="#000000" font-family="sans-serif" font-size="13" font-weight="bold" lengthAdjust="spacing" textLength="7" x="2069" y="308.1748">8</text><text fill="#000000" font-family="sans-serif" font-size="13" lengthAdjust="spacing" textLength="28" x="2080" y="308.1748">find()</text><polygon fill="#181818" points="2294.5,369.3828,2304.5,373.3828,2294.5,377.3828,2298.5,373.3828" style="stroke:#181818;stroke-width:1.0;"/><line style="stroke:#181818;stroke-width:1.0;" x1="2062" x2="2300.5" y1="373.3828" y2="373.3828"/><text fill="#000000" font-family="sans-serif" font-size="13" font-weight="bold" lengthAdjust="spacing" textLength="7" x="2069" y="368.5264">9</text><text fill="#000000" font-family="sans-serif" font-size="13" lengthAdjust="spacing" textLength="63" x="2080" y="368.5264">toDomain()</text><polygon fill="#181818" points="2073,399.7344,2063,403.7344,2073,407.7344,2069,403.7344" style="stroke:#181818;stroke-width:1.0;"/><line style="stroke:#181818;stroke-width:1.0;stroke-dasharray:2.0,2.0;" x1="2067" x2="2310.5" y1="403.7344" y2="403.7344"/><text fill="#000000" font-family="sans-serif" font-size="13" font-weight="bold" lengthAdjust="spacing" textLength="14" x="2079" y="398.8779">10</text><text fill="#000000" font-family="sans-serif" font-size="13" lengthAdjust="spacing" textLength="59" x="2097" y="398.8779">buildings[]</text><polygon fill="#181818" points="1937.5,430.0859,1927.5,434.0859,1937.5,438.0859,1933.5,434.0859" style="stroke:#181818;stroke-width:1.0;"/><line style="stroke:#181818;stroke-width:1.0;stroke-dasharray:2.0,2.0;" x1="1931.5" x2="2056" y1="434.0859" y2="434.0859"/><text fill="#000000" font-family="sans-serif" font-size="13" font-weight="bold" lengthAdjust="spacing" textLength="14" x="1943.5" y="429.2295">11</text><text fill="#000000" font-family="sans-serif" font-size="13" lengthAdjust="spacing" textLength="59" x="1961.5" y="429.2295">buildings[]</text><polygon fill="#181818" points="1805,460.4375,1795,464.4375,1805,468.4375,1801,464.4375" style="stroke:#181818;stroke-width:1.0;"/><line style="stroke:#181818;stroke-width:1.0;stroke-dasharray:2.0,2.0;" x1="1799" x2="1920.5" y1="464.4375" y2="464.4375"/><text fill="#000000" font-family="sans-serif" font-size="13" font-weight="bold" lengthAdjust="spacing" textLength="14" x="1811" y="459.5811">12</text><text fill="#000000" font-family="sans-serif" font-size="13" lengthAdjust="spacing" textLength="59" x="1829" y="459.5811">buildings[]</text><polygon fill="#181818" points="1677,490.7891,1667,494.7891,1677,498.7891,1673,494.7891" style="stroke:#181818;stroke-width:1.0;"/><line style="stroke:#181818;stroke-width:1.0;stroke-dasharray:2.0,2.0;" x1="1671" x2="1788" y1="494.7891" y2="494.7891"/><text fill="#000000" font-family="sans-serif" font-size="13" font-weight="bold" lengthAdjust="spacing" textLength="14" x="1683" y="489.9326">13</text><text fill="#000000" font-family="sans-serif" font-size="13" lengthAdjust="spacing" textLength="59" x="1701" y="489.9326">buildings[]</text><polygon fill="#181818" points="478,521.1406,468,525.1406,478,529.1406,474,525.1406" style="stroke:#181818;stroke-width:1.0;"/><line style="stroke:#181818;stroke-width:1.0;stroke-dasharray:2.0,2.0;" x1="472" x2="1660" y1="525.1406" y2="525.1406"/><text fill="#000000" font-family="sans-serif" font-size="13" font-weight="bold" lengthAdjust="spacing" textLength="14" x="484" y="520.2842">14</text><text fill="#000000" font-family="sans-serif" font-size="13" lengthAdjust="spacing" textLength="59" x="502" y="520.2842">buildings[]</text><polygon fill="#181818" points="223,551.4922,213,555.4922,223,559.4922,219,555.4922" style="stroke:#181818;stroke-width:1.0;"/><line style="stroke:#181818;stroke-width:1.0;stroke-dasharray:2.0,2.0;" x1="217" x2="461" y1="555.4922" y2="555.4922"/><text fill="#000000" font-family="sans-serif" font-size="13" font-weight="bold" lengthAdjust="spacing" textLength="14" x="229" y="550.6357">15</text><text fill="#000000" font-family="sans-serif" font-size="13" lengthAdjust="spacing" textLength="59" x="247" y="550.6357">buildings[]</text><polygon fill="#181818" points="63,581.8438,53,585.8438,63,589.8438,59,585.8438" style="stroke:#181818;stroke-width:1.0;"/><line style="stroke:#181818;stroke-width:1.0;stroke-dasharray:2.0,2.0;" x1="57" x2="206" y1="585.8438" y2="585.8438"/><text fill="#000000" font-family="sans-serif" font-size="13" font-weight="bold" lengthAdjust="spacing" textLength="14" x="69" y="580.9873">16</text><text fill="#000000" font-family="sans-serif" font-size="13" lengthAdjust="spacing" textLength="59" x="87" y="580.9873">buildings[]</text><polygon fill="#181818" points="190,612.1953,200,616.1953,190,620.1953,194,616.1953" style="stroke:#181818;stroke-width:1.0;"/><line style="stroke:#181818;stroke-width:1.0;" x1="57" x2="196" y1="616.1953" y2="616.1953"/><text fill="#000000" font-family="sans-serif" font-size="13" font-weight="bold" lengthAdjust="spacing" textLength="14" x="64" y="611.3389">17</text><text fill="#000000" font-family="sans-serif" font-size="13" lengthAdjust="spacing" textLength="101" x="82" y="611.3389">getFloorsServed()</text><polygon fill="#181818" points="445,642.5469,455,646.5469,445,650.5469,449,646.5469" style="stroke:#181818;stroke-width:1.0;"/><line style="stroke:#181818;stroke-width:1.0;" x1="212" x2="451" y1="646.5469" y2="646.5469"/><text fill="#000000" font-family="sans-serif" font-size="13" font-weight="bold" lengthAdjust="spacing" textLength="14" x="219" y="641.6904">18</text><text fill="#000000" font-family="sans-serif" font-size="13" lengthAdjust="spacing" textLength="208" x="237" y="641.6904">getFloorsBuildingElevator(buildingId)</text><polygon fill="#181818" points="568.5,672.8984,578.5,676.8984,568.5,680.8984,572.5,676.8984" style="stroke:#181818;stroke-width:1.0;"/><line style="stroke:#181818;stroke-width:1.0;" x1="57" x2="574.5" y1="676.8984" y2="676.8984"/><text fill="#000000" font-family="sans-serif" font-size="13" font-weight="bold" lengthAdjust="spacing" textLength="14" x="64" y="672.042">19</text><text fill="#000000" font-family="sans-serif" font-size="13" lengthAdjust="spacing" textLength="131" x="82" y="672.042">GET getFloorsServed()</text><polygon fill="#181818" points="793.5,703.25,803.5,707.25,793.5,711.25,797.5,707.25" style="stroke:#181818;stroke-width:1.0;"/><line style="stroke:#181818;stroke-width:1.0;" x1="590.5" x2="799.5" y1="707.25" y2="707.25"/><text fill="#000000" font-family="sans-serif" font-size="13" font-weight="bold" lengthAdjust="spacing" textLength="14" x="597.5" y="702.3936">20</text><text fill="#000000" font-family="sans-serif" font-size="13" lengthAdjust="spacing" textLength="178" x="615.5" y="702.3936">getFloorsServed(req, res, next)</text><polygon fill="#181818" points="995.5,733.6016,1005.5,737.6016,995.5,741.6016,999.5,737.6016" style="stroke:#181818;stroke-width:1.0;"/><line style="stroke:#181818;stroke-width:1.0;" x1="815.5" x2="1001.5" y1="737.6016" y2="737.6016"/><text fill="#000000" font-family="sans-serif" font-size="13" font-weight="bold" lengthAdjust="spacing" textLength="14" x="822.5" y="732.7451">21</text><text fill="#000000" font-family="sans-serif" font-size="13" lengthAdjust="spacing" textLength="155" x="840.5" y="732.7451">getFloorsServed(buildingId)</text><polygon fill="#181818" points="1272,763.9531,1282,767.9531,1272,771.9531,1276,767.9531" style="stroke:#181818;stroke-width:1.0;"/><line style="stroke:#181818;stroke-width:1.0;" x1="1017.5" x2="1278" y1="767.9531" y2="767.9531"/><text fill="#000000" font-family="sans-serif" font-size="13" font-weight="bold" lengthAdjust="spacing" textLength="14" x="1024.5" y="763.0967">22</text><text fill="#000000" font-family="sans-serif" font-size="13" lengthAdjust="spacing" textLength="154" x="1042.5" y="763.0967">findByBuildingId(buildingId)</text><path d="M10,782.9531 L71,782.9531 L71,791.3047 L61,801.3047 L10,801.3047 L10,782.9531 " fill="#EEEEEE" style="stroke:#000000;stroke-width:1.5;"/><rect fill="none" height="139.7578" style="stroke:#000000;stroke-width:1.5;" width="1358" x="10" y="782.9531"/><text fill="#000000" font-family="sans-serif" font-size="13" font-weight="bold" lengthAdjust="spacing" textLength="16" x="25" y="797.4482">alt</text><polygon fill="#181818" points="1028.5,819.6563,1018.5,823.6563,1028.5,827.6563,1024.5,823.6563" style="stroke:#181818;stroke-width:1.0;"/><line style="stroke:#181818;stroke-width:1.0;" x1="1022.5" x2="1283" y1="823.6563" y2="823.6563"/><text fill="#000000" font-family="sans-serif" font-size="13" font-weight="bold" lengthAdjust="spacing" textLength="14" x="1034.5" y="818.7998">23</text><text fill="#000000" font-family="sans-serif" font-size="13" lengthAdjust="spacing" textLength="20" x="1052.5" y="818.7998">null</text><polygon fill="#181818" points="826.5,850.0078,816.5,854.0078,826.5,858.0078,822.5,854.0078" style="stroke:#181818;stroke-width:1.0;"/><line style="stroke:#181818;stroke-width:1.0;" x1="820.5" x2="1006.5" y1="854.0078" y2="854.0078"/><text fill="#000000" font-family="sans-serif" font-size="13" font-weight="bold" lengthAdjust="spacing" textLength="14" x="832.5" y="849.1514">24</text><text fill="#000000" font-family="sans-serif" font-size="13" lengthAdjust="spacing" textLength="16" x="850.5" y="849.1514">fail</text><polygon fill="#181818" points="601.5,880.3594,591.5,884.3594,601.5,888.3594,597.5,884.3594" style="stroke:#181818;stroke-width:1.0;"/><line style="stroke:#181818;stroke-width:1.0;" x1="595.5" x2="804.5" y1="884.3594" y2="884.3594"/><text fill="#000000" font-family="sans-serif" font-size="13" font-weight="bold" lengthAdjust="spacing" textLength="14" x="607.5" y="879.5029">25</text><text fill="#000000" font-family="sans-serif" font-size="13" lengthAdjust="spacing" textLength="83" x="625.5" y="879.5029">error response</text><polygon fill="#181818" points="68,910.7109,58,914.7109,68,918.7109,64,914.7109" style="stroke:#181818;stroke-width:1.0;"/><line style="stroke:#181818;stroke-width:1.0;" x1="62" x2="579.5" y1="914.7109" y2="914.7109"/><text fill="#000000" font-family="sans-serif" font-size="13" font-weight="bold" lengthAdjust="spacing" textLength="14" x="74" y="909.8545">26</text><text fill="#000000" font-family="sans-serif" font-size="13" lengthAdjust="spacing" textLength="26" x="92" y="909.8545">error</text><polygon fill="#181818" points="1028.5,948.0625,1018.5,952.0625,1028.5,956.0625,1024.5,952.0625" style="stroke:#181818;stroke-width:1.0;"/><line style="stroke:#181818;stroke-width:1.0;stroke-dasharray:2.0,2.0;" x1="1022.5" x2="1288" y1="952.0625" y2="952.0625"/><text fill="#000000" font-family="sans-serif" font-size="13" font-weight="bold" lengthAdjust="spacing" textLength="14" x="1034.5" y="947.2061">27</text><text fill="#000000" font-family="sans-serif" font-size="13" lengthAdjust="spacing" textLength="44" x="1052.5" y="947.2061">elevator</text><path d="M944,967.0625 L1017,967.0625 L1017,975.4141 L1007,985.4141 L944,985.4141 L944,967.0625 " fill="#EEEEEE" style="stroke:#000000;stroke-width:1.5;"/><rect fill="none" height="139.7578" style="stroke:#000000;stroke-width:1.5;" width="664" x="944" y="967.0625"/><text fill="#000000" font-family="sans-serif" font-size="13" font-weight="bold" lengthAdjust="spacing" textLength="28" x="959" y="981.5576">loop</text><polygon fill="#181818" points="1519.5,1003.7656,1529.5,1007.7656,1519.5,1011.7656,1523.5,1007.7656" style="stroke:#181818;stroke-width:1.0;"/><line style="stroke:#181818;stroke-width:1.0;" x1="1017.5" x2="1525.5" y1="1007.7656" y2="1007.7656"/><text fill="#000000" font-family="sans-serif" font-size="13" font-weight="bold" lengthAdjust="spacing" textLength="14" x="1024.5" y="1002.9092">28</text><text fill="#000000" font-family="sans-serif" font-size="13" lengthAdjust="spacing" textLength="132" x="1042.5" y="1002.9092">findByDomainId(floorId)</text><polygon fill="#181818" points="1028.5,1034.1172,1018.5,1038.1172,1028.5,1042.1172,1024.5,1038.1172" style="stroke:#181818;stroke-width:1.0;"/><line style="stroke:#181818;stroke-width:1.0;" x1="1022.5" x2="1535.5" y1="1038.1172" y2="1038.1172"/><text fill="#000000" font-family="sans-serif" font-size="13" font-weight="bold" lengthAdjust="spacing" textLength="14" x="1034.5" y="1033.2607">29</text><text fill="#000000" font-family="sans-serif" font-size="13" lengthAdjust="spacing" textLength="24" x="1052.5" y="1033.2607">floor</text><polygon fill="#181818" points="1399.5,1064.4688,1409.5,1068.4688,1399.5,1072.4688,1403.5,1068.4688" style="stroke:#181818;stroke-width:1.0;"/><line style="stroke:#181818;stroke-width:1.0;stroke-dasharray:2.0,2.0;" x1="1017.5" x2="1405.5" y1="1068.4688" y2="1068.4688"/><text fill="#000000" font-family="sans-serif" font-size="13" font-weight="bold" lengthAdjust="spacing" textLength="14" x="1024.5" y="1063.6123">30</text><text fill="#000000" font-family="sans-serif" font-size="13" lengthAdjust="spacing" textLength="69" x="1042.5" y="1063.6123">toDTO(floor)</text><polygon fill="#181818" points="1028.5,1094.8203,1018.5,1098.8203,1028.5,1102.8203,1024.5,1098.8203" style="stroke:#181818;stroke-width:1.0;"/><line style="stroke:#181818;stroke-width:1.0;stroke-dasharray:2.0,2.0;" x1="1022.5" x2="1415.5" y1="1098.8203" y2="1098.8203"/><text fill="#000000" font-family="sans-serif" font-size="13" font-weight="bold" lengthAdjust="spacing" textLength="14" x="1034.5" y="1093.9639">31</text><text fill="#000000" font-family="sans-serif" font-size="13" lengthAdjust="spacing" textLength="50" x="1052.5" y="1093.9639">floorDTO</text><polygon fill="#181818" points="826.5,1132.1719,816.5,1136.1719,826.5,1140.1719,822.5,1136.1719" style="stroke:#181818;stroke-width:1.0;"/><line style="stroke:#181818;stroke-width:1.0;stroke-dasharray:2.0,2.0;" x1="820.5" x2="1011.5" y1="1136.1719" y2="1136.1719"/><text fill="#000000" font-family="sans-serif" font-size="13" font-weight="bold" lengthAdjust="spacing" textLength="14" x="832.5" y="1131.3154">32</text><text fill="#000000" font-family="sans-serif" font-size="13" lengthAdjust="spacing" textLength="119" x="850.5" y="1131.3154">floorList&lt;IFloorDTO&gt;</text><polygon fill="#181818" points="601.5,1162.5234,591.5,1166.5234,601.5,1170.5234,597.5,1166.5234" style="stroke:#181818;stroke-width:1.0;"/><line style="stroke:#181818;stroke-width:1.0;stroke-dasharray:2.0,2.0;" x1="595.5" x2="809.5" y1="1166.5234" y2="1166.5234"/><text fill="#000000" font-family="sans-serif" font-size="13" font-weight="bold" lengthAdjust="spacing" textLength="14" x="607.5" y="1161.667">33</text><text fill="#000000" font-family="sans-serif" font-size="13" lengthAdjust="spacing" textLength="106" x="625.5" y="1161.667">success response</text><polygon fill="#181818" points="478,1192.875,468,1196.875,478,1200.875,474,1196.875" style="stroke:#181818;stroke-width:1.0;"/><line style="stroke:#181818;stroke-width:1.0;stroke-dasharray:2.0,2.0;" x1="472" x2="584.5" y1="1196.875" y2="1196.875"/><text fill="#000000" font-family="sans-serif" font-size="13" font-weight="bold" lengthAdjust="spacing" textLength="14" x="484" y="1192.0186">34</text><text fill="#000000" font-family="sans-serif" font-size="13" lengthAdjust="spacing" textLength="49" x="502" y="1192.0186">success</text><polygon fill="#181818" points="223,1223.2266,213,1227.2266,223,1231.2266,219,1227.2266" style="stroke:#181818;stroke-width:1.0;"/><line style="stroke:#181818;stroke-width:1.0;stroke-dasharray:2.0,2.0;" x1="217" x2="461" y1="1227.2266" y2="1227.2266"/><text fill="#000000" font-family="sans-serif" font-size="13" font-weight="bold" lengthAdjust="spacing" textLength="14" x="229" y="1222.3701">35</text><text fill="#000000" font-family="sans-serif" font-size="13" lengthAdjust="spacing" textLength="42" x="247" y="1222.3701">sucess</text><polygon fill="#181818" points="63,1253.5781,53,1257.5781,63,1261.5781,59,1257.5781" style="stroke:#181818;stroke-width:1.0;"/><line style="stroke:#181818;stroke-width:1.0;stroke-dasharray:2.0,2.0;" x1="57" x2="206" y1="1257.5781" y2="1257.5781"/><text fill="#000000" font-family="sans-serif" font-size="13" font-weight="bold" lengthAdjust="spacing" textLength="14" x="69" y="1252.7217">36</text><text fill="#000000" font-family="sans-serif" font-size="13" lengthAdjust="spacing" textLength="49" x="87" y="1252.7217">success</text><!--MD5=[f9ae2b01972812cc8557d2510479bf4e]
@startuml
autonumber

participant ":System" as SY
participant ":List-floors-building.component\n(Angular)" as LE
participant ":Elevator.service" as ES

participant ":ElevatorRoute" as API
participant ":ElevatorController" as CTRL
participant ":ElevatorService" as SERV
participant ":elevator: Elevator" as ELEVATOR 
participant ":ElevatorRepository" as REPO
participant ":ElevatorMap" as MAP
participant "FloorRepositopry" AS FREPO

participant ":BuildingRoute" as BR
participant ":BuildingController" as BCTRL
participant ":BuildingService" as BSERV
participant ":BuildingRepository" as BREPO
participant ":BuildingSchema" as BSCHEMA
participant ":BuildingMap" as BMAP

activate SY
SY -> LE : GET loadBuildings()
activate LE
LE -> LE : ngOnInit() 
LE -> ES : getBuildings()
activate ES
ES -> BR : GET getBuildings()
activate BR
BR -> BCTRL : listBuilding()
activate BCTRL
BCTRL ->  BSERV : ListBuilding()
activate BSERV
BSERV -> BREPO : listAll()
activate BREPO 
BREPO -> BSCHEMA : find()
activate BSCHEMA
deactivate BSCHEMA
BREPO -> BMAP : toDomain()
activate BMAP
BMAP - -> BREPO : buildings[]
deactivate BMAP
BREPO - -> BSERV : buildings[]
deactivate BREPO
BSERV - -> BCTRL : buildings[]
deactivate BSERV
BCTRL - -> BR : buildings[]
deactivate BCTRL
BR - -> ES : buildings[]
deactivate BR
ES - -> LE : buildings[]
deactivate ES
LE - -> SY : buildings[]
deactivate LE
deactivate SY

SY -> LE : getFloorsServed()
activate SY
activate LE
LE -> ES : getFloorsBuildingElevator(buildingId)
activate ES
SY -> API : GET getFloorsServed()
activate API
API -> CTRL : getFloorsServed(req, res, next)
activate CTRL
CTRL -> SERV : getFloorsServed(buildingId)
activate SERV
SERV -> REPO : findByBuildingId(buildingId)
activate REPO
alt
REPO -> SERV : null
SERV -> CTRL : fail
CTRL -> API : error response
API -> SY : error
end
REPO - -> SERV : elevator
deactivate REPO
loop
SERV -> FREPO : findByDomainId(floorId)
activate FREPO
FREPO -> SERV : floor
deactivate FREPO
SERV - -> MAP : toDTO(floor)
activate MAP
MAP - -> SERV : floorDTO
deactivate MAP
end loop
SERV - -> CTRL : floorList<IFloorDTO>
deactivate SERV
CTRL - -> API : success response
deactivate CTRL
API - -> ES : success
deactivate API
ES - -> LE : sucess
deactivate ES
LE - -> SY : success
deactivate LE
deactivate SY

@enduml

PlantUML version 1.2022.7(Mon Aug 22 18:01:30 BST 2022)
(GPL source distribution)
Java Runtime: OpenJDK Runtime Environment
JVM: OpenJDK 64-Bit Server VM
Default Encoding: Cp1252
Language: pt
Country: PT
--></g></svg>