<?xml version="1.0" encoding="UTF-8" standalone="no"?><svg xmlns="http://www.w3.org/2000/svg" xmlns:xlink="http://www.w3.org/1999/xlink" contentStyleType="text/css" height="1178px" preserveAspectRatio="none" style="width:1575px;height:1178px;background:#FFFFFF;" version="1.1" viewBox="0 0 1575 1178" width="1575px" zoomAndPan="magnify"><defs/><g><rect fill="#FFFFFF" height="975.25" style="stroke:#181818;stroke-width:1.0;" width="10" x="254.5" y="105.1797"/><rect fill="#FFFFFF" height="914.5469" style="stroke:#181818;stroke-width:1.0;" width="10" x="420.5" y="135.5313"/><rect fill="#FFFFFF" height="853.8438" style="stroke:#181818;stroke-width:1.0;" width="10" x="525.5" y="165.8828"/><rect fill="#FFFFFF" height="793.1406" style="stroke:#181818;stroke-width:1.0;" width="10" x="698.5" y="196.2344"/><rect fill="#FFFFFF" height="732.4375" style="stroke:#181818;stroke-width:1.0;" width="10" x="873.5" y="226.5859"/><rect fill="#FFFFFF" height="184.1094" style="stroke:#181818;stroke-width:1.0;" width="10" x="964.5" y="471.3984"/><rect fill="#FFFFFF" height="242.8125" style="stroke:#181818;stroke-width:1.0;" width="10" x="1063.5" y="685.8594"/><rect fill="#FFFFFF" height="184.1094" style="stroke:#181818;stroke-width:1.0;" width="10" x="1194.5" y="256.9375"/><rect fill="#FFFFFF" height="30.3516" style="stroke:#181818;stroke-width:1.0;" width="10" x="1317.5" y="716.2109"/><rect fill="#FFFFFF" height="30.3516" style="stroke:#181818;stroke-width:1.0;" width="10" x="1317.5" y="867.9688"/><rect fill="#FFFFFF" height="60.7031" style="stroke:#181818;stroke-width:1.0;" width="10" x="1436" y="776.9141"/><rect fill="none" height="139.7578" style="stroke:#000000;stroke-width:1.5;" width="926.5" x="342.5" y="271.9375"/><rect fill="none" height="139.7578" style="stroke:#000000;stroke-width:1.5;" width="664.5" x="342.5" y="486.3984"/><line style="stroke:#181818;stroke-width:0.5;stroke-dasharray:5.0,5.0;" x1="88" x2="88" y1="72.8281" y2="1098.4297"/><line style="stroke:#181818;stroke-width:0.5;stroke-dasharray:5.0,5.0;" x1="259.5" x2="259.5" y1="72.8281" y2="1098.4297"/><line style="stroke:#181818;stroke-width:0.5;stroke-dasharray:5.0,5.0;" x1="425.5" x2="425.5" y1="72.8281" y2="1098.4297"/><line style="stroke:#181818;stroke-width:0.5;stroke-dasharray:5.0,5.0;" x1="530" x2="530" y1="72.8281" y2="1098.4297"/><line style="stroke:#181818;stroke-width:0.5;stroke-dasharray:5.0,5.0;" x1="703" x2="703" y1="72.8281" y2="1098.4297"/><line style="stroke:#181818;stroke-width:0.5;stroke-dasharray:5.0,5.0;" x1="878.5" x2="878.5" y1="72.8281" y2="1098.4297"/><line style="stroke:#181818;stroke-width:0.5;stroke-dasharray:5.0,5.0;" x1="969" x2="969" y1="72.8281" y2="1098.4297"/><line style="stroke:#181818;stroke-width:0.5;stroke-dasharray:5.0,5.0;" x1="1068" x2="1068" y1="72.8281" y2="1098.4297"/><line style="stroke:#181818;stroke-width:0.5;stroke-dasharray:5.0,5.0;" x1="1199" x2="1199" y1="72.8281" y2="1098.4297"/><line style="stroke:#181818;stroke-width:0.5;stroke-dasharray:5.0,5.0;" x1="1322" x2="1322" y1="72.8281" y2="1098.4297"/><line style="stroke:#181818;stroke-width:0.5;stroke-dasharray:5.0,5.0;" x1="1441" x2="1441" y1="72.8281" y2="1098.4297"/><line style="stroke:#181818;stroke-width:0.5;stroke-dasharray:5.0,5.0;" x1="1540" x2="1540" y1="72.8281" y2="1098.4297"/><rect fill="#E2E2F0" height="66.8281" rx="2.5" ry="2.5" style="stroke:#181818;stroke-width:0.5;" width="167" x="5" y="5"/><text fill="#000000" font-family="sans-serif" font-size="14" lengthAdjust="spacing" textLength="49" x="64" y="26.5332">Angular</text><text fill="#000000" font-family="sans-serif" font-size="14" lengthAdjust="spacing" textLength="153" x="12" y="44.1426">CreateRoomComponent</text><text fill="#000000" font-family="sans-serif" font-size="14" lengthAdjust="spacing" textLength="46" x="65.5" y="61.752">(Script)</text><rect fill="#E2E2F0" height="66.8281" rx="2.5" ry="2.5" style="stroke:#181818;stroke-width:0.5;" width="167" x="5" y="1097.4297"/><text fill="#000000" font-family="sans-serif" font-size="14" lengthAdjust="spacing" textLength="49" x="64" y="1118.9629">Angular</text><text fill="#000000" font-family="sans-serif" font-size="14" lengthAdjust="spacing" textLength="153" x="12" y="1136.5723">CreateRoomComponent</text><text fill="#000000" font-family="sans-serif" font-size="14" lengthAdjust="spacing" textLength="46" x="65.5" y="1154.1816">(Script)</text><rect fill="#E2E2F0" height="49.2188" rx="2.5" ry="2.5" style="stroke:#181818;stroke-width:0.5;" width="98" x="210.5" y="22.6094"/><text fill="#000000" font-family="sans-serif" font-size="14" lengthAdjust="spacing" textLength="49" x="235" y="44.1426">Angular</text><text fill="#000000" font-family="sans-serif" font-size="14" lengthAdjust="spacing" textLength="84" x="217.5" y="61.752">RoomService</text><rect fill="#E2E2F0" height="49.2188" rx="2.5" ry="2.5" style="stroke:#181818;stroke-width:0.5;" width="98" x="210.5" y="1097.4297"/><text fill="#000000" font-family="sans-serif" font-size="14" lengthAdjust="spacing" textLength="49" x="235" y="1118.9629">Angular</text><text fill="#000000" font-family="sans-serif" font-size="14" lengthAdjust="spacing" textLength="84" x="217.5" y="1136.5723">RoomService</text><rect fill="#E2E2F0" height="31.6094" rx="2.5" ry="2.5" style="stroke:#181818;stroke-width:0.5;" width="146" x="352.5" y="40.2188"/><text fill="#000000" font-family="sans-serif" font-size="14" lengthAdjust="spacing" textLength="132" x="359.5" y="61.752">HttpRequestsService</text><rect fill="#E2E2F0" height="31.6094" rx="2.5" ry="2.5" style="stroke:#181818;stroke-width:0.5;" width="146" x="352.5" y="1097.4297"/><text fill="#000000" font-family="sans-serif" font-size="14" lengthAdjust="spacing" textLength="132" x="359.5" y="1118.9629">HttpRequestsService</text><rect fill="#E2E2F0" height="31.6094" rx="2.5" ry="2.5" style="stroke:#181818;stroke-width:0.5;" width="39" x="511" y="40.2188"/><text fill="#000000" font-family="sans-serif" font-size="14" lengthAdjust="spacing" textLength="25" x="518" y="61.752">:API</text><rect fill="#E2E2F0" height="31.6094" rx="2.5" ry="2.5" style="stroke:#181818;stroke-width:0.5;" width="39" x="511" y="1097.4297"/><text fill="#000000" font-family="sans-serif" font-size="14" lengthAdjust="spacing" textLength="25" x="518" y="1118.9629">:API</text><rect fill="#E2E2F0" height="31.6094" rx="2.5" ry="2.5" style="stroke:#181818;stroke-width:0.5;" width="117" x="645" y="40.2188"/><text fill="#000000" font-family="sans-serif" font-size="14" lengthAdjust="spacing" textLength="103" x="652" y="61.752">:RoomController</text><rect fill="#E2E2F0" height="31.6094" rx="2.5" ry="2.5" style="stroke:#181818;stroke-width:0.5;" width="117" x="645" y="1097.4297"/><text fill="#000000" font-family="sans-serif" font-size="14" lengthAdjust="spacing" textLength="103" x="652" y="1118.9629">:RoomController</text><rect fill="#E2E2F0" height="31.6094" rx="2.5" ry="2.5" style="stroke:#181818;stroke-width:0.5;" width="102" x="827.5" y="40.2188"/><text fill="#000000" font-family="sans-serif" font-size="14" lengthAdjust="spacing" textLength="88" x="834.5" y="61.752">:RoomService</text><rect fill="#E2E2F0" height="31.6094" rx="2.5" ry="2.5" style="stroke:#181818;stroke-width:0.5;" width="102" x="827.5" y="1097.4297"/><text fill="#000000" font-family="sans-serif" font-size="14" lengthAdjust="spacing" textLength="88" x="834.5" y="1118.9629">:RoomService</text><rect fill="#E2E2F0" height="31.6094" rx="2.5" ry="2.5" style="stroke:#181818;stroke-width:0.5;" width="55" x="942" y="40.2188"/><text fill="#000000" font-family="sans-serif" font-size="14" lengthAdjust="spacing" textLength="41" x="949" y="61.752">:Room</text><rect fill="#E2E2F0" height="31.6094" rx="2.5" ry="2.5" style="stroke:#181818;stroke-width:0.5;" width="55" x="942" y="1097.4297"/><text fill="#000000" font-family="sans-serif" font-size="14" lengthAdjust="spacing" textLength="41" x="949" y="1118.9629">:Room</text><rect fill="#E2E2F0" height="31.6094" rx="2.5" ry="2.5" style="stroke:#181818;stroke-width:0.5;" width="123" x="1007" y="40.2188"/><text fill="#000000" font-family="sans-serif" font-size="14" lengthAdjust="spacing" textLength="109" x="1014" y="61.752">:RoomRepository</text><rect fill="#E2E2F0" height="31.6094" rx="2.5" ry="2.5" style="stroke:#181818;stroke-width:0.5;" width="123" x="1007" y="1097.4297"/><text fill="#000000" font-family="sans-serif" font-size="14" lengthAdjust="spacing" textLength="109" x="1014" y="1118.9629">:RoomRepository</text><rect fill="#E2E2F0" height="31.6094" rx="2.5" ry="2.5" style="stroke:#181818;stroke-width:0.5;" width="119" x="1140" y="40.2188"/><text fill="#000000" font-family="sans-serif" font-size="14" lengthAdjust="spacing" textLength="105" x="1147" y="61.752">:FloorRepository</text><rect fill="#E2E2F0" height="31.6094" rx="2.5" ry="2.5" style="stroke:#181818;stroke-width:0.5;" width="119" x="1140" y="1097.4297"/><text fill="#000000" font-family="sans-serif" font-size="14" lengthAdjust="spacing" textLength="105" x="1147" y="1118.9629">:FloorRepository</text><rect fill="#E2E2F0" height="31.6094" rx="2.5" ry="2.5" style="stroke:#181818;stroke-width:0.5;" width="107" x="1269" y="40.2188"/><text fill="#000000" font-family="sans-serif" font-size="14" lengthAdjust="spacing" textLength="93" x="1276" y="61.752">:Room Mapper</text><rect fill="#E2E2F0" height="31.6094" rx="2.5" ry="2.5" style="stroke:#181818;stroke-width:0.5;" width="107" x="1269" y="1097.4297"/><text fill="#000000" font-family="sans-serif" font-size="14" lengthAdjust="spacing" textLength="93" x="1276" y="1118.9629">:Room Mapper</text><rect fill="#E2E2F0" height="31.6094" rx="2.5" ry="2.5" style="stroke:#181818;stroke-width:0.5;" width="110" x="1386" y="40.2188"/><text fill="#000000" font-family="sans-serif" font-size="14" lengthAdjust="spacing" textLength="96" x="1393" y="61.752">:Room Schema</text><rect fill="#E2E2F0" height="31.6094" rx="2.5" ry="2.5" style="stroke:#181818;stroke-width:0.5;" width="110" x="1386" y="1097.4297"/><text fill="#000000" font-family="sans-serif" font-size="14" lengthAdjust="spacing" textLength="96" x="1393" y="1118.9629">:Room Schema</text><text fill="#000000" font-family="sans-serif" font-size="14" lengthAdjust="spacing" textLength="62" x="1506" y="69.752">MongoDB</text><path d="M1522,19.2188 C1522,9.2188 1540,9.2188 1540,9.2188 C1540,9.2188 1558,9.2188 1558,19.2188 L1558,45.2188 C1558,55.2188 1540,55.2188 1540,55.2188 C1540,55.2188 1522,55.2188 1522,45.2188 L1522,19.2188 " fill="#E2E2F0" style="stroke:#181818;stroke-width:1.5;"/><path d="M1522,19.2188 C1522,29.2188 1540,29.2188 1540,29.2188 C1540,29.2188 1558,29.2188 1558,19.2188 " fill="none" style="stroke:#181818;stroke-width:1.5;"/><text fill="#000000" font-family="sans-serif" font-size="14" lengthAdjust="spacing" textLength="62" x="1506" y="1111.9629">MongoDB</text><path d="M1522,1125.0391 C1522,1115.0391 1540,1115.0391 1540,1115.0391 C1540,1115.0391 1558,1115.0391 1558,1125.0391 L1558,1151.0391 C1558,1161.0391 1540,1161.0391 1540,1161.0391 C1540,1161.0391 1522,1161.0391 1522,1151.0391 L1522,1125.0391 " fill="#E2E2F0" style="stroke:#181818;stroke-width:1.5;"/><path d="M1522,1125.0391 C1522,1135.0391 1540,1135.0391 1540,1135.0391 C1540,1135.0391 1558,1135.0391 1558,1125.0391 " fill="none" style="stroke:#181818;stroke-width:1.5;"/><rect fill="#FFFFFF" height="975.25" style="stroke:#181818;stroke-width:1.0;" width="10" x="254.5" y="105.1797"/><rect fill="#FFFFFF" height="914.5469" style="stroke:#181818;stroke-width:1.0;" width="10" x="420.5" y="135.5313"/><rect fill="#FFFFFF" height="853.8438" style="stroke:#181818;stroke-width:1.0;" width="10" x="525.5" y="165.8828"/><rect fill="#FFFFFF" height="793.1406" style="stroke:#181818;stroke-width:1.0;" width="10" x="698.5" y="196.2344"/><rect fill="#FFFFFF" height="732.4375" style="stroke:#181818;stroke-width:1.0;" width="10" x="873.5" y="226.5859"/><rect fill="#FFFFFF" height="184.1094" style="stroke:#181818;stroke-width:1.0;" width="10" x="964.5" y="471.3984"/><rect fill="#FFFFFF" height="242.8125" style="stroke:#181818;stroke-width:1.0;" width="10" x="1063.5" y="685.8594"/><rect fill="#FFFFFF" height="184.1094" style="stroke:#181818;stroke-width:1.0;" width="10" x="1194.5" y="256.9375"/><rect fill="#FFFFFF" height="30.3516" style="stroke:#181818;stroke-width:1.0;" width="10" x="1317.5" y="716.2109"/><rect fill="#FFFFFF" height="30.3516" style="stroke:#181818;stroke-width:1.0;" width="10" x="1317.5" y="867.9688"/><rect fill="#FFFFFF" height="60.7031" style="stroke:#181818;stroke-width:1.0;" width="10" x="1436" y="776.9141"/><polygon fill="#181818" points="242.5,101.1797,252.5,105.1797,242.5,109.1797,246.5,105.1797" style="stroke:#181818;stroke-width:1.0;"/><line style="stroke:#181818;stroke-width:1.0;" x1="88.5" x2="248.5" y1="105.1797" y2="105.1797"/><text fill="#000000" font-family="sans-serif" font-size="13" font-weight="bold" lengthAdjust="spacing" textLength="7" x="95.5" y="100.3232">1</text><text fill="#000000" font-family="sans-serif" font-size="13" lengthAdjust="spacing" textLength="136" x="106.5" y="100.3232">createRoom(formValue)</text><polygon fill="#181818" points="408.5,131.5313,418.5,135.5313,408.5,139.5313,412.5,135.5313" style="stroke:#181818;stroke-width:1.0;"/><line style="stroke:#181818;stroke-width:1.0;" x1="264.5" x2="414.5" y1="135.5313" y2="135.5313"/><text fill="#000000" font-family="sans-serif" font-size="13" font-weight="bold" lengthAdjust="spacing" textLength="7" x="271.5" y="130.6748">2</text><text fill="#000000" font-family="sans-serif" font-size="13" lengthAdjust="spacing" textLength="75" x="282.5" y="130.6748">post&lt;Room&gt;</text><polygon fill="#181818" points="513.5,161.8828,523.5,165.8828,513.5,169.8828,517.5,165.8828" style="stroke:#181818;stroke-width:1.0;"/><line style="stroke:#181818;stroke-width:1.0;" x1="430.5" x2="519.5" y1="165.8828" y2="165.8828"/><text fill="#000000" font-family="sans-serif" font-size="13" font-weight="bold" lengthAdjust="spacing" textLength="7" x="437.5" y="161.0264">3</text><text fill="#000000" font-family="sans-serif" font-size="13" lengthAdjust="spacing" textLength="35" x="448.5" y="161.0264">POST</text><polygon fill="#181818" points="686.5,192.2344,696.5,196.2344,686.5,200.2344,690.5,196.2344" style="stroke:#181818;stroke-width:1.0;"/><line style="stroke:#181818;stroke-width:1.0;" x1="535.5" x2="692.5" y1="196.2344" y2="196.2344"/><text fill="#000000" font-family="sans-serif" font-size="13" font-weight="bold" lengthAdjust="spacing" textLength="7" x="542.5" y="191.3779">4</text><text fill="#000000" font-family="sans-serif" font-size="13" lengthAdjust="spacing" textLength="133" x="553.5" y="191.3779">createRoom(roomDTO)</text><polygon fill="#181818" points="861.5,222.5859,871.5,226.5859,861.5,230.5859,865.5,226.5859" style="stroke:#181818;stroke-width:1.0;"/><line style="stroke:#181818;stroke-width:1.0;" x1="708.5" x2="867.5" y1="226.5859" y2="226.5859"/><text fill="#000000" font-family="sans-serif" font-size="13" font-weight="bold" lengthAdjust="spacing" textLength="7" x="715.5" y="221.7295">5</text><text fill="#000000" font-family="sans-serif" font-size="13" lengthAdjust="spacing" textLength="135" x="726.5" y="221.7295">CreateRoom(roomDTO)</text><polygon fill="#181818" points="1182.5,252.9375,1192.5,256.9375,1182.5,260.9375,1186.5,256.9375" style="stroke:#181818;stroke-width:1.0;"/><line style="stroke:#181818;stroke-width:1.0;" x1="883.5" x2="1188.5" y1="256.9375" y2="256.9375"/><text fill="#000000" font-family="sans-serif" font-size="13" font-weight="bold" lengthAdjust="spacing" textLength="7" x="890.5" y="252.0811">6</text><text fill="#000000" font-family="sans-serif" font-size="13" lengthAdjust="spacing" textLength="181" x="901.5" y="252.0811">findByDomainId(roomDTO.floor)</text><path d="M342.5,271.9375 L403.5,271.9375 L403.5,280.2891 L393.5,290.2891 L342.5,290.2891 L342.5,271.9375 " fill="#EEEEEE" style="stroke:#000000;stroke-width:1.5;"/><rect fill="none" height="139.7578" style="stroke:#000000;stroke-width:1.5;" width="926.5" x="342.5" y="271.9375"/><text fill="#000000" font-family="sans-serif" font-size="13" font-weight="bold" lengthAdjust="spacing" textLength="16" x="357.5" y="286.4326">alt</text><text fill="#000000" font-family="sans-serif" font-size="11" font-weight="bold" lengthAdjust="spacing" textLength="102" x="418.5" y="285.3564">["Floor not found"]</text><polygon fill="#181818" points="894.5,308.6406,884.5,312.6406,894.5,316.6406,890.5,312.6406" style="stroke:#181818;stroke-width:1.0;"/><line style="stroke:#181818;stroke-width:1.0;" x1="888.5" x2="1193.5" y1="312.6406" y2="312.6406"/><text fill="#000000" font-family="sans-serif" font-size="13" font-weight="bold" lengthAdjust="spacing" textLength="7" x="900.5" y="307.7842">7</text><text fill="#000000" font-family="sans-serif" font-size="13" lengthAdjust="spacing" textLength="20" x="911.5" y="307.7842">null</text><polygon fill="#181818" points="719.5,338.9922,709.5,342.9922,719.5,346.9922,715.5,342.9922" style="stroke:#181818;stroke-width:1.0;"/><line style="stroke:#181818;stroke-width:1.0;" x1="713.5" x2="872.5" y1="342.9922" y2="342.9922"/><text fill="#000000" font-family="sans-serif" font-size="13" font-weight="bold" lengthAdjust="spacing" textLength="7" x="725.5" y="338.1357">8</text><text fill="#000000" font-family="sans-serif" font-size="13" lengthAdjust="spacing" textLength="16" x="736.5" y="338.1357">fail</text><polygon fill="#181818" points="546.5,369.3438,536.5,373.3438,546.5,377.3438,542.5,373.3438" style="stroke:#181818;stroke-width:1.0;"/><line style="stroke:#181818;stroke-width:1.0;" x1="540.5" x2="697.5" y1="373.3438" y2="373.3438"/><text fill="#000000" font-family="sans-serif" font-size="13" font-weight="bold" lengthAdjust="spacing" textLength="7" x="552.5" y="368.4873">9</text><text fill="#000000" font-family="sans-serif" font-size="13" lengthAdjust="spacing" textLength="83" x="563.5" y="368.4873">error response</text><polygon fill="#181818" points="441.5,399.6953,431.5,403.6953,441.5,407.6953,437.5,403.6953" style="stroke:#181818;stroke-width:1.0;"/><line style="stroke:#181818;stroke-width:1.0;" x1="435.5" x2="524.5" y1="403.6953" y2="403.6953"/><text fill="#000000" font-family="sans-serif" font-size="13" font-weight="bold" lengthAdjust="spacing" textLength="14" x="447.5" y="398.8389">10</text><text fill="#000000" font-family="sans-serif" font-size="13" lengthAdjust="spacing" textLength="26" x="465.5" y="398.8389">error</text><polygon fill="#181818" points="894.5,437.0469,884.5,441.0469,894.5,445.0469,890.5,441.0469" style="stroke:#181818;stroke-width:1.0;"/><line style="stroke:#181818;stroke-width:1.0;" x1="888.5" x2="1198.5" y1="441.0469" y2="441.0469"/><text fill="#000000" font-family="sans-serif" font-size="13" font-weight="bold" lengthAdjust="spacing" textLength="14" x="900.5" y="436.1904">11</text><text fill="#000000" font-family="sans-serif" font-size="13" lengthAdjust="spacing" textLength="24" x="918.5" y="436.1904">floor</text><polygon fill="#181818" points="952.5,467.3984,962.5,471.3984,952.5,475.3984,956.5,471.3984" style="stroke:#181818;stroke-width:1.0;"/><line style="stroke:#181818;stroke-width:1.0;" x1="883.5" x2="958.5" y1="471.3984" y2="471.3984"/><text fill="#000000" font-family="sans-serif" font-size="13" font-weight="bold" lengthAdjust="spacing" textLength="14" x="890.5" y="466.542">12</text><text fill="#000000" font-family="sans-serif" font-size="13" lengthAdjust="spacing" textLength="44" x="908.5" y="466.542">create()</text><path d="M342.5,486.3984 L403.5,486.3984 L403.5,494.75 L393.5,504.75 L342.5,504.75 L342.5,486.3984 " fill="#EEEEEE" style="stroke:#000000;stroke-width:1.5;"/><rect fill="none" height="139.7578" style="stroke:#000000;stroke-width:1.5;" width="664.5" x="342.5" y="486.3984"/><text fill="#000000" font-family="sans-serif" font-size="13" font-weight="bold" lengthAdjust="spacing" textLength="16" x="357.5" y="500.8936">alt</text><text fill="#000000" font-family="sans-serif" font-size="11" font-weight="bold" lengthAdjust="spacing" textLength="129" x="418.5" y="499.8174">["Error creating Room"]</text><polygon fill="#181818" points="894.5,523.1016,884.5,527.1016,894.5,531.1016,890.5,527.1016" style="stroke:#181818;stroke-width:1.0;"/><line style="stroke:#181818;stroke-width:1.0;stroke-dasharray:2.0,2.0;" x1="888.5" x2="963.5" y1="527.1016" y2="527.1016"/><text fill="#000000" font-family="sans-serif" font-size="13" font-weight="bold" lengthAdjust="spacing" textLength="14" x="900.5" y="522.2451">13</text><text fill="#000000" font-family="sans-serif" font-size="13" lengthAdjust="spacing" textLength="16" x="918.5" y="522.2451">fail</text><polygon fill="#181818" points="719.5,553.4531,709.5,557.4531,719.5,561.4531,715.5,557.4531" style="stroke:#181818;stroke-width:1.0;"/><line style="stroke:#181818;stroke-width:1.0;stroke-dasharray:2.0,2.0;" x1="713.5" x2="872.5" y1="557.4531" y2="557.4531"/><text fill="#000000" font-family="sans-serif" font-size="13" font-weight="bold" lengthAdjust="spacing" textLength="14" x="725.5" y="552.5967">14</text><text fill="#000000" font-family="sans-serif" font-size="13" lengthAdjust="spacing" textLength="16" x="743.5" y="552.5967">fail</text><polygon fill="#181818" points="546.5,583.8047,536.5,587.8047,546.5,591.8047,542.5,587.8047" style="stroke:#181818;stroke-width:1.0;"/><line style="stroke:#181818;stroke-width:1.0;stroke-dasharray:2.0,2.0;" x1="540.5" x2="697.5" y1="587.8047" y2="587.8047"/><text fill="#000000" font-family="sans-serif" font-size="13" font-weight="bold" lengthAdjust="spacing" textLength="14" x="552.5" y="582.9482">15</text><text fill="#000000" font-family="sans-serif" font-size="13" lengthAdjust="spacing" textLength="76" x="570.5" y="582.9482">error reponse</text><polygon fill="#181818" points="441.5,614.1563,431.5,618.1563,441.5,622.1563,437.5,618.1563" style="stroke:#181818;stroke-width:1.0;"/><line style="stroke:#181818;stroke-width:1.0;stroke-dasharray:2.0,2.0;" x1="435.5" x2="524.5" y1="618.1563" y2="618.1563"/><text fill="#000000" font-family="sans-serif" font-size="13" font-weight="bold" lengthAdjust="spacing" textLength="14" x="447.5" y="613.2998">16</text><text fill="#000000" font-family="sans-serif" font-size="13" lengthAdjust="spacing" textLength="26" x="465.5" y="613.2998">error</text><polygon fill="#181818" points="894.5,651.5078,884.5,655.5078,894.5,659.5078,890.5,655.5078" style="stroke:#181818;stroke-width:1.0;"/><line style="stroke:#181818;stroke-width:1.0;stroke-dasharray:2.0,2.0;" x1="888.5" x2="968.5" y1="655.5078" y2="655.5078"/><text fill="#000000" font-family="sans-serif" font-size="13" font-weight="bold" lengthAdjust="spacing" textLength="14" x="900.5" y="650.6514">17</text><text fill="#000000" font-family="sans-serif" font-size="13" lengthAdjust="spacing" textLength="29" x="918.5" y="650.6514">room</text><polygon fill="#181818" points="1051.5,681.8594,1061.5,685.8594,1051.5,689.8594,1055.5,685.8594" style="stroke:#181818;stroke-width:1.0;"/><line style="stroke:#181818;stroke-width:1.0;" x1="883.5" x2="1057.5" y1="685.8594" y2="685.8594"/><text fill="#000000" font-family="sans-serif" font-size="13" font-weight="bold" lengthAdjust="spacing" textLength="14" x="890.5" y="681.0029">18</text><text fill="#000000" font-family="sans-serif" font-size="13" lengthAdjust="spacing" textLength="63" x="908.5" y="681.0029">save(room)</text><polygon fill="#181818" points="1305.5,712.2109,1315.5,716.2109,1305.5,720.2109,1309.5,716.2109" style="stroke:#181818;stroke-width:1.0;"/><line style="stroke:#181818;stroke-width:1.0;" x1="1073.5" x2="1311.5" y1="716.2109" y2="716.2109"/><text fill="#000000" font-family="sans-serif" font-size="13" font-weight="bold" lengthAdjust="spacing" textLength="14" x="1080.5" y="711.3545">19</text><text fill="#000000" font-family="sans-serif" font-size="13" lengthAdjust="spacing" textLength="88" x="1098.5" y="711.3545">toPersistence()</text><polygon fill="#181818" points="1084.5,742.5625,1074.5,746.5625,1084.5,750.5625,1080.5,746.5625" style="stroke:#181818;stroke-width:1.0;"/><line style="stroke:#181818;stroke-width:1.0;" x1="1078.5" x2="1321.5" y1="746.5625" y2="746.5625"/><text fill="#000000" font-family="sans-serif" font-size="13" font-weight="bold" lengthAdjust="spacing" textLength="14" x="1090.5" y="741.7061">20</text><text fill="#000000" font-family="sans-serif" font-size="13" lengthAdjust="spacing" textLength="54" x="1108.5" y="741.7061">rawRoom</text><polygon fill="#181818" points="1424,772.9141,1434,776.9141,1424,780.9141,1428,776.9141" style="stroke:#181818;stroke-width:1.0;"/><line style="stroke:#181818;stroke-width:1.0;" x1="1073.5" x2="1430" y1="776.9141" y2="776.9141"/><text fill="#000000" font-family="sans-serif" font-size="13" font-weight="bold" lengthAdjust="spacing" textLength="14" x="1080.5" y="772.0576">21</text><text fill="#000000" font-family="sans-serif" font-size="13" lengthAdjust="spacing" textLength="98" x="1098.5" y="772.0576">create(rawRoom)</text><polygon fill="#181818" points="1528,803.2656,1538,807.2656,1528,811.2656,1532,807.2656" style="stroke:#181818;stroke-width:1.0;"/><line style="stroke:#181818;stroke-width:1.0;" x1="1446" x2="1534" y1="807.2656" y2="807.2656"/><text fill="#000000" font-family="sans-serif" font-size="13" font-weight="bold" lengthAdjust="spacing" textLength="14" x="1453" y="802.4092">22</text><text fill="#000000" font-family="sans-serif" font-size="13" lengthAdjust="spacing" textLength="39" x="1471" y="802.4092">persist</text><polygon fill="#181818" points="1084.5,833.6172,1074.5,837.6172,1084.5,841.6172,1080.5,837.6172" style="stroke:#181818;stroke-width:1.0;"/><line style="stroke:#181818;stroke-width:1.0;" x1="1078.5" x2="1440" y1="837.6172" y2="837.6172"/><text fill="#000000" font-family="sans-serif" font-size="13" font-weight="bold" lengthAdjust="spacing" textLength="14" x="1090.5" y="832.7607">23</text><text fill="#000000" font-family="sans-serif" font-size="13" lengthAdjust="spacing" textLength="74" x="1108.5" y="832.7607">roomCreated</text><polygon fill="#181818" points="1305.5,863.9688,1315.5,867.9688,1305.5,871.9688,1309.5,867.9688" style="stroke:#181818;stroke-width:1.0;"/><line style="stroke:#181818;stroke-width:1.0;" x1="1073.5" x2="1311.5" y1="867.9688" y2="867.9688"/><text fill="#000000" font-family="sans-serif" font-size="13" font-weight="bold" lengthAdjust="spacing" textLength="14" x="1080.5" y="863.1123">24</text><text fill="#000000" font-family="sans-serif" font-size="13" lengthAdjust="spacing" textLength="55" x="1098.5" y="863.1123">toDomain</text><polygon fill="#181818" points="1084.5,894.3203,1074.5,898.3203,1084.5,902.3203,1080.5,898.3203" style="stroke:#181818;stroke-width:1.0;"/><line style="stroke:#181818;stroke-width:1.0;" x1="1078.5" x2="1321.5" y1="898.3203" y2="898.3203"/><text fill="#000000" font-family="sans-serif" font-size="13" font-weight="bold" lengthAdjust="spacing" textLength="14" x="1090.5" y="893.4639">25</text><text fill="#000000" font-family="sans-serif" font-size="13" lengthAdjust="spacing" textLength="34" x="1108.5" y="893.4639">Room</text><polygon fill="#181818" points="894.5,924.6719,884.5,928.6719,894.5,932.6719,890.5,928.6719" style="stroke:#181818;stroke-width:1.0;"/><line style="stroke:#181818;stroke-width:1.0;" x1="888.5" x2="1067.5" y1="928.6719" y2="928.6719"/><text fill="#000000" font-family="sans-serif" font-size="13" font-weight="bold" lengthAdjust="spacing" textLength="14" x="900.5" y="923.8154">26</text><text fill="#000000" font-family="sans-serif" font-size="13" lengthAdjust="spacing" textLength="98" x="918.5" y="923.8154">Promise&lt;Room&gt;</text><polygon fill="#181818" points="719.5,955.0234,709.5,959.0234,719.5,963.0234,715.5,959.0234" style="stroke:#181818;stroke-width:1.0;"/><line style="stroke:#181818;stroke-width:1.0;" x1="713.5" x2="877.5" y1="959.0234" y2="959.0234"/><text fill="#000000" font-family="sans-serif" font-size="13" font-weight="bold" lengthAdjust="spacing" textLength="14" x="725.5" y="954.167">27</text><text fill="#000000" font-family="sans-serif" font-size="13" lengthAdjust="spacing" textLength="14" x="743.5" y="954.167">ok</text><polygon fill="#181818" points="546.5,985.375,536.5,989.375,546.5,993.375,542.5,989.375" style="stroke:#181818;stroke-width:1.0;"/><line style="stroke:#181818;stroke-width:1.0;stroke-dasharray:2.0,2.0;" x1="540.5" x2="702.5" y1="989.375" y2="989.375"/><text fill="#000000" font-family="sans-serif" font-size="13" font-weight="bold" lengthAdjust="spacing" textLength="14" x="552.5" y="984.5186">28</text><text fill="#000000" font-family="sans-serif" font-size="13" lengthAdjust="spacing" textLength="106" x="570.5" y="984.5186">success response</text><polygon fill="#181818" points="441.5,1015.7266,431.5,1019.7266,441.5,1023.7266,437.5,1019.7266" style="stroke:#181818;stroke-width:1.0;"/><line style="stroke:#181818;stroke-width:1.0;" x1="435.5" x2="529.5" y1="1019.7266" y2="1019.7266"/><text fill="#000000" font-family="sans-serif" font-size="13" font-weight="bold" lengthAdjust="spacing" textLength="14" x="447.5" y="1014.8701">29</text><text fill="#000000" font-family="sans-serif" font-size="13" lengthAdjust="spacing" textLength="53" x="465.5" y="1014.8701">response</text><polygon fill="#181818" points="275.5,1046.0781,265.5,1050.0781,275.5,1054.0781,271.5,1050.0781" style="stroke:#181818;stroke-width:1.0;"/><line style="stroke:#181818;stroke-width:1.0;" x1="269.5" x2="424.5" y1="1050.0781" y2="1050.0781"/><text fill="#000000" font-family="sans-serif" font-size="13" font-weight="bold" lengthAdjust="spacing" textLength="14" x="281.5" y="1045.2217">30</text><text fill="#000000" font-family="sans-serif" font-size="13" lengthAdjust="spacing" textLength="114" x="299.5" y="1045.2217">Observable&lt;Room&gt;</text><polygon fill="#181818" points="99.5,1076.4297,89.5,1080.4297,99.5,1084.4297,95.5,1080.4297" style="stroke:#181818;stroke-width:1.0;"/><line style="stroke:#181818;stroke-width:1.0;" x1="93.5" x2="258.5" y1="1080.4297" y2="1080.4297"/><text fill="#000000" font-family="sans-serif" font-size="13" font-weight="bold" lengthAdjust="spacing" textLength="14" x="105.5" y="1075.5732">31</text><text fill="#000000" font-family="sans-serif" font-size="13" lengthAdjust="spacing" textLength="114" x="123.5" y="1075.5732">Observable&lt;Room&gt;</text><!--MD5=[f2bea306145afeeaed867de4b689b55b]
@startuml
autonumber

participant "Angular\nCreateRoomComponent\n(Script)" as SCRIPT
participant "Angular\nRoomService" as FE_SERV
participant "HttpRequestsService" as HTTP

participant ":API" as API
participant ":RoomController" as CTRL
participant ":RoomService" as SERV
participant ":Room" as ROOM
participant ":RoomRepository" as REPO
participant ":FloorRepository" as FREPO
participant ":Room Mapper" as MAPPER
participant ":Room Schema" as SCHEMA

database "MongoDB" as DB


SCRIPT -> FE_SERV : createRoom(formValue)
activate FE_SERV
    FE_SERV -> HTTP : post<Room>
    activate HTTP
        HTTP -> API : POST
                activate API
                    API -> CTRL : createRoom(roomDTO)
                    activate CTRL
                        CTRL -> SERV : CreateRoom(roomDTO)
                            activate SERV
                                SERV -> FREPO : findByDomainId(roomDTO.floor)
                                activate FREPO
                                    alt "Floor not found"
                                        FREPO -> SERV : null
                                        SERV -> CTRL : fail
                                        CTRL -> API : error response
                                        API -> HTTP : error
                                    end
                                    FREPO -> SERV : floor
                                deactivate FREPO
                                SERV -> ROOM : create()
                                    activate ROOM
                                        alt "Error creating Room"
                                            ROOM - -> SERV : fail
                                            SERV - -> CTRL : fail
                                            CTRL - -> API : error reponse
                                            API - -> HTTP : error
                                        end
                                        ROOM - -> SERV : room
                                    deactivate ROOM
                                SERV -> REPO : save(room)
                                activate REPO
                                    REPO -> MAPPER : toPersistence()
                                    activate MAPPER
                                    MAPPER -> REPO : rawRoom
                                    deactivate MAPPER
                                    REPO -> SCHEMA : create(rawRoom)
                                    activate SCHEMA
                                        SCHEMA -> DB : persist
                                        SCHEMA -> REPO : roomCreated
                                    deactivate SCHEMA
                                    REPO -> MAPPER : toDomain
                                    activate MAPPER
                                        MAPPER -> REPO : Room
                                    deactivate MAPPER
                                    REPO -> SERV : Promise<Room>

                                deactivate REPO
                                SERV -> CTRL : ok
                            deactivate SERV
                            CTRL - -> API : success response
                    deactivate CTRL
                        
                            API -> HTTP : response
                deactivate API
                HTTP -> FE_SERV : Observable<Room>
    deactivate HTTP
    FE_SERV -> SCRIPT : Observable<Room>
deactivate FE_SERV




@enduml

PlantUML version 1.2022.7(Mon Aug 22 18:01:30 WEST 2022)
(GPL source distribution)
Java Runtime: Java(TM) SE Runtime Environment
JVM: Java HotSpot(TM) 64-Bit Server VM
Default Encoding: UTF-8
Language: pt
Country: PT
--></g></svg>