<?xml version="1.0" encoding="UTF-8" standalone="no"?><svg xmlns="http://www.w3.org/2000/svg" xmlns:xlink="http://www.w3.org/1999/xlink" contentStyleType="text/css" height="1066px" preserveAspectRatio="none" style="width:2330px;height:1066px;background:#FFFFFF;" version="1.1" viewBox="0 0 2330 1066" width="2330px" zoomAndPan="magnify"><defs/><g><rect fill="#FFFFFF" height="964.5469" style="stroke:#181818;stroke-width:1.0;" width="10" x="47" y="47.6094"/><rect fill="#FFFFFF" height="942.1953" style="stroke:#181818;stroke-width:1.0;" width="10" x="394" y="69.9609"/><rect fill="#FFFFFF" height="881.4922" style="stroke:#181818;stroke-width:1.0;" width="10" x="702" y="100.3125"/><rect fill="#FFFFFF" height="820.7891" style="stroke:#181818;stroke-width:1.0;" width="10" x="1049" y="130.6641"/><rect fill="#FFFFFF" height="760.0859" style="stroke:#181818;stroke-width:1.0;" width="10" x="1357" y="161.0156"/><rect fill="#FFFFFF" height="699.3828" style="stroke:#181818;stroke-width:1.0;" width="10" x="1521" y="191.3672"/><rect fill="#FFFFFF" height="151.4063" style="stroke:#181818;stroke-width:1.0;" width="10" x="1676.5" y="221.7188"/><rect fill="#FFFFFF" height="181.7578" style="stroke:#181818;stroke-width:1.0;" width="10" x="1676.5" y="617.9375"/><rect fill="#FFFFFF" height="184.1094" style="stroke:#181818;stroke-width:1.0;" width="10" x="1845" y="403.4766"/><rect fill="#FFFFFF" height="30.3516" style="stroke:#181818;stroke-width:1.0;" width="10" x="1990.5" y="830.0469"/><rect fill="#FFFFFF" height="30" style="stroke:#181818;stroke-width:1.0;" width="10" x="2125" y="252.0703"/><rect fill="#FFFFFF" height="30" style="stroke:#181818;stroke-width:1.0;" width="10" x="2125" y="708.9922"/><rect fill="#FFFFFF" height="30.3516" style="stroke:#181818;stroke-width:1.0;" width="10" x="2262" y="312.4219"/><rect fill="#FFFFFF" height="30.3516" style="stroke:#181818;stroke-width:1.0;" width="10" x="2262" y="648.2891"/><rect fill="#FFFFFF" height="30.3516" style="stroke:#181818;stroke-width:1.0;" width="10" x="2262" y="769.3438"/><rect fill="none" height="139.7578" style="stroke:#000000;stroke-width:1.5;" width="1930.5" x="10" y="418.4766"/><line style="stroke:#181818;stroke-width:0.5;stroke-dasharray:5.0,5.0;" x1="52" x2="52" y1="37.6094" y2="1030.1563"/><line style="stroke:#181818;stroke-width:0.5;stroke-dasharray:5.0,5.0;" x1="399" x2="399" y1="37.6094" y2="1030.1563"/><line style="stroke:#181818;stroke-width:0.5;stroke-dasharray:5.0,5.0;" x1="707" x2="707" y1="37.6094" y2="1030.1563"/><line style="stroke:#181818;stroke-width:0.5;stroke-dasharray:5.0,5.0;" x1="1054" x2="1054" y1="37.6094" y2="1030.1563"/><line style="stroke:#181818;stroke-width:0.5;stroke-dasharray:5.0,5.0;" x1="1362" x2="1362" y1="37.6094" y2="1030.1563"/><line style="stroke:#181818;stroke-width:0.5;stroke-dasharray:5.0,5.0;" x1="1525.5" x2="1525.5" y1="37.6094" y2="1030.1563"/><line style="stroke:#181818;stroke-width:0.5;stroke-dasharray:5.0,5.0;" x1="1681.5" x2="1681.5" y1="37.6094" y2="1030.1563"/><line style="stroke:#181818;stroke-width:0.5;stroke-dasharray:5.0,5.0;" x1="1849.5" x2="1849.5" y1="37.6094" y2="1030.1563"/><line style="stroke:#181818;stroke-width:0.5;stroke-dasharray:5.0,5.0;" x1="1995.5" x2="1995.5" y1="37.6094" y2="1030.1563"/><line style="stroke:#181818;stroke-width:0.5;stroke-dasharray:5.0,5.0;" x1="2129.5" x2="2129.5" y1="37.6094" y2="1030.1563"/><line style="stroke:#181818;stroke-width:0.5;stroke-dasharray:5.0,5.0;" x1="2266.5" x2="2266.5" y1="37.6094" y2="1030.1563"/><rect fill="#E2E2F0" height="31.6094" rx="2.5" ry="2.5" style="stroke:#181818;stroke-width:0.5;" width="64" x="20" y="5"/><text fill="#000000" font-family="sans-serif" font-size="14" lengthAdjust="spacing" textLength="50" x="27" y="26.5332">:System</text><rect fill="#E2E2F0" height="31.6094" rx="2.5" ry="2.5" style="stroke:#181818;stroke-width:0.5;" width="64" x="20" y="1029.1563"/><text fill="#000000" font-family="sans-serif" font-size="14" lengthAdjust="spacing" textLength="50" x="27" y="1050.6895">:System</text><rect fill="#E2E2F0" height="31.6094" rx="2.5" ry="2.5" style="stroke:#181818;stroke-width:0.5;" width="224" x="287" y="5"/><text fill="#000000" font-family="sans-serif" font-size="14" lengthAdjust="spacing" textLength="210" x="294" y="26.5332">:RobotTypeComponent (Angular)</text><rect fill="#E2E2F0" height="31.6094" rx="2.5" ry="2.5" style="stroke:#181818;stroke-width:0.5;" width="224" x="287" y="1029.1563"/><text fill="#000000" font-family="sans-serif" font-size="14" lengthAdjust="spacing" textLength="210" x="294" y="1050.6895">:RobotTypeComponent (Angular)</text><rect fill="#E2E2F0" height="31.6094" rx="2.5" ry="2.5" style="stroke:#181818;stroke-width:0.5;" width="198" x="608" y="5"/><text fill="#000000" font-family="sans-serif" font-size="14" lengthAdjust="spacing" textLength="184" x="615" y="26.5332">:RobotTypeService (Angular)</text><rect fill="#E2E2F0" height="31.6094" rx="2.5" ry="2.5" style="stroke:#181818;stroke-width:0.5;" width="198" x="608" y="1029.1563"/><text fill="#000000" font-family="sans-serif" font-size="14" lengthAdjust="spacing" textLength="184" x="615" y="1050.6895">:RobotTypeService (Angular)</text><rect fill="#E2E2F0" height="31.6094" rx="2.5" ry="2.5" style="stroke:#181818;stroke-width:0.5;" width="126" x="991" y="5"/><text fill="#000000" font-family="sans-serif" font-size="14" lengthAdjust="spacing" textLength="112" x="998" y="26.5332">:RobotTypeRoute</text><rect fill="#E2E2F0" height="31.6094" rx="2.5" ry="2.5" style="stroke:#181818;stroke-width:0.5;" width="126" x="991" y="1029.1563"/><text fill="#000000" font-family="sans-serif" font-size="14" lengthAdjust="spacing" textLength="112" x="998" y="1050.6895">:RobotTypeRoute</text><rect fill="#E2E2F0" height="31.6094" rx="2.5" ry="2.5" style="stroke:#181818;stroke-width:0.5;" width="150" x="1287" y="5"/><text fill="#000000" font-family="sans-serif" font-size="14" lengthAdjust="spacing" textLength="136" x="1294" y="26.5332">:RobotTypeController</text><rect fill="#E2E2F0" height="31.6094" rx="2.5" ry="2.5" style="stroke:#181818;stroke-width:0.5;" width="150" x="1287" y="1029.1563"/><text fill="#000000" font-family="sans-serif" font-size="14" lengthAdjust="spacing" textLength="136" x="1294" y="1050.6895">:RobotTypeController</text><rect fill="#E2E2F0" height="31.6094" rx="2.5" ry="2.5" style="stroke:#181818;stroke-width:0.5;" width="135" x="1458.5" y="5"/><text fill="#000000" font-family="sans-serif" font-size="14" lengthAdjust="spacing" textLength="121" x="1465.5" y="26.5332">:RobotTypeService</text><rect fill="#E2E2F0" height="31.6094" rx="2.5" ry="2.5" style="stroke:#181818;stroke-width:0.5;" width="135" x="1458.5" y="1029.1563"/><text fill="#000000" font-family="sans-serif" font-size="14" lengthAdjust="spacing" textLength="121" x="1465.5" y="1050.6895">:RobotTypeService</text><rect fill="#E2E2F0" height="31.6094" rx="2.5" ry="2.5" style="stroke:#181818;stroke-width:0.5;" width="156" x="1603.5" y="5"/><text fill="#000000" font-family="sans-serif" font-size="14" lengthAdjust="spacing" textLength="142" x="1610.5" y="26.5332">:RobotTypeRepository</text><rect fill="#E2E2F0" height="31.6094" rx="2.5" ry="2.5" style="stroke:#181818;stroke-width:0.5;" width="156" x="1603.5" y="1029.1563"/><text fill="#000000" font-family="sans-serif" font-size="14" lengthAdjust="spacing" textLength="142" x="1610.5" y="1050.6895">:RobotTypeRepository</text><rect fill="#E2E2F0" height="31.6094" rx="2.5" ry="2.5" style="stroke:#181818;stroke-width:0.5;" width="161" x="1769.5" y="5"/><text fill="#000000" font-family="sans-serif" font-size="14" lengthAdjust="spacing" textLength="147" x="1776.5" y="26.5332">:robotType: RobotType</text><rect fill="#E2E2F0" height="31.6094" rx="2.5" ry="2.5" style="stroke:#181818;stroke-width:0.5;" width="161" x="1769.5" y="1029.1563"/><text fill="#000000" font-family="sans-serif" font-size="14" lengthAdjust="spacing" textLength="147" x="1776.5" y="1050.6895">:robotType: RobotType</text><rect fill="#E2E2F0" height="31.6094" rx="2.5" ry="2.5" style="stroke:#181818;stroke-width:0.5;" width="110" x="1940.5" y="5"/><text fill="#000000" font-family="sans-serif" font-size="14" lengthAdjust="spacing" textLength="96" x="1947.5" y="26.5332">:RobotTypeDto</text><rect fill="#E2E2F0" height="31.6094" rx="2.5" ry="2.5" style="stroke:#181818;stroke-width:0.5;" width="110" x="1940.5" y="1029.1563"/><text fill="#000000" font-family="sans-serif" font-size="14" lengthAdjust="spacing" textLength="96" x="1947.5" y="1050.6895">:RobotTypeDto</text><rect fill="#E2E2F0" height="31.6094" rx="2.5" ry="2.5" style="stroke:#181818;stroke-width:0.5;" width="139" x="2060.5" y="5"/><text fill="#000000" font-family="sans-serif" font-size="14" lengthAdjust="spacing" textLength="125" x="2067.5" y="26.5332">:RobotTypeSchema</text><rect fill="#E2E2F0" height="31.6094" rx="2.5" ry="2.5" style="stroke:#181818;stroke-width:0.5;" width="139" x="2060.5" y="1029.1563"/><text fill="#000000" font-family="sans-serif" font-size="14" lengthAdjust="spacing" textLength="125" x="2067.5" y="1050.6895">:RobotTypeSchema</text><rect fill="#E2E2F0" height="31.6094" rx="2.5" ry="2.5" style="stroke:#181818;stroke-width:0.5;" width="115" x="2209.5" y="5"/><text fill="#000000" font-family="sans-serif" font-size="14" lengthAdjust="spacing" textLength="101" x="2216.5" y="26.5332">:RobotTypeMap</text><rect fill="#E2E2F0" height="31.6094" rx="2.5" ry="2.5" style="stroke:#181818;stroke-width:0.5;" width="115" x="2209.5" y="1029.1563"/><text fill="#000000" font-family="sans-serif" font-size="14" lengthAdjust="spacing" textLength="101" x="2216.5" y="1050.6895">:RobotTypeMap</text><rect fill="#FFFFFF" height="964.5469" style="stroke:#181818;stroke-width:1.0;" width="10" x="47" y="47.6094"/><rect fill="#FFFFFF" height="942.1953" style="stroke:#181818;stroke-width:1.0;" width="10" x="394" y="69.9609"/><rect fill="#FFFFFF" height="881.4922" style="stroke:#181818;stroke-width:1.0;" width="10" x="702" y="100.3125"/><rect fill="#FFFFFF" height="820.7891" style="stroke:#181818;stroke-width:1.0;" width="10" x="1049" y="130.6641"/><rect fill="#FFFFFF" height="760.0859" style="stroke:#181818;stroke-width:1.0;" width="10" x="1357" y="161.0156"/><rect fill="#FFFFFF" height="699.3828" style="stroke:#181818;stroke-width:1.0;" width="10" x="1521" y="191.3672"/><rect fill="#FFFFFF" height="151.4063" style="stroke:#181818;stroke-width:1.0;" width="10" x="1676.5" y="221.7188"/><rect fill="#FFFFFF" height="181.7578" style="stroke:#181818;stroke-width:1.0;" width="10" x="1676.5" y="617.9375"/><rect fill="#FFFFFF" height="184.1094" style="stroke:#181818;stroke-width:1.0;" width="10" x="1845" y="403.4766"/><rect fill="#FFFFFF" height="30.3516" style="stroke:#181818;stroke-width:1.0;" width="10" x="1990.5" y="830.0469"/><rect fill="#FFFFFF" height="30" style="stroke:#181818;stroke-width:1.0;" width="10" x="2125" y="252.0703"/><rect fill="#FFFFFF" height="30" style="stroke:#181818;stroke-width:1.0;" width="10" x="2125" y="708.9922"/><rect fill="#FFFFFF" height="30.3516" style="stroke:#181818;stroke-width:1.0;" width="10" x="2262" y="312.4219"/><rect fill="#FFFFFF" height="30.3516" style="stroke:#181818;stroke-width:1.0;" width="10" x="2262" y="648.2891"/><rect fill="#FFFFFF" height="30.3516" style="stroke:#181818;stroke-width:1.0;" width="10" x="2262" y="769.3438"/><polygon fill="#181818" points="382,65.9609,392,69.9609,382,73.9609,386,69.9609" style="stroke:#181818;stroke-width:1.0;"/><line style="stroke:#181818;stroke-width:1.0;" x1="57" x2="388" y1="69.9609" y2="69.9609"/><text fill="#000000" font-family="sans-serif" font-size="13" font-weight="bold" lengthAdjust="spacing" textLength="7" x="64" y="65.1045">1</text><text fill="#000000" font-family="sans-serif" font-size="13" lengthAdjust="spacing" textLength="307" x="75" y="65.1045">POST createRobotType(id, robotModel, brand, tasks)</text><polygon fill="#181818" points="690,96.3125,700,100.3125,690,104.3125,694,100.3125" style="stroke:#181818;stroke-width:1.0;"/><line style="stroke:#181818;stroke-width:1.0;" x1="404" x2="696" y1="100.3125" y2="100.3125"/><text fill="#000000" font-family="sans-serif" font-size="13" font-weight="bold" lengthAdjust="spacing" textLength="7" x="411" y="95.4561">2</text><text fill="#000000" font-family="sans-serif" font-size="13" lengthAdjust="spacing" textLength="268" x="422" y="95.4561">createRobotType(id, robotModel, brand, tasks)</text><polygon fill="#181818" points="1037,126.6641,1047,130.6641,1037,134.6641,1041,130.6641" style="stroke:#181818;stroke-width:1.0;"/><line style="stroke:#181818;stroke-width:1.0;" x1="712" x2="1043" y1="130.6641" y2="130.6641"/><text fill="#000000" font-family="sans-serif" font-size="13" font-weight="bold" lengthAdjust="spacing" textLength="7" x="719" y="125.8076">3</text><text fill="#000000" font-family="sans-serif" font-size="13" lengthAdjust="spacing" textLength="307" x="730" y="125.8076">POST createRobotType(id, robotModel, brand, tasks)</text><polygon fill="#181818" points="1345,157.0156,1355,161.0156,1345,165.0156,1349,161.0156" style="stroke:#181818;stroke-width:1.0;"/><line style="stroke:#181818;stroke-width:1.0;" x1="1059" x2="1351" y1="161.0156" y2="161.0156"/><text fill="#000000" font-family="sans-serif" font-size="13" font-weight="bold" lengthAdjust="spacing" textLength="7" x="1066" y="156.1592">4</text><text fill="#000000" font-family="sans-serif" font-size="13" lengthAdjust="spacing" textLength="268" x="1077" y="156.1592">createRobotType(id, robotModel, brand, tasks)</text><polygon fill="#181818" points="1509,187.3672,1519,191.3672,1509,195.3672,1513,191.3672" style="stroke:#181818;stroke-width:1.0;"/><line style="stroke:#181818;stroke-width:1.0;" x1="1367" x2="1515" y1="191.3672" y2="191.3672"/><text fill="#000000" font-family="sans-serif" font-size="13" font-weight="bold" lengthAdjust="spacing" textLength="7" x="1374" y="186.5107">5</text><text fill="#000000" font-family="sans-serif" font-size="13" lengthAdjust="spacing" textLength="124" x="1385" y="186.5107">createRobotType(dto)</text><polygon fill="#181818" points="1664.5,217.7188,1674.5,221.7188,1664.5,225.7188,1668.5,221.7188" style="stroke:#181818;stroke-width:1.0;"/><line style="stroke:#181818;stroke-width:1.0;" x1="1531" x2="1670.5" y1="221.7188" y2="221.7188"/><text fill="#000000" font-family="sans-serif" font-size="13" font-weight="bold" lengthAdjust="spacing" textLength="7" x="1538" y="216.8623">6</text><text fill="#000000" font-family="sans-serif" font-size="13" lengthAdjust="spacing" textLength="98" x="1549" y="216.8623">findByDomainId()</text><polygon fill="#181818" points="2113,248.0703,2123,252.0703,2113,256.0703,2117,252.0703" style="stroke:#181818;stroke-width:1.0;"/><line style="stroke:#181818;stroke-width:1.0;" x1="1686.5" x2="2119" y1="252.0703" y2="252.0703"/><text fill="#000000" font-family="sans-serif" font-size="13" font-weight="bold" lengthAdjust="spacing" textLength="7" x="1693.5" y="247.2139">7</text><text fill="#000000" font-family="sans-serif" font-size="13" lengthAdjust="spacing" textLength="52" x="1704.5" y="247.2139">findOne()</text><polygon fill="#181818" points="2250,308.4219,2260,312.4219,2250,316.4219,2254,312.4219" style="stroke:#181818;stroke-width:1.0;"/><line style="stroke:#181818;stroke-width:1.0;" x1="1686.5" x2="2256" y1="312.4219" y2="312.4219"/><text fill="#000000" font-family="sans-serif" font-size="13" font-weight="bold" lengthAdjust="spacing" textLength="7" x="1693.5" y="307.5654">8</text><text fill="#000000" font-family="sans-serif" font-size="13" lengthAdjust="spacing" textLength="63" x="1704.5" y="307.5654">toDomain()</text><polygon fill="#181818" points="1697.5,338.7734,1687.5,342.7734,1697.5,346.7734,1693.5,342.7734" style="stroke:#181818;stroke-width:1.0;"/><line style="stroke:#181818;stroke-width:1.0;stroke-dasharray:2.0,2.0;" x1="1691.5" x2="2266" y1="342.7734" y2="342.7734"/><text fill="#000000" font-family="sans-serif" font-size="13" font-weight="bold" lengthAdjust="spacing" textLength="7" x="1703.5" y="337.917">9</text><text fill="#000000" font-family="sans-serif" font-size="13" lengthAdjust="spacing" textLength="65" x="1714.5" y="337.917">robotType[]</text><polygon fill="#181818" points="1542,369.125,1532,373.125,1542,377.125,1538,373.125" style="stroke:#181818;stroke-width:1.0;"/><line style="stroke:#181818;stroke-width:1.0;stroke-dasharray:2.0,2.0;" x1="1536" x2="1680.5" y1="373.125" y2="373.125"/><text fill="#000000" font-family="sans-serif" font-size="13" font-weight="bold" lengthAdjust="spacing" textLength="14" x="1548" y="368.2686">10</text><text fill="#000000" font-family="sans-serif" font-size="13" lengthAdjust="spacing" textLength="65" x="1566" y="368.2686">robotType[]</text><polygon fill="#181818" points="1833,399.4766,1843,403.4766,1833,407.4766,1837,403.4766" style="stroke:#181818;stroke-width:1.0;"/><line style="stroke:#181818;stroke-width:1.0;" x1="1531" x2="1839" y1="403.4766" y2="403.4766"/><text fill="#000000" font-family="sans-serif" font-size="13" font-weight="bold" lengthAdjust="spacing" textLength="14" x="1538" y="398.6201">11</text><text fill="#000000" font-family="sans-serif" font-size="13" lengthAdjust="spacing" textLength="62" x="1556" y="398.6201">create(dto)</text><path d="M10,418.4766 L71,418.4766 L71,426.8281 L61,436.8281 L10,436.8281 L10,418.4766 " fill="#EEEEEE" style="stroke:#000000;stroke-width:1.5;"/><rect fill="none" height="139.7578" style="stroke:#000000;stroke-width:1.5;" width="1930.5" x="10" y="418.4766"/><text fill="#000000" font-family="sans-serif" font-size="13" font-weight="bold" lengthAdjust="spacing" textLength="16" x="25" y="432.9717">alt</text><text fill="#000000" font-family="sans-serif" font-size="11" font-weight="bold" lengthAdjust="spacing" textLength="186" x="86" y="431.8955">["Erro na criação do tipo de robô"]</text><polygon fill="#181818" points="1542,455.1797,1532,459.1797,1542,463.1797,1538,459.1797" style="stroke:#181818;stroke-width:1.0;"/><line style="stroke:#181818;stroke-width:1.0;stroke-dasharray:2.0,2.0;" x1="1536" x2="1844" y1="459.1797" y2="459.1797"/><text fill="#000000" font-family="sans-serif" font-size="13" font-weight="bold" lengthAdjust="spacing" textLength="14" x="1548" y="454.3232">12</text><text fill="#000000" font-family="sans-serif" font-size="13" lengthAdjust="spacing" textLength="26" x="1566" y="454.3232">error</text><polygon fill="#181818" points="1378,485.5313,1368,489.5313,1378,493.5313,1374,489.5313" style="stroke:#181818;stroke-width:1.0;"/><line style="stroke:#181818;stroke-width:1.0;stroke-dasharray:2.0,2.0;" x1="1372" x2="1520" y1="489.5313" y2="489.5313"/><text fill="#000000" font-family="sans-serif" font-size="13" font-weight="bold" lengthAdjust="spacing" textLength="14" x="1384" y="484.6748">13</text><text fill="#000000" font-family="sans-serif" font-size="13" lengthAdjust="spacing" textLength="26" x="1402" y="484.6748">error</text><polygon fill="#181818" points="1070,515.8828,1060,519.8828,1070,523.8828,1066,519.8828" style="stroke:#181818;stroke-width:1.0;"/><line style="stroke:#181818;stroke-width:1.0;stroke-dasharray:2.0,2.0;" x1="1064" x2="1356" y1="519.8828" y2="519.8828"/><text fill="#000000" font-family="sans-serif" font-size="13" font-weight="bold" lengthAdjust="spacing" textLength="14" x="1076" y="515.0264">14</text><text fill="#000000" font-family="sans-serif" font-size="13" lengthAdjust="spacing" textLength="26" x="1094" y="515.0264">error</text><polygon fill="#181818" points="68,546.2344,58,550.2344,68,554.2344,64,550.2344" style="stroke:#181818;stroke-width:1.0;"/><line style="stroke:#181818;stroke-width:1.0;stroke-dasharray:2.0,2.0;" x1="62" x2="1048" y1="550.2344" y2="550.2344"/><text fill="#000000" font-family="sans-serif" font-size="13" font-weight="bold" lengthAdjust="spacing" textLength="14" x="74" y="545.3779">15</text><text fill="#000000" font-family="sans-serif" font-size="13" lengthAdjust="spacing" textLength="26" x="92" y="545.3779">error</text><polygon fill="#181818" points="1542,583.5859,1532,587.5859,1542,591.5859,1538,587.5859" style="stroke:#181818;stroke-width:1.0;"/><line style="stroke:#181818;stroke-width:1.0;stroke-dasharray:2.0,2.0;" x1="1536" x2="1849" y1="587.5859" y2="587.5859"/><text fill="#000000" font-family="sans-serif" font-size="13" font-weight="bold" lengthAdjust="spacing" textLength="14" x="1548" y="582.7295">16</text><text fill="#000000" font-family="sans-serif" font-size="13" lengthAdjust="spacing" textLength="65" x="1566" y="582.7295">robotType[]</text><polygon fill="#181818" points="1664.5,613.9375,1674.5,617.9375,1664.5,621.9375,1668.5,617.9375" style="stroke:#181818;stroke-width:1.0;"/><line style="stroke:#181818;stroke-width:1.0;" x1="1531" x2="1670.5" y1="617.9375" y2="617.9375"/><text fill="#000000" font-family="sans-serif" font-size="13" font-weight="bold" lengthAdjust="spacing" textLength="14" x="1538" y="613.0811">17</text><text fill="#000000" font-family="sans-serif" font-size="13" lengthAdjust="spacing" textLength="91" x="1556" y="613.0811">save(robotType)</text><polygon fill="#181818" points="2250,644.2891,2260,648.2891,2250,652.2891,2254,648.2891" style="stroke:#181818;stroke-width:1.0;"/><line style="stroke:#181818;stroke-width:1.0;" x1="1686.5" x2="2256" y1="648.2891" y2="648.2891"/><text fill="#000000" font-family="sans-serif" font-size="13" font-weight="bold" lengthAdjust="spacing" textLength="14" x="1693.5" y="643.4326">18</text><text fill="#000000" font-family="sans-serif" font-size="13" lengthAdjust="spacing" textLength="145" x="1711.5" y="643.4326">toPersistence(robotType)</text><polygon fill="#181818" points="1697.5,674.6406,1687.5,678.6406,1697.5,682.6406,1693.5,678.6406" style="stroke:#181818;stroke-width:1.0;"/><line style="stroke:#181818;stroke-width:1.0;stroke-dasharray:2.0,2.0;" x1="1691.5" x2="2266" y1="678.6406" y2="678.6406"/><text fill="#000000" font-family="sans-serif" font-size="13" font-weight="bold" lengthAdjust="spacing" textLength="14" x="1703.5" y="673.7842">19</text><text fill="#000000" font-family="sans-serif" font-size="13" lengthAdjust="spacing" textLength="65" x="1721.5" y="673.7842">robotType[]</text><polygon fill="#181818" points="2113,704.9922,2123,708.9922,2113,712.9922,2117,708.9922" style="stroke:#181818;stroke-width:1.0;"/><line style="stroke:#181818;stroke-width:1.0;" x1="1686.5" x2="2119" y1="708.9922" y2="708.9922"/><text fill="#000000" font-family="sans-serif" font-size="13" font-weight="bold" lengthAdjust="spacing" textLength="14" x="1693.5" y="704.1357">20</text><text fill="#000000" font-family="sans-serif" font-size="13" lengthAdjust="spacing" textLength="126" x="1711.5" y="704.1357">create(rawRobotType)</text><polygon fill="#181818" points="2250,765.3438,2260,769.3438,2250,773.3438,2254,769.3438" style="stroke:#181818;stroke-width:1.0;"/><line style="stroke:#181818;stroke-width:1.0;" x1="1686.5" x2="2256" y1="769.3438" y2="769.3438"/><text fill="#000000" font-family="sans-serif" font-size="13" font-weight="bold" lengthAdjust="spacing" textLength="14" x="1693.5" y="764.4873">21</text><text fill="#000000" font-family="sans-serif" font-size="13" lengthAdjust="spacing" textLength="63" x="1711.5" y="764.4873">toDomain()</text><polygon fill="#181818" points="1692.5,795.6953,1682.5,799.6953,1692.5,803.6953,1688.5,799.6953" style="stroke:#181818;stroke-width:1.0;"/><line style="stroke:#181818;stroke-width:1.0;stroke-dasharray:2.0,2.0;" x1="1686.5" x2="2266" y1="799.6953" y2="799.6953"/><text fill="#000000" font-family="sans-serif" font-size="13" font-weight="bold" lengthAdjust="spacing" textLength="14" x="1698.5" y="794.8389">22</text><text fill="#000000" font-family="sans-serif" font-size="13" lengthAdjust="spacing" textLength="65" x="1716.5" y="794.8389">robotType[]</text><polygon fill="#181818" points="1978.5,826.0469,1988.5,830.0469,1978.5,834.0469,1982.5,830.0469" style="stroke:#181818;stroke-width:1.0;"/><line style="stroke:#181818;stroke-width:1.0;" x1="1531" x2="1984.5" y1="830.0469" y2="830.0469"/><text fill="#000000" font-family="sans-serif" font-size="13" font-weight="bold" lengthAdjust="spacing" textLength="14" x="1538" y="825.1904">23</text><text fill="#000000" font-family="sans-serif" font-size="13" lengthAdjust="spacing" textLength="102" x="1556" y="825.1904">toDTO(robotType)</text><polygon fill="#181818" points="1542,856.3984,1532,860.3984,1542,864.3984,1538,860.3984" style="stroke:#181818;stroke-width:1.0;"/><line style="stroke:#181818;stroke-width:1.0;stroke-dasharray:2.0,2.0;" x1="1536" x2="1994.5" y1="860.3984" y2="860.3984"/><text fill="#000000" font-family="sans-serif" font-size="13" font-weight="bold" lengthAdjust="spacing" textLength="14" x="1548" y="855.542">24</text><text fill="#000000" font-family="sans-serif" font-size="13" lengthAdjust="spacing" textLength="18" x="1566" y="855.542">dto</text><polygon fill="#181818" points="1378,886.75,1368,890.75,1378,894.75,1374,890.75" style="stroke:#181818;stroke-width:1.0;"/><line style="stroke:#181818;stroke-width:1.0;stroke-dasharray:2.0,2.0;" x1="1372" x2="1525" y1="890.75" y2="890.75"/><text fill="#000000" font-family="sans-serif" font-size="13" font-weight="bold" lengthAdjust="spacing" textLength="14" x="1384" y="885.8936">25</text><text fill="#000000" font-family="sans-serif" font-size="13" lengthAdjust="spacing" textLength="51" x="1402" y="885.8936">Success</text><polygon fill="#181818" points="1070,917.1016,1060,921.1016,1070,925.1016,1066,921.1016" style="stroke:#181818;stroke-width:1.0;"/><line style="stroke:#181818;stroke-width:1.0;stroke-dasharray:2.0,2.0;" x1="1064" x2="1361" y1="921.1016" y2="921.1016"/><text fill="#000000" font-family="sans-serif" font-size="13" font-weight="bold" lengthAdjust="spacing" textLength="14" x="1076" y="916.2451">26</text><text fill="#000000" font-family="sans-serif" font-size="13" lengthAdjust="spacing" textLength="51" x="1094" y="916.2451">Success</text><polygon fill="#181818" points="723,947.4531,713,951.4531,723,955.4531,719,951.4531" style="stroke:#181818;stroke-width:1.0;"/><line style="stroke:#181818;stroke-width:1.0;stroke-dasharray:2.0,2.0;" x1="717" x2="1053" y1="951.4531" y2="951.4531"/><text fill="#000000" font-family="sans-serif" font-size="13" font-weight="bold" lengthAdjust="spacing" textLength="14" x="729" y="946.5967">27</text><text fill="#000000" font-family="sans-serif" font-size="13" lengthAdjust="spacing" textLength="51" x="747" y="946.5967">Success</text><polygon fill="#181818" points="415,977.8047,405,981.8047,415,985.8047,411,981.8047" style="stroke:#181818;stroke-width:1.0;"/><line style="stroke:#181818;stroke-width:1.0;stroke-dasharray:2.0,2.0;" x1="409" x2="706" y1="981.8047" y2="981.8047"/><text fill="#000000" font-family="sans-serif" font-size="13" font-weight="bold" lengthAdjust="spacing" textLength="14" x="421" y="976.9482">28</text><text fill="#000000" font-family="sans-serif" font-size="13" lengthAdjust="spacing" textLength="51" x="439" y="976.9482">Success</text><polygon fill="#181818" points="63,1008.1563,53,1012.1563,63,1016.1563,59,1012.1563" style="stroke:#181818;stroke-width:1.0;"/><line style="stroke:#181818;stroke-width:1.0;stroke-dasharray:2.0,2.0;" x1="57" x2="398" y1="1012.1563" y2="1012.1563"/><text fill="#000000" font-family="sans-serif" font-size="13" font-weight="bold" lengthAdjust="spacing" textLength="14" x="69" y="1007.2998">29</text><text fill="#000000" font-family="sans-serif" font-size="13" lengthAdjust="spacing" textLength="51" x="87" y="1007.2998">Success</text><!--MD5=[f12f0840f43d6a8da37d62a38d185d84]
@startuml
autonumber

participant ":System" as SY
participant ":RobotTypeComponent (Angular)" as RC
participant ":RobotTypeService (Angular)" as RS

participant ":RobotTypeRoute" as RT
participant ":RobotTypeController" as CTRL
participant ":RobotTypeService" as SERV
participant ":RobotTypeRepository" as REPO
participant ":robotType: RobotType" as ROBOTTYPE
participant ":RobotTypeDto" as DTO
participant ":RobotTypeSchema" as SCHEMA
participant ":RobotTypeMap" as MAP

activate SY
SY -> RC : POST createRobotType(id, robotModel, brand, tasks)
activate RC
RC -> RS : createRobotType(id, robotModel, brand, tasks)
activate RS
RS -> RT : POST createRobotType(id, robotModel, brand, tasks)
activate RT
RT -> CTRL : createRobotType(id, robotModel, brand, tasks)
activate CTRL
CTRL -> SERV : createRobotType(dto)
activate SERV
SERV -> REPO : findByDomainId()
activate REPO
REPO -> SCHEMA : findOne()
activate SCHEMA
deactivate SCHEMA
REPO -> MAP : toDomain()
activate MAP
MAP - -> REPO : robotType[]
deactivate MAP
REPO - -> SERV : robotType[]
deactivate REPO
SERV -> ROBOTTYPE : create(dto)
activate ROBOTTYPE
alt "Erro na criação do tipo de robô"
ROBOTTYPE - -> SERV : error
SERV - -> CTRL : error
CTRL - -> RT : error
RT - -> SY : error
end
ROBOTTYPE - -> SERV : robotType[]
deactivate ROBOTTYPE
SERV -> REPO : save(robotType)
activate REPO
REPO -> MAP : toPersistence(robotType)
activate MAP
MAP - -> REPO : robotType[]
deactivate MAP
REPO -> SCHEMA : create(rawRobotType)
activate SCHEMA
deactivate SCHEMA
REPO -> MAP : toDomain()
activate MAP
MAP - -> REPO : robotType[]
deactivate MAP
deactivate REPO
SERV -> DTO : toDTO(robotType)
activate DTO
DTO - -> SERV : dto
deactivate DTO
SERV - -> CTRL : Success
deactivate SERV
CTRL - -> RT :Success
deactivate CTRL
RT - -> RS : Success 
deactivate RT
RS - -> RC : Success
deactivate RS
RC - -> SY : Success
deactivate RC
deactivate SY

@enduml

PlantUML version 1.2022.7(Mon Aug 22 18:01:30 BST 2022)
(GPL source distribution)
Java Runtime: OpenJDK Runtime Environment
JVM: OpenJDK 64-Bit Server VM
Default Encoding: Cp1252
Language: pt
Country: PT
--></g></svg>