<?xml version="1.0" standalone="no"?>
<!DOCTYPE svg PUBLIC "-//W3C//DTD SVG 20010904//EN"
 "http://www.w3.org/TR/2001/REC-SVG-20010904/DTD/svg10.dtd">
<svg version="1.0" xmlns="http://www.w3.org/2000/svg"
 width="119.000000pt" height="134.000000pt" viewBox="0 0 119.000000 134.000000"
 preserveAspectRatio="xMidYMid meet">

<g transform="translate(0.000000,134.000000) scale(0.100000,-0.100000)"
fill="#000000" stroke="none">
<path d="M495 1181 c-46 -16 -50 -20 -53 -54 -3 -32 -7 -38 -35 -45 -30 -8
-32 -12 -35 -55 -3 -45 -2 -46 30 -55 30 -7 33 -12 38 -53 5 -41 7 -44 40 -49
27 -4 35 -10 35 -25 0 -18 -8 -20 -92 -23 -102 -3 -112 -9 -122 -70 -5 -30
-11 -38 -31 -40 -14 -2 -50 -28 -81 -59 -51 -50 -58 -54 -77 -42 -28 17 -40 4
-18 -20 16 -18 15 -20 -24 -51 -22 -17 -40 -36 -40 -41 0 -14 26 -10 40 6 7 8
19 15 28 15 12 0 8 -8 -12 -29 -34 -36 -16 -54 20 -20 32 30 44 16 14 -16 -16
-17 -20 -29 -14 -35 6 -6 29 9 64 45 30 30 59 55 65 55 19 0 105 95 105 116 0
27 34 58 55 51 12 -5 15 -30 15 -151 0 -135 -1 -144 -20 -149 -18 -5 -20 -14
-20 -84 0 -75 -1 -80 -25 -91 -29 -13 -51 -53 -42 -76 9 -24 232 -24 241 0 10
26 7 232 -4 239 -5 3 -10 22 -10 41 0 33 1 34 40 34 37 0 40 -2 40 -28 0 -15
-5 -33 -10 -38 -7 -7 -10 -59 -8 -135 l3 -124 118 -3 118 -3 -3 33 c-2 24 -11
38 -35 53 -32 20 -32 21 -33 98 0 60 -3 79 -15 83 -21 8 -23 304 -2 304 17 0
59 -44 51 -53 -8 -8 85 -117 100 -117 6 0 36 -25 66 -55 30 -30 58 -55 62 -55
15 0 8 27 -12 45 -11 10 -20 22 -20 27 0 15 27 8 45 -12 10 -11 22 -20 27 -20
15 0 8 23 -14 48 -24 26 -22 26 25 3 30 -16 51 -6 26 12 -64 48 -72 58 -61 69
17 17 15 38 -3 38 -8 0 -15 -4 -15 -10 0 -23 -29 -7 -80 44 -32 33 -64 56 -79
58 -22 3 -26 8 -28 36 -3 60 -24 72 -125 72 -87 0 -88 0 -88 25 0 22 4 25 35
25 35 0 35 0 35 45 0 42 2 45 33 53 31 8 32 10 32 57 0 47 -2 50 -32 59 -29 8
-33 13 -33 43 0 30 -5 36 -37 50 -56 23 -102 25 -158 4z m138 -30 c27 -11 28
-12 25 -82 l-3 -72 -40 -14 c-35 -13 -46 -12 -93 2 l-53 16 3 71 3 71 35 13
c37 14 78 12 123 -5z m-193 -125 c0 -29 -3 -33 -20 -29 -22 6 -28 48 -7 56 24
10 27 7 27 -27z m288 5 c3 -21 -11 -40 -30 -41 -5 0 -8 16 -8 36 0 28 3 35 18
32 9 -2 19 -14 20 -27z m-208 -76 c37 -13 48 -13 91 -1 l49 15 0 -35 0 -34
-95 0 -95 0 0 35 c0 19 2 35 4 35 2 0 23 -7 46 -15z m70 -110 c0 -18 -5 -25
-20 -25 -15 0 -20 7 -20 25 0 18 5 25 20 25 15 0 20 -7 20 -25z m-180 -90 c0
-41 -19 -53 -56 -37 -15 8 -24 20 -24 35 0 31 7 37 47 37 31 0 33 -2 33 -35z
m290 -85 l0 -120 -130 0 -130 0 0 120 0 120 130 0 130 0 0 -120z m101 98 c10
-18 8 -24 -11 -40 -12 -10 -31 -18 -41 -18 -15 0 -19 7 -19 40 0 38 2 40 30
40 20 0 33 -7 41 -22z m-471 -77 c0 -12 -20 -25 -27 -18 -7 7 6 27 18 27 5 0
9 -4 9 -9z m498 -10 c3 -8 -1 -12 -9 -9 -7 2 -15 10 -17 17 -3 8 1 12 9 9 7
-2 15 -10 17 -17z m-553 -90 l-35 -36 -27 28 -27 27 34 35 34 35 28 -27 28
-27 -35 -35z m644 -6 l-25 -25 -34 35 -34 35 24 25 24 26 35 -36 36 -35 -26
-25z m-727 -22 c18 -16 18 -17 -4 -40 -20 -21 -23 -22 -40 -6 -23 20 -23 39 0
52 23 14 23 14 44 -6z m800 0 c18 -16 18 -17 -4 -40 -20 -21 -23 -22 -40 -6
-21 19 -23 34 -6 51 16 16 28 15 50 -5z m-492 -73 c0 -27 -3 -30 -30 -30 -27
0 -30 3 -30 30 0 27 3 30 30 30 27 0 30 -3 30 -30z m110 10 c0 -17 -7 -20 -40
-20 -33 0 -40 3 -40 20 0 17 7 20 40 20 33 0 40 -3 40 -20z m90 -10 c0 -27 -3
-30 -30 -30 -27 0 -30 3 -30 30 0 27 3 30 30 30 27 0 30 -3 30 -30z m-200 -80
c0 -16 -7 -20 -30 -20 -23 0 -30 4 -30 20 0 16 7 20 30 20 23 0 30 -4 30 -20z
m200 0 c0 -16 -7 -20 -30 -20 -23 0 -30 4 -30 20 0 16 7 20 30 20 23 0 30 -4
30 -20z m-182 -117 l-3 -68 -57 -3 -58 -3 0 71 0 70 60 0 61 0 -3 -67z m212
-3 l0 -70 -55 0 -55 0 0 70 0 70 55 0 55 0 0 -70z m-212 -117 c3 -22 1 -23
-92 -23 -77 0 -94 3 -90 14 9 24 47 35 114 33 59 -2 65 -4 68 -24z m251 14
c53 -27 37 -37 -58 -37 -90 0 -91 0 -91 25 0 24 2 25 63 25 34 0 73 -6 86 -13z"/>
<path d="M532 1098 c-27 -27 -3 -88 34 -88 18 0 54 36 54 54 0 37 -61 61 -88
34z m56 -35 c-5 -26 -38 -29 -38 -4 0 15 6 21 21 21 14 0 19 -5 17 -17z"/>
<path d="M500 720 c0 -13 60 -110 68 -110 11 0 71 104 66 112 -7 12 -134 10
-134 -2z m90 -29 c0 -5 -6 -13 -13 -19 -10 -8 -16 -6 -25 9 -11 17 -9 19 13
19 14 0 25 -4 25 -9z"/>
<path d="M1025 1069 c-16 -24 -31 -46 -32 -48 -2 -2 -12 4 -23 14 -16 15 -20
15 -20 3 0 -15 37 -55 43 -47 27 33 68 102 65 110 -2 6 -17 -8 -33 -32z"/>
<path d="M812 988 l3 -93 113 -3 112 -3 -2 58 c-2 57 -2 57 -5 11 l-4 -48
-100 0 -99 0 0 75 0 75 74 0 c41 0 78 5 81 10 4 6 -27 10 -85 10 l-91 0 3 -92z"/>
<path d="M870 1014 c0 -8 5 -12 10 -9 6 4 8 11 5 16 -9 14 -15 11 -15 -7z"/>
<path d="M870 960 c0 -5 5 -10 10 -10 6 0 10 5 10 10 0 6 -4 10 -10 10 -5 0
-10 -4 -10 -10z"/>
</g>
</svg>
