<?xml version="1.0" encoding="UTF-8" standalone="no"?><svg xmlns="http://www.w3.org/2000/svg" xmlns:xlink="http://www.w3.org/1999/xlink" contentStyleType="text/css" height="888px" preserveAspectRatio="none" style="width:1861px;height:888px;background:#FFFFFF;" version="1.1" viewBox="0 0 1861 888" width="1861px" zoomAndPan="magnify"><defs/><g><line style="stroke:#181818;stroke-width:0.5;stroke-dasharray:5.0,5.0;" x1="57" x2="57" y1="82.6094" y2="806.6953"/><line style="stroke:#181818;stroke-width:0.5;stroke-dasharray:5.0,5.0;" x1="164" x2="164" y1="82.6094" y2="806.6953"/><line style="stroke:#181818;stroke-width:0.5;stroke-dasharray:5.0,5.0;" x1="312" x2="312" y1="82.6094" y2="806.6953"/><line style="stroke:#181818;stroke-width:0.5;stroke-dasharray:5.0,5.0;" x1="513" x2="513" y1="82.6094" y2="806.6953"/><line style="stroke:#181818;stroke-width:0.5;stroke-dasharray:5.0,5.0;" x1="730.5" x2="730.5" y1="82.6094" y2="806.6953"/><line style="stroke:#181818;stroke-width:0.5;stroke-dasharray:5.0,5.0;" x1="1003" x2="1003" y1="82.6094" y2="806.6953"/><line style="stroke:#181818;stroke-width:0.5;stroke-dasharray:5.0,5.0;" x1="1277.5" x2="1277.5" y1="82.6094" y2="806.6953"/><line style="stroke:#181818;stroke-width:0.5;stroke-dasharray:5.0,5.0;" x1="1540" x2="1540" y1="82.6094" y2="806.6953"/><line style="stroke:#181818;stroke-width:0.5;stroke-dasharray:5.0,5.0;" x1="1638" x2="1638" y1="82.6094" y2="806.6953"/><line style="stroke:#181818;stroke-width:0.5;stroke-dasharray:5.0,5.0;" x1="1717" x2="1717" y1="82.6094" y2="806.6953"/><line style="stroke:#181818;stroke-width:0.5;stroke-dasharray:5.0,5.0;" x1="1809" x2="1809" y1="82.6094" y2="806.6953"/><text fill="#000000" font-family="sans-serif" font-size="14" lengthAdjust="spacing" textLength="87" x="11" y="79.5332">Administrador</text><ellipse cx="57.5" cy="13.5" fill="#E2E2F0" rx="8" ry="8" style="stroke:#181818;stroke-width:0.5;"/><path d="M57.5,21.5 L57.5,48.5 M44.5,29.5 L70.5,29.5 M57.5,48.5 L44.5,63.5 M57.5,48.5 L70.5,63.5 " fill="none" style="stroke:#181818;stroke-width:0.5;"/><text fill="#000000" font-family="sans-serif" font-size="14" lengthAdjust="spacing" textLength="87" x="11" y="820.2285">Administrador</text><ellipse cx="57.5" cy="831.8047" fill="#E2E2F0" rx="8" ry="8" style="stroke:#181818;stroke-width:0.5;"/><path d="M57.5,839.8047 L57.5,866.8047 M44.5,847.8047 L70.5,847.8047 M57.5,866.8047 L44.5,881.8047 M57.5,866.8047 L70.5,881.8047 " fill="none" style="stroke:#181818;stroke-width:0.5;"/><rect fill="#E2E2F0" height="31.6094" rx="2.5" ry="2.5" style="stroke:#181818;stroke-width:0.5;" width="101" x="114" y="50"/><text fill="#000000" font-family="sans-serif" font-size="14" lengthAdjust="spacing" textLength="87" x="121" y="71.5332">Administrador</text><rect fill="#E2E2F0" height="31.6094" rx="2.5" ry="2.5" style="stroke:#181818;stroke-width:0.5;" width="101" x="114" y="805.6953"/><text fill="#000000" font-family="sans-serif" font-size="14" lengthAdjust="spacing" textLength="87" x="121" y="827.2285">Administrador</text><rect fill="#E2E2F0" height="31.6094" rx="2.5" ry="2.5" style="stroke:#181818;stroke-width:0.5;" width="174" x="225" y="50"/><text fill="#000000" font-family="sans-serif" font-size="14" lengthAdjust="spacing" textLength="160" x="232" y="71.5332">ManageUsersComponent</text><rect fill="#E2E2F0" height="31.6094" rx="2.5" ry="2.5" style="stroke:#181818;stroke-width:0.5;" width="174" x="225" y="805.6953"/><text fill="#000000" font-family="sans-serif" font-size="14" lengthAdjust="spacing" textLength="160" x="232" y="827.2285">ManageUsersComponent</text><rect fill="#E2E2F0" height="31.6094" rx="2.5" ry="2.5" style="stroke:#181818;stroke-width:0.5;" width="209" x="409" y="50"/><text fill="#000000" font-family="sans-serif" font-size="14" lengthAdjust="spacing" textLength="195" x="416" y="71.5332">ApproveRejectUserComponent</text><rect fill="#E2E2F0" height="31.6094" rx="2.5" ry="2.5" style="stroke:#181818;stroke-width:0.5;" width="209" x="409" y="805.6953"/><text fill="#000000" font-family="sans-serif" font-size="14" lengthAdjust="spacing" textLength="195" x="416" y="827.2285">ApproveRejectUserComponent</text><rect fill="#E2E2F0" height="31.6094" rx="2.5" ry="2.5" style="stroke:#181818;stroke-width:0.5;" width="182" x="639.5" y="50"/><text fill="#000000" font-family="sans-serif" font-size="14" lengthAdjust="spacing" textLength="168" x="646.5" y="71.5332">HttpRequestsUsersService</text><rect fill="#E2E2F0" height="31.6094" rx="2.5" ry="2.5" style="stroke:#181818;stroke-width:0.5;" width="182" x="639.5" y="805.6953"/><text fill="#000000" font-family="sans-serif" font-size="14" lengthAdjust="spacing" textLength="168" x="646.5" y="827.2285">HttpRequestsUsersService</text><rect fill="#E2E2F0" height="31.6094" rx="2.5" ry="2.5" style="stroke:#181818;stroke-width:0.5;" width="105" x="951" y="50"/><text fill="#000000" font-family="sans-serif" font-size="14" lengthAdjust="spacing" textLength="91" x="958" y="71.5332">UserController</text><rect fill="#E2E2F0" height="31.6094" rx="2.5" ry="2.5" style="stroke:#181818;stroke-width:0.5;" width="105" x="951" y="805.6953"/><text fill="#000000" font-family="sans-serif" font-size="14" lengthAdjust="spacing" textLength="91" x="958" y="827.2285">UserController</text><rect fill="#E2E2F0" height="31.6094" rx="2.5" ry="2.5" style="stroke:#181818;stroke-width:0.5;" width="90" x="1232.5" y="50"/><text fill="#000000" font-family="sans-serif" font-size="14" lengthAdjust="spacing" textLength="76" x="1239.5" y="71.5332">UserService</text><rect fill="#E2E2F0" height="31.6094" rx="2.5" ry="2.5" style="stroke:#181818;stroke-width:0.5;" width="90" x="1232.5" y="805.6953"/><text fill="#000000" font-family="sans-serif" font-size="14" lengthAdjust="spacing" textLength="76" x="1239.5" y="827.2285">UserService</text><rect fill="#E2E2F0" height="31.6094" rx="2.5" ry="2.5" style="stroke:#181818;stroke-width:0.5;" width="111" x="1485" y="50"/><text fill="#000000" font-family="sans-serif" font-size="14" lengthAdjust="spacing" textLength="97" x="1492" y="71.5332">UserRepository</text><rect fill="#E2E2F0" height="31.6094" rx="2.5" ry="2.5" style="stroke:#181818;stroke-width:0.5;" width="111" x="1485" y="805.6953"/><text fill="#000000" font-family="sans-serif" font-size="14" lengthAdjust="spacing" textLength="97" x="1492" y="827.2285">UserRepository</text><rect fill="#E2E2F0" height="31.6094" rx="2.5" ry="2.5" style="stroke:#181818;stroke-width:0.5;" width="65" x="1606" y="50"/><text fill="#000000" font-family="sans-serif" font-size="14" lengthAdjust="spacing" textLength="51" x="1613" y="71.5332">UserDto</text><rect fill="#E2E2F0" height="31.6094" rx="2.5" ry="2.5" style="stroke:#181818;stroke-width:0.5;" width="65" x="1606" y="805.6953"/><text fill="#000000" font-family="sans-serif" font-size="14" lengthAdjust="spacing" textLength="51" x="1613" y="827.2285">UserDto</text><rect fill="#E2E2F0" height="31.6094" rx="2.5" ry="2.5" style="stroke:#181818;stroke-width:0.5;" width="73" x="1681" y="50"/><text fill="#000000" font-family="sans-serif" font-size="14" lengthAdjust="spacing" textLength="59" x="1688" y="71.5332">UserDTO</text><rect fill="#E2E2F0" height="31.6094" rx="2.5" ry="2.5" style="stroke:#181818;stroke-width:0.5;" width="73" x="1681" y="805.6953"/><text fill="#000000" font-family="sans-serif" font-size="14" lengthAdjust="spacing" textLength="59" x="1688" y="827.2285">UserDTO</text><rect fill="#E2E2F0" height="31.6094" rx="2.5" ry="2.5" style="stroke:#181818;stroke-width:0.5;" width="91" x="1764" y="50"/><text fill="#000000" font-family="sans-serif" font-size="14" lengthAdjust="spacing" textLength="77" x="1771" y="71.5332">UserMapper</text><rect fill="#E2E2F0" height="31.6094" rx="2.5" ry="2.5" style="stroke:#181818;stroke-width:0.5;" width="91" x="1764" y="805.6953"/><text fill="#000000" font-family="sans-serif" font-size="14" lengthAdjust="spacing" textLength="77" x="1771" y="827.2285">UserMapper</text><path d="M5,97.6094 L5,123.6094 L325,123.6094 L325,107.6094 L315,97.6094 L5,97.6094 " fill="#FEFFDD" style="stroke:#181818;stroke-width:0.5;"/><path d="M315,97.6094 L315,107.6094 L325,107.6094 L315,97.6094 " fill="#FEFFDD" style="stroke:#181818;stroke-width:0.5;"/><text fill="#000000" font-family="sans-serif" font-size="13" lengthAdjust="spacing" textLength="299" x="11" y="116.1045">ver Diagrama LogInN3(representa interaçao anterior)</text><polygon fill="#181818" points="300,147.3125,310,151.3125,300,155.3125,304,151.3125" style="stroke:#181818;stroke-width:1.0;"/><line style="stroke:#181818;stroke-width:1.0;" x1="57.5" x2="306" y1="151.3125" y2="151.3125"/><text fill="#000000" font-family="sans-serif" font-size="13" lengthAdjust="spacing" textLength="148" x="64.5" y="146.4561">showApproveRejectUser()</text><polygon fill="#181818" points="501.5,177.6641,511.5,181.6641,501.5,185.6641,505.5,181.6641" style="stroke:#181818;stroke-width:1.0;"/><line style="stroke:#181818;stroke-width:1.0;" x1="312" x2="507.5" y1="181.6641" y2="181.6641"/><text fill="#000000" font-family="sans-serif" font-size="13" lengthAdjust="spacing" textLength="56" x="319" y="176.8076">ngOnInit()</text><polygon fill="#181818" points="718.5,208.0156,728.5,212.0156,718.5,216.0156,722.5,212.0156" style="stroke:#181818;stroke-width:1.0;"/><line style="stroke:#181818;stroke-width:1.0;" x1="513.5" x2="724.5" y1="212.0156" y2="212.0156"/><text fill="#000000" font-family="sans-serif" font-size="13" lengthAdjust="spacing" textLength="168" x="520.5" y="207.1592">GET '/Users/PendingUtentes'</text><polygon fill="#181818" points="991.5,238.3672,1001.5,242.3672,991.5,246.3672,995.5,242.3672" style="stroke:#181818;stroke-width:1.0;"/><line style="stroke:#181818;stroke-width:1.0;" x1="730.5" x2="997.5" y1="242.3672" y2="242.3672"/><text fill="#000000" font-family="sans-serif" font-size="13" lengthAdjust="spacing" textLength="121" x="737.5" y="237.5107">GetPendingUtentes()</text><polygon fill="#181818" points="1265.5,268.7188,1275.5,272.7188,1265.5,276.7188,1269.5,272.7188" style="stroke:#181818;stroke-width:1.0;"/><line style="stroke:#181818;stroke-width:1.0;" x1="1003.5" x2="1271.5" y1="272.7188" y2="272.7188"/><text fill="#000000" font-family="sans-serif" font-size="13" lengthAdjust="spacing" textLength="158" x="1010.5" y="267.8623">GetPendingUtentesAsync()</text><polygon fill="#181818" points="1528.5,299.0703,1538.5,303.0703,1528.5,307.0703,1532.5,303.0703" style="stroke:#181818;stroke-width:1.0;"/><line style="stroke:#181818;stroke-width:1.0;" x1="1277.5" x2="1534.5" y1="303.0703" y2="303.0703"/><text fill="#000000" font-family="sans-serif" font-size="13" lengthAdjust="spacing" textLength="239" x="1284.5" y="298.2139">GetUsersByApprovalStatusAsync(status)</text><polygon fill="#181818" points="1288.5,329.4219,1278.5,333.4219,1288.5,337.4219,1284.5,333.4219" style="stroke:#181818;stroke-width:1.0;"/><line style="stroke:#181818;stroke-width:1.0;" x1="1282.5" x2="1539.5" y1="333.4219" y2="333.4219"/><text fill="#000000" font-family="sans-serif" font-size="13" lengthAdjust="spacing" textLength="70" x="1294.5" y="328.5654">return user[]</text><polygon fill="#181818" points="1626.5,359.7734,1636.5,363.7734,1626.5,367.7734,1630.5,363.7734" style="stroke:#181818;stroke-width:1.0;"/><line style="stroke:#181818;stroke-width:1.0;" x1="1277.5" x2="1632.5" y1="363.7734" y2="363.7734"/><text fill="#000000" font-family="sans-serif" font-size="13" lengthAdjust="spacing" textLength="87" x="1284.5" y="358.917">create UserDto</text><polygon fill="#181818" points="1288.5,390.125,1278.5,394.125,1288.5,398.125,1284.5,394.125" style="stroke:#181818;stroke-width:1.0;"/><line style="stroke:#181818;stroke-width:1.0;" x1="1282.5" x2="1637.5" y1="394.125" y2="394.125"/><text fill="#000000" font-family="sans-serif" font-size="13" lengthAdjust="spacing" textLength="82" x="1294.5" y="389.2686">return userDto</text><polygon fill="#181818" points="1014.5,420.4766,1004.5,424.4766,1014.5,428.4766,1010.5,424.4766" style="stroke:#181818;stroke-width:1.0;"/><line style="stroke:#181818;stroke-width:1.0;" x1="1008.5" x2="1276.5" y1="424.4766" y2="424.4766"/><text fill="#000000" font-family="sans-serif" font-size="13" lengthAdjust="spacing" textLength="90" x="1020.5" y="419.6201">return userDto[]</text><polygon fill="#181818" points="741.5,450.8281,731.5,454.8281,741.5,458.8281,737.5,454.8281" style="stroke:#181818;stroke-width:1.0;"/><line style="stroke:#181818;stroke-width:1.0;" x1="735.5" x2="1002.5" y1="454.8281" y2="454.8281"/><text fill="#000000" font-family="sans-serif" font-size="13" lengthAdjust="spacing" textLength="96" x="747.5" y="449.9717">return userDTO[]</text><polygon fill="#181818" points="1705.5,481.1797,1715.5,485.1797,1705.5,489.1797,1709.5,485.1797" style="stroke:#181818;stroke-width:1.0;"/><line style="stroke:#181818;stroke-width:1.0;" x1="730.5" x2="1711.5" y1="485.1797" y2="485.1797"/><text fill="#000000" font-family="sans-serif" font-size="13" lengthAdjust="spacing" textLength="145" x="737.5" y="480.3232">create UserDto (frontend)</text><polygon fill="#181818" points="741.5,511.5313,731.5,515.5313,741.5,519.5313,737.5,515.5313" style="stroke:#181818;stroke-width:1.0;"/><line style="stroke:#181818;stroke-width:1.0;" x1="735.5" x2="1716.5" y1="515.5313" y2="515.5313"/><text fill="#000000" font-family="sans-serif" font-size="13" lengthAdjust="spacing" textLength="61" x="747.5" y="510.6748">UserDTO[]</text><polygon fill="#181818" points="1797.5,541.8828,1807.5,545.8828,1797.5,549.8828,1801.5,545.8828" style="stroke:#181818;stroke-width:1.0;"/><line style="stroke:#181818;stroke-width:1.0;" x1="730.5" x2="1803.5" y1="545.8828" y2="545.8828"/><text fill="#000000" font-family="sans-serif" font-size="13" lengthAdjust="spacing" textLength="124" x="737.5" y="541.0264">toUserModel(userdto)</text><polygon fill="#181818" points="741.5,572.2344,731.5,576.2344,741.5,580.2344,737.5,576.2344" style="stroke:#181818;stroke-width:1.0;"/><line style="stroke:#181818;stroke-width:1.0;" x1="735.5" x2="1808.5" y1="576.2344" y2="576.2344"/><text fill="#000000" font-family="sans-serif" font-size="13" lengthAdjust="spacing" textLength="70" x="747.5" y="571.3779">UserModel[]</text><polygon fill="#181818" points="524.5,602.5859,514.5,606.5859,524.5,610.5859,520.5,606.5859" style="stroke:#181818;stroke-width:1.0;"/><line style="stroke:#181818;stroke-width:1.0;" x1="518.5" x2="729.5" y1="606.5859" y2="606.5859"/><text fill="#000000" font-family="sans-serif" font-size="13" lengthAdjust="spacing" textLength="70" x="530.5" y="601.7295">UserModel[]</text><polygon fill="#181818" points="68.5,632.9375,58.5,636.9375,68.5,640.9375,64.5,636.9375" style="stroke:#181818;stroke-width:1.0;"/><line style="stroke:#181818;stroke-width:1.0;" x1="62.5" x2="512.5" y1="636.9375" y2="636.9375"/><text fill="#000000" font-family="sans-serif" font-size="13" lengthAdjust="spacing" textLength="77" x="74.5" y="632.0811">return users[]</text><polygon fill="#181818" points="501.5,663.2891,511.5,667.2891,501.5,671.2891,505.5,667.2891" style="stroke:#181818;stroke-width:1.0;"/><line style="stroke:#181818;stroke-width:1.0;" x1="57.5" x2="507.5" y1="667.2891" y2="667.2891"/><text fill="#000000" font-family="sans-serif" font-size="13" lengthAdjust="spacing" textLength="96" x="64.5" y="662.4326">approve()/reject()</text><polygon fill="#181818" points="718.5,693.6406,728.5,697.6406,718.5,701.6406,722.5,697.6406" style="stroke:#181818;stroke-width:1.0;"/><line style="stroke:#181818;stroke-width:1.0;" x1="513.5" x2="724.5" y1="697.6406" y2="697.6406"/><text fill="#000000" font-family="sans-serif" font-size="13" lengthAdjust="spacing" textLength="193" x="520.5" y="692.7842">PUT '/Users/{email}/updatestatus'</text><polygon fill="#181818" points="991.5,723.9922,1001.5,727.9922,991.5,731.9922,995.5,727.9922" style="stroke:#181818;stroke-width:1.0;"/><line style="stroke:#181818;stroke-width:1.0;" x1="730.5" x2="997.5" y1="727.9922" y2="727.9922"/><text fill="#000000" font-family="sans-serif" font-size="13" lengthAdjust="spacing" textLength="249" x="737.5" y="723.1357">UpdateUserApprovalStatus(email, UserDto)</text><polygon fill="#181818" points="1265.5,754.3438,1275.5,758.3438,1265.5,762.3438,1269.5,758.3438" style="stroke:#181818;stroke-width:1.0;"/><line style="stroke:#181818;stroke-width:1.0;" x1="1003.5" x2="1271.5" y1="758.3438" y2="758.3438"/><text fill="#000000" font-family="sans-serif" font-size="13" lengthAdjust="spacing" textLength="250" x="1010.5" y="753.4873">ChangeUserApprovalStatusAsync(UserDto)</text><polygon fill="#181818" points="1528.5,784.6953,1538.5,788.6953,1528.5,792.6953,1532.5,788.6953" style="stroke:#181818;stroke-width:1.0;"/><line style="stroke:#181818;stroke-width:1.0;" x1="1277.5" x2="1534.5" y1="788.6953" y2="788.6953"/><text fill="#000000" font-family="sans-serif" font-size="13" lengthAdjust="spacing" textLength="140" x="1284.5" y="783.8389">UpdateUserAsync(User)</text><!--MD5=[77ad2e577fe38de616bf998d893cfee4]
@startuml

actor Admin as "Administrador"
' Referência ao diagrama anterior
note over "Administrador"
  ver Diagrama LogInN3(representa interaçao anterior)
end note


Admin -> ManageUsersComponent: showApproveRejectUser()
ManageUsersComponent -> ApproveRejectUserComponent: ngOnInit()
ApproveRejectUserComponent -> HttpRequestsUsersService: GET '/Users/PendingUtentes'
HttpRequestsUsersService -> UserController: GetPendingUtentes()
UserController -> UserService: GetPendingUtentesAsync()
UserService -> UserRepository: GetUsersByApprovalStatusAsync(status)
UserRepository -> UserService: return user[]
UserService -> UserDto:  create UserDto
UserDto -> UserService: return userDto
UserService -> UserController: return userDto[]
UserController -> HttpRequestsUsersService: return userDTO[]
HttpRequestsUsersService -> UserDTO: create UserDto (frontend)
UserDTO -> HttpRequestsUsersService: UserDTO[]
HttpRequestsUsersService -> UserMapper: toUserModel(userdto)
UserMapper -> HttpRequestsUsersService: UserModel[]
HttpRequestsUsersService -> ApproveRejectUserComponent: UserModel[]
ApproveRejectUserComponent -> Admin: return users[]
Admin -> ApproveRejectUserComponent: approve()/reject()
ApproveRejectUserComponent -> HttpRequestsUsersService: PUT '/Users/{email}/updatestatus'
HttpRequestsUsersService -> UserController: UpdateUserApprovalStatus(email, UserDto)
UserController -> UserService: ChangeUserApprovalStatusAsync(UserDto)
UserService -> UserRepository: UpdateUserAsync(User)

@enduml

@startuml

actor Admin as "Administrador"
note over "Administrador"
  ver Diagrama LogInN3(representa interaçao anterior)
end note


Admin -> ManageUsersComponent: showApproveRejectUser()
ManageUsersComponent -> ApproveRejectUserComponent: ngOnInit()
ApproveRejectUserComponent -> HttpRequestsUsersService: GET '/Users/PendingUtentes'
HttpRequestsUsersService -> UserController: GetPendingUtentes()
UserController -> UserService: GetPendingUtentesAsync()
UserService -> UserRepository: GetUsersByApprovalStatusAsync(status)
UserRepository -> UserService: return user[]
UserService -> UserDto:  create UserDto
UserDto -> UserService: return userDto
UserService -> UserController: return userDto[]
UserController -> HttpRequestsUsersService: return userDTO[]
HttpRequestsUsersService -> UserDTO: create UserDto (frontend)
UserDTO -> HttpRequestsUsersService: UserDTO[]
HttpRequestsUsersService -> UserMapper: toUserModel(userdto)
UserMapper -> HttpRequestsUsersService: UserModel[]
HttpRequestsUsersService -> ApproveRejectUserComponent: UserModel[]
ApproveRejectUserComponent -> Admin: return users[]
Admin -> ApproveRejectUserComponent: approve()/reject()
ApproveRejectUserComponent -> HttpRequestsUsersService: PUT '/Users/{email}/updatestatus'
HttpRequestsUsersService -> UserController: UpdateUserApprovalStatus(email, UserDto)
UserController -> UserService: ChangeUserApprovalStatusAsync(UserDto)
UserService -> UserRepository: UpdateUserAsync(User)

@enduml

PlantUML version 1.2022.7(Mon Aug 22 18:01:30 WEST 2022)
(GPL source distribution)
Java Runtime: Java(TM) SE Runtime Environment
JVM: Java HotSpot(TM) 64-Bit Server VM
Default Encoding: UTF-8
Language: pt
Country: PT
--></g></svg>