<?xml version="1.0" encoding="UTF-8" standalone="no"?><svg xmlns="http://www.w3.org/2000/svg" xmlns:xlink="http://www.w3.org/1999/xlink" contentStyleType="text/css" height="4485px" preserveAspectRatio="none" style="width:2061px;height:4485px;background:#FFFFFF;" version="1.1" viewBox="0 0 2061 4485" width="2061px" zoomAndPan="magnify"><defs/><g><g id="elem_US150"><ellipse cx="1144.7471" cy="2700.5494" fill="#F1F1F1" rx="88.2471" ry="20.0494" style="stroke:#181818;stroke-width:0.5;"/><text fill="#000000" font-family="sans-serif" font-size="14" lengthAdjust="spacing" textLength="134" x="1077.7471" y="2704.2779">US150 - Criar edifício</text></g><g id="elem_US160"><ellipse cx="1144.3297" cy="2776.5659" fill="#F1F1F1" rx="90.8297" ry="20.5659" style="stroke:#181818;stroke-width:0.5;"/><text fill="#000000" font-family="sans-serif" font-size="14" lengthAdjust="spacing" textLength="140" x="1074.3297" y="2780.2945">US160 - Editar edifício</text></g><g id="elem_US170"><ellipse cx="1144.665" cy="2858.733" fill="#F1F1F1" rx="119.165" ry="26.233" style="stroke:#181818;stroke-width:0.5;"/><text fill="#000000" font-family="sans-serif" font-size="14" lengthAdjust="spacing" textLength="203" x="1043.165" y="2862.4615">US170 - Listar todos os edifícios</text></g><g id="elem_US180"><ellipse cx="1144.6116" cy="2955.3223" fill="#F1F1F1" rx="164.6116" ry="35.3223" style="stroke:#181818;stroke-width:0.5;"/><text fill="#000000" font-family="sans-serif" font-size="14" lengthAdjust="spacing" textLength="299" x="995.1116" y="2959.0508">US180 - Listar edifícios com min e max de pisos</text></g><g id="elem_US190"><ellipse cx="1144.434" cy="3050.4868" fill="#F1F1F1" rx="110.434" ry="24.4868" style="stroke:#181818;stroke-width:0.5;"/><text fill="#000000" font-family="sans-serif" font-size="14" lengthAdjust="spacing" textLength="184" x="1052.434" y="3054.2153">US190 - Criar piso de edifício</text></g><g id="elem_US200"><ellipse cx="1144.4088" cy="3144.3818" fill="#F1F1F1" rx="157.4088" ry="33.8818" style="stroke:#181818;stroke-width:0.5;"/><text fill="#000000" font-family="sans-serif" font-size="14" lengthAdjust="spacing" textLength="284" x="1002.4088" y="3148.1103">US200 - Editar informação de piso de edifício</text></g><g id="elem_US210"><ellipse cx="1144.5791" cy="3246.6158" fill="#F1F1F1" rx="153.5791" ry="33.1158" style="stroke:#181818;stroke-width:0.5;"/><text fill="#000000" font-family="sans-serif" font-size="14" lengthAdjust="spacing" textLength="276" x="1006.5791" y="3250.3443">US210 - Listar todos os pisos de um edifício</text></g><g id="elem_US220"><ellipse cx="1144.381" cy="3362.6762" fill="#F1F1F1" rx="226.381" ry="47.6762" style="stroke:#181818;stroke-width:0.5;"/><text fill="#000000" font-family="sans-serif" font-size="14" lengthAdjust="spacing" textLength="426" x="931.381" y="3366.4047">US220 - Listar pisos de edifício com passagem para outros edifícios</text></g><g id="elem_US230"><ellipse cx="1144.7402" cy="3471.548" fill="#F1F1F1" rx="118.2402" ry="26.048" style="stroke:#181818;stroke-width:0.5;"/><text fill="#000000" font-family="sans-serif" font-size="14" lengthAdjust="spacing" textLength="201" x="1044.2402" y="3475.2766">US230 - Carregar mapa de piso</text></g><g id="elem_US240"><ellipse cx="1144.2783" cy="3563.3557" fill="#F1F1F1" rx="139.7783" ry="30.3557" style="stroke:#181818;stroke-width:0.5;"/><text fill="#000000" font-family="sans-serif" font-size="14" lengthAdjust="spacing" textLength="247" x="1020.7783" y="3567.0842">US240 - Criar passagem entre edifícios</text></g><g id="elem_US250"><ellipse cx="1144.622" cy="3660.4244" fill="#F1F1F1" rx="142.622" ry="30.9244" style="stroke:#181818;stroke-width:0.5;"/><text fill="#000000" font-family="sans-serif" font-size="14" lengthAdjust="spacing" textLength="253" x="1018.122" y="3664.1529">US250 - Editar passagem entre edifícios</text></g><g id="elem_US260"><ellipse cx="1144.2816" cy="3759.2563" fill="#F1F1F1" rx="149.2816" ry="32.2563" style="stroke:#181818;stroke-width:0.5;"/><text fill="#000000" font-family="sans-serif" font-size="14" lengthAdjust="spacing" textLength="267" x="1010.7816" y="3762.9848">US260 - Listar passagens entre 2 edifícios</text></g><g id="elem_US270"><ellipse cx="1144.705" cy="3854.441" fill="#F1F1F1" rx="125.205" ry="27.441" style="stroke:#181818;stroke-width:0.5;"/><text fill="#000000" font-family="sans-serif" font-size="14" lengthAdjust="spacing" textLength="216" x="1036.705" y="3858.1695">US270 - Criar elevador em edifício</text></g><g id="elem_US280"><ellipse cx="1144.5083" cy="3945.5017" fill="#F1F1F1" rx="128.0083" ry="28.0017" style="stroke:#181818;stroke-width:0.5;"/><text fill="#000000" font-family="sans-serif" font-size="14" lengthAdjust="spacing" textLength="222" x="1033.5083" y="3949.2302">US280 - Editar elevador em edifício</text></g><g id="elem_US290"><ellipse cx="1144.6118" cy="4037.7224" fill="#F1F1F1" rx="134.1118" ry="29.2224" style="stroke:#181818;stroke-width:0.5;"/><text fill="#000000" font-family="sans-serif" font-size="14" lengthAdjust="spacing" textLength="235" x="1027.1118" y="4041.4509">US290 - Listar elevadores em edifício</text></g><g id="elem_US300"><ellipse cx="1144.4828" cy="4140.3966" fill="#F1F1F1" rx="182.4828" ry="38.8966" style="stroke:#181818;stroke-width:0.5;"/><text fill="#000000" font-family="sans-serif" font-size="14" lengthAdjust="spacing" textLength="336" x="976.4828" y="4144.1251">US300 - Listar pisos de edifício servidos por elevador</text></g><g id="elem_US310"><ellipse cx="1144.641" cy="4243.6282" fill="#F1F1F1" rx="133.641" ry="29.1282" style="stroke:#181818;stroke-width:0.5;"/><text fill="#000000" font-family="sans-serif" font-size="14" lengthAdjust="spacing" textLength="234" x="1027.641" y="4247.3567">US310 - Criar sala de piso de edifício</text></g><g id="elem_US350"><ellipse cx="1144.7043" cy="2075.6409" fill="#F1F1F1" rx="443.7043" ry="91.1409" style="stroke:#181818;stroke-width:0.5;"/><text fill="#000000" font-family="sans-serif" font-size="14" lengthAdjust="spacing" textLength="865" x="712.2043" y="2079.3694">US350 - Adicionar um novo tipo de robot indicando a sua designação e que tipos de tarefas pode executar da lista prédefinida de tarefas</text></g><g id="elem_US360"><ellipse cx="1144.309" cy="2256.2618" fill="#F1F1F1" rx="259.309" ry="54.2618" style="stroke:#181818;stroke-width:0.5;"/><text fill="#000000" font-family="sans-serif" font-size="14" lengthAdjust="spacing" textLength="493" x="897.809" y="2259.9903">US360 - Adicionar um novo robot à frota indicando o seu tipo, designação, etc</text></g><g id="elem_US370"><ellipse cx="1144.5017" cy="2367.5003" fill="#F1F1F1" rx="93.0017" ry="21.0003" style="stroke:#181818;stroke-width:0.5;"/><text fill="#000000" font-family="sans-serif" font-size="14" lengthAdjust="spacing" textLength="145" x="1072.0017" y="2371.2289">US370 - Inibir um robot</text></g><g id="elem_US380"><ellipse cx="1144.6901" cy="2456.638" fill="#F1F1F1" rx="151.1901" ry="32.638" style="stroke:#181818;stroke-width:0.5;"/><text fill="#000000" font-family="sans-serif" font-size="14" lengthAdjust="spacing" textLength="271" x="1009.1901" y="2460.3665">US380 - Consultar todos os robots da frota</text></g><g id="elem_US390"><ellipse cx="1144.3801" cy="2584.676" fill="#F1F1F1" rx="291.3801" ry="60.676" style="stroke:#181818;stroke-width:0.5;"/><text fill="#000000" font-family="sans-serif" font-size="14" lengthAdjust="spacing" textLength="558" x="865.3801" y="2588.4045">US390 - Pesquisar todos os robots da frota por designação ou tarefa que pode executar</text></g><g id="elem_US640"><ellipse cx="1144.7119" cy="656.3424" fill="#F1F1F1" rx="442.2119" ry="90.8424" style="stroke:#181818;stroke-width:0.5;"/><text fill="#000000" font-family="sans-serif" font-size="14" lengthAdjust="spacing" textLength="862" x="713.7119" y="660.0709">US640 - Deployment de um dos módulos do RFP numa VM do DEI seja sistemático, validando de forma agendada com o plano de testes</text></g><g id="elem_US650"><ellipse cx="1144.5328" cy="849.7066" fill="#F1F1F1" rx="324.0328" ry="67.2066" style="stroke:#181818;stroke-width:0.5;"/><text fill="#000000" font-family="sans-serif" font-size="14" lengthAdjust="spacing" textLength="624" x="832.5328" y="853.4351">US650 - Apenas os clientes da rede interna do DEI (cablada ou via VPN) possam aceder à solução</text></g><g id="elem_US660"><ellipse cx="1144.5056" cy="1032.6011" fill="#F1F1F1" rx="391.0056" ry="80.6011" style="stroke:#181818;stroke-width:0.5;"/><text fill="#000000" font-family="sans-serif" font-size="14" lengthAdjust="spacing" textLength="759" x="765.0056" y="1036.3296">US660 - Os clientes indicados na user story anterior possam ser definidos pela simples alteração de um ficheiro de texto</text></g><g id="elem_US670"><ellipse cx="1144.3848" cy="1201.277" fill="#F1F1F1" rx="254.3848" ry="53.277" style="stroke:#181818;stroke-width:0.5;"/><text fill="#000000" font-family="sans-serif" font-size="14" lengthAdjust="spacing" textLength="483" x="902.8848" y="1205.0055">US670 - Identificar e quantificar os riscos envolvidos na solução preconizada</text></g><g id="elem_US800"><ellipse cx="1144.7396" cy="1353.6479" fill="#F1F1F1" rx="303.7396" ry="63.1479" style="stroke:#181818;stroke-width:0.5;"/><text fill="#000000" font-family="sans-serif" font-size="14" lengthAdjust="spacing" textLength="583" x="853.2396" y="1357.3764">US800 - Definir o MBCO (Minimum Business Continuity Objective) a propor aos stakeholders</text></g><g id="elem_US810"><ellipse cx="1144.3321" cy="1560.4664" fill="#F1F1F1" rx="532.8321" ry="108.9664" style="stroke:#181818;stroke-width:0.5;"/><text fill="#000000" font-family="sans-serif" font-size="14" lengthAdjust="spacing" textLength="1044" x="622.3321" y="1564.1949">US810 - Proposta, justificada e implementada uma estratégia de cópia de segurança que minimize o RPO (Recovery Point Objective) e o WRT (Work Recovery Time)</text></g><g id="elem_US820"><ellipse cx="1144.5983" cy="1761.7197" fill="#F1F1F1" rx="274.0983" ry="57.2197" style="stroke:#181818;stroke-width:0.5;"/><text fill="#000000" font-family="sans-serif" font-size="14" lengthAdjust="spacing" textLength="523" x="883.0983" y="1765.4482">US820 - Definir uma pasta pública para todos os utilizadores registados no sistema</text></g><g id="elem_US830"><ellipse cx="1144.3325" cy="1901.6665" fill="#F1F1F1" rx="228.8325" ry="48.1665" style="stroke:#181818;stroke-width:0.5;"/><text fill="#000000" font-family="sans-serif" font-size="14" lengthAdjust="spacing" textLength="431" x="928.8325" y="1905.395">US830 - Obter os utilizadores com mais do que 3 acessos incorretos</text></g><g id="elem_US130"><ellipse cx="1144.3425" cy="4393.4685" fill="#F1F1F1" rx="417.8425" ry="85.9685" style="stroke:#181818;stroke-width:0.5;"/><text fill="#000000" font-family="sans-serif" font-size="14" lengthAdjust="spacing" textLength="813" x="737.8425" y="4397.197">US130 - Upload do mapa do campus considerando edifícios e ligações interiores entre os mesmos para ser utilizado pelos robots</text></g><g id="elem_US1220"><ellipse cx="1144.4216" cy="470.4843" fill="#F1F1F1" rx="287.9216" ry="59.9843" style="stroke:#181818;stroke-width:0.5;"/><text fill="#000000" font-family="sans-serif" font-size="14" lengthAdjust="spacing" textLength="551" x="868.9216" y="474.2128">US1220 - Obter os caminhos entre dois edificos considerando um critério de otimização</text></g><g id="elem_US90"><ellipse cx="1144.5684" cy="190.5137" fill="#F1F1F1" rx="910.5684" ry="184.5137" style="stroke:#181818;stroke-width:0.5;"/><text fill="#000000" font-family="sans-serif" font-size="14" lengthAdjust="spacing" textLength="1801" x="244.0684" y="194.2422">US90 - Relatório que, descrevendo a solução encontrada e considerando as normas do RGPD, identifique concretamente os dados pessoais utilizados, o tratamento a que serão sujeitos, bem como a finalidade e fundamento daquele tratamento e, ainda, o responsável pelo tratamento.</text></g><!--MD5=[eef3f094aa25142ce89e2590d2eee39c]
entity GC--><g id="elem_GC"><ellipse cx="90" cy="3487" fill="#F1F1F1" rx="8" ry="8" style="stroke:#181818;stroke-width:0.5;"/><path d="M90,3495 L90,3522 M77,3503 L103,3503 M90,3522 L77,3537 M90,3522 L103,3537 " fill="none" style="stroke:#181818;stroke-width:0.5;"/><text fill="#000000" font-family="sans-serif" font-size="14" lengthAdjust="spacing" textLength="119" x="30.5" y="3553.0332">Gestor de Campus</text></g><!--MD5=[137fad6fe7462277cdbbd7afcc910748]
entity GF--><g id="elem_GF"><ellipse cx="90" cy="2337" fill="#F1F1F1" rx="8" ry="8" style="stroke:#181818;stroke-width:0.5;"/><path d="M90,2345 L90,2372 M77,2353 L103,2353 M90,2372 L77,2387 M90,2372 L103,2387 " fill="none" style="stroke:#181818;stroke-width:0.5;"/><text fill="#000000" font-family="sans-serif" font-size="14" lengthAdjust="spacing" textLength="101" x="39.5" y="2403.0332">Gestor de Frota</text></g><!--MD5=[d7de07b4a463e82ba560af15c49d8026]
entity GT--><g id="elem_GT"><ellipse cx="90" cy="440" fill="#F1F1F1" rx="8" ry="8" style="stroke:#181818;stroke-width:0.5;"/><path d="M90,448 L90,475 M77,456 L103,456 M90,475 L77,490 M90,475 L103,490 " fill="none" style="stroke:#181818;stroke-width:0.5;"/><text fill="#000000" font-family="sans-serif" font-size="14" lengthAdjust="spacing" textLength="116" x="32" y="506.0332">Gestor de Tarefas</text></g><!--MD5=[4c7b106f58a08f055d20240449929580]
entity GU--><g id="elem_GU"><ellipse cx="90" cy="160" fill="#F1F1F1" rx="8" ry="8" style="stroke:#181818;stroke-width:0.5;"/><path d="M90,168 L90,195 M77,176 L103,176 M90,195 L77,210 M90,195 L103,210 " fill="none" style="stroke:#181818;stroke-width:0.5;"/><text fill="#000000" font-family="sans-serif" font-size="14" lengthAdjust="spacing" textLength="142" x="19" y="226.0332">Gestão de Utilizadores</text></g><!--MD5=[a0f1904fc82c6ab0294de64c770f6adb]
entity AdS--><g id="elem_AdS"><ellipse cx="90" cy="1247" fill="#F1F1F1" rx="8" ry="8" style="stroke:#181818;stroke-width:0.5;"/><path d="M90,1255 L90,1282 M77,1263 L103,1263 M90,1282 L77,1297 M90,1282 L103,1297 " fill="none" style="stroke:#181818;stroke-width:0.5;"/><text fill="#000000" font-family="sans-serif" font-size="14" lengthAdjust="spacing" textLength="168" x="6" y="1313.0332">Administrador de Sistemas</text></g><!--MD5=[f1e89e33903ff720e96644a2e597db01]
link GC to US150--><g id="link_GC_US150"><path d="M92.02,3478.1 C96.66,3333.72 120.75,2836.93 234,2738.5 C355.4,2632.99 858.72,2671.24 1059.89,2691.34 " fill="none" id="GC-to-US150" style="stroke:#181818;stroke-width:1.0;"/><polygon fill="#181818" points="1064.87,2691.84,1056.3141,2686.9619,1059.895,2691.3411,1055.5158,2694.922,1064.87,2691.84" style="stroke:#181818;stroke-width:1.0;"/></g><!--MD5=[3d07b43795ec3b73b70382ff961649c5]
link GC to US160--><g id="link_GC_US160"><path d="M92.87,3478.29 C100.19,3343.53 131.69,2902.79 234,2815.5 C355.77,2711.61 854.23,2747.71 1057.05,2767.31 " fill="none" id="GC-to-US160" style="stroke:#181818;stroke-width:1.0;"/><polygon fill="#181818" points="1062.08,2767.79,1053.4978,2762.9582,1057.1023,2767.318,1052.7426,2770.9225,1062.08,2767.79" style="stroke:#181818;stroke-width:1.0;"/></g><!--MD5=[16efe5a93541133c8574401bd9a0f720]
link GC to US170--><g id="link_GC_US170"><path d="M94.09,3478.48 C104.71,3355.14 144.15,2977.47 234,2902.5 C351.72,2804.28 813.21,2829.64 1029.93,2847.7 " fill="none" id="GC-to-US170" style="stroke:#181818;stroke-width:1.0;"/><polygon fill="#181818" points="1035,2848.12,1026.3621,2843.3885,1030.0172,2847.706,1025.6997,2851.361,1035,2848.12" style="stroke:#181818;stroke-width:1.0;"/></g><!--MD5=[b9916df94d50571f8bfee12c55737f21]
link GC to US180--><g id="link_GC_US180"><path d="M96.13,3478.41 C111.25,3369.84 159.27,3068.63 234,3008.5 C345.55,2918.75 754.17,2929.43 983.92,2943.38 " fill="none" id="GC-to-US180" style="stroke:#181818;stroke-width:1.0;"/><polygon fill="#181818" points="988.97,2943.69,980.2387,2939.1333,983.9798,2943.3763,979.7368,2947.1175,988.97,2943.69" style="stroke:#181818;stroke-width:1.0;"/></g><!--MD5=[4945d4d98de318816cdbb90d11c7e096]
link GC to US190--><g id="link_GC_US190"><path d="M90.74,3478.3 C92.55,3392.2 110.28,3186.85 234,3093.5 C357.42,3000.38 823.25,3024.46 1036.16,3041 " fill="none" id="GC-to-US190" style="stroke:#181818;stroke-width:1.0;"/><polygon fill="#181818" points="1041.45,3041.42,1032.7853,3036.7377,1036.4649,3041.0343,1032.1683,3044.7139,1041.45,3041.42" style="stroke:#181818;stroke-width:1.0;"/></g><!--MD5=[415af502806f8d620e8779a858edd978]
link GC to US200--><g id="link_GC_US200"><path d="M95.47,3478.46 C105.79,3408.43 138.24,3262.63 234,3196.5 C352.28,3114.81 761.18,3122.91 988.33,3134.48 " fill="none" id="GC-to-US200" style="stroke:#181818;stroke-width:1.0;"/><polygon fill="#181818" points="993.32,3134.74,984.5373,3130.283,988.3266,3134.4832,984.1264,3138.2725,993.32,3134.74" style="stroke:#181818;stroke-width:1.0;"/></g><!--MD5=[f7835671ac5e3767d36a74b285965495]
link GC to US210--><g id="link_GC_US210"><path d="M103.84,3478.25 C123.05,3426.61 164.63,3337.7 234,3297.5 C358.31,3225.46 764.31,3229.99 989.53,3238.69 " fill="none" id="GC-to-US210" style="stroke:#181818;stroke-width:1.0;"/><polygon fill="#181818" points="994.81,3238.89,985.9771,3234.5335,989.814,3238.6902,985.6573,3242.5271,994.81,3238.89" style="stroke:#181818;stroke-width:1.0;"/></g><!--MD5=[96b41fd6b0661ed8bcd646e173bd496b]
link GC to US220--><g id="link_GC_US220"><path d="M140.29,3478.49 C166.57,3459.93 200.35,3439.45 234,3428.5 C459.96,3354.98 733.6,3344.98 921.34,3349.29 " fill="none" id="GC-to-US220" style="stroke:#181818;stroke-width:1.0;"/><polygon fill="#181818" points="926.59,3349.42,917.6838,3345.2154,921.5913,3349.3057,917.5009,3353.2133,926.59,3349.42" style="stroke:#181818;stroke-width:1.0;"/></g><!--MD5=[820bec0f2ad3a934d90552ce7a66d870]
link GC to US230--><g id="link_GC_US230"><path d="M149.84,3514.93 C317.04,3507.62 797.38,3486.63 1023.31,3476.75 " fill="none" id="GC-to-US230" style="stroke:#181818;stroke-width:1.0;"/><polygon fill="#181818" points="1028.6,3476.52,1019.437,3472.909,1023.6046,3476.7341,1019.7795,3480.9017,1028.6,3476.52" style="stroke:#181818;stroke-width:1.0;"/></g><!--MD5=[be5c8eeefe5f6bbf9c85c9636b8db64b]
link GC to US240--><g id="link_GC_US240"><path d="M149.84,3520.07 C311.96,3527.16 768.51,3547.11 1002.05,3557.32 " fill="none" id="GC-to-US240" style="stroke:#181818;stroke-width:1.0;"/><polygon fill="#181818" points="1007.19,3557.54,998.3826,3553.132,1002.1952,3557.311,998.0163,3561.1236,1007.19,3557.54" style="stroke:#181818;stroke-width:1.0;"/></g><!--MD5=[e84ac9f550bc34acb02736e144bedab1]
link GC to US250--><g id="link_GC_US250"><path d="M136.66,3556.56 C163.24,3576.85 198.44,3599.81 234,3611.5 C498.9,3698.6 830.43,3688.95 1011.08,3674.52 " fill="none" id="GC-to-US250" style="stroke:#181818;stroke-width:1.0;"/><polygon fill="#181818" points="1016.12,3674.11,1006.8289,3670.8426,1011.136,3674.5099,1007.4687,3678.8169,1016.12,3674.11" style="stroke:#181818;stroke-width:1.0;"/></g><!--MD5=[dbaf269971bed17cfd65f0b81a8c670c]
link GC to US260--><g id="link_GC_US260"><path d="M107.5,3556.63 C129.12,3602.37 171.75,3676.07 234,3709.5 C361.09,3777.74 768.95,3774.11 992.85,3766.39 " fill="none" id="GC-to-US260" style="stroke:#181818;stroke-width:1.0;"/><polygon fill="#181818" points="998.1,3766.21,988.9577,3762.5468,993.1034,3766.3956,989.2547,3770.5413,998.1,3766.21" style="stroke:#181818;stroke-width:1.0;"/></g><!--MD5=[068b7693bcec9c7f56fbf5530c1ff874]
link GC to US270--><g id="link_GC_US270"><path d="M97.25,3556.53 C109.99,3621.7 145.61,3751.28 234,3809.5 C359.84,3892.38 802.56,3876.78 1020.47,3863.41 " fill="none" id="GC-to-US270" style="stroke:#181818;stroke-width:1.0;"/><polygon fill="#181818" points="1025.58,3863.09,1016.3462,3859.6641,1020.5899,3863.4046,1016.8495,3867.6483,1025.58,3863.09" style="stroke:#181818;stroke-width:1.0;"/></g><!--MD5=[a260c6ee81b46522f425fac04274f2af]
link GC to US280--><g id="link_GC_US280"><path d="M92.38,3556.5 C97.54,3636.25 121.69,3817.34 234,3899.5 C355.46,3988.35 799.25,3970.49 1018.79,3955.5 " fill="none" id="GC-to-US280" style="stroke:#181818;stroke-width:1.0;"/><polygon fill="#181818" points="1023.93,3955.14,1014.6768,3951.7669,1018.9418,3955.483,1015.2256,3959.748,1023.93,3955.14" style="stroke:#181818;stroke-width:1.0;"/></g><!--MD5=[236829821c375ea02b693a2b02e4c65b]
link GC to US290--><g id="link_GC_US290"><path d="M96.95,3556.55 C113.56,3659.93 163.86,3936.6 234,3991.5 C351.81,4083.72 792.52,4064.73 1014.31,4048.55 " fill="none" id="GC-to-US290" style="stroke:#181818;stroke-width:1.0;"/><polygon fill="#181818" points="1019.5,4048.17,1010.2372,4044.8233,1014.5128,4048.5273,1010.8088,4052.8028,1019.5,4048.17" style="stroke:#181818;stroke-width:1.0;"/></g><!--MD5=[82e25adc4949853fe2c53dd5c7eebcc3]
link GC to US300--><g id="link_GC_US300"><path d="M94.97,3556.73 C107.67,3673.66 151.38,4015.95 234,4084.5 C341.48,4173.69 733.38,4166.48 966.21,4153.43 " fill="none" id="GC-to-US300" style="stroke:#181818;stroke-width:1.0;"/><polygon fill="#181818" points="971.34,4153.14,962.1265,4149.66,966.3481,4153.4252,962.5829,4157.6469,971.34,4153.14" style="stroke:#181818;stroke-width:1.0;"/></g><!--MD5=[b90d6d383853d45f4c2dd92c37167a26]
link GC to US310--><g id="link_GC_US310"><path d="M93.18,3556.83 C101.4,3688.92 135.17,4113.06 234,4197.5 C348.27,4295.13 794.47,4273.12 1016.53,4255.32 " fill="none" id="GC-to-US310" style="stroke:#181818;stroke-width:1.0;"/><polygon fill="#181818" points="1021.74,4254.9,1012.4489,4251.6326,1016.756,4255.2999,1013.0887,4259.6069,1021.74,4254.9" style="stroke:#181818;stroke-width:1.0;"/></g><!--MD5=[2d45845b48fbc73fad0d901e4d05de54]
link GC to US130--><g id="link_GC_US130"><path d="M92.32,3556.83 C98,3699.84 125.19,4189.06 234,4290.5 C384.28,4430.59 614.75,4455.45 806.08,4445.74 " fill="none" id="GC-to-US130" style="stroke:#181818;stroke-width:1.0;"/><polygon fill="#181818" points="811.16,4445.47,801.9659,4441.9389,806.1666,4445.7275,802.378,4449.9283,811.16,4445.47" style="stroke:#181818;stroke-width:1.0;"/></g><!--MD5=[7a38a3652cf7ed957272ed5a34004cbb]
link GF to US350--><g id="link_GF_US350"><path d="M109.77,2328.13 C132.62,2284.96 175.52,2217.47 234,2184.5 C374.38,2105.35 546.14,2071.79 702.43,2060.12 " fill="none" id="GF-to-US350" style="stroke:#181818;stroke-width:1.0;"/><polygon fill="#181818" points="707.52,2059.74,698.2477,2056.4197,702.5338,2060.1115,698.842,2064.3976,707.52,2059.74" style="stroke:#181818;stroke-width:1.0;"/></g><!--MD5=[69be825c1069047189f0ee7dbd28ed44]
link GF to US360--><g id="link_GF_US360"><path d="M140.81,2351.91 C168.07,2343.97 202.61,2334.89 234,2329.5 C450.74,2292.31 699.87,2273.99 882.52,2265.01 " fill="none" id="GF-to-US360" style="stroke:#181818;stroke-width:1.0;"/><polygon fill="#181818" points="887.64,2264.76,878.456,2261.2026,882.6459,2265.0033,878.8453,2269.1931,887.64,2264.76" style="stroke:#181818;stroke-width:1.0;"/></g><!--MD5=[58dc2b3f330ae460902aef9e70d8ac64]
link GF to US370--><g id="link_GF_US370"><path d="M140.7,2367.5 C304.24,2367.5 827.56,2367.5 1046.13,2367.5 " fill="none" id="GF-to-US370" style="stroke:#181818;stroke-width:1.0;"/><polygon fill="#181818" points="1051.24,2367.5,1042.24,2363.5,1046.24,2367.5,1042.24,2371.5,1051.24,2367.5" style="stroke:#181818;stroke-width:1.0;"/></g><!--MD5=[962458bacb8664866558b8a9f5c9b593]
link GF to US380--><g id="link_GF_US380"><path d="M140.73,2383.84 C167.97,2392.09 202.5,2401.4 234,2406.5 C496.53,2449.02 806.63,2457.26 988.51,2457.9 " fill="none" id="GF-to-US380" style="stroke:#181818;stroke-width:1.0;"/><polygon fill="#181818" points="993.59,2457.91,984.6015,2453.8843,988.59,2457.8957,984.5786,2461.8843,993.59,2457.91" style="stroke:#181818;stroke-width:1.0;"/></g><!--MD5=[d98c329e8ce3a519e472a3f72d160ad9]
link GF to US390--><g id="link_GF_US390"><path d="M118.67,2406.53 C144.42,2439.44 185.97,2484.57 234,2506.5 C433.41,2597.57 682.88,2612.99 870.07,2607.93 " fill="none" id="GF-to-US390" style="stroke:#181818;stroke-width:1.0;"/><polygon fill="#181818" points="875.32,2607.78,866.2091,2604.0394,870.3221,2607.9232,866.4383,2612.0361,875.32,2607.78" style="stroke:#181818;stroke-width:1.0;"/></g><!--MD5=[5a9f3d5ff584be9ece5d2566fd6011c9]
link GT to US1220--><g id="link_GT_US1220"><path d="M148.33,470.5 C279.18,470.5 607.33,470.5 851.25,470.5 " fill="none" id="GT-to-US1220" style="stroke:#181818;stroke-width:1.0;"/><polygon fill="#181818" points="856.28,470.5,847.28,466.5,851.28,470.5,847.28,474.5,856.28,470.5" style="stroke:#181818;stroke-width:1.0;"/></g><!--MD5=[55570733b1d695546cd4fb3abfef1a03]
link GU to US90--><g id="link_GU_US90"><path d="M161.28,190.5 C180.58,190.5 203.31,190.5 228.78,190.5 " fill="none" id="GU-to-US90" style="stroke:#181818;stroke-width:1.0;"/><polygon fill="#181818" points="233.91,190.5,224.91,186.5,228.91,190.5,224.91,194.5,233.91,190.5" style="stroke:#181818;stroke-width:1.0;"/></g><!--MD5=[2eaa203ca973b0d7fc6e269c674b5541]
link AdS to US640--><g id="link_AdS_US640"><path d="M96.29,1238.41 C111.81,1129.81 160.79,828.28 234,765.5 C375.73,643.96 578.74,610.98 757.02,610.88 " fill="none" id="AdS-to-US640" style="stroke:#181818;stroke-width:1.0;"/><polygon fill="#181818" points="762.02,610.89,753.0315,606.8643,757.02,610.8757,753.0086,614.8643,762.02,610.89" style="stroke:#181818;stroke-width:1.0;"/></g><!--MD5=[af5ba7e288ed142c8ab5ef48e7dd9e8c]
link AdS to US650--><g id="link_AdS_US650"><path d="M94.57,1238.25 C103.52,1164.97 133.98,1008.12 234,934.5 C420.26,797.41 689.45,788.92 886.65,807.01 " fill="none" id="AdS-to-US650" style="stroke:#181818;stroke-width:1.0;"/><polygon fill="#181818" points="891.88,807.5,883.2965,802.6705,886.9022,807.0293,882.5434,810.635,891.88,807.5" style="stroke:#181818;stroke-width:1.0;"/></g><!--MD5=[9c9c4a606c2e9b0fa8d6151ddbd9dd2b]
link AdS to US660--><g id="link_AdS_US660"><path d="M117.04,1238.2 C142.43,1203.46 184.39,1154.67 234,1130.5 C393.96,1052.59 588.1,1024.1 755.87,1016.7 " fill="none" id="AdS-to-US660" style="stroke:#181818;stroke-width:1.0;"/><polygon fill="#181818" points="761.32,1016.46,752.157,1012.849,756.3246,1016.6741,752.4995,1020.8417,761.32,1016.46" style="stroke:#181818;stroke-width:1.0;"/></g><!--MD5=[9c746a3725a76226a88b4b132b38c0da]
link AdS to US670--><g id="link_AdS_US670"><path d="M174.03,1271.5 C328.52,1260.35 665.57,1236.01 898.51,1219.19 " fill="none" id="AdS-to-US670" style="stroke:#181818;stroke-width:1.0;"/><polygon fill="#181818" points="903.65,1218.82,894.3784,1215.4977,898.6637,1219.1904,894.9711,1223.4757,903.65,1218.82" style="stroke:#181818;stroke-width:1.0;"/></g><!--MD5=[2a8d18f2ded619d254c97fcf9505fe7e]
link AdS to US800--><g id="link_AdS_US800"><path d="M174.03,1283.5 C318.64,1293.94 623.22,1315.93 852.63,1332.5 " fill="none" id="AdS-to-US800" style="stroke:#181818;stroke-width:1.0;"/><polygon fill="#181818" points="857.69,1332.86,848.9988,1328.2272,852.7028,1332.5027,848.4272,1336.2067,857.69,1332.86" style="stroke:#181818;stroke-width:1.0;"/></g><!--MD5=[dde82808dcaccad802e3e31fd6b64bbe]
link AdS to US810--><g id="link_AdS_US810"><path d="M114.93,1316.62 C139.8,1353.57 182.3,1407.26 234,1434.5 C348.09,1494.6 480.9,1529.3 609.2,1548.65 " fill="none" id="AdS-to-US810" style="stroke:#181818;stroke-width:1.0;"/><polygon fill="#181818" points="614.15,1549.39,605.8444,1544.0968,609.2055,1548.6469,604.6555,1552.008,614.15,1549.39" style="stroke:#181818;stroke-width:1.0;"/></g><!--MD5=[7d44cc43f56fdde1c73a5c5bbfa85c26]
link AdS to US820--><g id="link_AdS_US820"><path d="M91.5,1316.72 C94.9,1400.37 115.77,1596.08 234,1687.5 C436.43,1844.02 745.48,1832.49 946.03,1802.66 " fill="none" id="AdS-to-US820" style="stroke:#181818;stroke-width:1.0;"/><polygon fill="#181818" points="951.04,1801.9,941.5455,1799.282,946.0955,1802.6431,942.7344,1807.1932,951.04,1801.9" style="stroke:#181818;stroke-width:1.0;"/></g><!--MD5=[eb8a44416d95f302fd7d27e3b2073d51]
link AdS to US830--><g id="link_AdS_US830"><path d="M95.14,1316.55 C108.23,1432.14 152.79,1768.67 234,1836.5 C334.22,1920.2 682.96,1923.02 918.3,1914.44 " fill="none" id="AdS-to-US830" style="stroke:#181818;stroke-width:1.0;"/><polygon fill="#181818" points="923.5,1914.25,914.3577,1910.5868,918.5034,1914.4356,914.6547,1918.5813,923.5,1914.25" style="stroke:#181818;stroke-width:1.0;"/></g><!--MD5=[fa153f7399ae33a8bd003c4b24cc3a7c]
@startuml

usecase US150 as "US150 - Criar edifício"
usecase US160 as "US160 - Editar edifício"
usecase US170 as "US170 - Listar todos os edifícios"
usecase US180 as "US180 - Listar edifícios com min e max de pisos"
usecase US190 as "US190 - Criar piso de edifício"
usecase US200 as "US200 - Editar informação de piso de edifício"
usecase US210 as "US210 - Listar todos os pisos de um edifício"
usecase US220 as "US220 - Listar pisos de edifício com passagem para outros edifícios"
usecase US230 as "US230 - Carregar mapa de piso"
usecase US240 as "US240 - Criar passagem entre edifícios"
usecase US250 as "US250 - Editar passagem entre edifícios"
usecase US260 as "US260 - Listar passagens entre 2 edifícios"
usecase US270 as "US270 - Criar elevador em edifício"
usecase US280 as "US280 - Editar elevador em edifício"
usecase US290 as "US290 - Listar elevadores em edifício"
usecase US300 as "US300 - Listar pisos de edifício servidos por elevador"
usecase US310 as "US310 - Criar sala de piso de edifício"
usecase US350 as "US350 - Adicionar um novo tipo de robot indicando a sua designação e que tipos de tarefas pode executar da lista prédefinida de tarefas"
usecase US360 as "US360 - Adicionar um novo robot à frota indicando o seu tipo, designação, etc"
usecase US370 as "US370 - Inibir um robot"
usecase US380 as "US380 - Consultar todos os robots da frota"
usecase US390 as "US390 - Pesquisar todos os robots da frota por designação ou tarefa que pode executar"
usecase US640 as "US640 - Deployment de um dos módulos do RFP numa VM do DEI seja sistemático, validando de forma agendada com o plano de testes"
usecase US650 as "US650 - Apenas os clientes da rede interna do DEI (cablada ou via VPN) possam aceder à solução"
usecase US660 as "US660 - Os clientes indicados na user story anterior possam ser definidos pela simples alteração de um ficheiro de texto"
usecase US670 as "US670 - Identificar e quantificar os riscos envolvidos na solução preconizada"
usecase US800 as "US800 - Definir o MBCO (Minimum Business Continuity Objective) a propor aos stakeholders"
usecase US810 as "US810 - Proposta, justificada e implementada uma estratégia de cópia de segurança que minimize o RPO (Recovery Point Objective) e o WRT (Work Recovery Time)"
usecase US820 as "US820 - Definir uma pasta pública para todos os utilizadores registados no sistema"
usecase US830 as "US830 - Obter os utilizadores com mais do que 3 acessos incorretos"
usecase US130 as "US130 - Upload do mapa do campus considerando edifícios e ligações interiores entre os mesmos para ser utilizado pelos robots"
usecase US1220 as "US1220 - Obter os caminhos entre dois edificos considerando um critério de otimização"
usecase US90 as "US90 - Relatório que, descrevendo a solução encontrada e considerando as normas do RGPD, identifique concretamente os dados pessoais utilizados, o tratamento a que serão sujeitos, bem como a finalidade e fundamento daquele tratamento e, ainda, o responsável pelo tratamento."

actor "Gestor de Campus" as GC
actor "Gestor de Frota" as GF
actor "Gestor de Tarefas" as GT
actor "Gestão de Utilizadores" as GU
actor "Administrador de Sistemas" as AdS

left to right direction

GC - -> (US150)
GC - -> (US160)
GC - -> (US170)
GC - -> (US180)
GC - -> (US190)
GC - -> (US200)
GC - -> (US210)
GC - -> (US220)
GC - -> (US230)
GC - -> (US240)
GC - -> (US250)
GC - -> (US260)
GC - -> (US270)
GC - -> (US280)
GC - -> (US290)
GC - -> (US300)
GC - -> (US310)
GC - -> (US130)

GF - -> (US350)
GF - -> (US360)
GF - -> (US370)
GF - -> (US380)
GF - -> (US390)

GT - -> (US1220)

GU - -> (US90)

AdS - -> (US640) 
AdS - -> (US650)
AdS - -> (US660)
AdS - -> (US670)
AdS - -> (US800)
AdS - -> (US810)
AdS - -> (US820)
AdS - -> (US830)

@enduml

PlantUML version 1.2022.7(Mon Aug 22 18:01:30 BST 2022)
(GPL source distribution)
Java Runtime: OpenJDK Runtime Environment
JVM: OpenJDK 64-Bit Server VM
Default Encoding: Cp1252
Language: pt
Country: PT
--></g></svg>