<?xml version="1.0" encoding="UTF-8" standalone="no"?><svg xmlns="http://www.w3.org/2000/svg" xmlns:xlink="http://www.w3.org/1999/xlink" contentStyleType="text/css" height="384px" preserveAspectRatio="none" style="width:553px;height:384px;background:#FFFFFF;" version="1.1" viewBox="0 0 553 384" width="553px" zoomAndPan="magnify"><defs/><g><rect fill="none" height="125.2422" style="stroke:#000000;stroke-width:1.5;" width="536.5" x="10" y="160.3125"/><line style="stroke:#181818;stroke-width:0.5;stroke-dasharray:5.0,5.0;" x1="82" x2="82" y1="82.6094" y2="302.5547"/><line style="stroke:#181818;stroke-width:0.5;stroke-dasharray:5.0,5.0;" x1="474.5" x2="474.5" y1="82.6094" y2="302.5547"/><text fill="#000000" font-family="sans-serif" font-size="14" lengthAdjust="spacing" textLength="119" x="20" y="79.5332">Gestor de Campus</text><ellipse cx="82.5" cy="13.5" fill="#E2E2F0" rx="8" ry="8" style="stroke:#181818;stroke-width:0.5;"/><path d="M82.5,21.5 L82.5,48.5 M69.5,29.5 L95.5,29.5 M82.5,48.5 L69.5,63.5 M82.5,48.5 L95.5,63.5 " fill="none" style="stroke:#181818;stroke-width:0.5;"/><text fill="#000000" font-family="sans-serif" font-size="14" lengthAdjust="spacing" textLength="119" x="20" y="316.0879">Gestor de Campus</text><ellipse cx="82.5" cy="327.6641" fill="#E2E2F0" rx="8" ry="8" style="stroke:#181818;stroke-width:0.5;"/><path d="M82.5,335.6641 L82.5,362.6641 M69.5,343.6641 L95.5,343.6641 M82.5,362.6641 L69.5,377.6641 M82.5,362.6641 L95.5,377.6641 " fill="none" style="stroke:#181818;stroke-width:0.5;"/><rect fill="#E2E2F0" height="49.2188" rx="2.5" ry="2.5" style="stroke:#181818;stroke-width:0.5;" width="124" x="412.5" y="32.3906"/><text fill="#000000" font-family="sans-serif" font-size="14" lengthAdjust="spacing" textLength="110" x="419.5" y="53.9238">&lt;&lt;System (C4)&gt;&gt;</text><text fill="#000000" font-family="sans-serif" font-size="14" lengthAdjust="spacing" textLength="84" x="434.5" y="71.5332">RobDroneGo</text><rect fill="#E2E2F0" height="49.2188" rx="2.5" ry="2.5" style="stroke:#181818;stroke-width:0.5;" width="124" x="412.5" y="301.5547"/><text fill="#000000" font-family="sans-serif" font-size="14" lengthAdjust="spacing" textLength="110" x="419.5" y="323.0879">&lt;&lt;System (C4)&gt;&gt;</text><text fill="#000000" font-family="sans-serif" font-size="14" lengthAdjust="spacing" textLength="84" x="434.5" y="340.6973">RobDroneGo</text><polygon fill="#181818" points="462.5,110.9609,472.5,114.9609,462.5,118.9609,466.5,114.9609" style="stroke:#181818;stroke-width:1.0;"/><line style="stroke:#181818;stroke-width:1.0;" x1="82.5" x2="468.5" y1="114.9609" y2="114.9609"/><text fill="#000000" font-family="sans-serif" font-size="13" font-weight="bold" lengthAdjust="spacing" textLength="7" x="89.5" y="110.1045">1</text><text fill="#000000" font-family="sans-serif" font-size="13" lengthAdjust="spacing" textLength="271" x="100.5" y="110.1045">faz pedido para listar passagens entre edificios</text><polygon fill="#181818" points="93.5,141.3125,83.5,145.3125,93.5,149.3125,89.5,145.3125" style="stroke:#181818;stroke-width:1.0;"/><line style="stroke:#181818;stroke-width:1.0;stroke-dasharray:2.0,2.0;" x1="87.5" x2="473.5" y1="145.3125" y2="145.3125"/><text fill="#000000" font-family="sans-serif" font-size="13" font-weight="bold" lengthAdjust="spacing" textLength="7" x="99.5" y="140.4561">2</text><text fill="#000000" font-family="sans-serif" font-size="13" lengthAdjust="spacing" textLength="244" x="110.5" y="140.4561">solicita os dados para listar as passagens</text><path d="M10,160.3125 L71,160.3125 L71,168.6641 L61,178.6641 L10,178.6641 L10,160.3125 " fill="#EEEEEE" style="stroke:#000000;stroke-width:1.5;"/><rect fill="none" height="125.2422" style="stroke:#000000;stroke-width:1.5;" width="536.5" x="10" y="160.3125"/><text fill="#000000" font-family="sans-serif" font-size="13" font-weight="bold" lengthAdjust="spacing" textLength="16" x="25" y="174.8076">alt</text><text fill="#000000" font-family="sans-serif" font-size="11" font-weight="bold" lengthAdjust="spacing" textLength="112" x="86" y="173.7314">[edificio 1, edificio 2]</text><polygon fill="#181818" points="462.5,197.0156,472.5,201.0156,462.5,205.0156,466.5,201.0156" style="stroke:#181818;stroke-width:1.0;"/><line style="stroke:#181818;stroke-width:1.0;" x1="82.5" x2="468.5" y1="201.0156" y2="201.0156"/><text fill="#000000" font-family="sans-serif" font-size="13" font-weight="bold" lengthAdjust="spacing" textLength="7" x="89.5" y="196.1592">3</text><text fill="#000000" font-family="sans-serif" font-size="13" lengthAdjust="spacing" textLength="357" x="100.5" y="196.1592">insere os edificios para os quais pretende listar as passagens</text><polygon fill="#181818" points="93.5,227.3672,83.5,231.3672,93.5,235.3672,89.5,231.3672" style="stroke:#181818;stroke-width:1.0;"/><line style="stroke:#181818;stroke-width:1.0;stroke-dasharray:2.0,2.0;" x1="87.5" x2="473.5" y1="231.3672" y2="231.3672"/><text fill="#000000" font-family="sans-serif" font-size="13" font-weight="bold" lengthAdjust="spacing" textLength="7" x="99.5" y="226.5107">4</text><text fill="#000000" font-family="sans-serif" font-size="13" lengthAdjust="spacing" textLength="283" x="110.5" y="226.5107">apresenta a lista de passagens entre os edificios</text><line style="stroke:#000000;stroke-width:1.0;stroke-dasharray:2.0,2.0;" x1="10" x2="546.5" y1="240.3672" y2="240.3672"/><text fill="#000000" font-family="sans-serif" font-size="11" font-weight="bold" lengthAdjust="spacing" textLength="141" x="15" y="251.7861">[sem identificar edificios]</text><polygon fill="#181818" points="93.5,273.5547,83.5,277.5547,93.5,281.5547,89.5,277.5547" style="stroke:#181818;stroke-width:1.0;"/><line style="stroke:#181818;stroke-width:1.0;stroke-dasharray:2.0,2.0;" x1="87.5" x2="473.5" y1="277.5547" y2="277.5547"/><text fill="#000000" font-family="sans-serif" font-size="13" font-weight="bold" lengthAdjust="spacing" textLength="7" x="99.5" y="272.6982">5</text><text fill="#000000" font-family="sans-serif" font-size="13" lengthAdjust="spacing" textLength="283" x="110.5" y="272.6982">apresenta a lista de passagens entre os edificios</text><!--MD5=[0b842f587abbc67e8b4ba103c4bcaf4d]
@startuml
autonumber
actor "Gestor de Campus"


"Gestor de Campus" -> "<<System (C4)>>\n RobDroneGo" : faz pedido para listar passagens entre edificios

"<<System (C4)>>\n RobDroneGo" - -> "Gestor de Campus" : solicita os dados para listar as passagens

alt edificio 1, edificio 2

"Gestor de Campus" -> "<<System (C4)>>\n RobDroneGo" : insere os edificios para os quais pretende listar as passagens

"<<System (C4)>>\n RobDroneGo" - -> "Gestor de Campus" : apresenta a lista de passagens entre os edificios

else  sem identificar edificios 

"<<System (C4)>>\n RobDroneGo" - -> "Gestor de Campus" : apresenta a lista de passagens entre os edificios


end alt 


@enduml

PlantUML version 1.2022.7(Mon Aug 22 18:01:30 WEST 2022)
(GPL source distribution)
Java Runtime: Java(TM) SE Runtime Environment
JVM: Java HotSpot(TM) 64-Bit Server VM
Default Encoding: UTF-8
Language: pt
Country: PT
--></g></svg>