<?xml version="1.0" encoding="UTF-8" standalone="no"?><svg xmlns="http://www.w3.org/2000/svg" xmlns:xlink="http://www.w3.org/1999/xlink" contentStyleType="text/css" height="261px" preserveAspectRatio="none" style="width:362px;height:261px;background:#FFFFFF;" version="1.1" viewBox="0 0 362 261" width="362px" zoomAndPan="magnify"><defs/><g><rect fill="#FFFFFF" height="69.0547" style="stroke:#181818;stroke-width:1.0;" width="10" x="62.5" y="92.6094"/><rect fill="#FFFFFF" height="30.3516" style="stroke:#181818;stroke-width:1.0;" width="10" x="289.5" y="131.3125"/><line style="stroke:#181818;stroke-width:0.5;stroke-dasharray:5.0,5.0;" x1="67" x2="67" y1="82.6094" y2="179.6641"/><line style="stroke:#181818;stroke-width:0.5;stroke-dasharray:5.0,5.0;" x1="294.5" x2="294.5" y1="82.6094" y2="179.6641"/><text fill="#000000" font-family="sans-serif" font-size="14" lengthAdjust="spacing" textLength="119" x="5" y="79.5332">Gestor de Campus</text><ellipse cx="67.5" cy="13.5" fill="#E2E2F0" rx="8" ry="8" style="stroke:#181818;stroke-width:0.5;"/><path d="M67.5,21.5 L67.5,48.5 M54.5,29.5 L80.5,29.5 M67.5,48.5 L54.5,63.5 M67.5,48.5 L80.5,63.5 " fill="none" style="stroke:#181818;stroke-width:0.5;"/><text fill="#000000" font-family="sans-serif" font-size="14" lengthAdjust="spacing" textLength="119" x="5" y="193.1973">Gestor de Campus</text><ellipse cx="67.5" cy="204.7734" fill="#E2E2F0" rx="8" ry="8" style="stroke:#181818;stroke-width:0.5;"/><path d="M67.5,212.7734 L67.5,239.7734 M54.5,220.7734 L80.5,220.7734 M67.5,239.7734 L54.5,254.7734 M67.5,239.7734 L80.5,254.7734 " fill="none" style="stroke:#181818;stroke-width:0.5;"/><rect fill="#E2E2F0" height="49.2188" rx="2.5" ry="2.5" style="stroke:#181818;stroke-width:0.5;" width="124" x="232.5" y="32.3906"/><text fill="#000000" font-family="sans-serif" font-size="14" lengthAdjust="spacing" textLength="110" x="239.5" y="53.9238">&lt;&lt;System (C4)&gt;&gt;</text><text fill="#000000" font-family="sans-serif" font-size="14" lengthAdjust="spacing" textLength="84" x="254.5" y="71.5332">RobDroneGo</text><rect fill="#E2E2F0" height="49.2188" rx="2.5" ry="2.5" style="stroke:#181818;stroke-width:0.5;" width="124" x="232.5" y="178.6641"/><text fill="#000000" font-family="sans-serif" font-size="14" lengthAdjust="spacing" textLength="110" x="239.5" y="200.1973">&lt;&lt;System (C4)&gt;&gt;</text><text fill="#000000" font-family="sans-serif" font-size="14" lengthAdjust="spacing" textLength="84" x="254.5" y="217.8066">RobDroneGo</text><rect fill="#FFFFFF" height="69.0547" style="stroke:#181818;stroke-width:1.0;" width="10" x="62.5" y="92.6094"/><rect fill="#FFFFFF" height="30.3516" style="stroke:#181818;stroke-width:1.0;" width="10" x="289.5" y="131.3125"/><polygon fill="#181818" points="277.5,127.3125,287.5,131.3125,277.5,135.3125,281.5,131.3125" style="stroke:#181818;stroke-width:1.0;"/><line style="stroke:#181818;stroke-width:1.0;" x1="72.5" x2="283.5" y1="131.3125" y2="131.3125"/><text fill="#000000" font-family="sans-serif" font-size="13" font-weight="bold" lengthAdjust="spacing" textLength="7" x="79.5" y="118.2803">1</text><text fill="#000000" font-family="sans-serif" font-size="13" lengthAdjust="spacing" textLength="187" x="90.5" y="110.1045">Iniciar o processo de listar pisos</text><text fill="#000000" font-family="sans-serif" font-size="13" lengthAdjust="spacing" textLength="182" x="90.5" y="126.4561">servidos por elevador de edificio</text><polygon fill="#181818" points="78.5,157.6641,68.5,161.6641,78.5,165.6641,74.5,161.6641" style="stroke:#181818;stroke-width:1.0;"/><line style="stroke:#181818;stroke-width:1.0;stroke-dasharray:2.0,2.0;" x1="72.5" x2="293.5" y1="161.6641" y2="161.6641"/><text fill="#000000" font-family="sans-serif" font-size="13" font-weight="bold" lengthAdjust="spacing" textLength="7" x="84.5" y="156.8076">2</text><text fill="#000000" font-family="sans-serif" font-size="13" lengthAdjust="spacing" textLength="121" x="95.5" y="156.8076">Mostra lista de pisos</text><!--MD5=[a6845b233f0fbfb547812d51428806a2]
@startuml

actor "Fleet Manager" as manager
participant "UI Layer" as ui
participant "System" as system

manager -> ui: Initiate "Create Robot" use case
activate ui

ui -> system: Request to create robot
activate system

system --> ui: Ask for robot data
deactivate system
activate ui

manager -> ui: Provide robot data
deactivate ui
activate system

system --> ui: Inform of success or failure
deactivate system
activate ui

ui -> manager: Display success or failure message
deactivate ui

@enduml
PlantUML version 1.2022.7(Mon Aug 22 18:01:30 BST 2022)
(GPL source distribution)
Java Runtime: Java(TM) SE Runtime Environment
JVM: Java HotSpot(TM) 64-Bit Server VM
Default Encoding: Cp1252
Language: pt
Country: PT
--></g></svg>