<?xml version="1.0" encoding="UTF-8" standalone="no"?><svg xmlns="http://www.w3.org/2000/svg" xmlns:xlink="http://www.w3.org/1999/xlink" contentStyleType="text/css" height="281px" preserveAspectRatio="none" style="width:476px;height:281px;background:#FFFFFF;" version="1.1" viewBox="0 0 476 281" width="476px" zoomAndPan="magnify"><defs/><g><line style="stroke:#181818;stroke-width:0.5;stroke-dasharray:5.0,5.0;" x1="66" x2="66" y1="82.6094" y2="199.6641"/><line style="stroke:#181818;stroke-width:0.5;stroke-dasharray:5.0,5.0;" x1="408" x2="408" y1="82.6094" y2="199.6641"/><text fill="#000000" font-family="sans-serif" font-size="14" lengthAdjust="spacing" textLength="116" x="5" y="79.5332">Gestor de Tarefas</text><ellipse cx="66" cy="13.5" fill="#E2E2F0" rx="8" ry="8" style="stroke:#181818;stroke-width:0.5;"/><path d="M66,21.5 L66,48.5 M53,29.5 L79,29.5 M66,48.5 L53,63.5 M66,48.5 L79,63.5 " fill="none" style="stroke:#181818;stroke-width:0.5;"/><text fill="#000000" font-family="sans-serif" font-size="14" lengthAdjust="spacing" textLength="116" x="5" y="213.1973">Gestor de Tarefas</text><ellipse cx="66" cy="224.7734" fill="#E2E2F0" rx="8" ry="8" style="stroke:#181818;stroke-width:0.5;"/><path d="M66,232.7734 L66,259.7734 M53,240.7734 L79,240.7734 M66,259.7734 L53,274.7734 M66,259.7734 L79,274.7734 " fill="none" style="stroke:#181818;stroke-width:0.5;"/><rect fill="#E2E2F0" height="49.2188" rx="2.5" ry="2.5" style="stroke:#181818;stroke-width:0.5;" width="124" x="346" y="32.3906"/><text fill="#000000" font-family="sans-serif" font-size="14" lengthAdjust="spacing" textLength="110" x="353" y="53.9238">&lt;&lt;System (C4)&gt;&gt;</text><text fill="#000000" font-family="sans-serif" font-size="14" lengthAdjust="spacing" textLength="84" x="368" y="71.5332">RobDroneGo</text><rect fill="#E2E2F0" height="49.2188" rx="2.5" ry="2.5" style="stroke:#181818;stroke-width:0.5;" width="124" x="346" y="198.6641"/><text fill="#000000" font-family="sans-serif" font-size="14" lengthAdjust="spacing" textLength="110" x="353" y="220.1973">&lt;&lt;System (C4)&gt;&gt;</text><text fill="#000000" font-family="sans-serif" font-size="14" lengthAdjust="spacing" textLength="84" x="368" y="237.8066">RobDroneGo</text><path d="M7,97.6094 L7,123.6094 L467,123.6094 L467,107.6094 L457,97.6094 L7,97.6094 " fill="#FEFFDD" style="stroke:#181818;stroke-width:0.5;"/><path d="M457,97.6094 L457,107.6094 L467,107.6094 L457,97.6094 " fill="#FEFFDD" style="stroke:#181818;stroke-width:0.5;"/><text fill="#000000" font-family="sans-serif" font-size="13" lengthAdjust="spacing" textLength="283" x="91" y="116.1045">ver Diagrama LogIn(representa interaçao anterior)</text><polygon fill="#181818" points="396,147.3125,406,151.3125,396,155.3125,400,151.3125" style="stroke:#181818;stroke-width:1.0;"/><line style="stroke:#181818;stroke-width:1.0;" x1="66" x2="402" y1="151.3125" y2="151.3125"/><text fill="#000000" font-family="sans-serif" font-size="13" font-weight="bold" lengthAdjust="spacing" textLength="7" x="73" y="146.4561">1</text><text fill="#000000" font-family="sans-serif" font-size="13" lengthAdjust="spacing" textLength="307" x="84" y="146.4561">faz pedido para listar tarefas pendentes de aprovação</text><polygon fill="#181818" points="77,177.6641,67,181.6641,77,185.6641,73,181.6641" style="stroke:#181818;stroke-width:1.0;"/><line style="stroke:#181818;stroke-width:1.0;stroke-dasharray:2.0,2.0;" x1="71" x2="407" y1="181.6641" y2="181.6641"/><text fill="#000000" font-family="sans-serif" font-size="13" font-weight="bold" lengthAdjust="spacing" textLength="7" x="83" y="176.8076">2</text><text fill="#000000" font-family="sans-serif" font-size="13" lengthAdjust="spacing" textLength="303" x="94" y="176.8076">mostra a lista de tarefas com estado para aprovação</text><!--MD5=[3c10e57d04d8442e3938e59fc6a148b0]
@startuml
autonumber
actor "Gestor de Tarefas"

' Referência ao diagrama anterior
note over "Gestor de Tarefas", "<<System (C4)>>\n RobDroneGo"
  ver Diagrama LogIn(representa interaçao anterior)
end note

"Gestor de Tarefas" -> "<<System (C4)>>\n RobDroneGo" : faz pedido para listar tarefas pendentes de aprovação

"<<System (C4)>>\n RobDroneGo" - -> "Gestor de Tarefas" : mostra a lista de tarefas com estado para aprovação


@enduml

@startuml
autonumber
actor "Gestor de Tarefas"

note over "Gestor de Tarefas", "<<System (C4)>>\n RobDroneGo"
  ver Diagrama LogIn(representa interaçao anterior)
end note

"Gestor de Tarefas" -> "<<System (C4)>>\n RobDroneGo" : faz pedido para listar tarefas pendentes de aprovação

"<<System (C4)>>\n RobDroneGo" - -> "Gestor de Tarefas" : mostra a lista de tarefas com estado para aprovação


@enduml

PlantUML version 1.2022.7(Mon Aug 22 18:01:30 WEST 2022)
(GPL source distribution)
Java Runtime: Java(TM) SE Runtime Environment
JVM: Java HotSpot(TM) 64-Bit Server VM
Default Encoding: UTF-8
Language: pt
Country: PT
--></g></svg>