<?xml version="1.0" encoding="UTF-8" standalone="no"?><svg xmlns="http://www.w3.org/2000/svg" xmlns:xlink="http://www.w3.org/1999/xlink" contentStyleType="text/css" height="342px" preserveAspectRatio="none" style="width:468px;height:342px;background:#FFFFFF;" version="1.1" viewBox="0 0 468 342" width="468px" zoomAndPan="magnify"><defs/><g><line style="stroke:#181818;stroke-width:0.5;stroke-dasharray:5.0,5.0;" x1="56" x2="56" y1="82.6094" y2="260.3672"/><line style="stroke:#181818;stroke-width:0.5;stroke-dasharray:5.0,5.0;" x1="400.5" x2="400.5" y1="82.6094" y2="260.3672"/><text fill="#000000" font-family="sans-serif" font-size="14" lengthAdjust="spacing" textLength="87" x="10" y="79.5332">Administrador</text><ellipse cx="56.5" cy="13.5" fill="#E2E2F0" rx="8" ry="8" style="stroke:#181818;stroke-width:0.5;"/><path d="M56.5,21.5 L56.5,48.5 M43.5,29.5 L69.5,29.5 M56.5,48.5 L43.5,63.5 M56.5,48.5 L69.5,63.5 " fill="none" style="stroke:#181818;stroke-width:0.5;"/><text fill="#000000" font-family="sans-serif" font-size="14" lengthAdjust="spacing" textLength="87" x="10" y="273.9004">Administrador</text><ellipse cx="56.5" cy="285.4766" fill="#E2E2F0" rx="8" ry="8" style="stroke:#181818;stroke-width:0.5;"/><path d="M56.5,293.4766 L56.5,320.4766 M43.5,301.4766 L69.5,301.4766 M56.5,320.4766 L43.5,335.4766 M56.5,320.4766 L69.5,335.4766 " fill="none" style="stroke:#181818;stroke-width:0.5;"/><rect fill="#E2E2F0" height="49.2188" rx="2.5" ry="2.5" style="stroke:#181818;stroke-width:0.5;" width="124" x="338.5" y="32.3906"/><text fill="#000000" font-family="sans-serif" font-size="14" lengthAdjust="spacing" textLength="110" x="345.5" y="53.9238">&lt;&lt;System (C4)&gt;&gt;</text><text fill="#000000" font-family="sans-serif" font-size="14" lengthAdjust="spacing" textLength="84" x="360.5" y="71.5332">RobDroneGo</text><rect fill="#E2E2F0" height="49.2188" rx="2.5" ry="2.5" style="stroke:#181818;stroke-width:0.5;" width="124" x="338.5" y="259.3672"/><text fill="#000000" font-family="sans-serif" font-size="14" lengthAdjust="spacing" textLength="110" x="345.5" y="280.9004">&lt;&lt;System (C4)&gt;&gt;</text><text fill="#000000" font-family="sans-serif" font-size="14" lengthAdjust="spacing" textLength="84" x="360.5" y="298.5098">RobDroneGo</text><path d="M5,97.6094 L5,123.6094 L452,123.6094 L452,107.6094 L442,97.6094 L5,97.6094 " fill="#FEFFDD" style="stroke:#181818;stroke-width:0.5;"/><path d="M442,97.6094 L442,107.6094 L452,107.6094 L442,97.6094 " fill="#FEFFDD" style="stroke:#181818;stroke-width:0.5;"/><text fill="#000000" font-family="sans-serif" font-size="13" lengthAdjust="spacing" textLength="283" x="82.75" y="116.1045">ver Diagrama LogIn(representa interaçao anterior)</text><polygon fill="#181818" points="388.5,147.3125,398.5,151.3125,388.5,155.3125,392.5,151.3125" style="stroke:#181818;stroke-width:1.0;"/><line style="stroke:#181818;stroke-width:1.0;" x1="56.5" x2="394.5" y1="151.3125" y2="151.3125"/><text fill="#000000" font-family="sans-serif" font-size="13" font-weight="bold" lengthAdjust="spacing" textLength="7" x="63.5" y="146.4561">1</text><text fill="#000000" font-family="sans-serif" font-size="13" lengthAdjust="spacing" textLength="309" x="74.5" y="146.4561">faz pedido para listar utentes pendentes de aceitação</text><polygon fill="#181818" points="67.5,177.6641,57.5,181.6641,67.5,185.6641,63.5,181.6641" style="stroke:#181818;stroke-width:1.0;"/><line style="stroke:#181818;stroke-width:1.0;stroke-dasharray:2.0,2.0;" x1="61.5" x2="399.5" y1="181.6641" y2="181.6641"/><text fill="#000000" font-family="sans-serif" font-size="13" font-weight="bold" lengthAdjust="spacing" textLength="7" x="73.5" y="176.8076">2</text><text fill="#000000" font-family="sans-serif" font-size="13" lengthAdjust="spacing" textLength="273" x="84.5" y="176.8076">mostra a lista de utentes com estado pendente</text><polygon fill="#181818" points="388.5,208.0156,398.5,212.0156,388.5,216.0156,392.5,212.0156" style="stroke:#181818;stroke-width:1.0;"/><line style="stroke:#181818;stroke-width:1.0;" x1="56.5" x2="394.5" y1="212.0156" y2="212.0156"/><text fill="#000000" font-family="sans-serif" font-size="13" font-weight="bold" lengthAdjust="spacing" textLength="7" x="63.5" y="207.1592">3</text><text fill="#000000" font-family="sans-serif" font-size="13" lengthAdjust="spacing" textLength="120" x="74.5" y="207.1592">aceita/recusa pedido</text><polygon fill="#181818" points="67.5,238.3672,57.5,242.3672,67.5,246.3672,63.5,242.3672" style="stroke:#181818;stroke-width:1.0;"/><line style="stroke:#181818;stroke-width:1.0;stroke-dasharray:2.0,2.0;" x1="61.5" x2="399.5" y1="242.3672" y2="242.3672"/><text fill="#000000" font-family="sans-serif" font-size="13" font-weight="bold" lengthAdjust="spacing" textLength="7" x="73.5" y="237.5107">4</text><text fill="#000000" font-family="sans-serif" font-size="13" lengthAdjust="spacing" textLength="180" x="84.5" y="237.5107">notifica o sucesso da operação</text><!--MD5=[f8e143cbfa6f25ea7a8b92e12fb5eb95]
@startuml
autonumber
actor "Administrador"

' Referência ao diagrama anterior
note over "Administrador", "<<System (C4)>>\n RobDroneGo"
  ver Diagrama LogIn(representa interaçao anterior)
end note

"Administrador" -> "<<System (C4)>>\n RobDroneGo" : faz pedido para listar utentes pendentes de aceitação

"<<System (C4)>>\n RobDroneGo" - -> "Administrador" : mostra a lista de utentes com estado pendente

"Administrador" -> "<<System (C4)>>\n RobDroneGo" : aceita/recusa pedido

"<<System (C4)>>\n RobDroneGo" - -> "Administrador" : notifica o sucesso da operação



@enduml

@startuml
autonumber
actor "Administrador"

note over "Administrador", "<<System (C4)>>\n RobDroneGo"
  ver Diagrama LogIn(representa interaçao anterior)
end note

"Administrador" -> "<<System (C4)>>\n RobDroneGo" : faz pedido para listar utentes pendentes de aceitação

"<<System (C4)>>\n RobDroneGo" - -> "Administrador" : mostra a lista de utentes com estado pendente

"Administrador" -> "<<System (C4)>>\n RobDroneGo" : aceita/recusa pedido

"<<System (C4)>>\n RobDroneGo" - -> "Administrador" : notifica o sucesso da operação



@enduml

PlantUML version 1.2022.7(Mon Aug 22 18:01:30 WEST 2022)
(GPL source distribution)
Java Runtime: Java(TM) SE Runtime Environment
JVM: Java HotSpot(TM) 64-Bit Server VM
Default Encoding: UTF-8
Language: pt
Country: PT
--></g></svg>