<?xml version="1.0" encoding="UTF-8" standalone="no"?><svg xmlns="http://www.w3.org/2000/svg" xmlns:xlink="http://www.w3.org/1999/xlink" contentStyleType="text/css" height="410px" preserveAspectRatio="none" style="width:702px;height:410px;background:#FFFFFF;" version="1.1" viewBox="0 0 702 410" width="702px" zoomAndPan="magnify"><defs/><g><rect fill="#FFFFFF" height="217.4609" style="stroke:#181818;stroke-width:1.0;" width="10" x="17.5" y="92.6094"/><rect fill="#FFFFFF" height="30.3516" style="stroke:#181818;stroke-width:1.0;" width="10" x="272.5" y="114.9609"/><rect fill="#FFFFFF" height="134.4063" style="stroke:#181818;stroke-width:1.0;" width="10" x="272.5" y="175.6641"/><rect fill="#FFFFFF" height="113.0547" style="stroke:#181818;stroke-width:1.0;" width="10" x="462.5" y="206.0156"/><line style="stroke:#181818;stroke-width:0.5;stroke-dasharray:5.0,5.0;" x1="22" x2="22" y1="82.6094" y2="328.0703"/><line style="stroke:#181818;stroke-width:0.5;stroke-dasharray:5.0,5.0;" x1="277.5" x2="277.5" y1="82.6094" y2="328.0703"/><line style="stroke:#181818;stroke-width:0.5;stroke-dasharray:5.0,5.0;" x1="467.5" x2="467.5" y1="82.6094" y2="328.0703"/><text fill="#000000" font-family="sans-serif" font-size="14" lengthAdjust="spacing" textLength="29" x="5" y="79.5332">User</text><ellipse cx="22.5" cy="13.5" fill="#E2E2F0" rx="8" ry="8" style="stroke:#181818;stroke-width:0.5;"/><path d="M22.5,21.5 L22.5,48.5 M9.5,29.5 L35.5,29.5 M22.5,48.5 L9.5,63.5 M22.5,48.5 L35.5,63.5 " fill="none" style="stroke:#181818;stroke-width:0.5;"/><text fill="#000000" font-family="sans-serif" font-size="14" lengthAdjust="spacing" textLength="29" x="5" y="341.6035">User</text><ellipse cx="22.5" cy="353.1797" fill="#E2E2F0" rx="8" ry="8" style="stroke:#181818;stroke-width:0.5;"/><path d="M22.5,361.1797 L22.5,388.1797 M9.5,369.1797 L35.5,369.1797 M22.5,388.1797 L9.5,403.1797 M22.5,388.1797 L35.5,403.1797 " fill="none" style="stroke:#181818;stroke-width:0.5;"/><rect fill="#E2E2F0" height="49.2188" rx="2.5" ry="2.5" style="stroke:#181818;stroke-width:0.5;" width="128" x="213.5" y="32.3906"/><text fill="#000000" font-family="sans-serif" font-size="14" lengthAdjust="spacing" textLength="110" x="220.5" y="53.9238">&lt;&lt;System (C4)&gt;&gt;</text><text fill="#000000" font-family="sans-serif" font-size="14" lengthAdjust="spacing" textLength="89" x="235" y="71.5332">SPA/Frontend</text><rect fill="#E2E2F0" height="49.2188" rx="2.5" ry="2.5" style="stroke:#181818;stroke-width:0.5;" width="128" x="213.5" y="327.0703"/><text fill="#000000" font-family="sans-serif" font-size="14" lengthAdjust="spacing" textLength="110" x="220.5" y="348.6035">&lt;&lt;System (C4)&gt;&gt;</text><text fill="#000000" font-family="sans-serif" font-size="14" lengthAdjust="spacing" textLength="89" x="235" y="366.2129">SPA/Frontend</text><rect fill="#E2E2F0" height="49.2188" rx="2.5" ry="2.5" style="stroke:#181818;stroke-width:0.5;" width="124" x="405.5" y="32.3906"/><text fill="#000000" font-family="sans-serif" font-size="14" lengthAdjust="spacing" textLength="110" x="412.5" y="53.9238">&lt;&lt;System (C4)&gt;&gt;</text><text fill="#000000" font-family="sans-serif" font-size="14" lengthAdjust="spacing" textLength="31" x="454" y="71.5332">MDC</text><rect fill="#E2E2F0" height="49.2188" rx="2.5" ry="2.5" style="stroke:#181818;stroke-width:0.5;" width="124" x="405.5" y="327.0703"/><text fill="#000000" font-family="sans-serif" font-size="14" lengthAdjust="spacing" textLength="110" x="412.5" y="348.6035">&lt;&lt;System (C4)&gt;&gt;</text><text fill="#000000" font-family="sans-serif" font-size="14" lengthAdjust="spacing" textLength="31" x="454" y="366.2129">MDC</text><rect fill="#FFFFFF" height="217.4609" style="stroke:#181818;stroke-width:1.0;" width="10" x="17.5" y="92.6094"/><rect fill="#FFFFFF" height="30.3516" style="stroke:#181818;stroke-width:1.0;" width="10" x="272.5" y="114.9609"/><rect fill="#FFFFFF" height="134.4063" style="stroke:#181818;stroke-width:1.0;" width="10" x="272.5" y="175.6641"/><rect fill="#FFFFFF" height="113.0547" style="stroke:#181818;stroke-width:1.0;" width="10" x="462.5" y="206.0156"/><polygon fill="#181818" points="260.5,110.9609,270.5,114.9609,260.5,118.9609,264.5,114.9609" style="stroke:#181818;stroke-width:1.0;"/><line style="stroke:#181818;stroke-width:1.0;" x1="27.5" x2="266.5" y1="114.9609" y2="114.9609"/><text fill="#000000" font-family="sans-serif" font-size="13" font-weight="bold" lengthAdjust="spacing" textLength="7" x="34.5" y="110.1045">1</text><text fill="#000000" font-family="sans-serif" font-size="13" lengthAdjust="spacing" textLength="215" x="45.5" y="110.1045">Acede à aplicação para se autenticar</text><polygon fill="#181818" points="38.5,141.3125,28.5,145.3125,38.5,149.3125,34.5,145.3125" style="stroke:#181818;stroke-width:1.0;"/><line style="stroke:#181818;stroke-width:1.0;stroke-dasharray:2.0,2.0;" x1="32.5" x2="276.5" y1="145.3125" y2="145.3125"/><text fill="#000000" font-family="sans-serif" font-size="13" font-weight="bold" lengthAdjust="spacing" textLength="7" x="44.5" y="140.4561">2</text><text fill="#000000" font-family="sans-serif" font-size="13" lengthAdjust="spacing" textLength="131" x="55.5" y="140.4561">Solicita dados de logIn</text><polygon fill="#181818" points="260.5,171.6641,270.5,175.6641,260.5,179.6641,264.5,175.6641" style="stroke:#181818;stroke-width:1.0;"/><line style="stroke:#181818;stroke-width:1.0;" x1="27.5" x2="266.5" y1="175.6641" y2="175.6641"/><text fill="#000000" font-family="sans-serif" font-size="13" font-weight="bold" lengthAdjust="spacing" textLength="7" x="34.5" y="170.8076">3</text><text fill="#000000" font-family="sans-serif" font-size="13" lengthAdjust="spacing" textLength="141" x="45.5" y="170.8076">Insere os dados de logIn</text><polygon fill="#181818" points="450.5,202.0156,460.5,206.0156,450.5,210.0156,454.5,206.0156" style="stroke:#181818;stroke-width:1.0;"/><line style="stroke:#181818;stroke-width:1.0;" x1="282.5" x2="456.5" y1="206.0156" y2="206.0156"/><text fill="#000000" font-family="sans-serif" font-size="13" font-weight="bold" lengthAdjust="spacing" textLength="7" x="289.5" y="201.1592">4</text><text fill="#000000" font-family="sans-serif" font-size="13" lengthAdjust="spacing" textLength="150" x="300.5" y="201.1592">POST Users Authenticate</text><line style="stroke:#181818;stroke-width:1.0;" x1="472.5" x2="514.5" y1="236.3672" y2="236.3672"/><line style="stroke:#181818;stroke-width:1.0;" x1="514.5" x2="514.5" y1="236.3672" y2="249.3672"/><line style="stroke:#181818;stroke-width:1.0;" x1="473.5" x2="514.5" y1="249.3672" y2="249.3672"/><polygon fill="#181818" points="483.5,245.3672,473.5,249.3672,483.5,253.3672,479.5,249.3672" style="stroke:#181818;stroke-width:1.0;"/><text fill="#000000" font-family="sans-serif" font-size="13" font-weight="bold" lengthAdjust="spacing" textLength="7" x="479.5" y="231.5107">5</text><text fill="#000000" font-family="sans-serif" font-size="13" lengthAdjust="spacing" textLength="205" x="490.5" y="231.5107">Valida, autentica user e gera Token</text><polygon fill="#181818" points="293.5,275.7188,283.5,279.7188,293.5,283.7188,289.5,279.7188" style="stroke:#181818;stroke-width:1.0;"/><line style="stroke:#181818;stroke-width:1.0;stroke-dasharray:2.0,2.0;" x1="287.5" x2="461.5" y1="279.7188" y2="279.7188"/><text fill="#000000" font-family="sans-serif" font-size="13" font-weight="bold" lengthAdjust="spacing" textLength="7" x="299.5" y="274.8623">6</text><text fill="#000000" font-family="sans-serif" font-size="13" lengthAdjust="spacing" textLength="98" x="310.5" y="274.8623">User autenticado</text><polygon fill="#181818" points="33.5,306.0703,23.5,310.0703,33.5,314.0703,29.5,310.0703" style="stroke:#181818;stroke-width:1.0;"/><line style="stroke:#181818;stroke-width:1.0;stroke-dasharray:2.0,2.0;" x1="27.5" x2="276.5" y1="310.0703" y2="310.0703"/><text fill="#000000" font-family="sans-serif" font-size="13" font-weight="bold" lengthAdjust="spacing" textLength="7" x="39.5" y="305.2139">7</text><text fill="#000000" font-family="sans-serif" font-size="13" lengthAdjust="spacing" textLength="113" x="50.5" y="305.2139">LogIn com sucesso</text><!--MD5=[823178800551fe29f240e08bec5236e1]
@startuml
autonumber
actor "User" as GC
participant "<<System (C4)>> \n SPA/Frontend"  as UI
participant "<<System (C4)>>\n MDC" as MDC

activate GC


GC -> UI : Acede à aplicação para se autenticar
activate UI
UI- -> GC : Solicita dados de logIn
deactivate UI
GC -> UI: Insere os dados de logIn
activate UI
UI -> MDC : POST Users Authenticate
activate MDC
MDC -> MDC : Valida, autentica user e gera Token
MDC - -> UI : User autenticado
UI - -> GC : LogIn com sucesso
deactivate UI

deactivate GC

@enduml

PlantUML version 1.2022.7(Mon Aug 22 18:01:30 WEST 2022)
(GPL source distribution)
Java Runtime: Java(TM) SE Runtime Environment
JVM: Java HotSpot(TM) 64-Bit Server VM
Default Encoding: UTF-8
Language: pt
Country: PT
--></g></svg>