<?xml version="1.0" encoding="us-ascii" standalone="no"?><svg xmlns="http://www.w3.org/2000/svg" xmlns:xlink="http://www.w3.org/1999/xlink" contentStyleType="text/css" height="356px" preserveAspectRatio="none" style="width:572px;height:356px;background:#FFFFFF;" version="1.1" viewBox="0 0 572 356" width="572px" zoomAndPan="magnify"><defs/><g><rect fill="#FFFFFF" height="161.4551" style="stroke:#181818;stroke-width:1.0;" width="10" x="62.5" y="93.6211"/><rect fill="#FFFFFF" height="138.1641" style="stroke:#181818;stroke-width:1.0;" width="10" x="302.5" y="116.9121"/><rect fill="#FFFFFF" height="115.873" style="stroke:#181818;stroke-width:1.0;" width="10" x="422.5" y="148.2031"/><line style="stroke:#181818;stroke-width:0.5;stroke-dasharray:5.0,5.0;" x1="67" x2="67" y1="83.6211" y2="273.0762"/><line style="stroke:#181818;stroke-width:0.5;stroke-dasharray:5.0,5.0;" x1="307.5" x2="307.5" y1="83.6211" y2="273.0762"/><line style="stroke:#181818;stroke-width:0.5;stroke-dasharray:5.0,5.0;" x1="427.5" x2="427.5" y1="83.6211" y2="273.0762"/><text fill="#000000" font-family="sans-serif" font-size="14" lengthAdjust="spacing" textLength="119" x="5" y="80.1074">Gestor de Campus</text><ellipse cx="67.5" cy="13.5" fill="#E2E2F0" rx="8" ry="8" style="stroke:#181818;stroke-width:0.5;"/><path d="M67.5,21.5 L67.5,48.5 M54.5,29.5 L80.5,29.5 M67.5,48.5 L54.5,63.5 M67.5,48.5 L80.5,63.5 " fill="none" style="stroke:#181818;stroke-width:0.5;"/><text fill="#000000" font-family="sans-serif" font-size="14" lengthAdjust="spacing" textLength="119" x="5" y="287.1836">Gestor de Campus</text><ellipse cx="67.5" cy="299.1973" fill="#E2E2F0" rx="8" ry="8" style="stroke:#181818;stroke-width:0.5;"/><path d="M67.5,307.1973 L67.5,334.1973 M54.5,315.1973 L80.5,315.1973 M67.5,334.1973 L54.5,349.1973 M67.5,334.1973 L80.5,349.1973 " fill="none" style="stroke:#181818;stroke-width:0.5;"/><rect fill="#E2E2F0" height="51.2422" rx="2.5" ry="2.5" style="stroke:#181818;stroke-width:0.5;" width="112" x="251.5" y="31.3789"/><text fill="#000000" font-family="sans-serif" font-size="14" lengthAdjust="spacing" textLength="94" x="258.5" y="53.4863">&#171;System (C4)&#187;</text><text fill="#000000" font-family="sans-serif" font-size="14" lengthAdjust="spacing" textLength="89" x="265" y="72.1074">SPA/Frontend</text><rect fill="#E2E2F0" height="51.2422" rx="2.5" ry="2.5" style="stroke:#181818;stroke-width:0.5;" width="112" x="251.5" y="272.0762"/><text fill="#000000" font-family="sans-serif" font-size="14" lengthAdjust="spacing" textLength="94" x="258.5" y="294.1836">&#171;System (C4)&#187;</text><text fill="#000000" font-family="sans-serif" font-size="14" lengthAdjust="spacing" textLength="89" x="265" y="312.8047">SPA/Frontend</text><rect fill="#E2E2F0" height="51.2422" rx="2.5" ry="2.5" style="stroke:#181818;stroke-width:0.5;" width="108" x="373.5" y="31.3789"/><text fill="#000000" font-family="sans-serif" font-size="14" lengthAdjust="spacing" textLength="94" x="380.5" y="53.4863">&#171;System (C4)&#187;</text><text fill="#000000" font-family="sans-serif" font-size="14" lengthAdjust="spacing" textLength="31" x="414" y="72.1074">MDC</text><rect fill="#E2E2F0" height="51.2422" rx="2.5" ry="2.5" style="stroke:#181818;stroke-width:0.5;" width="108" x="373.5" y="272.0762"/><text fill="#000000" font-family="sans-serif" font-size="14" lengthAdjust="spacing" textLength="94" x="380.5" y="294.1836">&#171;System (C4)&#187;</text><text fill="#000000" font-family="sans-serif" font-size="14" lengthAdjust="spacing" textLength="31" x="414" y="312.8047">MDC</text><rect fill="#FFFFFF" height="161.4551" style="stroke:#181818;stroke-width:1.0;" width="10" x="62.5" y="93.6211"/><rect fill="#FFFFFF" height="138.1641" style="stroke:#181818;stroke-width:1.0;" width="10" x="302.5" y="116.9121"/><rect fill="#FFFFFF" height="115.873" style="stroke:#181818;stroke-width:1.0;" width="10" x="422.5" y="148.2031"/><polygon fill="#181818" points="290.5,112.9121,300.5,116.9121,290.5,120.9121,294.5,116.9121" style="stroke:#181818;stroke-width:1.0;"/><line style="stroke:#181818;stroke-width:1.0;" x1="72.5" x2="296.5" y1="116.9121" y2="116.9121"/><text fill="#000000" font-family="sans-serif" font-size="13" font-weight="bold" lengthAdjust="spacing" textLength="7" x="79.5" y="111.6494">1</text><text fill="#000000" font-family="sans-serif" font-size="13" lengthAdjust="spacing" textLength="200" x="90.5" y="111.6494">Iniciar o processo de listar edicicio</text><polygon fill="#181818" points="410.5,144.2031,420.5,148.2031,410.5,152.2031,414.5,148.2031" style="stroke:#181818;stroke-width:1.0;"/><line style="stroke:#181818;stroke-width:1.0;" x1="312.5" x2="416.5" y1="148.2031" y2="148.2031"/><text fill="#000000" font-family="sans-serif" font-size="13" font-weight="bold" lengthAdjust="spacing" textLength="7" x="319.5" y="142.9404">2</text><text fill="#000000" font-family="sans-serif" font-size="13" lengthAdjust="spacing" textLength="76" x="330.5" y="142.9404">GET Building</text><line style="stroke:#181818;stroke-width:1.0;" x1="432.5" x2="474.5" y1="179.4941" y2="179.4941"/><line style="stroke:#181818;stroke-width:1.0;" x1="474.5" x2="474.5" y1="179.4941" y2="192.4941"/><line style="stroke:#181818;stroke-width:1.0;" x1="433.5" x2="474.5" y1="192.4941" y2="192.4941"/><polygon fill="#181818" points="443.5,188.4941,433.5,192.4941,443.5,196.4941,439.5,192.4941" style="stroke:#181818;stroke-width:1.0;"/><text fill="#000000" font-family="sans-serif" font-size="13" font-weight="bold" lengthAdjust="spacing" textLength="7" x="439.5" y="174.2314">3</text><text fill="#000000" font-family="sans-serif" font-size="13" lengthAdjust="spacing" textLength="115" x="450.5" y="174.2314">listBuilding(building)</text><polygon fill="#181818" points="323.5,219.7852,313.5,223.7852,323.5,227.7852,319.5,223.7852" style="stroke:#181818;stroke-width:1.0;"/><line style="stroke:#181818;stroke-width:1.0;stroke-dasharray:2.0,2.0;" x1="317.5" x2="421.5" y1="223.7852" y2="223.7852"/><text fill="#000000" font-family="sans-serif" font-size="13" font-weight="bold" lengthAdjust="spacing" textLength="7" x="329.5" y="218.5225">4</text><text fill="#000000" font-family="sans-serif" font-size="13" lengthAdjust="spacing" textLength="71" x="340.5" y="218.5225">List Building</text><polygon fill="#181818" points="78.5,251.0762,68.5,255.0762,78.5,259.0762,74.5,255.0762" style="stroke:#181818;stroke-width:1.0;"/><line style="stroke:#181818;stroke-width:1.0;stroke-dasharray:2.0,2.0;" x1="72.5" x2="306.5" y1="255.0762" y2="255.0762"/><text fill="#000000" font-family="sans-serif" font-size="13" font-weight="bold" lengthAdjust="spacing" textLength="7" x="84.5" y="249.8135">5</text><text fill="#000000" font-family="sans-serif" font-size="13" lengthAdjust="spacing" textLength="137" x="95.5" y="249.8135">Mostra lista de edificios</text><!--SRC=[VOyzQmCn38Pt_mfnKpAKBfrAE6ZTrWGI22JTkYXdjHXozc7f0ldtaPAcbwcJRElzU8oZb3psUweEEoaLca1iCn9ux8UH6q26u9rp0rP9NHem2pIBnVR4GZtC_DEyRU4hmtRpylXHInRAiG4mt-VoNvUQrc_-qg3J6K8wej2bBtXuQ3K1dc6PDG4h51XgwOYv6DyXiUWZHLrsgKnkRLMRcZLKtU5z1wzZEiIKVoQH5Th-JsPnDzbi_tkONpKta9LgfYmhqKqmzxgmLBmo6PnIVHiLkqZtOFTN_UKP]--></g></svg>