<?xml version="1.0" encoding="UTF-8" standalone="no"?><svg xmlns="http://www.w3.org/2000/svg" xmlns:xlink="http://www.w3.org/1999/xlink" contentStyleType="text/css" height="470px" preserveAspectRatio="none" style="width:920px;height:470px;background:#FFFFFF;" version="1.1" viewBox="0 0 920 470" width="920px" zoomAndPan="magnify"><defs/><g><rect fill="#FFFFFF" height="278.1641" style="stroke:#181818;stroke-width:1.0;" width="10" x="62.5" y="92.6094"/><rect fill="#FFFFFF" height="30.3516" style="stroke:#181818;stroke-width:1.0;" width="10" x="512.5" y="114.9609"/><rect fill="#FFFFFF" height="30.3516" style="stroke:#181818;stroke-width:1.0;" width="10" x="512.5" y="175.6641"/><rect fill="#FFFFFF" height="134.4063" style="stroke:#181818;stroke-width:1.0;" width="10" x="512.5" y="236.3672"/><rect fill="#FFFFFF" height="73.7031" style="stroke:#181818;stroke-width:1.0;" width="10" x="737.5" y="266.7188"/><line style="stroke:#181818;stroke-width:0.5;stroke-dasharray:5.0,5.0;" x1="67" x2="67" y1="82.6094" y2="388.7734"/><line style="stroke:#181818;stroke-width:0.5;stroke-dasharray:5.0,5.0;" x1="517.5" x2="517.5" y1="82.6094" y2="388.7734"/><line style="stroke:#181818;stroke-width:0.5;stroke-dasharray:5.0,5.0;" x1="742.5" x2="742.5" y1="82.6094" y2="388.7734"/><text fill="#000000" font-family="sans-serif" font-size="14" lengthAdjust="spacing" textLength="119" x="5" y="79.5332">Gestor de Campus</text><ellipse cx="67.5" cy="13.5" fill="#E2E2F0" rx="8" ry="8" style="stroke:#181818;stroke-width:0.5;"/><path d="M67.5,21.5 L67.5,48.5 M54.5,29.5 L80.5,29.5 M67.5,48.5 L54.5,63.5 M67.5,48.5 L80.5,63.5 " fill="none" style="stroke:#181818;stroke-width:0.5;"/><text fill="#000000" font-family="sans-serif" font-size="14" lengthAdjust="spacing" textLength="119" x="5" y="402.3066">Gestor de Campus</text><ellipse cx="67.5" cy="413.8828" fill="#E2E2F0" rx="8" ry="8" style="stroke:#181818;stroke-width:0.5;"/><path d="M67.5,421.8828 L67.5,448.8828 M54.5,429.8828 L80.5,429.8828 M67.5,448.8828 L54.5,463.8828 M67.5,448.8828 L80.5,463.8828 " fill="none" style="stroke:#181818;stroke-width:0.5;"/><rect fill="#E2E2F0" height="49.2188" rx="2.5" ry="2.5" style="stroke:#181818;stroke-width:0.5;" width="124" x="455.5" y="32.3906"/><text fill="#000000" font-family="sans-serif" font-size="14" lengthAdjust="spacing" textLength="110" x="462.5" y="53.9238">&lt;&lt;System (C4)&gt;&gt;</text><text fill="#000000" font-family="sans-serif" font-size="14" lengthAdjust="spacing" textLength="89" x="475" y="71.5332">SPA/Frontend</text><rect fill="#E2E2F0" height="49.2188" rx="2.5" ry="2.5" style="stroke:#181818;stroke-width:0.5;" width="124" x="455.5" y="387.7734"/><text fill="#000000" font-family="sans-serif" font-size="14" lengthAdjust="spacing" textLength="110" x="462.5" y="409.3066">&lt;&lt;System (C4)&gt;&gt;</text><text fill="#000000" font-family="sans-serif" font-size="14" lengthAdjust="spacing" textLength="89" x="475" y="426.916">SPA/Frontend</text><rect fill="#E2E2F0" height="49.2188" rx="2.5" ry="2.5" style="stroke:#181818;stroke-width:0.5;" width="124" x="680.5" y="32.3906"/><text fill="#000000" font-family="sans-serif" font-size="14" lengthAdjust="spacing" textLength="110" x="687.5" y="53.9238">&lt;&lt;System (C4)&gt;&gt;</text><text fill="#000000" font-family="sans-serif" font-size="14" lengthAdjust="spacing" textLength="31" x="729" y="71.5332">MDC</text><rect fill="#E2E2F0" height="49.2188" rx="2.5" ry="2.5" style="stroke:#181818;stroke-width:0.5;" width="124" x="680.5" y="387.7734"/><text fill="#000000" font-family="sans-serif" font-size="14" lengthAdjust="spacing" textLength="110" x="687.5" y="409.3066">&lt;&lt;System (C4)&gt;&gt;</text><text fill="#000000" font-family="sans-serif" font-size="14" lengthAdjust="spacing" textLength="31" x="729" y="426.916">MDC</text><rect fill="#FFFFFF" height="278.1641" style="stroke:#181818;stroke-width:1.0;" width="10" x="62.5" y="92.6094"/><rect fill="#FFFFFF" height="30.3516" style="stroke:#181818;stroke-width:1.0;" width="10" x="512.5" y="114.9609"/><rect fill="#FFFFFF" height="30.3516" style="stroke:#181818;stroke-width:1.0;" width="10" x="512.5" y="175.6641"/><rect fill="#FFFFFF" height="134.4063" style="stroke:#181818;stroke-width:1.0;" width="10" x="512.5" y="236.3672"/><rect fill="#FFFFFF" height="73.7031" style="stroke:#181818;stroke-width:1.0;" width="10" x="737.5" y="266.7188"/><polygon fill="#181818" points="500.5,110.9609,510.5,114.9609,500.5,118.9609,504.5,114.9609" style="stroke:#181818;stroke-width:1.0;"/><line style="stroke:#181818;stroke-width:1.0;" x1="72.5" x2="506.5" y1="114.9609" y2="114.9609"/><text fill="#000000" font-family="sans-serif" font-size="13" font-weight="bold" lengthAdjust="spacing" textLength="7" x="79.5" y="110.1045">1</text><text fill="#000000" font-family="sans-serif" font-size="13" lengthAdjust="spacing" textLength="410" x="90.5" y="110.1045">Iniciar o processo de listar os edifícios com mínimo e máximo de pisos</text><polygon fill="#181818" points="83.5,141.3125,73.5,145.3125,83.5,149.3125,79.5,145.3125" style="stroke:#181818;stroke-width:1.0;"/><line style="stroke:#181818;stroke-width:1.0;stroke-dasharray:2.0,2.0;" x1="77.5" x2="516.5" y1="145.3125" y2="145.3125"/><text fill="#000000" font-family="sans-serif" font-size="13" font-weight="bold" lengthAdjust="spacing" textLength="7" x="89.5" y="140.4561">2</text><text fill="#000000" font-family="sans-serif" font-size="13" lengthAdjust="spacing" textLength="333" x="100.5" y="140.4561">Solicitar o intervalo mínimo e máximo de pisos pretendido</text><polygon fill="#181818" points="500.5,171.6641,510.5,175.6641,500.5,179.6641,504.5,175.6641" style="stroke:#181818;stroke-width:1.0;"/><line style="stroke:#181818;stroke-width:1.0;" x1="72.5" x2="506.5" y1="175.6641" y2="175.6641"/><text fill="#000000" font-family="sans-serif" font-size="13" font-weight="bold" lengthAdjust="spacing" textLength="7" x="79.5" y="170.8076">3</text><text fill="#000000" font-family="sans-serif" font-size="13" lengthAdjust="spacing" textLength="176" x="90.5" y="170.8076">Introduzir os dados solicitados</text><polygon fill="#181818" points="83.5,202.0156,73.5,206.0156,83.5,210.0156,79.5,206.0156" style="stroke:#181818;stroke-width:1.0;"/><line style="stroke:#181818;stroke-width:1.0;stroke-dasharray:2.0,2.0;" x1="77.5" x2="516.5" y1="206.0156" y2="206.0156"/><text fill="#000000" font-family="sans-serif" font-size="13" font-weight="bold" lengthAdjust="spacing" textLength="7" x="89.5" y="201.1592">4</text><text fill="#000000" font-family="sans-serif" font-size="13" lengthAdjust="spacing" textLength="196" x="100.5" y="201.1592">Solicitar a confirmação dos dados</text><polygon fill="#181818" points="500.5,232.3672,510.5,236.3672,500.5,240.3672,504.5,236.3672" style="stroke:#181818;stroke-width:1.0;"/><line style="stroke:#181818;stroke-width:1.0;" x1="72.5" x2="506.5" y1="236.3672" y2="236.3672"/><text fill="#000000" font-family="sans-serif" font-size="13" font-weight="bold" lengthAdjust="spacing" textLength="7" x="79.5" y="231.5107">5</text><text fill="#000000" font-family="sans-serif" font-size="13" lengthAdjust="spacing" textLength="108" x="90.5" y="231.5107">Confirma os dados</text><polygon fill="#181818" points="725.5,262.7188,735.5,266.7188,725.5,270.7188,729.5,266.7188" style="stroke:#181818;stroke-width:1.0;"/><line style="stroke:#181818;stroke-width:1.0;" x1="522.5" x2="731.5" y1="266.7188" y2="266.7188"/><text fill="#000000" font-family="sans-serif" font-size="13" font-weight="bold" lengthAdjust="spacing" textLength="7" x="529.5" y="261.8623">6</text><text fill="#000000" font-family="sans-serif" font-size="13" lengthAdjust="spacing" textLength="185" x="540.5" y="261.8623">GET getBuildingsInFloorRange()</text><line style="stroke:#181818;stroke-width:1.0;" x1="747.5" x2="789.5" y1="297.0703" y2="297.0703"/><line style="stroke:#181818;stroke-width:1.0;" x1="789.5" x2="789.5" y1="297.0703" y2="310.0703"/><line style="stroke:#181818;stroke-width:1.0;" x1="748.5" x2="789.5" y1="310.0703" y2="310.0703"/><polygon fill="#181818" points="758.5,306.0703,748.5,310.0703,758.5,314.0703,754.5,310.0703" style="stroke:#181818;stroke-width:1.0;"/><text fill="#000000" font-family="sans-serif" font-size="13" font-weight="bold" lengthAdjust="spacing" textLength="7" x="754.5" y="292.2139">7</text><text fill="#000000" font-family="sans-serif" font-size="13" lengthAdjust="spacing" textLength="148" x="765.5" y="292.2139">getBuildingInFloorRange()</text><polygon fill="#181818" points="533.5,336.4219,523.5,340.4219,533.5,344.4219,529.5,340.4219" style="stroke:#181818;stroke-width:1.0;"/><line style="stroke:#181818;stroke-width:1.0;stroke-dasharray:2.0,2.0;" x1="527.5" x2="741.5" y1="340.4219" y2="340.4219"/><text fill="#000000" font-family="sans-serif" font-size="13" font-weight="bold" lengthAdjust="spacing" textLength="7" x="539.5" y="335.5654">8</text><text fill="#000000" font-family="sans-serif" font-size="13" lengthAdjust="spacing" textLength="139" x="550.5" y="335.5654">lista de edifícios (JSON)</text><polygon fill="#181818" points="78.5,366.7734,68.5,370.7734,78.5,374.7734,74.5,370.7734" style="stroke:#181818;stroke-width:1.0;"/><line style="stroke:#181818;stroke-width:1.0;stroke-dasharray:2.0,2.0;" x1="72.5" x2="516.5" y1="370.7734" y2="370.7734"/><text fill="#000000" font-family="sans-serif" font-size="13" font-weight="bold" lengthAdjust="spacing" textLength="7" x="84.5" y="365.917">9</text><text fill="#000000" font-family="sans-serif" font-size="13" lengthAdjust="spacing" textLength="392" x="95.5" y="365.917">Apresenta a informação solicitada e informa o sucesso da operação</text><!--MD5=[eda1e36e3813d4fc7bcfecd5c79ba028]
@startuml
autonumber
actor "Gestor de Campus" as GC

participant "<<System (C4)>>\n SPA/Frontend" as SPA
participant "<<System (C4)>>\n MDC" as MDC

activate GC
GC -> SPA : Iniciar o processo de listar os edifícios com mínimo e máximo de pisos
activate SPA
SPA - -> GC : Solicitar o intervalo mínimo e máximo de pisos pretendido 
deactivate SPA

GC -> SPA : Introduzir os dados solicitados
activate SPA
SPA - -> GC : Solicitar a confirmação dos dados 
deactivate SPA

GC -> SPA : Confirma os dados
activate SPA
SPA -> MDC : GET getBuildingsInFloorRange()
activate MDC
MDC -> MDC : getBuildingInFloorRange()
MDC - -> SPA : lista de edifícios (JSON)
deactivate MDC
SPA - -> GC : Apresenta a informação solicitada e informa o sucesso da operação
deactivate SPA
deactivate GC

@enduml

PlantUML version 1.2022.7(Mon Aug 22 18:01:30 BST 2022)
(GPL source distribution)
Java Runtime: OpenJDK Runtime Environment
JVM: OpenJDK 64-Bit Server VM
Default Encoding: Cp1252
Language: pt
Country: PT
--></g></svg>