<?xml version="1.0" encoding="UTF-8" standalone="no"?><svg xmlns="http://www.w3.org/2000/svg" xmlns:xlink="http://www.w3.org/1999/xlink" contentStyleType="text/css" height="678px" preserveAspectRatio="none" style="width:875px;height:678px;background:#FFFFFF;" version="1.1" viewBox="0 0 875 678" width="875px" zoomAndPan="magnify"><defs/><g><rect fill="#FFFFFF" height="486.2734" style="stroke:#181818;stroke-width:1.0;" width="10" x="62.5" y="92.6094"/><rect fill="#FFFFFF" height="30.3516" style="stroke:#181818;stroke-width:1.0;" width="10" x="558.5" y="114.9609"/><rect fill="#FFFFFF" height="238.4609" style="stroke:#181818;stroke-width:1.0;" width="10" x="558.5" y="175.6641"/><rect fill="#FFFFFF" height="134.4063" style="stroke:#181818;stroke-width:1.0;" width="10" x="558.5" y="444.4766"/><rect fill="#FFFFFF" height="73.7031" style="stroke:#181818;stroke-width:1.0;" width="10" x="757.5" y="206.0156"/><rect fill="#FFFFFF" height="73.7031" style="stroke:#181818;stroke-width:1.0;" width="10" x="757.5" y="310.0703"/><rect fill="#FFFFFF" height="73.7031" style="stroke:#181818;stroke-width:1.0;" width="10" x="757.5" y="474.8281"/><line style="stroke:#181818;stroke-width:0.5;stroke-dasharray:5.0,5.0;" x1="67" x2="67" y1="82.6094" y2="596.8828"/><line style="stroke:#181818;stroke-width:0.5;stroke-dasharray:5.0,5.0;" x1="563.5" x2="563.5" y1="82.6094" y2="596.8828"/><line style="stroke:#181818;stroke-width:0.5;stroke-dasharray:5.0,5.0;" x1="762.5" x2="762.5" y1="82.6094" y2="596.8828"/><text fill="#000000" font-family="sans-serif" font-size="14" lengthAdjust="spacing" textLength="119" x="5" y="79.5332">Gestor de Campus</text><ellipse cx="67.5" cy="13.5" fill="#E2E2F0" rx="8" ry="8" style="stroke:#181818;stroke-width:0.5;"/><path d="M67.5,21.5 L67.5,48.5 M54.5,29.5 L80.5,29.5 M67.5,48.5 L54.5,63.5 M67.5,48.5 L80.5,63.5 " fill="none" style="stroke:#181818;stroke-width:0.5;"/><text fill="#000000" font-family="sans-serif" font-size="14" lengthAdjust="spacing" textLength="119" x="5" y="610.416">Gestor de Campus</text><ellipse cx="67.5" cy="621.9922" fill="#E2E2F0" rx="8" ry="8" style="stroke:#181818;stroke-width:0.5;"/><path d="M67.5,629.9922 L67.5,656.9922 M54.5,637.9922 L80.5,637.9922 M67.5,656.9922 L54.5,671.9922 M67.5,656.9922 L80.5,671.9922 " fill="none" style="stroke:#181818;stroke-width:0.5;"/><rect fill="#E2E2F0" height="49.2188" rx="2.5" ry="2.5" style="stroke:#181818;stroke-width:0.5;" width="124" x="501.5" y="32.3906"/><text fill="#000000" font-family="sans-serif" font-size="14" lengthAdjust="spacing" textLength="110" x="508.5" y="53.9238">&lt;&lt;System (C4)&gt;&gt;</text><text fill="#000000" font-family="sans-serif" font-size="14" lengthAdjust="spacing" textLength="89" x="521" y="71.5332">SPA/Frontend</text><rect fill="#E2E2F0" height="49.2188" rx="2.5" ry="2.5" style="stroke:#181818;stroke-width:0.5;" width="124" x="501.5" y="595.8828"/><text fill="#000000" font-family="sans-serif" font-size="14" lengthAdjust="spacing" textLength="110" x="508.5" y="617.416">&lt;&lt;System (C4)&gt;&gt;</text><text fill="#000000" font-family="sans-serif" font-size="14" lengthAdjust="spacing" textLength="89" x="521" y="635.0254">SPA/Frontend</text><rect fill="#E2E2F0" height="49.2188" rx="2.5" ry="2.5" style="stroke:#181818;stroke-width:0.5;" width="124" x="700.5" y="32.3906"/><text fill="#000000" font-family="sans-serif" font-size="14" lengthAdjust="spacing" textLength="110" x="707.5" y="53.9238">&lt;&lt;System (C4)&gt;&gt;</text><text fill="#000000" font-family="sans-serif" font-size="14" lengthAdjust="spacing" textLength="31" x="749" y="71.5332">MDC</text><rect fill="#E2E2F0" height="49.2188" rx="2.5" ry="2.5" style="stroke:#181818;stroke-width:0.5;" width="124" x="700.5" y="595.8828"/><text fill="#000000" font-family="sans-serif" font-size="14" lengthAdjust="spacing" textLength="110" x="707.5" y="617.416">&lt;&lt;System (C4)&gt;&gt;</text><text fill="#000000" font-family="sans-serif" font-size="14" lengthAdjust="spacing" textLength="31" x="749" y="635.0254">MDC</text><rect fill="#FFFFFF" height="486.2734" style="stroke:#181818;stroke-width:1.0;" width="10" x="62.5" y="92.6094"/><rect fill="#FFFFFF" height="30.3516" style="stroke:#181818;stroke-width:1.0;" width="10" x="558.5" y="114.9609"/><rect fill="#FFFFFF" height="238.4609" style="stroke:#181818;stroke-width:1.0;" width="10" x="558.5" y="175.6641"/><rect fill="#FFFFFF" height="134.4063" style="stroke:#181818;stroke-width:1.0;" width="10" x="558.5" y="444.4766"/><rect fill="#FFFFFF" height="73.7031" style="stroke:#181818;stroke-width:1.0;" width="10" x="757.5" y="206.0156"/><rect fill="#FFFFFF" height="73.7031" style="stroke:#181818;stroke-width:1.0;" width="10" x="757.5" y="310.0703"/><rect fill="#FFFFFF" height="73.7031" style="stroke:#181818;stroke-width:1.0;" width="10" x="757.5" y="474.8281"/><polygon fill="#181818" points="546.5,110.9609,556.5,114.9609,546.5,118.9609,550.5,114.9609" style="stroke:#181818;stroke-width:1.0;"/><line style="stroke:#181818;stroke-width:1.0;" x1="72.5" x2="552.5" y1="114.9609" y2="114.9609"/><text fill="#000000" font-family="sans-serif" font-size="13" font-weight="bold" lengthAdjust="spacing" textLength="7" x="79.5" y="110.1045">1</text><text fill="#000000" font-family="sans-serif" font-size="13" lengthAdjust="spacing" textLength="230" x="90.5" y="110.1045">Iniciar o processo de edição de um piso</text><polygon fill="#181818" points="83.5,141.3125,73.5,145.3125,83.5,149.3125,79.5,145.3125" style="stroke:#181818;stroke-width:1.0;"/><line style="stroke:#181818;stroke-width:1.0;stroke-dasharray:2.0,2.0;" x1="77.5" x2="562.5" y1="145.3125" y2="145.3125"/><text fill="#000000" font-family="sans-serif" font-size="13" font-weight="bold" lengthAdjust="spacing" textLength="7" x="89.5" y="140.4561">2</text><text fill="#000000" font-family="sans-serif" font-size="13" lengthAdjust="spacing" textLength="451" x="100.5" y="140.4561">Seleccionar o piso que deseja editar e introduzir os dados relativos ao mesmo</text><polygon fill="#181818" points="546.5,171.6641,556.5,175.6641,546.5,179.6641,550.5,175.6641" style="stroke:#181818;stroke-width:1.0;"/><line style="stroke:#181818;stroke-width:1.0;" x1="72.5" x2="552.5" y1="175.6641" y2="175.6641"/><text fill="#000000" font-family="sans-serif" font-size="13" font-weight="bold" lengthAdjust="spacing" textLength="7" x="79.5" y="170.8076">3</text><text fill="#000000" font-family="sans-serif" font-size="13" lengthAdjust="spacing" textLength="241" x="90.5" y="170.8076">Seleccionar e inserir os dados solicitados</text><polygon fill="#181818" points="745.5,202.0156,755.5,206.0156,745.5,210.0156,749.5,206.0156" style="stroke:#181818;stroke-width:1.0;"/><line style="stroke:#181818;stroke-width:1.0;" x1="568.5" x2="751.5" y1="206.0156" y2="206.0156"/><text fill="#000000" font-family="sans-serif" font-size="13" font-weight="bold" lengthAdjust="spacing" textLength="7" x="575.5" y="201.1592">4</text><text fill="#000000" font-family="sans-serif" font-size="13" lengthAdjust="spacing" textLength="98" x="586.5" y="201.1592">GET loadFloors()</text><line style="stroke:#181818;stroke-width:1.0;" x1="767.5" x2="809.5" y1="236.3672" y2="236.3672"/><line style="stroke:#181818;stroke-width:1.0;" x1="809.5" x2="809.5" y1="236.3672" y2="249.3672"/><line style="stroke:#181818;stroke-width:1.0;" x1="768.5" x2="809.5" y1="249.3672" y2="249.3672"/><polygon fill="#181818" points="778.5,245.3672,768.5,249.3672,778.5,253.3672,774.5,249.3672" style="stroke:#181818;stroke-width:1.0;"/><text fill="#000000" font-family="sans-serif" font-size="13" font-weight="bold" lengthAdjust="spacing" textLength="7" x="774.5" y="231.5107">5</text><text fill="#000000" font-family="sans-serif" font-size="13" lengthAdjust="spacing" textLength="62" x="785.5" y="231.5107">getFloors()</text><polygon fill="#181818" points="579.5,275.7188,569.5,279.7188,579.5,283.7188,575.5,279.7188" style="stroke:#181818;stroke-width:1.0;"/><line style="stroke:#181818;stroke-width:1.0;stroke-dasharray:2.0,2.0;" x1="573.5" x2="761.5" y1="279.7188" y2="279.7188"/><text fill="#000000" font-family="sans-serif" font-size="13" font-weight="bold" lengthAdjust="spacing" textLength="7" x="585.5" y="274.8623">6</text><text fill="#000000" font-family="sans-serif" font-size="13" lengthAdjust="spacing" textLength="123" x="596.5" y="274.8623">lista de pisos (JSON)</text><polygon fill="#181818" points="745.5,306.0703,755.5,310.0703,745.5,314.0703,749.5,310.0703" style="stroke:#181818;stroke-width:1.0;"/><line style="stroke:#181818;stroke-width:1.0;" x1="568.5" x2="751.5" y1="310.0703" y2="310.0703"/><text fill="#000000" font-family="sans-serif" font-size="13" font-weight="bold" lengthAdjust="spacing" textLength="7" x="575.5" y="305.2139">7</text><text fill="#000000" font-family="sans-serif" font-size="13" lengthAdjust="spacing" textLength="115" x="586.5" y="305.2139">GET loadBuildings()</text><line style="stroke:#181818;stroke-width:1.0;" x1="767.5" x2="809.5" y1="340.4219" y2="340.4219"/><line style="stroke:#181818;stroke-width:1.0;" x1="809.5" x2="809.5" y1="340.4219" y2="353.4219"/><line style="stroke:#181818;stroke-width:1.0;" x1="768.5" x2="809.5" y1="353.4219" y2="353.4219"/><polygon fill="#181818" points="778.5,349.4219,768.5,353.4219,778.5,357.4219,774.5,353.4219" style="stroke:#181818;stroke-width:1.0;"/><text fill="#000000" font-family="sans-serif" font-size="13" font-weight="bold" lengthAdjust="spacing" textLength="7" x="774.5" y="335.5654">8</text><text fill="#000000" font-family="sans-serif" font-size="13" lengthAdjust="spacing" textLength="79" x="785.5" y="335.5654">getBuildings()</text><polygon fill="#181818" points="579.5,379.7734,569.5,383.7734,579.5,387.7734,575.5,383.7734" style="stroke:#181818;stroke-width:1.0;"/><line style="stroke:#181818;stroke-width:1.0;stroke-dasharray:2.0,2.0;" x1="573.5" x2="761.5" y1="383.7734" y2="383.7734"/><text fill="#000000" font-family="sans-serif" font-size="13" font-weight="bold" lengthAdjust="spacing" textLength="7" x="585.5" y="378.917">9</text><text fill="#000000" font-family="sans-serif" font-size="13" lengthAdjust="spacing" textLength="139" x="596.5" y="378.917">lista de edifícios (JSON)</text><polygon fill="#181818" points="83.5,410.125,73.5,414.125,83.5,418.125,79.5,414.125" style="stroke:#181818;stroke-width:1.0;"/><line style="stroke:#181818;stroke-width:1.0;stroke-dasharray:2.0,2.0;" x1="77.5" x2="562.5" y1="414.125" y2="414.125"/><text fill="#000000" font-family="sans-serif" font-size="13" font-weight="bold" lengthAdjust="spacing" textLength="14" x="89.5" y="409.2686">10</text><text fill="#000000" font-family="sans-serif" font-size="13" lengthAdjust="spacing" textLength="252" x="107.5" y="409.2686">Solicitar a confirmação dos dados inseridos</text><polygon fill="#181818" points="546.5,440.4766,556.5,444.4766,546.5,448.4766,550.5,444.4766" style="stroke:#181818;stroke-width:1.0;"/><line style="stroke:#181818;stroke-width:1.0;" x1="72.5" x2="552.5" y1="444.4766" y2="444.4766"/><text fill="#000000" font-family="sans-serif" font-size="13" font-weight="bold" lengthAdjust="spacing" textLength="14" x="79.5" y="439.6201">11</text><text fill="#000000" font-family="sans-serif" font-size="13" lengthAdjust="spacing" textLength="112" x="97.5" y="439.6201">Confirmar os dados</text><polygon fill="#181818" points="745.5,470.8281,755.5,474.8281,745.5,478.8281,749.5,474.8281" style="stroke:#181818;stroke-width:1.0;"/><line style="stroke:#181818;stroke-width:1.0;" x1="568.5" x2="751.5" y1="474.8281" y2="474.8281"/><text fill="#000000" font-family="sans-serif" font-size="13" font-weight="bold" lengthAdjust="spacing" textLength="14" x="575.5" y="469.9717">12</text><text fill="#000000" font-family="sans-serif" font-size="13" lengthAdjust="spacing" textLength="152" x="593.5" y="469.9717">PUT/PATCH updateFloor()</text><line style="stroke:#181818;stroke-width:1.0;" x1="767.5" x2="809.5" y1="505.1797" y2="505.1797"/><line style="stroke:#181818;stroke-width:1.0;" x1="809.5" x2="809.5" y1="505.1797" y2="518.1797"/><line style="stroke:#181818;stroke-width:1.0;" x1="768.5" x2="809.5" y1="518.1797" y2="518.1797"/><polygon fill="#181818" points="778.5,514.1797,768.5,518.1797,778.5,522.1797,774.5,518.1797" style="stroke:#181818;stroke-width:1.0;"/><text fill="#000000" font-family="sans-serif" font-size="13" font-weight="bold" lengthAdjust="spacing" textLength="14" x="774.5" y="500.3232">13</text><text fill="#000000" font-family="sans-serif" font-size="13" lengthAdjust="spacing" textLength="76" x="792.5" y="500.3232">updateFloor()</text><polygon fill="#181818" points="579.5,544.5313,569.5,548.5313,579.5,552.5313,575.5,548.5313" style="stroke:#181818;stroke-width:1.0;"/><line style="stroke:#181818;stroke-width:1.0;stroke-dasharray:2.0,2.0;" x1="573.5" x2="761.5" y1="548.5313" y2="548.5313"/><text fill="#000000" font-family="sans-serif" font-size="13" font-weight="bold" lengthAdjust="spacing" textLength="14" x="585.5" y="543.6748">14</text><text fill="#000000" font-family="sans-serif" font-size="13" lengthAdjust="spacing" textLength="89" x="603.5" y="543.6748">Piso atualizado</text><polygon fill="#181818" points="78.5,574.8828,68.5,578.8828,78.5,582.8828,74.5,578.8828" style="stroke:#181818;stroke-width:1.0;"/><line style="stroke:#181818;stroke-width:1.0;stroke-dasharray:2.0,2.0;" x1="72.5" x2="562.5" y1="578.8828" y2="578.8828"/><text fill="#000000" font-family="sans-serif" font-size="13" font-weight="bold" lengthAdjust="spacing" textLength="14" x="84.5" y="574.0264">15</text><text fill="#000000" font-family="sans-serif" font-size="13" lengthAdjust="spacing" textLength="192" x="102.5" y="574.0264">Informar do sucesso da operação</text><!--MD5=[2ac398319eb2c7050127bd54de2a4b32]
@startuml
autonumber
actor "Gestor de Campus" as GC

participant "<<System (C4)>>\n SPA/Frontend" as SPA
participant "<<System (C4)>>\n MDC" as MDC

activate GC

GC -> SPA : Iniciar o processo de edição de um piso
activate SPA
SPA - -> GC : Seleccionar o piso que deseja editar e introduzir os dados relativos ao mesmo
deactivate SPA

GC -> SPA : Seleccionar e inserir os dados solicitados
activate SPA
SPA -> MDC : GET loadFloors()
activate MDC
MDC -> MDC : getFloors()
MDC - -> SPA : lista de pisos (JSON)
deactivate MDC
SPA -> MDC : GET loadBuildings()
activate MDC
MDC -> MDC : getBuildings()
MDC - -> SPA : lista de edifícios (JSON)
deactivate MDC
SPA - -> GC : Solicitar a confirmação dos dados inseridos 
deactivate SPA

GC -> SPA : Confirmar os dados
activate SPA
SPA -> MDC : PUT/PATCH updateFloor()
activate MDC
MDC -> MDC : updateFloor()
MDC - -> SPA : Piso atualizado
deactivate MDC
SPA - -> GC : Informar do sucesso da operação 
deactivate SPA
deactivate GC

@enduml

PlantUML version 1.2022.7(Mon Aug 22 18:01:30 BST 2022)
(GPL source distribution)
Java Runtime: OpenJDK Runtime Environment
JVM: OpenJDK 64-Bit Server VM
Default Encoding: Cp1252
Language: pt
Country: PT
--></g></svg>