<?xml version="1.0" encoding="us-ascii" standalone="no"?><svg xmlns="http://www.w3.org/2000/svg" xmlns:xlink="http://www.w3.org/1999/xlink" contentStyleType="text/css" height="418px" preserveAspectRatio="none" style="width:605px;height:418px;background:#FFFFFF;" version="1.1" viewBox="0 0 605 418" width="605px" zoomAndPan="magnify"><defs/><g><rect fill="#FFFFFF" height="224.0371" style="stroke:#181818;stroke-width:1.0;" width="10" x="62.5" y="93.6211"/><rect fill="#FFFFFF" height="31.291" style="stroke:#181818;stroke-width:1.0;" width="10" x="355.5" y="116.9121"/><rect fill="#FFFFFF" height="138.1641" style="stroke:#181818;stroke-width:1.0;" width="10" x="355.5" y="179.4941"/><rect fill="#FFFFFF" height="115.873" style="stroke:#181818;stroke-width:1.0;" width="10" x="475.5" y="210.7852"/><line style="stroke:#181818;stroke-width:0.5;stroke-dasharray:5.0,5.0;" x1="67" x2="67" y1="83.6211" y2="335.6582"/><line style="stroke:#181818;stroke-width:0.5;stroke-dasharray:5.0,5.0;" x1="360.5" x2="360.5" y1="83.6211" y2="335.6582"/><line style="stroke:#181818;stroke-width:0.5;stroke-dasharray:5.0,5.0;" x1="480.5" x2="480.5" y1="83.6211" y2="335.6582"/><text fill="#000000" font-family="sans-serif" font-size="14" lengthAdjust="spacing" textLength="119" x="5" y="80.1074">Gestor de Campus</text><ellipse cx="67.5" cy="13.5" fill="#E2E2F0" rx="8" ry="8" style="stroke:#181818;stroke-width:0.5;"/><path d="M67.5,21.5 L67.5,48.5 M54.5,29.5 L80.5,29.5 M67.5,48.5 L54.5,63.5 M67.5,48.5 L80.5,63.5 " fill="none" style="stroke:#181818;stroke-width:0.5;"/><text fill="#000000" font-family="sans-serif" font-size="14" lengthAdjust="spacing" textLength="119" x="5" y="349.7656">Gestor de Campus</text><ellipse cx="67.5" cy="361.7793" fill="#E2E2F0" rx="8" ry="8" style="stroke:#181818;stroke-width:0.5;"/><path d="M67.5,369.7793 L67.5,396.7793 M54.5,377.7793 L80.5,377.7793 M67.5,396.7793 L54.5,411.7793 M67.5,396.7793 L80.5,411.7793 " fill="none" style="stroke:#181818;stroke-width:0.5;"/><rect fill="#E2E2F0" height="51.2422" rx="2.5" ry="2.5" style="stroke:#181818;stroke-width:0.5;" width="112" x="304.5" y="31.3789"/><text fill="#000000" font-family="sans-serif" font-size="14" lengthAdjust="spacing" textLength="94" x="311.5" y="53.4863">&#171;System (C4)&#187;</text><text fill="#000000" font-family="sans-serif" font-size="14" lengthAdjust="spacing" textLength="89" x="318" y="72.1074">SPA/Frontend</text><rect fill="#E2E2F0" height="51.2422" rx="2.5" ry="2.5" style="stroke:#181818;stroke-width:0.5;" width="112" x="304.5" y="334.6582"/><text fill="#000000" font-family="sans-serif" font-size="14" lengthAdjust="spacing" textLength="94" x="311.5" y="356.7656">&#171;System (C4)&#187;</text><text fill="#000000" font-family="sans-serif" font-size="14" lengthAdjust="spacing" textLength="89" x="318" y="375.3867">SPA/Frontend</text><rect fill="#E2E2F0" height="51.2422" rx="2.5" ry="2.5" style="stroke:#181818;stroke-width:0.5;" width="108" x="426.5" y="31.3789"/><text fill="#000000" font-family="sans-serif" font-size="14" lengthAdjust="spacing" textLength="94" x="433.5" y="53.4863">&#171;System (C4)&#187;</text><text fill="#000000" font-family="sans-serif" font-size="14" lengthAdjust="spacing" textLength="31" x="467" y="72.1074">MDC</text><rect fill="#E2E2F0" height="51.2422" rx="2.5" ry="2.5" style="stroke:#181818;stroke-width:0.5;" width="108" x="426.5" y="334.6582"/><text fill="#000000" font-family="sans-serif" font-size="14" lengthAdjust="spacing" textLength="94" x="433.5" y="356.7656">&#171;System (C4)&#187;</text><text fill="#000000" font-family="sans-serif" font-size="14" lengthAdjust="spacing" textLength="31" x="467" y="375.3867">MDC</text><rect fill="#FFFFFF" height="224.0371" style="stroke:#181818;stroke-width:1.0;" width="10" x="62.5" y="93.6211"/><rect fill="#FFFFFF" height="31.291" style="stroke:#181818;stroke-width:1.0;" width="10" x="355.5" y="116.9121"/><rect fill="#FFFFFF" height="138.1641" style="stroke:#181818;stroke-width:1.0;" width="10" x="355.5" y="179.4941"/><rect fill="#FFFFFF" height="115.873" style="stroke:#181818;stroke-width:1.0;" width="10" x="475.5" y="210.7852"/><polygon fill="#181818" points="343.5,112.9121,353.5,116.9121,343.5,120.9121,347.5,116.9121" style="stroke:#181818;stroke-width:1.0;"/><line style="stroke:#181818;stroke-width:1.0;" x1="72.5" x2="349.5" y1="116.9121" y2="116.9121"/><text fill="#000000" font-family="sans-serif" font-size="13" font-weight="bold" lengthAdjust="spacing" textLength="7" x="79.5" y="111.6494">1</text><text fill="#000000" font-family="sans-serif" font-size="13" lengthAdjust="spacing" textLength="253" x="90.5" y="111.6494">Iniciar o processo de carregar mapa de piso</text><polygon fill="#181818" points="83.5,144.2031,73.5,148.2031,83.5,152.2031,79.5,148.2031" style="stroke:#181818;stroke-width:1.0;"/><line style="stroke:#181818;stroke-width:1.0;stroke-dasharray:2.0,2.0;" x1="77.5" x2="359.5" y1="148.2031" y2="148.2031"/><text fill="#000000" font-family="sans-serif" font-size="13" font-weight="bold" lengthAdjust="spacing" textLength="7" x="89.5" y="142.9404">2</text><text fill="#000000" font-family="sans-serif" font-size="13" lengthAdjust="spacing" textLength="212" x="100.5" y="142.9404">Solicitar dados (file,idBuilding,idfloor)</text><polygon fill="#181818" points="343.5,175.4941,353.5,179.4941,343.5,183.4941,347.5,179.4941" style="stroke:#181818;stroke-width:1.0;"/><line style="stroke:#181818;stroke-width:1.0;" x1="72.5" x2="349.5" y1="179.4941" y2="179.4941"/><text fill="#000000" font-family="sans-serif" font-size="13" font-weight="bold" lengthAdjust="spacing" textLength="7" x="79.5" y="174.2314">3</text><text fill="#000000" font-family="sans-serif" font-size="13" lengthAdjust="spacing" textLength="176" x="90.5" y="174.2314">Introduzir os dados solicitados</text><polygon fill="#181818" points="463.5,206.7852,473.5,210.7852,463.5,214.7852,467.5,210.7852" style="stroke:#181818;stroke-width:1.0;"/><line style="stroke:#181818;stroke-width:1.0;" x1="365.5" x2="469.5" y1="210.7852" y2="210.7852"/><text fill="#000000" font-family="sans-serif" font-size="13" font-weight="bold" lengthAdjust="spacing" textLength="7" x="372.5" y="205.5225">4</text><text fill="#000000" font-family="sans-serif" font-size="13" lengthAdjust="spacing" textLength="79" x="383.5" y="205.5225">PATCH mapa</text><line style="stroke:#181818;stroke-width:1.0;" x1="485.5" x2="527.5" y1="242.0762" y2="242.0762"/><line style="stroke:#181818;stroke-width:1.0;" x1="527.5" x2="527.5" y1="242.0762" y2="255.0762"/><line style="stroke:#181818;stroke-width:1.0;" x1="486.5" x2="527.5" y1="255.0762" y2="255.0762"/><polygon fill="#181818" points="496.5,251.0762,486.5,255.0762,496.5,259.0762,492.5,255.0762" style="stroke:#181818;stroke-width:1.0;"/><text fill="#000000" font-family="sans-serif" font-size="13" font-weight="bold" lengthAdjust="spacing" textLength="7" x="492.5" y="236.8135">5</text><text fill="#000000" font-family="sans-serif" font-size="13" lengthAdjust="spacing" textLength="95" x="503.5" y="236.8135">uploadMap(floor)</text><polygon fill="#181818" points="376.5,282.3672,366.5,286.3672,376.5,290.3672,372.5,286.3672" style="stroke:#181818;stroke-width:1.0;"/><line style="stroke:#181818;stroke-width:1.0;stroke-dasharray:2.0,2.0;" x1="370.5" x2="474.5" y1="286.3672" y2="286.3672"/><text fill="#000000" font-family="sans-serif" font-size="13" font-weight="bold" lengthAdjust="spacing" textLength="7" x="382.5" y="281.1045">6</text><text fill="#000000" font-family="sans-serif" font-size="13" lengthAdjust="spacing" textLength="32" x="393.5" y="281.1045">Mapa</text><polygon fill="#181818" points="78.5,313.6582,68.5,317.6582,78.5,321.6582,74.5,317.6582" style="stroke:#181818;stroke-width:1.0;"/><line style="stroke:#181818;stroke-width:1.0;stroke-dasharray:2.0,2.0;" x1="72.5" x2="359.5" y1="317.6582" y2="317.6582"/><text fill="#000000" font-family="sans-serif" font-size="13" font-weight="bold" lengthAdjust="spacing" textLength="7" x="84.5" y="312.3955">7</text><text fill="#000000" font-family="sans-serif" font-size="13" lengthAdjust="spacing" textLength="181" x="95.5" y="312.3955">Informa o sucesso da opera&#231;&#227;o</text><!--SRC=[VP2_QiCm4CPtFSNXoO66Bfr2CAGATJqO0cctBbTB3W9R9_IdqBvEXpv8NgmdupPEXqwIJlVzlkyEKoIRnbVj1NQHF1Ir3lbK6YIEBeK2C40jXN3ee-cCGnkXs6wFxo7g4KfvjwegUB5mFEnk7ppPgAqg0BBikVbNnQ9sBoS3FaLEODumwickbh2kc00RQ2mJq0E1yzJf42Z7wz1xVUBoY0vpmPb05mPxitZD32Pju4W3GoAtArGKeEpDe6-CkazcKCQU-DeFH7ubb5uohc94Jofz64uIPaoOiNo_iXQJUPNdOkLXzoGVfvoNfZnn_lrjIcuWL2swSWuo_VwOjrcy7AYnFVaHUIaXpJlXXzCUpr_dJ_epXbY-URtV]--></g></svg>