<?xml version="1.0" encoding="UTF-8" standalone="no"?><svg xmlns="http://www.w3.org/2000/svg" xmlns:xlink="http://www.w3.org/1999/xlink" contentStyleType="text/css" height="475px" preserveAspectRatio="none" style="width:832px;height:475px;background:#FFFFFF;" version="1.1" viewBox="0 0 832 475" width="832px" zoomAndPan="magnify"><defs/><g><rect fill="none" height="185.9453" style="stroke:#000000;stroke-width:1.5;" width="815" x="10" y="160.3125"/><line style="stroke:#181818;stroke-width:0.5;stroke-dasharray:5.0,5.0;" x1="81" x2="81" y1="82.6094" y2="393.6094"/><line style="stroke:#181818;stroke-width:0.5;stroke-dasharray:5.0,5.0;" x1="387" x2="387" y1="82.6094" y2="393.6094"/><line style="stroke:#181818;stroke-width:0.5;stroke-dasharray:5.0,5.0;" x1="753" x2="753" y1="82.6094" y2="393.6094"/><text fill="#000000" font-family="sans-serif" font-size="14" lengthAdjust="spacing" textLength="116" x="20" y="79.5332">Gestor de campus</text><ellipse cx="81" cy="13.5" fill="#E2E2F0" rx="8" ry="8" style="stroke:#181818;stroke-width:0.5;"/><path d="M81,21.5 L81,48.5 M68,29.5 L94,29.5 M81,48.5 L68,63.5 M81,48.5 L94,63.5 " fill="none" style="stroke:#181818;stroke-width:0.5;"/><text fill="#000000" font-family="sans-serif" font-size="14" lengthAdjust="spacing" textLength="116" x="20" y="407.1426">Gestor de campus</text><ellipse cx="81" cy="418.7188" fill="#E2E2F0" rx="8" ry="8" style="stroke:#181818;stroke-width:0.5;"/><path d="M81,426.7188 L81,453.7188 M68,434.7188 L94,434.7188 M81,453.7188 L68,468.7188 M81,453.7188 L94,468.7188 " fill="none" style="stroke:#181818;stroke-width:0.5;"/><rect fill="#E2E2F0" height="49.2188" rx="2.5" ry="2.5" style="stroke:#181818;stroke-width:0.5;" width="124" x="325" y="32.3906"/><text fill="#000000" font-family="sans-serif" font-size="14" lengthAdjust="spacing" textLength="110" x="332" y="53.9238">&lt;&lt;System (C4)&gt;&gt;</text><text fill="#000000" font-family="sans-serif" font-size="14" lengthAdjust="spacing" textLength="89" x="344.5" y="71.5332">SPA/Frontend</text><rect fill="#E2E2F0" height="49.2188" rx="2.5" ry="2.5" style="stroke:#181818;stroke-width:0.5;" width="124" x="325" y="392.6094"/><text fill="#000000" font-family="sans-serif" font-size="14" lengthAdjust="spacing" textLength="110" x="332" y="414.1426">&lt;&lt;System (C4)&gt;&gt;</text><text fill="#000000" font-family="sans-serif" font-size="14" lengthAdjust="spacing" textLength="89" x="344.5" y="431.752">SPA/Frontend</text><rect fill="#E2E2F0" height="49.2188" rx="2.5" ry="2.5" style="stroke:#181818;stroke-width:0.5;" width="124" x="691" y="32.3906"/><text fill="#000000" font-family="sans-serif" font-size="14" lengthAdjust="spacing" textLength="110" x="698" y="53.9238">&lt;&lt;System (C4)&gt;&gt;</text><text fill="#000000" font-family="sans-serif" font-size="14" lengthAdjust="spacing" textLength="31" x="739.5" y="71.5332">MDC</text><rect fill="#E2E2F0" height="49.2188" rx="2.5" ry="2.5" style="stroke:#181818;stroke-width:0.5;" width="124" x="691" y="392.6094"/><text fill="#000000" font-family="sans-serif" font-size="14" lengthAdjust="spacing" textLength="110" x="698" y="414.1426">&lt;&lt;System (C4)&gt;&gt;</text><text fill="#000000" font-family="sans-serif" font-size="14" lengthAdjust="spacing" textLength="31" x="739.5" y="431.752">MDC</text><polygon fill="#181818" points="375,110.9609,385,114.9609,375,118.9609,379,114.9609" style="stroke:#181818;stroke-width:1.0;"/><line style="stroke:#181818;stroke-width:1.0;" x1="81" x2="381" y1="114.9609" y2="114.9609"/><text fill="#000000" font-family="sans-serif" font-size="13" font-weight="bold" lengthAdjust="spacing" textLength="7" x="88" y="110.1045">1</text><text fill="#000000" font-family="sans-serif" font-size="13" lengthAdjust="spacing" textLength="271" x="99" y="110.1045">faz pedido para listar passagens entre edificios</text><polygon fill="#181818" points="92,141.3125,82,145.3125,92,149.3125,88,145.3125" style="stroke:#181818;stroke-width:1.0;"/><line style="stroke:#181818;stroke-width:1.0;stroke-dasharray:2.0,2.0;" x1="86" x2="386" y1="145.3125" y2="145.3125"/><text fill="#000000" font-family="sans-serif" font-size="13" font-weight="bold" lengthAdjust="spacing" textLength="7" x="98" y="140.4561">2</text><text fill="#000000" font-family="sans-serif" font-size="13" lengthAdjust="spacing" textLength="110" x="109" y="140.4561">solicita os edificios</text><path d="M10,160.3125 L71,160.3125 L71,168.6641 L61,178.6641 L10,178.6641 L10,160.3125 " fill="#EEEEEE" style="stroke:#000000;stroke-width:1.5;"/><rect fill="none" height="185.9453" style="stroke:#000000;stroke-width:1.5;" width="815" x="10" y="160.3125"/><text fill="#000000" font-family="sans-serif" font-size="13" font-weight="bold" lengthAdjust="spacing" textLength="16" x="25" y="174.8076">alt</text><text fill="#000000" font-family="sans-serif" font-size="11" font-weight="bold" lengthAdjust="spacing" textLength="112" x="86" y="173.7314">[edificio 1, edificio 2]</text><polygon fill="#181818" points="375,197.0156,385,201.0156,375,205.0156,379,201.0156" style="stroke:#181818;stroke-width:1.0;"/><line style="stroke:#181818;stroke-width:1.0;" x1="81" x2="381" y1="201.0156" y2="201.0156"/><text fill="#000000" font-family="sans-serif" font-size="13" font-weight="bold" lengthAdjust="spacing" textLength="7" x="88" y="196.1592">3</text><text fill="#000000" font-family="sans-serif" font-size="13" lengthAdjust="spacing" textLength="130" x="99" y="196.1592">envia o id dos edificios</text><polygon fill="#181818" points="741,227.3672,751,231.3672,741,235.3672,745,231.3672" style="stroke:#181818;stroke-width:1.0;"/><line style="stroke:#181818;stroke-width:1.0;" x1="387" x2="747" y1="231.3672" y2="231.3672"/><text fill="#000000" font-family="sans-serif" font-size="13" font-weight="bold" lengthAdjust="spacing" textLength="7" x="394" y="226.5107">4</text><text fill="#000000" font-family="sans-serif" font-size="13" lengthAdjust="spacing" textLength="331" x="405" y="226.5107">GET listBridgesBetweenBuilding(idBuildingX, idBuildingY)</text><polygon fill="#181818" points="398,257.7188,388,261.7188,398,265.7188,394,261.7188" style="stroke:#181818;stroke-width:1.0;"/><line style="stroke:#181818;stroke-width:1.0;stroke-dasharray:2.0,2.0;" x1="392" x2="752" y1="261.7188" y2="261.7188"/><text fill="#000000" font-family="sans-serif" font-size="13" font-weight="bold" lengthAdjust="spacing" textLength="7" x="404" y="256.8623">5</text><text fill="#000000" font-family="sans-serif" font-size="13" lengthAdjust="spacing" textLength="193" x="415" y="256.8623">lista de passagens (Bridge: Json)</text><line style="stroke:#000000;stroke-width:1.0;stroke-dasharray:2.0,2.0;" x1="10" x2="825" y1="270.7188" y2="270.7188"/><text fill="#000000" font-family="sans-serif" font-size="11" font-weight="bold" lengthAdjust="spacing" textLength="141" x="15" y="282.1377">[sem identificar edificios]</text><polygon fill="#181818" points="741,303.9063,751,307.9063,741,311.9063,745,307.9063" style="stroke:#181818;stroke-width:1.0;"/><line style="stroke:#181818;stroke-width:1.0;" x1="387" x2="747" y1="307.9063" y2="307.9063"/><text fill="#000000" font-family="sans-serif" font-size="13" font-weight="bold" lengthAdjust="spacing" textLength="7" x="394" y="303.0498">6</text><text fill="#000000" font-family="sans-serif" font-size="13" lengthAdjust="spacing" textLength="114" x="405" y="303.0498">GET listAllBridges()</text><polygon fill="#181818" points="398,334.2578,388,338.2578,398,342.2578,394,338.2578" style="stroke:#181818;stroke-width:1.0;"/><line style="stroke:#181818;stroke-width:1.0;stroke-dasharray:2.0,2.0;" x1="392" x2="752" y1="338.2578" y2="338.2578"/><text fill="#000000" font-family="sans-serif" font-size="13" font-weight="bold" lengthAdjust="spacing" textLength="7" x="404" y="333.4014">7</text><text fill="#000000" font-family="sans-serif" font-size="13" lengthAdjust="spacing" textLength="193" x="415" y="333.4014">lista de passagens (Bridge: Json)</text><polygon fill="#181818" points="92,371.6094,82,375.6094,92,379.6094,88,375.6094" style="stroke:#181818;stroke-width:1.0;"/><line style="stroke:#181818;stroke-width:1.0;stroke-dasharray:2.0,2.0;" x1="86" x2="386" y1="375.6094" y2="375.6094"/><text fill="#000000" font-family="sans-serif" font-size="13" font-weight="bold" lengthAdjust="spacing" textLength="7" x="98" y="370.7529">8</text><text fill="#000000" font-family="sans-serif" font-size="13" lengthAdjust="spacing" textLength="194" x="109" y="370.7529">apresenta a informacao solicitada</text><!--MD5=[3b0bfc2743b31fe7c22d366aac47684a]
@startuml
autonumber
actor "Gestor de campus" 

"Gestor de campus" -> "<<System (C4)>>\n SPA/Frontend"  : faz pedido para listar passagens entre edificios

"<<System (C4)>>\n SPA/Frontend" - -> "Gestor de campus" : solicita os edificios 

alt edificio 1, edificio 2
"Gestor de campus"  -> "<<System (C4)>>\n SPA/Frontend" : envia o id dos edificios

"<<System (C4)>>\n SPA/Frontend" -> "<<System (C4)>>\n MDC" : GET listBridgesBetweenBuilding(idBuildingX, idBuildingY)

"<<System (C4)>>\n MDC" - -> "<<System (C4)>>\n SPA/Frontend"  : lista de passagens (Bridge: Json)

else  sem identificar edificios 

"<<System (C4)>>\n SPA/Frontend" -> "<<System (C4)>>\n MDC" : GET listAllBridges()

"<<System (C4)>>\n MDC" - -> "<<System (C4)>>\n SPA/Frontend"  : lista de passagens (Bridge: Json)


end alt 

"<<System (C4)>>\n SPA/Frontend"  - -> "Gestor de campus" : apresenta a informacao solicitada





@enduml

PlantUML version 1.2022.7(Mon Aug 22 18:01:30 WEST 2022)
(GPL source distribution)
Java Runtime: Java(TM) SE Runtime Environment
JVM: Java HotSpot(TM) 64-Bit Server VM
Default Encoding: UTF-8
Language: pt
Country: PT
--></g></svg>