<?xml version="1.0" encoding="UTF-8" standalone="no"?><svg xmlns="http://www.w3.org/2000/svg" xmlns:xlink="http://www.w3.org/1999/xlink" contentStyleType="text/css" height="574px" preserveAspectRatio="none" style="width:1003px;height:574px;background:#FFFFFF;" version="1.1" viewBox="0 0 1003 574" width="1003px" zoomAndPan="magnify"><defs/><g><rect fill="#FFFFFF" height="382.2188" style="stroke:#181818;stroke-width:1.0;" width="10" x="62.5" y="92.6094"/><rect fill="#FFFFFF" height="30.3516" style="stroke:#181818;stroke-width:1.0;" width="10" x="506.5" y="114.9609"/><rect fill="#FFFFFF" height="134.4063" style="stroke:#181818;stroke-width:1.0;" width="10" x="506.5" y="175.6641"/><rect fill="#FFFFFF" height="134.4063" style="stroke:#181818;stroke-width:1.0;" width="10" x="506.5" y="340.4219"/><rect fill="#FFFFFF" height="73.7031" style="stroke:#181818;stroke-width:1.0;" width="10" x="753.5" y="206.0156"/><rect fill="#FFFFFF" height="73.7031" style="stroke:#181818;stroke-width:1.0;" width="10" x="753.5" y="370.7734"/><line style="stroke:#181818;stroke-width:0.5;stroke-dasharray:5.0,5.0;" x1="67" x2="67" y1="82.6094" y2="492.8281"/><line style="stroke:#181818;stroke-width:0.5;stroke-dasharray:5.0,5.0;" x1="511.5" x2="511.5" y1="82.6094" y2="492.8281"/><line style="stroke:#181818;stroke-width:0.5;stroke-dasharray:5.0,5.0;" x1="758.5" x2="758.5" y1="82.6094" y2="492.8281"/><text fill="#000000" font-family="sans-serif" font-size="14" lengthAdjust="spacing" textLength="119" x="5" y="79.5332">Gestor de Campus</text><ellipse cx="67.5" cy="13.5" fill="#E2E2F0" rx="8" ry="8" style="stroke:#181818;stroke-width:0.5;"/><path d="M67.5,21.5 L67.5,48.5 M54.5,29.5 L80.5,29.5 M67.5,48.5 L54.5,63.5 M67.5,48.5 L80.5,63.5 " fill="none" style="stroke:#181818;stroke-width:0.5;"/><text fill="#000000" font-family="sans-serif" font-size="14" lengthAdjust="spacing" textLength="119" x="5" y="506.3613">Gestor de Campus</text><ellipse cx="67.5" cy="517.9375" fill="#E2E2F0" rx="8" ry="8" style="stroke:#181818;stroke-width:0.5;"/><path d="M67.5,525.9375 L67.5,552.9375 M54.5,533.9375 L80.5,533.9375 M67.5,552.9375 L54.5,567.9375 M67.5,552.9375 L80.5,567.9375 " fill="none" style="stroke:#181818;stroke-width:0.5;"/><rect fill="#E2E2F0" height="49.2188" rx="2.5" ry="2.5" style="stroke:#181818;stroke-width:0.5;" width="124" x="449.5" y="32.3906"/><text fill="#000000" font-family="sans-serif" font-size="14" lengthAdjust="spacing" textLength="110" x="456.5" y="53.9238">&lt;&lt;System (C4)&gt;&gt;</text><text fill="#000000" font-family="sans-serif" font-size="14" lengthAdjust="spacing" textLength="89" x="469" y="71.5332">SPA/Frontend</text><rect fill="#E2E2F0" height="49.2188" rx="2.5" ry="2.5" style="stroke:#181818;stroke-width:0.5;" width="124" x="449.5" y="491.8281"/><text fill="#000000" font-family="sans-serif" font-size="14" lengthAdjust="spacing" textLength="110" x="456.5" y="513.3613">&lt;&lt;System (C4)&gt;&gt;</text><text fill="#000000" font-family="sans-serif" font-size="14" lengthAdjust="spacing" textLength="89" x="469" y="530.9707">SPA/Frontend</text><rect fill="#E2E2F0" height="49.2188" rx="2.5" ry="2.5" style="stroke:#181818;stroke-width:0.5;" width="124" x="696.5" y="32.3906"/><text fill="#000000" font-family="sans-serif" font-size="14" lengthAdjust="spacing" textLength="110" x="703.5" y="53.9238">&lt;&lt;System (C4)&gt;&gt;</text><text fill="#000000" font-family="sans-serif" font-size="14" lengthAdjust="spacing" textLength="31" x="745" y="71.5332">MDC</text><rect fill="#E2E2F0" height="49.2188" rx="2.5" ry="2.5" style="stroke:#181818;stroke-width:0.5;" width="124" x="696.5" y="491.8281"/><text fill="#000000" font-family="sans-serif" font-size="14" lengthAdjust="spacing" textLength="110" x="703.5" y="513.3613">&lt;&lt;System (C4)&gt;&gt;</text><text fill="#000000" font-family="sans-serif" font-size="14" lengthAdjust="spacing" textLength="31" x="745" y="530.9707">MDC</text><rect fill="#FFFFFF" height="382.2188" style="stroke:#181818;stroke-width:1.0;" width="10" x="62.5" y="92.6094"/><rect fill="#FFFFFF" height="30.3516" style="stroke:#181818;stroke-width:1.0;" width="10" x="506.5" y="114.9609"/><rect fill="#FFFFFF" height="134.4063" style="stroke:#181818;stroke-width:1.0;" width="10" x="506.5" y="175.6641"/><rect fill="#FFFFFF" height="134.4063" style="stroke:#181818;stroke-width:1.0;" width="10" x="506.5" y="340.4219"/><rect fill="#FFFFFF" height="73.7031" style="stroke:#181818;stroke-width:1.0;" width="10" x="753.5" y="206.0156"/><rect fill="#FFFFFF" height="73.7031" style="stroke:#181818;stroke-width:1.0;" width="10" x="753.5" y="370.7734"/><polygon fill="#181818" points="494.5,110.9609,504.5,114.9609,494.5,118.9609,498.5,114.9609" style="stroke:#181818;stroke-width:1.0;"/><line style="stroke:#181818;stroke-width:1.0;" x1="72.5" x2="500.5" y1="114.9609" y2="114.9609"/><text fill="#000000" font-family="sans-serif" font-size="13" font-weight="bold" lengthAdjust="spacing" textLength="7" x="79.5" y="110.1045">1</text><text fill="#000000" font-family="sans-serif" font-size="13" lengthAdjust="spacing" textLength="373" x="90.5" y="110.1045">Iniciar o processo de listar pisos servidos por elevador de edificio</text><polygon fill="#181818" points="83.5,141.3125,73.5,145.3125,83.5,149.3125,79.5,145.3125" style="stroke:#181818;stroke-width:1.0;"/><line style="stroke:#181818;stroke-width:1.0;stroke-dasharray:2.0,2.0;" x1="77.5" x2="510.5" y1="145.3125" y2="145.3125"/><text fill="#000000" font-family="sans-serif" font-size="13" font-weight="bold" lengthAdjust="spacing" textLength="7" x="89.5" y="140.4561">2</text><text fill="#000000" font-family="sans-serif" font-size="13" lengthAdjust="spacing" textLength="270" x="100.5" y="140.4561">Solicitar o edíficio que pretende listar os dados</text><polygon fill="#181818" points="494.5,171.6641,504.5,175.6641,494.5,179.6641,498.5,175.6641" style="stroke:#181818;stroke-width:1.0;"/><line style="stroke:#181818;stroke-width:1.0;" x1="72.5" x2="500.5" y1="175.6641" y2="175.6641"/><text fill="#000000" font-family="sans-serif" font-size="13" font-weight="bold" lengthAdjust="spacing" textLength="7" x="79.5" y="170.8076">3</text><text fill="#000000" font-family="sans-serif" font-size="13" lengthAdjust="spacing" textLength="183" x="90.5" y="170.8076">Selecciona o edifício pretendido</text><polygon fill="#181818" points="741.5,202.0156,751.5,206.0156,741.5,210.0156,745.5,206.0156" style="stroke:#181818;stroke-width:1.0;"/><line style="stroke:#181818;stroke-width:1.0;" x1="516.5" x2="747.5" y1="206.0156" y2="206.0156"/><text fill="#000000" font-family="sans-serif" font-size="13" font-weight="bold" lengthAdjust="spacing" textLength="7" x="523.5" y="201.1592">4</text><text fill="#000000" font-family="sans-serif" font-size="13" lengthAdjust="spacing" textLength="115" x="534.5" y="201.1592">GET loadBuildings()</text><line style="stroke:#181818;stroke-width:1.0;" x1="763.5" x2="805.5" y1="236.3672" y2="236.3672"/><line style="stroke:#181818;stroke-width:1.0;" x1="805.5" x2="805.5" y1="236.3672" y2="249.3672"/><line style="stroke:#181818;stroke-width:1.0;" x1="764.5" x2="805.5" y1="249.3672" y2="249.3672"/><polygon fill="#181818" points="774.5,245.3672,764.5,249.3672,774.5,253.3672,770.5,249.3672" style="stroke:#181818;stroke-width:1.0;"/><text fill="#000000" font-family="sans-serif" font-size="13" font-weight="bold" lengthAdjust="spacing" textLength="7" x="770.5" y="231.5107">5</text><text fill="#000000" font-family="sans-serif" font-size="13" lengthAdjust="spacing" textLength="79" x="781.5" y="231.5107">getBuildings()</text><polygon fill="#181818" points="527.5,275.7188,517.5,279.7188,527.5,283.7188,523.5,279.7188" style="stroke:#181818;stroke-width:1.0;"/><line style="stroke:#181818;stroke-width:1.0;stroke-dasharray:2.0,2.0;" x1="521.5" x2="757.5" y1="279.7188" y2="279.7188"/><text fill="#000000" font-family="sans-serif" font-size="13" font-weight="bold" lengthAdjust="spacing" textLength="7" x="533.5" y="274.8623">6</text><text fill="#000000" font-family="sans-serif" font-size="13" lengthAdjust="spacing" textLength="139" x="544.5" y="274.8623">lista de edifícios (JSON)</text><polygon fill="#181818" points="83.5,306.0703,73.5,310.0703,83.5,314.0703,79.5,310.0703" style="stroke:#181818;stroke-width:1.0;"/><line style="stroke:#181818;stroke-width:1.0;stroke-dasharray:2.0,2.0;" x1="77.5" x2="510.5" y1="310.0703" y2="310.0703"/><text fill="#000000" font-family="sans-serif" font-size="13" font-weight="bold" lengthAdjust="spacing" textLength="7" x="89.5" y="305.2139">7</text><text fill="#000000" font-family="sans-serif" font-size="13" lengthAdjust="spacing" textLength="196" x="100.5" y="305.2139">Solicitar a confirmação dos dados</text><polygon fill="#181818" points="494.5,336.4219,504.5,340.4219,494.5,344.4219,498.5,340.4219" style="stroke:#181818;stroke-width:1.0;"/><line style="stroke:#181818;stroke-width:1.0;" x1="72.5" x2="500.5" y1="340.4219" y2="340.4219"/><text fill="#000000" font-family="sans-serif" font-size="13" font-weight="bold" lengthAdjust="spacing" textLength="7" x="79.5" y="335.5654">8</text><text fill="#000000" font-family="sans-serif" font-size="13" lengthAdjust="spacing" textLength="108" x="90.5" y="335.5654">Confirma os dados</text><polygon fill="#181818" points="741.5,366.7734,751.5,370.7734,741.5,374.7734,745.5,370.7734" style="stroke:#181818;stroke-width:1.0;"/><line style="stroke:#181818;stroke-width:1.0;" x1="516.5" x2="747.5" y1="370.7734" y2="370.7734"/><text fill="#000000" font-family="sans-serif" font-size="13" font-weight="bold" lengthAdjust="spacing" textLength="7" x="523.5" y="365.917">9</text><text fill="#000000" font-family="sans-serif" font-size="13" lengthAdjust="spacing" textLength="131" x="534.5" y="365.917">GET getFloorsServed()</text><line style="stroke:#181818;stroke-width:1.0;stroke-dasharray:2.0,2.0;" x1="763.5" x2="805.5" y1="401.125" y2="401.125"/><line style="stroke:#181818;stroke-width:1.0;stroke-dasharray:2.0,2.0;" x1="805.5" x2="805.5" y1="401.125" y2="414.125"/><line style="stroke:#181818;stroke-width:1.0;stroke-dasharray:2.0,2.0;" x1="764.5" x2="805.5" y1="414.125" y2="414.125"/><polygon fill="#181818" points="774.5,410.125,764.5,414.125,774.5,418.125,770.5,414.125" style="stroke:#181818;stroke-width:1.0;"/><text fill="#000000" font-family="sans-serif" font-size="13" font-weight="bold" lengthAdjust="spacing" textLength="14" x="770.5" y="396.2686">10</text><text fill="#000000" font-family="sans-serif" font-size="13" lengthAdjust="spacing" textLength="208" x="788.5" y="396.2686">getFloorsBuildingElevator(buildingId)</text><polygon fill="#181818" points="527.5,440.4766,517.5,444.4766,527.5,448.4766,523.5,444.4766" style="stroke:#181818;stroke-width:1.0;"/><line style="stroke:#181818;stroke-width:1.0;stroke-dasharray:2.0,2.0;" x1="521.5" x2="757.5" y1="444.4766" y2="444.4766"/><text fill="#000000" font-family="sans-serif" font-size="13" font-weight="bold" lengthAdjust="spacing" textLength="14" x="533.5" y="439.6201">11</text><text fill="#000000" font-family="sans-serif" font-size="13" lengthAdjust="spacing" textLength="195" x="551.5" y="439.6201">lista de elevadores e pisos(JSON)</text><polygon fill="#181818" points="78.5,470.8281,68.5,474.8281,78.5,478.8281,74.5,474.8281" style="stroke:#181818;stroke-width:1.0;"/><line style="stroke:#181818;stroke-width:1.0;stroke-dasharray:2.0,2.0;" x1="72.5" x2="510.5" y1="474.8281" y2="474.8281"/><text fill="#000000" font-family="sans-serif" font-size="13" font-weight="bold" lengthAdjust="spacing" textLength="14" x="84.5" y="469.9717">12</text><text fill="#000000" font-family="sans-serif" font-size="13" lengthAdjust="spacing" textLength="392" x="102.5" y="469.9717">Apresenta a informação solicitada e informa o sucesso da operação</text><!--MD5=[52a79a9a61d7d7fe1f41aa9ad79dfeb3]
@startuml
autonumber
actor "Gestor de Campus" as GC

participant "<<System (C4)>>\n SPA/Frontend" as SPA
participant "<<System (C4)>>\n MDC" as MDC

activate GC
GC -> SPA : Iniciar o processo de listar pisos servidos por elevador de edificio
activate SPA
SPA - -> GC : Solicitar o edíficio que pretende listar os dados 
deactivate SPA

GC -> SPA : Selecciona o edifício pretendido
activate SPA
SPA -> MDC : GET loadBuildings()
activate MDC
MDC -> MDC : getBuildings()
MDC - -> SPA : lista de edifícios (JSON)
deactivate MDC
SPA - -> GC : Solicitar a confirmação dos dados 
deactivate SPA

GC -> SPA : Confirma os dados
activate SPA
SPA -> MDC : GET getFloorsServed()
activate MDC
MDC - -> MDC : getFloorsBuildingElevator(buildingId)
MDC - -> SPA : lista de elevadores e pisos(JSON)
deactivate MDC
SPA - -> GC : Apresenta a informação solicitada e informa o sucesso da operação
deactivate SPA
deactivate GC

@enduml

PlantUML version 1.2022.7(Mon Aug 22 18:01:30 BST 2022)
(GPL source distribution)
Java Runtime: OpenJDK Runtime Environment
JVM: OpenJDK 64-Bit Server VM
Default Encoding: Cp1252
Language: pt
Country: PT
--></g></svg>