<?xml version="1.0" encoding="UTF-8" standalone="no"?><svg xmlns="http://www.w3.org/2000/svg" xmlns:xlink="http://www.w3.org/1999/xlink" contentStyleType="text/css" height="410px" preserveAspectRatio="none" style="width:540px;height:410px;background:#FFFFFF;" version="1.1" viewBox="0 0 540 410" width="540px" zoomAndPan="magnify"><defs/><g><rect fill="#FFFFFF" height="217.4609" style="stroke:#181818;stroke-width:1.0;" width="10" x="49" y="92.6094"/><rect fill="#FFFFFF" height="30.3516" style="stroke:#181818;stroke-width:1.0;" width="10" x="313" y="114.9609"/><rect fill="#FFFFFF" height="134.4063" style="stroke:#181818;stroke-width:1.0;" width="10" x="313" y="175.6641"/><rect fill="#FFFFFF" height="113.0547" style="stroke:#181818;stroke-width:1.0;" width="10" x="447" y="206.0156"/><line style="stroke:#181818;stroke-width:0.5;stroke-dasharray:5.0,5.0;" x1="54" x2="54" y1="82.6094" y2="328.0703"/><line style="stroke:#181818;stroke-width:0.5;stroke-dasharray:5.0,5.0;" x1="318" x2="318" y1="82.6094" y2="328.0703"/><line style="stroke:#181818;stroke-width:0.5;stroke-dasharray:5.0,5.0;" x1="452" x2="452" y1="82.6094" y2="328.0703"/><text fill="#000000" font-family="sans-serif" font-size="14" lengthAdjust="spacing" textLength="92" x="5" y="79.5332">Fleet Manager</text><ellipse cx="54" cy="13.5" fill="#E2E2F0" rx="8" ry="8" style="stroke:#181818;stroke-width:0.5;"/><path d="M54,21.5 L54,48.5 M41,29.5 L67,29.5 M54,48.5 L41,63.5 M54,48.5 L67,63.5 " fill="none" style="stroke:#181818;stroke-width:0.5;"/><text fill="#000000" font-family="sans-serif" font-size="14" lengthAdjust="spacing" textLength="92" x="5" y="341.6035">Fleet Manager</text><ellipse cx="54" cy="353.1797" fill="#E2E2F0" rx="8" ry="8" style="stroke:#181818;stroke-width:0.5;"/><path d="M54,361.1797 L54,388.1797 M41,369.1797 L67,369.1797 M54,388.1797 L41,403.1797 M54,388.1797 L67,403.1797 " fill="none" style="stroke:#181818;stroke-width:0.5;"/><rect fill="#E2E2F0" height="49.2188" rx="2.5" ry="2.5" style="stroke:#181818;stroke-width:0.5;" width="124" x="256" y="32.3906"/><text fill="#000000" font-family="sans-serif" font-size="14" lengthAdjust="spacing" textLength="110" x="263" y="53.9238">&lt;&lt;System (C4)&gt;&gt;</text><text fill="#000000" font-family="sans-serif" font-size="14" lengthAdjust="spacing" textLength="84" x="278" y="71.5332">RobDroneGo</text><rect fill="#E2E2F0" height="49.2188" rx="2.5" ry="2.5" style="stroke:#181818;stroke-width:0.5;" width="124" x="256" y="327.0703"/><text fill="#000000" font-family="sans-serif" font-size="14" lengthAdjust="spacing" textLength="110" x="263" y="348.6035">&lt;&lt;System (C4)&gt;&gt;</text><text fill="#000000" font-family="sans-serif" font-size="14" lengthAdjust="spacing" textLength="84" x="278" y="366.2129">RobDroneGo</text><rect fill="#E2E2F0" height="49.2188" rx="2.5" ry="2.5" style="stroke:#181818;stroke-width:0.5;" width="124" x="390" y="32.3906"/><text fill="#000000" font-family="sans-serif" font-size="14" lengthAdjust="spacing" textLength="110" x="397" y="53.9238">&lt;&lt;System (C4)&gt;&gt;</text><text fill="#000000" font-family="sans-serif" font-size="14" lengthAdjust="spacing" textLength="31" x="438.5" y="71.5332">MDC</text><rect fill="#E2E2F0" height="49.2188" rx="2.5" ry="2.5" style="stroke:#181818;stroke-width:0.5;" width="124" x="390" y="327.0703"/><text fill="#000000" font-family="sans-serif" font-size="14" lengthAdjust="spacing" textLength="110" x="397" y="348.6035">&lt;&lt;System (C4)&gt;&gt;</text><text fill="#000000" font-family="sans-serif" font-size="14" lengthAdjust="spacing" textLength="31" x="438.5" y="366.2129">MDC</text><rect fill="#FFFFFF" height="217.4609" style="stroke:#181818;stroke-width:1.0;" width="10" x="49" y="92.6094"/><rect fill="#FFFFFF" height="30.3516" style="stroke:#181818;stroke-width:1.0;" width="10" x="313" y="114.9609"/><rect fill="#FFFFFF" height="134.4063" style="stroke:#181818;stroke-width:1.0;" width="10" x="313" y="175.6641"/><rect fill="#FFFFFF" height="113.0547" style="stroke:#181818;stroke-width:1.0;" width="10" x="447" y="206.0156"/><polygon fill="#181818" points="301,110.9609,311,114.9609,301,118.9609,305,114.9609" style="stroke:#181818;stroke-width:1.0;"/><line style="stroke:#181818;stroke-width:1.0;" x1="59" x2="307" y1="114.9609" y2="114.9609"/><text fill="#000000" font-family="sans-serif" font-size="13" font-weight="bold" lengthAdjust="spacing" textLength="7" x="66" y="110.1045">1</text><text fill="#000000" font-family="sans-serif" font-size="13" lengthAdjust="spacing" textLength="174" x="77" y="110.1045">Initiate process to inhibit robot</text><polygon fill="#181818" points="70,141.3125,60,145.3125,70,149.3125,66,145.3125" style="stroke:#181818;stroke-width:1.0;"/><line style="stroke:#181818;stroke-width:1.0;stroke-dasharray:2.0,2.0;" x1="64" x2="317" y1="145.3125" y2="145.3125"/><text fill="#000000" font-family="sans-serif" font-size="13" font-weight="bold" lengthAdjust="spacing" textLength="7" x="76" y="140.4561">2</text><text fill="#000000" font-family="sans-serif" font-size="13" lengthAdjust="spacing" textLength="124" x="87" y="140.4561">lists all robots US350</text><polygon fill="#181818" points="301,171.6641,311,175.6641,301,179.6641,305,175.6641" style="stroke:#181818;stroke-width:1.0;"/><line style="stroke:#181818;stroke-width:1.0;" x1="59" x2="307" y1="175.6641" y2="175.6641"/><text fill="#000000" font-family="sans-serif" font-size="13" font-weight="bold" lengthAdjust="spacing" textLength="7" x="66" y="170.8076">3</text><text fill="#000000" font-family="sans-serif" font-size="13" lengthAdjust="spacing" textLength="135" x="77" y="170.8076">Selects Robot to inhibit</text><polygon fill="#181818" points="435,202.0156,445,206.0156,435,210.0156,439,206.0156" style="stroke:#181818;stroke-width:1.0;"/><line style="stroke:#181818;stroke-width:1.0;" x1="323" x2="441" y1="206.0156" y2="206.0156"/><text fill="#000000" font-family="sans-serif" font-size="13" font-weight="bold" lengthAdjust="spacing" textLength="7" x="330" y="201.1592">4</text><text fill="#000000" font-family="sans-serif" font-size="13" lengthAdjust="spacing" textLength="81" x="341" y="201.1592">PATCH Robot</text><line style="stroke:#181818;stroke-width:1.0;" x1="457" x2="499" y1="236.3672" y2="236.3672"/><line style="stroke:#181818;stroke-width:1.0;" x1="499" x2="499" y1="236.3672" y2="249.3672"/><line style="stroke:#181818;stroke-width:1.0;" x1="458" x2="499" y1="249.3672" y2="249.3672"/><polygon fill="#181818" points="468,245.3672,458,249.3672,468,253.3672,464,249.3672" style="stroke:#181818;stroke-width:1.0;"/><text fill="#000000" font-family="sans-serif" font-size="13" font-weight="bold" lengthAdjust="spacing" textLength="7" x="464" y="231.5107">5</text><text fill="#000000" font-family="sans-serif" font-size="13" lengthAdjust="spacing" textLength="58" x="475" y="231.5107">edit(robot)</text><polygon fill="#181818" points="334,275.7188,324,279.7188,334,283.7188,330,279.7188" style="stroke:#181818;stroke-width:1.0;"/><line style="stroke:#181818;stroke-width:1.0;stroke-dasharray:2.0,2.0;" x1="328" x2="446" y1="279.7188" y2="279.7188"/><text fill="#000000" font-family="sans-serif" font-size="13" font-weight="bold" lengthAdjust="spacing" textLength="7" x="340" y="274.8623">6</text><text fill="#000000" font-family="sans-serif" font-size="13" lengthAdjust="spacing" textLength="81" x="351" y="274.8623">robot inhibited</text><polygon fill="#181818" points="65,306.0703,55,310.0703,65,314.0703,61,310.0703" style="stroke:#181818;stroke-width:1.0;"/><line style="stroke:#181818;stroke-width:1.0;stroke-dasharray:2.0,2.0;" x1="59" x2="317" y1="310.0703" y2="310.0703"/><text fill="#000000" font-family="sans-serif" font-size="13" font-weight="bold" lengthAdjust="spacing" textLength="7" x="71" y="305.2139">7</text><text fill="#000000" font-family="sans-serif" font-size="13" lengthAdjust="spacing" textLength="219" x="82" y="305.2139">Informs of operation success or failure</text><!--MD5=[dc81b64ec832268bcab87980b995c7a5]
@startuml
autonumber
actor "Fleet Manager" as GC
participant "<<System (C4)>>\n RobDroneGo" as UI
participant "<<System (C4)>>\n MDC" as MDC

activate GC


GC -> UI : Initiate process to inhibit robot
activate UI
UI- -> GC : lists all robots US350
deactivate UI
GC -> UI: Selects Robot to inhibit
activate UI
UI -> MDC : PATCH Robot
activate MDC
MDC -> MDC : edit(robot)
MDC - -> UI : robot inhibited
UI - -> GC : Informs of operation success or failure
deactivate UI

deactivate GC

@enduml

PlantUML version 1.2022.7(Mon Aug 22 18:01:30 BST 2022)
(GPL source distribution)
Java Runtime: Java(TM) SE Runtime Environment
JVM: Java HotSpot(TM) 64-Bit Server VM
Default Encoding: Cp1252
Language: en
Country: US
--></g></svg>