<?xml version="1.0" encoding="UTF-8" standalone="no"?><svg xmlns="http://www.w3.org/2000/svg" xmlns:xlink="http://www.w3.org/1999/xlink" contentStyleType="text/css" height="463px" preserveAspectRatio="none" style="width:857px;height:463px;background:#FFFFFF;" version="1.1" viewBox="0 0 857 463" width="857px" zoomAndPan="magnify"><defs/><g><line style="stroke:#181818;stroke-width:0.5;stroke-dasharray:5.0,5.0;" x1="164" x2="164" y1="82.6094" y2="381.7734"/><line style="stroke:#181818;stroke-width:0.5;stroke-dasharray:5.0,5.0;" x1="497.5" x2="497.5" y1="82.6094" y2="381.7734"/><line style="stroke:#181818;stroke-width:0.5;stroke-dasharray:5.0,5.0;" x1="789.5" x2="789.5" y1="82.6094" y2="381.7734"/><text fill="#000000" font-family="sans-serif" font-size="14" lengthAdjust="spacing" textLength="87" x="118" y="79.5332">Administrador</text><ellipse cx="164.5" cy="13.5" fill="#E2E2F0" rx="8" ry="8" style="stroke:#181818;stroke-width:0.5;"/><path d="M164.5,21.5 L164.5,48.5 M151.5,29.5 L177.5,29.5 M164.5,48.5 L151.5,63.5 M164.5,48.5 L177.5,63.5 " fill="none" style="stroke:#181818;stroke-width:0.5;"/><text fill="#000000" font-family="sans-serif" font-size="14" lengthAdjust="spacing" textLength="87" x="118" y="395.3066">Administrador</text><ellipse cx="164.5" cy="406.8828" fill="#E2E2F0" rx="8" ry="8" style="stroke:#181818;stroke-width:0.5;"/><path d="M164.5,414.8828 L164.5,441.8828 M151.5,422.8828 L177.5,422.8828 M164.5,441.8828 L151.5,456.8828 M164.5,441.8828 L177.5,456.8828 " fill="none" style="stroke:#181818;stroke-width:0.5;"/><rect fill="#E2E2F0" height="49.2188" rx="2.5" ry="2.5" style="stroke:#181818;stroke-width:0.5;" width="128" x="433.5" y="32.3906"/><text fill="#000000" font-family="sans-serif" font-size="14" lengthAdjust="spacing" textLength="110" x="440.5" y="53.9238">&lt;&lt;System (C4)&gt;&gt;</text><text fill="#000000" font-family="sans-serif" font-size="14" lengthAdjust="spacing" textLength="89" x="455" y="71.5332">SPA/Frontend</text><rect fill="#E2E2F0" height="49.2188" rx="2.5" ry="2.5" style="stroke:#181818;stroke-width:0.5;" width="128" x="433.5" y="380.7734"/><text fill="#000000" font-family="sans-serif" font-size="14" lengthAdjust="spacing" textLength="110" x="440.5" y="402.3066">&lt;&lt;System (C4)&gt;&gt;</text><text fill="#000000" font-family="sans-serif" font-size="14" lengthAdjust="spacing" textLength="89" x="455" y="419.916">SPA/Frontend</text><rect fill="#E2E2F0" height="49.2188" rx="2.5" ry="2.5" style="stroke:#181818;stroke-width:0.5;" width="124" x="727.5" y="32.3906"/><text fill="#000000" font-family="sans-serif" font-size="14" lengthAdjust="spacing" textLength="110" x="734.5" y="53.9238">&lt;&lt;System (C4)&gt;&gt;</text><text fill="#000000" font-family="sans-serif" font-size="14" lengthAdjust="spacing" textLength="30" x="776.5" y="71.5332">MDU</text><rect fill="#E2E2F0" height="49.2188" rx="2.5" ry="2.5" style="stroke:#181818;stroke-width:0.5;" width="124" x="727.5" y="380.7734"/><text fill="#000000" font-family="sans-serif" font-size="14" lengthAdjust="spacing" textLength="110" x="734.5" y="402.3066">&lt;&lt;System (C4)&gt;&gt;</text><text fill="#000000" font-family="sans-serif" font-size="14" lengthAdjust="spacing" textLength="30" x="776.5" y="419.916">MDU</text><path d="M5,97.6094 L5,123.6094 L325,123.6094 L325,107.6094 L315,97.6094 L5,97.6094 " fill="#FEFFDD" style="stroke:#181818;stroke-width:0.5;"/><path d="M315,97.6094 L315,107.6094 L325,107.6094 L315,97.6094 " fill="#FEFFDD" style="stroke:#181818;stroke-width:0.5;"/><text fill="#000000" font-family="sans-serif" font-size="13" lengthAdjust="spacing" textLength="299" x="11" y="116.1045">ver Diagrama LogInN2(representa interaçao anterior)</text><polygon fill="#181818" points="485.5,147.3125,495.5,151.3125,485.5,155.3125,489.5,151.3125" style="stroke:#181818;stroke-width:1.0;"/><line style="stroke:#181818;stroke-width:1.0;" x1="164.5" x2="491.5" y1="151.3125" y2="151.3125"/><text fill="#000000" font-family="sans-serif" font-size="13" lengthAdjust="spacing" textLength="309" x="171.5" y="146.4561">faz pedido para listar utentes pendentes de aceitação</text><polygon fill="#181818" points="777.5,177.6641,787.5,181.6641,777.5,185.6641,781.5,181.6641" style="stroke:#181818;stroke-width:1.0;"/><line style="stroke:#181818;stroke-width:1.0;" x1="497.5" x2="783.5" y1="181.6641" y2="181.6641"/><text fill="#000000" font-family="sans-serif" font-size="13" lengthAdjust="spacing" textLength="168" x="504.5" y="176.8076">GET '/Users/PendingUtentes'</text><polygon fill="#181818" points="508.5,208.0156,498.5,212.0156,508.5,216.0156,504.5,212.0156" style="stroke:#181818;stroke-width:1.0;"/><line style="stroke:#181818;stroke-width:1.0;stroke-dasharray:2.0,2.0;" x1="502.5" x2="788.5" y1="212.0156" y2="212.0156"/><text fill="#000000" font-family="sans-serif" font-size="13" lengthAdjust="spacing" textLength="268" x="514.5" y="207.1592">return lista de utentes pendentes de aceitação</text><polygon fill="#181818" points="175.5,238.3672,165.5,242.3672,175.5,246.3672,171.5,242.3672" style="stroke:#181818;stroke-width:1.0;"/><line style="stroke:#181818;stroke-width:1.0;stroke-dasharray:2.0,2.0;" x1="169.5" x2="496.5" y1="242.3672" y2="242.3672"/><text fill="#000000" font-family="sans-serif" font-size="13" lengthAdjust="spacing" textLength="273" x="181.5" y="237.5107">mostra a lista de utentes com estado pendente</text><polygon fill="#181818" points="485.5,268.7188,495.5,272.7188,485.5,276.7188,489.5,272.7188" style="stroke:#181818;stroke-width:1.0;"/><line style="stroke:#181818;stroke-width:1.0;" x1="164.5" x2="491.5" y1="272.7188" y2="272.7188"/><text fill="#000000" font-family="sans-serif" font-size="13" lengthAdjust="spacing" textLength="120" x="171.5" y="267.8623">aceita/recusa pedido</text><polygon fill="#181818" points="777.5,299.0703,787.5,303.0703,777.5,307.0703,781.5,303.0703" style="stroke:#181818;stroke-width:1.0;"/><line style="stroke:#181818;stroke-width:1.0;stroke-dasharray:2.0,2.0;" x1="497.5" x2="783.5" y1="303.0703" y2="303.0703"/><text fill="#000000" font-family="sans-serif" font-size="13" lengthAdjust="spacing" textLength="193" x="504.5" y="298.2139">PUT '/Users/{email}/updatestatus'</text><polygon fill="#181818" points="508.5,329.4219,498.5,333.4219,508.5,337.4219,504.5,333.4219" style="stroke:#181818;stroke-width:1.0;"/><line style="stroke:#181818;stroke-width:1.0;stroke-dasharray:2.0,2.0;" x1="502.5" x2="788.5" y1="333.4219" y2="333.4219"/><text fill="#000000" font-family="sans-serif" font-size="13" lengthAdjust="spacing" textLength="124" x="514.5" y="328.5654">sucesso da operação</text><polygon fill="#181818" points="175.5,359.7734,165.5,363.7734,175.5,367.7734,171.5,363.7734" style="stroke:#181818;stroke-width:1.0;"/><line style="stroke:#181818;stroke-width:1.0;stroke-dasharray:2.0,2.0;" x1="169.5" x2="496.5" y1="363.7734" y2="363.7734"/><text fill="#000000" font-family="sans-serif" font-size="13" lengthAdjust="spacing" textLength="124" x="181.5" y="358.917">sucesso da operação</text><!--MD5=[54a9101bbc6d0f8d329cd484fbd6ecea]
@startuml

actor "Administrador"

' Referência ao diagrama anterior
note over "Administrador"
  ver Diagrama LogInN2(representa interaçao anterior)
end note

"Administrador" -> "<<System (C4)>> \n SPA/Frontend" : faz pedido para listar utentes pendentes de aceitação

"<<System (C4)>> \n SPA/Frontend" -> "<<System (C4)>>\n MDU": GET '/Users/PendingUtentes'

"<<System (C4)>>\n MDU" - -> "<<System (C4)>> \n SPA/Frontend": return lista de utentes pendentes de aceitação

"<<System (C4)>> \n SPA/Frontend" - -> "Administrador" : mostra a lista de utentes com estado pendente

"Administrador" -> "<<System (C4)>> \n SPA/Frontend" : aceita/recusa pedido

"<<System (C4)>> \n SPA/Frontend" - -> "<<System (C4)>>\n MDU" : PUT '/Users/{email}/updatestatus'

"<<System (C4)>>\n MDU"  - -> "<<System (C4)>> \n SPA/Frontend" : sucesso da operação


"<<System (C4)>> \n SPA/Frontend"  - -> "Administrador"  : sucesso da operação

@enduml

@startuml

actor "Administrador"

note over "Administrador"
  ver Diagrama LogInN2(representa interaçao anterior)
end note

"Administrador" -> "<<System (C4)>> \n SPA/Frontend" : faz pedido para listar utentes pendentes de aceitação

"<<System (C4)>> \n SPA/Frontend" -> "<<System (C4)>>\n MDU": GET '/Users/PendingUtentes'

"<<System (C4)>>\n MDU" - -> "<<System (C4)>> \n SPA/Frontend": return lista de utentes pendentes de aceitação

"<<System (C4)>> \n SPA/Frontend" - -> "Administrador" : mostra a lista de utentes com estado pendente

"Administrador" -> "<<System (C4)>> \n SPA/Frontend" : aceita/recusa pedido

"<<System (C4)>> \n SPA/Frontend" - -> "<<System (C4)>>\n MDU" : PUT '/Users/{email}/updatestatus'

"<<System (C4)>>\n MDU"  - -> "<<System (C4)>> \n SPA/Frontend" : sucesso da operação


"<<System (C4)>> \n SPA/Frontend"  - -> "Administrador"  : sucesso da operação

@enduml

PlantUML version 1.2022.7(Mon Aug 22 18:01:30 WEST 2022)
(GPL source distribution)
Java Runtime: Java(TM) SE Runtime Environment
JVM: Java HotSpot(TM) 64-Bit Server VM
Default Encoding: UTF-8
Language: pt
Country: PT
--></g></svg>